999
DXF file: switch-plate.dxf
999
Pro/ENGINEER 2018100 by Parametric Technology Corporation
  0
SECTION
  2
HEADER
  9
$ACADVER
  1
AC1027
  9
$DWGCODEPAGE
  3
ANSI_1252
  9
$EXTMAX
 10
17.0
 20
11.0
 30
0.0
  9
$EXTMIN
 10
0.0
 20
0.0
 30
0.0
  9
$LIMMIN
 10
0.0
 20
0.0
  9
$LIMMAX
 10
17.0
 20
11.0
  9
$VIEWCTR
 10
8.5
 20
5.5
  9
$VIEWSIZE
 40
11.0
  9
$CLAYER
  8
0
  9
$LTSCALE
 40
0.935
  9
$CELTYPE
  6
BYLAYER
  9
$DIMSCALE
 40
1.0
  9
$DIMASZ
 40
0.1875
  9
$DIMEXO
 40
0.0625
  9
$DIMDLI
 40
0.646
  9
$DIMEXE
 40
0.125
  9
$DIMCEN
 40
0.153
  9
$DIMLFAC
 40
1.0
  9
$DIMBLK
  1
_CLOSED
  9
$DIMALT
 70
0
  9
$DIMALTF
 40
25.4
  9
$DIMTXT
 40
0.15625
  9
$DIMTOL
 70
0
  9
$DIMLIM
 70
0
  9
$DIMTFAC
 40
1.0
  9
$DIMGAP
 40
0.09
  9
$DIMDSEP
 70
46
  9
$AUNITS
 70
0
  9
$PDMODE
 70
3
  9
$PDSIZE
 40
0.3125
  9
$HANDSEED
  5
4A1
  9
$TILEMODE
 70
1
  9
$MEASUREMENT
 70
0
  9
$INSUNITS
 70
1
  0
ENDSEC
  0
SECTION
  2
CLASSES
  0
CLASS
  1
ACDBDICTIONARYWDFLT
  2
AcDbDictionaryWithDefault
  3
AutoCAD 2000
 90
0
 91
1
280
0
281
0
  0
CLASS
  1
ACDBPLACEHOLDER
  2
AcDbPlaceHolder
  3
AutoCAD 2000
 90
0
 91
1
280
0
281
0
  0
CLASS
  1
LAYOUT
  2
AcDbLayout
  3
AutoCAD 2000
 90
0
 91
0
280
0
281
0
  0
ENDSEC
  0
SECTION
  2
TABLES
  0
TABLE
  2
VPORT
  5
8
100
AcDbSymbolTable
 70
2
  0
VPORT
  5
1F4
100
AcDbSymbolTableRecord
100
AcDbViewportTableRecord
  2
*ACTIVE
 70
0
 10
0.0
 20
0.0
 11
1.0
 21
1.0
 12
8.5
 22
5.5
 13
0.0
 23
0.0
 14
1.0
 24
1.0
 15
0.0
 25
0.0
 16
0.0
 26
0.0
 36
1.0
 17
0.0
 27
0.0
 37
0.0
 40
11.0
 41
1.5454545455
 42
50.0
 43
0.0
 44
0.0
 50
0.0
 51
0.0
 71
0
 72
100
 73
1
 74
1
 75
0
 76
0
 77
0
 78
0
  0
ENDTAB
  0
TABLE
  2
LTYPE
  5
5
100
AcDbSymbolTable
 70
6
  0
LTYPE
  5
14
100
AcDbSymbolTableRecord
100
AcDbLinetypeTableRecord
  2
BYBLOCK
 70
0
  3

 72
65
 73
0
 40
0.0
  0
LTYPE
  5
15
100
AcDbSymbolTableRecord
100
AcDbLinetypeTableRecord
  2
BYLAYER
 70
0
  3

 72
65
 73
0
 40
0.0
  0
LTYPE
  5
16
100
AcDbSymbolTableRecord
100
AcDbLinetypeTableRecord
  2
CONTINUOUS
 70
64
  3
Solid line
 72
65
 73
0
 40
0.0
  0
LTYPE
  5
1F5
100
AcDbSymbolTableRecord
100
AcDbLinetypeTableRecord
  2
CENTER
 70
64
  3
____ _ ____ _ ____ _ ____ _ ____ _ ____ _ ____
 72
65
 73
4
 40
0.6
 49
0.375
 74
0
 49
-0.075
 74
0
 49
0.075
 74
0
 49
-0.075
 74
0
  0
LTYPE
  5
1F6
100
AcDbSymbolTableRecord
100
AcDbLinetypeTableRecord
  2
HIDDEN
 70
64
  3
- - - - - - - - - - - - - - - - - - - -
 72
65
 73
2
 40
0.2
 49
0.1
 74
0
 49
-0.1
 74
0
  0
LTYPE
  5
1F7
100
AcDbSymbolTableRecord
100
AcDbLinetypeTableRecord
  2
PHANTOM
 70
64
  3
_____ _ _ _____ _ _ _____ _ _ _____
 72
65
 73
6
 40
0.8
 49
0.45
 74
0
 49
-0.05
 74
0
 49
0.1
 74
0
 49
-0.05
 74
0
 49
0.1
 74
0
 49
-0.05
 74
0
  0
LTYPE
  5
1F8
100
AcDbSymbolTableRecord
100
AcDbLinetypeTableRecord
  2
DOT
 70
64
  3
. . . . . . . . . . . . . . . . . . . .
 72
65
 73
2
 40
0.2
 49
0.1
 74
0
 49
-0.1
 74
0
  0
LTYPE
  5
1F9
100
AcDbSymbolTableRecord
100
AcDbLinetypeTableRecord
  2
DASHED
 70
64
  3
- - - - - - - - - - - - - - - - - - - -
 72
65
 73
2
 40
0.2
 49
0.1
 74
0
 49
-0.1
 74
0
  0
ENDTAB
  0
TABLE
  2
LAYER
  5
2
100
AcDbSymbolTable
 70
36
  0
LAYER
  5
10
100
AcDbSymbolTableRecord
100
AcDbLayerTableRecord
  2
0
 70
0
 62
7
  6
CONTINUOUS
370
-3
390
F
  0
LAYER
  5
1FA
100
AcDbSymbolTableRecord
100
AcDbLayerTableRecord
  2
DEFAULT_1
 70
0
 62
7
  6
CENTER
370
-3
390
F
  0
LAYER
  5
1FB
100
AcDbSymbolTableRecord
100
AcDbLayerTableRecord
  2
DEFAULT_2
 70
0
 62
8
  6
HIDDEN
370
-3
390
F
  0
LAYER
  5
1FC
100
AcDbSymbolTableRecord
100
AcDbLayerTableRecord
  2
DEFAULT_3
 70
0
 62
7
  6
PHANTOM
370
-3
390
F
  0
LAYER
  5
1FD
100
AcDbSymbolTableRecord
100
AcDbLayerTableRecord
  2
01___PRT_ALL_DTM_PLN
 70
0
 62
7
  6
CONTINUOUS
370
-3
390
F
  0
LAYER
  5
1FE
100
AcDbSymbolTableRecord
100
AcDbLayerTableRecord
  2
01___PRT_DEF_DTM_PLN
 70
0
 62
7
  6
CONTINUOUS
370
-3
390
F
  0
LAYER
  5
1FF
100
AcDbSymbolTableRecord
100
AcDbLayerTableRecord
  2
02___PRT_ALL_AXES
 70
0
 62
7
  6
CONTINUOUS
370
-3
390
F
  0
LAYER
  5
200
100
AcDbSymbolTableRecord
100
AcDbLayerTableRecord
  2
03___PRT_ALL_CURVES
 70
0
 62
7
  6
CONTINUOUS
370
-3
390
F
  0
LAYER
  5
201
100
AcDbSymbolTableRecord
100
AcDbLayerTableRecord
  2
04___PRT_ALL_DTM_PNT
 70
0
 62
7
  6
CONTINUOUS
370
-3
390
F
  0
LAYER
  5
202
100
AcDbSymbolTableRecord
100
AcDbLayerTableRecord
  2
05___PRT_ALL_DTM_CSYS
 70
0
 62
7
  6
CONTINUOUS
370
-3
390
F
  0
LAYER
  5
203
100
AcDbSymbolTableRecord
100
AcDbLayerTableRecord
  2
05___PRT_DEF_DTM_CSYS
 70
0
 62
7
  6
CONTINUOUS
370
-3
390
F
  0
LAYER
  5
204
100
AcDbSymbolTableRecord
100
AcDbLayerTableRecord
  2
06___PRT_ALL_SURFS
 70
0
 62
7
  6
CONTINUOUS
370
-3
390
F
  0
ENDTAB
  0
TABLE
  2
STYLE
  5
3
100
AcDbSymbolTable
 70
1
  0
STYLE
  5
11
100
AcDbSymbolTableRecord
100
AcDbTextStyleTableRecord
  2
STANDARD
 70
0
 40
0.0
 41
0.8
 50
0.0
 71
0
 42
0.2
  3
txt
  4

  0
STYLE
  5
205
100
AcDbSymbolTableRecord
100
AcDbTextStyleTableRecord
  2
TEXTSTYLE_1
 70
0
 40
0.0
 41
0.8
 50
0.0
 71
0
 42
0.2
  3
gdt
  4

  0
ENDTAB
  0
TABLE
  2
VIEW
  5
6
100
AcDbSymbolTable
 70
0
  0
ENDTAB
  0
TABLE
  2
UCS
  5
7
100
AcDbSymbolTable
 70
0
  0
ENDTAB
  0
TABLE
  2
APPID
  5
9
100
AcDbSymbolTable
 70
1
  0
APPID
  5
206
100
AcDbSymbolTableRecord
100
AcDbRegAppTableRecord
  2
ACAD
 70
0
  0
ENDTAB
  0
TABLE
  2
BLOCK_RECORD
  5
1
100
AcDbSymbolTable
 70
0
  0
BLOCK_RECORD
  5
207
100
AcDbSymbolTableRecord
100
AcDbBlockTableRecord
  2
*Model_Space
  0
BLOCK_RECORD
  5
208
100
AcDbSymbolTableRecord
100
AcDbBlockTableRecord
  2
*Paper_Space
  0
BLOCK_RECORD
  5
209
100
AcDbSymbolTableRecord
100
AcDbBlockTableRecord
  2
_CLOSED
  0
ENDTAB
  0
TABLE
  2
DIMSTYLE
  5
A
100
AcDbSymbolTable
 70
1
100
AcDbDimStyleTable
 71
0
  0
DIMSTYLE
105
20A
100
AcDbSymbolTableRecord
100
AcDbDimStyleTableRecord
  2
STANDARD
 70
0
  3

  4

 40
1.0
 41
0.1875
 42
0.0625
 43
0.38
 44
0.125
 45
0.0
 46
0.0
 47
0.01
 48
0.01
140
0.15625
141
0.09
142
0.0
143
25.4
144
1.0
145
0.0
146
1.0
147
0.09
 71
0.0
 72
0.0
 73
1
 74
1
 75
0
 76
0
 77
0
 78
4
 79
1
170
0
171
1
172
0
173
0
174
0
175
0
176
0
177
0
178
0
270
2
179
2
271
2
272
2
273
2
274
2
275
0
280
0
281
0
282
0
283
1
284
4
285
0
286
0
287
3
288
0
340
11
278
46
341
209
342
209
343
209
344
209
  0
ENDTAB
  0
ENDSEC
  0
SECTION
  2
BLOCKS
  0
BLOCK
  5
20
100
AcDbEntity
  8
0
100
AcDbBlockBegin
  2
*Model_Space
 70
0
 10
0.0
 20
0.0
 30
0.0
  3
*Model_Space
  1

  0
ENDBLK
  5
21
100
AcDbEntity
  8
0
100
AcDbBlockEnd
  0
BLOCK
  5
1C
100
AcDbEntity
  8
0
100
AcDbBlockBegin
  2
*Paper_Space
 70
0
 10
0.0
 20
0.0
 30
0.0
  3
*Paper_Space
  1

  0
ENDBLK
  5
1D
100
AcDbEntity
  8
0
100
AcDbBlockEnd
  0
BLOCK
  5
20B
100
AcDbEntity
  8
0
100
AcDbBlockBegin
  2
_CLOSED
 70
64
 10
0.0
 20
0.0
  3
_CLOSED
  1

  0
LINE
  5
20C
100
AcDbEntity
  8
0
  6
BYBLOCK
 62
0
100
AcDbLine
 10
0.0
 20
0.0
 11
-1.0
 21
0.1666666667
  0
LINE
  5
20D
100
AcDbEntity
  8
0
  6
BYBLOCK
 62
0
100
AcDbLine
 10
-1.0
 20
0.1666666667
 11
-1.0
 21
-0.1666666667
  0
LINE
  5
20E
100
AcDbEntity
  8
0
  6
BYBLOCK
 62
0
100
AcDbLine
 10
-1.0
 20
-0.1666666667
 11
0.0
 21
0.0
  0
LINE
  5
20F
100
AcDbEntity
  8
0
  6
BYBLOCK
 62
0
100
AcDbLine
 10
-1.0
 20
0.0
 11
0.0
 21
0.0
  0
ENDBLK
  5
210
100
AcDbEntity
  8
0
  6
BYBLOCK
 62
0
100
AcDbBlockEnd
  0
ENDSEC
  0
SECTION
  2
ENTITIES
  0
LINE
  5
211
100
AcDbEntity
  8
0
100
AcDbLine
 62
7
  6
CONTINUOUS
 10
1.9819025651
 20
8.0524402717
 11
1.9819025651
 21
2.8231095631
  0
LINE
  5
212
100
AcDbEntity
  8
0
100
AcDbLine
 62
7
  6
CONTINUOUS
 10
2.3362332738
 20
7.0002749176
 11
2.3362332738
 21
7.7502749174
  0
LINE
  5
213
100
AcDbEntity
  8
0
100
AcDbLine
 62
7
  6
CONTINUOUS
 10
2.4356427227
 20
6.2443694058
 11
2.4356427227
 21
6.7561804295
  0
LINE
  5
214
100
AcDbEntity
  8
0
100
AcDbLine
 62
7
  6
CONTINUOUS
 10
2.5293927227
 20
3.2443694058
 11
2.5293927227
 21
3.7561804295
  0
LINE
  5
215
100
AcDbEntity
  8
0
100
AcDbLine
 62
7
  6
CONTINUOUS
 10
2.5721879983
 20
3.9156292483
 11
2.5721879983
 21
4.4668103507
  0
LINE
  5
216
100
AcDbEntity
  8
0
100
AcDbLine
 62
7
  6
CONTINUOUS
 10
2.6231427227
 20
5.4943694058
 11
2.6231427227
 21
6.0061804295
  0
LINE
  5
217
100
AcDbEntity
  8
0
100
AcDbLine
 62
7
  6
CONTINUOUS
 10
2.7168927227
 20
4.7443694058
 11
2.7168927227
 21
5.2561804295
  0
LINE
  5
218
100
AcDbEntity
  8
0
100
AcDbLine
 62
7
  6
CONTINUOUS
 10
2.8477785495
 20
4.4668103507
 11
2.8477785495
 21
3.9156292483
  0
LINE
  5
219
100
AcDbEntity
  8
0
100
AcDbLine
 62
7
  6
CONTINUOUS
 10
2.9043927227
 20
3.9943694058
 11
2.9043927227
 21
4.5061804295
  0
LINE
  5
21A
100
AcDbEntity
  8
0
100
AcDbLine
 62
7
  6
CONTINUOUS
 10
2.9868238251
 20
6.7561804295
 11
2.9868238251
 21
6.2443694058
  0
LINE
  5
21B
100
AcDbEntity
  8
0
100
AcDbLine
 62
7
  6
CONTINUOUS
 10
3.0805738251
 20
3.7561804295
 11
3.0805738251
 21
3.2443694058
  0
LINE
  5
21C
100
AcDbEntity
  8
0
100
AcDbLine
 62
7
  6
CONTINUOUS
 10
3.1743238251
 20
6.0061804295
 11
3.1743238251
 21
5.4943694058
  0
LINE
  5
21D
100
AcDbEntity
  8
0
100
AcDbLine
 62
7
  6
CONTINUOUS
 10
3.1856427227
 20
6.2443694058
 11
3.1856427227
 21
6.7561804295
  0
LINE
  5
21E
100
AcDbEntity
  8
0
100
AcDbLine
 62
7
  6
CONTINUOUS
 10
3.2680738251
 20
5.2561804295
 11
3.2680738251
 21
4.7443694058
  0
LINE
  5
21F
100
AcDbEntity
  8
0
100
AcDbLine
 62
7
  6
CONTINUOUS
 10
3.4555738251
 20
4.5061804295
 11
3.4555738251
 21
3.9943694058
  0
LINE
  5
220
100
AcDbEntity
  8
0
100
AcDbLine
 62
7
  6
CONTINUOUS
 10
3.4668927227
 20
3.2443694058
 11
3.4668927227
 21
3.7561804295
  0
LINE
  5
221
100
AcDbEntity
  8
0
100
AcDbLine
 62
7
  6
CONTINUOUS
 10
3.5121879983
 20
3.9156292483
 11
3.5121879983
 21
4.4668103507
  0
LINE
  5
222
100
AcDbEntity
  8
0
100
AcDbLine
 62
7
  6
CONTINUOUS
 10
3.5606427227
 20
5.4943694058
 11
3.5606427227
 21
6.0061804295
  0
LINE
  5
223
100
AcDbEntity
  8
0
100
AcDbLine
 62
7
  6
CONTINUOUS
 10
3.7368238251
 20
6.7561804295
 11
3.7368238251
 21
6.2443694058
  0
LINE
  5
224
100
AcDbEntity
  8
0
100
AcDbLine
 62
7
  6
CONTINUOUS
 10
3.7481427227
 20
4.7443694058
 11
3.7481427227
 21
5.2561804295
  0
LINE
  5
225
100
AcDbEntity
  8
0
100
AcDbLine
 62
7
  6
CONTINUOUS
 10
3.7877785495
 20
4.4668103507
 11
3.7877785495
 21
3.9156292483
  0
LINE
  5
226
100
AcDbEntity
  8
0
100
AcDbLine
 62
7
  6
CONTINUOUS
 10
3.9356427227
 20
6.2443694058
 11
3.9356427227
 21
6.7561804295
  0
LINE
  5
227
100
AcDbEntity
  8
0
100
AcDbLine
 62
7
  6
CONTINUOUS
 10
4.0180738251
 20
3.7561804295
 11
4.0180738251
 21
3.2443694058
  0
LINE
  5
228
100
AcDbEntity
  8
0
100
AcDbLine
 62
7
  6
CONTINUOUS
 10
4.1118238251
 20
6.0061804295
 11
4.1118238251
 21
5.4943694058
  0
LINE
  5
229
100
AcDbEntity
  8
0
100
AcDbLine
 62
7
  6
CONTINUOUS
 10
4.1231427227
 20
3.9943694058
 11
4.1231427227
 21
4.5061804295
  0
LINE
  5
22A
100
AcDbEntity
  8
0
100
AcDbLine
 62
7
  6
CONTINUOUS
 10
4.2993238251
 20
5.2561804295
 11
4.2993238251
 21
4.7443694058
  0
LINE
  5
22B
100
AcDbEntity
  8
0
100
AcDbLine
 62
7
  6
CONTINUOUS
 10
4.3106427227
 20
5.4943694058
 11
4.3106427227
 21
6.0061804295
  0
LINE
  5
22C
100
AcDbEntity
  8
0
100
AcDbLine
 62
7
  6
CONTINUOUS
 10
4.4043927227
 20
3.2443694058
 11
4.4043927227
 21
3.7561804295
  0
LINE
  5
22D
100
AcDbEntity
  8
0
100
AcDbLine
 62
7
  6
CONTINUOUS
 10
4.4868238251
 20
6.7561804295
 11
4.4868238251
 21
6.2443694058
  0
LINE
  5
22E
100
AcDbEntity
  8
0
100
AcDbLine
 62
7
  6
CONTINUOUS
 10
4.4981427227
 20
4.7443694058
 11
4.4981427227
 21
5.2561804295
  0
LINE
  5
22F
100
AcDbEntity
  8
0
100
AcDbLine
 62
7
  6
CONTINUOUS
 10
4.6743238251
 20
4.5061804295
 11
4.6743238251
 21
3.9943694058
  0
LINE
  5
230
100
AcDbEntity
  8
0
100
AcDbLine
 62
7
  6
CONTINUOUS
 10
4.6856427227
 20
6.2443694058
 11
4.6856427227
 21
6.7561804295
  0
LINE
  5
231
100
AcDbEntity
  8
0
100
AcDbLine
 62
7
  6
CONTINUOUS
 10
4.8618238251
 20
6.0061804295
 11
4.8618238251
 21
5.4943694058
  0
LINE
  5
232
100
AcDbEntity
  8
0
100
AcDbLine
 62
7
  6
CONTINUOUS
 10
4.8731427227
 20
3.9943694058
 11
4.8731427227
 21
4.5061804295
  0
LINE
  5
233
100
AcDbEntity
  8
0
100
AcDbLine
 62
7
  6
CONTINUOUS
 10
4.9555738251
 20
3.7561804295
 11
4.9555738251
 21
3.2443694058
  0
LINE
  5
234
100
AcDbEntity
  8
0
100
AcDbLine
 62
7
  6
CONTINUOUS
 10
5.0493238251
 20
5.2561804295
 11
5.0493238251
 21
4.7443694058
  0
LINE
  5
235
100
AcDbEntity
  8
0
100
AcDbLine
 62
7
  6
CONTINUOUS
 10
5.0606427227
 20
5.4943694058
 11
5.0606427227
 21
6.0061804295
  0
LINE
  5
236
100
AcDbEntity
  8
0
100
AcDbLine
 62
7
  6
CONTINUOUS
 10
5.2368238251
 20
6.7561804295
 11
5.2368238251
 21
6.2443694058
  0
LINE
  5
237
100
AcDbEntity
  8
0
100
AcDbLine
 62
7
  6
CONTINUOUS
 10
5.2481427227
 20
4.7443694058
 11
5.2481427227
 21
5.2561804295
  0
LINE
  5
238
100
AcDbEntity
  8
0
100
AcDbLine
 62
7
  6
CONTINUOUS
 10
5.3861840613
 20
3.1656292483
 11
5.3861840613
 21
3.7168103507
  0
LINE
  5
239
100
AcDbEntity
  8
0
100
AcDbLine
 62
7
  6
CONTINUOUS
 10
5.4243238251
 20
4.5061804295
 11
5.4243238251
 21
3.9943694058
  0
LINE
  5
23A
100
AcDbEntity
  8
0
100
AcDbLine
 62
7
  6
CONTINUOUS
 10
5.4356427227
 20
6.2443694058
 11
5.4356427227
 21
6.7561804295
  0
LINE
  5
23B
100
AcDbEntity
  8
0
100
AcDbLine
 62
7
  6
CONTINUOUS
 10
5.6118238251
 20
6.0061804295
 11
5.6118238251
 21
5.4943694058
  0
LINE
  5
23C
100
AcDbEntity
  8
0
100
AcDbLine
 62
7
  6
CONTINUOUS
 10
2.1590679194
 20
2.6459442087
 11
14.5133986284
 21
2.6459442087
  0
LINE
  5
23D
100
AcDbEntity
  8
0
100
AcDbLine
 62
7
  6
CONTINUOUS
 10
5.6231427227
 20
3.9943694058
 11
5.6231427227
 21
4.5061804295
  0
LINE
  5
23E
100
AcDbEntity
  8
0
100
AcDbLine
 62
7
  6
CONTINUOUS
 10
5.6617746125
 20
3.7168103507
 11
5.6617746125
 21
3.1656292483
  0
LINE
  5
23F
100
AcDbEntity
  8
0
100
AcDbLine
 62
7
  6
CONTINUOUS
 10
5.7993238251
 20
5.2561804295
 11
5.7993238251
 21
4.7443694058
  0
LINE
  5
240
100
AcDbEntity
  8
0
100
AcDbLine
 62
7
  6
CONTINUOUS
 10
5.8106427227
 20
5.4943694058
 11
5.8106427227
 21
6.0061804295
  0
LINE
  5
241
100
AcDbEntity
  8
0
100
AcDbLine
 62
7
  6
CONTINUOUS
 10
5.9868238251
 20
6.7561804295
 11
5.9868238251
 21
6.2443694058
  0
LINE
  5
242
100
AcDbEntity
  8
0
100
AcDbLine
 62
7
  6
CONTINUOUS
 10
5.9981427227
 20
4.7443694058
 11
5.9981427227
 21
5.2561804295
  0
LINE
  5
243
100
AcDbEntity
  8
0
100
AcDbLine
 62
7
  6
CONTINUOUS
 10
9.5790974472
 20
3.145944209
 11
9.3428769747
 21
3.145944209
  0
LINE
  5
244
100
AcDbEntity
  8
0
100
AcDbLine
 62
7
  6
CONTINUOUS
 10
5.6420895731
 20
3.145944209
 11
5.4058691007
 21
3.145944209
  0
LINE
  5
245
100
AcDbEntity
  8
0
100
AcDbLine
 62
7
  6
CONTINUOUS
 10
6.0925078801
 20
7.7502749174
 11
6.0925078801
 21
7.0002749176
  0
LINE
  5
246
100
AcDbEntity
  8
0
100
AcDbLine
 62
7
  6
CONTINUOUS
 10
6.1743238251
 20
4.5061804295
 11
6.1743238251
 21
3.9943694058
  0
LINE
  5
247
100
AcDbEntity
  8
0
100
AcDbLine
 62
7
  6
CONTINUOUS
 10
6.1856427227
 20
6.2443694058
 11
6.1856427227
 21
6.7561804295
  0
LINE
  5
248
100
AcDbEntity
  8
0
100
AcDbLine
 62
7
  6
CONTINUOUS
 10
6.3618238251
 20
6.0061804295
 11
6.3618238251
 21
5.4943694058
  0
LINE
  5
249
100
AcDbEntity
  8
0
100
AcDbLine
 62
7
  6
CONTINUOUS
 10
6.3731427227
 20
3.9943694058
 11
6.3731427227
 21
4.5061804295
  0
LINE
  5
24A
100
AcDbEntity
  8
0
100
AcDbLine
 62
7
  6
CONTINUOUS
 10
6.4862086675
 20
7.0002749176
 11
6.4862086675
 21
7.7502749174
  0
LINE
  5
24B
100
AcDbEntity
  8
0
100
AcDbLine
 62
7
  6
CONTINUOUS
 10
14.2171387857
 20
3.2246843665
 11
13.7053277621
 21
3.2246843665
  0
LINE
  5
24C
100
AcDbEntity
  8
0
100
AcDbLine
 62
7
  6
CONTINUOUS
 10
13.4671387857
 20
3.2246843665
 11
12.9553277621
 21
3.2246843665
  0
LINE
  5
24D
100
AcDbEntity
  8
0
100
AcDbLine
 62
7
  6
CONTINUOUS
 10
12.7171387857
 20
3.2246843665
 11
12.2053277621
 21
3.2246843665
  0
LINE
  5
24E
100
AcDbEntity
  8
0
100
AcDbLine
 62
7
  6
CONTINUOUS
 10
11.9671387857
 20
3.2246843665
 11
11.4553277621
 21
3.2246843665
  0
LINE
  5
24F
100
AcDbEntity
  8
0
100
AcDbLine
 62
7
  6
CONTINUOUS
 10
11.2171387857
 20
3.2246843665
 11
10.7053277621
 21
3.2246843665
  0
LINE
  5
250
100
AcDbEntity
  8
0
100
AcDbLine
 62
7
  6
CONTINUOUS
 10
10.4671387857
 20
3.2246843665
 11
9.9553277621
 21
3.2246843665
  0
LINE
  5
251
100
AcDbEntity
  8
0
100
AcDbLine
 62
7
  6
CONTINUOUS
 10
7.7483887857
 20
3.2246843665
 11
7.2365777621
 21
3.2246843665
  0
LINE
  5
252
100
AcDbEntity
  8
0
100
AcDbLine
 62
7
  6
CONTINUOUS
 10
4.9358887857
 20
3.2246843665
 11
4.4240777621
 21
3.2246843665
  0
LINE
  5
253
100
AcDbEntity
  8
0
100
AcDbLine
 62
7
  6
CONTINUOUS
 10
3.9983887857
 20
3.2246843665
 11
3.4865777621
 21
3.2246843665
  0
LINE
  5
254
100
AcDbEntity
  8
0
100
AcDbLine
 62
7
  6
CONTINUOUS
 10
3.0608887857
 20
3.2246843665
 11
2.5490777621
 21
3.2246843665
  0
LINE
  5
255
100
AcDbEntity
  8
0
100
AcDbLine
 62
7
  6
CONTINUOUS
 10
6.5493238251
 20
5.2561804295
 11
6.5493238251
 21
4.7443694058
  0
LINE
  5
256
100
AcDbEntity
  8
0
100
AcDbLine
 62
7
  6
CONTINUOUS
 10
6.5606427227
 20
5.4943694058
 11
6.5606427227
 21
6.0061804295
  0
LINE
  5
257
100
AcDbEntity
  8
0
100
AcDbLine
 62
7
  6
CONTINUOUS
 10
6.7368238251
 20
6.7561804295
 11
6.7368238251
 21
6.2443694058
  0
LINE
  5
258
100
AcDbEntity
  8
0
100
AcDbLine
 62
7
  6
CONTINUOUS
 10
6.7481427227
 20
4.7443694058
 11
6.7481427227
 21
5.2561804295
  0
LINE
  5
259
100
AcDbEntity
  8
0
100
AcDbLine
 62
7
  6
CONTINUOUS
 10
6.9243238251
 20
4.5061804295
 11
6.9243238251
 21
3.9943694058
  0
LINE
  5
25A
100
AcDbEntity
  8
0
100
AcDbLine
 62
7
  6
CONTINUOUS
 10
6.9356427227
 20
6.2443694058
 11
6.9356427227
 21
6.7561804295
  0
LINE
  5
25B
100
AcDbEntity
  8
0
100
AcDbLine
 62
7
  6
CONTINUOUS
 10
5.4058691007
 20
3.7364953901
 11
5.6420895731
 21
3.7364953901
  0
LINE
  5
25C
100
AcDbEntity
  8
0
100
AcDbLine
 62
7
  6
CONTINUOUS
 10
9.3428769747
 20
3.7364953901
 11
9.5790974472
 21
3.7364953901
  0
LINE
  5
25D
100
AcDbEntity
  8
0
100
AcDbLine
 62
7
  6
CONTINUOUS
 10
2.5490777621
 20
3.7758654688
 11
3.0608887857
 21
3.7758654688
  0
LINE
  5
25E
100
AcDbEntity
  8
0
100
AcDbLine
 62
7
  6
CONTINUOUS
 10
3.4865777621
 20
3.7758654688
 11
3.9983887857
 21
3.7758654688
  0
LINE
  5
25F
100
AcDbEntity
  8
0
100
AcDbLine
 62
7
  6
CONTINUOUS
 10
4.4240777621
 20
3.7758654688
 11
4.9358887857
 21
3.7758654688
  0
LINE
  5
260
100
AcDbEntity
  8
0
100
AcDbLine
 62
7
  6
CONTINUOUS
 10
7.2365777621
 20
3.7758654688
 11
7.7483887857
 21
3.7758654688
  0
LINE
  5
261
100
AcDbEntity
  8
0
100
AcDbLine
 62
7
  6
CONTINUOUS
 10
9.9553277621
 20
3.7758654688
 11
10.4671387857
 21
3.7758654688
  0
LINE
  5
262
100
AcDbEntity
  8
0
100
AcDbLine
 62
7
  6
CONTINUOUS
 10
10.7053277621
 20
3.7758654688
 11
11.2171387857
 21
3.7758654688
  0
LINE
  5
263
100
AcDbEntity
  8
0
100
AcDbLine
 62
7
  6
CONTINUOUS
 10
11.4553277621
 20
3.7758654688
 11
11.9671387857
 21
3.7758654688
  0
LINE
  5
264
100
AcDbEntity
  8
0
100
AcDbLine
 62
7
  6
CONTINUOUS
 10
12.2053277621
 20
3.7758654688
 11
12.7171387857
 21
3.7758654688
  0
LINE
  5
265
100
AcDbEntity
  8
0
100
AcDbLine
 62
7
  6
CONTINUOUS
 10
12.9553277621
 20
3.7758654688
 11
13.4671387857
 21
3.7758654688
  0
LINE
  5
266
100
AcDbEntity
  8
0
100
AcDbLine
 62
7
  6
CONTINUOUS
 10
13.7053277621
 20
3.7758654688
 11
14.2171387857
 21
3.7758654688
  0
LINE
  5
267
100
AcDbEntity
  8
0
100
AcDbLine
 62
7
  6
CONTINUOUS
 10
3.7680935101
 20
3.895944209
 11
3.5318730377
 21
3.895944209
  0
LINE
  5
268
100
AcDbEntity
  8
0
100
AcDbLine
 62
7
  6
CONTINUOUS
 10
2.8280935101
 20
3.895944209
 11
2.5918730377
 21
3.895944209
  0
LINE
  5
269
100
AcDbEntity
  8
0
100
AcDbLine
 62
7
  6
CONTINUOUS
 10
14.2171387857
 20
3.9746843665
 11
13.7053277621
 21
3.9746843665
  0
LINE
  5
26A
100
AcDbEntity
  8
0
100
AcDbLine
 62
7
  6
CONTINUOUS
 10
13.4671387857
 20
3.9746843665
 11
12.9553277621
 21
3.9746843665
  0
LINE
  5
26B
100
AcDbEntity
  8
0
100
AcDbLine
 62
7
  6
CONTINUOUS
 10
12.4358887857
 20
3.9746843665
 11
11.9240777621
 21
3.9746843665
  0
LINE
  5
26C
100
AcDbEntity
  8
0
100
AcDbLine
 62
7
  6
CONTINUOUS
 10
11.4046387857
 20
3.9746843665
 11
10.8928277621
 21
3.9746843665
  0
LINE
  5
26D
100
AcDbEntity
  8
0
100
AcDbLine
 62
7
  6
CONTINUOUS
 10
10.6546387857
 20
3.9746843665
 11
10.1428277621
 21
3.9746843665
  0
LINE
  5
26E
100
AcDbEntity
  8
0
100
AcDbLine
 62
7
  6
CONTINUOUS
 10
9.9046387857
 20
3.9746843665
 11
9.3928277621
 21
3.9746843665
  0
LINE
  5
26F
100
AcDbEntity
  8
0
100
AcDbLine
 62
7
  6
CONTINUOUS
 10
9.1546387857
 20
3.9746843665
 11
8.6428277621
 21
3.9746843665
  0
LINE
  5
270
100
AcDbEntity
  8
0
100
AcDbLine
 62
7
  6
CONTINUOUS
 10
8.4046387857
 20
3.9746843665
 11
7.8928277621
 21
3.9746843665
  0
LINE
  5
271
100
AcDbEntity
  8
0
100
AcDbLine
 62
7
  6
CONTINUOUS
 10
7.6546387857
 20
3.9746843665
 11
7.1428277621
 21
3.9746843665
  0
LINE
  5
272
100
AcDbEntity
  8
0
100
AcDbLine
 62
7
  6
CONTINUOUS
 10
6.9046387857
 20
3.9746843665
 11
6.3928277621
 21
3.9746843665
  0
LINE
  5
273
100
AcDbEntity
  8
0
100
AcDbLine
 62
7
  6
CONTINUOUS
 10
6.1546387857
 20
3.9746843665
 11
5.6428277621
 21
3.9746843665
  0
LINE
  5
274
100
AcDbEntity
  8
0
100
AcDbLine
 62
7
  6
CONTINUOUS
 10
5.4046387857
 20
3.9746843665
 11
4.8928277621
 21
3.9746843665
  0
LINE
  5
275
100
AcDbEntity
  8
0
100
AcDbLine
 62
7
  6
CONTINUOUS
 10
4.6546387857
 20
3.9746843665
 11
4.1428277621
 21
3.9746843665
  0
LINE
  5
276
100
AcDbEntity
  8
0
100
AcDbLine
 62
7
  6
CONTINUOUS
 10
3.4358887857
 20
3.9746843665
 11
2.9240777621
 21
3.9746843665
  0
LINE
  5
277
100
AcDbEntity
  8
0
100
AcDbLine
 62
7
  6
CONTINUOUS
 10
7.1118238251
 20
6.0061804295
 11
7.1118238251
 21
5.4943694058
  0
LINE
  5
278
100
AcDbEntity
  8
0
100
AcDbLine
 62
7
  6
CONTINUOUS
 10
7.1231427227
 20
3.9943694058
 11
7.1231427227
 21
4.5061804295
  0
LINE
  5
279
100
AcDbEntity
  8
0
100
AcDbLine
 62
7
  6
CONTINUOUS
 10
7.2168927227
 20
3.2443694058
 11
7.2168927227
 21
3.7561804295
  0
LINE
  5
27A
100
AcDbEntity
  8
0
100
AcDbLine
 62
7
  6
CONTINUOUS
 10
7.2993238251
 20
5.2561804295
 11
7.2993238251
 21
4.7443694058
  0
LINE
  5
27B
100
AcDbEntity
  8
0
100
AcDbLine
 62
7
  6
CONTINUOUS
 10
7.3106427227
 20
5.4943694058
 11
7.3106427227
 21
6.0061804295
  0
LINE
  5
27C
100
AcDbEntity
  8
0
100
AcDbLine
 62
7
  6
CONTINUOUS
 10
2.5918730377
 20
4.4864953901
 11
2.8280935101
 21
4.4864953901
  0
LINE
  5
27D
100
AcDbEntity
  8
0
100
AcDbLine
 62
7
  6
CONTINUOUS
 10
3.5318730377
 20
4.4864953901
 11
3.7680935101
 21
4.4864953901
  0
LINE
  5
27E
100
AcDbEntity
  8
0
100
AcDbLine
 62
7
  6
CONTINUOUS
 10
2.9240777621
 20
4.5258654688
 11
3.4358887857
 21
4.5258654688
  0
LINE
  5
27F
100
AcDbEntity
  8
0
100
AcDbLine
 62
7
  6
CONTINUOUS
 10
4.1428277621
 20
4.5258654688
 11
4.6546387857
 21
4.5258654688
  0
LINE
  5
280
100
AcDbEntity
  8
0
100
AcDbLine
 62
7
  6
CONTINUOUS
 10
4.8928277621
 20
4.5258654688
 11
5.4046387857
 21
4.5258654688
  0
LINE
  5
281
100
AcDbEntity
  8
0
100
AcDbLine
 62
7
  6
CONTINUOUS
 10
5.6428277621
 20
4.5258654688
 11
6.1546387857
 21
4.5258654688
  0
LINE
  5
282
100
AcDbEntity
  8
0
100
AcDbLine
 62
7
  6
CONTINUOUS
 10
6.3928277621
 20
4.5258654688
 11
6.9046387857
 21
4.5258654688
  0
LINE
  5
283
100
AcDbEntity
  8
0
100
AcDbLine
 62
7
  6
CONTINUOUS
 10
7.1428277621
 20
4.5258654688
 11
7.6546387857
 21
4.5258654688
  0
LINE
  5
284
100
AcDbEntity
  8
0
100
AcDbLine
 62
7
  6
CONTINUOUS
 10
7.8928277621
 20
4.5258654688
 11
8.4046387857
 21
4.5258654688
  0
LINE
  5
285
100
AcDbEntity
  8
0
100
AcDbLine
 62
7
  6
CONTINUOUS
 10
8.6428277621
 20
4.5258654688
 11
9.1546387857
 21
4.5258654688
  0
LINE
  5
286
100
AcDbEntity
  8
0
100
AcDbLine
 62
7
  6
CONTINUOUS
 10
9.3928277621
 20
4.5258654688
 11
9.9046387857
 21
4.5258654688
  0
LINE
  5
287
100
AcDbEntity
  8
0
100
AcDbLine
 62
7
  6
CONTINUOUS
 10
10.1428277621
 20
4.5258654688
 11
10.6546387857
 21
4.5258654688
  0
LINE
  5
288
100
AcDbEntity
  8
0
100
AcDbLine
 62
7
  6
CONTINUOUS
 10
10.8928277621
 20
4.5258654688
 11
11.4046387857
 21
4.5258654688
  0
LINE
  5
289
100
AcDbEntity
  8
0
100
AcDbLine
 62
7
  6
CONTINUOUS
 10
11.9240777621
 20
4.5258654688
 11
12.4358887857
 21
4.5258654688
  0
LINE
  5
28A
100
AcDbEntity
  8
0
100
AcDbLine
 62
7
  6
CONTINUOUS
 10
12.9553277621
 20
4.5258654688
 11
13.4671387857
 21
4.5258654688
  0
LINE
  5
28B
100
AcDbEntity
  8
0
100
AcDbLine
 62
7
  6
CONTINUOUS
 10
13.7053277621
 20
4.5258654688
 11
14.2171387857
 21
4.5258654688
  0
LINE
  5
28C
100
AcDbEntity
  8
0
100
AcDbLine
 62
7
  6
CONTINUOUS
 10
7.4868238251
 20
6.7561804295
 11
7.4868238251
 21
6.2443694058
  0
LINE
  5
28D
100
AcDbEntity
  8
0
100
AcDbLine
 62
7
  6
CONTINUOUS
 10
7.4981427227
 20
4.7443694058
 11
7.4981427227
 21
5.2561804295
  0
LINE
  5
28E
100
AcDbEntity
  8
0
100
AcDbLine
 62
7
  6
CONTINUOUS
 10
7.6743238251
 20
4.5061804295
 11
7.6743238251
 21
3.9943694058
  0
LINE
  5
28F
100
AcDbEntity
  8
0
100
AcDbLine
 62
7
  6
CONTINUOUS
 10
7.6856427227
 20
6.2443694058
 11
7.6856427227
 21
6.7561804295
  0
LINE
  5
290
100
AcDbEntity
  8
0
100
AcDbLine
 62
7
  6
CONTINUOUS
 10
7.7680738251
 20
3.7561804295
 11
7.7680738251
 21
3.2443694058
  0
LINE
  5
291
100
AcDbEntity
  8
0
100
AcDbLine
 62
7
  6
CONTINUOUS
 10
7.8618238251
 20
6.0061804295
 11
7.8618238251
 21
5.4943694058
  0
LINE
  5
292
100
AcDbEntity
  8
0
100
AcDbLine
 62
7
  6
CONTINUOUS
 10
7.8731427227
 20
3.9943694058
 11
7.8731427227
 21
4.5061804295
  0
LINE
  5
293
100
AcDbEntity
  8
0
100
AcDbLine
 62
7
  6
CONTINUOUS
 10
13.3305935101
 20
4.645944209
 11
13.0943730377
 21
4.645944209
  0
LINE
  5
294
100
AcDbEntity
  8
0
100
AcDbLine
 62
7
  6
CONTINUOUS
 10
12.3905935101
 20
4.645944209
 11
12.1543730377
 21
4.645944209
  0
LINE
  5
295
100
AcDbEntity
  8
0
100
AcDbLine
 62
7
  6
CONTINUOUS
 10
14.2171387857
 20
4.7246843665
 11
13.7053277621
 21
4.7246843665
  0
LINE
  5
296
100
AcDbEntity
  8
0
100
AcDbLine
 62
7
  6
CONTINUOUS
 10
12.9983887857
 20
4.7246843665
 11
12.4865777621
 21
4.7246843665
  0
LINE
  5
297
100
AcDbEntity
  8
0
100
AcDbLine
 62
7
  6
CONTINUOUS
 10
11.7796387857
 20
4.7246843665
 11
11.2678277621
 21
4.7246843665
  0
LINE
  5
298
100
AcDbEntity
  8
0
100
AcDbLine
 62
7
  6
CONTINUOUS
 10
11.0296387857
 20
4.7246843665
 11
10.5178277621
 21
4.7246843665
  0
LINE
  5
299
100
AcDbEntity
  8
0
100
AcDbLine
 62
7
  6
CONTINUOUS
 10
10.2796387857
 20
4.7246843665
 11
9.7678277621
 21
4.7246843665
  0
LINE
  5
29A
100
AcDbEntity
  8
0
100
AcDbLine
 62
7
  6
CONTINUOUS
 10
9.5296387857
 20
4.7246843665
 11
9.0178277621
 21
4.7246843665
  0
LINE
  5
29B
100
AcDbEntity
  8
0
100
AcDbLine
 62
7
  6
CONTINUOUS
 10
8.7796387857
 20
4.7246843665
 11
8.2678277621
 21
4.7246843665
  0
LINE
  5
29C
100
AcDbEntity
  8
0
100
AcDbLine
 62
7
  6
CONTINUOUS
 10
8.0296387857
 20
4.7246843665
 11
7.5178277621
 21
4.7246843665
  0
LINE
  5
29D
100
AcDbEntity
  8
0
100
AcDbLine
 62
7
  6
CONTINUOUS
 10
7.2796387857
 20
4.7246843665
 11
6.7678277621
 21
4.7246843665
  0
LINE
  5
29E
100
AcDbEntity
  8
0
100
AcDbLine
 62
7
  6
CONTINUOUS
 10
6.5296387857
 20
4.7246843665
 11
6.0178277621
 21
4.7246843665
  0
LINE
  5
29F
100
AcDbEntity
  8
0
100
AcDbLine
 62
7
  6
CONTINUOUS
 10
5.7796387857
 20
4.7246843665
 11
5.2678277621
 21
4.7246843665
  0
LINE
  5
2A0
100
AcDbEntity
  8
0
100
AcDbLine
 62
7
  6
CONTINUOUS
 10
5.0296387857
 20
4.7246843665
 11
4.5178277621
 21
4.7246843665
  0
LINE
  5
2A1
100
AcDbEntity
  8
0
100
AcDbLine
 62
7
  6
CONTINUOUS
 10
4.2796387857
 20
4.7246843665
 11
3.7678277621
 21
4.7246843665
  0
LINE
  5
2A2
100
AcDbEntity
  8
0
100
AcDbLine
 62
7
  6
CONTINUOUS
 10
3.2483887857
 20
4.7246843665
 11
2.7365777621
 21
4.7246843665
  0
LINE
  5
2A3
100
AcDbEntity
  8
0
100
AcDbLine
 62
7
  6
CONTINUOUS
 10
8.0493238251
 20
5.2561804295
 11
8.0493238251
 21
4.7443694058
  0
LINE
  5
2A4
100
AcDbEntity
  8
0
100
AcDbLine
 62
7
  6
CONTINUOUS
 10
8.0606427227
 20
5.4943694058
 11
8.0606427227
 21
6.0061804295
  0
LINE
  5
2A5
100
AcDbEntity
  8
0
100
AcDbLine
 62
7
  6
CONTINUOUS
 10
8.2368238251
 20
6.7561804295
 11
8.2368238251
 21
6.2443694058
  0
LINE
  5
2A6
100
AcDbEntity
  8
0
100
AcDbLine
 62
7
  6
CONTINUOUS
 10
8.2481427227
 20
4.7443694058
 11
8.2481427227
 21
5.2561804295
  0
LINE
  5
2A7
100
AcDbEntity
  8
0
100
AcDbLine
 62
7
  6
CONTINUOUS
 10
12.1543730377
 20
5.2364953901
 11
12.3905935101
 21
5.2364953901
  0
LINE
  5
2A8
100
AcDbEntity
  8
0
100
AcDbLine
 62
7
  6
CONTINUOUS
 10
13.0943730377
 20
5.2364953901
 11
13.3305935101
 21
5.2364953901
  0
LINE
  5
2A9
100
AcDbEntity
  8
0
100
AcDbLine
 62
7
  6
CONTINUOUS
 10
2.7365777621
 20
5.2758654688
 11
3.2483887857
 21
5.2758654688
  0
LINE
  5
2AA
100
AcDbEntity
  8
0
100
AcDbLine
 62
7
  6
CONTINUOUS
 10
3.7678277621
 20
5.2758654688
 11
4.2796387857
 21
5.2758654688
  0
LINE
  5
2AB
100
AcDbEntity
  8
0
100
AcDbLine
 62
7
  6
CONTINUOUS
 10
4.5178277621
 20
5.2758654688
 11
5.0296387857
 21
5.2758654688
  0
LINE
  5
2AC
100
AcDbEntity
  8
0
100
AcDbLine
 62
7
  6
CONTINUOUS
 10
5.2678277621
 20
5.2758654688
 11
5.7796387857
 21
5.2758654688
  0
LINE
  5
2AD
100
AcDbEntity
  8
0
100
AcDbLine
 62
7
  6
CONTINUOUS
 10
6.0178277621
 20
5.2758654688
 11
6.5296387857
 21
5.2758654688
  0
LINE
  5
2AE
100
AcDbEntity
  8
0
100
AcDbLine
 62
7
  6
CONTINUOUS
 10
6.7678277621
 20
5.2758654688
 11
7.2796387857
 21
5.2758654688
  0
LINE
  5
2AF
100
AcDbEntity
  8
0
100
AcDbLine
 62
7
  6
CONTINUOUS
 10
7.5178277621
 20
5.2758654688
 11
8.0296387857
 21
5.2758654688
  0
LINE
  5
2B0
100
AcDbEntity
  8
0
100
AcDbLine
 62
7
  6
CONTINUOUS
 10
8.2678277621
 20
5.2758654688
 11
8.7796387857
 21
5.2758654688
  0
LINE
  5
2B1
100
AcDbEntity
  8
0
100
AcDbLine
 62
7
  6
CONTINUOUS
 10
9.0178277621
 20
5.2758654688
 11
9.5296387857
 21
5.2758654688
  0
LINE
  5
2B2
100
AcDbEntity
  8
0
100
AcDbLine
 62
7
  6
CONTINUOUS
 10
9.7678277621
 20
5.2758654688
 11
10.2796387857
 21
5.2758654688
  0
LINE
  5
2B3
100
AcDbEntity
  8
0
100
AcDbLine
 62
7
  6
CONTINUOUS
 10
10.5178277621
 20
5.2758654688
 11
11.0296387857
 21
5.2758654688
  0
LINE
  5
2B4
100
AcDbEntity
  8
0
100
AcDbLine
 62
7
  6
CONTINUOUS
 10
11.2678277621
 20
5.2758654688
 11
11.7796387857
 21
5.2758654688
  0
LINE
  5
2B5
100
AcDbEntity
  8
0
100
AcDbLine
 62
7
  6
CONTINUOUS
 10
12.4865777621
 20
5.2758654688
 11
12.9983887857
 21
5.2758654688
  0
LINE
  5
2B6
100
AcDbEntity
  8
0
100
AcDbLine
 62
7
  6
CONTINUOUS
 10
13.7053277621
 20
5.2758654688
 11
14.2171387857
 21
5.2758654688
  0
LINE
  5
2B7
100
AcDbEntity
  8
0
100
AcDbLine
 62
7
  6
CONTINUOUS
 10
14.2171387857
 20
5.4746843665
 11
13.7053277621
 21
5.4746843665
  0
LINE
  5
2B8
100
AcDbEntity
  8
0
100
AcDbLine
 62
7
  6
CONTINUOUS
 10
13.2796387857
 20
5.4746843665
 11
12.7678277621
 21
5.4746843665
  0
LINE
  5
2B9
100
AcDbEntity
  8
0
100
AcDbLine
 62
7
  6
CONTINUOUS
 10
12.3421387857
 20
5.4746843665
 11
11.8303277621
 21
5.4746843665
  0
LINE
  5
2BA
100
AcDbEntity
  8
0
100
AcDbLine
 62
7
  6
CONTINUOUS
 10
11.5921387857
 20
5.4746843665
 11
11.0803277621
 21
5.4746843665
  0
LINE
  5
2BB
100
AcDbEntity
  8
0
100
AcDbLine
 62
7
  6
CONTINUOUS
 10
10.8421387857
 20
5.4746843665
 11
10.3303277621
 21
5.4746843665
  0
LINE
  5
2BC
100
AcDbEntity
  8
0
100
AcDbLine
 62
7
  6
CONTINUOUS
 10
10.0921387857
 20
5.4746843665
 11
9.5803277621
 21
5.4746843665
  0
LINE
  5
2BD
100
AcDbEntity
  8
0
100
AcDbLine
 62
7
  6
CONTINUOUS
 10
9.3421387857
 20
5.4746843665
 11
8.8303277621
 21
5.4746843665
  0
LINE
  5
2BE
100
AcDbEntity
  8
0
100
AcDbLine
 62
7
  6
CONTINUOUS
 10
8.5921387857
 20
5.4746843665
 11
8.0803277621
 21
5.4746843665
  0
LINE
  5
2BF
100
AcDbEntity
  8
0
100
AcDbLine
 62
7
  6
CONTINUOUS
 10
7.8421387857
 20
5.4746843665
 11
7.3303277621
 21
5.4746843665
  0
LINE
  5
2C0
100
AcDbEntity
  8
0
100
AcDbLine
 62
7
  6
CONTINUOUS
 10
7.0921387857
 20
5.4746843665
 11
6.5803277621
 21
5.4746843665
  0
LINE
  5
2C1
100
AcDbEntity
  8
0
100
AcDbLine
 62
7
  6
CONTINUOUS
 10
6.3421387857
 20
5.4746843665
 11
5.8303277621
 21
5.4746843665
  0
LINE
  5
2C2
100
AcDbEntity
  8
0
100
AcDbLine
 62
7
  6
CONTINUOUS
 10
5.5921387857
 20
5.4746843665
 11
5.0803277621
 21
5.4746843665
  0
LINE
  5
2C3
100
AcDbEntity
  8
0
100
AcDbLine
 62
7
  6
CONTINUOUS
 10
4.8421387857
 20
5.4746843665
 11
4.3303277621
 21
5.4746843665
  0
LINE
  5
2C4
100
AcDbEntity
  8
0
100
AcDbLine
 62
7
  6
CONTINUOUS
 10
4.0921387857
 20
5.4746843665
 11
3.5803277621
 21
5.4746843665
  0
LINE
  5
2C5
100
AcDbEntity
  8
0
100
AcDbLine
 62
7
  6
CONTINUOUS
 10
3.1546387857
 20
5.4746843665
 11
2.6428277621
 21
5.4746843665
  0
LINE
  5
2C6
100
AcDbEntity
  8
0
100
AcDbLine
 62
7
  6
CONTINUOUS
 10
8.4243238251
 20
4.5061804295
 11
8.4243238251
 21
3.9943694058
  0
LINE
  5
2C7
100
AcDbEntity
  8
0
100
AcDbLine
 62
7
  6
CONTINUOUS
 10
8.4356427227
 20
6.2443694058
 11
8.4356427227
 21
6.7561804295
  0
LINE
  5
2C8
100
AcDbEntity
  8
0
100
AcDbLine
 62
7
  6
CONTINUOUS
 10
8.6118238251
 20
6.0061804295
 11
8.6118238251
 21
5.4943694058
  0
LINE
  5
2C9
100
AcDbEntity
  8
0
100
AcDbLine
 62
7
  6
CONTINUOUS
 10
8.6231427227
 20
3.9943694058
 11
8.6231427227
 21
4.5061804295
  0
LINE
  5
2CA
100
AcDbEntity
  8
0
100
AcDbLine
 62
7
  6
CONTINUOUS
 10
8.7993238251
 20
5.2561804295
 11
8.7993238251
 21
4.7443694058
  0
LINE
  5
2CB
100
AcDbEntity
  8
0
100
AcDbLine
 62
7
  6
CONTINUOUS
 10
8.8106427227
 20
5.4943694058
 11
8.8106427227
 21
6.0061804295
  0
LINE
  5
2CC
100
AcDbEntity
  8
0
100
AcDbLine
 62
7
  6
CONTINUOUS
 10
8.9868238251
 20
6.7561804295
 11
8.9868238251
 21
6.2443694058
  0
LINE
  5
2CD
100
AcDbEntity
  8
0
100
AcDbLine
 62
7
  6
CONTINUOUS
 10
8.9981427227
 20
4.7443694058
 11
8.9981427227
 21
5.2561804295
  0
LINE
  5
2CE
100
AcDbEntity
  8
0
100
AcDbLine
 62
7
  6
CONTINUOUS
 10
9.1743238251
 20
4.5061804295
 11
9.1743238251
 21
3.9943694058
  0
LINE
  5
2CF
100
AcDbEntity
  8
0
100
AcDbLine
 62
7
  6
CONTINUOUS
 10
9.1856427227
 20
6.2443694058
 11
9.1856427227
 21
6.7561804295
  0
LINE
  5
2D0
100
AcDbEntity
  8
0
100
AcDbLine
 62
7
  6
CONTINUOUS
 10
9.3231919353
 20
3.1656292483
 11
9.3231919353
 21
3.7168103507
  0
LINE
  5
2D1
100
AcDbEntity
  8
0
100
AcDbLine
 62
7
  6
CONTINUOUS
 10
2.6428277621
 20
6.0258654688
 11
3.1546387857
 21
6.0258654688
  0
LINE
  5
2D2
100
AcDbEntity
  8
0
100
AcDbLine
 62
7
  6
CONTINUOUS
 10
3.5803277621
 20
6.0258654688
 11
4.0921387857
 21
6.0258654688
  0
LINE
  5
2D3
100
AcDbEntity
  8
0
100
AcDbLine
 62
7
  6
CONTINUOUS
 10
4.3303277621
 20
6.0258654688
 11
4.8421387857
 21
6.0258654688
  0
LINE
  5
2D4
100
AcDbEntity
  8
0
100
AcDbLine
 62
7
  6
CONTINUOUS
 10
5.0803277621
 20
6.0258654688
 11
5.5921387857
 21
6.0258654688
  0
LINE
  5
2D5
100
AcDbEntity
  8
0
100
AcDbLine
 62
7
  6
CONTINUOUS
 10
5.8303277621
 20
6.0258654688
 11
6.3421387857
 21
6.0258654688
  0
LINE
  5
2D6
100
AcDbEntity
  8
0
100
AcDbLine
 62
7
  6
CONTINUOUS
 10
6.5803277621
 20
6.0258654688
 11
7.0921387857
 21
6.0258654688
  0
LINE
  5
2D7
100
AcDbEntity
  8
0
100
AcDbLine
 62
7
  6
CONTINUOUS
 10
7.3303277621
 20
6.0258654688
 11
7.8421387857
 21
6.0258654688
  0
LINE
  5
2D8
100
AcDbEntity
  8
0
100
AcDbLine
 62
7
  6
CONTINUOUS
 10
8.0803277621
 20
6.0258654688
 11
8.5921387857
 21
6.0258654688
  0
LINE
  5
2D9
100
AcDbEntity
  8
0
100
AcDbLine
 62
7
  6
CONTINUOUS
 10
8.8303277621
 20
6.0258654688
 11
9.3421387857
 21
6.0258654688
  0
LINE
  5
2DA
100
AcDbEntity
  8
0
100
AcDbLine
 62
7
  6
CONTINUOUS
 10
9.5803277621
 20
6.0258654688
 11
10.0921387857
 21
6.0258654688
  0
LINE
  5
2DB
100
AcDbEntity
  8
0
100
AcDbLine
 62
7
  6
CONTINUOUS
 10
10.3303277621
 20
6.0258654688
 11
10.8421387857
 21
6.0258654688
  0
LINE
  5
2DC
100
AcDbEntity
  8
0
100
AcDbLine
 62
7
  6
CONTINUOUS
 10
11.0803277621
 20
6.0258654688
 11
11.5921387857
 21
6.0258654688
  0
LINE
  5
2DD
100
AcDbEntity
  8
0
100
AcDbLine
 62
7
  6
CONTINUOUS
 10
11.8303277621
 20
6.0258654688
 11
12.3421387857
 21
6.0258654688
  0
LINE
  5
2DE
100
AcDbEntity
  8
0
100
AcDbLine
 62
7
  6
CONTINUOUS
 10
12.7678277621
 20
6.0258654688
 11
13.2796387857
 21
6.0258654688
  0
LINE
  5
2DF
100
AcDbEntity
  8
0
100
AcDbLine
 62
7
  6
CONTINUOUS
 10
13.7053277621
 20
6.0258654688
 11
14.2171387857
 21
6.0258654688
  0
LINE
  5
2E0
100
AcDbEntity
  8
0
100
AcDbLine
 62
7
  6
CONTINUOUS
 10
13.4243435101
 20
6.145944209
 11
13.1881230377
 21
6.145944209
  0
LINE
  5
2E1
100
AcDbEntity
  8
0
100
AcDbLine
 62
7
  6
CONTINUOUS
 10
12.4843435101
 20
6.145944209
 11
12.2481230377
 21
6.145944209
  0
LINE
  5
2E2
100
AcDbEntity
  8
0
100
AcDbLine
 62
7
  6
CONTINUOUS
 10
14.2171387857
 20
6.2246843665
 11
13.7053277621
 21
6.2246843665
  0
LINE
  5
2E3
100
AcDbEntity
  8
0
100
AcDbLine
 62
7
  6
CONTINUOUS
 10
13.0921387857
 20
6.2246843665
 11
12.5803277621
 21
6.2246843665
  0
LINE
  5
2E4
100
AcDbEntity
  8
0
100
AcDbLine
 62
7
  6
CONTINUOUS
 10
11.9671387857
 20
6.2246843665
 11
11.4553277621
 21
6.2246843665
  0
LINE
  5
2E5
100
AcDbEntity
  8
0
100
AcDbLine
 62
7
  6
CONTINUOUS
 10
11.2171387857
 20
6.2246843665
 11
10.7053277621
 21
6.2246843665
  0
LINE
  5
2E6
100
AcDbEntity
  8
0
100
AcDbLine
 62
7
  6
CONTINUOUS
 10
10.4671387857
 20
6.2246843665
 11
9.9553277621
 21
6.2246843665
  0
LINE
  5
2E7
100
AcDbEntity
  8
0
100
AcDbLine
 62
7
  6
CONTINUOUS
 10
9.7171387857
 20
6.2246843665
 11
9.2053277621
 21
6.2246843665
  0
LINE
  5
2E8
100
AcDbEntity
  8
0
100
AcDbLine
 62
7
  6
CONTINUOUS
 10
8.9671387857
 20
6.2246843665
 11
8.4553277621
 21
6.2246843665
  0
LINE
  5
2E9
100
AcDbEntity
  8
0
100
AcDbLine
 62
7
  6
CONTINUOUS
 10
8.2171387857
 20
6.2246843665
 11
7.7053277621
 21
6.2246843665
  0
LINE
  5
2EA
100
AcDbEntity
  8
0
100
AcDbLine
 62
7
  6
CONTINUOUS
 10
7.4671387857
 20
6.2246843665
 11
6.9553277621
 21
6.2246843665
  0
LINE
  5
2EB
100
AcDbEntity
  8
0
100
AcDbLine
 62
7
  6
CONTINUOUS
 10
6.7171387857
 20
6.2246843665
 11
6.2053277621
 21
6.2246843665
  0
LINE
  5
2EC
100
AcDbEntity
  8
0
100
AcDbLine
 62
7
  6
CONTINUOUS
 10
5.9671387857
 20
6.2246843665
 11
5.4553277621
 21
6.2246843665
  0
LINE
  5
2ED
100
AcDbEntity
  8
0
100
AcDbLine
 62
7
  6
CONTINUOUS
 10
5.2171387857
 20
6.2246843665
 11
4.7053277621
 21
6.2246843665
  0
LINE
  5
2EE
100
AcDbEntity
  8
0
100
AcDbLine
 62
7
  6
CONTINUOUS
 10
4.4671387857
 20
6.2246843665
 11
3.9553277621
 21
6.2246843665
  0
LINE
  5
2EF
100
AcDbEntity
  8
0
100
AcDbLine
 62
7
  6
CONTINUOUS
 10
3.7171387857
 20
6.2246843665
 11
3.2053277621
 21
6.2246843665
  0
LINE
  5
2F0
100
AcDbEntity
  8
0
100
AcDbLine
 62
7
  6
CONTINUOUS
 10
2.9671387857
 20
6.2246843665
 11
2.4553277621
 21
6.2246843665
  0
LINE
  5
2F1
100
AcDbEntity
  8
0
100
AcDbLine
 62
7
  6
CONTINUOUS
 10
9.3618238251
 20
6.0061804295
 11
9.3618238251
 21
5.4943694058
  0
LINE
  5
2F2
100
AcDbEntity
  8
0
100
AcDbLine
 62
7
  6
CONTINUOUS
 10
9.3731427227
 20
3.9943694058
 11
9.3731427227
 21
4.5061804295
  0
LINE
  5
2F3
100
AcDbEntity
  8
0
100
AcDbLine
 62
7
  6
CONTINUOUS
 10
9.5493238251
 20
5.2561804295
 11
9.5493238251
 21
4.7443694058
  0
LINE
  5
2F4
100
AcDbEntity
  8
0
100
AcDbLine
 62
7
  6
CONTINUOUS
 10
9.5606427227
 20
5.4943694058
 11
9.5606427227
 21
6.0061804295
  0
LINE
  5
2F5
100
AcDbEntity
  8
0
100
AcDbLine
 62
7
  6
CONTINUOUS
 10
9.5987824865
 20
3.7168103507
 11
9.5987824865
 21
3.1656292483
  0
LINE
  5
2F6
100
AcDbEntity
  8
0
100
AcDbLine
 62
7
  6
CONTINUOUS
 10
9.7368238251
 20
6.7561804295
 11
9.7368238251
 21
6.2443694058
  0
LINE
  5
2F7
100
AcDbEntity
  8
0
100
AcDbLine
 62
7
  6
CONTINUOUS
 10
9.7481427227
 20
4.7443694058
 11
9.7481427227
 21
5.2561804295
  0
LINE
  5
2F8
100
AcDbEntity
  8
0
100
AcDbLine
 62
7
  6
CONTINUOUS
 10
12.2481230377
 20
6.7364953901
 11
12.4843435101
 21
6.7364953901
  0
LINE
  5
2F9
100
AcDbEntity
  8
0
100
AcDbLine
 62
7
  6
CONTINUOUS
 10
13.1881230377
 20
6.7364953901
 11
13.4243435101
 21
6.7364953901
  0
LINE
  5
2FA
100
AcDbEntity
  8
0
100
AcDbLine
 62
7
  6
CONTINUOUS
 10
2.4553277621
 20
6.7758654688
 11
2.9671387857
 21
6.7758654688
  0
LINE
  5
2FB
100
AcDbEntity
  8
0
100
AcDbLine
 62
7
  6
CONTINUOUS
 10
3.2053277621
 20
6.7758654688
 11
3.7171387857
 21
6.7758654688
  0
LINE
  5
2FC
100
AcDbEntity
  8
0
100
AcDbLine
 62
7
  6
CONTINUOUS
 10
3.9553277621
 20
6.7758654688
 11
4.4671387857
 21
6.7758654688
  0
LINE
  5
2FD
100
AcDbEntity
  8
0
100
AcDbLine
 62
7
  6
CONTINUOUS
 10
4.7053277621
 20
6.7758654688
 11
5.2171387857
 21
6.7758654688
  0
LINE
  5
2FE
100
AcDbEntity
  8
0
100
AcDbLine
 62
7
  6
CONTINUOUS
 10
5.4553277621
 20
6.7758654688
 11
5.9671387857
 21
6.7758654688
  0
LINE
  5
2FF
100
AcDbEntity
  8
0
100
AcDbLine
 62
7
  6
CONTINUOUS
 10
6.2053277621
 20
6.7758654688
 11
6.7171387857
 21
6.7758654688
  0
LINE
  5
300
100
AcDbEntity
  8
0
100
AcDbLine
 62
7
  6
CONTINUOUS
 10
6.9553277621
 20
6.7758654688
 11
7.4671387857
 21
6.7758654688
  0
LINE
  5
301
100
AcDbEntity
  8
0
100
AcDbLine
 62
7
  6
CONTINUOUS
 10
7.7053277621
 20
6.7758654688
 11
8.2171387857
 21
6.7758654688
  0
LINE
  5
302
100
AcDbEntity
  8
0
100
AcDbLine
 62
7
  6
CONTINUOUS
 10
8.4553277621
 20
6.7758654688
 11
8.9671387857
 21
6.7758654688
  0
LINE
  5
303
100
AcDbEntity
  8
0
100
AcDbLine
 62
7
  6
CONTINUOUS
 10
9.2053277621
 20
6.7758654688
 11
9.7171387857
 21
6.7758654688
  0
LINE
  5
304
100
AcDbEntity
  8
0
100
AcDbLine
 62
7
  6
CONTINUOUS
 10
9.9553277621
 20
6.7758654688
 11
10.4671387857
 21
6.7758654688
  0
LINE
  5
305
100
AcDbEntity
  8
0
100
AcDbLine
 62
7
  6
CONTINUOUS
 10
10.7053277621
 20
6.7758654688
 11
11.2171387857
 21
6.7758654688
  0
LINE
  5
306
100
AcDbEntity
  8
0
100
AcDbLine
 62
7
  6
CONTINUOUS
 10
11.4553277621
 20
6.7758654688
 11
11.9671387857
 21
6.7758654688
  0
LINE
  5
307
100
AcDbEntity
  8
0
100
AcDbLine
 62
7
  6
CONTINUOUS
 10
12.5803277621
 20
6.7758654688
 11
13.0921387857
 21
6.7758654688
  0
LINE
  5
308
100
AcDbEntity
  8
0
100
AcDbLine
 62
7
  6
CONTINUOUS
 10
13.7053277621
 20
6.7758654688
 11
14.2171387857
 21
6.7758654688
  0
LINE
  5
309
100
AcDbEntity
  8
0
100
AcDbLine
 62
7
  6
CONTINUOUS
 10
14.211233274
 20
6.8752749176
 11
10.7049586675
 21
6.8752749176
  0
LINE
  5
30A
100
AcDbEntity
  8
0
100
AcDbLine
 62
7
  6
CONTINUOUS
 10
10.0612578801
 20
6.8752749176
 11
6.6112086675
 21
6.8752749176
  0
LINE
  5
30B
100
AcDbEntity
  8
0
100
AcDbLine
 62
7
  6
CONTINUOUS
 10
5.9675078801
 20
6.8752749176
 11
2.4612332738
 21
6.8752749176
  0
LINE
  5
30C
100
AcDbEntity
  8
0
100
AcDbLine
 62
7
  6
CONTINUOUS
 10
9.9243238251
 20
4.5061804295
 11
9.9243238251
 21
3.9943694058
  0
LINE
  5
30D
100
AcDbEntity
  8
0
100
AcDbLine
 62
7
  6
CONTINUOUS
 10
9.9356427227
 20
3.2443694058
 11
9.9356427227
 21
3.7561804295
  0
LINE
  5
30E
100
AcDbEntity
  8
0
100
AcDbLine
 62
7
  6
CONTINUOUS
 10
9.9356427227
 20
6.2443694058
 11
9.9356427227
 21
6.7561804295
  0
LINE
  5
30F
100
AcDbEntity
  8
0
100
AcDbLine
 62
7
  6
CONTINUOUS
 10
10.1118238251
 20
6.0061804295
 11
10.1118238251
 21
5.4943694058
  0
LINE
  5
310
100
AcDbEntity
  8
0
100
AcDbLine
 62
7
  6
CONTINUOUS
 10
10.1231427227
 20
3.9943694058
 11
10.1231427227
 21
4.5061804295
  0
LINE
  5
311
100
AcDbEntity
  8
0
100
AcDbLine
 62
7
  6
CONTINUOUS
 10
10.1862578801
 20
7.7502749174
 11
10.1862578801
 21
7.0002749176
  0
LINE
  5
312
100
AcDbEntity
  8
0
100
AcDbLine
 62
7
  6
CONTINUOUS
 10
10.2993238251
 20
5.2561804295
 11
10.2993238251
 21
4.7443694058
  0
LINE
  5
313
100
AcDbEntity
  8
0
100
AcDbLine
 62
7
  6
CONTINUOUS
 10
10.3106427227
 20
5.4943694058
 11
10.3106427227
 21
6.0061804295
  0
LINE
  5
314
100
AcDbEntity
  8
0
100
AcDbLine
 62
7
  6
CONTINUOUS
 10
10.4868238251
 20
6.7561804295
 11
10.4868238251
 21
6.2443694058
  0
LINE
  5
315
100
AcDbEntity
  8
0
100
AcDbLine
 62
7
  6
CONTINUOUS
 10
10.4868238251
 20
3.7561804295
 11
10.4868238251
 21
3.2443694058
  0
LINE
  5
316
100
AcDbEntity
  8
0
100
AcDbLine
 62
7
  6
CONTINUOUS
 10
10.4981427227
 20
4.7443694058
 11
10.4981427227
 21
5.2561804295
  0
LINE
  5
317
100
AcDbEntity
  8
0
100
AcDbLine
 62
7
  6
CONTINUOUS
 10
10.5799586675
 20
7.0002749176
 11
10.5799586675
 21
7.7502749174
  0
LINE
  5
318
100
AcDbEntity
  8
0
100
AcDbLine
 62
7
  6
CONTINUOUS
 10
10.6743238251
 20
4.5061804295
 11
10.6743238251
 21
3.9943694058
  0
LINE
  5
319
100
AcDbEntity
  8
0
100
AcDbLine
 62
7
  6
CONTINUOUS
 10
10.6856427227
 20
3.2443694058
 11
10.6856427227
 21
3.7561804295
  0
LINE
  5
31A
100
AcDbEntity
  8
0
100
AcDbLine
 62
7
  6
CONTINUOUS
 10
10.6856427227
 20
6.2443694058
 11
10.6856427227
 21
6.7561804295
  0
LINE
  5
31B
100
AcDbEntity
  8
0
100
AcDbLine
 62
7
  6
CONTINUOUS
 10
10.8618238251
 20
6.0061804295
 11
10.8618238251
 21
5.4943694058
  0
LINE
  5
31C
100
AcDbEntity
  8
0
100
AcDbLine
 62
7
  6
CONTINUOUS
 10
10.8731427227
 20
3.9943694058
 11
10.8731427227
 21
4.5061804295
  0
LINE
  5
31D
100
AcDbEntity
  8
0
100
AcDbLine
 62
7
  6
CONTINUOUS
 10
11.0493238251
 20
5.2561804295
 11
11.0493238251
 21
4.7443694058
  0
LINE
  5
31E
100
AcDbEntity
  8
0
100
AcDbLine
 62
7
  6
CONTINUOUS
 10
11.0606427227
 20
5.4943694058
 11
11.0606427227
 21
6.0061804295
  0
LINE
  5
31F
100
AcDbEntity
  8
0
100
AcDbLine
 62
7
  6
CONTINUOUS
 10
2.4612332738
 20
7.8752749174
 11
2.5621428434
 21
7.8752749174
  0
LINE
  5
320
100
AcDbEntity
  8
0
100
AcDbLine
 62
7
  6
CONTINUOUS
 10
4.8763415415
 20
7.8752749174
 11
5.9675078801
 21
7.8752749174
  0
LINE
  5
321
100
AcDbEntity
  8
0
100
AcDbLine
 62
7
  6
CONTINUOUS
 10
6.6112086675
 20
7.8752749174
 11
10.0612578801
 21
7.8752749174
  0
LINE
  5
322
100
AcDbEntity
  8
0
100
AcDbLine
 62
7
  6
CONTINUOUS
 10
10.7049586675
 20
7.8752749174
 11
14.211233274
 21
7.8752749174
  0
LINE
  5
323
100
AcDbEntity
  8
0
100
AcDbLine
 62
7
  6
CONTINUOUS
 10
14.5133986284
 20
8.2296056261
 11
4.8763415415
 21
8.2296056261
  0
LINE
  5
324
100
AcDbEntity
  8
0
100
AcDbLine
 62
7
  6
CONTINUOUS
 10
2.5621428434
 20
8.2296056261
 11
2.1590679194
 21
8.2296056261
  0
LINE
  5
325
100
AcDbEntity
  8
0
100
AcDbLine
 62
7
  6
CONTINUOUS
 10
11.2368238251
 20
6.7561804295
 11
11.2368238251
 21
6.2443694058
  0
LINE
  5
326
100
AcDbEntity
  8
0
100
AcDbLine
 62
7
  6
CONTINUOUS
 10
11.2368238251
 20
3.7561804295
 11
11.2368238251
 21
3.2443694058
  0
LINE
  5
327
100
AcDbEntity
  8
0
100
AcDbLine
 62
7
  6
CONTINUOUS
 10
11.2481427227
 20
4.7443694058
 11
11.2481427227
 21
5.2561804295
  0
LINE
  5
328
100
AcDbEntity
  8
0
100
AcDbLine
 62
7
  6
CONTINUOUS
 10
11.4243238251
 20
4.5061804295
 11
11.4243238251
 21
3.9943694058
  0
LINE
  5
329
100
AcDbEntity
  8
0
100
AcDbLine
 62
7
  6
CONTINUOUS
 10
11.4356427227
 20
3.2443694058
 11
11.4356427227
 21
3.7561804295
  0
LINE
  5
32A
100
AcDbEntity
  8
0
100
AcDbLine
 62
7
  6
CONTINUOUS
 10
11.4356427227
 20
6.2443694058
 11
11.4356427227
 21
6.7561804295
  0
LINE
  5
32B
100
AcDbEntity
  8
0
100
AcDbLine
 62
7
  6
CONTINUOUS
 10
11.6118238251
 20
6.0061804295
 11
11.6118238251
 21
5.4943694058
  0
LINE
  5
32C
100
AcDbEntity
  8
0
100
AcDbLine
 62
7
  6
CONTINUOUS
 10
11.7993238251
 20
5.2561804295
 11
11.7993238251
 21
4.7443694058
  0
LINE
  5
32D
100
AcDbEntity
  8
0
100
AcDbLine
 62
7
  6
CONTINUOUS
 10
11.8106427227
 20
5.4943694058
 11
11.8106427227
 21
6.0061804295
  0
LINE
  5
32E
100
AcDbEntity
  8
0
100
AcDbLine
 62
7
  6
CONTINUOUS
 10
11.9043927227
 20
3.9943694058
 11
11.9043927227
 21
4.5061804295
  0
LINE
  5
32F
100
AcDbEntity
  8
0
100
AcDbLine
 62
7
  6
CONTINUOUS
 10
11.9868238251
 20
6.7561804295
 11
11.9868238251
 21
6.2443694058
  0
LINE
  5
330
100
AcDbEntity
  8
0
100
AcDbLine
 62
7
  6
CONTINUOUS
 10
11.9868238251
 20
3.7561804295
 11
11.9868238251
 21
3.2443694058
  0
LINE
  5
331
100
AcDbEntity
  8
0
100
AcDbLine
 62
7
  6
CONTINUOUS
 10
12.1346879983
 20
4.6656292483
 11
12.1346879983
 21
5.2168103507
  0
LINE
  5
332
100
AcDbEntity
  8
0
100
AcDbLine
 62
7
  6
CONTINUOUS
 10
12.1856427227
 20
3.2443694058
 11
12.1856427227
 21
3.7561804295
  0
LINE
  5
333
100
AcDbEntity
  8
0
100
AcDbLine
 62
7
  6
CONTINUOUS
 10
12.2284379983
 20
6.1656292483
 11
12.2284379983
 21
6.7168103507
  0
LINE
  5
334
100
AcDbEntity
  8
0
100
AcDbLine
 62
7
  6
CONTINUOUS
 10
12.3618238251
 20
6.0061804295
 11
12.3618238251
 21
5.4943694058
  0
LINE
  5
335
100
AcDbEntity
  8
0
100
AcDbLine
 62
7
  6
CONTINUOUS
 10
12.4102785495
 20
5.2168103507
 11
12.4102785495
 21
4.6656292483
  0
LINE
  5
336
100
AcDbEntity
  8
0
100
AcDbLine
 62
7
  6
CONTINUOUS
 10
12.4555738251
 20
4.5061804295
 11
12.4555738251
 21
3.9943694058
  0
LINE
  5
337
100
AcDbEntity
  8
0
100
AcDbLine
 62
7
  6
CONTINUOUS
 10
12.4668927227
 20
4.7443694058
 11
12.4668927227
 21
5.2561804295
  0
LINE
  5
338
100
AcDbEntity
  8
0
100
AcDbLine
 62
7
  6
CONTINUOUS
 10
12.5040285495
 20
6.7168103507
 11
12.5040285495
 21
6.1656292483
  0
LINE
  5
339
100
AcDbEntity
  8
0
100
AcDbLine
 62
7
  6
CONTINUOUS
 10
12.5606427227
 20
6.2443694058
 11
12.5606427227
 21
6.7561804295
  0
LINE
  5
33A
100
AcDbEntity
  8
0
100
AcDbLine
 62
7
  6
CONTINUOUS
 10
12.7368238251
 20
3.7561804295
 11
12.7368238251
 21
3.2443694058
  0
LINE
  5
33B
100
AcDbEntity
  8
0
100
AcDbLine
 62
7
  6
CONTINUOUS
 10
12.7481427227
 20
5.4943694058
 11
12.7481427227
 21
6.0061804295
  0
LINE
  5
33C
100
AcDbEntity
  8
0
100
AcDbLine
 62
7
  6
CONTINUOUS
 10
12.9356427227
 20
3.2443694058
 11
12.9356427227
 21
3.7561804295
  0
LINE
  5
33D
100
AcDbEntity
  8
0
100
AcDbLine
 62
7
  6
CONTINUOUS
 10
12.9356427227
 20
3.9943694058
 11
12.9356427227
 21
4.5061804295
  0
LINE
  5
33E
100
AcDbEntity
  8
0
100
AcDbLine
 62
7
  6
CONTINUOUS
 10
13.0180738251
 20
5.2561804295
 11
13.0180738251
 21
4.7443694058
  0
LINE
  5
33F
100
AcDbEntity
  8
0
100
AcDbLine
 62
7
  6
CONTINUOUS
 10
13.0746879983
 20
4.6656292483
 11
13.0746879983
 21
5.2168103507
  0
LINE
  5
340
100
AcDbEntity
  8
0
100
AcDbLine
 62
7
  6
CONTINUOUS
 10
13.1118238251
 20
6.7561804295
 11
13.1118238251
 21
6.2443694058
  0
LINE
  5
341
100
AcDbEntity
  8
0
100
AcDbLine
 62
7
  6
CONTINUOUS
 10
13.1684379983
 20
6.1656292483
 11
13.1684379983
 21
6.7168103507
  0
LINE
  5
342
100
AcDbEntity
  8
0
100
AcDbLine
 62
7
  6
CONTINUOUS
 10
13.2993238251
 20
6.0061804295
 11
13.2993238251
 21
5.4943694058
  0
LINE
  5
343
100
AcDbEntity
  8
0
100
AcDbLine
 62
7
  6
CONTINUOUS
 10
13.3502785495
 20
5.2168103507
 11
13.3502785495
 21
4.6656292483
  0
LINE
  5
344
100
AcDbEntity
  8
0
100
AcDbLine
 62
7
  6
CONTINUOUS
 10
13.4440285495
 20
6.7168103507
 11
13.4440285495
 21
6.1656292483
  0
LINE
  5
345
100
AcDbEntity
  8
0
100
AcDbLine
 62
7
  6
CONTINUOUS
 10
13.4868238251
 20
4.5061804295
 11
13.4868238251
 21
3.9943694058
  0
LINE
  5
346
100
AcDbEntity
  8
0
100
AcDbLine
 62
7
  6
CONTINUOUS
 10
13.4868238251
 20
3.7561804295
 11
13.4868238251
 21
3.2443694058
  0
LINE
  5
347
100
AcDbEntity
  8
0
100
AcDbLine
 62
7
  6
CONTINUOUS
 10
13.6856427227
 20
3.2443694058
 11
13.6856427227
 21
3.7561804295
  0
LINE
  5
348
100
AcDbEntity
  8
0
100
AcDbLine
 62
7
  6
CONTINUOUS
 10
13.6856427227
 20
3.9943694058
 11
13.6856427227
 21
4.5061804295
  0
LINE
  5
349
100
AcDbEntity
  8
0
100
AcDbLine
 62
7
  6
CONTINUOUS
 10
13.6856427227
 20
4.7443694058
 11
13.6856427227
 21
5.2561804295
  0
LINE
  5
34A
100
AcDbEntity
  8
0
100
AcDbLine
 62
7
  6
CONTINUOUS
 10
13.6856427227
 20
5.4943694058
 11
13.6856427227
 21
6.0061804295
  0
LINE
  5
34B
100
AcDbEntity
  8
0
100
AcDbLine
 62
7
  6
CONTINUOUS
 10
13.6856427227
 20
6.2443694058
 11
13.6856427227
 21
6.7561804295
  0
LINE
  5
34C
100
AcDbEntity
  8
0
100
AcDbLine
 62
7
  6
CONTINUOUS
 10
14.2368238251
 20
6.7561804295
 11
14.2368238251
 21
6.2443694058
  0
LINE
  5
34D
100
AcDbEntity
  8
0
100
AcDbLine
 62
7
  6
CONTINUOUS
 10
14.2368238251
 20
6.0061804295
 11
14.2368238251
 21
5.4943694058
  0
LINE
  5
34E
100
AcDbEntity
  8
0
100
AcDbLine
 62
7
  6
CONTINUOUS
 10
14.2368238251
 20
5.2561804295
 11
14.2368238251
 21
4.7443694058
  0
LINE
  5
34F
100
AcDbEntity
  8
0
100
AcDbLine
 62
7
  6
CONTINUOUS
 10
14.2368238251
 20
4.5061804295
 11
14.2368238251
 21
3.9943694058
  0
LINE
  5
350
100
AcDbEntity
  8
0
100
AcDbLine
 62
7
  6
CONTINUOUS
 10
14.2368238251
 20
3.7561804295
 11
14.2368238251
 21
3.2443694058
  0
LINE
  5
351
100
AcDbEntity
  8
0
100
AcDbLine
 62
7
  6
CONTINUOUS
 10
14.336233274
 20
7.7502749174
 11
14.336233274
 21
7.0002749176
  0
LINE
  5
352
100
AcDbEntity
  8
0
100
AcDbLine
 62
7
  6
CONTINUOUS
 10
14.6905639827
 20
2.8231095631
 11
14.6905639827
 21
8.0524402717
  0
ARC
  5
353
100
AcDbEntity
  8
0
100
AcDbCircle
 62
7
  6
CONTINUOUS
 10
2.1590679194
 20
2.8231095631
 40
0.1771653543
100
AcDbArc
 50
180.0
 51
270.0
  0
CIRCLE
  5
354
100
AcDbEntity
  8
02___PRT_ALL_AXES
100
AcDbCircle
 62
7
  6
CONTINUOUS
 10
2.1590679194
 20
2.8231095631
 40
0.0984251969
  0
ARC
  5
355
100
AcDbEntity
  8
0
100
AcDbCircle
 62
7
  6
CONTINUOUS
 10
4.9358887857
 20
3.7561804295
 40
0.0196850394
100
AcDbArc
 50
0.0
 51
90.0
  0
ARC
  5
356
100
AcDbEntity
  8
0
100
AcDbCircle
 62
7
  6
CONTINUOUS
 10
4.9358887857
 20
3.2443694058
 40
0.0196850394
100
AcDbArc
 50
270.0
 51
360.0
  0
ARC
  5
357
100
AcDbEntity
  8
0
100
AcDbCircle
 62
7
  6
CONTINUOUS
 10
4.4240777621
 20
3.2443694058
 40
0.0196850394
100
AcDbArc
 50
180.0
 51
270.0
  0
ARC
  5
358
100
AcDbEntity
  8
0
100
AcDbCircle
 62
7
  6
CONTINUOUS
 10
4.4240777621
 20
3.7561804295
 40
0.0196850394
100
AcDbArc
 50
90.0
 51
180.0
  0
ARC
  5
359
100
AcDbEntity
  8
0
100
AcDbCircle
 62
7
  6
CONTINUOUS
 10
3.9983887857
 20
3.7561804295
 40
0.0196850394
100
AcDbArc
 50
0.0
 51
90.0
  0
ARC
  5
35A
100
AcDbEntity
  8
0
100
AcDbCircle
 62
7
  6
CONTINUOUS
 10
3.9983887857
 20
3.2443694058
 40
0.0196850394
100
AcDbArc
 50
270.0
 51
360.0
  0
ARC
  5
35B
100
AcDbEntity
  8
0
100
AcDbCircle
 62
7
  6
CONTINUOUS
 10
3.4865777621
 20
3.2443694058
 40
0.0196850394
100
AcDbArc
 50
180.0
 51
270.0
  0
ARC
  5
35C
100
AcDbEntity
  8
0
100
AcDbCircle
 62
7
  6
CONTINUOUS
 10
3.4865777621
 20
3.7561804295
 40
0.0196850394
100
AcDbArc
 50
90.0
 51
180.0
  0
ARC
  5
35D
100
AcDbEntity
  8
0
100
AcDbCircle
 62
7
  6
CONTINUOUS
 10
3.0608887857
 20
3.7561804295
 40
0.0196850394
100
AcDbArc
 50
0.0
 51
90.0
  0
ARC
  5
35E
100
AcDbEntity
  8
0
100
AcDbCircle
 62
7
  6
CONTINUOUS
 10
3.0608887857
 20
3.2443694058
 40
0.0196850394
100
AcDbArc
 50
270.0
 51
360.0
  0
ARC
  5
35F
100
AcDbEntity
  8
0
100
AcDbCircle
 62
7
  6
CONTINUOUS
 10
2.5490777621
 20
3.2443694058
 40
0.0196850394
100
AcDbArc
 50
180.0
 51
270.0
  0
ARC
  5
360
100
AcDbEntity
  8
0
100
AcDbCircle
 62
7
  6
CONTINUOUS
 10
2.5490777621
 20
3.7561804295
 40
0.0196850394
100
AcDbArc
 50
90.0
 51
180.0
  0
ARC
  5
361
100
AcDbEntity
  8
0
100
AcDbCircle
 62
7
  6
CONTINUOUS
 10
4.8928277621
 20
3.9943694058
 40
0.0196850394
100
AcDbArc
 50
180.0
 51
270.0
  0
ARC
  5
362
100
AcDbEntity
  8
0
100
AcDbCircle
 62
7
  6
CONTINUOUS
 10
4.6546387857
 20
3.9943694058
 40
0.0196850394
100
AcDbArc
 50
270.0
 51
360.0
  0
ARC
  5
363
100
AcDbEntity
  8
0
100
AcDbCircle
 62
7
  6
CONTINUOUS
 10
4.1428277621
 20
3.9943694058
 40
0.0196850394
100
AcDbArc
 50
180.0
 51
270.0
  0
ARC
  5
364
100
AcDbEntity
  8
0
100
AcDbCircle
 62
7
  6
CONTINUOUS
 10
2.8280935101
 20
3.9156292483
 40
0.0196850394
100
AcDbArc
 50
270.0
 51
360.0
  0
ARC
  5
365
100
AcDbEntity
  8
0
100
AcDbCircle
 62
7
  6
CONTINUOUS
 10
2.5918730377
 20
3.9156292483
 40
0.0196850394
100
AcDbArc
 50
180.0
 51
270.0
  0
ARC
  5
366
100
AcDbEntity
  8
0
100
AcDbCircle
 62
7
  6
CONTINUOUS
 10
3.7680935101
 20
3.9156292483
 40
0.0196850394
100
AcDbArc
 50
270.0
 51
360.0
  0
ARC
  5
367
100
AcDbEntity
  8
0
100
AcDbCircle
 62
7
  6
CONTINUOUS
 10
3.5318730377
 20
3.9156292483
 40
0.0196850394
100
AcDbArc
 50
180.0
 51
270.0
  0
ARC
  5
368
100
AcDbEntity
  8
0
100
AcDbCircle
 62
7
  6
CONTINUOUS
 10
3.4358887857
 20
3.9943694058
 40
0.0196850394
100
AcDbArc
 50
270.0
 51
360.0
  0
ARC
  5
369
100
AcDbEntity
  8
0
100
AcDbCircle
 62
7
  6
CONTINUOUS
 10
2.9240777621
 20
3.9943694058
 40
0.0196850394
100
AcDbArc
 50
180.0
 51
270.0
  0
ARC
  5
36A
100
AcDbEntity
  8
0
100
AcDbCircle
 62
7
  6
CONTINUOUS
 10
4.8928277621
 20
4.5061804295
 40
0.0196850394
100
AcDbArc
 50
90.0
 51
180.0
  0
ARC
  5
36B
100
AcDbEntity
  8
0
100
AcDbCircle
 62
7
  6
CONTINUOUS
 10
4.6546387857
 20
4.5061804295
 40
0.0196850394
100
AcDbArc
 50
0.0
 51
90.0
  0
ARC
  5
36C
100
AcDbEntity
  8
0
100
AcDbCircle
 62
7
  6
CONTINUOUS
 10
4.1428277621
 20
4.5061804295
 40
0.0196850394
100
AcDbArc
 50
90.0
 51
180.0
  0
ARC
  5
36D
100
AcDbEntity
  8
0
100
AcDbCircle
 62
7
  6
CONTINUOUS
 10
2.8280935101
 20
4.4668103507
 40
0.0196850394
100
AcDbArc
 50
0.0
 51
90.0
  0
ARC
  5
36E
100
AcDbEntity
  8
0
100
AcDbCircle
 62
7
  6
CONTINUOUS
 10
2.5918730377
 20
4.4668103507
 40
0.0196850394
100
AcDbArc
 50
90.0
 51
180.0
  0
ARC
  5
36F
100
AcDbEntity
  8
0
100
AcDbCircle
 62
7
  6
CONTINUOUS
 10
3.7680935101
 20
4.4668103507
 40
0.0196850394
100
AcDbArc
 50
0.0
 51
90.0
  0
ARC
  5
370
100
AcDbEntity
  8
0
100
AcDbCircle
 62
7
  6
CONTINUOUS
 10
3.5318730377
 20
4.4668103507
 40
0.0196850394
100
AcDbArc
 50
90.0
 51
180.0
  0
ARC
  5
371
100
AcDbEntity
  8
0
100
AcDbCircle
 62
7
  6
CONTINUOUS
 10
3.4358887857
 20
4.5061804295
 40
0.0196850394
100
AcDbArc
 50
0.0
 51
90.0
  0
ARC
  5
372
100
AcDbEntity
  8
0
100
AcDbCircle
 62
7
  6
CONTINUOUS
 10
2.9240777621
 20
4.5061804295
 40
0.0196850394
100
AcDbArc
 50
90.0
 51
180.0
  0
ARC
  5
373
100
AcDbEntity
  8
0
100
AcDbCircle
 62
7
  6
CONTINUOUS
 10
5.0296387857
 20
5.2561804295
 40
0.0196850394
100
AcDbArc
 50
0.0
 51
90.0
  0
ARC
  5
374
100
AcDbEntity
  8
0
100
AcDbCircle
 62
7
  6
CONTINUOUS
 10
5.0296387857
 20
4.7443694058
 40
0.0196850394
100
AcDbArc
 50
270.0
 51
360.0
  0
ARC
  5
375
100
AcDbEntity
  8
0
100
AcDbCircle
 62
7
  6
CONTINUOUS
 10
4.5178277621
 20
4.7443694058
 40
0.0196850394
100
AcDbArc
 50
180.0
 51
270.0
  0
ARC
  5
376
100
AcDbEntity
  8
0
100
AcDbCircle
 62
7
  6
CONTINUOUS
 10
4.5178277621
 20
5.2561804295
 40
0.0196850394
100
AcDbArc
 50
90.0
 51
180.0
  0
ARC
  5
377
100
AcDbEntity
  8
0
100
AcDbCircle
 62
7
  6
CONTINUOUS
 10
4.2796387857
 20
5.2561804295
 40
0.0196850394
100
AcDbArc
 50
0.0
 51
90.0
  0
ARC
  5
378
100
AcDbEntity
  8
0
100
AcDbCircle
 62
7
  6
CONTINUOUS
 10
4.2796387857
 20
4.7443694058
 40
0.0196850394
100
AcDbArc
 50
270.0
 51
360.0
  0
ARC
  5
379
100
AcDbEntity
  8
0
100
AcDbCircle
 62
7
  6
CONTINUOUS
 10
3.7678277621
 20
4.7443694058
 40
0.0196850394
100
AcDbArc
 50
180.0
 51
270.0
  0
ARC
  5
37A
100
AcDbEntity
  8
0
100
AcDbCircle
 62
7
  6
CONTINUOUS
 10
3.7678277621
 20
5.2561804295
 40
0.0196850394
100
AcDbArc
 50
90.0
 51
180.0
  0
ARC
  5
37B
100
AcDbEntity
  8
0
100
AcDbCircle
 62
7
  6
CONTINUOUS
 10
3.2483887857
 20
5.2561804295
 40
0.0196850394
100
AcDbArc
 50
0.0
 51
90.0
  0
ARC
  5
37C
100
AcDbEntity
  8
0
100
AcDbCircle
 62
7
  6
CONTINUOUS
 10
3.2483887857
 20
4.7443694058
 40
0.0196850394
100
AcDbArc
 50
270.0
 51
360.0
  0
ARC
  5
37D
100
AcDbEntity
  8
0
100
AcDbCircle
 62
7
  6
CONTINUOUS
 10
2.7365777621
 20
4.7443694058
 40
0.0196850394
100
AcDbArc
 50
180.0
 51
270.0
  0
ARC
  5
37E
100
AcDbEntity
  8
0
100
AcDbCircle
 62
7
  6
CONTINUOUS
 10
2.7365777621
 20
5.2561804295
 40
0.0196850394
100
AcDbArc
 50
90.0
 51
180.0
  0
CIRCLE
  5
37F
100
AcDbEntity
  8
02___PRT_ALL_AXES
100
AcDbCircle
 62
7
  6
CONTINUOUS
 10
6.2893582738
 20
2.8231095631
 40
0.0984251969
  0
ARC
  5
380
100
AcDbEntity
  8
0
100
AcDbCircle
 62
7
  6
CONTINUOUS
 10
5.6420895731
 20
3.7168103507
 40
0.0196850394
100
AcDbArc
 50
0.0
 51
90.0
  0
ARC
  5
381
100
AcDbEntity
  8
0
100
AcDbCircle
 62
7
  6
CONTINUOUS
 10
5.6420895731
 20
3.1656292483
 40
0.0196850394
100
AcDbArc
 50
270.0
 51
360.0
  0
ARC
  5
382
100
AcDbEntity
  8
0
100
AcDbCircle
 62
7
  6
CONTINUOUS
 10
5.4058691007
 20
3.1656292483
 40
0.0196850394
100
AcDbArc
 50
180.0
 51
270.0
  0
ARC
  5
383
100
AcDbEntity
  8
0
100
AcDbCircle
 62
7
  6
CONTINUOUS
 10
5.4058691007
 20
3.7168103507
 40
0.0196850394
100
AcDbArc
 50
90.0
 51
180.0
  0
ARC
  5
384
100
AcDbEntity
  8
0
100
AcDbCircle
 62
7
  6
CONTINUOUS
 10
7.7483887857
 20
3.7561804295
 40
0.0196850394
100
AcDbArc
 50
0.0
 51
90.0
  0
ARC
  5
385
100
AcDbEntity
  8
0
100
AcDbCircle
 62
7
  6
CONTINUOUS
 10
7.7483887857
 20
3.2443694058
 40
0.0196850394
100
AcDbArc
 50
270.0
 51
360.0
  0
ARC
  5
386
100
AcDbEntity
  8
0
100
AcDbCircle
 62
7
  6
CONTINUOUS
 10
7.2365777621
 20
3.2443694058
 40
0.0196850394
100
AcDbArc
 50
180.0
 51
270.0
  0
ARC
  5
387
100
AcDbEntity
  8
0
100
AcDbCircle
 62
7
  6
CONTINUOUS
 10
7.2365777621
 20
3.7561804295
 40
0.0196850394
100
AcDbArc
 50
90.0
 51
180.0
  0
ARC
  5
388
100
AcDbEntity
  8
0
100
AcDbCircle
 62
7
  6
CONTINUOUS
 10
7.8928277621
 20
3.9943694058
 40
0.0196850394
100
AcDbArc
 50
180.0
 51
270.0
  0
ARC
  5
389
100
AcDbEntity
  8
0
100
AcDbCircle
 62
7
  6
CONTINUOUS
 10
7.6546387857
 20
3.9943694058
 40
0.0196850394
100
AcDbArc
 50
270.0
 51
360.0
  0
ARC
  5
38A
100
AcDbEntity
  8
0
100
AcDbCircle
 62
7
  6
CONTINUOUS
 10
7.1428277621
 20
3.9943694058
 40
0.0196850394
100
AcDbArc
 50
180.0
 51
270.0
  0
ARC
  5
38B
100
AcDbEntity
  8
0
100
AcDbCircle
 62
7
  6
CONTINUOUS
 10
6.9046387857
 20
3.9943694058
 40
0.0196850394
100
AcDbArc
 50
270.0
 51
360.0
  0
ARC
  5
38C
100
AcDbEntity
  8
0
100
AcDbCircle
 62
7
  6
CONTINUOUS
 10
6.3928277621
 20
3.9943694058
 40
0.0196850394
100
AcDbArc
 50
180.0
 51
270.0
  0
ARC
  5
38D
100
AcDbEntity
  8
0
100
AcDbCircle
 62
7
  6
CONTINUOUS
 10
6.1546387857
 20
3.9943694058
 40
0.0196850394
100
AcDbArc
 50
270.0
 51
360.0
  0
ARC
  5
38E
100
AcDbEntity
  8
0
100
AcDbCircle
 62
7
  6
CONTINUOUS
 10
5.6428277621
 20
3.9943694058
 40
0.0196850394
100
AcDbArc
 50
180.0
 51
270.0
  0
ARC
  5
38F
100
AcDbEntity
  8
0
100
AcDbCircle
 62
7
  6
CONTINUOUS
 10
5.4046387857
 20
3.9943694058
 40
0.0196850394
100
AcDbArc
 50
270.0
 51
360.0
  0
ARC
  5
390
100
AcDbEntity
  8
0
100
AcDbCircle
 62
7
  6
CONTINUOUS
 10
7.8928277621
 20
4.5061804295
 40
0.0196850394
100
AcDbArc
 50
90.0
 51
180.0
  0
ARC
  5
391
100
AcDbEntity
  8
0
100
AcDbCircle
 62
7
  6
CONTINUOUS
 10
7.6546387857
 20
4.5061804295
 40
0.0196850394
100
AcDbArc
 50
0.0
 51
90.0
  0
ARC
  5
392
100
AcDbEntity
  8
0
100
AcDbCircle
 62
7
  6
CONTINUOUS
 10
7.1428277621
 20
4.5061804295
 40
0.0196850394
100
AcDbArc
 50
90.0
 51
180.0
  0
ARC
  5
393
100
AcDbEntity
  8
0
100
AcDbCircle
 62
7
  6
CONTINUOUS
 10
6.9046387857
 20
4.5061804295
 40
0.0196850394
100
AcDbArc
 50
0.0
 51
90.0
  0
ARC
  5
394
100
AcDbEntity
  8
0
100
AcDbCircle
 62
7
  6
CONTINUOUS
 10
6.3928277621
 20
4.5061804295
 40
0.0196850394
100
AcDbArc
 50
90.0
 51
180.0
  0
ARC
  5
395
100
AcDbEntity
  8
0
100
AcDbCircle
 62
7
  6
CONTINUOUS
 10
6.1546387857
 20
4.5061804295
 40
0.0196850394
100
AcDbArc
 50
0.0
 51
90.0
  0
ARC
  5
396
100
AcDbEntity
  8
0
100
AcDbCircle
 62
7
  6
CONTINUOUS
 10
5.6428277621
 20
4.5061804295
 40
0.0196850394
100
AcDbArc
 50
90.0
 51
180.0
  0
ARC
  5
397
100
AcDbEntity
  8
0
100
AcDbCircle
 62
7
  6
CONTINUOUS
 10
5.4046387857
 20
4.5061804295
 40
0.0196850394
100
AcDbArc
 50
0.0
 51
90.0
  0
ARC
  5
398
100
AcDbEntity
  8
0
100
AcDbCircle
 62
7
  6
CONTINUOUS
 10
8.2678277621
 20
4.7443694058
 40
0.0196850394
100
AcDbArc
 50
180.0
 51
270.0
  0
ARC
  5
399
100
AcDbEntity
  8
0
100
AcDbCircle
 62
7
  6
CONTINUOUS
 10
8.2678277621
 20
5.2561804295
 40
0.0196850394
100
AcDbArc
 50
90.0
 51
180.0
  0
ARC
  5
39A
100
AcDbEntity
  8
0
100
AcDbCircle
 62
7
  6
CONTINUOUS
 10
8.0296387857
 20
5.2561804295
 40
0.0196850394
100
AcDbArc
 50
0.0
 51
90.0
  0
ARC
  5
39B
100
AcDbEntity
  8
0
100
AcDbCircle
 62
7
  6
CONTINUOUS
 10
8.0296387857
 20
4.7443694058
 40
0.0196850394
100
AcDbArc
 50
270.0
 51
360.0
  0
ARC
  5
39C
100
AcDbEntity
  8
0
100
AcDbCircle
 62
7
  6
CONTINUOUS
 10
7.5178277621
 20
4.7443694058
 40
0.0196850394
100
AcDbArc
 50
180.0
 51
270.0
  0
ARC
  5
39D
100
AcDbEntity
  8
0
100
AcDbCircle
 62
7
  6
CONTINUOUS
 10
7.5178277621
 20
5.2561804295
 40
0.0196850394
100
AcDbArc
 50
90.0
 51
180.0
  0
ARC
  5
39E
100
AcDbEntity
  8
0
100
AcDbCircle
 62
7
  6
CONTINUOUS
 10
7.2796387857
 20
5.2561804295
 40
0.0196850394
100
AcDbArc
 50
0.0
 51
90.0
  0
ARC
  5
39F
100
AcDbEntity
  8
0
100
AcDbCircle
 62
7
  6
CONTINUOUS
 10
7.2796387857
 20
4.7443694058
 40
0.0196850394
100
AcDbArc
 50
270.0
 51
360.0
  0
ARC
  5
3A0
100
AcDbEntity
  8
0
100
AcDbCircle
 62
7
  6
CONTINUOUS
 10
6.7678277621
 20
4.7443694058
 40
0.0196850394
100
AcDbArc
 50
180.0
 51
270.0
  0
ARC
  5
3A1
100
AcDbEntity
  8
0
100
AcDbCircle
 62
7
  6
CONTINUOUS
 10
6.7678277621
 20
5.2561804295
 40
0.0196850394
100
AcDbArc
 50
90.0
 51
180.0
  0
ARC
  5
3A2
100
AcDbEntity
  8
0
100
AcDbCircle
 62
7
  6
CONTINUOUS
 10
6.5296387857
 20
5.2561804295
 40
0.0196850394
100
AcDbArc
 50
0.0
 51
90.0
  0
ARC
  5
3A3
100
AcDbEntity
  8
0
100
AcDbCircle
 62
7
  6
CONTINUOUS
 10
6.5296387857
 20
4.7443694058
 40
0.0196850394
100
AcDbArc
 50
270.0
 51
360.0
  0
ARC
  5
3A4
100
AcDbEntity
  8
0
100
AcDbCircle
 62
7
  6
CONTINUOUS
 10
6.0178277621
 20
4.7443694058
 40
0.0196850394
100
AcDbArc
 50
180.0
 51
270.0
  0
ARC
  5
3A5
100
AcDbEntity
  8
0
100
AcDbCircle
 62
7
  6
CONTINUOUS
 10
6.0178277621
 20
5.2561804295
 40
0.0196850394
100
AcDbArc
 50
90.0
 51
180.0
  0
ARC
  5
3A6
100
AcDbEntity
  8
0
100
AcDbCircle
 62
7
  6
CONTINUOUS
 10
5.7796387857
 20
5.2561804295
 40
0.0196850394
100
AcDbArc
 50
0.0
 51
90.0
  0
ARC
  5
3A7
100
AcDbEntity
  8
0
100
AcDbCircle
 62
7
  6
CONTINUOUS
 10
5.7796387857
 20
4.7443694058
 40
0.0196850394
100
AcDbArc
 50
270.0
 51
360.0
  0
ARC
  5
3A8
100
AcDbEntity
  8
0
100
AcDbCircle
 62
7
  6
CONTINUOUS
 10
5.2678277621
 20
4.7443694058
 40
0.0196850394
100
AcDbArc
 50
180.0
 51
270.0
  0
ARC
  5
3A9
100
AcDbEntity
  8
0
100
AcDbCircle
 62
7
  6
CONTINUOUS
 10
5.2678277621
 20
5.2561804295
 40
0.0196850394
100
AcDbArc
 50
90.0
 51
180.0
  0
CIRCLE
  5
3AA
100
AcDbEntity
  8
02___PRT_ALL_AXES
100
AcDbCircle
 62
7
  6
CONTINUOUS
 10
2.1590679194
 20
5.4377749177
 40
0.0984251969
  0
ARC
  5
3AB
100
AcDbEntity
  8
0
100
AcDbCircle
 62
7
  6
CONTINUOUS
 10
5.0803277621
 20
5.4943694058
 40
0.0196850394
100
AcDbArc
 50
180.0
 51
270.0
  0
ARC
  5
3AC
100
AcDbEntity
  8
0
100
AcDbCircle
 62
7
  6
CONTINUOUS
 10
5.0803277621
 20
6.0061804295
 40
0.0196850394
100
AcDbArc
 50
90.0
 51
180.0
  0
ARC
  5
3AD
100
AcDbEntity
  8
0
100
AcDbCircle
 62
7
  6
CONTINUOUS
 10
4.8421387857
 20
6.0061804295
 40
0.0196850394
100
AcDbArc
 50
0.0
 51
90.0
  0
ARC
  5
3AE
100
AcDbEntity
  8
0
100
AcDbCircle
 62
7
  6
CONTINUOUS
 10
4.8421387857
 20
5.4943694058
 40
0.0196850394
100
AcDbArc
 50
270.0
 51
360.0
  0
ARC
  5
3AF
100
AcDbEntity
  8
0
100
AcDbCircle
 62
7
  6
CONTINUOUS
 10
4.3303277621
 20
5.4943694058
 40
0.0196850394
100
AcDbArc
 50
180.0
 51
270.0
  0
ARC
  5
3B0
100
AcDbEntity
  8
0
100
AcDbCircle
 62
7
  6
CONTINUOUS
 10
4.3303277621
 20
6.0061804295
 40
0.0196850394
100
AcDbArc
 50
90.0
 51
180.0
  0
ARC
  5
3B1
100
AcDbEntity
  8
0
100
AcDbCircle
 62
7
  6
CONTINUOUS
 10
4.0921387857
 20
6.0061804295
 40
0.0196850394
100
AcDbArc
 50
0.0
 51
90.0
  0
ARC
  5
3B2
100
AcDbEntity
  8
0
100
AcDbCircle
 62
7
  6
CONTINUOUS
 10
4.0921387857
 20
5.4943694058
 40
0.0196850394
100
AcDbArc
 50
270.0
 51
360.0
  0
ARC
  5
3B3
100
AcDbEntity
  8
0
100
AcDbCircle
 62
7
  6
CONTINUOUS
 10
3.5803277621
 20
5.4943694058
 40
0.0196850394
100
AcDbArc
 50
180.0
 51
270.0
  0
ARC
  5
3B4
100
AcDbEntity
  8
0
100
AcDbCircle
 62
7
  6
CONTINUOUS
 10
3.5803277621
 20
6.0061804295
 40
0.0196850394
100
AcDbArc
 50
90.0
 51
180.0
  0
ARC
  5
3B5
100
AcDbEntity
  8
0
100
AcDbCircle
 62
7
  6
CONTINUOUS
 10
3.1546387857
 20
6.0061804295
 40
0.0196850394
100
AcDbArc
 50
0.0
 51
90.0
  0
ARC
  5
3B6
100
AcDbEntity
  8
0
100
AcDbCircle
 62
7
  6
CONTINUOUS
 10
3.1546387857
 20
5.4943694058
 40
0.0196850394
100
AcDbArc
 50
270.0
 51
360.0
  0
ARC
  5
3B7
100
AcDbEntity
  8
0
100
AcDbCircle
 62
7
  6
CONTINUOUS
 10
2.6428277621
 20
5.4943694058
 40
0.0196850394
100
AcDbArc
 50
180.0
 51
270.0
  0
ARC
  5
3B8
100
AcDbEntity
  8
0
100
AcDbCircle
 62
7
  6
CONTINUOUS
 10
2.6428277621
 20
6.0061804295
 40
0.0196850394
100
AcDbArc
 50
90.0
 51
180.0
  0
ARC
  5
3B9
100
AcDbEntity
  8
0
100
AcDbCircle
 62
7
  6
CONTINUOUS
 10
4.7053277621
 20
6.2443694058
 40
0.0196850394
100
AcDbArc
 50
180.0
 51
270.0
  0
ARC
  5
3BA
100
AcDbEntity
  8
0
100
AcDbCircle
 62
7
  6
CONTINUOUS
 10
4.4671387857
 20
6.2443694058
 40
0.0196850394
100
AcDbArc
 50
270.0
 51
360.0
  0
ARC
  5
3BB
100
AcDbEntity
  8
0
100
AcDbCircle
 62
7
  6
CONTINUOUS
 10
3.9553277621
 20
6.2443694058
 40
0.0196850394
100
AcDbArc
 50
180.0
 51
270.0
  0
ARC
  5
3BC
100
AcDbEntity
  8
0
100
AcDbCircle
 62
7
  6
CONTINUOUS
 10
3.7171387857
 20
6.2443694058
 40
0.0196850394
100
AcDbArc
 50
270.0
 51
360.0
  0
ARC
  5
3BD
100
AcDbEntity
  8
0
100
AcDbCircle
 62
7
  6
CONTINUOUS
 10
3.2053277621
 20
6.2443694058
 40
0.0196850394
100
AcDbArc
 50
180.0
 51
270.0
  0
ARC
  5
3BE
100
AcDbEntity
  8
0
100
AcDbCircle
 62
7
  6
CONTINUOUS
 10
2.9671387857
 20
6.2443694058
 40
0.0196850394
100
AcDbArc
 50
270.0
 51
360.0
  0
ARC
  5
3BF
100
AcDbEntity
  8
0
100
AcDbCircle
 62
7
  6
CONTINUOUS
 10
2.4553277621
 20
6.2443694058
 40
0.0196850394
100
AcDbArc
 50
180.0
 51
270.0
  0
ARC
  5
3C0
100
AcDbEntity
  8
0
100
AcDbCircle
 62
7
  6
CONTINUOUS
 10
2.5621428434
 20
8.0524402717
 40
0.1771653543
100
AcDbArc
 50
270.0
 51
90.0
  0
ARC
  5
3C1
100
AcDbEntity
  8
0
100
AcDbCircle
 62
7
  6
CONTINUOUS
 10
2.1590679194
 20
8.0524402717
 40
0.1771653543
100
AcDbArc
 50
90.0
 51
180.0
  0
ARC
  5
3C2
100
AcDbEntity
  8
0
100
AcDbCircle
 62
7
  6
CONTINUOUS
 10
4.8763415415
 20
8.0524402717
 40
0.1771653543
100
AcDbArc
 50
90.0
 51
270.0
  0
ARC
  5
3C3
100
AcDbEntity
  8
0
100
AcDbCircle
 62
7
  6
CONTINUOUS
 10
2.4612332738
 20
7.0002749176
 40
0.125
100
AcDbArc
 50
180.0
 51
270.0
  0
ARC
  5
3C4
100
AcDbEntity
  8
0
100
AcDbCircle
 62
7
  6
CONTINUOUS
 10
2.4612332738
 20
7.7502749174
 40
0.125
100
AcDbArc
 50
90.0
 51
180.000000003
  0
CIRCLE
  5
3C5
100
AcDbEntity
  8
02___PRT_ALL_AXES
100
AcDbCircle
 62
7
  6
CONTINUOUS
 10
2.1590679194
 20
8.0524402717
 40
0.0984251969
  0
ARC
  5
3C6
100
AcDbEntity
  8
0
100
AcDbCircle
 62
7
  6
CONTINUOUS
 10
4.7053277621
 20
6.7561804295
 40
0.0196850394
100
AcDbArc
 50
90.0
 51
180.0
  0
ARC
  5
3C7
100
AcDbEntity
  8
0
100
AcDbCircle
 62
7
  6
CONTINUOUS
 10
4.4671387857
 20
6.7561804295
 40
0.0196850394
100
AcDbArc
 50
0.0
 51
90.0
  0
ARC
  5
3C8
100
AcDbEntity
  8
0
100
AcDbCircle
 62
7
  6
CONTINUOUS
 10
3.9553277621
 20
6.7561804295
 40
0.0196850394
100
AcDbArc
 50
90.0
 51
180.0
  0
ARC
  5
3C9
100
AcDbEntity
  8
0
100
AcDbCircle
 62
7
  6
CONTINUOUS
 10
3.7171387857
 20
6.7561804295
 40
0.0196850394
100
AcDbArc
 50
0.0
 51
90.0
  0
ARC
  5
3CA
100
AcDbEntity
  8
0
100
AcDbCircle
 62
7
  6
CONTINUOUS
 10
3.2053277621
 20
6.7561804295
 40
0.0196850394
100
AcDbArc
 50
90.0
 51
180.0
  0
ARC
  5
3CB
100
AcDbEntity
  8
0
100
AcDbCircle
 62
7
  6
CONTINUOUS
 10
2.9671387857
 20
6.7561804295
 40
0.0196850394
100
AcDbArc
 50
0.0
 51
90.0
  0
ARC
  5
3CC
100
AcDbEntity
  8
0
100
AcDbCircle
 62
7
  6
CONTINUOUS
 10
2.4553277621
 20
6.7561804295
 40
0.0196850394
100
AcDbArc
 50
90.0
 51
180.0
  0
ARC
  5
3CD
100
AcDbEntity
  8
0
100
AcDbCircle
 62
7
  6
CONTINUOUS
 10
8.0803277621
 20
5.4943694058
 40
0.0196850394
100
AcDbArc
 50
180.0
 51
270.0
  0
ARC
  5
3CE
100
AcDbEntity
  8
0
100
AcDbCircle
 62
7
  6
CONTINUOUS
 10
8.0803277621
 20
6.0061804295
 40
0.0196850394
100
AcDbArc
 50
90.0
 51
180.0
  0
ARC
  5
3CF
100
AcDbEntity
  8
0
100
AcDbCircle
 62
7
  6
CONTINUOUS
 10
7.8421387857
 20
6.0061804295
 40
0.0196850394
100
AcDbArc
 50
0.0
 51
90.0
  0
ARC
  5
3D0
100
AcDbEntity
  8
0
100
AcDbCircle
 62
7
  6
CONTINUOUS
 10
7.8421387857
 20
5.4943694058
 40
0.0196850394
100
AcDbArc
 50
270.0
 51
360.0
  0
ARC
  5
3D1
100
AcDbEntity
  8
0
100
AcDbCircle
 62
7
  6
CONTINUOUS
 10
7.3303277621
 20
5.4943694058
 40
0.0196850394
100
AcDbArc
 50
180.0
 51
270.0
  0
ARC
  5
3D2
100
AcDbEntity
  8
0
100
AcDbCircle
 62
7
  6
CONTINUOUS
 10
7.3303277621
 20
6.0061804295
 40
0.0196850394
100
AcDbArc
 50
90.0
 51
180.0
  0
ARC
  5
3D3
100
AcDbEntity
  8
0
100
AcDbCircle
 62
7
  6
CONTINUOUS
 10
7.0921387857
 20
6.0061804295
 40
0.0196850394
100
AcDbArc
 50
0.0
 51
90.0
  0
ARC
  5
3D4
100
AcDbEntity
  8
0
100
AcDbCircle
 62
7
  6
CONTINUOUS
 10
7.0921387857
 20
5.4943694058
 40
0.0196850394
100
AcDbArc
 50
270.0
 51
360.0
  0
ARC
  5
3D5
100
AcDbEntity
  8
0
100
AcDbCircle
 62
7
  6
CONTINUOUS
 10
6.5803277621
 20
5.4943694058
 40
0.0196850394
100
AcDbArc
 50
180.0
 51
270.0
  0
ARC
  5
3D6
100
AcDbEntity
  8
0
100
AcDbCircle
 62
7
  6
CONTINUOUS
 10
6.5803277621
 20
6.0061804295
 40
0.0196850394
100
AcDbArc
 50
90.0
 51
180.0
  0
ARC
  5
3D7
100
AcDbEntity
  8
0
100
AcDbCircle
 62
7
  6
CONTINUOUS
 10
6.3421387857
 20
6.0061804295
 40
0.0196850394
100
AcDbArc
 50
0.0
 51
90.0
  0
ARC
  5
3D8
100
AcDbEntity
  8
0
100
AcDbCircle
 62
7
  6
CONTINUOUS
 10
6.3421387857
 20
5.4943694058
 40
0.0196850394
100
AcDbArc
 50
270.0
 51
360.0
  0
ARC
  5
3D9
100
AcDbEntity
  8
0
100
AcDbCircle
 62
7
  6
CONTINUOUS
 10
5.8303277621
 20
5.4943694058
 40
0.0196850394
100
AcDbArc
 50
180.0
 51
270.0
  0
ARC
  5
3DA
100
AcDbEntity
  8
0
100
AcDbCircle
 62
7
  6
CONTINUOUS
 10
5.8303277621
 20
6.0061804295
 40
0.0196850394
100
AcDbArc
 50
90.0
 51
180.0
  0
ARC
  5
3DB
100
AcDbEntity
  8
0
100
AcDbCircle
 62
7
  6
CONTINUOUS
 10
5.5921387857
 20
6.0061804295
 40
0.0196850394
100
AcDbArc
 50
0.0
 51
90.0
  0
ARC
  5
3DC
100
AcDbEntity
  8
0
100
AcDbCircle
 62
7
  6
CONTINUOUS
 10
5.5921387857
 20
5.4943694058
 40
0.0196850394
100
AcDbArc
 50
270.0
 51
360.0
  0
ARC
  5
3DD
100
AcDbEntity
  8
0
100
AcDbCircle
 62
7
  6
CONTINUOUS
 10
8.2171387857
 20
6.2443694058
 40
0.0196850394
100
AcDbArc
 50
270.0
 51
360.0
  0
ARC
  5
3DE
100
AcDbEntity
  8
0
100
AcDbCircle
 62
7
  6
CONTINUOUS
 10
7.7053277621
 20
6.2443694058
 40
0.0196850394
100
AcDbArc
 50
180.0
 51
270.0
  0
ARC
  5
3DF
100
AcDbEntity
  8
0
100
AcDbCircle
 62
7
  6
CONTINUOUS
 10
7.4671387857
 20
6.2443694058
 40
0.0196850394
100
AcDbArc
 50
270.0
 51
360.0
  0
ARC
  5
3E0
100
AcDbEntity
  8
0
100
AcDbCircle
 62
7
  6
CONTINUOUS
 10
6.9553277621
 20
6.2443694058
 40
0.0196850394
100
AcDbArc
 50
180.0
 51
270.0
  0
ARC
  5
3E1
100
AcDbEntity
  8
0
100
AcDbCircle
 62
7
  6
CONTINUOUS
 10
6.7171387857
 20
6.2443694058
 40
0.0196850394
100
AcDbArc
 50
270.0
 51
360.0
  0
ARC
  5
3E2
100
AcDbEntity
  8
0
100
AcDbCircle
 62
7
  6
CONTINUOUS
 10
6.2053277621
 20
6.2443694058
 40
0.0196850394
100
AcDbArc
 50
180.0
 51
270.0
  0
ARC
  5
3E3
100
AcDbEntity
  8
0
100
AcDbCircle
 62
7
  6
CONTINUOUS
 10
5.9671387857
 20
6.2443694058
 40
0.0196850394
100
AcDbArc
 50
270.0
 51
360.0
  0
ARC
  5
3E4
100
AcDbEntity
  8
0
100
AcDbCircle
 62
7
  6
CONTINUOUS
 10
5.4553277621
 20
6.2443694058
 40
0.0196850394
100
AcDbArc
 50
180.0
 51
270.0
  0
ARC
  5
3E5
100
AcDbEntity
  8
0
100
AcDbCircle
 62
7
  6
CONTINUOUS
 10
5.2171387857
 20
6.2443694058
 40
0.0196850394
100
AcDbArc
 50
270.0
 51
360.0
  0
ARC
  5
3E6
100
AcDbEntity
  8
0
100
AcDbCircle
 62
7
  6
CONTINUOUS
 10
6.6112086675
 20
7.0002749176
 40
0.125
100
AcDbArc
 50
180.0
 51
270.0
  0
ARC
  5
3E7
100
AcDbEntity
  8
0
100
AcDbCircle
 62
7
  6
CONTINUOUS
 10
6.6112086675
 20
7.7502749174
 40
0.125
100
AcDbArc
 50
90.0
 51
180.0
  0
ARC
  5
3E8
100
AcDbEntity
  8
0
100
AcDbCircle
 62
7
  6
CONTINUOUS
 10
5.9675078801
 20
7.7502749174
 40
0.125
100
AcDbArc
 50
0.0
 51
90.0
  0
ARC
  5
3E9
100
AcDbEntity
  8
0
100
AcDbCircle
 62
7
  6
CONTINUOUS
 10
5.9675078801
 20
7.0002749176
 40
0.125
100
AcDbArc
 50
270.0
 51
360.0
  0
CIRCLE
  5
3EA
100
AcDbEntity
  8
02___PRT_ALL_AXES
100
AcDbCircle
 62
7
  6
CONTINUOUS
 10
6.2893582738
 20
8.0524402717
 40
0.0984251969
  0
ARC
  5
3EB
100
AcDbEntity
  8
0
100
AcDbCircle
 62
7
  6
CONTINUOUS
 10
8.2171387857
 20
6.7561804295
 40
0.0196850394
100
AcDbArc
 50
0.0
 51
90.0
  0
ARC
  5
3EC
100
AcDbEntity
  8
0
100
AcDbCircle
 62
7
  6
CONTINUOUS
 10
7.7053277621
 20
6.7561804295
 40
0.0196850394
100
AcDbArc
 50
90.0
 51
180.0
  0
ARC
  5
3ED
100
AcDbEntity
  8
0
100
AcDbCircle
 62
7
  6
CONTINUOUS
 10
7.4671387857
 20
6.7561804295
 40
0.0196850394
100
AcDbArc
 50
0.0
 51
90.0
  0
ARC
  5
3EE
100
AcDbEntity
  8
0
100
AcDbCircle
 62
7
  6
CONTINUOUS
 10
6.9553277621
 20
6.7561804295
 40
0.0196850394
100
AcDbArc
 50
90.0
 51
180.0
  0
ARC
  5
3EF
100
AcDbEntity
  8
0
100
AcDbCircle
 62
7
  6
CONTINUOUS
 10
6.7171387857
 20
6.7561804295
 40
0.0196850394
100
AcDbArc
 50
0.0
 51
90.0
  0
ARC
  5
3F0
100
AcDbEntity
  8
0
100
AcDbCircle
 62
7
  6
CONTINUOUS
 10
6.2053277621
 20
6.7561804295
 40
0.0196850394
100
AcDbArc
 50
90.0
 51
180.0
  0
ARC
  5
3F1
100
AcDbEntity
  8
0
100
AcDbCircle
 62
7
  6
CONTINUOUS
 10
5.9671387857
 20
6.7561804295
 40
0.0196850394
100
AcDbArc
 50
0.0
 51
90.0
  0
ARC
  5
3F2
100
AcDbEntity
  8
0
100
AcDbCircle
 62
7
  6
CONTINUOUS
 10
5.4553277621
 20
6.7561804295
 40
0.0196850394
100
AcDbArc
 50
90.0
 51
180.0
  0
ARC
  5
3F3
100
AcDbEntity
  8
0
100
AcDbCircle
 62
7
  6
CONTINUOUS
 10
5.2171387857
 20
6.7561804295
 40
0.0196850394
100
AcDbArc
 50
0.0
 51
90.0
  0
CIRCLE
  5
3F4
100
AcDbEntity
  8
02___PRT_ALL_AXES
100
AcDbCircle
 62
7
  6
CONTINUOUS
 10
10.3831082738
 20
2.8231095631
 40
0.0984251969
  0
ARC
  5
3F5
100
AcDbEntity
  8
0
100
AcDbCircle
 62
7
  6
CONTINUOUS
 10
11.4553277621
 20
3.2443694058
 40
0.0196850394
100
AcDbArc
 50
180.0
 51
270.0
  0
ARC
  5
3F6
100
AcDbEntity
  8
0
100
AcDbCircle
 62
7
  6
CONTINUOUS
 10
11.4553277621
 20
3.7561804295
 40
0.0196850394
100
AcDbArc
 50
90.0
 51
180.0
  0
ARC
  5
3F7
100
AcDbEntity
  8
0
100
AcDbCircle
 62
7
  6
CONTINUOUS
 10
11.2171387857
 20
3.7561804295
 40
0.0196850394
100
AcDbArc
 50
0.0
 51
90.0
  0
ARC
  5
3F8
100
AcDbEntity
  8
0
100
AcDbCircle
 62
7
  6
CONTINUOUS
 10
11.2171387857
 20
3.2443694058
 40
0.0196850394
100
AcDbArc
 50
270.0
 51
360.0
  0
ARC
  5
3F9
100
AcDbEntity
  8
0
100
AcDbCircle
 62
7
  6
CONTINUOUS
 10
10.7053277621
 20
3.2443694058
 40
0.0196850394
100
AcDbArc
 50
180.0
 51
270.0
  0
ARC
  5
3FA
100
AcDbEntity
  8
0
100
AcDbCircle
 62
7
  6
CONTINUOUS
 10
10.7053277621
 20
3.7561804295
 40
0.0196850394
100
AcDbArc
 50
90.0
 51
180.0
  0
ARC
  5
3FB
100
AcDbEntity
  8
0
100
AcDbCircle
 62
7
  6
CONTINUOUS
 10
10.4671387857
 20
3.7561804295
 40
0.0196850394
100
AcDbArc
 50
0.0
 51
90.0
  0
ARC
  5
3FC
100
AcDbEntity
  8
0
100
AcDbCircle
 62
7
  6
CONTINUOUS
 10
10.4671387857
 20
3.2443694058
 40
0.0196850394
100
AcDbArc
 50
270.0
 51
360.0
  0
ARC
  5
3FD
100
AcDbEntity
  8
0
100
AcDbCircle
 62
7
  6
CONTINUOUS
 10
9.9553277621
 20
3.2443694058
 40
0.0196850394
100
AcDbArc
 50
180.0
 51
270.0
  0
ARC
  5
3FE
100
AcDbEntity
  8
0
100
AcDbCircle
 62
7
  6
CONTINUOUS
 10
9.9553277621
 20
3.7561804295
 40
0.0196850394
100
AcDbArc
 50
90.0
 51
180.0
  0
ARC
  5
3FF
100
AcDbEntity
  8
0
100
AcDbCircle
 62
7
  6
CONTINUOUS
 10
9.5790974472
 20
3.7168103507
 40
0.0196850394
100
AcDbArc
 50
0.0
 51
90.0
  0
ARC
  5
400
100
AcDbEntity
  8
0
100
AcDbCircle
 62
7
  6
CONTINUOUS
 10
9.5790974472
 20
3.1656292483
 40
0.0196850394
100
AcDbArc
 50
270.0
 51
360.0
  0
ARC
  5
401
100
AcDbEntity
  8
0
100
AcDbCircle
 62
7
  6
CONTINUOUS
 10
9.3428769747
 20
3.1656292483
 40
0.0196850394
100
AcDbArc
 50
180.0
 51
270.0
  0
ARC
  5
402
100
AcDbEntity
  8
0
100
AcDbCircle
 62
7
  6
CONTINUOUS
 10
9.3428769747
 20
3.7168103507
 40
0.0196850394
100
AcDbArc
 50
90.0
 51
180.0
  0
ARC
  5
403
100
AcDbEntity
  8
0
100
AcDbCircle
 62
7
  6
CONTINUOUS
 10
11.4046387857
 20
3.9943694058
 40
0.0196850394
100
AcDbArc
 50
270.0
 51
360.0
  0
ARC
  5
404
100
AcDbEntity
  8
0
100
AcDbCircle
 62
7
  6
CONTINUOUS
 10
10.8928277621
 20
3.9943694058
 40
0.0196850394
100
AcDbArc
 50
180.0
 51
270.0
  0
ARC
  5
405
100
AcDbEntity
  8
0
100
AcDbCircle
 62
7
  6
CONTINUOUS
 10
10.6546387857
 20
3.9943694058
 40
0.0196850394
100
AcDbArc
 50
270.0
 51
360.0
  0
ARC
  5
406
100
AcDbEntity
  8
0
100
AcDbCircle
 62
7
  6
CONTINUOUS
 10
10.1428277621
 20
3.9943694058
 40
0.0196850394
100
AcDbArc
 50
180.0
 51
270.0
  0
ARC
  5
407
100
AcDbEntity
  8
0
100
AcDbCircle
 62
7
  6
CONTINUOUS
 10
9.9046387857
 20
3.9943694058
 40
0.0196850394
100
AcDbArc
 50
270.0
 51
360.0
  0
ARC
  5
408
100
AcDbEntity
  8
0
100
AcDbCircle
 62
7
  6
CONTINUOUS
 10
9.3928277621
 20
3.9943694058
 40
0.0196850394
100
AcDbArc
 50
180.0
 51
270.0
  0
ARC
  5
409
100
AcDbEntity
  8
0
100
AcDbCircle
 62
7
  6
CONTINUOUS
 10
9.1546387857
 20
3.9943694058
 40
0.0196850394
100
AcDbArc
 50
270.0
 51
360.0
  0
ARC
  5
40A
100
AcDbEntity
  8
0
100
AcDbCircle
 62
7
  6
CONTINUOUS
 10
8.6428277621
 20
3.9943694058
 40
0.0196850394
100
AcDbArc
 50
180.0
 51
270.0
  0
ARC
  5
40B
100
AcDbEntity
  8
0
100
AcDbCircle
 62
7
  6
CONTINUOUS
 10
8.4046387857
 20
3.9943694058
 40
0.0196850394
100
AcDbArc
 50
270.0
 51
360.0
  0
ARC
  5
40C
100
AcDbEntity
  8
0
100
AcDbCircle
 62
7
  6
CONTINUOUS
 10
11.4046387857
 20
4.5061804295
 40
0.0196850394
100
AcDbArc
 50
0.0
 51
90.0
  0
ARC
  5
40D
100
AcDbEntity
  8
0
100
AcDbCircle
 62
7
  6
CONTINUOUS
 10
10.8928277621
 20
4.5061804295
 40
0.0196850394
100
AcDbArc
 50
90.0
 51
180.0
  0
ARC
  5
40E
100
AcDbEntity
  8
0
100
AcDbCircle
 62
7
  6
CONTINUOUS
 10
10.6546387857
 20
4.5061804295
 40
0.0196850394
100
AcDbArc
 50
0.0
 51
90.0
  0
ARC
  5
40F
100
AcDbEntity
  8
0
100
AcDbCircle
 62
7
  6
CONTINUOUS
 10
10.1428277621
 20
4.5061804295
 40
0.0196850394
100
AcDbArc
 50
90.0
 51
180.0
  0
ARC
  5
410
100
AcDbEntity
  8
0
100
AcDbCircle
 62
7
  6
CONTINUOUS
 10
9.9046387857
 20
4.5061804295
 40
0.0196850394
100
AcDbArc
 50
0.0
 51
90.0
  0
ARC
  5
411
100
AcDbEntity
  8
0
100
AcDbCircle
 62
7
  6
CONTINUOUS
 10
9.3928277621
 20
4.5061804295
 40
0.0196850394
100
AcDbArc
 50
90.0
 51
180.0
  0
ARC
  5
412
100
AcDbEntity
  8
0
100
AcDbCircle
 62
7
  6
CONTINUOUS
 10
9.1546387857
 20
4.5061804295
 40
0.0196850394
100
AcDbArc
 50
0.0
 51
90.0
  0
ARC
  5
413
100
AcDbEntity
  8
0
100
AcDbCircle
 62
7
  6
CONTINUOUS
 10
8.6428277621
 20
4.5061804295
 40
0.0196850394
100
AcDbArc
 50
90.0
 51
180.0
  0
ARC
  5
414
100
AcDbEntity
  8
0
100
AcDbCircle
 62
7
  6
CONTINUOUS
 10
8.4046387857
 20
4.5061804295
 40
0.0196850394
100
AcDbArc
 50
0.0
 51
90.0
  0
ARC
  5
415
100
AcDbEntity
  8
0
100
AcDbCircle
 62
7
  6
CONTINUOUS
 10
11.2678277621
 20
4.7443694058
 40
0.0196850394
100
AcDbArc
 50
180.0
 51
270.0
  0
ARC
  5
416
100
AcDbEntity
  8
0
100
AcDbCircle
 62
7
  6
CONTINUOUS
 10
11.2678277621
 20
5.2561804295
 40
0.0196850394
100
AcDbArc
 50
90.0
 51
180.0
  0
ARC
  5
417
100
AcDbEntity
  8
0
100
AcDbCircle
 62
7
  6
CONTINUOUS
 10
11.0296387857
 20
5.2561804295
 40
0.0196850394
100
AcDbArc
 50
0.0
 51
90.0
  0
ARC
  5
418
100
AcDbEntity
  8
0
100
AcDbCircle
 62
7
  6
CONTINUOUS
 10
11.0296387857
 20
4.7443694058
 40
0.0196850394
100
AcDbArc
 50
270.0
 51
360.0
  0
ARC
  5
419
100
AcDbEntity
  8
0
100
AcDbCircle
 62
7
  6
CONTINUOUS
 10
10.5178277621
 20
4.7443694058
 40
0.0196850394
100
AcDbArc
 50
180.0
 51
270.0
  0
ARC
  5
41A
100
AcDbEntity
  8
0
100
AcDbCircle
 62
7
  6
CONTINUOUS
 10
10.5178277621
 20
5.2561804295
 40
0.0196850394
100
AcDbArc
 50
90.0
 51
180.0
  0
ARC
  5
41B
100
AcDbEntity
  8
0
100
AcDbCircle
 62
7
  6
CONTINUOUS
 10
10.2796387857
 20
5.2561804295
 40
0.0196850394
100
AcDbArc
 50
0.0
 51
90.0
  0
ARC
  5
41C
100
AcDbEntity
  8
0
100
AcDbCircle
 62
7
  6
CONTINUOUS
 10
10.2796387857
 20
4.7443694058
 40
0.0196850394
100
AcDbArc
 50
270.0
 51
360.0
  0
ARC
  5
41D
100
AcDbEntity
  8
0
100
AcDbCircle
 62
7
  6
CONTINUOUS
 10
9.7678277621
 20
4.7443694058
 40
0.0196850394
100
AcDbArc
 50
180.0
 51
270.0
  0
ARC
  5
41E
100
AcDbEntity
  8
0
100
AcDbCircle
 62
7
  6
CONTINUOUS
 10
9.7678277621
 20
5.2561804295
 40
0.0196850394
100
AcDbArc
 50
90.0
 51
180.0
  0
ARC
  5
41F
100
AcDbEntity
  8
0
100
AcDbCircle
 62
7
  6
CONTINUOUS
 10
9.5296387857
 20
5.2561804295
 40
0.0196850394
100
AcDbArc
 50
0.0
 51
90.0
  0
ARC
  5
420
100
AcDbEntity
  8
0
100
AcDbCircle
 62
7
  6
CONTINUOUS
 10
9.5296387857
 20
4.7443694058
 40
0.0196850394
100
AcDbArc
 50
270.0
 51
360.0
  0
ARC
  5
421
100
AcDbEntity
  8
0
100
AcDbCircle
 62
7
  6
CONTINUOUS
 10
9.0178277621
 20
4.7443694058
 40
0.0196850394
100
AcDbArc
 50
180.0
 51
270.0
  0
ARC
  5
422
100
AcDbEntity
  8
0
100
AcDbCircle
 62
7
  6
CONTINUOUS
 10
9.0178277621
 20
5.2561804295
 40
0.0196850394
100
AcDbArc
 50
90.0
 51
180.0
  0
ARC
  5
423
100
AcDbEntity
  8
0
100
AcDbCircle
 62
7
  6
CONTINUOUS
 10
8.7796387857
 20
5.2561804295
 40
0.0196850394
100
AcDbArc
 50
0.0
 51
90.0
  0
ARC
  5
424
100
AcDbEntity
  8
0
100
AcDbCircle
 62
7
  6
CONTINUOUS
 10
8.7796387857
 20
4.7443694058
 40
0.0196850394
100
AcDbArc
 50
270.0
 51
360.0
  0
ARC
  5
425
100
AcDbEntity
  8
0
100
AcDbCircle
 62
7
  6
CONTINUOUS
 10
14.5133986284
 20
2.8231095631
 40
0.1771653543
100
AcDbArc
 50
270.0
 51
360.0
  0
CIRCLE
  5
426
100
AcDbEntity
  8
02___PRT_ALL_AXES
100
AcDbCircle
 62
7
  6
CONTINUOUS
 10
14.5133986284
 20
2.8231095631
 40
0.0984251969
  0
ARC
  5
427
100
AcDbEntity
  8
0
100
AcDbCircle
 62
7
  6
CONTINUOUS
 10
14.2171387857
 20
3.7561804295
 40
0.0196850394
100
AcDbArc
 50
0.0
 51
90.0
  0
ARC
  5
428
100
AcDbEntity
  8
0
100
AcDbCircle
 62
7
  6
CONTINUOUS
 10
14.2171387857
 20
3.2443694058
 40
0.0196850394
100
AcDbArc
 50
270.0
 51
360.0
  0
ARC
  5
429
100
AcDbEntity
  8
0
100
AcDbCircle
 62
7
  6
CONTINUOUS
 10
13.7053277621
 20
3.2443694058
 40
0.0196850394
100
AcDbArc
 50
180.0
 51
270.0
  0
ARC
  5
42A
100
AcDbEntity
  8
0
100
AcDbCircle
 62
7
  6
CONTINUOUS
 10
13.7053277621
 20
3.7561804295
 40
0.0196850394
100
AcDbArc
 50
90.0
 51
180.0
  0
ARC
  5
42B
100
AcDbEntity
  8
0
100
AcDbCircle
 62
7
  6
CONTINUOUS
 10
13.4671387857
 20
3.7561804295
 40
0.0196850394
100
AcDbArc
 50
0.0
 51
90.0
  0
ARC
  5
42C
100
AcDbEntity
  8
0
100
AcDbCircle
 62
7
  6
CONTINUOUS
 10
13.4671387857
 20
3.2443694058
 40
0.0196850394
100
AcDbArc
 50
270.0
 51
360.0
  0
ARC
  5
42D
100
AcDbEntity
  8
0
100
AcDbCircle
 62
7
  6
CONTINUOUS
 10
12.9553277621
 20
3.2443694058
 40
0.0196850394
100
AcDbArc
 50
180.0
 51
270.0
  0
ARC
  5
42E
100
AcDbEntity
  8
0
100
AcDbCircle
 62
7
  6
CONTINUOUS
 10
12.9553277621
 20
3.7561804295
 40
0.0196850394
100
AcDbArc
 50
90.0
 51
180.0
  0
ARC
  5
42F
100
AcDbEntity
  8
0
100
AcDbCircle
 62
7
  6
CONTINUOUS
 10
12.7171387857
 20
3.7561804295
 40
0.0196850394
100
AcDbArc
 50
0.0
 51
90.0
  0
ARC
  5
430
100
AcDbEntity
  8
0
100
AcDbCircle
 62
7
  6
CONTINUOUS
 10
12.7171387857
 20
3.2443694058
 40
0.0196850394
100
AcDbArc
 50
270.0
 51
360.0
  0
ARC
  5
431
100
AcDbEntity
  8
0
100
AcDbCircle
 62
7
  6
CONTINUOUS
 10
12.2053277621
 20
3.2443694058
 40
0.0196850394
100
AcDbArc
 50
180.0
 51
270.0
  0
ARC
  5
432
100
AcDbEntity
  8
0
100
AcDbCircle
 62
7
  6
CONTINUOUS
 10
12.2053277621
 20
3.7561804295
 40
0.0196850394
100
AcDbArc
 50
90.0
 51
180.0
  0
ARC
  5
433
100
AcDbEntity
  8
0
100
AcDbCircle
 62
7
  6
CONTINUOUS
 10
11.9671387857
 20
3.7561804295
 40
0.0196850394
100
AcDbArc
 50
0.0
 51
90.0
  0
ARC
  5
434
100
AcDbEntity
  8
0
100
AcDbCircle
 62
7
  6
CONTINUOUS
 10
11.9671387857
 20
3.2443694058
 40
0.0196850394
100
AcDbArc
 50
270.0
 51
360.0
  0
ARC
  5
435
100
AcDbEntity
  8
0
100
AcDbCircle
 62
7
  6
CONTINUOUS
 10
14.2171387857
 20
3.9943694058
 40
0.0196850394
100
AcDbArc
 50
270.0
 51
360.0
  0
ARC
  5
436
100
AcDbEntity
  8
0
100
AcDbCircle
 62
7
  6
CONTINUOUS
 10
13.7053277621
 20
3.9943694058
 40
0.0196850394
100
AcDbArc
 50
180.0
 51
270.0
  0
ARC
  5
437
100
AcDbEntity
  8
0
100
AcDbCircle
 62
7
  6
CONTINUOUS
 10
13.4671387857
 20
3.9943694058
 40
0.0196850394
100
AcDbArc
 50
270.0
 51
360.0
  0
ARC
  5
438
100
AcDbEntity
  8
0
100
AcDbCircle
 62
7
  6
CONTINUOUS
 10
12.9553277621
 20
3.9943694058
 40
0.0196850394
100
AcDbArc
 50
180.0
 51
270.0
  0
ARC
  5
439
100
AcDbEntity
  8
0
100
AcDbCircle
 62
7
  6
CONTINUOUS
 10
12.4358887857
 20
3.9943694058
 40
0.0196850394
100
AcDbArc
 50
270.0
 51
360.0
  0
ARC
  5
43A
100
AcDbEntity
  8
0
100
AcDbCircle
 62
7
  6
CONTINUOUS
 10
11.9240777621
 20
3.9943694058
 40
0.0196850394
100
AcDbArc
 50
180.0
 51
270.0
  0
ARC
  5
43B
100
AcDbEntity
  8
0
100
AcDbCircle
 62
7
  6
CONTINUOUS
 10
14.2171387857
 20
4.5061804295
 40
0.0196850394
100
AcDbArc
 50
0.0
 51
90.0
  0
ARC
  5
43C
100
AcDbEntity
  8
0
100
AcDbCircle
 62
7
  6
CONTINUOUS
 10
13.7053277621
 20
4.5061804295
 40
0.0196850394
100
AcDbArc
 50
90.0
 51
180.0
  0
ARC
  5
43D
100
AcDbEntity
  8
0
100
AcDbCircle
 62
7
  6
CONTINUOUS
 10
13.4671387857
 20
4.5061804295
 40
0.0196850394
100
AcDbArc
 50
0.0
 51
90.0
  0
ARC
  5
43E
100
AcDbEntity
  8
0
100
AcDbCircle
 62
7
  6
CONTINUOUS
 10
12.9553277621
 20
4.5061804295
 40
0.0196850394
100
AcDbArc
 50
90.0
 51
180.0
  0
ARC
  5
43F
100
AcDbEntity
  8
0
100
AcDbCircle
 62
7
  6
CONTINUOUS
 10
12.4358887857
 20
4.5061804295
 40
0.0196850394
100
AcDbArc
 50
0.0
 51
90.0
  0
ARC
  5
440
100
AcDbEntity
  8
0
100
AcDbCircle
 62
7
  6
CONTINUOUS
 10
11.9240777621
 20
4.5061804295
 40
0.0196850394
100
AcDbArc
 50
90.0
 51
180.0
  0
ARC
  5
441
100
AcDbEntity
  8
0
100
AcDbCircle
 62
7
  6
CONTINUOUS
 10
14.2171387857
 20
5.2561804295
 40
0.0196850394
100
AcDbArc
 50
0.0
 51
90.0
  0
ARC
  5
442
100
AcDbEntity
  8
0
100
AcDbCircle
 62
7
  6
CONTINUOUS
 10
14.2171387857
 20
4.7443694058
 40
0.0196850394
100
AcDbArc
 50
270.0
 51
360.0
  0
ARC
  5
443
100
AcDbEntity
  8
0
100
AcDbCircle
 62
7
  6
CONTINUOUS
 10
13.7053277621
 20
4.7443694058
 40
0.0196850394
100
AcDbArc
 50
180.0
 51
270.0
  0
ARC
  5
444
100
AcDbEntity
  8
0
100
AcDbCircle
 62
7
  6
CONTINUOUS
 10
13.7053277621
 20
5.2561804295
 40
0.0196850394
100
AcDbArc
 50
90.0
 51
180.0
  0
ARC
  5
445
100
AcDbEntity
  8
0
100
AcDbCircle
 62
7
  6
CONTINUOUS
 10
12.3905935101
 20
5.2168103507
 40
0.0196850394
100
AcDbArc
 50
0.0
 51
90.0
  0
ARC
  5
446
100
AcDbEntity
  8
0
100
AcDbCircle
 62
7
  6
CONTINUOUS
 10
12.3905935101
 20
4.6656292483
 40
0.0196850394
100
AcDbArc
 50
270.0
 51
360.0
  0
ARC
  5
447
100
AcDbEntity
  8
0
100
AcDbCircle
 62
7
  6
CONTINUOUS
 10
12.1543730377
 20
4.6656292483
 40
0.0196850394
100
AcDbArc
 50
180.0
 51
270.0
  0
ARC
  5
448
100
AcDbEntity
  8
0
100
AcDbCircle
 62
7
  6
CONTINUOUS
 10
12.1543730377
 20
5.2168103507
 40
0.0196850394
100
AcDbArc
 50
90.0
 51
180.0
  0
ARC
  5
449
100
AcDbEntity
  8
0
100
AcDbCircle
 62
7
  6
CONTINUOUS
 10
13.3305935101
 20
5.2168103507
 40
0.0196850394
100
AcDbArc
 50
0.0
 51
90.0
  0
ARC
  5
44A
100
AcDbEntity
  8
0
100
AcDbCircle
 62
7
  6
CONTINUOUS
 10
13.3305935101
 20
4.6656292483
 40
0.0196850394
100
AcDbArc
 50
270.0
 51
360.0
  0
ARC
  5
44B
100
AcDbEntity
  8
0
100
AcDbCircle
 62
7
  6
CONTINUOUS
 10
13.0943730377
 20
4.6656292483
 40
0.0196850394
100
AcDbArc
 50
180.0
 51
270.0
  0
ARC
  5
44C
100
AcDbEntity
  8
0
100
AcDbCircle
 62
7
  6
CONTINUOUS
 10
13.0943730377
 20
5.2168103507
 40
0.0196850394
100
AcDbArc
 50
90.0
 51
180.0
  0
ARC
  5
44D
100
AcDbEntity
  8
0
100
AcDbCircle
 62
7
  6
CONTINUOUS
 10
12.9983887857
 20
5.2561804295
 40
0.0196850394
100
AcDbArc
 50
0.0
 51
90.0
  0
ARC
  5
44E
100
AcDbEntity
  8
0
100
AcDbCircle
 62
7
  6
CONTINUOUS
 10
12.9983887857
 20
4.7443694058
 40
0.0196850394
100
AcDbArc
 50
270.0
 51
360.0
  0
ARC
  5
44F
100
AcDbEntity
  8
0
100
AcDbCircle
 62
7
  6
CONTINUOUS
 10
12.4865777621
 20
4.7443694058
 40
0.0196850394
100
AcDbArc
 50
180.0
 51
270.0
  0
ARC
  5
450
100
AcDbEntity
  8
0
100
AcDbCircle
 62
7
  6
CONTINUOUS
 10
12.4865777621
 20
5.2561804295
 40
0.0196850394
100
AcDbArc
 50
90.0
 51
180.0
  0
ARC
  5
451
100
AcDbEntity
  8
0
100
AcDbCircle
 62
7
  6
CONTINUOUS
 10
11.7796387857
 20
5.2561804295
 40
0.0196850394
100
AcDbArc
 50
0.0
 51
90.0
  0
ARC
  5
452
100
AcDbEntity
  8
0
100
AcDbCircle
 62
7
  6
CONTINUOUS
 10
11.7796387857
 20
4.7443694058
 40
0.0196850394
100
AcDbArc
 50
270.0
 51
360.0
  0
ARC
  5
453
100
AcDbEntity
  8
0
100
AcDbCircle
 62
7
  6
CONTINUOUS
 10
11.0803277621
 20
5.4943694058
 40
0.0196850394
100
AcDbArc
 50
180.0
 51
270.0
  0
ARC
  5
454
100
AcDbEntity
  8
0
100
AcDbCircle
 62
7
  6
CONTINUOUS
 10
11.0803277621
 20
6.0061804295
 40
0.0196850394
100
AcDbArc
 50
90.0
 51
180.0
  0
ARC
  5
455
100
AcDbEntity
  8
0
100
AcDbCircle
 62
7
  6
CONTINUOUS
 10
10.8421387857
 20
6.0061804295
 40
0.0196850394
100
AcDbArc
 50
0.0
 51
90.0
  0
ARC
  5
456
100
AcDbEntity
  8
0
100
AcDbCircle
 62
7
  6
CONTINUOUS
 10
10.8421387857
 20
5.4943694058
 40
0.0196850394
100
AcDbArc
 50
270.0
 51
360.0
  0
ARC
  5
457
100
AcDbEntity
  8
0
100
AcDbCircle
 62
7
  6
CONTINUOUS
 10
10.3303277621
 20
5.4943694058
 40
0.0196850394
100
AcDbArc
 50
180.0
 51
270.0
  0
ARC
  5
458
100
AcDbEntity
  8
0
100
AcDbCircle
 62
7
  6
CONTINUOUS
 10
10.3303277621
 20
6.0061804295
 40
0.0196850394
100
AcDbArc
 50
90.0
 51
180.0
  0
ARC
  5
459
100
AcDbEntity
  8
0
100
AcDbCircle
 62
7
  6
CONTINUOUS
 10
10.0921387857
 20
6.0061804295
 40
0.0196850394
100
AcDbArc
 50
0.0
 51
90.0
  0
ARC
  5
45A
100
AcDbEntity
  8
0
100
AcDbCircle
 62
7
  6
CONTINUOUS
 10
10.0921387857
 20
5.4943694058
 40
0.0196850394
100
AcDbArc
 50
270.0
 51
360.0
  0
ARC
  5
45B
100
AcDbEntity
  8
0
100
AcDbCircle
 62
7
  6
CONTINUOUS
 10
9.5803277621
 20
5.4943694058
 40
0.0196850394
100
AcDbArc
 50
180.0
 51
270.0
  0
ARC
  5
45C
100
AcDbEntity
  8
0
100
AcDbCircle
 62
7
  6
CONTINUOUS
 10
9.5803277621
 20
6.0061804295
 40
0.0196850394
100
AcDbArc
 50
90.0
 51
180.0
  0
ARC
  5
45D
100
AcDbEntity
  8
0
100
AcDbCircle
 62
7
  6
CONTINUOUS
 10
9.3421387857
 20
6.0061804295
 40
0.0196850394
100
AcDbArc
 50
0.0
 51
90.0
  0
ARC
  5
45E
100
AcDbEntity
  8
0
100
AcDbCircle
 62
7
  6
CONTINUOUS
 10
9.3421387857
 20
5.4943694058
 40
0.0196850394
100
AcDbArc
 50
270.0
 51
360.0
  0
ARC
  5
45F
100
AcDbEntity
  8
0
100
AcDbCircle
 62
7
  6
CONTINUOUS
 10
8.8303277621
 20
5.4943694058
 40
0.0196850394
100
AcDbArc
 50
180.0
 51
270.0
  0
ARC
  5
460
100
AcDbEntity
  8
0
100
AcDbCircle
 62
7
  6
CONTINUOUS
 10
8.8303277621
 20
6.0061804295
 40
0.0196850394
100
AcDbArc
 50
90.0
 51
180.0
  0
ARC
  5
461
100
AcDbEntity
  8
0
100
AcDbCircle
 62
7
  6
CONTINUOUS
 10
8.5921387857
 20
6.0061804295
 40
0.0196850394
100
AcDbArc
 50
0.0
 51
90.0
  0
ARC
  5
462
100
AcDbEntity
  8
0
100
AcDbCircle
 62
7
  6
CONTINUOUS
 10
8.5921387857
 20
5.4943694058
 40
0.0196850394
100
AcDbArc
 50
270.0
 51
360.0
  0
ARC
  5
463
100
AcDbEntity
  8
0
100
AcDbCircle
 62
7
  6
CONTINUOUS
 10
11.4553277621
 20
6.2443694058
 40
0.0196850394
100
AcDbArc
 50
180.0
 51
270.0
  0
ARC
  5
464
100
AcDbEntity
  8
0
100
AcDbCircle
 62
7
  6
CONTINUOUS
 10
11.2171387857
 20
6.2443694058
 40
0.0196850394
100
AcDbArc
 50
270.0
 51
360.0
  0
ARC
  5
465
100
AcDbEntity
  8
0
100
AcDbCircle
 62
7
  6
CONTINUOUS
 10
10.7053277621
 20
6.2443694058
 40
0.0196850394
100
AcDbArc
 50
180.0
 51
270.0
  0
ARC
  5
466
100
AcDbEntity
  8
0
100
AcDbCircle
 62
7
  6
CONTINUOUS
 10
10.4671387857
 20
6.2443694058
 40
0.0196850394
100
AcDbArc
 50
270.0
 51
360.0
  0
ARC
  5
467
100
AcDbEntity
  8
0
100
AcDbCircle
 62
7
  6
CONTINUOUS
 10
9.9553277621
 20
6.2443694058
 40
0.0196850394
100
AcDbArc
 50
180.0
 51
270.0
  0
ARC
  5
468
100
AcDbEntity
  8
0
100
AcDbCircle
 62
7
  6
CONTINUOUS
 10
9.7171387857
 20
6.2443694058
 40
0.0196850394
100
AcDbArc
 50
270.0
 51
360.0
  0
ARC
  5
469
100
AcDbEntity
  8
0
100
AcDbCircle
 62
7
  6
CONTINUOUS
 10
9.2053277621
 20
6.2443694058
 40
0.0196850394
100
AcDbArc
 50
180.0
 51
270.0
  0
ARC
  5
46A
100
AcDbEntity
  8
0
100
AcDbCircle
 62
7
  6
CONTINUOUS
 10
8.9671387857
 20
6.2443694058
 40
0.0196850394
100
AcDbArc
 50
270.0
 51
360.0
  0
ARC
  5
46B
100
AcDbEntity
  8
0
100
AcDbCircle
 62
7
  6
CONTINUOUS
 10
8.4553277621
 20
6.2443694058
 40
0.0196850394
100
AcDbArc
 50
180.0
 51
270.0
  0
ARC
  5
46C
100
AcDbEntity
  8
0
100
AcDbCircle
 62
7
  6
CONTINUOUS
 10
10.7049586675
 20
7.0002749176
 40
0.125
100
AcDbArc
 50
180.0
 51
270.0
  0
ARC
  5
46D
100
AcDbEntity
  8
0
100
AcDbCircle
 62
7
  6
CONTINUOUS
 10
10.7049586675
 20
7.7502749174
 40
0.125
100
AcDbArc
 50
90.0
 51
180.0
  0
ARC
  5
46E
100
AcDbEntity
  8
0
100
AcDbCircle
 62
7
  6
CONTINUOUS
 10
10.0612578801
 20
7.7502749174
 40
0.125
100
AcDbArc
 50
0.0
 51
90.0
  0
ARC
  5
46F
100
AcDbEntity
  8
0
100
AcDbCircle
 62
7
  6
CONTINUOUS
 10
10.0612578801
 20
7.0002749176
 40
0.125
100
AcDbArc
 50
270.0
 51
360.0
  0
CIRCLE
  5
470
100
AcDbEntity
  8
02___PRT_ALL_AXES
100
AcDbCircle
 62
7
  6
CONTINUOUS
 10
10.3831082738
 20
8.0524402717
 40
0.0984251969
  0
ARC
  5
471
100
AcDbEntity
  8
0
100
AcDbCircle
 62
7
  6
CONTINUOUS
 10
11.4553277621
 20
6.7561804295
 40
0.0196850394
100
AcDbArc
 50
90.0
 51
180.0
  0
ARC
  5
472
100
AcDbEntity
  8
0
100
AcDbCircle
 62
7
  6
CONTINUOUS
 10
11.2171387857
 20
6.7561804295
 40
0.0196850394
100
AcDbArc
 50
0.0
 51
90.0
  0
ARC
  5
473
100
AcDbEntity
  8
0
100
AcDbCircle
 62
7
  6
CONTINUOUS
 10
10.7053277621
 20
6.7561804295
 40
0.0196850394
100
AcDbArc
 50
90.0
 51
180.0
  0
ARC
  5
474
100
AcDbEntity
  8
0
100
AcDbCircle
 62
7
  6
CONTINUOUS
 10
10.4671387857
 20
6.7561804295
 40
0.0196850394
100
AcDbArc
 50
0.0
 51
90.0
  0
ARC
  5
475
100
AcDbEntity
  8
0
100
AcDbCircle
 62
7
  6
CONTINUOUS
 10
9.9553277621
 20
6.7561804295
 40
0.0196850394
100
AcDbArc
 50
90.0
 51
180.0
  0
ARC
  5
476
100
AcDbEntity
  8
0
100
AcDbCircle
 62
7
  6
CONTINUOUS
 10
9.7171387857
 20
6.7561804295
 40
0.0196850394
100
AcDbArc
 50
0.0
 51
90.0
  0
ARC
  5
477
100
AcDbEntity
  8
0
100
AcDbCircle
 62
7
  6
CONTINUOUS
 10
9.2053277621
 20
6.7561804295
 40
0.0196850394
100
AcDbArc
 50
90.0
 51
180.0
  0
ARC
  5
478
100
AcDbEntity
  8
0
100
AcDbCircle
 62
7
  6
CONTINUOUS
 10
8.9671387857
 20
6.7561804295
 40
0.0196850394
100
AcDbArc
 50
0.0
 51
90.0
  0
ARC
  5
479
100
AcDbEntity
  8
0
100
AcDbCircle
 62
7
  6
CONTINUOUS
 10
8.4553277621
 20
6.7561804295
 40
0.0196850394
100
AcDbArc
 50
90.0
 51
180.0
  0
CIRCLE
  5
47A
100
AcDbEntity
  8
02___PRT_ALL_AXES
100
AcDbCircle
 62
7
  6
CONTINUOUS
 10
14.5133986284
 20
5.4377749177
 40
0.0984251969
  0
ARC
  5
47B
100
AcDbEntity
  8
0
100
AcDbCircle
 62
7
  6
CONTINUOUS
 10
14.2171387857
 20
6.0061804295
 40
0.0196850394
100
AcDbArc
 50
0.0
 51
90.0
  0
ARC
  5
47C
100
AcDbEntity
  8
0
100
AcDbCircle
 62
7
  6
CONTINUOUS
 10
14.2171387857
 20
5.4943694058
 40
0.0196850394
100
AcDbArc
 50
270.0
 51
360.0
  0
ARC
  5
47D
100
AcDbEntity
  8
0
100
AcDbCircle
 62
7
  6
CONTINUOUS
 10
13.7053277621
 20
5.4943694058
 40
0.0196850394
100
AcDbArc
 50
180.0
 51
270.0
  0
ARC
  5
47E
100
AcDbEntity
  8
0
100
AcDbCircle
 62
7
  6
CONTINUOUS
 10
13.7053277621
 20
6.0061804295
 40
0.0196850394
100
AcDbArc
 50
90.0
 51
180.0
  0
ARC
  5
47F
100
AcDbEntity
  8
0
100
AcDbCircle
 62
7
  6
CONTINUOUS
 10
13.2796387857
 20
6.0061804295
 40
0.0196850394
100
AcDbArc
 50
0.0
 51
90.0
  0
ARC
  5
480
100
AcDbEntity
  8
0
100
AcDbCircle
 62
7
  6
CONTINUOUS
 10
13.2796387857
 20
5.4943694058
 40
0.0196850394
100
AcDbArc
 50
270.0
 51
360.0
  0
ARC
  5
481
100
AcDbEntity
  8
0
100
AcDbCircle
 62
7
  6
CONTINUOUS
 10
12.7678277621
 20
5.4943694058
 40
0.0196850394
100
AcDbArc
 50
180.0
 51
270.0
  0
ARC
  5
482
100
AcDbEntity
  8
0
100
AcDbCircle
 62
7
  6
CONTINUOUS
 10
12.7678277621
 20
6.0061804295
 40
0.0196850394
100
AcDbArc
 50
90.0
 51
180.0
  0
ARC
  5
483
100
AcDbEntity
  8
0
100
AcDbCircle
 62
7
  6
CONTINUOUS
 10
12.3421387857
 20
6.0061804295
 40
0.0196850394
100
AcDbArc
 50
0.0
 51
90.0
  0
ARC
  5
484
100
AcDbEntity
  8
0
100
AcDbCircle
 62
7
  6
CONTINUOUS
 10
12.3421387857
 20
5.4943694058
 40
0.0196850394
100
AcDbArc
 50
270.0
 51
360.0
  0
ARC
  5
485
100
AcDbEntity
  8
0
100
AcDbCircle
 62
7
  6
CONTINUOUS
 10
11.8303277621
 20
5.4943694058
 40
0.0196850394
100
AcDbArc
 50
180.0
 51
270.0
  0
ARC
  5
486
100
AcDbEntity
  8
0
100
AcDbCircle
 62
7
  6
CONTINUOUS
 10
11.8303277621
 20
6.0061804295
 40
0.0196850394
100
AcDbArc
 50
90.0
 51
180.0
  0
ARC
  5
487
100
AcDbEntity
  8
0
100
AcDbCircle
 62
7
  6
CONTINUOUS
 10
11.5921387857
 20
6.0061804295
 40
0.0196850394
100
AcDbArc
 50
0.0
 51
90.0
  0
ARC
  5
488
100
AcDbEntity
  8
0
100
AcDbCircle
 62
7
  6
CONTINUOUS
 10
11.5921387857
 20
5.4943694058
 40
0.0196850394
100
AcDbArc
 50
270.0
 51
360.0
  0
ARC
  5
489
100
AcDbEntity
  8
0
100
AcDbCircle
 62
7
  6
CONTINUOUS
 10
14.2171387857
 20
6.2443694058
 40
0.0196850394
100
AcDbArc
 50
270.0
 51
360.0
  0
ARC
  5
48A
100
AcDbEntity
  8
0
100
AcDbCircle
 62
7
  6
CONTINUOUS
 10
13.7053277621
 20
6.2443694058
 40
0.0196850394
100
AcDbArc
 50
180.0
 51
270.0
  0
ARC
  5
48B
100
AcDbEntity
  8
0
100
AcDbCircle
 62
7
  6
CONTINUOUS
 10
12.4843435101
 20
6.7168103507
 40
0.0196850394
100
AcDbArc
 50
0.0
 51
90.0
  0
ARC
  5
48C
100
AcDbEntity
  8
0
100
AcDbCircle
 62
7
  6
CONTINUOUS
 10
12.4843435101
 20
6.1656292483
 40
0.0196850394
100
AcDbArc
 50
270.0
 51
360.0
  0
ARC
  5
48D
100
AcDbEntity
  8
0
100
AcDbCircle
 62
7
  6
CONTINUOUS
 10
12.2481230377
 20
6.1656292483
 40
0.0196850394
100
AcDbArc
 50
180.0
 51
270.0
  0
ARC
  5
48E
100
AcDbEntity
  8
0
100
AcDbCircle
 62
7
  6
CONTINUOUS
 10
12.2481230377
 20
6.7168103507
 40
0.0196850394
100
AcDbArc
 50
90.0
 51
180.0
  0
ARC
  5
48F
100
AcDbEntity
  8
0
100
AcDbCircle
 62
7
  6
CONTINUOUS
 10
13.4243435101
 20
6.7168103507
 40
0.0196850394
100
AcDbArc
 50
0.0
 51
90.0
  0
ARC
  5
490
100
AcDbEntity
  8
0
100
AcDbCircle
 62
7
  6
CONTINUOUS
 10
13.4243435101
 20
6.1656292483
 40
0.0196850394
100
AcDbArc
 50
270.0
 51
360.0
  0
ARC
  5
491
100
AcDbEntity
  8
0
100
AcDbCircle
 62
7
  6
CONTINUOUS
 10
13.1881230377
 20
6.1656292483
 40
0.0196850394
100
AcDbArc
 50
180.0
 51
270.0
  0
ARC
  5
492
100
AcDbEntity
  8
0
100
AcDbCircle
 62
7
  6
CONTINUOUS
 10
13.1881230377
 20
6.7168103507
 40
0.0196850394
100
AcDbArc
 50
90.0
 51
180.0
  0
ARC
  5
493
100
AcDbEntity
  8
0
100
AcDbCircle
 62
7
  6
CONTINUOUS
 10
13.0921387857
 20
6.2443694058
 40
0.0196850394
100
AcDbArc
 50
270.0
 51
360.0
  0
ARC
  5
494
100
AcDbEntity
  8
0
100
AcDbCircle
 62
7
  6
CONTINUOUS
 10
12.5803277621
 20
6.2443694058
 40
0.0196850394
100
AcDbArc
 50
180.0
 51
270.0
  0
ARC
  5
495
100
AcDbEntity
  8
0
100
AcDbCircle
 62
7
  6
CONTINUOUS
 10
11.9671387857
 20
6.2443694058
 40
0.0196850394
100
AcDbArc
 50
270.0
 51
360.0
  0
ARC
  5
496
100
AcDbEntity
  8
0
100
AcDbCircle
 62
7
  6
CONTINUOUS
 10
14.5133986284
 20
8.0524402717
 40
0.1771653543
100
AcDbArc
 50
0.0
 51
90.0
  0
ARC
  5
497
100
AcDbEntity
  8
0
100
AcDbCircle
 62
7
  6
CONTINUOUS
 10
14.211233274
 20
7.7502749174
 40
0.125
100
AcDbArc
 50
0.0
 51
90.0
  0
ARC
  5
498
100
AcDbEntity
  8
0
100
AcDbCircle
 62
7
  6
CONTINUOUS
 10
14.211233274
 20
7.0002749176
 40
0.125
100
AcDbArc
 50
270.0
 51
360.0
  0
CIRCLE
  5
499
100
AcDbEntity
  8
02___PRT_ALL_AXES
100
AcDbCircle
 62
7
  6
CONTINUOUS
 10
14.5133986284
 20
8.0524402717
 40
0.0984251969
  0
ARC
  5
49A
100
AcDbEntity
  8
0
100
AcDbCircle
 62
7
  6
CONTINUOUS
 10
14.2171387857
 20
6.7561804295
 40
0.0196850394
100
AcDbArc
 50
0.0
 51
90.0
  0
ARC
  5
49B
100
AcDbEntity
  8
0
100
AcDbCircle
 62
7
  6
CONTINUOUS
 10
13.7053277621
 20
6.7561804295
 40
0.0196850394
100
AcDbArc
 50
90.0
 51
180.0
  0
ARC
  5
49C
100
AcDbEntity
  8
0
100
AcDbCircle
 62
7
  6
CONTINUOUS
 10
13.0921387857
 20
6.7561804295
 40
0.0196850394
100
AcDbArc
 50
0.0
 51
90.0
  0
ARC
  5
49D
100
AcDbEntity
  8
0
100
AcDbCircle
 62
7
  6
CONTINUOUS
 10
12.5803277621
 20
6.7561804295
 40
0.0196850394
100
AcDbArc
 50
90.0
 51
180.0
  0
ARC
  5
49E
100
AcDbEntity
  8
0
100
AcDbCircle
 62
7
  6
CONTINUOUS
 10
11.9671387857
 20
6.7561804295
 40
0.0196850394
100
AcDbArc
 50
0.0
 51
90.0
  0
ENDSEC
  0
SECTION
  2
OBJECTS
  0
DICTIONARY
  5
C
100
AcDbDictionary
280
0
281
1
  3
ACAD_GROUP
350
D
  3
ACAD_MLINESTYLE
350
17
  3
ACAD_LAYOUT
350
1A
  3
ACAD_PLOTSETTINGS
350
19
  3
ACAD_PLOTSTYLENAME
350
E
  0
DICTIONARY
  5
D
102
{ACAD_REACTORS
330
C
102
}
100
AcDbDictionary
280
0
281
1
  0
ACDBDICTIONARYWDFLT
  5
E
102
{ACAD_REACTORS
330
C
102
}
100
AcDbDictionary
281
1
  3
Normal
350
F
100
AcDbDictionaryWithDefault
340
F
  0
DICTIONARY
  5
17
102
{ACAD_REACTORS
330
C
102
}
100
AcDbDictionary
280
0
281
1
  3
Standard
350
18
  0
DICTIONARY
  5
19
102
{ACAD_REACTORS
330
C
102
}
100
AcDbDictionary
281
1
  0
DICTIONARY
  5
1A
102
{ACAD_REACTORS
330
C
102
}
100
AcDbDictionary
281
1
  3
Model
350
49F
  3
Layout1
350
4A0
  0
ACDBPLACEHOLDER
  5
F
102
{ACAD_REACTORS
330
E
102
}
  0
MLINESTYLE
  5
18
102
{ACAD_REACTORS
330
17
102
}
100
AcDbMlineStyle
  2
STANDARD
 70
0
  3

 62
256
 51
90.0
 52
90.0
 71
2
 49
0.5
 62
256
  6
BYLAYER
 49
-0.5
 62
256
  6
BYLAYER
  0
LAYOUT
  5
49F
102
{ACAD_REACTORS
330
1A
102
}
100
AcDbPlotSettings
  1

  2
none_device
  4
ANSI_B_(17.00_x_11.00_Inches)
  6

 40
0.0
 41
0.0
 42
0.0
 43
0.0
 44
431.8
 45
279.4
 46
0.0
 47
0.0
 48
0.0
 49
0.0
140
0.0
141
0.0
142
1.0
143
1.0
 70
1024
 72
0
 73
0
 74
0
  7

 75
0
147
1.0
148
0.0
149
0.0
100
AcDbLayout
  1
Model
 70
0
 71
0
 10
0.0
 20
0.0
 11
17.0
 21
11.0
 12
0.0
 22
0.0
 32
0.0
 14
0.0
 24
0.0
 34
0.0
 15
0.0
 25
0.0
 35
0.0
146
0.0
 13
0.0
 23
0.0
 33
0.0
 16
1.0
 26
0.0
 36
0.0
 17
0.0
 27
1.0
 37
0.0
 76
0
330
207
345
0
346
0
  0
LAYOUT
  5
4A0
102
{ACAD_REACTORS
330
1A
102
}
100
AcDbPlotSettings
  1

  2
none_device
  4
ANSI_B_(17.00_x_11.00_Inches)
  6

 40
0.0
 41
0.0
 42
0.0
 43
0.0
 44
431.8
 45
279.4
 46
0.0
 47
0.0
 48
0.0
 49
0.0
140
0.0
141
0.0
142
1.0
143
1.0
 70
0
 72
0
 73
0
 74
0
  7

 75
0
147
1.0
148
0.0
149
0.0
100
AcDbLayout
  1
Layout1
 70
0
 71
1
 10
0.0
 20
0.0
 11
17.0
 21
11.0
 12
0.0
 22
0.0
 32
0.0
 14
0.0
 24
0.0
 34
0.0
 15
0.0
 25
0.0
 35
0.0
146
0.0
 13
0.0
 23
0.0
 33
0.0
 16
1.0
 26
0.0
 36
0.0
 17
0.0
 27
1.0
 37
0.0
 76
0
330
208
345
0
346
0
  0
ENDSEC
  0
EOF
