%TF.GenerationSoftware,KiCad,Pcbnew,(5.1.6)-1*%
%TF.CreationDate,2020-07-31T11:49:21-04:00*%
%TF.ProjectId,panama-keyboard,70616e61-6d61-42d6-9b65-79626f617264,w1*%
%TF.SameCoordinates,Original*%
%TF.FileFunction,Legend,Top*%
%TF.FilePolarity,Positive*%
%FSLAX46Y46*%
G04 Gerber Fmt 4.6, Leading zero omitted, Abs format (unit mm)*
G04 Created by KiCad (PCBNEW (5.1.6)-1) date 2020-07-31 11:49:21*
%MOMM*%
%LPD*%
G01*
G04 APERTURE LIST*
%ADD10C,0.150000*%
%ADD11C,0.120000*%
%ADD12C,0.010000*%
G04 APERTURE END LIST*
D10*
X168307047Y-135850380D02*
X168307047Y-136659904D01*
X168354666Y-136755142D01*
X168402285Y-136802761D01*
X168497523Y-136850380D01*
X168688000Y-136850380D01*
X168783238Y-136802761D01*
X168830857Y-136755142D01*
X168878476Y-136659904D01*
X168878476Y-135850380D01*
X169307047Y-136802761D02*
X169449904Y-136850380D01*
X169688000Y-136850380D01*
X169783238Y-136802761D01*
X169830857Y-136755142D01*
X169878476Y-136659904D01*
X169878476Y-136564666D01*
X169830857Y-136469428D01*
X169783238Y-136421809D01*
X169688000Y-136374190D01*
X169497523Y-136326571D01*
X169402285Y-136278952D01*
X169354666Y-136231333D01*
X169307047Y-136136095D01*
X169307047Y-136040857D01*
X169354666Y-135945619D01*
X169402285Y-135898000D01*
X169497523Y-135850380D01*
X169735619Y-135850380D01*
X169878476Y-135898000D01*
X170640380Y-136326571D02*
X170783238Y-136374190D01*
X170830857Y-136421809D01*
X170878476Y-136517047D01*
X170878476Y-136659904D01*
X170830857Y-136755142D01*
X170783238Y-136802761D01*
X170688000Y-136850380D01*
X170307047Y-136850380D01*
X170307047Y-135850380D01*
X170640380Y-135850380D01*
X170735619Y-135898000D01*
X170783238Y-135945619D01*
X170830857Y-136040857D01*
X170830857Y-136136095D01*
X170783238Y-136231333D01*
X170735619Y-136278952D01*
X170640380Y-136326571D01*
X170307047Y-136326571D01*
X171307047Y-136469428D02*
X172068952Y-136469428D01*
X173116571Y-136755142D02*
X173068952Y-136802761D01*
X172926095Y-136850380D01*
X172830857Y-136850380D01*
X172688000Y-136802761D01*
X172592761Y-136707523D01*
X172545142Y-136612285D01*
X172497523Y-136421809D01*
X172497523Y-136278952D01*
X172545142Y-136088476D01*
X172592761Y-135993238D01*
X172688000Y-135898000D01*
X172830857Y-135850380D01*
X172926095Y-135850380D01*
X173068952Y-135898000D01*
X173116571Y-135945619D01*
X190000000Y-148399404D02*
X189952380Y-148494642D01*
X189952380Y-148637500D01*
X190000000Y-148780357D01*
X190095238Y-148875595D01*
X190190476Y-148923214D01*
X190380952Y-148970833D01*
X190523809Y-148970833D01*
X190714285Y-148923214D01*
X190809523Y-148875595D01*
X190904761Y-148780357D01*
X190952380Y-148637500D01*
X190952380Y-148542261D01*
X190904761Y-148399404D01*
X190857142Y-148351785D01*
X190523809Y-148351785D01*
X190523809Y-148542261D01*
X190952380Y-147923214D02*
X189952380Y-147923214D01*
X190952380Y-147351785D01*
X189952380Y-147351785D01*
X190952380Y-146875595D02*
X189952380Y-146875595D01*
X189952380Y-146637500D01*
X190000000Y-146494642D01*
X190095238Y-146399404D01*
X190190476Y-146351785D01*
X190380952Y-146304166D01*
X190523809Y-146304166D01*
X190714285Y-146351785D01*
X190809523Y-146399404D01*
X190904761Y-146494642D01*
X190952380Y-146637500D01*
X190952380Y-146875595D01*
X188571130Y-148185119D02*
X188094940Y-148518452D01*
X188571130Y-148756547D02*
X187571130Y-148756547D01*
X187571130Y-148375595D01*
X187618750Y-148280357D01*
X187666369Y-148232738D01*
X187761607Y-148185119D01*
X187904464Y-148185119D01*
X187999702Y-148232738D01*
X188047321Y-148280357D01*
X188094940Y-148375595D01*
X188094940Y-148756547D01*
X188523511Y-147804166D02*
X188571130Y-147661309D01*
X188571130Y-147423214D01*
X188523511Y-147327976D01*
X188475892Y-147280357D01*
X188380654Y-147232738D01*
X188285416Y-147232738D01*
X188190178Y-147280357D01*
X188142559Y-147327976D01*
X188094940Y-147423214D01*
X188047321Y-147613690D01*
X187999702Y-147708928D01*
X187952083Y-147756547D01*
X187856845Y-147804166D01*
X187761607Y-147804166D01*
X187666369Y-147756547D01*
X187618750Y-147708928D01*
X187571130Y-147613690D01*
X187571130Y-147375595D01*
X187618750Y-147232738D01*
X187571130Y-146947023D02*
X187571130Y-146375595D01*
X188571130Y-146661309D02*
X187571130Y-146661309D01*
X185999380Y-149145428D02*
X184999380Y-149145428D01*
X185713666Y-148812095D01*
X184999380Y-148478761D01*
X185999380Y-148478761D01*
X184999380Y-147812095D02*
X184999380Y-147621619D01*
X185047000Y-147526380D01*
X185142238Y-147431142D01*
X185332714Y-147383523D01*
X185666047Y-147383523D01*
X185856523Y-147431142D01*
X185951761Y-147526380D01*
X185999380Y-147621619D01*
X185999380Y-147812095D01*
X185951761Y-147907333D01*
X185856523Y-148002571D01*
X185666047Y-148050190D01*
X185332714Y-148050190D01*
X185142238Y-148002571D01*
X185047000Y-147907333D01*
X184999380Y-147812095D01*
X185951761Y-147002571D02*
X185999380Y-146859714D01*
X185999380Y-146621619D01*
X185951761Y-146526380D01*
X185904142Y-146478761D01*
X185808904Y-146431142D01*
X185713666Y-146431142D01*
X185618428Y-146478761D01*
X185570809Y-146526380D01*
X185523190Y-146621619D01*
X185475571Y-146812095D01*
X185427952Y-146907333D01*
X185380333Y-146954952D01*
X185285095Y-147002571D01*
X185189857Y-147002571D01*
X185094619Y-146954952D01*
X185047000Y-146907333D01*
X184999380Y-146812095D01*
X184999380Y-146574000D01*
X185047000Y-146431142D01*
X185999380Y-146002571D02*
X184999380Y-146002571D01*
X183411761Y-148859714D02*
X183459380Y-148716857D01*
X183459380Y-148478761D01*
X183411761Y-148383523D01*
X183364142Y-148335904D01*
X183268904Y-148288285D01*
X183173666Y-148288285D01*
X183078428Y-148335904D01*
X183030809Y-148383523D01*
X182983190Y-148478761D01*
X182935571Y-148669238D01*
X182887952Y-148764476D01*
X182840333Y-148812095D01*
X182745095Y-148859714D01*
X182649857Y-148859714D01*
X182554619Y-148812095D01*
X182507000Y-148764476D01*
X182459380Y-148669238D01*
X182459380Y-148431142D01*
X182507000Y-148288285D01*
X183364142Y-147288285D02*
X183411761Y-147335904D01*
X183459380Y-147478761D01*
X183459380Y-147574000D01*
X183411761Y-147716857D01*
X183316523Y-147812095D01*
X183221285Y-147859714D01*
X183030809Y-147907333D01*
X182887952Y-147907333D01*
X182697476Y-147859714D01*
X182602238Y-147812095D01*
X182507000Y-147716857D01*
X182459380Y-147574000D01*
X182459380Y-147478761D01*
X182507000Y-147335904D01*
X182554619Y-147288285D01*
X183459380Y-146859714D02*
X182459380Y-146859714D01*
X183459380Y-146288285D02*
X182887952Y-146716857D01*
X182459380Y-146288285D02*
X183030809Y-146859714D01*
X180538428Y-148923214D02*
X180538428Y-148161309D01*
X180919380Y-148542261D02*
X180157476Y-148542261D01*
X179919380Y-147208928D02*
X179919380Y-147685119D01*
X180395571Y-147732738D01*
X180347952Y-147685119D01*
X180300333Y-147589880D01*
X180300333Y-147351785D01*
X180347952Y-147256547D01*
X180395571Y-147208928D01*
X180490809Y-147161309D01*
X180728904Y-147161309D01*
X180824142Y-147208928D01*
X180871761Y-147256547D01*
X180919380Y-147351785D01*
X180919380Y-147589880D01*
X180871761Y-147685119D01*
X180824142Y-147732738D01*
X179919380Y-146875595D02*
X180919380Y-146542261D01*
X179919380Y-146208928D01*
X178379380Y-149208928D02*
X177379380Y-149208928D01*
X178093666Y-148875595D01*
X177379380Y-148542261D01*
X178379380Y-148542261D01*
X178379380Y-148066071D02*
X177379380Y-148066071D01*
X178331761Y-147637500D02*
X178379380Y-147494642D01*
X178379380Y-147256547D01*
X178331761Y-147161309D01*
X178284142Y-147113690D01*
X178188904Y-147066071D01*
X178093666Y-147066071D01*
X177998428Y-147113690D01*
X177950809Y-147161309D01*
X177903190Y-147256547D01*
X177855571Y-147447023D01*
X177807952Y-147542261D01*
X177760333Y-147589880D01*
X177665095Y-147637500D01*
X177569857Y-147637500D01*
X177474619Y-147589880D01*
X177427000Y-147542261D01*
X177379380Y-147447023D01*
X177379380Y-147208928D01*
X177427000Y-147066071D01*
X177379380Y-146447023D02*
X177379380Y-146256547D01*
X177427000Y-146161309D01*
X177522238Y-146066071D01*
X177712714Y-146018452D01*
X178046047Y-146018452D01*
X178236523Y-146066071D01*
X178331761Y-146161309D01*
X178379380Y-146256547D01*
X178379380Y-146447023D01*
X178331761Y-146542261D01*
X178236523Y-146637500D01*
X178046047Y-146685119D01*
X177712714Y-146685119D01*
X177522238Y-146637500D01*
X177427000Y-146542261D01*
X177379380Y-146447023D01*
D11*
%TO.C,J2*%
X175331250Y-141173750D02*
X166381250Y-141173750D01*
X166261250Y-138093750D02*
X166261250Y-137193750D01*
X175451250Y-138093750D02*
X175451250Y-137193750D01*
D12*
%TO.C,G\u002A\u002A\u002A*%
G36*
X244339773Y-247730989D02*
G01*
X244415602Y-247833031D01*
X244473278Y-247977572D01*
X244507796Y-248143723D01*
X244514150Y-248310596D01*
X244487335Y-248457303D01*
X244451433Y-248529580D01*
X244362929Y-248594841D01*
X244236550Y-248624565D01*
X244108439Y-248616028D01*
X244014736Y-248566501D01*
X244011493Y-248562769D01*
X243983344Y-248485453D01*
X243966353Y-248353757D01*
X243961531Y-248197354D01*
X243969888Y-248045920D01*
X243990150Y-247936289D01*
X244064048Y-247792960D01*
X244172454Y-247708378D01*
X244250797Y-247692333D01*
X244339773Y-247730989D01*
G37*
X244339773Y-247730989D02*
X244415602Y-247833031D01*
X244473278Y-247977572D01*
X244507796Y-248143723D01*
X244514150Y-248310596D01*
X244487335Y-248457303D01*
X244451433Y-248529580D01*
X244362929Y-248594841D01*
X244236550Y-248624565D01*
X244108439Y-248616028D01*
X244014736Y-248566501D01*
X244011493Y-248562769D01*
X243983344Y-248485453D01*
X243966353Y-248353757D01*
X243961531Y-248197354D01*
X243969888Y-248045920D01*
X243990150Y-247936289D01*
X244064048Y-247792960D01*
X244172454Y-247708378D01*
X244250797Y-247692333D01*
X244339773Y-247730989D01*
G36*
X245269914Y-247758234D02*
G01*
X245316843Y-247799684D01*
X245345026Y-247856658D01*
X245359112Y-247949651D01*
X245363749Y-248099158D01*
X245364000Y-248173100D01*
X245357575Y-248368181D01*
X245339502Y-248506668D01*
X245313200Y-248572867D01*
X245222668Y-248614085D01*
X245097098Y-248620278D01*
X244977837Y-248592939D01*
X244924187Y-248558806D01*
X244851006Y-248432274D01*
X244820942Y-248261335D01*
X244833231Y-248073986D01*
X244887107Y-247898229D01*
X244944852Y-247802461D01*
X245048343Y-247711556D01*
X245159257Y-247702455D01*
X245269914Y-247758234D01*
G37*
X245269914Y-247758234D02*
X245316843Y-247799684D01*
X245345026Y-247856658D01*
X245359112Y-247949651D01*
X245363749Y-248099158D01*
X245364000Y-248173100D01*
X245357575Y-248368181D01*
X245339502Y-248506668D01*
X245313200Y-248572867D01*
X245222668Y-248614085D01*
X245097098Y-248620278D01*
X244977837Y-248592939D01*
X244924187Y-248558806D01*
X244851006Y-248432274D01*
X244820942Y-248261335D01*
X244833231Y-248073986D01*
X244887107Y-247898229D01*
X244944852Y-247802461D01*
X245048343Y-247711556D01*
X245159257Y-247702455D01*
X245269914Y-247758234D01*
G36*
X246126058Y-247736159D02*
G01*
X246163337Y-247830624D01*
X246168709Y-247848584D01*
X246191526Y-247976208D01*
X246203599Y-248148263D01*
X246202907Y-248306167D01*
X246189500Y-248602500D01*
X245993752Y-248615185D01*
X245862979Y-248615568D01*
X245793778Y-248591350D01*
X245771502Y-248558806D01*
X245752068Y-248451513D01*
X245747465Y-248293478D01*
X245756357Y-248117069D01*
X245777406Y-247954651D01*
X245800306Y-247861667D01*
X245849314Y-247757811D01*
X245920233Y-247711569D01*
X245985968Y-247700417D01*
X246075858Y-247699991D01*
X246126058Y-247736159D01*
G37*
X246126058Y-247736159D02*
X246163337Y-247830624D01*
X246168709Y-247848584D01*
X246191526Y-247976208D01*
X246203599Y-248148263D01*
X246202907Y-248306167D01*
X246189500Y-248602500D01*
X245993752Y-248615185D01*
X245862979Y-248615568D01*
X245793778Y-248591350D01*
X245771502Y-248558806D01*
X245752068Y-248451513D01*
X245747465Y-248293478D01*
X245756357Y-248117069D01*
X245777406Y-247954651D01*
X245800306Y-247861667D01*
X245849314Y-247757811D01*
X245920233Y-247711569D01*
X245985968Y-247700417D01*
X246075858Y-247699991D01*
X246126058Y-247736159D01*
G36*
X250041833Y-246430056D02*
G01*
X250338167Y-246443500D01*
X250338167Y-246570500D01*
X250333291Y-246644788D01*
X250304440Y-246684116D01*
X250230279Y-246701970D01*
X250117097Y-246710255D01*
X249896027Y-246723009D01*
X249884264Y-247302395D01*
X249878025Y-247539680D01*
X249869489Y-247704816D01*
X249857021Y-247810320D01*
X249838986Y-247868708D01*
X249813749Y-247892496D01*
X249806936Y-247894354D01*
X249731672Y-247889086D01*
X249711686Y-247877241D01*
X249700712Y-247826069D01*
X249691570Y-247706863D01*
X249685091Y-247536250D01*
X249682105Y-247330855D01*
X249682000Y-247283111D01*
X249682000Y-246718667D01*
X249541924Y-246718667D01*
X249406087Y-246698375D01*
X249307441Y-246646033D01*
X249265193Y-246574444D01*
X249270332Y-246537662D01*
X249330739Y-246489762D01*
X249462614Y-246454003D01*
X249653400Y-246432139D01*
X249890538Y-246425920D01*
X250041833Y-246430056D01*
G37*
X250041833Y-246430056D02*
X250338167Y-246443500D01*
X250338167Y-246570500D01*
X250333291Y-246644788D01*
X250304440Y-246684116D01*
X250230279Y-246701970D01*
X250117097Y-246710255D01*
X249896027Y-246723009D01*
X249884264Y-247302395D01*
X249878025Y-247539680D01*
X249869489Y-247704816D01*
X249857021Y-247810320D01*
X249838986Y-247868708D01*
X249813749Y-247892496D01*
X249806936Y-247894354D01*
X249731672Y-247889086D01*
X249711686Y-247877241D01*
X249700712Y-247826069D01*
X249691570Y-247706863D01*
X249685091Y-247536250D01*
X249682105Y-247330855D01*
X249682000Y-247283111D01*
X249682000Y-246718667D01*
X249541924Y-246718667D01*
X249406087Y-246698375D01*
X249307441Y-246646033D01*
X249265193Y-246574444D01*
X249270332Y-246537662D01*
X249330739Y-246489762D01*
X249462614Y-246454003D01*
X249653400Y-246432139D01*
X249890538Y-246425920D01*
X250041833Y-246430056D01*
G36*
X251231065Y-246431177D02*
G01*
X251456127Y-246445033D01*
X251606329Y-246464028D01*
X251691407Y-246489759D01*
X251716368Y-246510810D01*
X251726187Y-246586546D01*
X251656405Y-246646918D01*
X251511148Y-246689128D01*
X251437824Y-246699730D01*
X251250499Y-246722705D01*
X251132323Y-246744161D01*
X251068276Y-246771752D01*
X251043337Y-246813130D01*
X251042487Y-246875947D01*
X251044676Y-246900036D01*
X251055920Y-246973586D01*
X251085055Y-247018210D01*
X251151887Y-247046176D01*
X251276227Y-247069754D01*
X251333000Y-247078623D01*
X251483586Y-247105668D01*
X251567622Y-247133715D01*
X251602918Y-247170984D01*
X251608167Y-247205623D01*
X251593940Y-247259689D01*
X251537214Y-247288078D01*
X251417667Y-247301331D01*
X251235346Y-247315800D01*
X251121948Y-247338076D01*
X251061729Y-247375502D01*
X251038946Y-247435415D01*
X251036667Y-247478975D01*
X251045998Y-247566135D01*
X251084196Y-247623513D01*
X251166564Y-247659229D01*
X251308408Y-247681402D01*
X251438833Y-247692333D01*
X251595247Y-247706245D01*
X251684873Y-247724264D01*
X251725563Y-247752766D01*
X251735166Y-247798126D01*
X251735167Y-247798167D01*
X251729448Y-247835049D01*
X251702662Y-247859977D01*
X251640364Y-247875884D01*
X251528108Y-247885699D01*
X251351449Y-247892354D01*
X251258917Y-247894803D01*
X250782667Y-247906773D01*
X250782667Y-246411235D01*
X251231065Y-246431177D01*
G37*
X251231065Y-246431177D02*
X251456127Y-246445033D01*
X251606329Y-246464028D01*
X251691407Y-246489759D01*
X251716368Y-246510810D01*
X251726187Y-246586546D01*
X251656405Y-246646918D01*
X251511148Y-246689128D01*
X251437824Y-246699730D01*
X251250499Y-246722705D01*
X251132323Y-246744161D01*
X251068276Y-246771752D01*
X251043337Y-246813130D01*
X251042487Y-246875947D01*
X251044676Y-246900036D01*
X251055920Y-246973586D01*
X251085055Y-247018210D01*
X251151887Y-247046176D01*
X251276227Y-247069754D01*
X251333000Y-247078623D01*
X251483586Y-247105668D01*
X251567622Y-247133715D01*
X251602918Y-247170984D01*
X251608167Y-247205623D01*
X251593940Y-247259689D01*
X251537214Y-247288078D01*
X251417667Y-247301331D01*
X251235346Y-247315800D01*
X251121948Y-247338076D01*
X251061729Y-247375502D01*
X251038946Y-247435415D01*
X251036667Y-247478975D01*
X251045998Y-247566135D01*
X251084196Y-247623513D01*
X251166564Y-247659229D01*
X251308408Y-247681402D01*
X251438833Y-247692333D01*
X251595247Y-247706245D01*
X251684873Y-247724264D01*
X251725563Y-247752766D01*
X251735166Y-247798126D01*
X251735167Y-247798167D01*
X251729448Y-247835049D01*
X251702662Y-247859977D01*
X251640364Y-247875884D01*
X251528108Y-247885699D01*
X251351449Y-247892354D01*
X251258917Y-247894803D01*
X250782667Y-247906773D01*
X250782667Y-246411235D01*
X251231065Y-246431177D01*
G36*
X252906107Y-246455626D02*
G01*
X252935039Y-246462882D01*
X253100285Y-246538695D01*
X253207927Y-246667706D01*
X253263842Y-246837296D01*
X253276104Y-246929865D01*
X253247533Y-246966306D01*
X253157679Y-246972666D01*
X253157577Y-246972667D01*
X253050795Y-246954426D01*
X252992491Y-246887522D01*
X252984978Y-246869407D01*
X252904543Y-246750035D01*
X252790759Y-246688417D01*
X252667376Y-246688653D01*
X252558144Y-246754840D01*
X252529892Y-246790870D01*
X252483533Y-246908014D01*
X252457086Y-247069362D01*
X252450604Y-247247505D01*
X252464142Y-247415037D01*
X252497755Y-247544548D01*
X252528312Y-247593345D01*
X252612981Y-247641059D01*
X252727236Y-247664476D01*
X252839402Y-247662227D01*
X252917808Y-247632945D01*
X252933553Y-247610842D01*
X252990357Y-247518164D01*
X253078575Y-247440568D01*
X253166562Y-247403757D01*
X253187686Y-247404413D01*
X253257974Y-247449628D01*
X253267350Y-247536906D01*
X253217824Y-247651661D01*
X253139990Y-247750446D01*
X253045163Y-247841665D01*
X252960520Y-247887159D01*
X252848504Y-247902342D01*
X252767335Y-247903376D01*
X252616369Y-247893299D01*
X252485166Y-247868311D01*
X252435984Y-247850364D01*
X252309514Y-247742070D01*
X252213412Y-247568945D01*
X252156553Y-247348051D01*
X252150960Y-247302493D01*
X252152615Y-247028037D01*
X252213162Y-246797042D01*
X252325693Y-246616907D01*
X252483299Y-246495027D01*
X252679073Y-246438801D01*
X252906107Y-246455626D01*
G37*
X252906107Y-246455626D02*
X252935039Y-246462882D01*
X253100285Y-246538695D01*
X253207927Y-246667706D01*
X253263842Y-246837296D01*
X253276104Y-246929865D01*
X253247533Y-246966306D01*
X253157679Y-246972666D01*
X253157577Y-246972667D01*
X253050795Y-246954426D01*
X252992491Y-246887522D01*
X252984978Y-246869407D01*
X252904543Y-246750035D01*
X252790759Y-246688417D01*
X252667376Y-246688653D01*
X252558144Y-246754840D01*
X252529892Y-246790870D01*
X252483533Y-246908014D01*
X252457086Y-247069362D01*
X252450604Y-247247505D01*
X252464142Y-247415037D01*
X252497755Y-247544548D01*
X252528312Y-247593345D01*
X252612981Y-247641059D01*
X252727236Y-247664476D01*
X252839402Y-247662227D01*
X252917808Y-247632945D01*
X252933553Y-247610842D01*
X252990357Y-247518164D01*
X253078575Y-247440568D01*
X253166562Y-247403757D01*
X253187686Y-247404413D01*
X253257974Y-247449628D01*
X253267350Y-247536906D01*
X253217824Y-247651661D01*
X253139990Y-247750446D01*
X253045163Y-247841665D01*
X252960520Y-247887159D01*
X252848504Y-247902342D01*
X252767335Y-247903376D01*
X252616369Y-247893299D01*
X252485166Y-247868311D01*
X252435984Y-247850364D01*
X252309514Y-247742070D01*
X252213412Y-247568945D01*
X252156553Y-247348051D01*
X252150960Y-247302493D01*
X252152615Y-247028037D01*
X252213162Y-246797042D01*
X252325693Y-246616907D01*
X252483299Y-246495027D01*
X252679073Y-246438801D01*
X252906107Y-246455626D01*
G36*
X254821855Y-246442712D02*
G01*
X254850291Y-246469081D01*
X254863137Y-246530436D01*
X254873529Y-246657847D01*
X254881289Y-246832734D01*
X254886241Y-247036516D01*
X254888207Y-247250614D01*
X254887012Y-247456446D01*
X254882477Y-247635433D01*
X254874428Y-247768995D01*
X254863304Y-247837037D01*
X254804377Y-247893532D01*
X254757471Y-247904000D01*
X254715221Y-247894765D01*
X254691009Y-247855126D01*
X254679994Y-247767182D01*
X254677334Y-247613035D01*
X254677333Y-247607667D01*
X254677333Y-247311333D01*
X254042333Y-247311333D01*
X254042333Y-247540704D01*
X254037766Y-247682747D01*
X254026074Y-247796332D01*
X254016637Y-247837037D01*
X253959596Y-247886533D01*
X253867063Y-247904763D01*
X253784752Y-247884424D01*
X253774222Y-247875778D01*
X253762836Y-247823637D01*
X253754531Y-247705418D01*
X253749317Y-247539650D01*
X253747205Y-247344866D01*
X253748205Y-247139597D01*
X253752328Y-246942374D01*
X253759583Y-246771729D01*
X253769981Y-246646193D01*
X253773524Y-246621244D01*
X253799328Y-246515505D01*
X253839539Y-246474077D01*
X253889475Y-246473078D01*
X253939234Y-246491640D01*
X253972485Y-246542522D01*
X253997151Y-246644486D01*
X254015534Y-246771583D01*
X254052234Y-247057333D01*
X254677333Y-247057333D01*
X254677333Y-246759671D01*
X254681660Y-246593866D01*
X254697059Y-246495079D01*
X254727157Y-246445988D01*
X254745106Y-246436003D01*
X254821855Y-246442712D01*
G37*
X254821855Y-246442712D02*
X254850291Y-246469081D01*
X254863137Y-246530436D01*
X254873529Y-246657847D01*
X254881289Y-246832734D01*
X254886241Y-247036516D01*
X254888207Y-247250614D01*
X254887012Y-247456446D01*
X254882477Y-247635433D01*
X254874428Y-247768995D01*
X254863304Y-247837037D01*
X254804377Y-247893532D01*
X254757471Y-247904000D01*
X254715221Y-247894765D01*
X254691009Y-247855126D01*
X254679994Y-247767182D01*
X254677334Y-247613035D01*
X254677333Y-247607667D01*
X254677333Y-247311333D01*
X254042333Y-247311333D01*
X254042333Y-247540704D01*
X254037766Y-247682747D01*
X254026074Y-247796332D01*
X254016637Y-247837037D01*
X253959596Y-247886533D01*
X253867063Y-247904763D01*
X253784752Y-247884424D01*
X253774222Y-247875778D01*
X253762836Y-247823637D01*
X253754531Y-247705418D01*
X253749317Y-247539650D01*
X253747205Y-247344866D01*
X253748205Y-247139597D01*
X253752328Y-246942374D01*
X253759583Y-246771729D01*
X253769981Y-246646193D01*
X253773524Y-246621244D01*
X253799328Y-246515505D01*
X253839539Y-246474077D01*
X253889475Y-246473078D01*
X253939234Y-246491640D01*
X253972485Y-246542522D01*
X253997151Y-246644486D01*
X254015534Y-246771583D01*
X254052234Y-247057333D01*
X254677333Y-247057333D01*
X254677333Y-246759671D01*
X254681660Y-246593866D01*
X254697059Y-246495079D01*
X254727157Y-246445988D01*
X254745106Y-246436003D01*
X254821855Y-246442712D01*
G36*
X255619923Y-246456581D02*
G01*
X255717416Y-246554414D01*
X255847414Y-246727722D01*
X256014474Y-246975534D01*
X256037484Y-247010622D01*
X256325539Y-247450744D01*
X256337519Y-246947122D01*
X256343514Y-246733621D01*
X256351238Y-246590720D01*
X256363388Y-246504357D01*
X256382664Y-246460469D01*
X256411764Y-246444996D01*
X256434167Y-246443500D01*
X256466805Y-246447988D01*
X256490161Y-246469826D01*
X256506151Y-246521576D01*
X256516688Y-246615800D01*
X256523689Y-246765060D01*
X256529068Y-246981916D01*
X256530968Y-247078500D01*
X256533731Y-247309155D01*
X256533154Y-247515791D01*
X256529515Y-247680712D01*
X256523088Y-247786222D01*
X256519578Y-247808750D01*
X256480276Y-247887728D01*
X256416208Y-247898861D01*
X256324958Y-247840219D01*
X256204107Y-247709875D01*
X256051239Y-247505898D01*
X255945161Y-247350400D01*
X255747703Y-247053478D01*
X255720518Y-247251814D01*
X255703304Y-247413800D01*
X255693916Y-247572921D01*
X255693333Y-247610113D01*
X255686744Y-247733960D01*
X255670587Y-247828297D01*
X255667637Y-247837037D01*
X255612227Y-247896549D01*
X255540401Y-247889699D01*
X255490921Y-247829917D01*
X255480100Y-247762647D01*
X255470975Y-247627935D01*
X255464299Y-247443000D01*
X255460825Y-247225061D01*
X255460500Y-247133525D01*
X255463838Y-246839419D01*
X255476892Y-246625643D01*
X255504219Y-246491225D01*
X255550376Y-246435195D01*
X255619923Y-246456581D01*
G37*
X255619923Y-246456581D02*
X255717416Y-246554414D01*
X255847414Y-246727722D01*
X256014474Y-246975534D01*
X256037484Y-247010622D01*
X256325539Y-247450744D01*
X256337519Y-246947122D01*
X256343514Y-246733621D01*
X256351238Y-246590720D01*
X256363388Y-246504357D01*
X256382664Y-246460469D01*
X256411764Y-246444996D01*
X256434167Y-246443500D01*
X256466805Y-246447988D01*
X256490161Y-246469826D01*
X256506151Y-246521576D01*
X256516688Y-246615800D01*
X256523689Y-246765060D01*
X256529068Y-246981916D01*
X256530968Y-247078500D01*
X256533731Y-247309155D01*
X256533154Y-247515791D01*
X256529515Y-247680712D01*
X256523088Y-247786222D01*
X256519578Y-247808750D01*
X256480276Y-247887728D01*
X256416208Y-247898861D01*
X256324958Y-247840219D01*
X256204107Y-247709875D01*
X256051239Y-247505898D01*
X255945161Y-247350400D01*
X255747703Y-247053478D01*
X255720518Y-247251814D01*
X255703304Y-247413800D01*
X255693916Y-247572921D01*
X255693333Y-247610113D01*
X255686744Y-247733960D01*
X255670587Y-247828297D01*
X255667637Y-247837037D01*
X255612227Y-247896549D01*
X255540401Y-247889699D01*
X255490921Y-247829917D01*
X255480100Y-247762647D01*
X255470975Y-247627935D01*
X255464299Y-247443000D01*
X255460825Y-247225061D01*
X255460500Y-247133525D01*
X255463838Y-246839419D01*
X255476892Y-246625643D01*
X255504219Y-246491225D01*
X255550376Y-246435195D01*
X255619923Y-246456581D01*
G36*
X257752515Y-246442736D02*
G01*
X257886576Y-246511147D01*
X258042286Y-246638370D01*
X258074583Y-246668763D01*
X258233333Y-246820516D01*
X258233333Y-247187216D01*
X258230042Y-247376801D01*
X258217405Y-247504325D01*
X258191283Y-247592232D01*
X258147533Y-247662967D01*
X258144929Y-247666303D01*
X257982866Y-247811116D01*
X257788293Y-247889706D01*
X257581586Y-247898495D01*
X257383121Y-247833899D01*
X257340010Y-247807770D01*
X257200209Y-247671448D01*
X257111033Y-247494994D01*
X257069385Y-247293727D01*
X257071922Y-247101409D01*
X257356843Y-247101409D01*
X257364368Y-247285153D01*
X257392699Y-247403950D01*
X257473857Y-247561076D01*
X257587669Y-247651818D01*
X257719600Y-247671064D01*
X257855117Y-247613704D01*
X257894667Y-247580445D01*
X257939164Y-247490903D01*
X257960944Y-247347594D01*
X257960924Y-247178052D01*
X257940020Y-247009812D01*
X257899148Y-246870408D01*
X257869253Y-246817021D01*
X257759735Y-246714980D01*
X257648595Y-246686594D01*
X257544283Y-246721453D01*
X257455252Y-246809149D01*
X257389955Y-246939271D01*
X257356843Y-247101409D01*
X257071922Y-247101409D01*
X257072166Y-247082968D01*
X257116278Y-246878037D01*
X257198623Y-246694252D01*
X257316104Y-246546933D01*
X257465622Y-246451400D01*
X257620181Y-246422333D01*
X257752515Y-246442736D01*
G37*
X257752515Y-246442736D02*
X257886576Y-246511147D01*
X258042286Y-246638370D01*
X258074583Y-246668763D01*
X258233333Y-246820516D01*
X258233333Y-247187216D01*
X258230042Y-247376801D01*
X258217405Y-247504325D01*
X258191283Y-247592232D01*
X258147533Y-247662967D01*
X258144929Y-247666303D01*
X257982866Y-247811116D01*
X257788293Y-247889706D01*
X257581586Y-247898495D01*
X257383121Y-247833899D01*
X257340010Y-247807770D01*
X257200209Y-247671448D01*
X257111033Y-247494994D01*
X257069385Y-247293727D01*
X257071922Y-247101409D01*
X257356843Y-247101409D01*
X257364368Y-247285153D01*
X257392699Y-247403950D01*
X257473857Y-247561076D01*
X257587669Y-247651818D01*
X257719600Y-247671064D01*
X257855117Y-247613704D01*
X257894667Y-247580445D01*
X257939164Y-247490903D01*
X257960944Y-247347594D01*
X257960924Y-247178052D01*
X257940020Y-247009812D01*
X257899148Y-246870408D01*
X257869253Y-246817021D01*
X257759735Y-246714980D01*
X257648595Y-246686594D01*
X257544283Y-246721453D01*
X257455252Y-246809149D01*
X257389955Y-246939271D01*
X257356843Y-247101409D01*
X257071922Y-247101409D01*
X257072166Y-247082968D01*
X257116278Y-246878037D01*
X257198623Y-246694252D01*
X257316104Y-246546933D01*
X257465622Y-246451400D01*
X257620181Y-246422333D01*
X257752515Y-246442736D01*
G36*
X258923216Y-246484442D02*
G01*
X258962035Y-246551213D01*
X258984749Y-246676143D01*
X258994334Y-246870398D01*
X258995123Y-246951500D01*
X258999743Y-247143885D01*
X259010756Y-247340218D01*
X259022558Y-247468343D01*
X259049048Y-247688854D01*
X259350274Y-247701177D01*
X259507936Y-247710089D01*
X259598783Y-247724538D01*
X259640669Y-247750272D01*
X259651446Y-247793039D01*
X259651500Y-247798167D01*
X259645805Y-247834971D01*
X259619115Y-247859875D01*
X259557018Y-247875789D01*
X259445104Y-247885622D01*
X259268963Y-247892285D01*
X259172858Y-247894825D01*
X258694217Y-247906817D01*
X258719840Y-247323325D01*
X258733556Y-247031559D01*
X258746713Y-246813826D01*
X258761108Y-246659527D01*
X258778535Y-246558063D01*
X258800792Y-246498833D01*
X258829674Y-246471237D01*
X258865314Y-246464667D01*
X258923216Y-246484442D01*
G37*
X258923216Y-246484442D02*
X258962035Y-246551213D01*
X258984749Y-246676143D01*
X258994334Y-246870398D01*
X258995123Y-246951500D01*
X258999743Y-247143885D01*
X259010756Y-247340218D01*
X259022558Y-247468343D01*
X259049048Y-247688854D01*
X259350274Y-247701177D01*
X259507936Y-247710089D01*
X259598783Y-247724538D01*
X259640669Y-247750272D01*
X259651446Y-247793039D01*
X259651500Y-247798167D01*
X259645805Y-247834971D01*
X259619115Y-247859875D01*
X259557018Y-247875789D01*
X259445104Y-247885622D01*
X259268963Y-247892285D01*
X259172858Y-247894825D01*
X258694217Y-247906817D01*
X258719840Y-247323325D01*
X258733556Y-247031559D01*
X258746713Y-246813826D01*
X258761108Y-246659527D01*
X258778535Y-246558063D01*
X258800792Y-246498833D01*
X258829674Y-246471237D01*
X258865314Y-246464667D01*
X258923216Y-246484442D01*
G36*
X260729791Y-246468521D02*
G01*
X260909283Y-246590481D01*
X260956675Y-246633016D01*
X261133167Y-246798032D01*
X261127039Y-247156038D01*
X261117159Y-247343605D01*
X261096518Y-247508448D01*
X261068886Y-247622157D01*
X261063491Y-247634939D01*
X260959440Y-247761652D01*
X260794621Y-247853184D01*
X260588981Y-247899920D01*
X260505493Y-247903934D01*
X260361357Y-247893353D01*
X260260197Y-247851695D01*
X260182765Y-247785611D01*
X260091966Y-247650627D01*
X260020712Y-247459712D01*
X259977698Y-247240906D01*
X259970638Y-247123458D01*
X260235849Y-247123458D01*
X260239431Y-247302256D01*
X260287195Y-247460070D01*
X260334410Y-247529714D01*
X260470333Y-247638070D01*
X260602978Y-247663259D01*
X260724892Y-247606076D01*
X260823226Y-247477596D01*
X260884524Y-247305213D01*
X260895410Y-247129399D01*
X260863028Y-246964950D01*
X260794519Y-246826661D01*
X260697025Y-246729329D01*
X260577691Y-246687751D01*
X260453633Y-246711966D01*
X260346607Y-246803231D01*
X260272794Y-246948756D01*
X260235849Y-247123458D01*
X259970638Y-247123458D01*
X259969000Y-247096223D01*
X260008631Y-246883039D01*
X260118496Y-246685440D01*
X260220506Y-246579094D01*
X260395935Y-246463599D01*
X260562186Y-246426484D01*
X260729791Y-246468521D01*
G37*
X260729791Y-246468521D02*
X260909283Y-246590481D01*
X260956675Y-246633016D01*
X261133167Y-246798032D01*
X261127039Y-247156038D01*
X261117159Y-247343605D01*
X261096518Y-247508448D01*
X261068886Y-247622157D01*
X261063491Y-247634939D01*
X260959440Y-247761652D01*
X260794621Y-247853184D01*
X260588981Y-247899920D01*
X260505493Y-247903934D01*
X260361357Y-247893353D01*
X260260197Y-247851695D01*
X260182765Y-247785611D01*
X260091966Y-247650627D01*
X260020712Y-247459712D01*
X259977698Y-247240906D01*
X259970638Y-247123458D01*
X260235849Y-247123458D01*
X260239431Y-247302256D01*
X260287195Y-247460070D01*
X260334410Y-247529714D01*
X260470333Y-247638070D01*
X260602978Y-247663259D01*
X260724892Y-247606076D01*
X260823226Y-247477596D01*
X260884524Y-247305213D01*
X260895410Y-247129399D01*
X260863028Y-246964950D01*
X260794519Y-246826661D01*
X260697025Y-246729329D01*
X260577691Y-246687751D01*
X260453633Y-246711966D01*
X260346607Y-246803231D01*
X260272794Y-246948756D01*
X260235849Y-247123458D01*
X259970638Y-247123458D01*
X259969000Y-247096223D01*
X260008631Y-246883039D01*
X260118496Y-246685440D01*
X260220506Y-246579094D01*
X260395935Y-246463599D01*
X260562186Y-246426484D01*
X260729791Y-246468521D01*
G36*
X262369723Y-246435993D02*
G01*
X262444286Y-246480479D01*
X262541285Y-246570581D01*
X262572792Y-246601985D01*
X262689763Y-246743790D01*
X262735099Y-246851890D01*
X262717974Y-246917851D01*
X262647562Y-246933237D01*
X262533035Y-246889614D01*
X262383569Y-246778546D01*
X262382159Y-246777274D01*
X262282416Y-246690402D01*
X262219091Y-246653428D01*
X262166388Y-246658825D01*
X262103334Y-246695900D01*
X261993575Y-246808710D01*
X261919966Y-246965479D01*
X261883922Y-247144069D01*
X261886859Y-247322344D01*
X261930191Y-247478167D01*
X262015332Y-247589401D01*
X262045003Y-247608560D01*
X262174795Y-247648543D01*
X262311535Y-247647030D01*
X262423391Y-247607609D01*
X262469099Y-247560788D01*
X262492510Y-247470783D01*
X262442812Y-247414543D01*
X262343990Y-247389001D01*
X262245035Y-247348112D01*
X262195823Y-247299545D01*
X262177239Y-247226307D01*
X262230385Y-247176988D01*
X262359090Y-247149765D01*
X262525662Y-247142648D01*
X262775158Y-247142000D01*
X262746657Y-247448660D01*
X262722547Y-247622621D01*
X262688784Y-247754603D01*
X262655775Y-247817700D01*
X262570414Y-247858247D01*
X262416429Y-247885850D01*
X262307781Y-247894294D01*
X262131052Y-247896645D01*
X262008095Y-247879226D01*
X261909344Y-247837201D01*
X261890987Y-247826104D01*
X261767214Y-247702293D01*
X261678675Y-247521051D01*
X261629022Y-247303501D01*
X261621906Y-247070768D01*
X261660978Y-246843975D01*
X261701997Y-246732665D01*
X261779986Y-246596820D01*
X261878968Y-246510612D01*
X262021917Y-246459496D01*
X262171253Y-246435500D01*
X262288433Y-246425030D01*
X262369723Y-246435993D01*
G37*
X262369723Y-246435993D02*
X262444286Y-246480479D01*
X262541285Y-246570581D01*
X262572792Y-246601985D01*
X262689763Y-246743790D01*
X262735099Y-246851890D01*
X262717974Y-246917851D01*
X262647562Y-246933237D01*
X262533035Y-246889614D01*
X262383569Y-246778546D01*
X262382159Y-246777274D01*
X262282416Y-246690402D01*
X262219091Y-246653428D01*
X262166388Y-246658825D01*
X262103334Y-246695900D01*
X261993575Y-246808710D01*
X261919966Y-246965479D01*
X261883922Y-247144069D01*
X261886859Y-247322344D01*
X261930191Y-247478167D01*
X262015332Y-247589401D01*
X262045003Y-247608560D01*
X262174795Y-247648543D01*
X262311535Y-247647030D01*
X262423391Y-247607609D01*
X262469099Y-247560788D01*
X262492510Y-247470783D01*
X262442812Y-247414543D01*
X262343990Y-247389001D01*
X262245035Y-247348112D01*
X262195823Y-247299545D01*
X262177239Y-247226307D01*
X262230385Y-247176988D01*
X262359090Y-247149765D01*
X262525662Y-247142648D01*
X262775158Y-247142000D01*
X262746657Y-247448660D01*
X262722547Y-247622621D01*
X262688784Y-247754603D01*
X262655775Y-247817700D01*
X262570414Y-247858247D01*
X262416429Y-247885850D01*
X262307781Y-247894294D01*
X262131052Y-247896645D01*
X262008095Y-247879226D01*
X261909344Y-247837201D01*
X261890987Y-247826104D01*
X261767214Y-247702293D01*
X261678675Y-247521051D01*
X261629022Y-247303501D01*
X261621906Y-247070768D01*
X261660978Y-246843975D01*
X261701997Y-246732665D01*
X261779986Y-246596820D01*
X261878968Y-246510612D01*
X262021917Y-246459496D01*
X262171253Y-246435500D01*
X262288433Y-246425030D01*
X262369723Y-246435993D01*
G36*
X263458255Y-246436397D02*
G01*
X263483647Y-246455026D01*
X263501494Y-246496318D01*
X263512730Y-246572315D01*
X263518293Y-246695058D01*
X263519117Y-246876589D01*
X263516139Y-247128949D01*
X263515444Y-247172275D01*
X263510065Y-247437648D01*
X263503120Y-247629792D01*
X263493389Y-247760144D01*
X263479648Y-247840141D01*
X263460675Y-247881220D01*
X263438269Y-247894340D01*
X263363008Y-247889085D01*
X263343019Y-247877241D01*
X263330934Y-247824092D01*
X263322227Y-247704117D01*
X263316786Y-247535082D01*
X263314496Y-247334755D01*
X263315243Y-247120905D01*
X263318914Y-246911298D01*
X263325394Y-246723702D01*
X263334570Y-246575884D01*
X263346328Y-246485614D01*
X263352042Y-246469081D01*
X263417978Y-246431038D01*
X263458255Y-246436397D01*
G37*
X263458255Y-246436397D02*
X263483647Y-246455026D01*
X263501494Y-246496318D01*
X263512730Y-246572315D01*
X263518293Y-246695058D01*
X263519117Y-246876589D01*
X263516139Y-247128949D01*
X263515444Y-247172275D01*
X263510065Y-247437648D01*
X263503120Y-247629792D01*
X263493389Y-247760144D01*
X263479648Y-247840141D01*
X263460675Y-247881220D01*
X263438269Y-247894340D01*
X263363008Y-247889085D01*
X263343019Y-247877241D01*
X263330934Y-247824092D01*
X263322227Y-247704117D01*
X263316786Y-247535082D01*
X263314496Y-247334755D01*
X263315243Y-247120905D01*
X263318914Y-246911298D01*
X263325394Y-246723702D01*
X263334570Y-246575884D01*
X263346328Y-246485614D01*
X263352042Y-246469081D01*
X263417978Y-246431038D01*
X263458255Y-246436397D01*
G36*
X264445750Y-246427342D02*
G01*
X264689142Y-246435478D01*
X264858542Y-246452927D01*
X264964357Y-246482248D01*
X265016994Y-246526000D01*
X265027833Y-246570500D01*
X264997031Y-246636685D01*
X264900178Y-246681406D01*
X264730601Y-246706892D01*
X264599100Y-246713658D01*
X264440354Y-246741877D01*
X264352842Y-246815596D01*
X264336195Y-246935130D01*
X264336667Y-246938586D01*
X264353468Y-246991978D01*
X264398066Y-247026918D01*
X264489612Y-247052058D01*
X264638286Y-247074848D01*
X264790536Y-247097990D01*
X264875711Y-247121228D01*
X264911036Y-247152511D01*
X264913739Y-247199792D01*
X264913452Y-247201848D01*
X264893767Y-247254271D01*
X264839724Y-247283821D01*
X264730213Y-247299267D01*
X264669283Y-247303285D01*
X264493393Y-247323598D01*
X264387459Y-247365603D01*
X264337850Y-247437511D01*
X264329333Y-247508064D01*
X264359280Y-247596259D01*
X264453327Y-247654588D01*
X264617781Y-247685555D01*
X264793227Y-247692333D01*
X264956386Y-247701140D01*
X265044111Y-247728643D01*
X265062329Y-247750675D01*
X265068144Y-247814342D01*
X265022878Y-247858853D01*
X264917791Y-247886844D01*
X264744148Y-247900946D01*
X264553700Y-247904000D01*
X264117667Y-247904000D01*
X264117667Y-246422333D01*
X264445750Y-246427342D01*
G37*
X264445750Y-246427342D02*
X264689142Y-246435478D01*
X264858542Y-246452927D01*
X264964357Y-246482248D01*
X265016994Y-246526000D01*
X265027833Y-246570500D01*
X264997031Y-246636685D01*
X264900178Y-246681406D01*
X264730601Y-246706892D01*
X264599100Y-246713658D01*
X264440354Y-246741877D01*
X264352842Y-246815596D01*
X264336195Y-246935130D01*
X264336667Y-246938586D01*
X264353468Y-246991978D01*
X264398066Y-247026918D01*
X264489612Y-247052058D01*
X264638286Y-247074848D01*
X264790536Y-247097990D01*
X264875711Y-247121228D01*
X264911036Y-247152511D01*
X264913739Y-247199792D01*
X264913452Y-247201848D01*
X264893767Y-247254271D01*
X264839724Y-247283821D01*
X264730213Y-247299267D01*
X264669283Y-247303285D01*
X264493393Y-247323598D01*
X264387459Y-247365603D01*
X264337850Y-247437511D01*
X264329333Y-247508064D01*
X264359280Y-247596259D01*
X264453327Y-247654588D01*
X264617781Y-247685555D01*
X264793227Y-247692333D01*
X264956386Y-247701140D01*
X265044111Y-247728643D01*
X265062329Y-247750675D01*
X265068144Y-247814342D01*
X265022878Y-247858853D01*
X264917791Y-247886844D01*
X264744148Y-247900946D01*
X264553700Y-247904000D01*
X264117667Y-247904000D01*
X264117667Y-246422333D01*
X264445750Y-246427342D01*
G36*
X266104459Y-246450621D02*
G01*
X266253791Y-246524524D01*
X266372777Y-246627600D01*
X266439158Y-246743407D01*
X266446000Y-246790874D01*
X266420285Y-246886930D01*
X266355084Y-246917599D01*
X266268316Y-246879728D01*
X266219629Y-246830689D01*
X266101658Y-246734383D01*
X265963487Y-246691083D01*
X265834219Y-246707694D01*
X265795057Y-246729973D01*
X265743311Y-246801796D01*
X265770213Y-246884005D01*
X265877159Y-246978223D01*
X266065548Y-247086071D01*
X266128126Y-247116584D01*
X266446000Y-247267466D01*
X266446000Y-247481824D01*
X266423437Y-247673634D01*
X266350530Y-247802999D01*
X266219453Y-247877209D01*
X266022379Y-247903551D01*
X265992841Y-247903842D01*
X265774388Y-247883765D01*
X265611951Y-247821035D01*
X265611053Y-247820488D01*
X265496452Y-247715100D01*
X265437362Y-247585303D01*
X265445272Y-247459594D01*
X265483201Y-247406393D01*
X265543787Y-247409898D01*
X265639849Y-247473411D01*
X265701742Y-247525672D01*
X265816789Y-247610950D01*
X265922384Y-247642994D01*
X266010131Y-247642088D01*
X266122285Y-247621833D01*
X266173482Y-247576820D01*
X266183561Y-247539687D01*
X266176878Y-247488503D01*
X266132260Y-247437338D01*
X266036317Y-247375454D01*
X265875657Y-247292113D01*
X265873459Y-247291027D01*
X265697203Y-247197457D01*
X265582284Y-247117733D01*
X265510215Y-247037473D01*
X265481113Y-246985737D01*
X265438673Y-246880930D01*
X265438519Y-246806191D01*
X265474804Y-246727349D01*
X265578886Y-246600729D01*
X265723355Y-246495206D01*
X265875748Y-246431747D01*
X265947043Y-246422333D01*
X266104459Y-246450621D01*
G37*
X266104459Y-246450621D02*
X266253791Y-246524524D01*
X266372777Y-246627600D01*
X266439158Y-246743407D01*
X266446000Y-246790874D01*
X266420285Y-246886930D01*
X266355084Y-246917599D01*
X266268316Y-246879728D01*
X266219629Y-246830689D01*
X266101658Y-246734383D01*
X265963487Y-246691083D01*
X265834219Y-246707694D01*
X265795057Y-246729973D01*
X265743311Y-246801796D01*
X265770213Y-246884005D01*
X265877159Y-246978223D01*
X266065548Y-247086071D01*
X266128126Y-247116584D01*
X266446000Y-247267466D01*
X266446000Y-247481824D01*
X266423437Y-247673634D01*
X266350530Y-247802999D01*
X266219453Y-247877209D01*
X266022379Y-247903551D01*
X265992841Y-247903842D01*
X265774388Y-247883765D01*
X265611951Y-247821035D01*
X265611053Y-247820488D01*
X265496452Y-247715100D01*
X265437362Y-247585303D01*
X265445272Y-247459594D01*
X265483201Y-247406393D01*
X265543787Y-247409898D01*
X265639849Y-247473411D01*
X265701742Y-247525672D01*
X265816789Y-247610950D01*
X265922384Y-247642994D01*
X266010131Y-247642088D01*
X266122285Y-247621833D01*
X266173482Y-247576820D01*
X266183561Y-247539687D01*
X266176878Y-247488503D01*
X266132260Y-247437338D01*
X266036317Y-247375454D01*
X265875657Y-247292113D01*
X265873459Y-247291027D01*
X265697203Y-247197457D01*
X265582284Y-247117733D01*
X265510215Y-247037473D01*
X265481113Y-246985737D01*
X265438673Y-246880930D01*
X265438519Y-246806191D01*
X265474804Y-246727349D01*
X265578886Y-246600729D01*
X265723355Y-246495206D01*
X265875748Y-246431747D01*
X265947043Y-246422333D01*
X266104459Y-246450621D01*
G36*
X245259644Y-242570804D02*
G01*
X245644380Y-242571789D01*
X246013702Y-242573708D01*
X246356491Y-242576560D01*
X246661626Y-242580342D01*
X246917990Y-242585053D01*
X247114461Y-242590691D01*
X247239921Y-242597254D01*
X247242782Y-242597491D01*
X247568004Y-242624983D01*
X247556085Y-245008402D01*
X247553042Y-245540868D01*
X247549548Y-245994276D01*
X247545452Y-246374233D01*
X247540599Y-246686347D01*
X247534838Y-246936225D01*
X247528015Y-247129475D01*
X247519977Y-247271704D01*
X247510572Y-247368521D01*
X247499646Y-247425533D01*
X247489584Y-247446376D01*
X247457740Y-247460478D01*
X247388591Y-247472254D01*
X247275676Y-247481915D01*
X247112535Y-247489675D01*
X246892706Y-247495749D01*
X246609728Y-247500349D01*
X246257141Y-247503690D01*
X245828484Y-247505984D01*
X245669251Y-247506548D01*
X245263130Y-247507137D01*
X244860200Y-247506414D01*
X244473553Y-247504494D01*
X244116282Y-247501494D01*
X243801478Y-247497527D01*
X243542232Y-247492711D01*
X243351638Y-247487160D01*
X243319798Y-247485833D01*
X243064655Y-247471834D01*
X242884430Y-247455636D01*
X242769380Y-247435895D01*
X242709762Y-247411268D01*
X242699612Y-247400348D01*
X242679253Y-247324283D01*
X242661494Y-247171213D01*
X242646519Y-246948766D01*
X242634509Y-246664570D01*
X242625647Y-246326252D01*
X242620115Y-245941440D01*
X242618095Y-245517761D01*
X242619769Y-245062844D01*
X242625319Y-244584315D01*
X242628233Y-244411500D01*
X242635338Y-244054910D01*
X242643145Y-243720592D01*
X242651321Y-243419114D01*
X242659533Y-243161040D01*
X242662752Y-243078000D01*
X243205000Y-243078000D01*
X243205000Y-247015000D01*
X247057333Y-247015000D01*
X247057333Y-243078000D01*
X243205000Y-243078000D01*
X242662752Y-243078000D01*
X242667447Y-242956936D01*
X242674730Y-242817369D01*
X242680495Y-242755531D01*
X242699196Y-242682075D01*
X242735291Y-242639581D01*
X242810514Y-242615758D01*
X242946598Y-242598314D01*
X242961191Y-242596781D01*
X243068937Y-242590225D01*
X243250226Y-242584618D01*
X243493936Y-242579959D01*
X243788950Y-242576244D01*
X244124147Y-242573474D01*
X244488408Y-242571645D01*
X244870614Y-242570755D01*
X245259644Y-242570804D01*
G37*
X245259644Y-242570804D02*
X245644380Y-242571789D01*
X246013702Y-242573708D01*
X246356491Y-242576560D01*
X246661626Y-242580342D01*
X246917990Y-242585053D01*
X247114461Y-242590691D01*
X247239921Y-242597254D01*
X247242782Y-242597491D01*
X247568004Y-242624983D01*
X247556085Y-245008402D01*
X247553042Y-245540868D01*
X247549548Y-245994276D01*
X247545452Y-246374233D01*
X247540599Y-246686347D01*
X247534838Y-246936225D01*
X247528015Y-247129475D01*
X247519977Y-247271704D01*
X247510572Y-247368521D01*
X247499646Y-247425533D01*
X247489584Y-247446376D01*
X247457740Y-247460478D01*
X247388591Y-247472254D01*
X247275676Y-247481915D01*
X247112535Y-247489675D01*
X246892706Y-247495749D01*
X246609728Y-247500349D01*
X246257141Y-247503690D01*
X245828484Y-247505984D01*
X245669251Y-247506548D01*
X245263130Y-247507137D01*
X244860200Y-247506414D01*
X244473553Y-247504494D01*
X244116282Y-247501494D01*
X243801478Y-247497527D01*
X243542232Y-247492711D01*
X243351638Y-247487160D01*
X243319798Y-247485833D01*
X243064655Y-247471834D01*
X242884430Y-247455636D01*
X242769380Y-247435895D01*
X242709762Y-247411268D01*
X242699612Y-247400348D01*
X242679253Y-247324283D01*
X242661494Y-247171213D01*
X242646519Y-246948766D01*
X242634509Y-246664570D01*
X242625647Y-246326252D01*
X242620115Y-245941440D01*
X242618095Y-245517761D01*
X242619769Y-245062844D01*
X242625319Y-244584315D01*
X242628233Y-244411500D01*
X242635338Y-244054910D01*
X242643145Y-243720592D01*
X242651321Y-243419114D01*
X242659533Y-243161040D01*
X242662752Y-243078000D01*
X243205000Y-243078000D01*
X243205000Y-247015000D01*
X247057333Y-247015000D01*
X247057333Y-243078000D01*
X243205000Y-243078000D01*
X242662752Y-243078000D01*
X242667447Y-242956936D01*
X242674730Y-242817369D01*
X242680495Y-242755531D01*
X242699196Y-242682075D01*
X242735291Y-242639581D01*
X242810514Y-242615758D01*
X242946598Y-242598314D01*
X242961191Y-242596781D01*
X243068937Y-242590225D01*
X243250226Y-242584618D01*
X243493936Y-242579959D01*
X243788950Y-242576244D01*
X244124147Y-242573474D01*
X244488408Y-242571645D01*
X244870614Y-242570755D01*
X245259644Y-242570804D01*
G36*
X242061347Y-245637564D02*
G01*
X242237104Y-245691440D01*
X242332872Y-245749185D01*
X242427397Y-245859033D01*
X242441269Y-245967326D01*
X242375784Y-246061434D01*
X242296193Y-246106993D01*
X242181272Y-246136569D01*
X242020030Y-246156427D01*
X241843930Y-246165134D01*
X241684438Y-246161258D01*
X241573019Y-246143368D01*
X241564583Y-246140297D01*
X241526917Y-246085155D01*
X241513078Y-245981882D01*
X241522114Y-245863309D01*
X241553072Y-245762263D01*
X241576527Y-245728520D01*
X241703059Y-245655339D01*
X241873998Y-245625275D01*
X242061347Y-245637564D01*
G37*
X242061347Y-245637564D02*
X242237104Y-245691440D01*
X242332872Y-245749185D01*
X242427397Y-245859033D01*
X242441269Y-245967326D01*
X242375784Y-246061434D01*
X242296193Y-246106993D01*
X242181272Y-246136569D01*
X242020030Y-246156427D01*
X241843930Y-246165134D01*
X241684438Y-246161258D01*
X241573019Y-246143368D01*
X241564583Y-246140297D01*
X241526917Y-246085155D01*
X241513078Y-245981882D01*
X241522114Y-245863309D01*
X241553072Y-245762263D01*
X241576527Y-245728520D01*
X241703059Y-245655339D01*
X241873998Y-245625275D01*
X242061347Y-245637564D01*
G36*
X248411062Y-245649647D02*
G01*
X248584250Y-245717584D01*
X248715079Y-245825485D01*
X248732872Y-245850039D01*
X248779643Y-245932035D01*
X248774146Y-245986605D01*
X248716918Y-246051563D01*
X248654242Y-246098828D01*
X248566777Y-246129313D01*
X248433236Y-246148186D01*
X248276336Y-246158527D01*
X248075083Y-246163286D01*
X247945826Y-246152762D01*
X247877096Y-246125902D01*
X247872250Y-246121406D01*
X247826125Y-246021159D01*
X247825195Y-245890870D01*
X247866460Y-245770107D01*
X247902282Y-245725388D01*
X248043584Y-245649573D01*
X248222008Y-245625652D01*
X248411062Y-245649647D01*
G37*
X248411062Y-245649647D02*
X248584250Y-245717584D01*
X248715079Y-245825485D01*
X248732872Y-245850039D01*
X248779643Y-245932035D01*
X248774146Y-245986605D01*
X248716918Y-246051563D01*
X248654242Y-246098828D01*
X248566777Y-246129313D01*
X248433236Y-246148186D01*
X248276336Y-246158527D01*
X248075083Y-246163286D01*
X247945826Y-246152762D01*
X247877096Y-246125902D01*
X247872250Y-246121406D01*
X247826125Y-246021159D01*
X247825195Y-245890870D01*
X247866460Y-245770107D01*
X247902282Y-245725388D01*
X248043584Y-245649573D01*
X248222008Y-245625652D01*
X248411062Y-245649647D01*
G36*
X242214969Y-244779009D02*
G01*
X242287640Y-244800546D01*
X242343352Y-244841303D01*
X242354045Y-244851712D01*
X242431114Y-244974488D01*
X242431761Y-245098663D01*
X242357071Y-245204928D01*
X242333267Y-245222281D01*
X242189659Y-245279841D01*
X242003474Y-245307101D01*
X241811969Y-245301955D01*
X241652400Y-245262302D01*
X241649250Y-245260899D01*
X241553386Y-245203284D01*
X241516343Y-245127185D01*
X241512315Y-245059127D01*
X241521158Y-244937847D01*
X241556494Y-244859189D01*
X241633565Y-244812868D01*
X241767613Y-244788599D01*
X241928924Y-244778024D01*
X242102883Y-244772799D01*
X242214969Y-244779009D01*
G37*
X242214969Y-244779009D02*
X242287640Y-244800546D01*
X242343352Y-244841303D01*
X242354045Y-244851712D01*
X242431114Y-244974488D01*
X242431761Y-245098663D01*
X242357071Y-245204928D01*
X242333267Y-245222281D01*
X242189659Y-245279841D01*
X242003474Y-245307101D01*
X241811969Y-245301955D01*
X241652400Y-245262302D01*
X241649250Y-245260899D01*
X241553386Y-245203284D01*
X241516343Y-245127185D01*
X241512315Y-245059127D01*
X241521158Y-244937847D01*
X241556494Y-244859189D01*
X241633565Y-244812868D01*
X241767613Y-244788599D01*
X241928924Y-244778024D01*
X242102883Y-244772799D01*
X242214969Y-244779009D01*
G36*
X248326934Y-244777730D02*
G01*
X248521005Y-244791906D01*
X248645415Y-244819102D01*
X248715069Y-244868183D01*
X248744871Y-244948013D01*
X248750018Y-245029355D01*
X248714192Y-245161300D01*
X248604815Y-245251669D01*
X248421749Y-245300559D01*
X248336330Y-245308100D01*
X248182326Y-245307619D01*
X248047934Y-245292614D01*
X247989862Y-245276828D01*
X247875421Y-245205156D01*
X247826125Y-245100333D01*
X247819981Y-245021311D01*
X247840045Y-244904947D01*
X247908339Y-244828205D01*
X248034585Y-244786417D01*
X248228500Y-244774911D01*
X248326934Y-244777730D01*
G37*
X248326934Y-244777730D02*
X248521005Y-244791906D01*
X248645415Y-244819102D01*
X248715069Y-244868183D01*
X248744871Y-244948013D01*
X248750018Y-245029355D01*
X248714192Y-245161300D01*
X248604815Y-245251669D01*
X248421749Y-245300559D01*
X248336330Y-245308100D01*
X248182326Y-245307619D01*
X248047934Y-245292614D01*
X247989862Y-245276828D01*
X247875421Y-245205156D01*
X247826125Y-245100333D01*
X247819981Y-245021311D01*
X247840045Y-244904947D01*
X247908339Y-244828205D01*
X248034585Y-244786417D01*
X248228500Y-244774911D01*
X248326934Y-244777730D01*
G36*
X252052667Y-242146667D02*
G01*
X252052667Y-244813667D01*
X251557345Y-244813667D01*
X251529839Y-244426163D01*
X251516352Y-244192445D01*
X251506168Y-243933624D01*
X251501251Y-243701002D01*
X251501098Y-243674746D01*
X251499864Y-243310833D01*
X251247120Y-243924667D01*
X251154276Y-244144854D01*
X251066097Y-244344402D01*
X250990205Y-244506745D01*
X250934220Y-244615319D01*
X250916025Y-244644333D01*
X250809986Y-244737136D01*
X250690920Y-244764955D01*
X250586382Y-244724199D01*
X250517726Y-244637361D01*
X250425879Y-244472862D01*
X250312453Y-244233993D01*
X250179060Y-243924048D01*
X250101652Y-243734167D01*
X249914833Y-243268500D01*
X249903295Y-244041083D01*
X249891757Y-244813667D01*
X249385667Y-244813667D01*
X249385667Y-242146667D01*
X250003291Y-242146667D01*
X250358519Y-243062308D01*
X250713747Y-243977950D01*
X251431437Y-242146666D01*
X251742052Y-242146666D01*
X252052667Y-242146667D01*
G37*
X252052667Y-242146667D02*
X252052667Y-244813667D01*
X251557345Y-244813667D01*
X251529839Y-244426163D01*
X251516352Y-244192445D01*
X251506168Y-243933624D01*
X251501251Y-243701002D01*
X251501098Y-243674746D01*
X251499864Y-243310833D01*
X251247120Y-243924667D01*
X251154276Y-244144854D01*
X251066097Y-244344402D01*
X250990205Y-244506745D01*
X250934220Y-244615319D01*
X250916025Y-244644333D01*
X250809986Y-244737136D01*
X250690920Y-244764955D01*
X250586382Y-244724199D01*
X250517726Y-244637361D01*
X250425879Y-244472862D01*
X250312453Y-244233993D01*
X250179060Y-243924048D01*
X250101652Y-243734167D01*
X249914833Y-243268500D01*
X249903295Y-244041083D01*
X249891757Y-244813667D01*
X249385667Y-244813667D01*
X249385667Y-242146667D01*
X250003291Y-242146667D01*
X250358519Y-243062308D01*
X250713747Y-243977950D01*
X251431437Y-242146666D01*
X251742052Y-242146666D01*
X252052667Y-242146667D01*
G36*
X254635000Y-242612333D02*
G01*
X253449667Y-242612333D01*
X253449667Y-243205000D01*
X254518821Y-243205000D01*
X254490254Y-243383648D01*
X254461942Y-243501160D01*
X254425486Y-243580075D01*
X254413179Y-243592276D01*
X254352997Y-243607161D01*
X254227984Y-243624074D01*
X254057863Y-243640689D01*
X253907169Y-243651907D01*
X253449667Y-243681559D01*
X253449667Y-244305667D01*
X254635000Y-244305667D01*
X254635000Y-244813667D01*
X252941667Y-244813667D01*
X252941667Y-242146667D01*
X254635000Y-242146667D01*
X254635000Y-242612333D01*
G37*
X254635000Y-242612333D02*
X253449667Y-242612333D01*
X253449667Y-243205000D01*
X254518821Y-243205000D01*
X254490254Y-243383648D01*
X254461942Y-243501160D01*
X254425486Y-243580075D01*
X254413179Y-243592276D01*
X254352997Y-243607161D01*
X254227984Y-243624074D01*
X254057863Y-243640689D01*
X253907169Y-243651907D01*
X253449667Y-243681559D01*
X253449667Y-244305667D01*
X254635000Y-244305667D01*
X254635000Y-244813667D01*
X252941667Y-244813667D01*
X252941667Y-242146667D01*
X254635000Y-242146667D01*
X254635000Y-242612333D01*
G36*
X259260583Y-242152012D02*
G01*
X259484983Y-242262775D01*
X259694859Y-242451545D01*
X259709651Y-242468137D01*
X259852566Y-242664073D01*
X259932395Y-242850517D01*
X259943596Y-243013715D01*
X259938672Y-243036665D01*
X259913913Y-243088678D01*
X259859964Y-243112094D01*
X259753337Y-243114384D01*
X259702526Y-243111773D01*
X259574100Y-243099776D01*
X259503264Y-243072783D01*
X259462949Y-243014797D01*
X259441914Y-242957778D01*
X259351466Y-242773207D01*
X259223483Y-242661265D01*
X259048392Y-242614666D01*
X258988107Y-242612333D01*
X258802197Y-242626235D01*
X258674392Y-242677351D01*
X258581339Y-242779802D01*
X258522500Y-242893841D01*
X258474358Y-243051724D01*
X258443852Y-243252343D01*
X258431058Y-243472290D01*
X258436053Y-243688159D01*
X258458910Y-243876541D01*
X258499705Y-244014029D01*
X258518783Y-244046538D01*
X258626693Y-244161932D01*
X258759424Y-244262881D01*
X258888890Y-244330507D01*
X258967224Y-244348000D01*
X259092011Y-244313477D01*
X259227410Y-244223901D01*
X259346799Y-244100256D01*
X259408874Y-243999842D01*
X259456154Y-243908589D01*
X259506768Y-243861621D01*
X259588944Y-243844054D01*
X259709922Y-243841092D01*
X259937678Y-243840000D01*
X259916595Y-244027042D01*
X259850183Y-244264387D01*
X259715935Y-244466033D01*
X259525900Y-244624323D01*
X259292130Y-244731602D01*
X259026674Y-244780213D01*
X258755151Y-244764915D01*
X258489737Y-244685841D01*
X258278104Y-244547721D01*
X258118701Y-244348080D01*
X258009979Y-244084444D01*
X257950386Y-243754340D01*
X257937000Y-243459000D01*
X257948162Y-243147203D01*
X257985439Y-242899618D01*
X258054518Y-242698291D01*
X258161087Y-242525267D01*
X258272519Y-242399782D01*
X258406186Y-242278013D01*
X258525886Y-242204306D01*
X258667471Y-242158262D01*
X258715746Y-242147584D01*
X259008543Y-242115025D01*
X259260583Y-242152012D01*
G37*
X259260583Y-242152012D02*
X259484983Y-242262775D01*
X259694859Y-242451545D01*
X259709651Y-242468137D01*
X259852566Y-242664073D01*
X259932395Y-242850517D01*
X259943596Y-243013715D01*
X259938672Y-243036665D01*
X259913913Y-243088678D01*
X259859964Y-243112094D01*
X259753337Y-243114384D01*
X259702526Y-243111773D01*
X259574100Y-243099776D01*
X259503264Y-243072783D01*
X259462949Y-243014797D01*
X259441914Y-242957778D01*
X259351466Y-242773207D01*
X259223483Y-242661265D01*
X259048392Y-242614666D01*
X258988107Y-242612333D01*
X258802197Y-242626235D01*
X258674392Y-242677351D01*
X258581339Y-242779802D01*
X258522500Y-242893841D01*
X258474358Y-243051724D01*
X258443852Y-243252343D01*
X258431058Y-243472290D01*
X258436053Y-243688159D01*
X258458910Y-243876541D01*
X258499705Y-244014029D01*
X258518783Y-244046538D01*
X258626693Y-244161932D01*
X258759424Y-244262881D01*
X258888890Y-244330507D01*
X258967224Y-244348000D01*
X259092011Y-244313477D01*
X259227410Y-244223901D01*
X259346799Y-244100256D01*
X259408874Y-243999842D01*
X259456154Y-243908589D01*
X259506768Y-243861621D01*
X259588944Y-243844054D01*
X259709922Y-243841092D01*
X259937678Y-243840000D01*
X259916595Y-244027042D01*
X259850183Y-244264387D01*
X259715935Y-244466033D01*
X259525900Y-244624323D01*
X259292130Y-244731602D01*
X259026674Y-244780213D01*
X258755151Y-244764915D01*
X258489737Y-244685841D01*
X258278104Y-244547721D01*
X258118701Y-244348080D01*
X258009979Y-244084444D01*
X257950386Y-243754340D01*
X257937000Y-243459000D01*
X257948162Y-243147203D01*
X257985439Y-242899618D01*
X258054518Y-242698291D01*
X258161087Y-242525267D01*
X258272519Y-242399782D01*
X258406186Y-242278013D01*
X258525886Y-242204306D01*
X258667471Y-242158262D01*
X258715746Y-242147584D01*
X259008543Y-242115025D01*
X259260583Y-242152012D01*
G36*
X261281333Y-244813667D02*
G01*
X260773333Y-244813667D01*
X260773333Y-242146667D01*
X261281333Y-242146667D01*
X261281333Y-244813667D01*
G37*
X261281333Y-244813667D02*
X260773333Y-244813667D01*
X260773333Y-242146667D01*
X261281333Y-242146667D01*
X261281333Y-244813667D01*
G36*
X263863667Y-242612333D02*
G01*
X262678333Y-242612333D01*
X262678333Y-243205000D01*
X263736667Y-243205000D01*
X263736667Y-243334783D01*
X263731413Y-243447751D01*
X263706847Y-243526894D01*
X263649763Y-243579514D01*
X263546954Y-243612914D01*
X263385214Y-243634395D01*
X263165938Y-243650351D01*
X262678333Y-243680818D01*
X262678333Y-244305667D01*
X263863667Y-244305667D01*
X263863667Y-244813667D01*
X262170333Y-244813667D01*
X262170333Y-242146667D01*
X263863667Y-242146667D01*
X263863667Y-242612333D01*
G37*
X263863667Y-242612333D02*
X262678333Y-242612333D01*
X262678333Y-243205000D01*
X263736667Y-243205000D01*
X263736667Y-243334783D01*
X263731413Y-243447751D01*
X263706847Y-243526894D01*
X263649763Y-243579514D01*
X263546954Y-243612914D01*
X263385214Y-243634395D01*
X263165938Y-243650351D01*
X262678333Y-243680818D01*
X262678333Y-244305667D01*
X263863667Y-244305667D01*
X263863667Y-244813667D01*
X262170333Y-244813667D01*
X262170333Y-242146667D01*
X263863667Y-242146667D01*
X263863667Y-242612333D01*
G36*
X265243409Y-242158756D02*
G01*
X265497572Y-242170694D01*
X265684690Y-242184494D01*
X265822382Y-242202815D01*
X265928264Y-242228315D01*
X266019955Y-242263653D01*
X266057615Y-242281642D01*
X266252535Y-242421060D01*
X266384101Y-242605112D01*
X266450331Y-242820106D01*
X266449245Y-243052352D01*
X266378860Y-243288158D01*
X266237197Y-243513834D01*
X266236110Y-243515152D01*
X266072156Y-243713559D01*
X266301411Y-244131652D01*
X266423041Y-244364720D01*
X266497214Y-244537490D01*
X266525597Y-244658623D01*
X266509859Y-244736779D01*
X266451665Y-244780619D01*
X266427771Y-244787980D01*
X266279747Y-244787832D01*
X266131549Y-244711244D01*
X265980734Y-244556004D01*
X265824860Y-244319900D01*
X265742120Y-244166637D01*
X265638220Y-243985069D01*
X265540705Y-243871912D01*
X265433756Y-243813876D01*
X265303000Y-243797667D01*
X265133667Y-243797667D01*
X265133667Y-244813667D01*
X264625667Y-244813667D01*
X264625667Y-243379521D01*
X265133667Y-243379521D01*
X265334750Y-243353188D01*
X265503749Y-243321808D01*
X265674191Y-243276499D01*
X265712381Y-243263713D01*
X265852697Y-243191702D01*
X265925493Y-243095122D01*
X265928816Y-243086149D01*
X265945045Y-242932477D01*
X265886747Y-242800608D01*
X265762877Y-242698230D01*
X265582391Y-242633031D01*
X265377083Y-242612491D01*
X265133667Y-242612333D01*
X265133667Y-243379521D01*
X264625667Y-243379521D01*
X264625667Y-242133726D01*
X265243409Y-242158756D01*
G37*
X265243409Y-242158756D02*
X265497572Y-242170694D01*
X265684690Y-242184494D01*
X265822382Y-242202815D01*
X265928264Y-242228315D01*
X266019955Y-242263653D01*
X266057615Y-242281642D01*
X266252535Y-242421060D01*
X266384101Y-242605112D01*
X266450331Y-242820106D01*
X266449245Y-243052352D01*
X266378860Y-243288158D01*
X266237197Y-243513834D01*
X266236110Y-243515152D01*
X266072156Y-243713559D01*
X266301411Y-244131652D01*
X266423041Y-244364720D01*
X266497214Y-244537490D01*
X266525597Y-244658623D01*
X266509859Y-244736779D01*
X266451665Y-244780619D01*
X266427771Y-244787980D01*
X266279747Y-244787832D01*
X266131549Y-244711244D01*
X265980734Y-244556004D01*
X265824860Y-244319900D01*
X265742120Y-244166637D01*
X265638220Y-243985069D01*
X265540705Y-243871912D01*
X265433756Y-243813876D01*
X265303000Y-243797667D01*
X265133667Y-243797667D01*
X265133667Y-244813667D01*
X264625667Y-244813667D01*
X264625667Y-243379521D01*
X265133667Y-243379521D01*
X265334750Y-243353188D01*
X265503749Y-243321808D01*
X265674191Y-243276499D01*
X265712381Y-243263713D01*
X265852697Y-243191702D01*
X265925493Y-243095122D01*
X265928816Y-243086149D01*
X265945045Y-242932477D01*
X265886747Y-242800608D01*
X265762877Y-242698230D01*
X265582391Y-242633031D01*
X265377083Y-242612491D01*
X265133667Y-242612333D01*
X265133667Y-243379521D01*
X264625667Y-243379521D01*
X264625667Y-242133726D01*
X265243409Y-242158756D01*
G36*
X256288248Y-242192196D02*
G01*
X256512526Y-242204433D01*
X256681085Y-242229679D01*
X256808321Y-242271904D01*
X256908631Y-242335080D01*
X256996415Y-242423174D01*
X257039806Y-242477412D01*
X257096803Y-242560518D01*
X257130938Y-242642309D01*
X257147934Y-242748134D01*
X257153515Y-242903345D01*
X257153833Y-242982492D01*
X257153833Y-243338076D01*
X256797547Y-243670416D01*
X257049774Y-244150633D01*
X257145403Y-244338135D01*
X257224388Y-244503348D01*
X257279068Y-244629486D01*
X257301781Y-244699767D01*
X257302000Y-244703204D01*
X257289640Y-244743944D01*
X257239964Y-244763359D01*
X257134074Y-244766081D01*
X257058583Y-244762862D01*
X256815167Y-244750167D01*
X256598437Y-244357434D01*
X256476040Y-244140065D01*
X256381467Y-243987135D01*
X256304313Y-243887536D01*
X256234171Y-243830163D01*
X256160636Y-243803908D01*
X256073984Y-243797667D01*
X255917423Y-243797667D01*
X255890045Y-244121554D01*
X255876398Y-244304833D01*
X255866588Y-244478221D01*
X255862672Y-244605173D01*
X255862667Y-244608387D01*
X255862667Y-244771333D01*
X255636889Y-244771333D01*
X255505142Y-244766426D01*
X255410642Y-244753835D01*
X255382889Y-244743111D01*
X255375783Y-244695204D01*
X255369333Y-244573318D01*
X255363774Y-244388143D01*
X255359337Y-244150364D01*
X255356258Y-243870671D01*
X255354769Y-243559751D01*
X255354667Y-243451944D01*
X255354667Y-242612333D01*
X255905000Y-242612333D01*
X255905000Y-243379521D01*
X256106083Y-243349990D01*
X256251628Y-243323584D01*
X256378785Y-243292265D01*
X256413000Y-243281077D01*
X256542957Y-243210003D01*
X256648189Y-243112647D01*
X256705145Y-243012681D01*
X256709333Y-242983171D01*
X256671188Y-242831718D01*
X256561913Y-242716096D01*
X256389247Y-242641345D01*
X256160929Y-242612506D01*
X256139935Y-242612333D01*
X255905000Y-242612333D01*
X255354667Y-242612333D01*
X255354667Y-242189000D01*
X255993852Y-242189000D01*
X256288248Y-242192196D01*
G37*
X256288248Y-242192196D02*
X256512526Y-242204433D01*
X256681085Y-242229679D01*
X256808321Y-242271904D01*
X256908631Y-242335080D01*
X256996415Y-242423174D01*
X257039806Y-242477412D01*
X257096803Y-242560518D01*
X257130938Y-242642309D01*
X257147934Y-242748134D01*
X257153515Y-242903345D01*
X257153833Y-242982492D01*
X257153833Y-243338076D01*
X256797547Y-243670416D01*
X257049774Y-244150633D01*
X257145403Y-244338135D01*
X257224388Y-244503348D01*
X257279068Y-244629486D01*
X257301781Y-244699767D01*
X257302000Y-244703204D01*
X257289640Y-244743944D01*
X257239964Y-244763359D01*
X257134074Y-244766081D01*
X257058583Y-244762862D01*
X256815167Y-244750167D01*
X256598437Y-244357434D01*
X256476040Y-244140065D01*
X256381467Y-243987135D01*
X256304313Y-243887536D01*
X256234171Y-243830163D01*
X256160636Y-243803908D01*
X256073984Y-243797667D01*
X255917423Y-243797667D01*
X255890045Y-244121554D01*
X255876398Y-244304833D01*
X255866588Y-244478221D01*
X255862672Y-244605173D01*
X255862667Y-244608387D01*
X255862667Y-244771333D01*
X255636889Y-244771333D01*
X255505142Y-244766426D01*
X255410642Y-244753835D01*
X255382889Y-244743111D01*
X255375783Y-244695204D01*
X255369333Y-244573318D01*
X255363774Y-244388143D01*
X255359337Y-244150364D01*
X255356258Y-243870671D01*
X255354769Y-243559751D01*
X255354667Y-243451944D01*
X255354667Y-242612333D01*
X255905000Y-242612333D01*
X255905000Y-243379521D01*
X256106083Y-243349990D01*
X256251628Y-243323584D01*
X256378785Y-243292265D01*
X256413000Y-243281077D01*
X256542957Y-243210003D01*
X256648189Y-243112647D01*
X256705145Y-243012681D01*
X256709333Y-242983171D01*
X256671188Y-242831718D01*
X256561913Y-242716096D01*
X256389247Y-242641345D01*
X256160929Y-242612506D01*
X256139935Y-242612333D01*
X255905000Y-242612333D01*
X255354667Y-242612333D01*
X255354667Y-242189000D01*
X255993852Y-242189000D01*
X256288248Y-242192196D01*
G36*
X242010856Y-243929515D02*
G01*
X242176624Y-243944309D01*
X242301228Y-243968445D01*
X242311996Y-243971947D01*
X242404665Y-244015492D01*
X242436611Y-244077078D01*
X242434730Y-244150899D01*
X242390318Y-244276316D01*
X242316000Y-244335827D01*
X242210353Y-244365550D01*
X242056363Y-244382696D01*
X241884510Y-244386900D01*
X241725272Y-244377795D01*
X241609126Y-244355015D01*
X241585750Y-244344609D01*
X241533925Y-244275468D01*
X241510537Y-244167382D01*
X241516197Y-244054317D01*
X241551522Y-243970238D01*
X241578629Y-243950362D01*
X241680652Y-243931623D01*
X241835130Y-243924980D01*
X242010856Y-243929515D01*
G37*
X242010856Y-243929515D02*
X242176624Y-243944309D01*
X242301228Y-243968445D01*
X242311996Y-243971947D01*
X242404665Y-244015492D01*
X242436611Y-244077078D01*
X242434730Y-244150899D01*
X242390318Y-244276316D01*
X242316000Y-244335827D01*
X242210353Y-244365550D01*
X242056363Y-244382696D01*
X241884510Y-244386900D01*
X241725272Y-244377795D01*
X241609126Y-244355015D01*
X241585750Y-244344609D01*
X241533925Y-244275468D01*
X241510537Y-244167382D01*
X241516197Y-244054317D01*
X241551522Y-243970238D01*
X241578629Y-243950362D01*
X241680652Y-243931623D01*
X241835130Y-243924980D01*
X242010856Y-243929515D01*
G36*
X248399176Y-243932882D02*
G01*
X248545757Y-243952171D01*
X248613955Y-243969958D01*
X248711925Y-244019956D01*
X248767807Y-244077658D01*
X248768287Y-244078858D01*
X248766695Y-244180202D01*
X248703004Y-244280354D01*
X248597170Y-244350026D01*
X248484616Y-244374438D01*
X248328704Y-244386435D01*
X248159841Y-244386251D01*
X248008433Y-244374122D01*
X247904889Y-244350280D01*
X247893417Y-244344609D01*
X247840477Y-244271714D01*
X247819549Y-244158218D01*
X247833078Y-244042855D01*
X247870133Y-243975467D01*
X247941689Y-243947246D01*
X248071086Y-243930613D01*
X248232267Y-243925760D01*
X248399176Y-243932882D01*
G37*
X248399176Y-243932882D02*
X248545757Y-243952171D01*
X248613955Y-243969958D01*
X248711925Y-244019956D01*
X248767807Y-244077658D01*
X248768287Y-244078858D01*
X248766695Y-244180202D01*
X248703004Y-244280354D01*
X248597170Y-244350026D01*
X248484616Y-244374438D01*
X248328704Y-244386435D01*
X248159841Y-244386251D01*
X248008433Y-244374122D01*
X247904889Y-244350280D01*
X247893417Y-244344609D01*
X247840477Y-244271714D01*
X247819549Y-244158218D01*
X247833078Y-244042855D01*
X247870133Y-243975467D01*
X247941689Y-243947246D01*
X248071086Y-243930613D01*
X248232267Y-243925760D01*
X248399176Y-243932882D01*
G36*
X244339773Y-241423322D02*
G01*
X244415602Y-241525364D01*
X244473278Y-241669905D01*
X244507796Y-241836056D01*
X244514150Y-242002929D01*
X244487335Y-242149637D01*
X244451433Y-242221914D01*
X244362929Y-242287174D01*
X244236550Y-242316899D01*
X244108439Y-242308361D01*
X244014736Y-242258835D01*
X244011493Y-242255102D01*
X243983344Y-242177787D01*
X243966353Y-242046090D01*
X243961531Y-241889687D01*
X243969888Y-241738254D01*
X243990150Y-241628622D01*
X244064048Y-241485293D01*
X244172454Y-241400711D01*
X244250797Y-241384667D01*
X244339773Y-241423322D01*
G37*
X244339773Y-241423322D02*
X244415602Y-241525364D01*
X244473278Y-241669905D01*
X244507796Y-241836056D01*
X244514150Y-242002929D01*
X244487335Y-242149637D01*
X244451433Y-242221914D01*
X244362929Y-242287174D01*
X244236550Y-242316899D01*
X244108439Y-242308361D01*
X244014736Y-242258835D01*
X244011493Y-242255102D01*
X243983344Y-242177787D01*
X243966353Y-242046090D01*
X243961531Y-241889687D01*
X243969888Y-241738254D01*
X243990150Y-241628622D01*
X244064048Y-241485293D01*
X244172454Y-241400711D01*
X244250797Y-241384667D01*
X244339773Y-241423322D01*
G36*
X245259431Y-241443639D02*
G01*
X245313200Y-241477800D01*
X245339621Y-241546643D01*
X245356391Y-241673267D01*
X245363267Y-241831310D01*
X245360006Y-241994410D01*
X245346363Y-242136206D01*
X245322096Y-242230334D01*
X245320177Y-242234116D01*
X245245921Y-242294006D01*
X245130320Y-242316379D01*
X245008660Y-242299716D01*
X244924187Y-242251139D01*
X244853786Y-242128529D01*
X244822467Y-241960043D01*
X244830315Y-241774955D01*
X244877412Y-241602540D01*
X244922107Y-241520791D01*
X245013296Y-241452613D01*
X245138695Y-241425471D01*
X245259431Y-241443639D01*
G37*
X245259431Y-241443639D02*
X245313200Y-241477800D01*
X245339621Y-241546643D01*
X245356391Y-241673267D01*
X245363267Y-241831310D01*
X245360006Y-241994410D01*
X245346363Y-242136206D01*
X245322096Y-242230334D01*
X245320177Y-242234116D01*
X245245921Y-242294006D01*
X245130320Y-242316379D01*
X245008660Y-242299716D01*
X244924187Y-242251139D01*
X244853786Y-242128529D01*
X244822467Y-241960043D01*
X244830315Y-241774955D01*
X244877412Y-241602540D01*
X244922107Y-241520791D01*
X245013296Y-241452613D01*
X245138695Y-241425471D01*
X245259431Y-241443639D01*
G36*
X246087598Y-241407081D02*
G01*
X246165789Y-241473755D01*
X246218191Y-241605891D01*
X246241145Y-241787227D01*
X246230992Y-242001503D01*
X246227407Y-242028434D01*
X246189500Y-242294833D01*
X245993902Y-242307512D01*
X245871899Y-242310370D01*
X245808350Y-242291775D01*
X245777861Y-242242027D01*
X245772230Y-242222845D01*
X245755237Y-242106793D01*
X245747464Y-241944153D01*
X245749019Y-241771638D01*
X245760008Y-241625957D01*
X245770332Y-241569744D01*
X245832640Y-241478910D01*
X245941747Y-241416290D01*
X246060270Y-241401051D01*
X246087598Y-241407081D01*
G37*
X246087598Y-241407081D02*
X246165789Y-241473755D01*
X246218191Y-241605891D01*
X246241145Y-241787227D01*
X246230992Y-242001503D01*
X246227407Y-242028434D01*
X246189500Y-242294833D01*
X245993902Y-242307512D01*
X245871899Y-242310370D01*
X245808350Y-242291775D01*
X245777861Y-242242027D01*
X245772230Y-242222845D01*
X245755237Y-242106793D01*
X245747464Y-241944153D01*
X245749019Y-241771638D01*
X245760008Y-241625957D01*
X245770332Y-241569744D01*
X245832640Y-241478910D01*
X245941747Y-241416290D01*
X246060270Y-241401051D01*
X246087598Y-241407081D01*
G36*
X246422333Y-246325605D02*
G01*
X246162123Y-246352803D01*
X246045119Y-246360460D01*
X245866556Y-246366443D01*
X245641064Y-246370775D01*
X245383274Y-246373483D01*
X245107815Y-246374589D01*
X244829318Y-246374118D01*
X244562411Y-246372096D01*
X244321726Y-246368546D01*
X244121892Y-246363492D01*
X243977538Y-246356960D01*
X243903500Y-246349025D01*
X243818790Y-246309704D01*
X243787731Y-246279853D01*
X243777592Y-246222670D01*
X243769417Y-246094610D01*
X243763237Y-245909440D01*
X243759083Y-245680927D01*
X243756987Y-245422840D01*
X243756978Y-245148945D01*
X243759088Y-244873009D01*
X243763348Y-244608800D01*
X243769789Y-244370085D01*
X243778092Y-244178667D01*
X244263333Y-244178667D01*
X244263333Y-245872000D01*
X245956667Y-245872000D01*
X245956667Y-244178667D01*
X244263333Y-244178667D01*
X243778092Y-244178667D01*
X243778441Y-244170633D01*
X243782839Y-244100503D01*
X243810345Y-243713000D01*
X246422333Y-243713000D01*
X246422333Y-246325605D01*
G37*
X246422333Y-246325605D02*
X246162123Y-246352803D01*
X246045119Y-246360460D01*
X245866556Y-246366443D01*
X245641064Y-246370775D01*
X245383274Y-246373483D01*
X245107815Y-246374589D01*
X244829318Y-246374118D01*
X244562411Y-246372096D01*
X244321726Y-246368546D01*
X244121892Y-246363492D01*
X243977538Y-246356960D01*
X243903500Y-246349025D01*
X243818790Y-246309704D01*
X243787731Y-246279853D01*
X243777592Y-246222670D01*
X243769417Y-246094610D01*
X243763237Y-245909440D01*
X243759083Y-245680927D01*
X243756987Y-245422840D01*
X243756978Y-245148945D01*
X243759088Y-244873009D01*
X243763348Y-244608800D01*
X243769789Y-244370085D01*
X243778092Y-244178667D01*
X244263333Y-244178667D01*
X244263333Y-245872000D01*
X245956667Y-245872000D01*
X245956667Y-244178667D01*
X244263333Y-244178667D01*
X243778092Y-244178667D01*
X243778441Y-244170633D01*
X243782839Y-244100503D01*
X243810345Y-243713000D01*
X246422333Y-243713000D01*
X246422333Y-246325605D01*
D11*
%TO.C,DS1*%
X382292000Y-151007250D02*
X380962000Y-151007250D01*
X382292000Y-149677250D02*
X382292000Y-151007250D01*
X382292000Y-148407250D02*
X379632000Y-148407250D01*
X379632000Y-148407250D02*
X379632000Y-140727250D01*
X382292000Y-148407250D02*
X382292000Y-140727250D01*
X382292000Y-140727250D02*
X379632000Y-140727250D01*
%TO.C,J3*%
X176724000Y-142578000D02*
X192084000Y-142578000D01*
X192084000Y-142578000D02*
X192084000Y-139918000D01*
X192084000Y-139918000D02*
X176724000Y-139918000D01*
X176724000Y-139918000D02*
X176724000Y-142578000D01*
X177674000Y-139918000D02*
X177674000Y-133918000D01*
X177674000Y-133918000D02*
X178434000Y-133918000D01*
X178434000Y-133918000D02*
X178434000Y-139918000D01*
X177734000Y-139918000D02*
X177734000Y-133918000D01*
X177854000Y-139918000D02*
X177854000Y-133918000D01*
X177974000Y-139918000D02*
X177974000Y-133918000D01*
X178094000Y-139918000D02*
X178094000Y-133918000D01*
X178214000Y-139918000D02*
X178214000Y-133918000D01*
X178334000Y-139918000D02*
X178334000Y-133918000D01*
X177674000Y-142908000D02*
X177674000Y-142578000D01*
X178434000Y-142908000D02*
X178434000Y-142578000D01*
X179324000Y-142578000D02*
X179324000Y-139918000D01*
X180214000Y-139918000D02*
X180214000Y-133918000D01*
X180214000Y-133918000D02*
X180974000Y-133918000D01*
X180974000Y-133918000D02*
X180974000Y-139918000D01*
X180214000Y-142975071D02*
X180214000Y-142578000D01*
X180974000Y-142975071D02*
X180974000Y-142578000D01*
X181864000Y-142578000D02*
X181864000Y-139918000D01*
X182754000Y-139918000D02*
X182754000Y-133918000D01*
X182754000Y-133918000D02*
X183514000Y-133918000D01*
X183514000Y-133918000D02*
X183514000Y-139918000D01*
X182754000Y-142975071D02*
X182754000Y-142578000D01*
X183514000Y-142975071D02*
X183514000Y-142578000D01*
X184404000Y-142578000D02*
X184404000Y-139918000D01*
X185294000Y-139918000D02*
X185294000Y-133918000D01*
X185294000Y-133918000D02*
X186054000Y-133918000D01*
X186054000Y-133918000D02*
X186054000Y-139918000D01*
X185294000Y-142975071D02*
X185294000Y-142578000D01*
X186054000Y-142975071D02*
X186054000Y-142578000D01*
X186944000Y-142578000D02*
X186944000Y-139918000D01*
X187834000Y-139918000D02*
X187834000Y-133918000D01*
X187834000Y-133918000D02*
X188594000Y-133918000D01*
X188594000Y-133918000D02*
X188594000Y-139918000D01*
X187834000Y-142975071D02*
X187834000Y-142578000D01*
X188594000Y-142975071D02*
X188594000Y-142578000D01*
X189484000Y-142578000D02*
X189484000Y-139918000D01*
X190374000Y-139918000D02*
X190374000Y-133918000D01*
X190374000Y-133918000D02*
X191134000Y-133918000D01*
X191134000Y-133918000D02*
X191134000Y-139918000D01*
X190374000Y-142975071D02*
X190374000Y-142578000D01*
X191134000Y-142975071D02*
X191134000Y-142578000D01*
X178054000Y-145288000D02*
X176784000Y-145288000D01*
X176784000Y-145288000D02*
X176784000Y-144018000D01*
%TO.C,U2*%
X325180000Y-145050000D02*
X325180000Y-139590000D01*
X325180000Y-139590000D02*
X274260000Y-139590000D01*
X274260000Y-139590000D02*
X274260000Y-152510000D01*
X274260000Y-152510000D02*
X325180000Y-152510000D01*
X325180000Y-152510000D02*
X325180000Y-147050000D01*
X325240000Y-137100000D02*
X274200000Y-137100000D01*
X274200000Y-137100000D02*
X274200000Y-155000000D01*
X274200000Y-155000000D02*
X325240000Y-155000000D01*
X325240000Y-155000000D02*
X325240000Y-137100000D01*
X325180000Y-147050000D02*
G75*
G02*
X325180000Y-145050000I0J1000000D01*
G01*
%TO.C,RCtrl1*%
X382746250Y-237490000D02*
X396716250Y-237490000D01*
X396716250Y-237490000D02*
X396716250Y-251460000D01*
X396716250Y-251460000D02*
X382746250Y-251460000D01*
X382746250Y-251460000D02*
X382746250Y-237490000D01*
%TO.C,Z1*%
X197008750Y-218440000D02*
X210978750Y-218440000D01*
X210978750Y-218440000D02*
X210978750Y-232410000D01*
X210978750Y-232410000D02*
X197008750Y-232410000D01*
X197008750Y-232410000D02*
X197008750Y-218440000D01*
%TO.C,Y1*%
X277971250Y-180340000D02*
X291941250Y-180340000D01*
X291941250Y-180340000D02*
X291941250Y-194310000D01*
X291941250Y-194310000D02*
X277971250Y-194310000D01*
X277971250Y-194310000D02*
X277971250Y-180340000D01*
%TO.C,Y2*%
X326024000Y-142952000D02*
X326024000Y-149202000D01*
X331074000Y-142952000D02*
X331074000Y-149202000D01*
X326024000Y-149202000D02*
G75*
G03*
X331074000Y-149202000I2525000J0D01*
G01*
X326024000Y-142952000D02*
G75*
G02*
X331074000Y-142952000I2525000J0D01*
G01*
%TO.C,X1*%
X216058750Y-218440000D02*
X230028750Y-218440000D01*
X230028750Y-218440000D02*
X230028750Y-232410000D01*
X230028750Y-232410000D02*
X216058750Y-232410000D01*
X216058750Y-232410000D02*
X216058750Y-218440000D01*
%TO.C,Win1*%
X180340000Y-237490000D02*
X194310000Y-237490000D01*
X194310000Y-237490000D02*
X194310000Y-251460000D01*
X194310000Y-251460000D02*
X180340000Y-251460000D01*
X180340000Y-251460000D02*
X180340000Y-237490000D01*
%TO.C,W1*%
X201771250Y-180340000D02*
X215741250Y-180340000D01*
X215741250Y-180340000D02*
X215741250Y-194310000D01*
X215741250Y-194310000D02*
X201771250Y-194310000D01*
X201771250Y-194310000D02*
X201771250Y-180340000D01*
%TO.C,V1*%
X254158750Y-218440000D02*
X268128750Y-218440000D01*
X268128750Y-218440000D02*
X268128750Y-232410000D01*
X268128750Y-232410000D02*
X254158750Y-232410000D01*
X254158750Y-232410000D02*
X254158750Y-218440000D01*
%TO.C,U1*%
X297021250Y-180340000D02*
X310991250Y-180340000D01*
X310991250Y-180340000D02*
X310991250Y-194310000D01*
X310991250Y-194310000D02*
X297021250Y-194310000D01*
X297021250Y-194310000D02*
X297021250Y-180340000D01*
%TO.C,Tab1*%
X158908750Y-180340000D02*
X172878750Y-180340000D01*
X172878750Y-180340000D02*
X172878750Y-194310000D01*
X172878750Y-194310000D02*
X158908750Y-194310000D01*
X158908750Y-194310000D02*
X158908750Y-180340000D01*
%TO.C,T1*%
X258921250Y-180340000D02*
X272891250Y-180340000D01*
X272891250Y-180340000D02*
X272891250Y-194310000D01*
X272891250Y-194310000D02*
X258921250Y-194310000D01*
X258921250Y-194310000D02*
X258921250Y-180340000D01*
%TO.C,Space1*%
X275590000Y-237490000D02*
X289560000Y-237490000D01*
X289560000Y-237490000D02*
X289560000Y-251460000D01*
X289560000Y-251460000D02*
X275590000Y-251460000D01*
X275590000Y-251460000D02*
X275590000Y-237490000D01*
%TO.C,S1*%
X206533750Y-199390000D02*
X220503750Y-199390000D01*
X220503750Y-199390000D02*
X220503750Y-213360000D01*
X220503750Y-213360000D02*
X206533750Y-213360000D01*
X206533750Y-213360000D02*
X206533750Y-199390000D01*
%TO.C,RShift1*%
X394652500Y-218440000D02*
X408622500Y-218440000D01*
X408622500Y-218440000D02*
X408622500Y-232410000D01*
X408622500Y-232410000D02*
X394652500Y-232410000D01*
X394652500Y-232410000D02*
X394652500Y-218440000D01*
%TO.C,RESET1*%
X200875000Y-136731250D02*
X200875000Y-141231250D01*
X204875000Y-135481250D02*
X203375000Y-135481250D01*
X207375000Y-141231250D02*
X207375000Y-136731250D01*
X203375000Y-142481250D02*
X204875000Y-142481250D01*
%TO.C,RAlt1*%
X344646250Y-237490000D02*
X358616250Y-237490000D01*
X358616250Y-237490000D02*
X358616250Y-251460000D01*
X358616250Y-251460000D02*
X344646250Y-251460000D01*
X344646250Y-251460000D02*
X344646250Y-237490000D01*
%TO.C,R3*%
X335088750Y-147811250D02*
X335088750Y-143971250D01*
X333248750Y-147811250D02*
X333248750Y-143971250D01*
%TO.C,R1*%
X239871250Y-180340000D02*
X253841250Y-180340000D01*
X253841250Y-180340000D02*
X253841250Y-194310000D01*
X253841250Y-194310000D02*
X239871250Y-194310000D01*
X239871250Y-194310000D02*
X239871250Y-180340000D01*
%TO.C,R8*%
X228426250Y-146970000D02*
X232266250Y-146970000D01*
X228426250Y-145130000D02*
X232266250Y-145130000D01*
%TO.C,R7*%
X232266250Y-148305000D02*
X228426250Y-148305000D01*
X232266250Y-150145000D02*
X228426250Y-150145000D01*
%TO.C,R6*%
X232266250Y-151480000D02*
X228426250Y-151480000D01*
X232266250Y-153320000D02*
X228426250Y-153320000D01*
%TO.C,R2*%
X193372500Y-151480000D02*
X189532500Y-151480000D01*
X193372500Y-153320000D02*
X189532500Y-153320000D01*
%TO.C,R4*%
X204961250Y-149098750D02*
X201121250Y-149098750D01*
X204961250Y-150938750D02*
X201121250Y-150938750D01*
%TO.C,R5*%
X204961250Y-151480000D02*
X201121250Y-151480000D01*
X204961250Y-153320000D02*
X201121250Y-153320000D01*
%TO.C,Q1*%
X182721250Y-180340000D02*
X196691250Y-180340000D01*
X196691250Y-180340000D02*
X196691250Y-194310000D01*
X196691250Y-194310000D02*
X182721250Y-194310000D01*
X182721250Y-194310000D02*
X182721250Y-180340000D01*
%TO.C,PgUp1*%
X439896250Y-199390000D02*
X453866250Y-199390000D01*
X453866250Y-199390000D02*
X453866250Y-213360000D01*
X453866250Y-213360000D02*
X439896250Y-213360000D01*
X439896250Y-213360000D02*
X439896250Y-199390000D01*
%TO.C,PgDw1*%
X439896250Y-218440000D02*
X453866250Y-218440000D01*
X453866250Y-218440000D02*
X453866250Y-232410000D01*
X453866250Y-232410000D02*
X439896250Y-232410000D01*
X439896250Y-232410000D02*
X439896250Y-218440000D01*
%TO.C,P1*%
X354171250Y-180340000D02*
X368141250Y-180340000D01*
X368141250Y-180340000D02*
X368141250Y-194310000D01*
X368141250Y-194310000D02*
X354171250Y-194310000D01*
X354171250Y-194310000D02*
X354171250Y-180340000D01*
%TO.C,O1*%
X335121250Y-180340000D02*
X349091250Y-180340000D01*
X349091250Y-180340000D02*
X349091250Y-194310000D01*
X349091250Y-194310000D02*
X335121250Y-194310000D01*
X335121250Y-194310000D02*
X335121250Y-180340000D01*
%TO.C,Num10*%
X344646250Y-161290000D02*
X358616250Y-161290000D01*
X358616250Y-161290000D02*
X358616250Y-175260000D01*
X358616250Y-175260000D02*
X344646250Y-175260000D01*
X344646250Y-175260000D02*
X344646250Y-161290000D01*
%TO.C,Num9*%
X325596250Y-161290000D02*
X339566250Y-161290000D01*
X339566250Y-161290000D02*
X339566250Y-175260000D01*
X339566250Y-175260000D02*
X325596250Y-175260000D01*
X325596250Y-175260000D02*
X325596250Y-161290000D01*
%TO.C,Num8*%
X306546250Y-161290000D02*
X320516250Y-161290000D01*
X320516250Y-161290000D02*
X320516250Y-175260000D01*
X320516250Y-175260000D02*
X306546250Y-175260000D01*
X306546250Y-175260000D02*
X306546250Y-161290000D01*
%TO.C,Num7*%
X287496250Y-161290000D02*
X301466250Y-161290000D01*
X301466250Y-161290000D02*
X301466250Y-175260000D01*
X301466250Y-175260000D02*
X287496250Y-175260000D01*
X287496250Y-175260000D02*
X287496250Y-161290000D01*
%TO.C,Num6*%
X268446250Y-161290000D02*
X282416250Y-161290000D01*
X282416250Y-161290000D02*
X282416250Y-175260000D01*
X282416250Y-175260000D02*
X268446250Y-175260000D01*
X268446250Y-175260000D02*
X268446250Y-161290000D01*
%TO.C,Num5*%
X249396250Y-161290000D02*
X263366250Y-161290000D01*
X263366250Y-161290000D02*
X263366250Y-175260000D01*
X263366250Y-175260000D02*
X249396250Y-175260000D01*
X249396250Y-175260000D02*
X249396250Y-161290000D01*
%TO.C,Num4*%
X230346250Y-161290000D02*
X244316250Y-161290000D01*
X244316250Y-161290000D02*
X244316250Y-175260000D01*
X244316250Y-175260000D02*
X230346250Y-175260000D01*
X230346250Y-175260000D02*
X230346250Y-161290000D01*
%TO.C,Num3*%
X211296250Y-161290000D02*
X225266250Y-161290000D01*
X225266250Y-161290000D02*
X225266250Y-175260000D01*
X225266250Y-175260000D02*
X211296250Y-175260000D01*
X211296250Y-175260000D02*
X211296250Y-161290000D01*
%TO.C,Num2*%
X192246250Y-161290000D02*
X206216250Y-161290000D01*
X206216250Y-161290000D02*
X206216250Y-175260000D01*
X206216250Y-175260000D02*
X192246250Y-175260000D01*
X192246250Y-175260000D02*
X192246250Y-161290000D01*
%TO.C,Num1*%
X173196250Y-161290000D02*
X187166250Y-161290000D01*
X187166250Y-161290000D02*
X187166250Y-175260000D01*
X187166250Y-175260000D02*
X173196250Y-175260000D01*
X173196250Y-175260000D02*
X173196250Y-161290000D01*
%TO.C,N1*%
X292258750Y-218440000D02*
X306228750Y-218440000D01*
X306228750Y-218440000D02*
X306228750Y-232410000D01*
X306228750Y-232410000D02*
X292258750Y-232410000D01*
X292258750Y-232410000D02*
X292258750Y-218440000D01*
%TO.C,M1*%
X311308750Y-218440000D02*
X325278750Y-218440000D01*
X325278750Y-218440000D02*
X325278750Y-232410000D01*
X325278750Y-232410000D02*
X311308750Y-232410000D01*
X311308750Y-232410000D02*
X311308750Y-218440000D01*
%TO.C,LShift1*%
X166052500Y-218440000D02*
X180022500Y-218440000D01*
X180022500Y-218440000D02*
X180022500Y-232410000D01*
X180022500Y-232410000D02*
X166052500Y-232410000D01*
X166052500Y-232410000D02*
X166052500Y-218440000D01*
%TO.C,LCtrl1*%
X156527500Y-237490000D02*
X170497500Y-237490000D01*
X170497500Y-237490000D02*
X170497500Y-251460000D01*
X170497500Y-251460000D02*
X156527500Y-251460000D01*
X156527500Y-251460000D02*
X156527500Y-237490000D01*
%TO.C,LAlt1*%
X204152500Y-237490000D02*
X218122500Y-237490000D01*
X218122500Y-237490000D02*
X218122500Y-251460000D01*
X218122500Y-251460000D02*
X204152500Y-251460000D01*
X204152500Y-251460000D02*
X204152500Y-237490000D01*
%TO.C,L1*%
X339883750Y-199390000D02*
X353853750Y-199390000D01*
X353853750Y-199390000D02*
X353853750Y-213360000D01*
X353853750Y-213360000D02*
X339883750Y-213360000D01*
X339883750Y-213360000D02*
X339883750Y-199390000D01*
%TO.C,K1*%
X320833750Y-199390000D02*
X334803750Y-199390000D01*
X334803750Y-199390000D02*
X334803750Y-213360000D01*
X334803750Y-213360000D02*
X320833750Y-213360000D01*
X320833750Y-213360000D02*
X320833750Y-199390000D01*
%TO.C,J1*%
X301783750Y-199390000D02*
X315753750Y-199390000D01*
X315753750Y-199390000D02*
X315753750Y-213360000D01*
X315753750Y-213360000D02*
X301783750Y-213360000D01*
X301783750Y-213360000D02*
X301783750Y-199390000D01*
%TO.C,I1*%
X316071250Y-180340000D02*
X330041250Y-180340000D01*
X330041250Y-180340000D02*
X330041250Y-194310000D01*
X330041250Y-194310000D02*
X316071250Y-194310000D01*
X316071250Y-194310000D02*
X316071250Y-180340000D01*
%TO.C,H1*%
X282733750Y-199390000D02*
X296703750Y-199390000D01*
X296703750Y-199390000D02*
X296703750Y-213360000D01*
X296703750Y-213360000D02*
X282733750Y-213360000D01*
X282733750Y-213360000D02*
X282733750Y-199390000D01*
%TO.C,G1*%
X263683750Y-199390000D02*
X277653750Y-199390000D01*
X277653750Y-199390000D02*
X277653750Y-213360000D01*
X277653750Y-213360000D02*
X263683750Y-213360000D01*
X263683750Y-213360000D02*
X263683750Y-199390000D01*
%TO.C,Func1*%
X363696250Y-237490000D02*
X377666250Y-237490000D01*
X377666250Y-237490000D02*
X377666250Y-251460000D01*
X377666250Y-251460000D02*
X363696250Y-251460000D01*
X363696250Y-251460000D02*
X363696250Y-237490000D01*
%TO.C,F1*%
X244633750Y-199390000D02*
X258603750Y-199390000D01*
X258603750Y-199390000D02*
X258603750Y-213360000D01*
X258603750Y-213360000D02*
X244633750Y-213360000D01*
X244633750Y-213360000D02*
X244633750Y-199390000D01*
%TO.C,F2*%
X170993750Y-150975000D02*
X170993750Y-142375000D01*
X170993750Y-150975000D02*
X175093750Y-150975000D01*
X170993750Y-142375000D02*
X175093750Y-142375000D01*
X175093750Y-150975000D02*
X175093750Y-142375000D01*
%TO.C,Esc1*%
X154146250Y-161290000D02*
X168116250Y-161290000D01*
X168116250Y-161290000D02*
X168116250Y-175260000D01*
X168116250Y-175260000D02*
X154146250Y-175260000D01*
X154146250Y-175260000D02*
X154146250Y-161290000D01*
%TO.C,Enter1*%
X408940000Y-199390000D02*
X422910000Y-199390000D01*
X422910000Y-199390000D02*
X422910000Y-213360000D01*
X422910000Y-213360000D02*
X408940000Y-213360000D01*
X408940000Y-213360000D02*
X408940000Y-199390000D01*
%TO.C,ENC1*%
X429275000Y-146168750D02*
X430275000Y-146168750D01*
X429775000Y-145668750D02*
X429775000Y-146668750D01*
X435875000Y-149668750D02*
X435875000Y-152068750D01*
X435875000Y-144868750D02*
X435875000Y-147468750D01*
X435875000Y-140268750D02*
X435875000Y-142668750D01*
X422575000Y-142068750D02*
X422275000Y-142368750D01*
X421975000Y-142068750D02*
X422575000Y-142068750D01*
X422275000Y-142368750D02*
X421975000Y-142068750D01*
X423675000Y-140268750D02*
X423675000Y-152068750D01*
X427775000Y-140268750D02*
X423675000Y-140268750D01*
X427775000Y-152068750D02*
X423675000Y-152068750D01*
X435875000Y-152068750D02*
X431775000Y-152068750D01*
X431775000Y-140268750D02*
X435875000Y-140268750D01*
X432775000Y-146168750D02*
G75*
G03*
X432775000Y-146168750I-3000000J0D01*
G01*
%TO.C,E1*%
X220821250Y-180340000D02*
X234791250Y-180340000D01*
X234791250Y-180340000D02*
X234791250Y-194310000D01*
X234791250Y-194310000D02*
X220821250Y-194310000D01*
X220821250Y-194310000D02*
X220821250Y-180340000D01*
%TO.C,Del1*%
X439896250Y-180340000D02*
X453866250Y-180340000D01*
X453866250Y-180340000D02*
X453866250Y-194310000D01*
X453866250Y-194310000D02*
X439896250Y-194310000D01*
X439896250Y-194310000D02*
X439896250Y-180340000D01*
%TO.C,D76*%
X215015000Y-151280000D02*
X215015000Y-153520000D01*
X215255000Y-151280000D02*
X215255000Y-153520000D01*
X215135000Y-151280000D02*
X215135000Y-153520000D01*
X219305000Y-152400000D02*
X218655000Y-152400000D01*
X213765000Y-152400000D02*
X214415000Y-152400000D01*
X218655000Y-151280000D02*
X214415000Y-151280000D01*
X218655000Y-153520000D02*
X218655000Y-151280000D01*
X214415000Y-153520000D02*
X218655000Y-153520000D01*
X214415000Y-151280000D02*
X214415000Y-153520000D01*
%TO.C,D31*%
X225583750Y-199390000D02*
X239553750Y-199390000D01*
X239553750Y-199390000D02*
X239553750Y-213360000D01*
X239553750Y-213360000D02*
X225583750Y-213360000D01*
X225583750Y-213360000D02*
X225583750Y-199390000D01*
%TO.C,D75*%
X215015000Y-148105000D02*
X215015000Y-150345000D01*
X215255000Y-148105000D02*
X215255000Y-150345000D01*
X215135000Y-148105000D02*
X215135000Y-150345000D01*
X219305000Y-149225000D02*
X218655000Y-149225000D01*
X213765000Y-149225000D02*
X214415000Y-149225000D01*
X218655000Y-148105000D02*
X214415000Y-148105000D01*
X218655000Y-150345000D02*
X218655000Y-148105000D01*
X214415000Y-150345000D02*
X218655000Y-150345000D01*
X214415000Y-148105000D02*
X214415000Y-150345000D01*
%TO.C,CapsL1*%
X161290000Y-199390000D02*
X175260000Y-199390000D01*
X175260000Y-199390000D02*
X175260000Y-213360000D01*
X175260000Y-213360000D02*
X161290000Y-213360000D01*
X161290000Y-213360000D02*
X161290000Y-199390000D01*
%TO.C,C2*%
X170242275Y-146187500D02*
X170242275Y-145687500D01*
X170492275Y-145937500D02*
X169992275Y-145937500D01*
X165086500Y-144746500D02*
X165086500Y-144178500D01*
X165126500Y-144980500D02*
X165126500Y-143944500D01*
X165166500Y-145139500D02*
X165166500Y-143785500D01*
X165206500Y-145267500D02*
X165206500Y-143657500D01*
X165246500Y-145377500D02*
X165246500Y-143547500D01*
X165286500Y-145473500D02*
X165286500Y-143451500D01*
X165326500Y-145560500D02*
X165326500Y-143364500D01*
X165366500Y-145640500D02*
X165366500Y-143284500D01*
X165406500Y-145713500D02*
X165406500Y-143211500D01*
X165446500Y-145781500D02*
X165446500Y-143143500D01*
X165486500Y-145845500D02*
X165486500Y-143079500D01*
X165526500Y-145905500D02*
X165526500Y-143019500D01*
X165566500Y-145962500D02*
X165566500Y-142962500D01*
X165606500Y-146016500D02*
X165606500Y-142908500D01*
X165646500Y-146067500D02*
X165646500Y-142857500D01*
X165686500Y-143422500D02*
X165686500Y-142809500D01*
X165686500Y-146115500D02*
X165686500Y-145502500D01*
X165726500Y-143422500D02*
X165726500Y-142763500D01*
X165726500Y-146161500D02*
X165726500Y-145502500D01*
X165766500Y-143422500D02*
X165766500Y-142719500D01*
X165766500Y-146205500D02*
X165766500Y-145502500D01*
X165806500Y-143422500D02*
X165806500Y-142677500D01*
X165806500Y-146247500D02*
X165806500Y-145502500D01*
X165846500Y-143422500D02*
X165846500Y-142636500D01*
X165846500Y-146288500D02*
X165846500Y-145502500D01*
X165886500Y-143422500D02*
X165886500Y-142598500D01*
X165886500Y-146326500D02*
X165886500Y-145502500D01*
X165926500Y-143422500D02*
X165926500Y-142561500D01*
X165926500Y-146363500D02*
X165926500Y-145502500D01*
X165966500Y-143422500D02*
X165966500Y-142525500D01*
X165966500Y-146399500D02*
X165966500Y-145502500D01*
X166006500Y-143422500D02*
X166006500Y-142491500D01*
X166006500Y-146433500D02*
X166006500Y-145502500D01*
X166046500Y-143422500D02*
X166046500Y-142458500D01*
X166046500Y-146466500D02*
X166046500Y-145502500D01*
X166086500Y-143422500D02*
X166086500Y-142427500D01*
X166086500Y-146497500D02*
X166086500Y-145502500D01*
X166126500Y-143422500D02*
X166126500Y-142397500D01*
X166126500Y-146527500D02*
X166126500Y-145502500D01*
X166166500Y-143422500D02*
X166166500Y-142367500D01*
X166166500Y-146557500D02*
X166166500Y-145502500D01*
X166206500Y-143422500D02*
X166206500Y-142340500D01*
X166206500Y-146584500D02*
X166206500Y-145502500D01*
X166246500Y-143422500D02*
X166246500Y-142313500D01*
X166246500Y-146611500D02*
X166246500Y-145502500D01*
X166286500Y-143422500D02*
X166286500Y-142287500D01*
X166286500Y-146637500D02*
X166286500Y-145502500D01*
X166326500Y-143422500D02*
X166326500Y-142262500D01*
X166326500Y-146662500D02*
X166326500Y-145502500D01*
X166366500Y-143422500D02*
X166366500Y-142238500D01*
X166366500Y-146686500D02*
X166366500Y-145502500D01*
X166406500Y-143422500D02*
X166406500Y-142215500D01*
X166406500Y-146709500D02*
X166406500Y-145502500D01*
X166446500Y-143422500D02*
X166446500Y-142194500D01*
X166446500Y-146730500D02*
X166446500Y-145502500D01*
X166486500Y-143422500D02*
X166486500Y-142172500D01*
X166486500Y-146752500D02*
X166486500Y-145502500D01*
X166526500Y-143422500D02*
X166526500Y-142152500D01*
X166526500Y-146772500D02*
X166526500Y-145502500D01*
X166566500Y-143422500D02*
X166566500Y-142133500D01*
X166566500Y-146791500D02*
X166566500Y-145502500D01*
X166606500Y-143422500D02*
X166606500Y-142114500D01*
X166606500Y-146810500D02*
X166606500Y-145502500D01*
X166646500Y-143422500D02*
X166646500Y-142097500D01*
X166646500Y-146827500D02*
X166646500Y-145502500D01*
X166686500Y-143422500D02*
X166686500Y-142080500D01*
X166686500Y-146844500D02*
X166686500Y-145502500D01*
X166726500Y-143422500D02*
X166726500Y-142064500D01*
X166726500Y-146860500D02*
X166726500Y-145502500D01*
X166766500Y-143422500D02*
X166766500Y-142048500D01*
X166766500Y-146876500D02*
X166766500Y-145502500D01*
X166806500Y-143422500D02*
X166806500Y-142034500D01*
X166806500Y-146890500D02*
X166806500Y-145502500D01*
X166846500Y-143422500D02*
X166846500Y-142020500D01*
X166846500Y-146904500D02*
X166846500Y-145502500D01*
X166886500Y-143422500D02*
X166886500Y-142007500D01*
X166886500Y-146917500D02*
X166886500Y-145502500D01*
X166926500Y-143422500D02*
X166926500Y-141994500D01*
X166926500Y-146930500D02*
X166926500Y-145502500D01*
X166966500Y-143422500D02*
X166966500Y-141982500D01*
X166966500Y-146942500D02*
X166966500Y-145502500D01*
X167007500Y-143422500D02*
X167007500Y-141971500D01*
X167007500Y-146953500D02*
X167007500Y-145502500D01*
X167047500Y-143422500D02*
X167047500Y-141961500D01*
X167047500Y-146963500D02*
X167047500Y-145502500D01*
X167087500Y-143422500D02*
X167087500Y-141951500D01*
X167087500Y-146973500D02*
X167087500Y-145502500D01*
X167127500Y-143422500D02*
X167127500Y-141942500D01*
X167127500Y-146982500D02*
X167127500Y-145502500D01*
X167167500Y-143422500D02*
X167167500Y-141934500D01*
X167167500Y-146990500D02*
X167167500Y-145502500D01*
X167207500Y-143422500D02*
X167207500Y-141926500D01*
X167207500Y-146998500D02*
X167207500Y-145502500D01*
X167247500Y-143422500D02*
X167247500Y-141919500D01*
X167247500Y-147005500D02*
X167247500Y-145502500D01*
X167287500Y-143422500D02*
X167287500Y-141912500D01*
X167287500Y-147012500D02*
X167287500Y-145502500D01*
X167327500Y-143422500D02*
X167327500Y-141906500D01*
X167327500Y-147018500D02*
X167327500Y-145502500D01*
X167367500Y-143422500D02*
X167367500Y-141901500D01*
X167367500Y-147023500D02*
X167367500Y-145502500D01*
X167407500Y-143422500D02*
X167407500Y-141897500D01*
X167407500Y-147027500D02*
X167407500Y-145502500D01*
X167447500Y-143422500D02*
X167447500Y-141893500D01*
X167447500Y-147031500D02*
X167447500Y-145502500D01*
X167487500Y-143422500D02*
X167487500Y-141889500D01*
X167487500Y-147035500D02*
X167487500Y-145502500D01*
X167527500Y-143422500D02*
X167527500Y-141886500D01*
X167527500Y-147038500D02*
X167527500Y-145502500D01*
X167567500Y-143422500D02*
X167567500Y-141884500D01*
X167567500Y-147040500D02*
X167567500Y-145502500D01*
X167607500Y-143422500D02*
X167607500Y-141883500D01*
X167607500Y-147041500D02*
X167607500Y-145502500D01*
X167647500Y-147042500D02*
X167647500Y-145502500D01*
X167647500Y-143422500D02*
X167647500Y-141882500D01*
X167687500Y-147042500D02*
X167687500Y-145502500D01*
X167687500Y-143422500D02*
X167687500Y-141882500D01*
X170307500Y-144462500D02*
G75*
G03*
X170307500Y-144462500I-2620000J0D01*
G01*
%TO.C,C1*%
X235108750Y-218440000D02*
X249078750Y-218440000D01*
X249078750Y-218440000D02*
X249078750Y-232410000D01*
X249078750Y-232410000D02*
X235108750Y-232410000D01*
X235108750Y-232410000D02*
X235108750Y-218440000D01*
%TO.C,C4*%
X298520500Y-134104750D02*
X298520500Y-133789750D01*
X298520500Y-136529750D02*
X298520500Y-136214750D01*
X303760500Y-134104750D02*
X303760500Y-133789750D01*
X303760500Y-136529750D02*
X303760500Y-136214750D01*
X303760500Y-133789750D02*
X298520500Y-133789750D01*
X303760500Y-136529750D02*
X298520500Y-136529750D01*
%TO.C,C3*%
X301347500Y-157900000D02*
X301347500Y-158215000D01*
X301347500Y-155475000D02*
X301347500Y-155790000D01*
X296107500Y-157900000D02*
X296107500Y-158215000D01*
X296107500Y-155475000D02*
X296107500Y-155790000D01*
X296107500Y-158215000D02*
X301347500Y-158215000D01*
X296107500Y-155475000D02*
X301347500Y-155475000D01*
%TO.C,C6*%
X331891000Y-139485000D02*
X331891000Y-139800000D01*
X331891000Y-137060000D02*
X331891000Y-137375000D01*
X326651000Y-139485000D02*
X326651000Y-139800000D01*
X326651000Y-137060000D02*
X326651000Y-137375000D01*
X326651000Y-139800000D02*
X331891000Y-139800000D01*
X326651000Y-137060000D02*
X331891000Y-137060000D01*
%TO.C,C5*%
X331891000Y-154725000D02*
X331891000Y-155040000D01*
X331891000Y-152300000D02*
X331891000Y-152615000D01*
X326651000Y-154725000D02*
X326651000Y-155040000D01*
X326651000Y-152300000D02*
X326651000Y-152615000D01*
X326651000Y-155040000D02*
X331891000Y-155040000D01*
X326651000Y-152300000D02*
X331891000Y-152300000D01*
%TO.C,BOOT1*%
X195755000Y-142481250D02*
X197255000Y-142481250D01*
X199755000Y-141231250D02*
X199755000Y-136731250D01*
X197255000Y-135481250D02*
X195755000Y-135481250D01*
X193255000Y-136731250D02*
X193255000Y-141231250D01*
%TO.C,Bksp1*%
X411321250Y-161290000D02*
X425291250Y-161290000D01*
X425291250Y-161290000D02*
X425291250Y-175260000D01*
X425291250Y-175260000D02*
X411321250Y-175260000D01*
X411321250Y-175260000D02*
X411321250Y-161290000D01*
%TO.C,B1*%
X273208750Y-218440000D02*
X287178750Y-218440000D01*
X287178750Y-218440000D02*
X287178750Y-232410000D01*
X287178750Y-232410000D02*
X273208750Y-232410000D01*
X273208750Y-232410000D02*
X273208750Y-218440000D01*
%TO.C,ArrowUp1*%
X420846250Y-218440000D02*
X434816250Y-218440000D01*
X434816250Y-218440000D02*
X434816250Y-232410000D01*
X434816250Y-232410000D02*
X420846250Y-232410000D01*
X420846250Y-232410000D02*
X420846250Y-218440000D01*
%TO.C,ArrowRight1*%
X439896250Y-237490000D02*
X453866250Y-237490000D01*
X453866250Y-237490000D02*
X453866250Y-251460000D01*
X453866250Y-251460000D02*
X439896250Y-251460000D01*
X439896250Y-251460000D02*
X439896250Y-237490000D01*
%TO.C,ArrowLeft1*%
X401796250Y-237490000D02*
X415766250Y-237490000D01*
X415766250Y-237490000D02*
X415766250Y-251460000D01*
X415766250Y-251460000D02*
X401796250Y-251460000D01*
X401796250Y-251460000D02*
X401796250Y-237490000D01*
%TO.C,ArrowDown1*%
X420846250Y-237490000D02*
X434816250Y-237490000D01*
X434816250Y-237490000D02*
X434816250Y-251460000D01*
X434816250Y-251460000D02*
X420846250Y-251460000D01*
X420846250Y-251460000D02*
X420846250Y-237490000D01*
%TO.C,A1*%
X187483750Y-199390000D02*
X201453750Y-199390000D01*
X201453750Y-199390000D02*
X201453750Y-213360000D01*
X201453750Y-213360000D02*
X187483750Y-213360000D01*
X187483750Y-213360000D02*
X187483750Y-199390000D01*
%TO.C,`1*%
X439896250Y-161290000D02*
X453866250Y-161290000D01*
X453866250Y-161290000D02*
X453866250Y-175260000D01*
X453866250Y-175260000D02*
X439896250Y-175260000D01*
X439896250Y-175260000D02*
X439896250Y-161290000D01*
%TO.C,]1*%
X392271250Y-180340000D02*
X406241250Y-180340000D01*
X406241250Y-180340000D02*
X406241250Y-194310000D01*
X406241250Y-194310000D02*
X392271250Y-194310000D01*
X392271250Y-194310000D02*
X392271250Y-180340000D01*
%TO.C,\u005C1*%
X416083750Y-180340000D02*
X430053750Y-180340000D01*
X430053750Y-180340000D02*
X430053750Y-194310000D01*
X430053750Y-194310000D02*
X416083750Y-194310000D01*
X416083750Y-194310000D02*
X416083750Y-180340000D01*
%TO.C,[1*%
X373221250Y-180340000D02*
X387191250Y-180340000D01*
X387191250Y-180340000D02*
X387191250Y-194310000D01*
X387191250Y-194310000D02*
X373221250Y-194310000D01*
X373221250Y-194310000D02*
X373221250Y-180340000D01*
%TO.C,=1*%
X382746250Y-161290000D02*
X396716250Y-161290000D01*
X396716250Y-161290000D02*
X396716250Y-175260000D01*
X396716250Y-175260000D02*
X382746250Y-175260000D01*
X382746250Y-175260000D02*
X382746250Y-161290000D01*
%TO.C,;1*%
X358933750Y-199390000D02*
X372903750Y-199390000D01*
X372903750Y-199390000D02*
X372903750Y-213360000D01*
X372903750Y-213360000D02*
X358933750Y-213360000D01*
X358933750Y-213360000D02*
X358933750Y-199390000D01*
%TO.C,/1*%
X368458750Y-218440000D02*
X382428750Y-218440000D01*
X382428750Y-218440000D02*
X382428750Y-232410000D01*
X382428750Y-232410000D02*
X368458750Y-232410000D01*
X368458750Y-232410000D02*
X368458750Y-218440000D01*
%TO.C,-1*%
X363696250Y-161290000D02*
X377666250Y-161290000D01*
X377666250Y-161290000D02*
X377666250Y-175260000D01*
X377666250Y-175260000D02*
X363696250Y-175260000D01*
X363696250Y-175260000D02*
X363696250Y-161290000D01*
%TO.C,'1*%
X377983750Y-199390000D02*
X391953750Y-199390000D01*
X391953750Y-199390000D02*
X391953750Y-213360000D01*
X391953750Y-213360000D02*
X377983750Y-213360000D01*
X377983750Y-213360000D02*
X377983750Y-199390000D01*
%TO.C,.1*%
X349408750Y-218440000D02*
X363378750Y-218440000D01*
X363378750Y-218440000D02*
X363378750Y-232410000D01*
X363378750Y-232410000D02*
X349408750Y-232410000D01*
X349408750Y-232410000D02*
X349408750Y-218440000D01*
%TO.C,\u002C1*%
X330358750Y-218440000D02*
X344328750Y-218440000D01*
X344328750Y-218440000D02*
X344328750Y-232410000D01*
X344328750Y-232410000D02*
X330358750Y-232410000D01*
X330358750Y-232410000D02*
X330358750Y-218440000D01*
%TO.C,DS1*%
D10*
X379747714Y-144839630D02*
X379747714Y-143839630D01*
X379985809Y-143839630D01*
X380128666Y-143887250D01*
X380223904Y-143982488D01*
X380271523Y-144077726D01*
X380319142Y-144268202D01*
X380319142Y-144411059D01*
X380271523Y-144601535D01*
X380223904Y-144696773D01*
X380128666Y-144792011D01*
X379985809Y-144839630D01*
X379747714Y-144839630D01*
X380700095Y-144792011D02*
X380842952Y-144839630D01*
X381081047Y-144839630D01*
X381176285Y-144792011D01*
X381223904Y-144744392D01*
X381271523Y-144649154D01*
X381271523Y-144553916D01*
X381223904Y-144458678D01*
X381176285Y-144411059D01*
X381081047Y-144363440D01*
X380890571Y-144315821D01*
X380795333Y-144268202D01*
X380747714Y-144220583D01*
X380700095Y-144125345D01*
X380700095Y-144030107D01*
X380747714Y-143934869D01*
X380795333Y-143887250D01*
X380890571Y-143839630D01*
X381128666Y-143839630D01*
X381271523Y-143887250D01*
X382223904Y-144839630D02*
X381652476Y-144839630D01*
X381938190Y-144839630D02*
X381938190Y-143839630D01*
X381842952Y-143982488D01*
X381747714Y-144077726D01*
X381652476Y-144125345D01*
%TO.C,U2*%
X321270380Y-146811904D02*
X322079904Y-146811904D01*
X322175142Y-146764285D01*
X322222761Y-146716666D01*
X322270380Y-146621428D01*
X322270380Y-146430952D01*
X322222761Y-146335714D01*
X322175142Y-146288095D01*
X322079904Y-146240476D01*
X321270380Y-146240476D01*
X321365619Y-145811904D02*
X321318000Y-145764285D01*
X321270380Y-145669047D01*
X321270380Y-145430952D01*
X321318000Y-145335714D01*
X321365619Y-145288095D01*
X321460857Y-145240476D01*
X321556095Y-145240476D01*
X321698952Y-145288095D01*
X322270380Y-145859523D01*
X322270380Y-145240476D01*
%TO.C,RCtrl1*%
X388207440Y-237053380D02*
X387874107Y-236577190D01*
X387636011Y-237053380D02*
X387636011Y-236053380D01*
X388016964Y-236053380D01*
X388112202Y-236101000D01*
X388159821Y-236148619D01*
X388207440Y-236243857D01*
X388207440Y-236386714D01*
X388159821Y-236481952D01*
X388112202Y-236529571D01*
X388016964Y-236577190D01*
X387636011Y-236577190D01*
X389207440Y-236958142D02*
X389159821Y-237005761D01*
X389016964Y-237053380D01*
X388921726Y-237053380D01*
X388778869Y-237005761D01*
X388683630Y-236910523D01*
X388636011Y-236815285D01*
X388588392Y-236624809D01*
X388588392Y-236481952D01*
X388636011Y-236291476D01*
X388683630Y-236196238D01*
X388778869Y-236101000D01*
X388921726Y-236053380D01*
X389016964Y-236053380D01*
X389159821Y-236101000D01*
X389207440Y-236148619D01*
X389493154Y-236386714D02*
X389874107Y-236386714D01*
X389636011Y-236053380D02*
X389636011Y-236910523D01*
X389683630Y-237005761D01*
X389778869Y-237053380D01*
X389874107Y-237053380D01*
X390207440Y-237053380D02*
X390207440Y-236386714D01*
X390207440Y-236577190D02*
X390255059Y-236481952D01*
X390302678Y-236434333D01*
X390397916Y-236386714D01*
X390493154Y-236386714D01*
X390969345Y-237053380D02*
X390874107Y-237005761D01*
X390826488Y-236910523D01*
X390826488Y-236053380D01*
X391874107Y-237053380D02*
X391302678Y-237053380D01*
X391588392Y-237053380D02*
X391588392Y-236053380D01*
X391493154Y-236196238D01*
X391397916Y-236291476D01*
X391302678Y-236339095D01*
%TO.C,Z1*%
X203184226Y-217003380D02*
X203850892Y-217003380D01*
X203184226Y-218003380D01*
X203850892Y-218003380D01*
X204755654Y-218003380D02*
X204184226Y-218003380D01*
X204469940Y-218003380D02*
X204469940Y-217003380D01*
X204374702Y-217146238D01*
X204279464Y-217241476D01*
X204184226Y-217289095D01*
%TO.C,Y1*%
X284480059Y-179427190D02*
X284480059Y-179903380D01*
X284146726Y-178903380D02*
X284480059Y-179427190D01*
X284813392Y-178903380D01*
X285670535Y-179903380D02*
X285099107Y-179903380D01*
X285384821Y-179903380D02*
X285384821Y-178903380D01*
X285289583Y-179046238D01*
X285194345Y-179141476D01*
X285099107Y-179189095D01*
%TO.C,Y2*%
X328525190Y-146526190D02*
X329001380Y-146526190D01*
X328001380Y-146859523D02*
X328525190Y-146526190D01*
X328001380Y-146192857D01*
X328096619Y-145907142D02*
X328049000Y-145859523D01*
X328001380Y-145764285D01*
X328001380Y-145526190D01*
X328049000Y-145430952D01*
X328096619Y-145383333D01*
X328191857Y-145335714D01*
X328287095Y-145335714D01*
X328429952Y-145383333D01*
X329001380Y-145954761D01*
X329001380Y-145335714D01*
%TO.C,X1*%
X222234226Y-217003380D02*
X222900892Y-218003380D01*
X222900892Y-217003380D02*
X222234226Y-218003380D01*
X223805654Y-218003380D02*
X223234226Y-218003380D01*
X223519940Y-218003380D02*
X223519940Y-217003380D01*
X223424702Y-217146238D01*
X223329464Y-217241476D01*
X223234226Y-217289095D01*
%TO.C,Win1*%
X185729761Y-236053380D02*
X185967857Y-237053380D01*
X186158333Y-236339095D01*
X186348809Y-237053380D01*
X186586904Y-236053380D01*
X186967857Y-237053380D02*
X186967857Y-236386714D01*
X186967857Y-236053380D02*
X186920238Y-236101000D01*
X186967857Y-236148619D01*
X187015476Y-236101000D01*
X186967857Y-236053380D01*
X186967857Y-236148619D01*
X187444047Y-236386714D02*
X187444047Y-237053380D01*
X187444047Y-236481952D02*
X187491666Y-236434333D01*
X187586904Y-236386714D01*
X187729761Y-236386714D01*
X187825000Y-236434333D01*
X187872619Y-236529571D01*
X187872619Y-237053380D01*
X188872619Y-237053380D02*
X188301190Y-237053380D01*
X188586904Y-237053380D02*
X188586904Y-236053380D01*
X188491666Y-236196238D01*
X188396428Y-236291476D01*
X188301190Y-236339095D01*
%TO.C,W1*%
X207851488Y-178903380D02*
X208089583Y-179903380D01*
X208280059Y-179189095D01*
X208470535Y-179903380D01*
X208708630Y-178903380D01*
X209613392Y-179903380D02*
X209041964Y-179903380D01*
X209327678Y-179903380D02*
X209327678Y-178903380D01*
X209232440Y-179046238D01*
X209137202Y-179141476D01*
X209041964Y-179189095D01*
%TO.C,V1*%
X260334226Y-217003380D02*
X260667559Y-218003380D01*
X261000892Y-217003380D01*
X261858035Y-218003380D02*
X261286607Y-218003380D01*
X261572321Y-218003380D02*
X261572321Y-217003380D01*
X261477083Y-217146238D01*
X261381845Y-217241476D01*
X261286607Y-217289095D01*
%TO.C,U1*%
X303244345Y-178903380D02*
X303244345Y-179712904D01*
X303291964Y-179808142D01*
X303339583Y-179855761D01*
X303434821Y-179903380D01*
X303625297Y-179903380D01*
X303720535Y-179855761D01*
X303768154Y-179808142D01*
X303815773Y-179712904D01*
X303815773Y-178903380D01*
X304815773Y-179903380D02*
X304244345Y-179903380D01*
X304530059Y-179903380D02*
X304530059Y-178903380D01*
X304434821Y-179046238D01*
X304339583Y-179141476D01*
X304244345Y-179189095D01*
%TO.C,Tab1*%
X164227083Y-178903380D02*
X164798511Y-178903380D01*
X164512797Y-179903380D02*
X164512797Y-178903380D01*
X165560416Y-179903380D02*
X165560416Y-179379571D01*
X165512797Y-179284333D01*
X165417559Y-179236714D01*
X165227083Y-179236714D01*
X165131845Y-179284333D01*
X165560416Y-179855761D02*
X165465178Y-179903380D01*
X165227083Y-179903380D01*
X165131845Y-179855761D01*
X165084226Y-179760523D01*
X165084226Y-179665285D01*
X165131845Y-179570047D01*
X165227083Y-179522428D01*
X165465178Y-179522428D01*
X165560416Y-179474809D01*
X166036607Y-179903380D02*
X166036607Y-178903380D01*
X166036607Y-179284333D02*
X166131845Y-179236714D01*
X166322321Y-179236714D01*
X166417559Y-179284333D01*
X166465178Y-179331952D01*
X166512797Y-179427190D01*
X166512797Y-179712904D01*
X166465178Y-179808142D01*
X166417559Y-179855761D01*
X166322321Y-179903380D01*
X166131845Y-179903380D01*
X166036607Y-179855761D01*
X167465178Y-179903380D02*
X166893750Y-179903380D01*
X167179464Y-179903380D02*
X167179464Y-178903380D01*
X167084226Y-179046238D01*
X166988988Y-179141476D01*
X166893750Y-179189095D01*
%TO.C,T1*%
X265144345Y-178903380D02*
X265715773Y-178903380D01*
X265430059Y-179903380D02*
X265430059Y-178903380D01*
X266572916Y-179903380D02*
X266001488Y-179903380D01*
X266287202Y-179903380D02*
X266287202Y-178903380D01*
X266191964Y-179046238D01*
X266096726Y-179141476D01*
X266001488Y-179189095D01*
%TO.C,Space1*%
X280051190Y-237005761D02*
X280194047Y-237053380D01*
X280432142Y-237053380D01*
X280527380Y-237005761D01*
X280575000Y-236958142D01*
X280622619Y-236862904D01*
X280622619Y-236767666D01*
X280575000Y-236672428D01*
X280527380Y-236624809D01*
X280432142Y-236577190D01*
X280241666Y-236529571D01*
X280146428Y-236481952D01*
X280098809Y-236434333D01*
X280051190Y-236339095D01*
X280051190Y-236243857D01*
X280098809Y-236148619D01*
X280146428Y-236101000D01*
X280241666Y-236053380D01*
X280479761Y-236053380D01*
X280622619Y-236101000D01*
X281051190Y-236386714D02*
X281051190Y-237386714D01*
X281051190Y-236434333D02*
X281146428Y-236386714D01*
X281336904Y-236386714D01*
X281432142Y-236434333D01*
X281479761Y-236481952D01*
X281527380Y-236577190D01*
X281527380Y-236862904D01*
X281479761Y-236958142D01*
X281432142Y-237005761D01*
X281336904Y-237053380D01*
X281146428Y-237053380D01*
X281051190Y-237005761D01*
X282384523Y-237053380D02*
X282384523Y-236529571D01*
X282336904Y-236434333D01*
X282241666Y-236386714D01*
X282051190Y-236386714D01*
X281955952Y-236434333D01*
X282384523Y-237005761D02*
X282289285Y-237053380D01*
X282051190Y-237053380D01*
X281955952Y-237005761D01*
X281908333Y-236910523D01*
X281908333Y-236815285D01*
X281955952Y-236720047D01*
X282051190Y-236672428D01*
X282289285Y-236672428D01*
X282384523Y-236624809D01*
X283289285Y-237005761D02*
X283194047Y-237053380D01*
X283003571Y-237053380D01*
X282908333Y-237005761D01*
X282860714Y-236958142D01*
X282813095Y-236862904D01*
X282813095Y-236577190D01*
X282860714Y-236481952D01*
X282908333Y-236434333D01*
X283003571Y-236386714D01*
X283194047Y-236386714D01*
X283289285Y-236434333D01*
X284098809Y-237005761D02*
X284003571Y-237053380D01*
X283813095Y-237053380D01*
X283717857Y-237005761D01*
X283670238Y-236910523D01*
X283670238Y-236529571D01*
X283717857Y-236434333D01*
X283813095Y-236386714D01*
X284003571Y-236386714D01*
X284098809Y-236434333D01*
X284146428Y-236529571D01*
X284146428Y-236624809D01*
X283670238Y-236720047D01*
X285098809Y-237053380D02*
X284527380Y-237053380D01*
X284813095Y-237053380D02*
X284813095Y-236053380D01*
X284717857Y-236196238D01*
X284622619Y-236291476D01*
X284527380Y-236339095D01*
%TO.C,S1*%
X212756845Y-198905761D02*
X212899702Y-198953380D01*
X213137797Y-198953380D01*
X213233035Y-198905761D01*
X213280654Y-198858142D01*
X213328273Y-198762904D01*
X213328273Y-198667666D01*
X213280654Y-198572428D01*
X213233035Y-198524809D01*
X213137797Y-198477190D01*
X212947321Y-198429571D01*
X212852083Y-198381952D01*
X212804464Y-198334333D01*
X212756845Y-198239095D01*
X212756845Y-198143857D01*
X212804464Y-198048619D01*
X212852083Y-198001000D01*
X212947321Y-197953380D01*
X213185416Y-197953380D01*
X213328273Y-198001000D01*
X214280654Y-198953380D02*
X213709226Y-198953380D01*
X213994940Y-198953380D02*
X213994940Y-197953380D01*
X213899702Y-198096238D01*
X213804464Y-198191476D01*
X213709226Y-198239095D01*
%TO.C,RShift1*%
X399732738Y-218003380D02*
X399399404Y-217527190D01*
X399161309Y-218003380D02*
X399161309Y-217003380D01*
X399542261Y-217003380D01*
X399637500Y-217051000D01*
X399685119Y-217098619D01*
X399732738Y-217193857D01*
X399732738Y-217336714D01*
X399685119Y-217431952D01*
X399637500Y-217479571D01*
X399542261Y-217527190D01*
X399161309Y-217527190D01*
X400113690Y-217955761D02*
X400256547Y-218003380D01*
X400494642Y-218003380D01*
X400589880Y-217955761D01*
X400637500Y-217908142D01*
X400685119Y-217812904D01*
X400685119Y-217717666D01*
X400637500Y-217622428D01*
X400589880Y-217574809D01*
X400494642Y-217527190D01*
X400304166Y-217479571D01*
X400208928Y-217431952D01*
X400161309Y-217384333D01*
X400113690Y-217289095D01*
X400113690Y-217193857D01*
X400161309Y-217098619D01*
X400208928Y-217051000D01*
X400304166Y-217003380D01*
X400542261Y-217003380D01*
X400685119Y-217051000D01*
X401113690Y-218003380D02*
X401113690Y-217003380D01*
X401542261Y-218003380D02*
X401542261Y-217479571D01*
X401494642Y-217384333D01*
X401399404Y-217336714D01*
X401256547Y-217336714D01*
X401161309Y-217384333D01*
X401113690Y-217431952D01*
X402018452Y-218003380D02*
X402018452Y-217336714D01*
X402018452Y-217003380D02*
X401970833Y-217051000D01*
X402018452Y-217098619D01*
X402066071Y-217051000D01*
X402018452Y-217003380D01*
X402018452Y-217098619D01*
X402351785Y-217336714D02*
X402732738Y-217336714D01*
X402494642Y-218003380D02*
X402494642Y-217146238D01*
X402542261Y-217051000D01*
X402637500Y-217003380D01*
X402732738Y-217003380D01*
X402923214Y-217336714D02*
X403304166Y-217336714D01*
X403066071Y-217003380D02*
X403066071Y-217860523D01*
X403113690Y-217955761D01*
X403208928Y-218003380D01*
X403304166Y-218003380D01*
X404161309Y-218003380D02*
X403589880Y-218003380D01*
X403875595Y-218003380D02*
X403875595Y-217003380D01*
X403780357Y-217146238D01*
X403685119Y-217241476D01*
X403589880Y-217289095D01*
%TO.C,RESET1*%
X202723904Y-144978380D02*
X202390571Y-144502190D01*
X202152476Y-144978380D02*
X202152476Y-143978380D01*
X202533428Y-143978380D01*
X202628666Y-144026000D01*
X202676285Y-144073619D01*
X202723904Y-144168857D01*
X202723904Y-144311714D01*
X202676285Y-144406952D01*
X202628666Y-144454571D01*
X202533428Y-144502190D01*
X202152476Y-144502190D01*
X203533428Y-144930761D02*
X203438190Y-144978380D01*
X203247714Y-144978380D01*
X203152476Y-144930761D01*
X203104857Y-144835523D01*
X203104857Y-144454571D01*
X203152476Y-144359333D01*
X203247714Y-144311714D01*
X203438190Y-144311714D01*
X203533428Y-144359333D01*
X203581047Y-144454571D01*
X203581047Y-144549809D01*
X203104857Y-144645047D01*
X203962000Y-144930761D02*
X204057238Y-144978380D01*
X204247714Y-144978380D01*
X204342952Y-144930761D01*
X204390571Y-144835523D01*
X204390571Y-144787904D01*
X204342952Y-144692666D01*
X204247714Y-144645047D01*
X204104857Y-144645047D01*
X204009619Y-144597428D01*
X203962000Y-144502190D01*
X203962000Y-144454571D01*
X204009619Y-144359333D01*
X204104857Y-144311714D01*
X204247714Y-144311714D01*
X204342952Y-144359333D01*
X205200095Y-144930761D02*
X205104857Y-144978380D01*
X204914380Y-144978380D01*
X204819142Y-144930761D01*
X204771523Y-144835523D01*
X204771523Y-144454571D01*
X204819142Y-144359333D01*
X204914380Y-144311714D01*
X205104857Y-144311714D01*
X205200095Y-144359333D01*
X205247714Y-144454571D01*
X205247714Y-144549809D01*
X204771523Y-144645047D01*
X205533428Y-144311714D02*
X205914380Y-144311714D01*
X205676285Y-143978380D02*
X205676285Y-144835523D01*
X205723904Y-144930761D01*
X205819142Y-144978380D01*
X205914380Y-144978380D01*
%TO.C,RAlt1*%
X350488392Y-237053380D02*
X350155059Y-236577190D01*
X349916964Y-237053380D02*
X349916964Y-236053380D01*
X350297916Y-236053380D01*
X350393154Y-236101000D01*
X350440773Y-236148619D01*
X350488392Y-236243857D01*
X350488392Y-236386714D01*
X350440773Y-236481952D01*
X350393154Y-236529571D01*
X350297916Y-236577190D01*
X349916964Y-236577190D01*
X350869345Y-236767666D02*
X351345535Y-236767666D01*
X350774107Y-237053380D02*
X351107440Y-236053380D01*
X351440773Y-237053380D01*
X351916964Y-237053380D02*
X351821726Y-237005761D01*
X351774107Y-236910523D01*
X351774107Y-236053380D01*
X352155059Y-236386714D02*
X352536011Y-236386714D01*
X352297916Y-236053380D02*
X352297916Y-236910523D01*
X352345535Y-237005761D01*
X352440773Y-237053380D01*
X352536011Y-237053380D01*
X353393154Y-237053380D02*
X352821726Y-237053380D01*
X353107440Y-237053380D02*
X353107440Y-236053380D01*
X353012202Y-236196238D01*
X352916964Y-236291476D01*
X352821726Y-236339095D01*
%TO.C,R3*%
X334621130Y-146057916D02*
X334144940Y-146391250D01*
X334621130Y-146629345D02*
X333621130Y-146629345D01*
X333621130Y-146248392D01*
X333668750Y-146153154D01*
X333716369Y-146105535D01*
X333811607Y-146057916D01*
X333954464Y-146057916D01*
X334049702Y-146105535D01*
X334097321Y-146153154D01*
X334144940Y-146248392D01*
X334144940Y-146629345D01*
X333621130Y-145724583D02*
X333621130Y-145105535D01*
X334002083Y-145438869D01*
X334002083Y-145296011D01*
X334049702Y-145200773D01*
X334097321Y-145153154D01*
X334192559Y-145105535D01*
X334430654Y-145105535D01*
X334525892Y-145153154D01*
X334573511Y-145200773D01*
X334621130Y-145296011D01*
X334621130Y-145581726D01*
X334573511Y-145676964D01*
X334525892Y-145724583D01*
X335874464Y-147153154D02*
X336541130Y-147153154D01*
X335493511Y-147391250D02*
X336207797Y-147629345D01*
X336207797Y-147010297D01*
X335541130Y-146724583D02*
X335541130Y-146057916D01*
X336541130Y-146486488D01*
X335541130Y-145486488D02*
X335541130Y-145391250D01*
X335588750Y-145296011D01*
X335636369Y-145248392D01*
X335731607Y-145200773D01*
X335922083Y-145153154D01*
X336160178Y-145153154D01*
X336350654Y-145200773D01*
X336445892Y-145248392D01*
X336493511Y-145296011D01*
X336541130Y-145391250D01*
X336541130Y-145486488D01*
X336493511Y-145581726D01*
X336445892Y-145629345D01*
X336350654Y-145676964D01*
X336160178Y-145724583D01*
X335922083Y-145724583D01*
X335731607Y-145676964D01*
X335636369Y-145629345D01*
X335588750Y-145581726D01*
X335541130Y-145486488D01*
X336541130Y-144153154D02*
X336064940Y-144486488D01*
X336541130Y-144724583D02*
X335541130Y-144724583D01*
X335541130Y-144343630D01*
X335588750Y-144248392D01*
X335636369Y-144200773D01*
X335731607Y-144153154D01*
X335874464Y-144153154D01*
X335969702Y-144200773D01*
X336017321Y-144248392D01*
X336064940Y-144343630D01*
X336064940Y-144724583D01*
%TO.C,R1*%
X246689583Y-179903380D02*
X246356250Y-179427190D01*
X246118154Y-179903380D02*
X246118154Y-178903380D01*
X246499107Y-178903380D01*
X246594345Y-178951000D01*
X246641964Y-178998619D01*
X246689583Y-179093857D01*
X246689583Y-179236714D01*
X246641964Y-179331952D01*
X246594345Y-179379571D01*
X246499107Y-179427190D01*
X246118154Y-179427190D01*
X247641964Y-179903380D02*
X247070535Y-179903380D01*
X247356250Y-179903380D02*
X247356250Y-178903380D01*
X247261011Y-179046238D01*
X247165773Y-179141476D01*
X247070535Y-179189095D01*
%TO.C,R8*%
X230179583Y-146502380D02*
X229846250Y-146026190D01*
X229608154Y-146502380D02*
X229608154Y-145502380D01*
X229989107Y-145502380D01*
X230084345Y-145550000D01*
X230131964Y-145597619D01*
X230179583Y-145692857D01*
X230179583Y-145835714D01*
X230131964Y-145930952D01*
X230084345Y-145978571D01*
X229989107Y-146026190D01*
X229608154Y-146026190D01*
X230751011Y-145930952D02*
X230655773Y-145883333D01*
X230608154Y-145835714D01*
X230560535Y-145740476D01*
X230560535Y-145692857D01*
X230608154Y-145597619D01*
X230655773Y-145550000D01*
X230751011Y-145502380D01*
X230941488Y-145502380D01*
X231036726Y-145550000D01*
X231084345Y-145597619D01*
X231131964Y-145692857D01*
X231131964Y-145740476D01*
X231084345Y-145835714D01*
X231036726Y-145883333D01*
X230941488Y-145930952D01*
X230751011Y-145930952D01*
X230655773Y-145978571D01*
X230608154Y-146026190D01*
X230560535Y-146121428D01*
X230560535Y-146311904D01*
X230608154Y-146407142D01*
X230655773Y-146454761D01*
X230751011Y-146502380D01*
X230941488Y-146502380D01*
X231036726Y-146454761D01*
X231084345Y-146407142D01*
X231131964Y-146311904D01*
X231131964Y-146121428D01*
X231084345Y-146026190D01*
X231036726Y-145978571D01*
X230941488Y-145930952D01*
X234735761Y-146502380D02*
X234164333Y-146502380D01*
X234450047Y-146502380D02*
X234450047Y-145502380D01*
X234354809Y-145645238D01*
X234259571Y-145740476D01*
X234164333Y-145788095D01*
X235354809Y-145502380D02*
X235450047Y-145502380D01*
X235545285Y-145550000D01*
X235592904Y-145597619D01*
X235640523Y-145692857D01*
X235688142Y-145883333D01*
X235688142Y-146121428D01*
X235640523Y-146311904D01*
X235592904Y-146407142D01*
X235545285Y-146454761D01*
X235450047Y-146502380D01*
X235354809Y-146502380D01*
X235259571Y-146454761D01*
X235211952Y-146407142D01*
X235164333Y-146311904D01*
X235116714Y-146121428D01*
X235116714Y-145883333D01*
X235164333Y-145692857D01*
X235211952Y-145597619D01*
X235259571Y-145550000D01*
X235354809Y-145502380D01*
X236116714Y-146502380D02*
X236116714Y-145502380D01*
X236211952Y-146121428D02*
X236497666Y-146502380D01*
X236497666Y-145835714D02*
X236116714Y-146216666D01*
%TO.C,R7*%
X230179583Y-149677380D02*
X229846250Y-149201190D01*
X229608154Y-149677380D02*
X229608154Y-148677380D01*
X229989107Y-148677380D01*
X230084345Y-148725000D01*
X230131964Y-148772619D01*
X230179583Y-148867857D01*
X230179583Y-149010714D01*
X230131964Y-149105952D01*
X230084345Y-149153571D01*
X229989107Y-149201190D01*
X229608154Y-149201190D01*
X230512916Y-148677380D02*
X231179583Y-148677380D01*
X230751011Y-149677380D01*
X234545285Y-148677380D02*
X234354809Y-148677380D01*
X234259571Y-148725000D01*
X234211952Y-148772619D01*
X234116714Y-148915476D01*
X234069095Y-149105952D01*
X234069095Y-149486904D01*
X234116714Y-149582142D01*
X234164333Y-149629761D01*
X234259571Y-149677380D01*
X234450047Y-149677380D01*
X234545285Y-149629761D01*
X234592904Y-149582142D01*
X234640523Y-149486904D01*
X234640523Y-149248809D01*
X234592904Y-149153571D01*
X234545285Y-149105952D01*
X234450047Y-149058333D01*
X234259571Y-149058333D01*
X234164333Y-149105952D01*
X234116714Y-149153571D01*
X234069095Y-149248809D01*
X235211952Y-149105952D02*
X235116714Y-149058333D01*
X235069095Y-149010714D01*
X235021476Y-148915476D01*
X235021476Y-148867857D01*
X235069095Y-148772619D01*
X235116714Y-148725000D01*
X235211952Y-148677380D01*
X235402428Y-148677380D01*
X235497666Y-148725000D01*
X235545285Y-148772619D01*
X235592904Y-148867857D01*
X235592904Y-148915476D01*
X235545285Y-149010714D01*
X235497666Y-149058333D01*
X235402428Y-149105952D01*
X235211952Y-149105952D01*
X235116714Y-149153571D01*
X235069095Y-149201190D01*
X235021476Y-149296428D01*
X235021476Y-149486904D01*
X235069095Y-149582142D01*
X235116714Y-149629761D01*
X235211952Y-149677380D01*
X235402428Y-149677380D01*
X235497666Y-149629761D01*
X235545285Y-149582142D01*
X235592904Y-149486904D01*
X235592904Y-149296428D01*
X235545285Y-149201190D01*
X235497666Y-149153571D01*
X235402428Y-149105952D01*
X236592904Y-149677380D02*
X236259571Y-149201190D01*
X236021476Y-149677380D02*
X236021476Y-148677380D01*
X236402428Y-148677380D01*
X236497666Y-148725000D01*
X236545285Y-148772619D01*
X236592904Y-148867857D01*
X236592904Y-149010714D01*
X236545285Y-149105952D01*
X236497666Y-149153571D01*
X236402428Y-149201190D01*
X236021476Y-149201190D01*
%TO.C,R6*%
X230179583Y-152852380D02*
X229846250Y-152376190D01*
X229608154Y-152852380D02*
X229608154Y-151852380D01*
X229989107Y-151852380D01*
X230084345Y-151900000D01*
X230131964Y-151947619D01*
X230179583Y-152042857D01*
X230179583Y-152185714D01*
X230131964Y-152280952D01*
X230084345Y-152328571D01*
X229989107Y-152376190D01*
X229608154Y-152376190D01*
X231036726Y-151852380D02*
X230846250Y-151852380D01*
X230751011Y-151900000D01*
X230703392Y-151947619D01*
X230608154Y-152090476D01*
X230560535Y-152280952D01*
X230560535Y-152661904D01*
X230608154Y-152757142D01*
X230655773Y-152804761D01*
X230751011Y-152852380D01*
X230941488Y-152852380D01*
X231036726Y-152804761D01*
X231084345Y-152757142D01*
X231131964Y-152661904D01*
X231131964Y-152423809D01*
X231084345Y-152328571D01*
X231036726Y-152280952D01*
X230941488Y-152233333D01*
X230751011Y-152233333D01*
X230655773Y-152280952D01*
X230608154Y-152328571D01*
X230560535Y-152423809D01*
X234545285Y-151852380D02*
X234354809Y-151852380D01*
X234259571Y-151900000D01*
X234211952Y-151947619D01*
X234116714Y-152090476D01*
X234069095Y-152280952D01*
X234069095Y-152661904D01*
X234116714Y-152757142D01*
X234164333Y-152804761D01*
X234259571Y-152852380D01*
X234450047Y-152852380D01*
X234545285Y-152804761D01*
X234592904Y-152757142D01*
X234640523Y-152661904D01*
X234640523Y-152423809D01*
X234592904Y-152328571D01*
X234545285Y-152280952D01*
X234450047Y-152233333D01*
X234259571Y-152233333D01*
X234164333Y-152280952D01*
X234116714Y-152328571D01*
X234069095Y-152423809D01*
X235211952Y-152280952D02*
X235116714Y-152233333D01*
X235069095Y-152185714D01*
X235021476Y-152090476D01*
X235021476Y-152042857D01*
X235069095Y-151947619D01*
X235116714Y-151900000D01*
X235211952Y-151852380D01*
X235402428Y-151852380D01*
X235497666Y-151900000D01*
X235545285Y-151947619D01*
X235592904Y-152042857D01*
X235592904Y-152090476D01*
X235545285Y-152185714D01*
X235497666Y-152233333D01*
X235402428Y-152280952D01*
X235211952Y-152280952D01*
X235116714Y-152328571D01*
X235069095Y-152376190D01*
X235021476Y-152471428D01*
X235021476Y-152661904D01*
X235069095Y-152757142D01*
X235116714Y-152804761D01*
X235211952Y-152852380D01*
X235402428Y-152852380D01*
X235497666Y-152804761D01*
X235545285Y-152757142D01*
X235592904Y-152661904D01*
X235592904Y-152471428D01*
X235545285Y-152376190D01*
X235497666Y-152328571D01*
X235402428Y-152280952D01*
X236592904Y-152852380D02*
X236259571Y-152376190D01*
X236021476Y-152852380D02*
X236021476Y-151852380D01*
X236402428Y-151852380D01*
X236497666Y-151900000D01*
X236545285Y-151947619D01*
X236592904Y-152042857D01*
X236592904Y-152185714D01*
X236545285Y-152280952D01*
X236497666Y-152328571D01*
X236402428Y-152376190D01*
X236021476Y-152376190D01*
%TO.C,R2*%
X191285833Y-152852380D02*
X190952500Y-152376190D01*
X190714404Y-152852380D02*
X190714404Y-151852380D01*
X191095357Y-151852380D01*
X191190595Y-151900000D01*
X191238214Y-151947619D01*
X191285833Y-152042857D01*
X191285833Y-152185714D01*
X191238214Y-152280952D01*
X191190595Y-152328571D01*
X191095357Y-152376190D01*
X190714404Y-152376190D01*
X191666785Y-151947619D02*
X191714404Y-151900000D01*
X191809642Y-151852380D01*
X192047738Y-151852380D01*
X192142976Y-151900000D01*
X192190595Y-151947619D01*
X192238214Y-152042857D01*
X192238214Y-152138095D01*
X192190595Y-152280952D01*
X191619166Y-152852380D01*
X192238214Y-152852380D01*
X195699166Y-152852380D02*
X195127738Y-152852380D01*
X195413452Y-152852380D02*
X195413452Y-151852380D01*
X195318214Y-151995238D01*
X195222976Y-152090476D01*
X195127738Y-152138095D01*
X196127738Y-152757142D02*
X196175357Y-152804761D01*
X196127738Y-152852380D01*
X196080119Y-152804761D01*
X196127738Y-152757142D01*
X196127738Y-152852380D01*
X197080119Y-151852380D02*
X196603928Y-151852380D01*
X196556309Y-152328571D01*
X196603928Y-152280952D01*
X196699166Y-152233333D01*
X196937261Y-152233333D01*
X197032500Y-152280952D01*
X197080119Y-152328571D01*
X197127738Y-152423809D01*
X197127738Y-152661904D01*
X197080119Y-152757142D01*
X197032500Y-152804761D01*
X196937261Y-152852380D01*
X196699166Y-152852380D01*
X196603928Y-152804761D01*
X196556309Y-152757142D01*
X197556309Y-152852380D02*
X197556309Y-151852380D01*
X197651547Y-152471428D02*
X197937261Y-152852380D01*
X197937261Y-152185714D02*
X197556309Y-152566666D01*
%TO.C,R4*%
X202874583Y-150471130D02*
X202541250Y-149994940D01*
X202303154Y-150471130D02*
X202303154Y-149471130D01*
X202684107Y-149471130D01*
X202779345Y-149518750D01*
X202826964Y-149566369D01*
X202874583Y-149661607D01*
X202874583Y-149804464D01*
X202826964Y-149899702D01*
X202779345Y-149947321D01*
X202684107Y-149994940D01*
X202303154Y-149994940D01*
X203731726Y-149804464D02*
X203731726Y-150471130D01*
X203493630Y-149423511D02*
X203255535Y-150137797D01*
X203874583Y-150137797D01*
X207081547Y-149471130D02*
X206605357Y-149471130D01*
X206557738Y-149947321D01*
X206605357Y-149899702D01*
X206700595Y-149852083D01*
X206938690Y-149852083D01*
X207033928Y-149899702D01*
X207081547Y-149947321D01*
X207129166Y-150042559D01*
X207129166Y-150280654D01*
X207081547Y-150375892D01*
X207033928Y-150423511D01*
X206938690Y-150471130D01*
X206700595Y-150471130D01*
X206605357Y-150423511D01*
X206557738Y-150375892D01*
X207557738Y-150375892D02*
X207605357Y-150423511D01*
X207557738Y-150471130D01*
X207510119Y-150423511D01*
X207557738Y-150375892D01*
X207557738Y-150471130D01*
X208557738Y-150471130D02*
X207986309Y-150471130D01*
X208272023Y-150471130D02*
X208272023Y-149471130D01*
X208176785Y-149613988D01*
X208081547Y-149709226D01*
X207986309Y-149756845D01*
X208986309Y-150471130D02*
X208986309Y-149471130D01*
X209081547Y-150090178D02*
X209367261Y-150471130D01*
X209367261Y-149804464D02*
X208986309Y-150185416D01*
%TO.C,R5*%
X202874583Y-152852380D02*
X202541250Y-152376190D01*
X202303154Y-152852380D02*
X202303154Y-151852380D01*
X202684107Y-151852380D01*
X202779345Y-151900000D01*
X202826964Y-151947619D01*
X202874583Y-152042857D01*
X202874583Y-152185714D01*
X202826964Y-152280952D01*
X202779345Y-152328571D01*
X202684107Y-152376190D01*
X202303154Y-152376190D01*
X203779345Y-151852380D02*
X203303154Y-151852380D01*
X203255535Y-152328571D01*
X203303154Y-152280952D01*
X203398392Y-152233333D01*
X203636488Y-152233333D01*
X203731726Y-152280952D01*
X203779345Y-152328571D01*
X203826964Y-152423809D01*
X203826964Y-152661904D01*
X203779345Y-152757142D01*
X203731726Y-152804761D01*
X203636488Y-152852380D01*
X203398392Y-152852380D01*
X203303154Y-152804761D01*
X203255535Y-152757142D01*
X207081547Y-151852380D02*
X206605357Y-151852380D01*
X206557738Y-152328571D01*
X206605357Y-152280952D01*
X206700595Y-152233333D01*
X206938690Y-152233333D01*
X207033928Y-152280952D01*
X207081547Y-152328571D01*
X207129166Y-152423809D01*
X207129166Y-152661904D01*
X207081547Y-152757142D01*
X207033928Y-152804761D01*
X206938690Y-152852380D01*
X206700595Y-152852380D01*
X206605357Y-152804761D01*
X206557738Y-152757142D01*
X207557738Y-152757142D02*
X207605357Y-152804761D01*
X207557738Y-152852380D01*
X207510119Y-152804761D01*
X207557738Y-152757142D01*
X207557738Y-152852380D01*
X208557738Y-152852380D02*
X207986309Y-152852380D01*
X208272023Y-152852380D02*
X208272023Y-151852380D01*
X208176785Y-151995238D01*
X208081547Y-152090476D01*
X207986309Y-152138095D01*
X208986309Y-152852380D02*
X208986309Y-151852380D01*
X209081547Y-152471428D02*
X209367261Y-152852380D01*
X209367261Y-152185714D02*
X208986309Y-152566666D01*
%TO.C,Q1*%
X189611011Y-179998619D02*
X189515773Y-179951000D01*
X189420535Y-179855761D01*
X189277678Y-179712904D01*
X189182440Y-179665285D01*
X189087202Y-179665285D01*
X189134821Y-179903380D02*
X189039583Y-179855761D01*
X188944345Y-179760523D01*
X188896726Y-179570047D01*
X188896726Y-179236714D01*
X188944345Y-179046238D01*
X189039583Y-178951000D01*
X189134821Y-178903380D01*
X189325297Y-178903380D01*
X189420535Y-178951000D01*
X189515773Y-179046238D01*
X189563392Y-179236714D01*
X189563392Y-179570047D01*
X189515773Y-179760523D01*
X189420535Y-179855761D01*
X189325297Y-179903380D01*
X189134821Y-179903380D01*
X190515773Y-179903380D02*
X189944345Y-179903380D01*
X190230059Y-179903380D02*
X190230059Y-178903380D01*
X190134821Y-179046238D01*
X190039583Y-179141476D01*
X189944345Y-179189095D01*
%TO.C,PgUp1*%
X444714583Y-198953380D02*
X444714583Y-197953380D01*
X445095535Y-197953380D01*
X445190773Y-198001000D01*
X445238392Y-198048619D01*
X445286011Y-198143857D01*
X445286011Y-198286714D01*
X445238392Y-198381952D01*
X445190773Y-198429571D01*
X445095535Y-198477190D01*
X444714583Y-198477190D01*
X446143154Y-198286714D02*
X446143154Y-199096238D01*
X446095535Y-199191476D01*
X446047916Y-199239095D01*
X445952678Y-199286714D01*
X445809821Y-199286714D01*
X445714583Y-199239095D01*
X446143154Y-198905761D02*
X446047916Y-198953380D01*
X445857440Y-198953380D01*
X445762202Y-198905761D01*
X445714583Y-198858142D01*
X445666964Y-198762904D01*
X445666964Y-198477190D01*
X445714583Y-198381952D01*
X445762202Y-198334333D01*
X445857440Y-198286714D01*
X446047916Y-198286714D01*
X446143154Y-198334333D01*
X446619345Y-197953380D02*
X446619345Y-198762904D01*
X446666964Y-198858142D01*
X446714583Y-198905761D01*
X446809821Y-198953380D01*
X447000297Y-198953380D01*
X447095535Y-198905761D01*
X447143154Y-198858142D01*
X447190773Y-198762904D01*
X447190773Y-197953380D01*
X447666964Y-198286714D02*
X447666964Y-199286714D01*
X447666964Y-198334333D02*
X447762202Y-198286714D01*
X447952678Y-198286714D01*
X448047916Y-198334333D01*
X448095535Y-198381952D01*
X448143154Y-198477190D01*
X448143154Y-198762904D01*
X448095535Y-198858142D01*
X448047916Y-198905761D01*
X447952678Y-198953380D01*
X447762202Y-198953380D01*
X447666964Y-198905761D01*
X449095535Y-198953380D02*
X448524107Y-198953380D01*
X448809821Y-198953380D02*
X448809821Y-197953380D01*
X448714583Y-198096238D01*
X448619345Y-198191476D01*
X448524107Y-198239095D01*
%TO.C,PgDw1*%
X444666964Y-218003380D02*
X444666964Y-217003380D01*
X445047916Y-217003380D01*
X445143154Y-217051000D01*
X445190773Y-217098619D01*
X445238392Y-217193857D01*
X445238392Y-217336714D01*
X445190773Y-217431952D01*
X445143154Y-217479571D01*
X445047916Y-217527190D01*
X444666964Y-217527190D01*
X446095535Y-217336714D02*
X446095535Y-218146238D01*
X446047916Y-218241476D01*
X446000297Y-218289095D01*
X445905059Y-218336714D01*
X445762202Y-218336714D01*
X445666964Y-218289095D01*
X446095535Y-217955761D02*
X446000297Y-218003380D01*
X445809821Y-218003380D01*
X445714583Y-217955761D01*
X445666964Y-217908142D01*
X445619345Y-217812904D01*
X445619345Y-217527190D01*
X445666964Y-217431952D01*
X445714583Y-217384333D01*
X445809821Y-217336714D01*
X446000297Y-217336714D01*
X446095535Y-217384333D01*
X446571726Y-218003380D02*
X446571726Y-217003380D01*
X446809821Y-217003380D01*
X446952678Y-217051000D01*
X447047916Y-217146238D01*
X447095535Y-217241476D01*
X447143154Y-217431952D01*
X447143154Y-217574809D01*
X447095535Y-217765285D01*
X447047916Y-217860523D01*
X446952678Y-217955761D01*
X446809821Y-218003380D01*
X446571726Y-218003380D01*
X447476488Y-217336714D02*
X447666964Y-218003380D01*
X447857440Y-217527190D01*
X448047916Y-218003380D01*
X448238392Y-217336714D01*
X449143154Y-218003380D02*
X448571726Y-218003380D01*
X448857440Y-218003380D02*
X448857440Y-217003380D01*
X448762202Y-217146238D01*
X448666964Y-217241476D01*
X448571726Y-217289095D01*
%TO.C,P1*%
X360418154Y-179903380D02*
X360418154Y-178903380D01*
X360799107Y-178903380D01*
X360894345Y-178951000D01*
X360941964Y-178998619D01*
X360989583Y-179093857D01*
X360989583Y-179236714D01*
X360941964Y-179331952D01*
X360894345Y-179379571D01*
X360799107Y-179427190D01*
X360418154Y-179427190D01*
X361941964Y-179903380D02*
X361370535Y-179903380D01*
X361656250Y-179903380D02*
X361656250Y-178903380D01*
X361561011Y-179046238D01*
X361465773Y-179141476D01*
X361370535Y-179189095D01*
%TO.C,O1*%
X341534821Y-178903380D02*
X341725297Y-178903380D01*
X341820535Y-178951000D01*
X341915773Y-179046238D01*
X341963392Y-179236714D01*
X341963392Y-179570047D01*
X341915773Y-179760523D01*
X341820535Y-179855761D01*
X341725297Y-179903380D01*
X341534821Y-179903380D01*
X341439583Y-179855761D01*
X341344345Y-179760523D01*
X341296726Y-179570047D01*
X341296726Y-179236714D01*
X341344345Y-179046238D01*
X341439583Y-178951000D01*
X341534821Y-178903380D01*
X342915773Y-179903380D02*
X342344345Y-179903380D01*
X342630059Y-179903380D02*
X342630059Y-178903380D01*
X342534821Y-179046238D01*
X342439583Y-179141476D01*
X342344345Y-179189095D01*
%TO.C,Num10*%
X349274107Y-160853380D02*
X349274107Y-159853380D01*
X349845535Y-160853380D01*
X349845535Y-159853380D01*
X350750297Y-160186714D02*
X350750297Y-160853380D01*
X350321726Y-160186714D02*
X350321726Y-160710523D01*
X350369345Y-160805761D01*
X350464583Y-160853380D01*
X350607440Y-160853380D01*
X350702678Y-160805761D01*
X350750297Y-160758142D01*
X351226488Y-160853380D02*
X351226488Y-160186714D01*
X351226488Y-160281952D02*
X351274107Y-160234333D01*
X351369345Y-160186714D01*
X351512202Y-160186714D01*
X351607440Y-160234333D01*
X351655059Y-160329571D01*
X351655059Y-160853380D01*
X351655059Y-160329571D02*
X351702678Y-160234333D01*
X351797916Y-160186714D01*
X351940773Y-160186714D01*
X352036011Y-160234333D01*
X352083630Y-160329571D01*
X352083630Y-160853380D01*
X353083630Y-160853380D02*
X352512202Y-160853380D01*
X352797916Y-160853380D02*
X352797916Y-159853380D01*
X352702678Y-159996238D01*
X352607440Y-160091476D01*
X352512202Y-160139095D01*
X353702678Y-159853380D02*
X353797916Y-159853380D01*
X353893154Y-159901000D01*
X353940773Y-159948619D01*
X353988392Y-160043857D01*
X354036011Y-160234333D01*
X354036011Y-160472428D01*
X353988392Y-160662904D01*
X353940773Y-160758142D01*
X353893154Y-160805761D01*
X353797916Y-160853380D01*
X353702678Y-160853380D01*
X353607440Y-160805761D01*
X353559821Y-160758142D01*
X353512202Y-160662904D01*
X353464583Y-160472428D01*
X353464583Y-160234333D01*
X353512202Y-160043857D01*
X353559821Y-159948619D01*
X353607440Y-159901000D01*
X353702678Y-159853380D01*
%TO.C,Num9*%
X330700297Y-160853380D02*
X330700297Y-159853380D01*
X331271726Y-160853380D01*
X331271726Y-159853380D01*
X332176488Y-160186714D02*
X332176488Y-160853380D01*
X331747916Y-160186714D02*
X331747916Y-160710523D01*
X331795535Y-160805761D01*
X331890773Y-160853380D01*
X332033630Y-160853380D01*
X332128869Y-160805761D01*
X332176488Y-160758142D01*
X332652678Y-160853380D02*
X332652678Y-160186714D01*
X332652678Y-160281952D02*
X332700297Y-160234333D01*
X332795535Y-160186714D01*
X332938392Y-160186714D01*
X333033630Y-160234333D01*
X333081250Y-160329571D01*
X333081250Y-160853380D01*
X333081250Y-160329571D02*
X333128869Y-160234333D01*
X333224107Y-160186714D01*
X333366964Y-160186714D01*
X333462202Y-160234333D01*
X333509821Y-160329571D01*
X333509821Y-160853380D01*
X334033630Y-160853380D02*
X334224107Y-160853380D01*
X334319345Y-160805761D01*
X334366964Y-160758142D01*
X334462202Y-160615285D01*
X334509821Y-160424809D01*
X334509821Y-160043857D01*
X334462202Y-159948619D01*
X334414583Y-159901000D01*
X334319345Y-159853380D01*
X334128869Y-159853380D01*
X334033630Y-159901000D01*
X333986011Y-159948619D01*
X333938392Y-160043857D01*
X333938392Y-160281952D01*
X333986011Y-160377190D01*
X334033630Y-160424809D01*
X334128869Y-160472428D01*
X334319345Y-160472428D01*
X334414583Y-160424809D01*
X334462202Y-160377190D01*
X334509821Y-160281952D01*
%TO.C,Num8*%
X311650297Y-160853380D02*
X311650297Y-159853380D01*
X312221726Y-160853380D01*
X312221726Y-159853380D01*
X313126488Y-160186714D02*
X313126488Y-160853380D01*
X312697916Y-160186714D02*
X312697916Y-160710523D01*
X312745535Y-160805761D01*
X312840773Y-160853380D01*
X312983630Y-160853380D01*
X313078869Y-160805761D01*
X313126488Y-160758142D01*
X313602678Y-160853380D02*
X313602678Y-160186714D01*
X313602678Y-160281952D02*
X313650297Y-160234333D01*
X313745535Y-160186714D01*
X313888392Y-160186714D01*
X313983630Y-160234333D01*
X314031250Y-160329571D01*
X314031250Y-160853380D01*
X314031250Y-160329571D02*
X314078869Y-160234333D01*
X314174107Y-160186714D01*
X314316964Y-160186714D01*
X314412202Y-160234333D01*
X314459821Y-160329571D01*
X314459821Y-160853380D01*
X315078869Y-160281952D02*
X314983630Y-160234333D01*
X314936011Y-160186714D01*
X314888392Y-160091476D01*
X314888392Y-160043857D01*
X314936011Y-159948619D01*
X314983630Y-159901000D01*
X315078869Y-159853380D01*
X315269345Y-159853380D01*
X315364583Y-159901000D01*
X315412202Y-159948619D01*
X315459821Y-160043857D01*
X315459821Y-160091476D01*
X315412202Y-160186714D01*
X315364583Y-160234333D01*
X315269345Y-160281952D01*
X315078869Y-160281952D01*
X314983630Y-160329571D01*
X314936011Y-160377190D01*
X314888392Y-160472428D01*
X314888392Y-160662904D01*
X314936011Y-160758142D01*
X314983630Y-160805761D01*
X315078869Y-160853380D01*
X315269345Y-160853380D01*
X315364583Y-160805761D01*
X315412202Y-160758142D01*
X315459821Y-160662904D01*
X315459821Y-160472428D01*
X315412202Y-160377190D01*
X315364583Y-160329571D01*
X315269345Y-160281952D01*
%TO.C,Num7*%
X292600297Y-160853380D02*
X292600297Y-159853380D01*
X293171726Y-160853380D01*
X293171726Y-159853380D01*
X294076488Y-160186714D02*
X294076488Y-160853380D01*
X293647916Y-160186714D02*
X293647916Y-160710523D01*
X293695535Y-160805761D01*
X293790773Y-160853380D01*
X293933630Y-160853380D01*
X294028869Y-160805761D01*
X294076488Y-160758142D01*
X294552678Y-160853380D02*
X294552678Y-160186714D01*
X294552678Y-160281952D02*
X294600297Y-160234333D01*
X294695535Y-160186714D01*
X294838392Y-160186714D01*
X294933630Y-160234333D01*
X294981250Y-160329571D01*
X294981250Y-160853380D01*
X294981250Y-160329571D02*
X295028869Y-160234333D01*
X295124107Y-160186714D01*
X295266964Y-160186714D01*
X295362202Y-160234333D01*
X295409821Y-160329571D01*
X295409821Y-160853380D01*
X295790773Y-159853380D02*
X296457440Y-159853380D01*
X296028869Y-160853380D01*
%TO.C,Num6*%
X273550297Y-160853380D02*
X273550297Y-159853380D01*
X274121726Y-160853380D01*
X274121726Y-159853380D01*
X275026488Y-160186714D02*
X275026488Y-160853380D01*
X274597916Y-160186714D02*
X274597916Y-160710523D01*
X274645535Y-160805761D01*
X274740773Y-160853380D01*
X274883630Y-160853380D01*
X274978869Y-160805761D01*
X275026488Y-160758142D01*
X275502678Y-160853380D02*
X275502678Y-160186714D01*
X275502678Y-160281952D02*
X275550297Y-160234333D01*
X275645535Y-160186714D01*
X275788392Y-160186714D01*
X275883630Y-160234333D01*
X275931250Y-160329571D01*
X275931250Y-160853380D01*
X275931250Y-160329571D02*
X275978869Y-160234333D01*
X276074107Y-160186714D01*
X276216964Y-160186714D01*
X276312202Y-160234333D01*
X276359821Y-160329571D01*
X276359821Y-160853380D01*
X277264583Y-159853380D02*
X277074107Y-159853380D01*
X276978869Y-159901000D01*
X276931250Y-159948619D01*
X276836011Y-160091476D01*
X276788392Y-160281952D01*
X276788392Y-160662904D01*
X276836011Y-160758142D01*
X276883630Y-160805761D01*
X276978869Y-160853380D01*
X277169345Y-160853380D01*
X277264583Y-160805761D01*
X277312202Y-160758142D01*
X277359821Y-160662904D01*
X277359821Y-160424809D01*
X277312202Y-160329571D01*
X277264583Y-160281952D01*
X277169345Y-160234333D01*
X276978869Y-160234333D01*
X276883630Y-160281952D01*
X276836011Y-160329571D01*
X276788392Y-160424809D01*
%TO.C,Num5*%
X254500297Y-160853380D02*
X254500297Y-159853380D01*
X255071726Y-160853380D01*
X255071726Y-159853380D01*
X255976488Y-160186714D02*
X255976488Y-160853380D01*
X255547916Y-160186714D02*
X255547916Y-160710523D01*
X255595535Y-160805761D01*
X255690773Y-160853380D01*
X255833630Y-160853380D01*
X255928869Y-160805761D01*
X255976488Y-160758142D01*
X256452678Y-160853380D02*
X256452678Y-160186714D01*
X256452678Y-160281952D02*
X256500297Y-160234333D01*
X256595535Y-160186714D01*
X256738392Y-160186714D01*
X256833630Y-160234333D01*
X256881250Y-160329571D01*
X256881250Y-160853380D01*
X256881250Y-160329571D02*
X256928869Y-160234333D01*
X257024107Y-160186714D01*
X257166964Y-160186714D01*
X257262202Y-160234333D01*
X257309821Y-160329571D01*
X257309821Y-160853380D01*
X258262202Y-159853380D02*
X257786011Y-159853380D01*
X257738392Y-160329571D01*
X257786011Y-160281952D01*
X257881250Y-160234333D01*
X258119345Y-160234333D01*
X258214583Y-160281952D01*
X258262202Y-160329571D01*
X258309821Y-160424809D01*
X258309821Y-160662904D01*
X258262202Y-160758142D01*
X258214583Y-160805761D01*
X258119345Y-160853380D01*
X257881250Y-160853380D01*
X257786011Y-160805761D01*
X257738392Y-160758142D01*
%TO.C,Num4*%
X235450297Y-160853380D02*
X235450297Y-159853380D01*
X236021726Y-160853380D01*
X236021726Y-159853380D01*
X236926488Y-160186714D02*
X236926488Y-160853380D01*
X236497916Y-160186714D02*
X236497916Y-160710523D01*
X236545535Y-160805761D01*
X236640773Y-160853380D01*
X236783630Y-160853380D01*
X236878869Y-160805761D01*
X236926488Y-160758142D01*
X237402678Y-160853380D02*
X237402678Y-160186714D01*
X237402678Y-160281952D02*
X237450297Y-160234333D01*
X237545535Y-160186714D01*
X237688392Y-160186714D01*
X237783630Y-160234333D01*
X237831250Y-160329571D01*
X237831250Y-160853380D01*
X237831250Y-160329571D02*
X237878869Y-160234333D01*
X237974107Y-160186714D01*
X238116964Y-160186714D01*
X238212202Y-160234333D01*
X238259821Y-160329571D01*
X238259821Y-160853380D01*
X239164583Y-160186714D02*
X239164583Y-160853380D01*
X238926488Y-159805761D02*
X238688392Y-160520047D01*
X239307440Y-160520047D01*
%TO.C,Num3*%
X216400297Y-160853380D02*
X216400297Y-159853380D01*
X216971726Y-160853380D01*
X216971726Y-159853380D01*
X217876488Y-160186714D02*
X217876488Y-160853380D01*
X217447916Y-160186714D02*
X217447916Y-160710523D01*
X217495535Y-160805761D01*
X217590773Y-160853380D01*
X217733630Y-160853380D01*
X217828869Y-160805761D01*
X217876488Y-160758142D01*
X218352678Y-160853380D02*
X218352678Y-160186714D01*
X218352678Y-160281952D02*
X218400297Y-160234333D01*
X218495535Y-160186714D01*
X218638392Y-160186714D01*
X218733630Y-160234333D01*
X218781250Y-160329571D01*
X218781250Y-160853380D01*
X218781250Y-160329571D02*
X218828869Y-160234333D01*
X218924107Y-160186714D01*
X219066964Y-160186714D01*
X219162202Y-160234333D01*
X219209821Y-160329571D01*
X219209821Y-160853380D01*
X219590773Y-159853380D02*
X220209821Y-159853380D01*
X219876488Y-160234333D01*
X220019345Y-160234333D01*
X220114583Y-160281952D01*
X220162202Y-160329571D01*
X220209821Y-160424809D01*
X220209821Y-160662904D01*
X220162202Y-160758142D01*
X220114583Y-160805761D01*
X220019345Y-160853380D01*
X219733630Y-160853380D01*
X219638392Y-160805761D01*
X219590773Y-160758142D01*
%TO.C,Num2*%
X197350297Y-160853380D02*
X197350297Y-159853380D01*
X197921726Y-160853380D01*
X197921726Y-159853380D01*
X198826488Y-160186714D02*
X198826488Y-160853380D01*
X198397916Y-160186714D02*
X198397916Y-160710523D01*
X198445535Y-160805761D01*
X198540773Y-160853380D01*
X198683630Y-160853380D01*
X198778869Y-160805761D01*
X198826488Y-160758142D01*
X199302678Y-160853380D02*
X199302678Y-160186714D01*
X199302678Y-160281952D02*
X199350297Y-160234333D01*
X199445535Y-160186714D01*
X199588392Y-160186714D01*
X199683630Y-160234333D01*
X199731250Y-160329571D01*
X199731250Y-160853380D01*
X199731250Y-160329571D02*
X199778869Y-160234333D01*
X199874107Y-160186714D01*
X200016964Y-160186714D01*
X200112202Y-160234333D01*
X200159821Y-160329571D01*
X200159821Y-160853380D01*
X200588392Y-159948619D02*
X200636011Y-159901000D01*
X200731250Y-159853380D01*
X200969345Y-159853380D01*
X201064583Y-159901000D01*
X201112202Y-159948619D01*
X201159821Y-160043857D01*
X201159821Y-160139095D01*
X201112202Y-160281952D01*
X200540773Y-160853380D01*
X201159821Y-160853380D01*
%TO.C,Num1*%
X178300297Y-160853380D02*
X178300297Y-159853380D01*
X178871726Y-160853380D01*
X178871726Y-159853380D01*
X179776488Y-160186714D02*
X179776488Y-160853380D01*
X179347916Y-160186714D02*
X179347916Y-160710523D01*
X179395535Y-160805761D01*
X179490773Y-160853380D01*
X179633630Y-160853380D01*
X179728869Y-160805761D01*
X179776488Y-160758142D01*
X180252678Y-160853380D02*
X180252678Y-160186714D01*
X180252678Y-160281952D02*
X180300297Y-160234333D01*
X180395535Y-160186714D01*
X180538392Y-160186714D01*
X180633630Y-160234333D01*
X180681250Y-160329571D01*
X180681250Y-160853380D01*
X180681250Y-160329571D02*
X180728869Y-160234333D01*
X180824107Y-160186714D01*
X180966964Y-160186714D01*
X181062202Y-160234333D01*
X181109821Y-160329571D01*
X181109821Y-160853380D01*
X182109821Y-160853380D02*
X181538392Y-160853380D01*
X181824107Y-160853380D02*
X181824107Y-159853380D01*
X181728869Y-159996238D01*
X181633630Y-160091476D01*
X181538392Y-160139095D01*
%TO.C,N1*%
X298481845Y-218003380D02*
X298481845Y-217003380D01*
X299053273Y-218003380D01*
X299053273Y-217003380D01*
X300053273Y-218003380D02*
X299481845Y-218003380D01*
X299767559Y-218003380D02*
X299767559Y-217003380D01*
X299672321Y-217146238D01*
X299577083Y-217241476D01*
X299481845Y-217289095D01*
%TO.C,M1*%
X317484226Y-218003380D02*
X317484226Y-217003380D01*
X317817559Y-217717666D01*
X318150892Y-217003380D01*
X318150892Y-218003380D01*
X319150892Y-218003380D02*
X318579464Y-218003380D01*
X318865178Y-218003380D02*
X318865178Y-217003380D01*
X318769940Y-217146238D01*
X318674702Y-217241476D01*
X318579464Y-217289095D01*
%TO.C,LShift1*%
X171132738Y-218003380D02*
X170656547Y-218003380D01*
X170656547Y-217003380D01*
X171418452Y-217955761D02*
X171561309Y-218003380D01*
X171799404Y-218003380D01*
X171894642Y-217955761D01*
X171942261Y-217908142D01*
X171989880Y-217812904D01*
X171989880Y-217717666D01*
X171942261Y-217622428D01*
X171894642Y-217574809D01*
X171799404Y-217527190D01*
X171608928Y-217479571D01*
X171513690Y-217431952D01*
X171466071Y-217384333D01*
X171418452Y-217289095D01*
X171418452Y-217193857D01*
X171466071Y-217098619D01*
X171513690Y-217051000D01*
X171608928Y-217003380D01*
X171847023Y-217003380D01*
X171989880Y-217051000D01*
X172418452Y-218003380D02*
X172418452Y-217003380D01*
X172847023Y-218003380D02*
X172847023Y-217479571D01*
X172799404Y-217384333D01*
X172704166Y-217336714D01*
X172561309Y-217336714D01*
X172466071Y-217384333D01*
X172418452Y-217431952D01*
X173323214Y-218003380D02*
X173323214Y-217336714D01*
X173323214Y-217003380D02*
X173275595Y-217051000D01*
X173323214Y-217098619D01*
X173370833Y-217051000D01*
X173323214Y-217003380D01*
X173323214Y-217098619D01*
X173656547Y-217336714D02*
X174037500Y-217336714D01*
X173799404Y-218003380D02*
X173799404Y-217146238D01*
X173847023Y-217051000D01*
X173942261Y-217003380D01*
X174037500Y-217003380D01*
X174227976Y-217336714D02*
X174608928Y-217336714D01*
X174370833Y-217003380D02*
X174370833Y-217860523D01*
X174418452Y-217955761D01*
X174513690Y-218003380D01*
X174608928Y-218003380D01*
X175466071Y-218003380D02*
X174894642Y-218003380D01*
X175180357Y-218003380D02*
X175180357Y-217003380D01*
X175085119Y-217146238D01*
X174989880Y-217241476D01*
X174894642Y-217289095D01*
%TO.C,LCtrl1*%
X161988690Y-237053380D02*
X161512500Y-237053380D01*
X161512500Y-236053380D01*
X162893452Y-236958142D02*
X162845833Y-237005761D01*
X162702976Y-237053380D01*
X162607738Y-237053380D01*
X162464880Y-237005761D01*
X162369642Y-236910523D01*
X162322023Y-236815285D01*
X162274404Y-236624809D01*
X162274404Y-236481952D01*
X162322023Y-236291476D01*
X162369642Y-236196238D01*
X162464880Y-236101000D01*
X162607738Y-236053380D01*
X162702976Y-236053380D01*
X162845833Y-236101000D01*
X162893452Y-236148619D01*
X163179166Y-236386714D02*
X163560119Y-236386714D01*
X163322023Y-236053380D02*
X163322023Y-236910523D01*
X163369642Y-237005761D01*
X163464880Y-237053380D01*
X163560119Y-237053380D01*
X163893452Y-237053380D02*
X163893452Y-236386714D01*
X163893452Y-236577190D02*
X163941071Y-236481952D01*
X163988690Y-236434333D01*
X164083928Y-236386714D01*
X164179166Y-236386714D01*
X164655357Y-237053380D02*
X164560119Y-237005761D01*
X164512500Y-236910523D01*
X164512500Y-236053380D01*
X165560119Y-237053380D02*
X164988690Y-237053380D01*
X165274404Y-237053380D02*
X165274404Y-236053380D01*
X165179166Y-236196238D01*
X165083928Y-236291476D01*
X164988690Y-236339095D01*
%TO.C,LAlt1*%
X209994642Y-237053380D02*
X209518452Y-237053380D01*
X209518452Y-236053380D01*
X210280357Y-236767666D02*
X210756547Y-236767666D01*
X210185119Y-237053380D02*
X210518452Y-236053380D01*
X210851785Y-237053380D01*
X211327976Y-237053380D02*
X211232738Y-237005761D01*
X211185119Y-236910523D01*
X211185119Y-236053380D01*
X211566071Y-236386714D02*
X211947023Y-236386714D01*
X211708928Y-236053380D02*
X211708928Y-236910523D01*
X211756547Y-237005761D01*
X211851785Y-237053380D01*
X211947023Y-237053380D01*
X212804166Y-237053380D02*
X212232738Y-237053380D01*
X212518452Y-237053380D02*
X212518452Y-236053380D01*
X212423214Y-236196238D01*
X212327976Y-236291476D01*
X212232738Y-236339095D01*
%TO.C,L1*%
X346702083Y-198953380D02*
X346225892Y-198953380D01*
X346225892Y-197953380D01*
X347559226Y-198953380D02*
X346987797Y-198953380D01*
X347273511Y-198953380D02*
X347273511Y-197953380D01*
X347178273Y-198096238D01*
X347083035Y-198191476D01*
X346987797Y-198239095D01*
%TO.C,K1*%
X327080654Y-198953380D02*
X327080654Y-197953380D01*
X327652083Y-198953380D02*
X327223511Y-198381952D01*
X327652083Y-197953380D02*
X327080654Y-198524809D01*
X328604464Y-198953380D02*
X328033035Y-198953380D01*
X328318750Y-198953380D02*
X328318750Y-197953380D01*
X328223511Y-198096238D01*
X328128273Y-198191476D01*
X328033035Y-198239095D01*
%TO.C,J1*%
X308435416Y-197953380D02*
X308435416Y-198667666D01*
X308387797Y-198810523D01*
X308292559Y-198905761D01*
X308149702Y-198953380D01*
X308054464Y-198953380D01*
X309435416Y-198953380D02*
X308863988Y-198953380D01*
X309149702Y-198953380D02*
X309149702Y-197953380D01*
X309054464Y-198096238D01*
X308959226Y-198191476D01*
X308863988Y-198239095D01*
%TO.C,I1*%
X322580059Y-179903380D02*
X322580059Y-178903380D01*
X323580059Y-179903380D02*
X323008630Y-179903380D01*
X323294345Y-179903380D02*
X323294345Y-178903380D01*
X323199107Y-179046238D01*
X323103869Y-179141476D01*
X323008630Y-179189095D01*
%TO.C,H1*%
X288956845Y-198953380D02*
X288956845Y-197953380D01*
X288956845Y-198429571D02*
X289528273Y-198429571D01*
X289528273Y-198953380D02*
X289528273Y-197953380D01*
X290528273Y-198953380D02*
X289956845Y-198953380D01*
X290242559Y-198953380D02*
X290242559Y-197953380D01*
X290147321Y-198096238D01*
X290052083Y-198191476D01*
X289956845Y-198239095D01*
%TO.C,G1*%
X270454464Y-198001000D02*
X270359226Y-197953380D01*
X270216369Y-197953380D01*
X270073511Y-198001000D01*
X269978273Y-198096238D01*
X269930654Y-198191476D01*
X269883035Y-198381952D01*
X269883035Y-198524809D01*
X269930654Y-198715285D01*
X269978273Y-198810523D01*
X270073511Y-198905761D01*
X270216369Y-198953380D01*
X270311607Y-198953380D01*
X270454464Y-198905761D01*
X270502083Y-198858142D01*
X270502083Y-198524809D01*
X270311607Y-198524809D01*
X271454464Y-198953380D02*
X270883035Y-198953380D01*
X271168750Y-198953380D02*
X271168750Y-197953380D01*
X271073511Y-198096238D01*
X270978273Y-198191476D01*
X270883035Y-198239095D01*
%TO.C,Func1*%
X369014583Y-236529571D02*
X368681250Y-236529571D01*
X368681250Y-237053380D02*
X368681250Y-236053380D01*
X369157440Y-236053380D01*
X369966964Y-236386714D02*
X369966964Y-237053380D01*
X369538392Y-236386714D02*
X369538392Y-236910523D01*
X369586011Y-237005761D01*
X369681250Y-237053380D01*
X369824107Y-237053380D01*
X369919345Y-237005761D01*
X369966964Y-236958142D01*
X370443154Y-236386714D02*
X370443154Y-237053380D01*
X370443154Y-236481952D02*
X370490773Y-236434333D01*
X370586011Y-236386714D01*
X370728869Y-236386714D01*
X370824107Y-236434333D01*
X370871726Y-236529571D01*
X370871726Y-237053380D01*
X371776488Y-237005761D02*
X371681250Y-237053380D01*
X371490773Y-237053380D01*
X371395535Y-237005761D01*
X371347916Y-236958142D01*
X371300297Y-236862904D01*
X371300297Y-236577190D01*
X371347916Y-236481952D01*
X371395535Y-236434333D01*
X371490773Y-236386714D01*
X371681250Y-236386714D01*
X371776488Y-236434333D01*
X372728869Y-237053380D02*
X372157440Y-237053380D01*
X372443154Y-237053380D02*
X372443154Y-236053380D01*
X372347916Y-236196238D01*
X372252678Y-236291476D01*
X372157440Y-236339095D01*
%TO.C,F1*%
X251285416Y-198429571D02*
X250952083Y-198429571D01*
X250952083Y-198953380D02*
X250952083Y-197953380D01*
X251428273Y-197953380D01*
X252333035Y-198953380D02*
X251761607Y-198953380D01*
X252047321Y-198953380D02*
X252047321Y-197953380D01*
X251952083Y-198096238D01*
X251856845Y-198191476D01*
X251761607Y-198239095D01*
%TO.C,F2*%
X172172321Y-145589583D02*
X172172321Y-145922916D01*
X172696130Y-145922916D02*
X171696130Y-145922916D01*
X171696130Y-145446726D01*
X171791369Y-145113392D02*
X171743750Y-145065773D01*
X171696130Y-144970535D01*
X171696130Y-144732440D01*
X171743750Y-144637202D01*
X171791369Y-144589583D01*
X171886607Y-144541964D01*
X171981845Y-144541964D01*
X172124702Y-144589583D01*
X172696130Y-145161011D01*
X172696130Y-144541964D01*
X173283630Y-149447023D02*
X173283630Y-149923214D01*
X173759821Y-149970833D01*
X173712202Y-149923214D01*
X173664583Y-149827976D01*
X173664583Y-149589880D01*
X173712202Y-149494642D01*
X173759821Y-149447023D01*
X173855059Y-149399404D01*
X174093154Y-149399404D01*
X174188392Y-149447023D01*
X174236011Y-149494642D01*
X174283630Y-149589880D01*
X174283630Y-149827976D01*
X174236011Y-149923214D01*
X174188392Y-149970833D01*
X173283630Y-148780357D02*
X173283630Y-148685119D01*
X173331250Y-148589880D01*
X173378869Y-148542261D01*
X173474107Y-148494642D01*
X173664583Y-148447023D01*
X173902678Y-148447023D01*
X174093154Y-148494642D01*
X174188392Y-148542261D01*
X174236011Y-148589880D01*
X174283630Y-148685119D01*
X174283630Y-148780357D01*
X174236011Y-148875595D01*
X174188392Y-148923214D01*
X174093154Y-148970833D01*
X173902678Y-149018452D01*
X173664583Y-149018452D01*
X173474107Y-148970833D01*
X173378869Y-148923214D01*
X173331250Y-148875595D01*
X173283630Y-148780357D01*
X173283630Y-147827976D02*
X173283630Y-147732738D01*
X173331250Y-147637500D01*
X173378869Y-147589880D01*
X173474107Y-147542261D01*
X173664583Y-147494642D01*
X173902678Y-147494642D01*
X174093154Y-147542261D01*
X174188392Y-147589880D01*
X174236011Y-147637500D01*
X174283630Y-147732738D01*
X174283630Y-147827976D01*
X174236011Y-147923214D01*
X174188392Y-147970833D01*
X174093154Y-148018452D01*
X173902678Y-148066071D01*
X173664583Y-148066071D01*
X173474107Y-148018452D01*
X173378869Y-147970833D01*
X173331250Y-147923214D01*
X173283630Y-147827976D01*
X174283630Y-147066071D02*
X173616964Y-147066071D01*
X173712202Y-147066071D02*
X173664583Y-147018452D01*
X173616964Y-146923214D01*
X173616964Y-146780357D01*
X173664583Y-146685119D01*
X173759821Y-146637500D01*
X174283630Y-146637500D01*
X173759821Y-146637500D02*
X173664583Y-146589880D01*
X173616964Y-146494642D01*
X173616964Y-146351785D01*
X173664583Y-146256547D01*
X173759821Y-146208928D01*
X174283630Y-146208928D01*
X173997916Y-145780357D02*
X173997916Y-145304166D01*
X174283630Y-145875595D02*
X173283630Y-145542261D01*
X174283630Y-145208928D01*
%TO.C,Esc1*%
X159607440Y-160329571D02*
X159940773Y-160329571D01*
X160083630Y-160853380D02*
X159607440Y-160853380D01*
X159607440Y-159853380D01*
X160083630Y-159853380D01*
X160464583Y-160805761D02*
X160559821Y-160853380D01*
X160750297Y-160853380D01*
X160845535Y-160805761D01*
X160893154Y-160710523D01*
X160893154Y-160662904D01*
X160845535Y-160567666D01*
X160750297Y-160520047D01*
X160607440Y-160520047D01*
X160512202Y-160472428D01*
X160464583Y-160377190D01*
X160464583Y-160329571D01*
X160512202Y-160234333D01*
X160607440Y-160186714D01*
X160750297Y-160186714D01*
X160845535Y-160234333D01*
X161750297Y-160805761D02*
X161655059Y-160853380D01*
X161464583Y-160853380D01*
X161369345Y-160805761D01*
X161321726Y-160758142D01*
X161274107Y-160662904D01*
X161274107Y-160377190D01*
X161321726Y-160281952D01*
X161369345Y-160234333D01*
X161464583Y-160186714D01*
X161655059Y-160186714D01*
X161750297Y-160234333D01*
X162702678Y-160853380D02*
X162131250Y-160853380D01*
X162416964Y-160853380D02*
X162416964Y-159853380D01*
X162321726Y-159996238D01*
X162226488Y-160091476D01*
X162131250Y-160139095D01*
%TO.C,Enter1*%
X413758333Y-198429571D02*
X414091666Y-198429571D01*
X414234523Y-198953380D02*
X413758333Y-198953380D01*
X413758333Y-197953380D01*
X414234523Y-197953380D01*
X414663095Y-198286714D02*
X414663095Y-198953380D01*
X414663095Y-198381952D02*
X414710714Y-198334333D01*
X414805952Y-198286714D01*
X414948809Y-198286714D01*
X415044047Y-198334333D01*
X415091666Y-198429571D01*
X415091666Y-198953380D01*
X415425000Y-198286714D02*
X415805952Y-198286714D01*
X415567857Y-197953380D02*
X415567857Y-198810523D01*
X415615476Y-198905761D01*
X415710714Y-198953380D01*
X415805952Y-198953380D01*
X416520238Y-198905761D02*
X416425000Y-198953380D01*
X416234523Y-198953380D01*
X416139285Y-198905761D01*
X416091666Y-198810523D01*
X416091666Y-198429571D01*
X416139285Y-198334333D01*
X416234523Y-198286714D01*
X416425000Y-198286714D01*
X416520238Y-198334333D01*
X416567857Y-198429571D01*
X416567857Y-198524809D01*
X416091666Y-198620047D01*
X416996428Y-198953380D02*
X416996428Y-198286714D01*
X416996428Y-198477190D02*
X417044047Y-198381952D01*
X417091666Y-198334333D01*
X417186904Y-198286714D01*
X417282142Y-198286714D01*
X418139285Y-198953380D02*
X417567857Y-198953380D01*
X417853571Y-198953380D02*
X417853571Y-197953380D01*
X417758333Y-198096238D01*
X417663095Y-198191476D01*
X417567857Y-198239095D01*
%TO.C,ENC1*%
X423360714Y-138897321D02*
X423694047Y-138897321D01*
X423836904Y-139421130D02*
X423360714Y-139421130D01*
X423360714Y-138421130D01*
X423836904Y-138421130D01*
X424265476Y-139421130D02*
X424265476Y-138421130D01*
X424836904Y-139421130D01*
X424836904Y-138421130D01*
X425884523Y-139325892D02*
X425836904Y-139373511D01*
X425694047Y-139421130D01*
X425598809Y-139421130D01*
X425455952Y-139373511D01*
X425360714Y-139278273D01*
X425313095Y-139183035D01*
X425265476Y-138992559D01*
X425265476Y-138849702D01*
X425313095Y-138659226D01*
X425360714Y-138563988D01*
X425455952Y-138468750D01*
X425598809Y-138421130D01*
X425694047Y-138421130D01*
X425836904Y-138468750D01*
X425884523Y-138516369D01*
X426836904Y-139421130D02*
X426265476Y-139421130D01*
X426551190Y-139421130D02*
X426551190Y-138421130D01*
X426455952Y-138563988D01*
X426360714Y-138659226D01*
X426265476Y-138706845D01*
%TO.C,E1*%
X227115773Y-179379571D02*
X227449107Y-179379571D01*
X227591964Y-179903380D02*
X227115773Y-179903380D01*
X227115773Y-178903380D01*
X227591964Y-178903380D01*
X228544345Y-179903380D02*
X227972916Y-179903380D01*
X228258630Y-179903380D02*
X228258630Y-178903380D01*
X228163392Y-179046238D01*
X228068154Y-179141476D01*
X227972916Y-179189095D01*
%TO.C,Del1*%
X445452678Y-179903380D02*
X445452678Y-178903380D01*
X445690773Y-178903380D01*
X445833630Y-178951000D01*
X445928869Y-179046238D01*
X445976488Y-179141476D01*
X446024107Y-179331952D01*
X446024107Y-179474809D01*
X445976488Y-179665285D01*
X445928869Y-179760523D01*
X445833630Y-179855761D01*
X445690773Y-179903380D01*
X445452678Y-179903380D01*
X446833630Y-179855761D02*
X446738392Y-179903380D01*
X446547916Y-179903380D01*
X446452678Y-179855761D01*
X446405059Y-179760523D01*
X446405059Y-179379571D01*
X446452678Y-179284333D01*
X446547916Y-179236714D01*
X446738392Y-179236714D01*
X446833630Y-179284333D01*
X446881250Y-179379571D01*
X446881250Y-179474809D01*
X446405059Y-179570047D01*
X447452678Y-179903380D02*
X447357440Y-179855761D01*
X447309821Y-179760523D01*
X447309821Y-178903380D01*
X448357440Y-179903380D02*
X447786011Y-179903380D01*
X448071726Y-179903380D02*
X448071726Y-178903380D01*
X447976488Y-179046238D01*
X447881250Y-179141476D01*
X447786011Y-179189095D01*
%TO.C,D76*%
X215479464Y-152852380D02*
X215479464Y-151852380D01*
X215717559Y-151852380D01*
X215860416Y-151900000D01*
X215955654Y-151995238D01*
X216003273Y-152090476D01*
X216050892Y-152280952D01*
X216050892Y-152423809D01*
X216003273Y-152614285D01*
X215955654Y-152709523D01*
X215860416Y-152804761D01*
X215717559Y-152852380D01*
X215479464Y-152852380D01*
X216384226Y-151852380D02*
X217050892Y-151852380D01*
X216622321Y-152852380D01*
X217860416Y-151852380D02*
X217669940Y-151852380D01*
X217574702Y-151900000D01*
X217527083Y-151947619D01*
X217431845Y-152090476D01*
X217384226Y-152280952D01*
X217384226Y-152661904D01*
X217431845Y-152757142D01*
X217479464Y-152804761D01*
X217574702Y-152852380D01*
X217765178Y-152852380D01*
X217860416Y-152804761D01*
X217908035Y-152757142D01*
X217955654Y-152661904D01*
X217955654Y-152423809D01*
X217908035Y-152328571D01*
X217860416Y-152280952D01*
X217765178Y-152233333D01*
X217574702Y-152233333D01*
X217479464Y-152280952D01*
X217431845Y-152328571D01*
X217384226Y-152423809D01*
X221567559Y-151852380D02*
X222186607Y-151852380D01*
X221853273Y-152233333D01*
X221996130Y-152233333D01*
X222091369Y-152280952D01*
X222138988Y-152328571D01*
X222186607Y-152423809D01*
X222186607Y-152661904D01*
X222138988Y-152757142D01*
X222091369Y-152804761D01*
X221996130Y-152852380D01*
X221710416Y-152852380D01*
X221615178Y-152804761D01*
X221567559Y-152757142D01*
X222615178Y-152757142D02*
X222662797Y-152804761D01*
X222615178Y-152852380D01*
X222567559Y-152804761D01*
X222615178Y-152757142D01*
X222615178Y-152852380D01*
X223519940Y-151852380D02*
X223329464Y-151852380D01*
X223234226Y-151900000D01*
X223186607Y-151947619D01*
X223091369Y-152090476D01*
X223043750Y-152280952D01*
X223043750Y-152661904D01*
X223091369Y-152757142D01*
X223138988Y-152804761D01*
X223234226Y-152852380D01*
X223424702Y-152852380D01*
X223519940Y-152804761D01*
X223567559Y-152757142D01*
X223615178Y-152661904D01*
X223615178Y-152423809D01*
X223567559Y-152328571D01*
X223519940Y-152280952D01*
X223424702Y-152233333D01*
X223234226Y-152233333D01*
X223138988Y-152280952D01*
X223091369Y-152328571D01*
X223043750Y-152423809D01*
X223900892Y-151852380D02*
X224234226Y-152852380D01*
X224567559Y-151852380D01*
%TO.C,D31*%
X231354464Y-198953380D02*
X231354464Y-197953380D01*
X231592559Y-197953380D01*
X231735416Y-198001000D01*
X231830654Y-198096238D01*
X231878273Y-198191476D01*
X231925892Y-198381952D01*
X231925892Y-198524809D01*
X231878273Y-198715285D01*
X231830654Y-198810523D01*
X231735416Y-198905761D01*
X231592559Y-198953380D01*
X231354464Y-198953380D01*
X232259226Y-197953380D02*
X232878273Y-197953380D01*
X232544940Y-198334333D01*
X232687797Y-198334333D01*
X232783035Y-198381952D01*
X232830654Y-198429571D01*
X232878273Y-198524809D01*
X232878273Y-198762904D01*
X232830654Y-198858142D01*
X232783035Y-198905761D01*
X232687797Y-198953380D01*
X232402083Y-198953380D01*
X232306845Y-198905761D01*
X232259226Y-198858142D01*
X233830654Y-198953380D02*
X233259226Y-198953380D01*
X233544940Y-198953380D02*
X233544940Y-197953380D01*
X233449702Y-198096238D01*
X233354464Y-198191476D01*
X233259226Y-198239095D01*
%TO.C,D75*%
X215479464Y-149677380D02*
X215479464Y-148677380D01*
X215717559Y-148677380D01*
X215860416Y-148725000D01*
X215955654Y-148820238D01*
X216003273Y-148915476D01*
X216050892Y-149105952D01*
X216050892Y-149248809D01*
X216003273Y-149439285D01*
X215955654Y-149534523D01*
X215860416Y-149629761D01*
X215717559Y-149677380D01*
X215479464Y-149677380D01*
X216384226Y-148677380D02*
X217050892Y-148677380D01*
X216622321Y-149677380D01*
X217908035Y-148677380D02*
X217431845Y-148677380D01*
X217384226Y-149153571D01*
X217431845Y-149105952D01*
X217527083Y-149058333D01*
X217765178Y-149058333D01*
X217860416Y-149105952D01*
X217908035Y-149153571D01*
X217955654Y-149248809D01*
X217955654Y-149486904D01*
X217908035Y-149582142D01*
X217860416Y-149629761D01*
X217765178Y-149677380D01*
X217527083Y-149677380D01*
X217431845Y-149629761D01*
X217384226Y-149582142D01*
X221567559Y-148677380D02*
X222186607Y-148677380D01*
X221853273Y-149058333D01*
X221996130Y-149058333D01*
X222091369Y-149105952D01*
X222138988Y-149153571D01*
X222186607Y-149248809D01*
X222186607Y-149486904D01*
X222138988Y-149582142D01*
X222091369Y-149629761D01*
X221996130Y-149677380D01*
X221710416Y-149677380D01*
X221615178Y-149629761D01*
X221567559Y-149582142D01*
X222615178Y-149582142D02*
X222662797Y-149629761D01*
X222615178Y-149677380D01*
X222567559Y-149629761D01*
X222615178Y-149582142D01*
X222615178Y-149677380D01*
X223519940Y-148677380D02*
X223329464Y-148677380D01*
X223234226Y-148725000D01*
X223186607Y-148772619D01*
X223091369Y-148915476D01*
X223043750Y-149105952D01*
X223043750Y-149486904D01*
X223091369Y-149582142D01*
X223138988Y-149629761D01*
X223234226Y-149677380D01*
X223424702Y-149677380D01*
X223519940Y-149629761D01*
X223567559Y-149582142D01*
X223615178Y-149486904D01*
X223615178Y-149248809D01*
X223567559Y-149153571D01*
X223519940Y-149105952D01*
X223424702Y-149058333D01*
X223234226Y-149058333D01*
X223138988Y-149105952D01*
X223091369Y-149153571D01*
X223043750Y-149248809D01*
X223900892Y-148677380D02*
X224234226Y-149677380D01*
X224567559Y-148677380D01*
%TO.C,CapsL1*%
X166394047Y-198858142D02*
X166346428Y-198905761D01*
X166203571Y-198953380D01*
X166108333Y-198953380D01*
X165965476Y-198905761D01*
X165870238Y-198810523D01*
X165822619Y-198715285D01*
X165775000Y-198524809D01*
X165775000Y-198381952D01*
X165822619Y-198191476D01*
X165870238Y-198096238D01*
X165965476Y-198001000D01*
X166108333Y-197953380D01*
X166203571Y-197953380D01*
X166346428Y-198001000D01*
X166394047Y-198048619D01*
X167251190Y-198953380D02*
X167251190Y-198429571D01*
X167203571Y-198334333D01*
X167108333Y-198286714D01*
X166917857Y-198286714D01*
X166822619Y-198334333D01*
X167251190Y-198905761D02*
X167155952Y-198953380D01*
X166917857Y-198953380D01*
X166822619Y-198905761D01*
X166775000Y-198810523D01*
X166775000Y-198715285D01*
X166822619Y-198620047D01*
X166917857Y-198572428D01*
X167155952Y-198572428D01*
X167251190Y-198524809D01*
X167727380Y-198286714D02*
X167727380Y-199286714D01*
X167727380Y-198334333D02*
X167822619Y-198286714D01*
X168013095Y-198286714D01*
X168108333Y-198334333D01*
X168155952Y-198381952D01*
X168203571Y-198477190D01*
X168203571Y-198762904D01*
X168155952Y-198858142D01*
X168108333Y-198905761D01*
X168013095Y-198953380D01*
X167822619Y-198953380D01*
X167727380Y-198905761D01*
X168584523Y-198905761D02*
X168679761Y-198953380D01*
X168870238Y-198953380D01*
X168965476Y-198905761D01*
X169013095Y-198810523D01*
X169013095Y-198762904D01*
X168965476Y-198667666D01*
X168870238Y-198620047D01*
X168727380Y-198620047D01*
X168632142Y-198572428D01*
X168584523Y-198477190D01*
X168584523Y-198429571D01*
X168632142Y-198334333D01*
X168727380Y-198286714D01*
X168870238Y-198286714D01*
X168965476Y-198334333D01*
X169917857Y-198953380D02*
X169441666Y-198953380D01*
X169441666Y-197953380D01*
X170775000Y-198953380D02*
X170203571Y-198953380D01*
X170489285Y-198953380D02*
X170489285Y-197953380D01*
X170394047Y-198096238D01*
X170298809Y-198191476D01*
X170203571Y-198239095D01*
%TO.C,C2*%
X167124142Y-148661380D02*
X166552714Y-148661380D01*
X166838428Y-148661380D02*
X166838428Y-147661380D01*
X166743190Y-147804238D01*
X166647952Y-147899476D01*
X166552714Y-147947095D01*
X167743190Y-147661380D02*
X167838428Y-147661380D01*
X167933666Y-147709000D01*
X167981285Y-147756619D01*
X168028904Y-147851857D01*
X168076523Y-148042333D01*
X168076523Y-148280428D01*
X168028904Y-148470904D01*
X167981285Y-148566142D01*
X167933666Y-148613761D01*
X167838428Y-148661380D01*
X167743190Y-148661380D01*
X167647952Y-148613761D01*
X167600333Y-148566142D01*
X167552714Y-148470904D01*
X167505095Y-148280428D01*
X167505095Y-148042333D01*
X167552714Y-147851857D01*
X167600333Y-147756619D01*
X167647952Y-147709000D01*
X167743190Y-147661380D01*
X168933666Y-147994714D02*
X168933666Y-148661380D01*
X168505095Y-147994714D02*
X168505095Y-148518523D01*
X168552714Y-148613761D01*
X168647952Y-148661380D01*
X168790809Y-148661380D01*
X168886047Y-148613761D01*
X168933666Y-148566142D01*
%TO.C,C1*%
X241927083Y-217908142D02*
X241879464Y-217955761D01*
X241736607Y-218003380D01*
X241641369Y-218003380D01*
X241498511Y-217955761D01*
X241403273Y-217860523D01*
X241355654Y-217765285D01*
X241308035Y-217574809D01*
X241308035Y-217431952D01*
X241355654Y-217241476D01*
X241403273Y-217146238D01*
X241498511Y-217051000D01*
X241641369Y-217003380D01*
X241736607Y-217003380D01*
X241879464Y-217051000D01*
X241927083Y-217098619D01*
X242879464Y-218003380D02*
X242308035Y-218003380D01*
X242593750Y-218003380D02*
X242593750Y-217003380D01*
X242498511Y-217146238D01*
X242403273Y-217241476D01*
X242308035Y-217289095D01*
%TO.C,C4*%
X300973833Y-135516892D02*
X300926214Y-135564511D01*
X300783357Y-135612130D01*
X300688119Y-135612130D01*
X300545261Y-135564511D01*
X300450023Y-135469273D01*
X300402404Y-135374035D01*
X300354785Y-135183559D01*
X300354785Y-135040702D01*
X300402404Y-134850226D01*
X300450023Y-134754988D01*
X300545261Y-134659750D01*
X300688119Y-134612130D01*
X300783357Y-134612130D01*
X300926214Y-134659750D01*
X300973833Y-134707369D01*
X301830976Y-134945464D02*
X301830976Y-135612130D01*
X301592880Y-134564511D02*
X301354785Y-135278797D01*
X301973833Y-135278797D01*
X305173214Y-134580380D02*
X305268452Y-134580380D01*
X305363690Y-134628000D01*
X305411309Y-134675619D01*
X305458928Y-134770857D01*
X305506547Y-134961333D01*
X305506547Y-135199428D01*
X305458928Y-135389904D01*
X305411309Y-135485142D01*
X305363690Y-135532761D01*
X305268452Y-135580380D01*
X305173214Y-135580380D01*
X305077976Y-135532761D01*
X305030357Y-135485142D01*
X304982738Y-135389904D01*
X304935119Y-135199428D01*
X304935119Y-134961333D01*
X304982738Y-134770857D01*
X305030357Y-134675619D01*
X305077976Y-134628000D01*
X305173214Y-134580380D01*
X305935119Y-135485142D02*
X305982738Y-135532761D01*
X305935119Y-135580380D01*
X305887500Y-135532761D01*
X305935119Y-135485142D01*
X305935119Y-135580380D01*
X306935119Y-135580380D02*
X306363690Y-135580380D01*
X306649404Y-135580380D02*
X306649404Y-134580380D01*
X306554166Y-134723238D01*
X306458928Y-134818476D01*
X306363690Y-134866095D01*
X307792261Y-134913714D02*
X307792261Y-135580380D01*
X307363690Y-134913714D02*
X307363690Y-135437523D01*
X307411309Y-135532761D01*
X307506547Y-135580380D01*
X307649404Y-135580380D01*
X307744642Y-135532761D01*
X307792261Y-135485142D01*
%TO.C,C3*%
X298442083Y-157202142D02*
X298394464Y-157249761D01*
X298251607Y-157297380D01*
X298156369Y-157297380D01*
X298013511Y-157249761D01*
X297918273Y-157154523D01*
X297870654Y-157059285D01*
X297823035Y-156868809D01*
X297823035Y-156725952D01*
X297870654Y-156535476D01*
X297918273Y-156440238D01*
X298013511Y-156345000D01*
X298156369Y-156297380D01*
X298251607Y-156297380D01*
X298394464Y-156345000D01*
X298442083Y-156392619D01*
X298775416Y-156297380D02*
X299394464Y-156297380D01*
X299061130Y-156678333D01*
X299203988Y-156678333D01*
X299299226Y-156725952D01*
X299346845Y-156773571D01*
X299394464Y-156868809D01*
X299394464Y-157106904D01*
X299346845Y-157202142D01*
X299299226Y-157249761D01*
X299203988Y-157297380D01*
X298918273Y-157297380D01*
X298823035Y-157249761D01*
X298775416Y-157202142D01*
X302760214Y-156265630D02*
X302855452Y-156265630D01*
X302950690Y-156313250D01*
X302998309Y-156360869D01*
X303045928Y-156456107D01*
X303093547Y-156646583D01*
X303093547Y-156884678D01*
X303045928Y-157075154D01*
X302998309Y-157170392D01*
X302950690Y-157218011D01*
X302855452Y-157265630D01*
X302760214Y-157265630D01*
X302664976Y-157218011D01*
X302617357Y-157170392D01*
X302569738Y-157075154D01*
X302522119Y-156884678D01*
X302522119Y-156646583D01*
X302569738Y-156456107D01*
X302617357Y-156360869D01*
X302664976Y-156313250D01*
X302760214Y-156265630D01*
X303522119Y-157170392D02*
X303569738Y-157218011D01*
X303522119Y-157265630D01*
X303474500Y-157218011D01*
X303522119Y-157170392D01*
X303522119Y-157265630D01*
X304522119Y-157265630D02*
X303950690Y-157265630D01*
X304236404Y-157265630D02*
X304236404Y-156265630D01*
X304141166Y-156408488D01*
X304045928Y-156503726D01*
X303950690Y-156551345D01*
X305379261Y-156598964D02*
X305379261Y-157265630D01*
X304950690Y-156598964D02*
X304950690Y-157122773D01*
X304998309Y-157218011D01*
X305093547Y-157265630D01*
X305236404Y-157265630D01*
X305331642Y-157218011D01*
X305379261Y-157170392D01*
%TO.C,C6*%
X329144333Y-138787142D02*
X329096714Y-138834761D01*
X328953857Y-138882380D01*
X328858619Y-138882380D01*
X328715761Y-138834761D01*
X328620523Y-138739523D01*
X328572904Y-138644285D01*
X328525285Y-138453809D01*
X328525285Y-138310952D01*
X328572904Y-138120476D01*
X328620523Y-138025238D01*
X328715761Y-137930000D01*
X328858619Y-137882380D01*
X328953857Y-137882380D01*
X329096714Y-137930000D01*
X329144333Y-137977619D01*
X330001476Y-137882380D02*
X329811000Y-137882380D01*
X329715761Y-137930000D01*
X329668142Y-137977619D01*
X329572904Y-138120476D01*
X329525285Y-138310952D01*
X329525285Y-138691904D01*
X329572904Y-138787142D01*
X329620523Y-138834761D01*
X329715761Y-138882380D01*
X329906238Y-138882380D01*
X330001476Y-138834761D01*
X330049095Y-138787142D01*
X330096714Y-138691904D01*
X330096714Y-138453809D01*
X330049095Y-138358571D01*
X330001476Y-138310952D01*
X329906238Y-138263333D01*
X329715761Y-138263333D01*
X329620523Y-138310952D01*
X329572904Y-138358571D01*
X329525285Y-138453809D01*
X333049714Y-137977619D02*
X333097333Y-137930000D01*
X333192571Y-137882380D01*
X333430666Y-137882380D01*
X333525904Y-137930000D01*
X333573523Y-137977619D01*
X333621142Y-138072857D01*
X333621142Y-138168095D01*
X333573523Y-138310952D01*
X333002095Y-138882380D01*
X333621142Y-138882380D01*
X334002095Y-137977619D02*
X334049714Y-137930000D01*
X334144952Y-137882380D01*
X334383047Y-137882380D01*
X334478285Y-137930000D01*
X334525904Y-137977619D01*
X334573523Y-138072857D01*
X334573523Y-138168095D01*
X334525904Y-138310952D01*
X333954476Y-138882380D01*
X334573523Y-138882380D01*
X335002095Y-138215714D02*
X335002095Y-139215714D01*
X335002095Y-138263333D02*
X335097333Y-138215714D01*
X335287809Y-138215714D01*
X335383047Y-138263333D01*
X335430666Y-138310952D01*
X335478285Y-138406190D01*
X335478285Y-138691904D01*
X335430666Y-138787142D01*
X335383047Y-138834761D01*
X335287809Y-138882380D01*
X335097333Y-138882380D01*
X335002095Y-138834761D01*
%TO.C,C5*%
X329144333Y-154027142D02*
X329096714Y-154074761D01*
X328953857Y-154122380D01*
X328858619Y-154122380D01*
X328715761Y-154074761D01*
X328620523Y-153979523D01*
X328572904Y-153884285D01*
X328525285Y-153693809D01*
X328525285Y-153550952D01*
X328572904Y-153360476D01*
X328620523Y-153265238D01*
X328715761Y-153170000D01*
X328858619Y-153122380D01*
X328953857Y-153122380D01*
X329096714Y-153170000D01*
X329144333Y-153217619D01*
X330049095Y-153122380D02*
X329572904Y-153122380D01*
X329525285Y-153598571D01*
X329572904Y-153550952D01*
X329668142Y-153503333D01*
X329906238Y-153503333D01*
X330001476Y-153550952D01*
X330049095Y-153598571D01*
X330096714Y-153693809D01*
X330096714Y-153931904D01*
X330049095Y-154027142D01*
X330001476Y-154074761D01*
X329906238Y-154122380D01*
X329668142Y-154122380D01*
X329572904Y-154074761D01*
X329525285Y-154027142D01*
X333113214Y-153217619D02*
X333160833Y-153170000D01*
X333256071Y-153122380D01*
X333494166Y-153122380D01*
X333589404Y-153170000D01*
X333637023Y-153217619D01*
X333684642Y-153312857D01*
X333684642Y-153408095D01*
X333637023Y-153550952D01*
X333065595Y-154122380D01*
X333684642Y-154122380D01*
X334065595Y-153217619D02*
X334113214Y-153170000D01*
X334208452Y-153122380D01*
X334446547Y-153122380D01*
X334541785Y-153170000D01*
X334589404Y-153217619D01*
X334637023Y-153312857D01*
X334637023Y-153408095D01*
X334589404Y-153550952D01*
X334017976Y-154122380D01*
X334637023Y-154122380D01*
X335065595Y-153455714D02*
X335065595Y-154455714D01*
X335065595Y-153503333D02*
X335160833Y-153455714D01*
X335351309Y-153455714D01*
X335446547Y-153503333D01*
X335494166Y-153550952D01*
X335541785Y-153646190D01*
X335541785Y-153931904D01*
X335494166Y-154027142D01*
X335446547Y-154074761D01*
X335351309Y-154122380D01*
X335160833Y-154122380D01*
X335065595Y-154074761D01*
%TO.C,BOOT1*%
X195413452Y-144327571D02*
X195556309Y-144375190D01*
X195603928Y-144422809D01*
X195651547Y-144518047D01*
X195651547Y-144660904D01*
X195603928Y-144756142D01*
X195556309Y-144803761D01*
X195461071Y-144851380D01*
X195080119Y-144851380D01*
X195080119Y-143851380D01*
X195413452Y-143851380D01*
X195508690Y-143899000D01*
X195556309Y-143946619D01*
X195603928Y-144041857D01*
X195603928Y-144137095D01*
X195556309Y-144232333D01*
X195508690Y-144279952D01*
X195413452Y-144327571D01*
X195080119Y-144327571D01*
X196222976Y-144851380D02*
X196127738Y-144803761D01*
X196080119Y-144756142D01*
X196032500Y-144660904D01*
X196032500Y-144375190D01*
X196080119Y-144279952D01*
X196127738Y-144232333D01*
X196222976Y-144184714D01*
X196365833Y-144184714D01*
X196461071Y-144232333D01*
X196508690Y-144279952D01*
X196556309Y-144375190D01*
X196556309Y-144660904D01*
X196508690Y-144756142D01*
X196461071Y-144803761D01*
X196365833Y-144851380D01*
X196222976Y-144851380D01*
X197127738Y-144851380D02*
X197032500Y-144803761D01*
X196984880Y-144756142D01*
X196937261Y-144660904D01*
X196937261Y-144375190D01*
X196984880Y-144279952D01*
X197032500Y-144232333D01*
X197127738Y-144184714D01*
X197270595Y-144184714D01*
X197365833Y-144232333D01*
X197413452Y-144279952D01*
X197461071Y-144375190D01*
X197461071Y-144660904D01*
X197413452Y-144756142D01*
X197365833Y-144803761D01*
X197270595Y-144851380D01*
X197127738Y-144851380D01*
X197746785Y-144184714D02*
X198127738Y-144184714D01*
X197889642Y-143851380D02*
X197889642Y-144708523D01*
X197937261Y-144803761D01*
X198032500Y-144851380D01*
X198127738Y-144851380D01*
%TO.C,Bksp1*%
X416639583Y-160329571D02*
X416782440Y-160377190D01*
X416830059Y-160424809D01*
X416877678Y-160520047D01*
X416877678Y-160662904D01*
X416830059Y-160758142D01*
X416782440Y-160805761D01*
X416687202Y-160853380D01*
X416306250Y-160853380D01*
X416306250Y-159853380D01*
X416639583Y-159853380D01*
X416734821Y-159901000D01*
X416782440Y-159948619D01*
X416830059Y-160043857D01*
X416830059Y-160139095D01*
X416782440Y-160234333D01*
X416734821Y-160281952D01*
X416639583Y-160329571D01*
X416306250Y-160329571D01*
X417306250Y-160853380D02*
X417306250Y-159853380D01*
X417401488Y-160472428D02*
X417687202Y-160853380D01*
X417687202Y-160186714D02*
X417306250Y-160567666D01*
X418068154Y-160805761D02*
X418163392Y-160853380D01*
X418353869Y-160853380D01*
X418449107Y-160805761D01*
X418496726Y-160710523D01*
X418496726Y-160662904D01*
X418449107Y-160567666D01*
X418353869Y-160520047D01*
X418211011Y-160520047D01*
X418115773Y-160472428D01*
X418068154Y-160377190D01*
X418068154Y-160329571D01*
X418115773Y-160234333D01*
X418211011Y-160186714D01*
X418353869Y-160186714D01*
X418449107Y-160234333D01*
X418925297Y-160186714D02*
X418925297Y-161186714D01*
X418925297Y-160234333D02*
X419020535Y-160186714D01*
X419211011Y-160186714D01*
X419306250Y-160234333D01*
X419353869Y-160281952D01*
X419401488Y-160377190D01*
X419401488Y-160662904D01*
X419353869Y-160758142D01*
X419306250Y-160805761D01*
X419211011Y-160853380D01*
X419020535Y-160853380D01*
X418925297Y-160805761D01*
X420353869Y-160853380D02*
X419782440Y-160853380D01*
X420068154Y-160853380D02*
X420068154Y-159853380D01*
X419972916Y-159996238D01*
X419877678Y-160091476D01*
X419782440Y-160139095D01*
%TO.C,B1*%
X279788988Y-217479571D02*
X279931845Y-217527190D01*
X279979464Y-217574809D01*
X280027083Y-217670047D01*
X280027083Y-217812904D01*
X279979464Y-217908142D01*
X279931845Y-217955761D01*
X279836607Y-218003380D01*
X279455654Y-218003380D01*
X279455654Y-217003380D01*
X279788988Y-217003380D01*
X279884226Y-217051000D01*
X279931845Y-217098619D01*
X279979464Y-217193857D01*
X279979464Y-217289095D01*
X279931845Y-217384333D01*
X279884226Y-217431952D01*
X279788988Y-217479571D01*
X279455654Y-217479571D01*
X280979464Y-218003380D02*
X280408035Y-218003380D01*
X280693750Y-218003380D02*
X280693750Y-217003380D01*
X280598511Y-217146238D01*
X280503273Y-217241476D01*
X280408035Y-217289095D01*
%TO.C,ArrowUp1*%
X424545535Y-217717666D02*
X425021726Y-217717666D01*
X424450297Y-218003380D02*
X424783630Y-217003380D01*
X425116964Y-218003380D01*
X425450297Y-218003380D02*
X425450297Y-217336714D01*
X425450297Y-217527190D02*
X425497916Y-217431952D01*
X425545535Y-217384333D01*
X425640773Y-217336714D01*
X425736011Y-217336714D01*
X426069345Y-218003380D02*
X426069345Y-217336714D01*
X426069345Y-217527190D02*
X426116964Y-217431952D01*
X426164583Y-217384333D01*
X426259821Y-217336714D01*
X426355059Y-217336714D01*
X426831250Y-218003380D02*
X426736011Y-217955761D01*
X426688392Y-217908142D01*
X426640773Y-217812904D01*
X426640773Y-217527190D01*
X426688392Y-217431952D01*
X426736011Y-217384333D01*
X426831250Y-217336714D01*
X426974107Y-217336714D01*
X427069345Y-217384333D01*
X427116964Y-217431952D01*
X427164583Y-217527190D01*
X427164583Y-217812904D01*
X427116964Y-217908142D01*
X427069345Y-217955761D01*
X426974107Y-218003380D01*
X426831250Y-218003380D01*
X427497916Y-217336714D02*
X427688392Y-218003380D01*
X427878869Y-217527190D01*
X428069345Y-218003380D01*
X428259821Y-217336714D01*
X428640773Y-217003380D02*
X428640773Y-217812904D01*
X428688392Y-217908142D01*
X428736011Y-217955761D01*
X428831250Y-218003380D01*
X429021726Y-218003380D01*
X429116964Y-217955761D01*
X429164583Y-217908142D01*
X429212202Y-217812904D01*
X429212202Y-217003380D01*
X429688392Y-217336714D02*
X429688392Y-218336714D01*
X429688392Y-217384333D02*
X429783630Y-217336714D01*
X429974107Y-217336714D01*
X430069345Y-217384333D01*
X430116964Y-217431952D01*
X430164583Y-217527190D01*
X430164583Y-217812904D01*
X430116964Y-217908142D01*
X430069345Y-217955761D01*
X429974107Y-218003380D01*
X429783630Y-218003380D01*
X429688392Y-217955761D01*
X431116964Y-218003380D02*
X430545535Y-218003380D01*
X430831250Y-218003380D02*
X430831250Y-217003380D01*
X430736011Y-217146238D01*
X430640773Y-217241476D01*
X430545535Y-217289095D01*
%TO.C,ArrowRight1*%
X442643154Y-236767666D02*
X443119345Y-236767666D01*
X442547916Y-237053380D02*
X442881250Y-236053380D01*
X443214583Y-237053380D01*
X443547916Y-237053380D02*
X443547916Y-236386714D01*
X443547916Y-236577190D02*
X443595535Y-236481952D01*
X443643154Y-236434333D01*
X443738392Y-236386714D01*
X443833630Y-236386714D01*
X444166964Y-237053380D02*
X444166964Y-236386714D01*
X444166964Y-236577190D02*
X444214583Y-236481952D01*
X444262202Y-236434333D01*
X444357440Y-236386714D01*
X444452678Y-236386714D01*
X444928869Y-237053380D02*
X444833630Y-237005761D01*
X444786011Y-236958142D01*
X444738392Y-236862904D01*
X444738392Y-236577190D01*
X444786011Y-236481952D01*
X444833630Y-236434333D01*
X444928869Y-236386714D01*
X445071726Y-236386714D01*
X445166964Y-236434333D01*
X445214583Y-236481952D01*
X445262202Y-236577190D01*
X445262202Y-236862904D01*
X445214583Y-236958142D01*
X445166964Y-237005761D01*
X445071726Y-237053380D01*
X444928869Y-237053380D01*
X445595535Y-236386714D02*
X445786011Y-237053380D01*
X445976488Y-236577190D01*
X446166964Y-237053380D01*
X446357440Y-236386714D01*
X447309821Y-237053380D02*
X446976488Y-236577190D01*
X446738392Y-237053380D02*
X446738392Y-236053380D01*
X447119345Y-236053380D01*
X447214583Y-236101000D01*
X447262202Y-236148619D01*
X447309821Y-236243857D01*
X447309821Y-236386714D01*
X447262202Y-236481952D01*
X447214583Y-236529571D01*
X447119345Y-236577190D01*
X446738392Y-236577190D01*
X447738392Y-237053380D02*
X447738392Y-236386714D01*
X447738392Y-236053380D02*
X447690773Y-236101000D01*
X447738392Y-236148619D01*
X447786011Y-236101000D01*
X447738392Y-236053380D01*
X447738392Y-236148619D01*
X448643154Y-236386714D02*
X448643154Y-237196238D01*
X448595535Y-237291476D01*
X448547916Y-237339095D01*
X448452678Y-237386714D01*
X448309821Y-237386714D01*
X448214583Y-237339095D01*
X448643154Y-237005761D02*
X448547916Y-237053380D01*
X448357440Y-237053380D01*
X448262202Y-237005761D01*
X448214583Y-236958142D01*
X448166964Y-236862904D01*
X448166964Y-236577190D01*
X448214583Y-236481952D01*
X448262202Y-236434333D01*
X448357440Y-236386714D01*
X448547916Y-236386714D01*
X448643154Y-236434333D01*
X449119345Y-237053380D02*
X449119345Y-236053380D01*
X449547916Y-237053380D02*
X449547916Y-236529571D01*
X449500297Y-236434333D01*
X449405059Y-236386714D01*
X449262202Y-236386714D01*
X449166964Y-236434333D01*
X449119345Y-236481952D01*
X449881250Y-236386714D02*
X450262202Y-236386714D01*
X450024107Y-236053380D02*
X450024107Y-236910523D01*
X450071726Y-237005761D01*
X450166964Y-237053380D01*
X450262202Y-237053380D01*
X451119345Y-237053380D02*
X450547916Y-237053380D01*
X450833630Y-237053380D02*
X450833630Y-236053380D01*
X450738392Y-236196238D01*
X450643154Y-236291476D01*
X450547916Y-236339095D01*
%TO.C,ArrowLeft1*%
X405066964Y-236767666D02*
X405543154Y-236767666D01*
X404971726Y-237053380D02*
X405305059Y-236053380D01*
X405638392Y-237053380D01*
X405971726Y-237053380D02*
X405971726Y-236386714D01*
X405971726Y-236577190D02*
X406019345Y-236481952D01*
X406066964Y-236434333D01*
X406162202Y-236386714D01*
X406257440Y-236386714D01*
X406590773Y-237053380D02*
X406590773Y-236386714D01*
X406590773Y-236577190D02*
X406638392Y-236481952D01*
X406686011Y-236434333D01*
X406781250Y-236386714D01*
X406876488Y-236386714D01*
X407352678Y-237053380D02*
X407257440Y-237005761D01*
X407209821Y-236958142D01*
X407162202Y-236862904D01*
X407162202Y-236577190D01*
X407209821Y-236481952D01*
X407257440Y-236434333D01*
X407352678Y-236386714D01*
X407495535Y-236386714D01*
X407590773Y-236434333D01*
X407638392Y-236481952D01*
X407686011Y-236577190D01*
X407686011Y-236862904D01*
X407638392Y-236958142D01*
X407590773Y-237005761D01*
X407495535Y-237053380D01*
X407352678Y-237053380D01*
X408019345Y-236386714D02*
X408209821Y-237053380D01*
X408400297Y-236577190D01*
X408590773Y-237053380D01*
X408781250Y-236386714D01*
X409638392Y-237053380D02*
X409162202Y-237053380D01*
X409162202Y-236053380D01*
X410352678Y-237005761D02*
X410257440Y-237053380D01*
X410066964Y-237053380D01*
X409971726Y-237005761D01*
X409924107Y-236910523D01*
X409924107Y-236529571D01*
X409971726Y-236434333D01*
X410066964Y-236386714D01*
X410257440Y-236386714D01*
X410352678Y-236434333D01*
X410400297Y-236529571D01*
X410400297Y-236624809D01*
X409924107Y-236720047D01*
X410686011Y-236386714D02*
X411066964Y-236386714D01*
X410828869Y-237053380D02*
X410828869Y-236196238D01*
X410876488Y-236101000D01*
X410971726Y-236053380D01*
X411066964Y-236053380D01*
X411257440Y-236386714D02*
X411638392Y-236386714D01*
X411400297Y-236053380D02*
X411400297Y-236910523D01*
X411447916Y-237005761D01*
X411543154Y-237053380D01*
X411638392Y-237053380D01*
X412495535Y-237053380D02*
X411924107Y-237053380D01*
X412209821Y-237053380D02*
X412209821Y-236053380D01*
X412114583Y-236196238D01*
X412019345Y-236291476D01*
X411924107Y-236339095D01*
%TO.C,ArrowDown1*%
X423593154Y-236767666D02*
X424069345Y-236767666D01*
X423497916Y-237053380D02*
X423831250Y-236053380D01*
X424164583Y-237053380D01*
X424497916Y-237053380D02*
X424497916Y-236386714D01*
X424497916Y-236577190D02*
X424545535Y-236481952D01*
X424593154Y-236434333D01*
X424688392Y-236386714D01*
X424783630Y-236386714D01*
X425116964Y-237053380D02*
X425116964Y-236386714D01*
X425116964Y-236577190D02*
X425164583Y-236481952D01*
X425212202Y-236434333D01*
X425307440Y-236386714D01*
X425402678Y-236386714D01*
X425878869Y-237053380D02*
X425783630Y-237005761D01*
X425736011Y-236958142D01*
X425688392Y-236862904D01*
X425688392Y-236577190D01*
X425736011Y-236481952D01*
X425783630Y-236434333D01*
X425878869Y-236386714D01*
X426021726Y-236386714D01*
X426116964Y-236434333D01*
X426164583Y-236481952D01*
X426212202Y-236577190D01*
X426212202Y-236862904D01*
X426164583Y-236958142D01*
X426116964Y-237005761D01*
X426021726Y-237053380D01*
X425878869Y-237053380D01*
X426545535Y-236386714D02*
X426736011Y-237053380D01*
X426926488Y-236577190D01*
X427116964Y-237053380D01*
X427307440Y-236386714D01*
X427688392Y-237053380D02*
X427688392Y-236053380D01*
X427926488Y-236053380D01*
X428069345Y-236101000D01*
X428164583Y-236196238D01*
X428212202Y-236291476D01*
X428259821Y-236481952D01*
X428259821Y-236624809D01*
X428212202Y-236815285D01*
X428164583Y-236910523D01*
X428069345Y-237005761D01*
X427926488Y-237053380D01*
X427688392Y-237053380D01*
X428831250Y-237053380D02*
X428736011Y-237005761D01*
X428688392Y-236958142D01*
X428640773Y-236862904D01*
X428640773Y-236577190D01*
X428688392Y-236481952D01*
X428736011Y-236434333D01*
X428831250Y-236386714D01*
X428974107Y-236386714D01*
X429069345Y-236434333D01*
X429116964Y-236481952D01*
X429164583Y-236577190D01*
X429164583Y-236862904D01*
X429116964Y-236958142D01*
X429069345Y-237005761D01*
X428974107Y-237053380D01*
X428831250Y-237053380D01*
X429497916Y-236386714D02*
X429688392Y-237053380D01*
X429878869Y-236577190D01*
X430069345Y-237053380D01*
X430259821Y-236386714D01*
X430640773Y-236386714D02*
X430640773Y-237053380D01*
X430640773Y-236481952D02*
X430688392Y-236434333D01*
X430783630Y-236386714D01*
X430926488Y-236386714D01*
X431021726Y-236434333D01*
X431069345Y-236529571D01*
X431069345Y-237053380D01*
X432069345Y-237053380D02*
X431497916Y-237053380D01*
X431783630Y-237053380D02*
X431783630Y-236053380D01*
X431688392Y-236196238D01*
X431593154Y-236291476D01*
X431497916Y-236339095D01*
%TO.C,A1*%
X193754464Y-198667666D02*
X194230654Y-198667666D01*
X193659226Y-198953380D02*
X193992559Y-197953380D01*
X194325892Y-198953380D01*
X195183035Y-198953380D02*
X194611607Y-198953380D01*
X194897321Y-198953380D02*
X194897321Y-197953380D01*
X194802083Y-198096238D01*
X194706845Y-198191476D01*
X194611607Y-198239095D01*
%TO.C,`1*%
X446309821Y-159805761D02*
X446452678Y-159948619D01*
X447357440Y-160853380D02*
X446786011Y-160853380D01*
X447071726Y-160853380D02*
X447071726Y-159853380D01*
X446976488Y-159996238D01*
X446881250Y-160091476D01*
X446786011Y-160139095D01*
%TO.C,]1*%
X398589583Y-180236714D02*
X398827678Y-180236714D01*
X398827678Y-178808142D01*
X398589583Y-178808142D01*
X399875297Y-179903380D02*
X399303869Y-179903380D01*
X399589583Y-179903380D02*
X399589583Y-178903380D01*
X399494345Y-179046238D01*
X399399107Y-179141476D01*
X399303869Y-179189095D01*
%TO.C,\u005C1*%
X422163988Y-178808142D02*
X423021130Y-180093857D01*
X423687797Y-179903380D02*
X423116369Y-179903380D01*
X423402083Y-179903380D02*
X423402083Y-178903380D01*
X423306845Y-179046238D01*
X423211607Y-179141476D01*
X423116369Y-179189095D01*
%TO.C,[1*%
X379920535Y-180236714D02*
X379682440Y-180236714D01*
X379682440Y-178808142D01*
X379920535Y-178808142D01*
X380825297Y-179903380D02*
X380253869Y-179903380D01*
X380539583Y-179903380D02*
X380539583Y-178903380D01*
X380444345Y-179046238D01*
X380349107Y-179141476D01*
X380253869Y-179189095D01*
%TO.C,=1*%
X388874107Y-160329571D02*
X389636011Y-160329571D01*
X389636011Y-160615285D02*
X388874107Y-160615285D01*
X390636011Y-160853380D02*
X390064583Y-160853380D01*
X390350297Y-160853380D02*
X390350297Y-159853380D01*
X390255059Y-159996238D01*
X390159821Y-160091476D01*
X390064583Y-160139095D01*
%TO.C,;1*%
X365490178Y-198905761D02*
X365490178Y-198953380D01*
X365442559Y-199048619D01*
X365394940Y-199096238D01*
X365442559Y-198334333D02*
X365490178Y-198381952D01*
X365442559Y-198429571D01*
X365394940Y-198381952D01*
X365442559Y-198334333D01*
X365442559Y-198429571D01*
X366442559Y-198953380D02*
X365871130Y-198953380D01*
X366156845Y-198953380D02*
X366156845Y-197953380D01*
X366061607Y-198096238D01*
X365966369Y-198191476D01*
X365871130Y-198239095D01*
%TO.C,/1*%
X375396130Y-216955761D02*
X374538988Y-218241476D01*
X376253273Y-218003380D02*
X375681845Y-218003380D01*
X375967559Y-218003380D02*
X375967559Y-217003380D01*
X375872321Y-217146238D01*
X375777083Y-217241476D01*
X375681845Y-217289095D01*
%TO.C,-1*%
X369824107Y-160472428D02*
X370586011Y-160472428D01*
X371586011Y-160853380D02*
X371014583Y-160853380D01*
X371300297Y-160853380D02*
X371300297Y-159853380D01*
X371205059Y-159996238D01*
X371109821Y-160091476D01*
X371014583Y-160139095D01*
%TO.C,'1*%
X384540178Y-197953380D02*
X384444940Y-198143857D01*
X385492559Y-198953380D02*
X384921130Y-198953380D01*
X385206845Y-198953380D02*
X385206845Y-197953380D01*
X385111607Y-198096238D01*
X385016369Y-198191476D01*
X384921130Y-198239095D01*
%TO.C,.1*%
X355917559Y-217908142D02*
X355965178Y-217955761D01*
X355917559Y-218003380D01*
X355869940Y-217955761D01*
X355917559Y-217908142D01*
X355917559Y-218003380D01*
X356917559Y-218003380D02*
X356346130Y-218003380D01*
X356631845Y-218003380D02*
X356631845Y-217003380D01*
X356536607Y-217146238D01*
X356441369Y-217241476D01*
X356346130Y-217289095D01*
%TO.C,\u002C1*%
X336915178Y-217955761D02*
X336915178Y-218003380D01*
X336867559Y-218098619D01*
X336819940Y-218146238D01*
X337867559Y-218003380D02*
X337296130Y-218003380D01*
X337581845Y-218003380D02*
X337581845Y-217003380D01*
X337486607Y-217146238D01*
X337391369Y-217241476D01*
X337296130Y-217289095D01*
%TD*%
M02*
