%TF.GenerationSoftware,KiCad,Pcbnew,(5.1.6)-1*%
%TF.CreationDate,2020-08-08T01:29:47-04:00*%
%TF.ProjectId,panama-keyboard,70616e61-6d61-42d6-9b65-79626f617264,w1*%
%TF.SameCoordinates,Original*%
%TF.FileFunction,Legend,Bot*%
%TF.FilePolarity,Positive*%
%FSLAX46Y46*%
G04 Gerber Fmt 4.6, Leading zero omitted, Abs format (unit mm)*
G04 Created by KiCad (PCBNEW (5.1.6)-1) date 2020-08-08 01:29:47*
%MOMM*%
%LPD*%
G01*
G04 APERTURE LIST*
%ADD10C,0.300000*%
%ADD11C,0.150000*%
%ADD12C,0.010000*%
%ADD13C,0.120000*%
G04 APERTURE END LIST*
D10*
X337056714Y-242603571D02*
X337056714Y-241103571D01*
X336485285Y-241103571D01*
X336342428Y-241175000D01*
X336271000Y-241246428D01*
X336199571Y-241389285D01*
X336199571Y-241603571D01*
X336271000Y-241746428D01*
X336342428Y-241817857D01*
X336485285Y-241889285D01*
X337056714Y-241889285D01*
X335628142Y-242175000D02*
X334913857Y-242175000D01*
X335771000Y-242603571D02*
X335271000Y-241103571D01*
X334771000Y-242603571D01*
X334271000Y-242603571D02*
X334271000Y-241103571D01*
X333413857Y-242603571D01*
X333413857Y-241103571D01*
X332771000Y-242175000D02*
X332056714Y-242175000D01*
X332913857Y-242603571D02*
X332413857Y-241103571D01*
X331913857Y-242603571D01*
X331413857Y-242603571D02*
X331413857Y-241103571D01*
X330913857Y-242175000D01*
X330413857Y-241103571D01*
X330413857Y-242603571D01*
X329771000Y-242175000D02*
X329056714Y-242175000D01*
X329913857Y-242603571D02*
X329413857Y-241103571D01*
X328913857Y-242603571D01*
X327271000Y-242603571D02*
X327271000Y-241103571D01*
X326413857Y-242603571D02*
X327056714Y-241746428D01*
X326413857Y-241103571D02*
X327271000Y-241960714D01*
X325771000Y-241817857D02*
X325271000Y-241817857D01*
X325056714Y-242603571D02*
X325771000Y-242603571D01*
X325771000Y-241103571D01*
X325056714Y-241103571D01*
X324128142Y-241889285D02*
X324128142Y-242603571D01*
X324628142Y-241103571D02*
X324128142Y-241889285D01*
X323628142Y-241103571D01*
X322628142Y-241817857D02*
X322413857Y-241889285D01*
X322342428Y-241960714D01*
X322271000Y-242103571D01*
X322271000Y-242317857D01*
X322342428Y-242460714D01*
X322413857Y-242532142D01*
X322556714Y-242603571D01*
X323128142Y-242603571D01*
X323128142Y-241103571D01*
X322628142Y-241103571D01*
X322485285Y-241175000D01*
X322413857Y-241246428D01*
X322342428Y-241389285D01*
X322342428Y-241532142D01*
X322413857Y-241675000D01*
X322485285Y-241746428D01*
X322628142Y-241817857D01*
X323128142Y-241817857D01*
X321342428Y-241103571D02*
X321056714Y-241103571D01*
X320913857Y-241175000D01*
X320771000Y-241317857D01*
X320699571Y-241603571D01*
X320699571Y-242103571D01*
X320771000Y-242389285D01*
X320913857Y-242532142D01*
X321056714Y-242603571D01*
X321342428Y-242603571D01*
X321485285Y-242532142D01*
X321628142Y-242389285D01*
X321699571Y-242103571D01*
X321699571Y-241603571D01*
X321628142Y-241317857D01*
X321485285Y-241175000D01*
X321342428Y-241103571D01*
X320128142Y-242175000D02*
X319413857Y-242175000D01*
X320271000Y-242603571D02*
X319771000Y-241103571D01*
X319271000Y-242603571D01*
X317913857Y-242603571D02*
X318413857Y-241889285D01*
X318771000Y-242603571D02*
X318771000Y-241103571D01*
X318199571Y-241103571D01*
X318056714Y-241175000D01*
X317985285Y-241246428D01*
X317913857Y-241389285D01*
X317913857Y-241603571D01*
X317985285Y-241746428D01*
X318056714Y-241817857D01*
X318199571Y-241889285D01*
X318771000Y-241889285D01*
X317271000Y-242603571D02*
X317271000Y-241103571D01*
X316913857Y-241103571D01*
X316699571Y-241175000D01*
X316556714Y-241317857D01*
X316485285Y-241460714D01*
X316413857Y-241746428D01*
X316413857Y-241960714D01*
X316485285Y-242246428D01*
X316556714Y-242389285D01*
X316699571Y-242532142D01*
X316913857Y-242603571D01*
X317271000Y-242603571D01*
X328913857Y-244153571D02*
X328556714Y-245153571D01*
X328199571Y-244153571D01*
X326842428Y-245153571D02*
X327699571Y-245153571D01*
X327271000Y-245153571D02*
X327271000Y-243653571D01*
X327413857Y-243867857D01*
X327556714Y-244010714D01*
X327699571Y-244082142D01*
X326199571Y-245010714D02*
X326128142Y-245082142D01*
X326199571Y-245153571D01*
X326271000Y-245082142D01*
X326199571Y-245010714D01*
X326199571Y-245153571D01*
X325199571Y-243653571D02*
X325056714Y-243653571D01*
X324913857Y-243725000D01*
X324842428Y-243796428D01*
X324771000Y-243939285D01*
X324699571Y-244225000D01*
X324699571Y-244582142D01*
X324771000Y-244867857D01*
X324842428Y-245010714D01*
X324913857Y-245082142D01*
X325056714Y-245153571D01*
X325199571Y-245153571D01*
X325342428Y-245082142D01*
X325413857Y-245010714D01*
X325485285Y-244867857D01*
X325556714Y-244582142D01*
X325556714Y-244225000D01*
X325485285Y-243939285D01*
X325413857Y-243796428D01*
X325342428Y-243725000D01*
X325199571Y-243653571D01*
X340056714Y-247703571D02*
X340056714Y-246203571D01*
X339556714Y-247275000D01*
X339056714Y-246203571D01*
X339056714Y-247703571D01*
X338342428Y-246917857D02*
X337842428Y-246917857D01*
X337628142Y-247703571D02*
X338342428Y-247703571D01*
X338342428Y-246203571D01*
X337628142Y-246203571D01*
X336128142Y-247703571D02*
X336628142Y-246989285D01*
X336985285Y-247703571D02*
X336985285Y-246203571D01*
X336413857Y-246203571D01*
X336271000Y-246275000D01*
X336199571Y-246346428D01*
X336128142Y-246489285D01*
X336128142Y-246703571D01*
X336199571Y-246846428D01*
X336271000Y-246917857D01*
X336413857Y-246989285D01*
X336985285Y-246989285D01*
X334628142Y-247560714D02*
X334699571Y-247632142D01*
X334913857Y-247703571D01*
X335056714Y-247703571D01*
X335271000Y-247632142D01*
X335413857Y-247489285D01*
X335485285Y-247346428D01*
X335556714Y-247060714D01*
X335556714Y-246846428D01*
X335485285Y-246560714D01*
X335413857Y-246417857D01*
X335271000Y-246275000D01*
X335056714Y-246203571D01*
X334913857Y-246203571D01*
X334699571Y-246275000D01*
X334628142Y-246346428D01*
X333985285Y-247703571D02*
X333985285Y-246203571D01*
X333271000Y-246917857D02*
X332771000Y-246917857D01*
X332556714Y-247703571D02*
X333271000Y-247703571D01*
X333271000Y-246203571D01*
X332556714Y-246203571D01*
X331056714Y-247703571D02*
X331556714Y-246989285D01*
X331913857Y-247703571D02*
X331913857Y-246203571D01*
X331342428Y-246203571D01*
X331199571Y-246275000D01*
X331128142Y-246346428D01*
X331056714Y-246489285D01*
X331056714Y-246703571D01*
X331128142Y-246846428D01*
X331199571Y-246917857D01*
X331342428Y-246989285D01*
X331913857Y-246989285D01*
X329485285Y-246203571D02*
X328628142Y-246203571D01*
X329056714Y-247703571D02*
X329056714Y-246203571D01*
X328128142Y-246917857D02*
X327628142Y-246917857D01*
X327413857Y-247703571D02*
X328128142Y-247703571D01*
X328128142Y-246203571D01*
X327413857Y-246203571D01*
X325913857Y-247560714D02*
X325985285Y-247632142D01*
X326199571Y-247703571D01*
X326342428Y-247703571D01*
X326556714Y-247632142D01*
X326699571Y-247489285D01*
X326771000Y-247346428D01*
X326842428Y-247060714D01*
X326842428Y-246846428D01*
X326771000Y-246560714D01*
X326699571Y-246417857D01*
X326556714Y-246275000D01*
X326342428Y-246203571D01*
X326199571Y-246203571D01*
X325985285Y-246275000D01*
X325913857Y-246346428D01*
X325271000Y-247703571D02*
X325271000Y-246203571D01*
X325271000Y-246917857D02*
X324413857Y-246917857D01*
X324413857Y-247703571D02*
X324413857Y-246203571D01*
X323699571Y-247703571D02*
X323699571Y-246203571D01*
X322842428Y-247703571D01*
X322842428Y-246203571D01*
X321842428Y-246203571D02*
X321556714Y-246203571D01*
X321413857Y-246275000D01*
X321271000Y-246417857D01*
X321199571Y-246703571D01*
X321199571Y-247203571D01*
X321271000Y-247489285D01*
X321413857Y-247632142D01*
X321556714Y-247703571D01*
X321842428Y-247703571D01*
X321985285Y-247632142D01*
X322128142Y-247489285D01*
X322199571Y-247203571D01*
X322199571Y-246703571D01*
X322128142Y-246417857D01*
X321985285Y-246275000D01*
X321842428Y-246203571D01*
X319842428Y-247703571D02*
X320556714Y-247703571D01*
X320556714Y-246203571D01*
X319056714Y-246203571D02*
X318771000Y-246203571D01*
X318628142Y-246275000D01*
X318485285Y-246417857D01*
X318413857Y-246703571D01*
X318413857Y-247203571D01*
X318485285Y-247489285D01*
X318628142Y-247632142D01*
X318771000Y-247703571D01*
X319056714Y-247703571D01*
X319199571Y-247632142D01*
X319342428Y-247489285D01*
X319413857Y-247203571D01*
X319413857Y-246703571D01*
X319342428Y-246417857D01*
X319199571Y-246275000D01*
X319056714Y-246203571D01*
X316985285Y-246275000D02*
X317128142Y-246203571D01*
X317342428Y-246203571D01*
X317556714Y-246275000D01*
X317699571Y-246417857D01*
X317771000Y-246560714D01*
X317842428Y-246846428D01*
X317842428Y-247060714D01*
X317771000Y-247346428D01*
X317699571Y-247489285D01*
X317556714Y-247632142D01*
X317342428Y-247703571D01*
X317199571Y-247703571D01*
X316985285Y-247632142D01*
X316913857Y-247560714D01*
X316913857Y-247060714D01*
X317199571Y-247060714D01*
X316271000Y-247703571D02*
X316271000Y-246203571D01*
X315556714Y-246917857D02*
X315056714Y-246917857D01*
X314842428Y-247703571D02*
X315556714Y-247703571D01*
X315556714Y-246203571D01*
X314842428Y-246203571D01*
X314271000Y-247632142D02*
X314056714Y-247703571D01*
X313699571Y-247703571D01*
X313556714Y-247632142D01*
X313485285Y-247560714D01*
X313413857Y-247417857D01*
X313413857Y-247275000D01*
X313485285Y-247132142D01*
X313556714Y-247060714D01*
X313699571Y-246989285D01*
X313985285Y-246917857D01*
X314128142Y-246846428D01*
X314199571Y-246775000D01*
X314271000Y-246632142D01*
X314271000Y-246489285D01*
X314199571Y-246346428D01*
X314128142Y-246275000D01*
X313985285Y-246203571D01*
X313628142Y-246203571D01*
X313413857Y-246275000D01*
D11*
X260691000Y-156027380D02*
X261167190Y-156027380D01*
X261167190Y-155027380D01*
X260357666Y-155503571D02*
X260024333Y-155503571D01*
X259881476Y-156027380D02*
X260357666Y-156027380D01*
X260357666Y-155027380D01*
X259881476Y-155027380D01*
X259452904Y-156027380D02*
X259452904Y-155027380D01*
X259214809Y-155027380D01*
X259071952Y-155075000D01*
X258976714Y-155170238D01*
X258929095Y-155265476D01*
X258881476Y-155455952D01*
X258881476Y-155598809D01*
X258929095Y-155789285D01*
X258976714Y-155884523D01*
X259071952Y-155979761D01*
X259214809Y-156027380D01*
X259452904Y-156027380D01*
X257691000Y-155503571D02*
X257357666Y-155503571D01*
X257214809Y-156027380D02*
X257691000Y-156027380D01*
X257691000Y-155027380D01*
X257214809Y-155027380D01*
X256786238Y-156027380D02*
X256786238Y-155027380D01*
X256214809Y-156027380D01*
X256214809Y-155027380D01*
X255738619Y-156027380D02*
X255738619Y-155027380D01*
X255500523Y-155027380D01*
X255357666Y-155075000D01*
X255262428Y-155170238D01*
X255214809Y-155265476D01*
X255167190Y-155455952D01*
X255167190Y-155598809D01*
X255214809Y-155789285D01*
X255262428Y-155884523D01*
X255357666Y-155979761D01*
X255500523Y-156027380D01*
X255738619Y-156027380D01*
X350090857Y-155233714D02*
X350852761Y-155519428D01*
X350090857Y-155805142D01*
X349614666Y-155519428D02*
X348852761Y-155519428D01*
X347900380Y-155900380D02*
X348376571Y-155900380D01*
X348376571Y-154900380D01*
X347567047Y-155376571D02*
X347233714Y-155376571D01*
X347090857Y-155900380D02*
X347567047Y-155900380D01*
X347567047Y-154900380D01*
X347090857Y-154900380D01*
X346662285Y-155900380D02*
X346662285Y-154900380D01*
X346424190Y-154900380D01*
X346281333Y-154948000D01*
X346186095Y-155043238D01*
X346138476Y-155138476D01*
X346090857Y-155328952D01*
X346090857Y-155471809D01*
X346138476Y-155662285D01*
X346186095Y-155757523D01*
X346281333Y-155852761D01*
X346424190Y-155900380D01*
X346662285Y-155900380D01*
X344948000Y-155852761D02*
X344805142Y-155900380D01*
X344567047Y-155900380D01*
X344471809Y-155852761D01*
X344424190Y-155805142D01*
X344376571Y-155709904D01*
X344376571Y-155614666D01*
X344424190Y-155519428D01*
X344471809Y-155471809D01*
X344567047Y-155424190D01*
X344757523Y-155376571D01*
X344852761Y-155328952D01*
X344900380Y-155281333D01*
X344948000Y-155186095D01*
X344948000Y-155090857D01*
X344900380Y-154995619D01*
X344852761Y-154948000D01*
X344757523Y-154900380D01*
X344519428Y-154900380D01*
X344376571Y-154948000D01*
X344090857Y-154900380D02*
X343519428Y-154900380D01*
X343805142Y-155900380D02*
X343805142Y-154900380D01*
X343233714Y-155614666D02*
X342757523Y-155614666D01*
X343328952Y-155900380D02*
X342995619Y-154900380D01*
X342662285Y-155900380D01*
X341757523Y-155900380D02*
X342090857Y-155424190D01*
X342328952Y-155900380D02*
X342328952Y-154900380D01*
X341948000Y-154900380D01*
X341852761Y-154948000D01*
X341805142Y-154995619D01*
X341757523Y-155090857D01*
X341757523Y-155233714D01*
X341805142Y-155328952D01*
X341852761Y-155376571D01*
X341948000Y-155424190D01*
X342328952Y-155424190D01*
X341471809Y-154900380D02*
X340900380Y-154900380D01*
X341186095Y-155900380D02*
X341186095Y-154900380D01*
X352877380Y-155051190D02*
X351877380Y-155051190D01*
X352877380Y-155527380D02*
X351877380Y-155527380D01*
X352877380Y-156098809D01*
X351877380Y-156098809D01*
X248896130Y-155051190D02*
X247896130Y-155051190D01*
X248896130Y-155527380D02*
X247896130Y-155527380D01*
X248896130Y-156098809D01*
X247896130Y-156098809D01*
X181427380Y-234426190D02*
X180427380Y-234426190D01*
X181427380Y-234902380D02*
X180427380Y-234902380D01*
X181427380Y-235473809D01*
X180427380Y-235473809D01*
X256039880Y-234426190D02*
X255039880Y-234426190D01*
X256039880Y-234902380D02*
X255039880Y-234902380D01*
X256039880Y-235473809D01*
X255039880Y-235473809D01*
X345733630Y-234426190D02*
X344733630Y-234426190D01*
X345733630Y-234902380D02*
X344733630Y-234902380D01*
X345733630Y-235473809D01*
X344733630Y-235473809D01*
X441777380Y-234426190D02*
X440777380Y-234426190D01*
X441777380Y-234902380D02*
X440777380Y-234902380D01*
X441777380Y-235473809D01*
X440777380Y-235473809D01*
X434705059Y-194921130D02*
X434705059Y-193921130D01*
X434228869Y-194921130D02*
X434228869Y-193921130D01*
X433657440Y-194921130D01*
X433657440Y-193921130D01*
X437880059Y-155233630D02*
X437880059Y-154233630D01*
X437403869Y-155233630D02*
X437403869Y-154233630D01*
X436832440Y-155233630D01*
X436832440Y-154233630D01*
X180705059Y-201271130D02*
X180705059Y-200271130D01*
X180228869Y-201271130D02*
X180228869Y-200271130D01*
X179657440Y-201271130D01*
X179657440Y-200271130D01*
X171180059Y-162377380D02*
X171180059Y-161377380D01*
X170703869Y-162377380D02*
X170703869Y-161377380D01*
X170132440Y-162377380D01*
X170132440Y-161377380D01*
D12*
%TO.C,G\u002A\u002A\u002A*%
G36*
X260783917Y-246611355D02*
G01*
X261044127Y-246638553D01*
X261161131Y-246646210D01*
X261339694Y-246652193D01*
X261565186Y-246656525D01*
X261822976Y-246659233D01*
X262098435Y-246660339D01*
X262376932Y-246659868D01*
X262643839Y-246657846D01*
X262884524Y-246654296D01*
X263084358Y-246649242D01*
X263228712Y-246642710D01*
X263302750Y-246634775D01*
X263387460Y-246595454D01*
X263418519Y-246565603D01*
X263428658Y-246508420D01*
X263436833Y-246380360D01*
X263443013Y-246195190D01*
X263447167Y-245966677D01*
X263449263Y-245708590D01*
X263449272Y-245434695D01*
X263447162Y-245158759D01*
X263442902Y-244894550D01*
X263436461Y-244655835D01*
X263428158Y-244464417D01*
X262942917Y-244464417D01*
X262942917Y-246157750D01*
X261249583Y-246157750D01*
X261249583Y-244464417D01*
X262942917Y-244464417D01*
X263428158Y-244464417D01*
X263427809Y-244456383D01*
X263423411Y-244386253D01*
X263395905Y-243998750D01*
X260783917Y-243998750D01*
X260783917Y-246611355D01*
G37*
X260783917Y-246611355D02*
X261044127Y-246638553D01*
X261161131Y-246646210D01*
X261339694Y-246652193D01*
X261565186Y-246656525D01*
X261822976Y-246659233D01*
X262098435Y-246660339D01*
X262376932Y-246659868D01*
X262643839Y-246657846D01*
X262884524Y-246654296D01*
X263084358Y-246649242D01*
X263228712Y-246642710D01*
X263302750Y-246634775D01*
X263387460Y-246595454D01*
X263418519Y-246565603D01*
X263428658Y-246508420D01*
X263436833Y-246380360D01*
X263443013Y-246195190D01*
X263447167Y-245966677D01*
X263449263Y-245708590D01*
X263449272Y-245434695D01*
X263447162Y-245158759D01*
X263442902Y-244894550D01*
X263436461Y-244655835D01*
X263428158Y-244464417D01*
X262942917Y-244464417D01*
X262942917Y-246157750D01*
X261249583Y-246157750D01*
X261249583Y-244464417D01*
X262942917Y-244464417D01*
X263428158Y-244464417D01*
X263427809Y-244456383D01*
X263423411Y-244386253D01*
X263395905Y-243998750D01*
X260783917Y-243998750D01*
X260783917Y-246611355D01*
G36*
X261118652Y-241692831D02*
G01*
X261040461Y-241759505D01*
X260988059Y-241891641D01*
X260965105Y-242072977D01*
X260975258Y-242287253D01*
X260978843Y-242314184D01*
X261016750Y-242580583D01*
X261212348Y-242593262D01*
X261334351Y-242596120D01*
X261397900Y-242577525D01*
X261428389Y-242527777D01*
X261434020Y-242508595D01*
X261451013Y-242392543D01*
X261458786Y-242229903D01*
X261457231Y-242057388D01*
X261446242Y-241911707D01*
X261435918Y-241855494D01*
X261373610Y-241764660D01*
X261264503Y-241702040D01*
X261145980Y-241686801D01*
X261118652Y-241692831D01*
G37*
X261118652Y-241692831D02*
X261040461Y-241759505D01*
X260988059Y-241891641D01*
X260965105Y-242072977D01*
X260975258Y-242287253D01*
X260978843Y-242314184D01*
X261016750Y-242580583D01*
X261212348Y-242593262D01*
X261334351Y-242596120D01*
X261397900Y-242577525D01*
X261428389Y-242527777D01*
X261434020Y-242508595D01*
X261451013Y-242392543D01*
X261458786Y-242229903D01*
X261457231Y-242057388D01*
X261446242Y-241911707D01*
X261435918Y-241855494D01*
X261373610Y-241764660D01*
X261264503Y-241702040D01*
X261145980Y-241686801D01*
X261118652Y-241692831D01*
G36*
X261946819Y-241729389D02*
G01*
X261893050Y-241763550D01*
X261866629Y-241832393D01*
X261849859Y-241959017D01*
X261842983Y-242117060D01*
X261846244Y-242280160D01*
X261859887Y-242421956D01*
X261884154Y-242516084D01*
X261886073Y-242519866D01*
X261960329Y-242579756D01*
X262075930Y-242602129D01*
X262197590Y-242585466D01*
X262282063Y-242536889D01*
X262352464Y-242414279D01*
X262383783Y-242245793D01*
X262375935Y-242060705D01*
X262328838Y-241888290D01*
X262284143Y-241806541D01*
X262192954Y-241738363D01*
X262067555Y-241711221D01*
X261946819Y-241729389D01*
G37*
X261946819Y-241729389D02*
X261893050Y-241763550D01*
X261866629Y-241832393D01*
X261849859Y-241959017D01*
X261842983Y-242117060D01*
X261846244Y-242280160D01*
X261859887Y-242421956D01*
X261884154Y-242516084D01*
X261886073Y-242519866D01*
X261960329Y-242579756D01*
X262075930Y-242602129D01*
X262197590Y-242585466D01*
X262282063Y-242536889D01*
X262352464Y-242414279D01*
X262383783Y-242245793D01*
X262375935Y-242060705D01*
X262328838Y-241888290D01*
X262284143Y-241806541D01*
X262192954Y-241738363D01*
X262067555Y-241711221D01*
X261946819Y-241729389D01*
G36*
X262866477Y-241709072D02*
G01*
X262790648Y-241811114D01*
X262732972Y-241955655D01*
X262698454Y-242121806D01*
X262692100Y-242288679D01*
X262718915Y-242435387D01*
X262754817Y-242507664D01*
X262843321Y-242572924D01*
X262969700Y-242602649D01*
X263097811Y-242594111D01*
X263191514Y-242544585D01*
X263194757Y-242540852D01*
X263222906Y-242463537D01*
X263239897Y-242331840D01*
X263244719Y-242175437D01*
X263236362Y-242024004D01*
X263216100Y-241914372D01*
X263142202Y-241771043D01*
X263033796Y-241686461D01*
X262955453Y-241670417D01*
X262866477Y-241709072D01*
G37*
X262866477Y-241709072D02*
X262790648Y-241811114D01*
X262732972Y-241955655D01*
X262698454Y-242121806D01*
X262692100Y-242288679D01*
X262718915Y-242435387D01*
X262754817Y-242507664D01*
X262843321Y-242572924D01*
X262969700Y-242602649D01*
X263097811Y-242594111D01*
X263191514Y-242544585D01*
X263194757Y-242540852D01*
X263222906Y-242463537D01*
X263239897Y-242331840D01*
X263244719Y-242175437D01*
X263236362Y-242024004D01*
X263216100Y-241914372D01*
X263142202Y-241771043D01*
X263033796Y-241686461D01*
X262955453Y-241670417D01*
X262866477Y-241709072D01*
G36*
X258807074Y-244218632D02*
G01*
X258660493Y-244237921D01*
X258592295Y-244255708D01*
X258494325Y-244305706D01*
X258438443Y-244363408D01*
X258437963Y-244364608D01*
X258439555Y-244465952D01*
X258503246Y-244566104D01*
X258609080Y-244635776D01*
X258721634Y-244660188D01*
X258877546Y-244672185D01*
X259046409Y-244672001D01*
X259197817Y-244659872D01*
X259301361Y-244636030D01*
X259312833Y-244630359D01*
X259365773Y-244557464D01*
X259386701Y-244443968D01*
X259373172Y-244328605D01*
X259336117Y-244261217D01*
X259264561Y-244232996D01*
X259135164Y-244216363D01*
X258973983Y-244211510D01*
X258807074Y-244218632D01*
G37*
X258807074Y-244218632D02*
X258660493Y-244237921D01*
X258592295Y-244255708D01*
X258494325Y-244305706D01*
X258438443Y-244363408D01*
X258437963Y-244364608D01*
X258439555Y-244465952D01*
X258503246Y-244566104D01*
X258609080Y-244635776D01*
X258721634Y-244660188D01*
X258877546Y-244672185D01*
X259046409Y-244672001D01*
X259197817Y-244659872D01*
X259301361Y-244636030D01*
X259312833Y-244630359D01*
X259365773Y-244557464D01*
X259386701Y-244443968D01*
X259373172Y-244328605D01*
X259336117Y-244261217D01*
X259264561Y-244232996D01*
X259135164Y-244216363D01*
X258973983Y-244211510D01*
X258807074Y-244218632D01*
G36*
X265195394Y-244215265D02*
G01*
X265029626Y-244230059D01*
X264905022Y-244254195D01*
X264894254Y-244257697D01*
X264801585Y-244301242D01*
X264769639Y-244362828D01*
X264771520Y-244436649D01*
X264815932Y-244562066D01*
X264890250Y-244621577D01*
X264995897Y-244651300D01*
X265149887Y-244668446D01*
X265321740Y-244672650D01*
X265480978Y-244663545D01*
X265597124Y-244640765D01*
X265620500Y-244630359D01*
X265672325Y-244561218D01*
X265695713Y-244453132D01*
X265690053Y-244340067D01*
X265654728Y-244255988D01*
X265627621Y-244236112D01*
X265525598Y-244217373D01*
X265371120Y-244210730D01*
X265195394Y-244215265D01*
G37*
X265195394Y-244215265D02*
X265029626Y-244230059D01*
X264905022Y-244254195D01*
X264894254Y-244257697D01*
X264801585Y-244301242D01*
X264769639Y-244362828D01*
X264771520Y-244436649D01*
X264815932Y-244562066D01*
X264890250Y-244621577D01*
X264995897Y-244651300D01*
X265149887Y-244668446D01*
X265321740Y-244672650D01*
X265480978Y-244663545D01*
X265597124Y-244640765D01*
X265620500Y-244630359D01*
X265672325Y-244561218D01*
X265695713Y-244453132D01*
X265690053Y-244340067D01*
X265654728Y-244255988D01*
X265627621Y-244236112D01*
X265525598Y-244217373D01*
X265371120Y-244210730D01*
X265195394Y-244215265D01*
G36*
X250918002Y-242477946D02*
G01*
X250693724Y-242490183D01*
X250525165Y-242515429D01*
X250397929Y-242557654D01*
X250297619Y-242620830D01*
X250209835Y-242708924D01*
X250166444Y-242763162D01*
X250109447Y-242846268D01*
X250075312Y-242928059D01*
X250058316Y-243033884D01*
X250052735Y-243189095D01*
X250052417Y-243268242D01*
X250052417Y-243623826D01*
X250408703Y-243956166D01*
X250156476Y-244436383D01*
X250060847Y-244623885D01*
X249981862Y-244789098D01*
X249927182Y-244915236D01*
X249904469Y-244985517D01*
X249904250Y-244988954D01*
X249916610Y-245029694D01*
X249966286Y-245049109D01*
X250072176Y-245051831D01*
X250147667Y-245048612D01*
X250391083Y-245035917D01*
X250607813Y-244643184D01*
X250730210Y-244425815D01*
X250824783Y-244272885D01*
X250901937Y-244173286D01*
X250972079Y-244115913D01*
X251045614Y-244089658D01*
X251132266Y-244083417D01*
X251288827Y-244083417D01*
X251316205Y-244407304D01*
X251329852Y-244590583D01*
X251339662Y-244763971D01*
X251343578Y-244890923D01*
X251343583Y-244894137D01*
X251343583Y-245057083D01*
X251569361Y-245057083D01*
X251701108Y-245052176D01*
X251795608Y-245039585D01*
X251823361Y-245028861D01*
X251830467Y-244980954D01*
X251836917Y-244859068D01*
X251842476Y-244673893D01*
X251846913Y-244436114D01*
X251849992Y-244156421D01*
X251851481Y-243845501D01*
X251851583Y-243737694D01*
X251851583Y-242898083D01*
X251301250Y-242898083D01*
X251301250Y-243665271D01*
X251100167Y-243635740D01*
X250954622Y-243609334D01*
X250827465Y-243578015D01*
X250793250Y-243566827D01*
X250663293Y-243495753D01*
X250558061Y-243398397D01*
X250501105Y-243298431D01*
X250496917Y-243268921D01*
X250535062Y-243117468D01*
X250644337Y-243001846D01*
X250817003Y-242927095D01*
X251045321Y-242898256D01*
X251066315Y-242898083D01*
X251301250Y-242898083D01*
X251851583Y-242898083D01*
X251851583Y-242474750D01*
X251212398Y-242474750D01*
X250918002Y-242477946D01*
G37*
X250918002Y-242477946D02*
X250693724Y-242490183D01*
X250525165Y-242515429D01*
X250397929Y-242557654D01*
X250297619Y-242620830D01*
X250209835Y-242708924D01*
X250166444Y-242763162D01*
X250109447Y-242846268D01*
X250075312Y-242928059D01*
X250058316Y-243033884D01*
X250052735Y-243189095D01*
X250052417Y-243268242D01*
X250052417Y-243623826D01*
X250408703Y-243956166D01*
X250156476Y-244436383D01*
X250060847Y-244623885D01*
X249981862Y-244789098D01*
X249927182Y-244915236D01*
X249904469Y-244985517D01*
X249904250Y-244988954D01*
X249916610Y-245029694D01*
X249966286Y-245049109D01*
X250072176Y-245051831D01*
X250147667Y-245048612D01*
X250391083Y-245035917D01*
X250607813Y-244643184D01*
X250730210Y-244425815D01*
X250824783Y-244272885D01*
X250901937Y-244173286D01*
X250972079Y-244115913D01*
X251045614Y-244089658D01*
X251132266Y-244083417D01*
X251288827Y-244083417D01*
X251316205Y-244407304D01*
X251329852Y-244590583D01*
X251339662Y-244763971D01*
X251343578Y-244890923D01*
X251343583Y-244894137D01*
X251343583Y-245057083D01*
X251569361Y-245057083D01*
X251701108Y-245052176D01*
X251795608Y-245039585D01*
X251823361Y-245028861D01*
X251830467Y-244980954D01*
X251836917Y-244859068D01*
X251842476Y-244673893D01*
X251846913Y-244436114D01*
X251849992Y-244156421D01*
X251851481Y-243845501D01*
X251851583Y-243737694D01*
X251851583Y-242898083D01*
X251301250Y-242898083D01*
X251301250Y-243665271D01*
X251100167Y-243635740D01*
X250954622Y-243609334D01*
X250827465Y-243578015D01*
X250793250Y-243566827D01*
X250663293Y-243495753D01*
X250558061Y-243398397D01*
X250501105Y-243298431D01*
X250496917Y-243268921D01*
X250535062Y-243117468D01*
X250644337Y-243001846D01*
X250817003Y-242927095D01*
X251045321Y-242898256D01*
X251066315Y-242898083D01*
X251301250Y-242898083D01*
X251851583Y-242898083D01*
X251851583Y-242474750D01*
X251212398Y-242474750D01*
X250918002Y-242477946D01*
G36*
X241962841Y-242444506D02*
G01*
X241708678Y-242456444D01*
X241521560Y-242470244D01*
X241383868Y-242488565D01*
X241277986Y-242514065D01*
X241186295Y-242549403D01*
X241148635Y-242567392D01*
X240953715Y-242706810D01*
X240822149Y-242890862D01*
X240755919Y-243105856D01*
X240757005Y-243338102D01*
X240827390Y-243573908D01*
X240969053Y-243799584D01*
X240970140Y-243800902D01*
X241134094Y-243999309D01*
X240904839Y-244417402D01*
X240783209Y-244650470D01*
X240709036Y-244823240D01*
X240680653Y-244944373D01*
X240696391Y-245022529D01*
X240754585Y-245066369D01*
X240778479Y-245073730D01*
X240926503Y-245073582D01*
X241074701Y-244996994D01*
X241225516Y-244841754D01*
X241381390Y-244605650D01*
X241464130Y-244452387D01*
X241568030Y-244270819D01*
X241665545Y-244157662D01*
X241772494Y-244099626D01*
X241903250Y-244083417D01*
X242072583Y-244083417D01*
X242072583Y-245099417D01*
X242580583Y-245099417D01*
X242580583Y-243665271D01*
X242072583Y-243665271D01*
X241871500Y-243638938D01*
X241702501Y-243607558D01*
X241532059Y-243562249D01*
X241493869Y-243549463D01*
X241353553Y-243477452D01*
X241280757Y-243380872D01*
X241277434Y-243371899D01*
X241261205Y-243218227D01*
X241319503Y-243086358D01*
X241443373Y-242983980D01*
X241623859Y-242918781D01*
X241829167Y-242898241D01*
X242072583Y-242898083D01*
X242072583Y-243665271D01*
X242580583Y-243665271D01*
X242580583Y-242419476D01*
X241962841Y-242444506D01*
G37*
X241962841Y-242444506D02*
X241708678Y-242456444D01*
X241521560Y-242470244D01*
X241383868Y-242488565D01*
X241277986Y-242514065D01*
X241186295Y-242549403D01*
X241148635Y-242567392D01*
X240953715Y-242706810D01*
X240822149Y-242890862D01*
X240755919Y-243105856D01*
X240757005Y-243338102D01*
X240827390Y-243573908D01*
X240969053Y-243799584D01*
X240970140Y-243800902D01*
X241134094Y-243999309D01*
X240904839Y-244417402D01*
X240783209Y-244650470D01*
X240709036Y-244823240D01*
X240680653Y-244944373D01*
X240696391Y-245022529D01*
X240754585Y-245066369D01*
X240778479Y-245073730D01*
X240926503Y-245073582D01*
X241074701Y-244996994D01*
X241225516Y-244841754D01*
X241381390Y-244605650D01*
X241464130Y-244452387D01*
X241568030Y-244270819D01*
X241665545Y-244157662D01*
X241772494Y-244099626D01*
X241903250Y-244083417D01*
X242072583Y-244083417D01*
X242072583Y-245099417D01*
X242580583Y-245099417D01*
X242580583Y-243665271D01*
X242072583Y-243665271D01*
X241871500Y-243638938D01*
X241702501Y-243607558D01*
X241532059Y-243562249D01*
X241493869Y-243549463D01*
X241353553Y-243477452D01*
X241280757Y-243380872D01*
X241277434Y-243371899D01*
X241261205Y-243218227D01*
X241319503Y-243086358D01*
X241443373Y-242983980D01*
X241623859Y-242918781D01*
X241829167Y-242898241D01*
X242072583Y-242898083D01*
X242072583Y-243665271D01*
X242580583Y-243665271D01*
X242580583Y-242419476D01*
X241962841Y-242444506D01*
G36*
X243342583Y-242898083D02*
G01*
X244527917Y-242898083D01*
X244527917Y-243490750D01*
X243469583Y-243490750D01*
X243469583Y-243620533D01*
X243474837Y-243733501D01*
X243499403Y-243812644D01*
X243556487Y-243865264D01*
X243659296Y-243898664D01*
X243821036Y-243920145D01*
X244040312Y-243936101D01*
X244527917Y-243966568D01*
X244527917Y-244591417D01*
X243342583Y-244591417D01*
X243342583Y-245099417D01*
X245035917Y-245099417D01*
X245035917Y-242432417D01*
X243342583Y-242432417D01*
X243342583Y-242898083D01*
G37*
X243342583Y-242898083D02*
X244527917Y-242898083D01*
X244527917Y-243490750D01*
X243469583Y-243490750D01*
X243469583Y-243620533D01*
X243474837Y-243733501D01*
X243499403Y-243812644D01*
X243556487Y-243865264D01*
X243659296Y-243898664D01*
X243821036Y-243920145D01*
X244040312Y-243936101D01*
X244527917Y-243966568D01*
X244527917Y-244591417D01*
X243342583Y-244591417D01*
X243342583Y-245099417D01*
X245035917Y-245099417D01*
X245035917Y-242432417D01*
X243342583Y-242432417D01*
X243342583Y-242898083D01*
G36*
X245924917Y-245099417D02*
G01*
X246432917Y-245099417D01*
X246432917Y-242432417D01*
X245924917Y-242432417D01*
X245924917Y-245099417D01*
G37*
X245924917Y-245099417D02*
X246432917Y-245099417D01*
X246432917Y-242432417D01*
X245924917Y-242432417D01*
X245924917Y-245099417D01*
G36*
X247945667Y-242437762D02*
G01*
X247721267Y-242548525D01*
X247511391Y-242737295D01*
X247496599Y-242753887D01*
X247353684Y-242949823D01*
X247273855Y-243136267D01*
X247262654Y-243299465D01*
X247267578Y-243322415D01*
X247292337Y-243374428D01*
X247346286Y-243397844D01*
X247452913Y-243400134D01*
X247503724Y-243397523D01*
X247632150Y-243385526D01*
X247702986Y-243358533D01*
X247743301Y-243300547D01*
X247764336Y-243243528D01*
X247854784Y-243058957D01*
X247982767Y-242947015D01*
X248157858Y-242900416D01*
X248218143Y-242898083D01*
X248404053Y-242911985D01*
X248531858Y-242963101D01*
X248624911Y-243065552D01*
X248683750Y-243179591D01*
X248731892Y-243337474D01*
X248762398Y-243538093D01*
X248775192Y-243758040D01*
X248770197Y-243973909D01*
X248747340Y-244162291D01*
X248706545Y-244299779D01*
X248687467Y-244332288D01*
X248579557Y-244447682D01*
X248446826Y-244548631D01*
X248317360Y-244616257D01*
X248239026Y-244633750D01*
X248114239Y-244599227D01*
X247978840Y-244509651D01*
X247859451Y-244386006D01*
X247797376Y-244285592D01*
X247750096Y-244194339D01*
X247699482Y-244147371D01*
X247617306Y-244129804D01*
X247496328Y-244126842D01*
X247268572Y-244125750D01*
X247289655Y-244312792D01*
X247356067Y-244550137D01*
X247490315Y-244751783D01*
X247680350Y-244910073D01*
X247914120Y-245017352D01*
X248179576Y-245065963D01*
X248451099Y-245050665D01*
X248716513Y-244971591D01*
X248928146Y-244833471D01*
X249087549Y-244633830D01*
X249196271Y-244370194D01*
X249255864Y-244040090D01*
X249269250Y-243744750D01*
X249258088Y-243432953D01*
X249220811Y-243185368D01*
X249151732Y-242984041D01*
X249045163Y-242811017D01*
X248933731Y-242685532D01*
X248800064Y-242563763D01*
X248680364Y-242490056D01*
X248538779Y-242444012D01*
X248490504Y-242433334D01*
X248197707Y-242400775D01*
X247945667Y-242437762D01*
G37*
X247945667Y-242437762D02*
X247721267Y-242548525D01*
X247511391Y-242737295D01*
X247496599Y-242753887D01*
X247353684Y-242949823D01*
X247273855Y-243136267D01*
X247262654Y-243299465D01*
X247267578Y-243322415D01*
X247292337Y-243374428D01*
X247346286Y-243397844D01*
X247452913Y-243400134D01*
X247503724Y-243397523D01*
X247632150Y-243385526D01*
X247702986Y-243358533D01*
X247743301Y-243300547D01*
X247764336Y-243243528D01*
X247854784Y-243058957D01*
X247982767Y-242947015D01*
X248157858Y-242900416D01*
X248218143Y-242898083D01*
X248404053Y-242911985D01*
X248531858Y-242963101D01*
X248624911Y-243065552D01*
X248683750Y-243179591D01*
X248731892Y-243337474D01*
X248762398Y-243538093D01*
X248775192Y-243758040D01*
X248770197Y-243973909D01*
X248747340Y-244162291D01*
X248706545Y-244299779D01*
X248687467Y-244332288D01*
X248579557Y-244447682D01*
X248446826Y-244548631D01*
X248317360Y-244616257D01*
X248239026Y-244633750D01*
X248114239Y-244599227D01*
X247978840Y-244509651D01*
X247859451Y-244386006D01*
X247797376Y-244285592D01*
X247750096Y-244194339D01*
X247699482Y-244147371D01*
X247617306Y-244129804D01*
X247496328Y-244126842D01*
X247268572Y-244125750D01*
X247289655Y-244312792D01*
X247356067Y-244550137D01*
X247490315Y-244751783D01*
X247680350Y-244910073D01*
X247914120Y-245017352D01*
X248179576Y-245065963D01*
X248451099Y-245050665D01*
X248716513Y-244971591D01*
X248928146Y-244833471D01*
X249087549Y-244633830D01*
X249196271Y-244370194D01*
X249255864Y-244040090D01*
X249269250Y-243744750D01*
X249258088Y-243432953D01*
X249220811Y-243185368D01*
X249151732Y-242984041D01*
X249045163Y-242811017D01*
X248933731Y-242685532D01*
X248800064Y-242563763D01*
X248680364Y-242490056D01*
X248538779Y-242444012D01*
X248490504Y-242433334D01*
X248197707Y-242400775D01*
X247945667Y-242437762D01*
G36*
X252571250Y-242898083D02*
G01*
X253756583Y-242898083D01*
X253756583Y-243490750D01*
X252687429Y-243490750D01*
X252715996Y-243669398D01*
X252744308Y-243786910D01*
X252780764Y-243865825D01*
X252793071Y-243878026D01*
X252853253Y-243892911D01*
X252978266Y-243909824D01*
X253148387Y-243926439D01*
X253299081Y-243937657D01*
X253756583Y-243967309D01*
X253756583Y-244591417D01*
X252571250Y-244591417D01*
X252571250Y-245099417D01*
X254264583Y-245099417D01*
X254264583Y-242432417D01*
X252571250Y-242432417D01*
X252571250Y-242898083D01*
G37*
X252571250Y-242898083D02*
X253756583Y-242898083D01*
X253756583Y-243490750D01*
X252687429Y-243490750D01*
X252715996Y-243669398D01*
X252744308Y-243786910D01*
X252780764Y-243865825D01*
X252793071Y-243878026D01*
X252853253Y-243892911D01*
X252978266Y-243909824D01*
X253148387Y-243926439D01*
X253299081Y-243937657D01*
X253756583Y-243967309D01*
X253756583Y-244591417D01*
X252571250Y-244591417D01*
X252571250Y-245099417D01*
X254264583Y-245099417D01*
X254264583Y-242432417D01*
X252571250Y-242432417D01*
X252571250Y-242898083D01*
G36*
X255153583Y-242432417D02*
G01*
X255153583Y-245099417D01*
X255648905Y-245099417D01*
X255676411Y-244711913D01*
X255689898Y-244478195D01*
X255700082Y-244219374D01*
X255704999Y-243986752D01*
X255705152Y-243960496D01*
X255706386Y-243596583D01*
X255959130Y-244210417D01*
X256051974Y-244430604D01*
X256140153Y-244630152D01*
X256216045Y-244792495D01*
X256272030Y-244901069D01*
X256290225Y-244930083D01*
X256396264Y-245022886D01*
X256515330Y-245050705D01*
X256619868Y-245009949D01*
X256688524Y-244923111D01*
X256780371Y-244758612D01*
X256893797Y-244519743D01*
X257027190Y-244209798D01*
X257104598Y-244019917D01*
X257291417Y-243554250D01*
X257302955Y-244326833D01*
X257314493Y-245099417D01*
X257820583Y-245099417D01*
X257820583Y-242432417D01*
X257202959Y-242432417D01*
X256847731Y-243348058D01*
X256492503Y-244263700D01*
X255774813Y-242432416D01*
X255464198Y-242432416D01*
X255153583Y-242432417D01*
G37*
X255153583Y-242432417D02*
X255153583Y-245099417D01*
X255648905Y-245099417D01*
X255676411Y-244711913D01*
X255689898Y-244478195D01*
X255700082Y-244219374D01*
X255704999Y-243986752D01*
X255705152Y-243960496D01*
X255706386Y-243596583D01*
X255959130Y-244210417D01*
X256051974Y-244430604D01*
X256140153Y-244630152D01*
X256216045Y-244792495D01*
X256272030Y-244901069D01*
X256290225Y-244930083D01*
X256396264Y-245022886D01*
X256515330Y-245050705D01*
X256619868Y-245009949D01*
X256688524Y-244923111D01*
X256780371Y-244758612D01*
X256893797Y-244519743D01*
X257027190Y-244209798D01*
X257104598Y-244019917D01*
X257291417Y-243554250D01*
X257302955Y-244326833D01*
X257314493Y-245099417D01*
X257820583Y-245099417D01*
X257820583Y-242432417D01*
X257202959Y-242432417D01*
X256847731Y-243348058D01*
X256492503Y-244263700D01*
X255774813Y-242432416D01*
X255464198Y-242432416D01*
X255153583Y-242432417D01*
G36*
X258879316Y-245063480D02*
G01*
X258685245Y-245077656D01*
X258560835Y-245104852D01*
X258491181Y-245153933D01*
X258461379Y-245233763D01*
X258456232Y-245315105D01*
X258492058Y-245447050D01*
X258601435Y-245537419D01*
X258784501Y-245586309D01*
X258869920Y-245593850D01*
X259023924Y-245593369D01*
X259158316Y-245578364D01*
X259216388Y-245562578D01*
X259330829Y-245490906D01*
X259380125Y-245386083D01*
X259386269Y-245307061D01*
X259366205Y-245190697D01*
X259297911Y-245113955D01*
X259171665Y-245072167D01*
X258977750Y-245060661D01*
X258879316Y-245063480D01*
G37*
X258879316Y-245063480D02*
X258685245Y-245077656D01*
X258560835Y-245104852D01*
X258491181Y-245153933D01*
X258461379Y-245233763D01*
X258456232Y-245315105D01*
X258492058Y-245447050D01*
X258601435Y-245537419D01*
X258784501Y-245586309D01*
X258869920Y-245593850D01*
X259023924Y-245593369D01*
X259158316Y-245578364D01*
X259216388Y-245562578D01*
X259330829Y-245490906D01*
X259380125Y-245386083D01*
X259386269Y-245307061D01*
X259366205Y-245190697D01*
X259297911Y-245113955D01*
X259171665Y-245072167D01*
X258977750Y-245060661D01*
X258879316Y-245063480D01*
G36*
X264991281Y-245064759D02*
G01*
X264918610Y-245086296D01*
X264862898Y-245127053D01*
X264852205Y-245137462D01*
X264775136Y-245260238D01*
X264774489Y-245384413D01*
X264849179Y-245490678D01*
X264872983Y-245508031D01*
X265016591Y-245565591D01*
X265202776Y-245592851D01*
X265394281Y-245587705D01*
X265553850Y-245548052D01*
X265557000Y-245546649D01*
X265652864Y-245489034D01*
X265689907Y-245412935D01*
X265693935Y-245344877D01*
X265685092Y-245223597D01*
X265649756Y-245144939D01*
X265572685Y-245098618D01*
X265438637Y-245074349D01*
X265277326Y-245063774D01*
X265103367Y-245058549D01*
X264991281Y-245064759D01*
G37*
X264991281Y-245064759D02*
X264918610Y-245086296D01*
X264862898Y-245127053D01*
X264852205Y-245137462D01*
X264775136Y-245260238D01*
X264774489Y-245384413D01*
X264849179Y-245490678D01*
X264872983Y-245508031D01*
X265016591Y-245565591D01*
X265202776Y-245592851D01*
X265394281Y-245587705D01*
X265553850Y-245548052D01*
X265557000Y-245546649D01*
X265652864Y-245489034D01*
X265689907Y-245412935D01*
X265693935Y-245344877D01*
X265685092Y-245223597D01*
X265649756Y-245144939D01*
X265572685Y-245098618D01*
X265438637Y-245074349D01*
X265277326Y-245063774D01*
X265103367Y-245058549D01*
X264991281Y-245064759D01*
G36*
X258795188Y-245935397D02*
G01*
X258622000Y-246003334D01*
X258491171Y-246111235D01*
X258473378Y-246135789D01*
X258426607Y-246217785D01*
X258432104Y-246272355D01*
X258489332Y-246337313D01*
X258552008Y-246384578D01*
X258639473Y-246415063D01*
X258773014Y-246433936D01*
X258929914Y-246444277D01*
X259131167Y-246449036D01*
X259260424Y-246438512D01*
X259329154Y-246411652D01*
X259334000Y-246407156D01*
X259380125Y-246306909D01*
X259381055Y-246176620D01*
X259339790Y-246055857D01*
X259303968Y-246011138D01*
X259162666Y-245935323D01*
X258984242Y-245911402D01*
X258795188Y-245935397D01*
G37*
X258795188Y-245935397D02*
X258622000Y-246003334D01*
X258491171Y-246111235D01*
X258473378Y-246135789D01*
X258426607Y-246217785D01*
X258432104Y-246272355D01*
X258489332Y-246337313D01*
X258552008Y-246384578D01*
X258639473Y-246415063D01*
X258773014Y-246433936D01*
X258929914Y-246444277D01*
X259131167Y-246449036D01*
X259260424Y-246438512D01*
X259329154Y-246411652D01*
X259334000Y-246407156D01*
X259380125Y-246306909D01*
X259381055Y-246176620D01*
X259339790Y-246055857D01*
X259303968Y-246011138D01*
X259162666Y-245935323D01*
X258984242Y-245911402D01*
X258795188Y-245935397D01*
G36*
X265144903Y-245923314D02*
G01*
X264969146Y-245977190D01*
X264873378Y-246034935D01*
X264778853Y-246144783D01*
X264764981Y-246253076D01*
X264830466Y-246347184D01*
X264910057Y-246392743D01*
X265024978Y-246422319D01*
X265186220Y-246442177D01*
X265362320Y-246450884D01*
X265521812Y-246447008D01*
X265633231Y-246429118D01*
X265641667Y-246426047D01*
X265679333Y-246370905D01*
X265693172Y-246267632D01*
X265684136Y-246149059D01*
X265653178Y-246048013D01*
X265629723Y-246014270D01*
X265503191Y-245941089D01*
X265332252Y-245911025D01*
X265144903Y-245923314D01*
G37*
X265144903Y-245923314D02*
X264969146Y-245977190D01*
X264873378Y-246034935D01*
X264778853Y-246144783D01*
X264764981Y-246253076D01*
X264830466Y-246347184D01*
X264910057Y-246392743D01*
X265024978Y-246422319D01*
X265186220Y-246442177D01*
X265362320Y-246450884D01*
X265521812Y-246447008D01*
X265633231Y-246429118D01*
X265641667Y-246426047D01*
X265679333Y-246370905D01*
X265693172Y-246267632D01*
X265684136Y-246149059D01*
X265653178Y-246048013D01*
X265629723Y-246014270D01*
X265503191Y-245941089D01*
X265332252Y-245911025D01*
X265144903Y-245923314D01*
G36*
X261946606Y-242856554D02*
G01*
X261561870Y-242857539D01*
X261192548Y-242859458D01*
X260849759Y-242862310D01*
X260544624Y-242866092D01*
X260288260Y-242870803D01*
X260091789Y-242876441D01*
X259966329Y-242883004D01*
X259963468Y-242883241D01*
X259638246Y-242910733D01*
X259650165Y-245294152D01*
X259653208Y-245826618D01*
X259656702Y-246280026D01*
X259660798Y-246659983D01*
X259665651Y-246972097D01*
X259671412Y-247221975D01*
X259678235Y-247415225D01*
X259686273Y-247557454D01*
X259695678Y-247654271D01*
X259706604Y-247711283D01*
X259716666Y-247732126D01*
X259748510Y-247746228D01*
X259817659Y-247758004D01*
X259930574Y-247767665D01*
X260093715Y-247775425D01*
X260313544Y-247781499D01*
X260596522Y-247786099D01*
X260949109Y-247789440D01*
X261377766Y-247791734D01*
X261536999Y-247792298D01*
X261943120Y-247792887D01*
X262346050Y-247792164D01*
X262732697Y-247790244D01*
X263089968Y-247787244D01*
X263404772Y-247783277D01*
X263664018Y-247778461D01*
X263854612Y-247772910D01*
X263886452Y-247771583D01*
X264141595Y-247757584D01*
X264321820Y-247741386D01*
X264436870Y-247721645D01*
X264496488Y-247697018D01*
X264506638Y-247686098D01*
X264526997Y-247610033D01*
X264544756Y-247456963D01*
X264559731Y-247234516D01*
X264571741Y-246950320D01*
X264580603Y-246612002D01*
X264586135Y-246227190D01*
X264588155Y-245803511D01*
X264586481Y-245348594D01*
X264580931Y-244870065D01*
X264578017Y-244697250D01*
X264570912Y-244340660D01*
X264563105Y-244006342D01*
X264554929Y-243704864D01*
X264546717Y-243446790D01*
X264543498Y-243363750D01*
X264001250Y-243363750D01*
X264001250Y-247300750D01*
X260148917Y-247300750D01*
X260148917Y-243363750D01*
X264001250Y-243363750D01*
X264543498Y-243363750D01*
X264538803Y-243242686D01*
X264531520Y-243103119D01*
X264525755Y-243041281D01*
X264507054Y-242967825D01*
X264470959Y-242925331D01*
X264395736Y-242901508D01*
X264259652Y-242884064D01*
X264245059Y-242882531D01*
X264137313Y-242875975D01*
X263956024Y-242870368D01*
X263712314Y-242865709D01*
X263417300Y-242861994D01*
X263082103Y-242859224D01*
X262717842Y-242857395D01*
X262335636Y-242856505D01*
X261946606Y-242856554D01*
G37*
X261946606Y-242856554D02*
X261561870Y-242857539D01*
X261192548Y-242859458D01*
X260849759Y-242862310D01*
X260544624Y-242866092D01*
X260288260Y-242870803D01*
X260091789Y-242876441D01*
X259966329Y-242883004D01*
X259963468Y-242883241D01*
X259638246Y-242910733D01*
X259650165Y-245294152D01*
X259653208Y-245826618D01*
X259656702Y-246280026D01*
X259660798Y-246659983D01*
X259665651Y-246972097D01*
X259671412Y-247221975D01*
X259678235Y-247415225D01*
X259686273Y-247557454D01*
X259695678Y-247654271D01*
X259706604Y-247711283D01*
X259716666Y-247732126D01*
X259748510Y-247746228D01*
X259817659Y-247758004D01*
X259930574Y-247767665D01*
X260093715Y-247775425D01*
X260313544Y-247781499D01*
X260596522Y-247786099D01*
X260949109Y-247789440D01*
X261377766Y-247791734D01*
X261536999Y-247792298D01*
X261943120Y-247792887D01*
X262346050Y-247792164D01*
X262732697Y-247790244D01*
X263089968Y-247787244D01*
X263404772Y-247783277D01*
X263664018Y-247778461D01*
X263854612Y-247772910D01*
X263886452Y-247771583D01*
X264141595Y-247757584D01*
X264321820Y-247741386D01*
X264436870Y-247721645D01*
X264496488Y-247697018D01*
X264506638Y-247686098D01*
X264526997Y-247610033D01*
X264544756Y-247456963D01*
X264559731Y-247234516D01*
X264571741Y-246950320D01*
X264580603Y-246612002D01*
X264586135Y-246227190D01*
X264588155Y-245803511D01*
X264586481Y-245348594D01*
X264580931Y-244870065D01*
X264578017Y-244697250D01*
X264570912Y-244340660D01*
X264563105Y-244006342D01*
X264554929Y-243704864D01*
X264546717Y-243446790D01*
X264543498Y-243363750D01*
X264001250Y-243363750D01*
X264001250Y-247300750D01*
X260148917Y-247300750D01*
X260148917Y-243363750D01*
X264001250Y-243363750D01*
X264543498Y-243363750D01*
X264538803Y-243242686D01*
X264531520Y-243103119D01*
X264525755Y-243041281D01*
X264507054Y-242967825D01*
X264470959Y-242925331D01*
X264395736Y-242901508D01*
X264259652Y-242884064D01*
X264245059Y-242882531D01*
X264137313Y-242875975D01*
X263956024Y-242870368D01*
X263712314Y-242865709D01*
X263417300Y-242861994D01*
X263082103Y-242859224D01*
X262717842Y-242857395D01*
X262335636Y-242856505D01*
X261946606Y-242856554D01*
G36*
X241101791Y-246736371D02*
G01*
X240952459Y-246810274D01*
X240833473Y-246913350D01*
X240767092Y-247029157D01*
X240760250Y-247076624D01*
X240785965Y-247172680D01*
X240851166Y-247203349D01*
X240937934Y-247165478D01*
X240986621Y-247116439D01*
X241104592Y-247020133D01*
X241242763Y-246976833D01*
X241372031Y-246993444D01*
X241411193Y-247015723D01*
X241462939Y-247087546D01*
X241436037Y-247169755D01*
X241329091Y-247263973D01*
X241140702Y-247371821D01*
X241078124Y-247402334D01*
X240760250Y-247553216D01*
X240760250Y-247767574D01*
X240782813Y-247959384D01*
X240855720Y-248088749D01*
X240986797Y-248162959D01*
X241183871Y-248189301D01*
X241213409Y-248189592D01*
X241431862Y-248169515D01*
X241594299Y-248106785D01*
X241595197Y-248106238D01*
X241709798Y-248000850D01*
X241768888Y-247871053D01*
X241760978Y-247745344D01*
X241723049Y-247692143D01*
X241662463Y-247695648D01*
X241566401Y-247759161D01*
X241504508Y-247811422D01*
X241389461Y-247896700D01*
X241283866Y-247928744D01*
X241196119Y-247927838D01*
X241083965Y-247907583D01*
X241032768Y-247862570D01*
X241022689Y-247825437D01*
X241029372Y-247774253D01*
X241073990Y-247723088D01*
X241169933Y-247661204D01*
X241330593Y-247577863D01*
X241332791Y-247576777D01*
X241509047Y-247483207D01*
X241623966Y-247403483D01*
X241696035Y-247323223D01*
X241725137Y-247271487D01*
X241767577Y-247166680D01*
X241767731Y-247091941D01*
X241731446Y-247013099D01*
X241627364Y-246886479D01*
X241482895Y-246780956D01*
X241330502Y-246717497D01*
X241259207Y-246708083D01*
X241101791Y-246736371D01*
G37*
X241101791Y-246736371D02*
X240952459Y-246810274D01*
X240833473Y-246913350D01*
X240767092Y-247029157D01*
X240760250Y-247076624D01*
X240785965Y-247172680D01*
X240851166Y-247203349D01*
X240937934Y-247165478D01*
X240986621Y-247116439D01*
X241104592Y-247020133D01*
X241242763Y-246976833D01*
X241372031Y-246993444D01*
X241411193Y-247015723D01*
X241462939Y-247087546D01*
X241436037Y-247169755D01*
X241329091Y-247263973D01*
X241140702Y-247371821D01*
X241078124Y-247402334D01*
X240760250Y-247553216D01*
X240760250Y-247767574D01*
X240782813Y-247959384D01*
X240855720Y-248088749D01*
X240986797Y-248162959D01*
X241183871Y-248189301D01*
X241213409Y-248189592D01*
X241431862Y-248169515D01*
X241594299Y-248106785D01*
X241595197Y-248106238D01*
X241709798Y-248000850D01*
X241768888Y-247871053D01*
X241760978Y-247745344D01*
X241723049Y-247692143D01*
X241662463Y-247695648D01*
X241566401Y-247759161D01*
X241504508Y-247811422D01*
X241389461Y-247896700D01*
X241283866Y-247928744D01*
X241196119Y-247927838D01*
X241083965Y-247907583D01*
X241032768Y-247862570D01*
X241022689Y-247825437D01*
X241029372Y-247774253D01*
X241073990Y-247723088D01*
X241169933Y-247661204D01*
X241330593Y-247577863D01*
X241332791Y-247576777D01*
X241509047Y-247483207D01*
X241623966Y-247403483D01*
X241696035Y-247323223D01*
X241725137Y-247271487D01*
X241767577Y-247166680D01*
X241767731Y-247091941D01*
X241731446Y-247013099D01*
X241627364Y-246886479D01*
X241482895Y-246780956D01*
X241330502Y-246717497D01*
X241259207Y-246708083D01*
X241101791Y-246736371D01*
G36*
X242760500Y-246713092D02*
G01*
X242517108Y-246721228D01*
X242347708Y-246738677D01*
X242241893Y-246767998D01*
X242189256Y-246811750D01*
X242178417Y-246856250D01*
X242209219Y-246922435D01*
X242306072Y-246967156D01*
X242475649Y-246992642D01*
X242607150Y-246999408D01*
X242765896Y-247027627D01*
X242853408Y-247101346D01*
X242870055Y-247220880D01*
X242869583Y-247224336D01*
X242852782Y-247277728D01*
X242808184Y-247312668D01*
X242716638Y-247337808D01*
X242567964Y-247360598D01*
X242415714Y-247383740D01*
X242330539Y-247406978D01*
X242295214Y-247438261D01*
X242292511Y-247485542D01*
X242292798Y-247487598D01*
X242312483Y-247540021D01*
X242366526Y-247569571D01*
X242476037Y-247585017D01*
X242536967Y-247589035D01*
X242712857Y-247609348D01*
X242818791Y-247651353D01*
X242868400Y-247723261D01*
X242876917Y-247793814D01*
X242846970Y-247882009D01*
X242752923Y-247940338D01*
X242588469Y-247971305D01*
X242413023Y-247978083D01*
X242249864Y-247986890D01*
X242162139Y-248014393D01*
X242143921Y-248036425D01*
X242138106Y-248100092D01*
X242183372Y-248144603D01*
X242288459Y-248172594D01*
X242462102Y-248186696D01*
X242652550Y-248189750D01*
X243088583Y-248189750D01*
X243088583Y-246708083D01*
X242760500Y-246713092D01*
G37*
X242760500Y-246713092D02*
X242517108Y-246721228D01*
X242347708Y-246738677D01*
X242241893Y-246767998D01*
X242189256Y-246811750D01*
X242178417Y-246856250D01*
X242209219Y-246922435D01*
X242306072Y-246967156D01*
X242475649Y-246992642D01*
X242607150Y-246999408D01*
X242765896Y-247027627D01*
X242853408Y-247101346D01*
X242870055Y-247220880D01*
X242869583Y-247224336D01*
X242852782Y-247277728D01*
X242808184Y-247312668D01*
X242716638Y-247337808D01*
X242567964Y-247360598D01*
X242415714Y-247383740D01*
X242330539Y-247406978D01*
X242295214Y-247438261D01*
X242292511Y-247485542D01*
X242292798Y-247487598D01*
X242312483Y-247540021D01*
X242366526Y-247569571D01*
X242476037Y-247585017D01*
X242536967Y-247589035D01*
X242712857Y-247609348D01*
X242818791Y-247651353D01*
X242868400Y-247723261D01*
X242876917Y-247793814D01*
X242846970Y-247882009D01*
X242752923Y-247940338D01*
X242588469Y-247971305D01*
X242413023Y-247978083D01*
X242249864Y-247986890D01*
X242162139Y-248014393D01*
X242143921Y-248036425D01*
X242138106Y-248100092D01*
X242183372Y-248144603D01*
X242288459Y-248172594D01*
X242462102Y-248186696D01*
X242652550Y-248189750D01*
X243088583Y-248189750D01*
X243088583Y-246708083D01*
X242760500Y-246713092D01*
G36*
X243747995Y-246722147D02*
G01*
X243722603Y-246740776D01*
X243704756Y-246782068D01*
X243693520Y-246858065D01*
X243687957Y-246980808D01*
X243687133Y-247162339D01*
X243690111Y-247414699D01*
X243690806Y-247458025D01*
X243696185Y-247723398D01*
X243703130Y-247915542D01*
X243712861Y-248045894D01*
X243726602Y-248125891D01*
X243745575Y-248166970D01*
X243767981Y-248180090D01*
X243843242Y-248174835D01*
X243863231Y-248162991D01*
X243875316Y-248109842D01*
X243884023Y-247989867D01*
X243889464Y-247820832D01*
X243891754Y-247620505D01*
X243891007Y-247406655D01*
X243887336Y-247197048D01*
X243880856Y-247009452D01*
X243871680Y-246861634D01*
X243859922Y-246771364D01*
X243854208Y-246754831D01*
X243788272Y-246716788D01*
X243747995Y-246722147D01*
G37*
X243747995Y-246722147D02*
X243722603Y-246740776D01*
X243704756Y-246782068D01*
X243693520Y-246858065D01*
X243687957Y-246980808D01*
X243687133Y-247162339D01*
X243690111Y-247414699D01*
X243690806Y-247458025D01*
X243696185Y-247723398D01*
X243703130Y-247915542D01*
X243712861Y-248045894D01*
X243726602Y-248125891D01*
X243745575Y-248166970D01*
X243767981Y-248180090D01*
X243843242Y-248174835D01*
X243863231Y-248162991D01*
X243875316Y-248109842D01*
X243884023Y-247989867D01*
X243889464Y-247820832D01*
X243891754Y-247620505D01*
X243891007Y-247406655D01*
X243887336Y-247197048D01*
X243880856Y-247009452D01*
X243871680Y-246861634D01*
X243859922Y-246771364D01*
X243854208Y-246754831D01*
X243788272Y-246716788D01*
X243747995Y-246722147D01*
G36*
X244836527Y-246721743D02*
G01*
X244761964Y-246766229D01*
X244664965Y-246856331D01*
X244633458Y-246887735D01*
X244516487Y-247029540D01*
X244471151Y-247137640D01*
X244488276Y-247203601D01*
X244558688Y-247218987D01*
X244673215Y-247175364D01*
X244822681Y-247064296D01*
X244824091Y-247063024D01*
X244923834Y-246976152D01*
X244987159Y-246939178D01*
X245039862Y-246944575D01*
X245102916Y-246981650D01*
X245212675Y-247094460D01*
X245286284Y-247251229D01*
X245322328Y-247429819D01*
X245319391Y-247608094D01*
X245276059Y-247763917D01*
X245190918Y-247875151D01*
X245161247Y-247894310D01*
X245031455Y-247934293D01*
X244894715Y-247932780D01*
X244782859Y-247893359D01*
X244737151Y-247846538D01*
X244713740Y-247756533D01*
X244763438Y-247700293D01*
X244862260Y-247674751D01*
X244961215Y-247633862D01*
X245010427Y-247585295D01*
X245029011Y-247512057D01*
X244975865Y-247462738D01*
X244847160Y-247435515D01*
X244680588Y-247428398D01*
X244431092Y-247427750D01*
X244459593Y-247734410D01*
X244483703Y-247908371D01*
X244517466Y-248040353D01*
X244550475Y-248103450D01*
X244635836Y-248143997D01*
X244789821Y-248171600D01*
X244898469Y-248180044D01*
X245075198Y-248182395D01*
X245198155Y-248164976D01*
X245296906Y-248122951D01*
X245315263Y-248111854D01*
X245439036Y-247988043D01*
X245527575Y-247806801D01*
X245577228Y-247589251D01*
X245584344Y-247356518D01*
X245545272Y-247129725D01*
X245504253Y-247018415D01*
X245426264Y-246882570D01*
X245327282Y-246796362D01*
X245184333Y-246745246D01*
X245034997Y-246721250D01*
X244917817Y-246710780D01*
X244836527Y-246721743D01*
G37*
X244836527Y-246721743D02*
X244761964Y-246766229D01*
X244664965Y-246856331D01*
X244633458Y-246887735D01*
X244516487Y-247029540D01*
X244471151Y-247137640D01*
X244488276Y-247203601D01*
X244558688Y-247218987D01*
X244673215Y-247175364D01*
X244822681Y-247064296D01*
X244824091Y-247063024D01*
X244923834Y-246976152D01*
X244987159Y-246939178D01*
X245039862Y-246944575D01*
X245102916Y-246981650D01*
X245212675Y-247094460D01*
X245286284Y-247251229D01*
X245322328Y-247429819D01*
X245319391Y-247608094D01*
X245276059Y-247763917D01*
X245190918Y-247875151D01*
X245161247Y-247894310D01*
X245031455Y-247934293D01*
X244894715Y-247932780D01*
X244782859Y-247893359D01*
X244737151Y-247846538D01*
X244713740Y-247756533D01*
X244763438Y-247700293D01*
X244862260Y-247674751D01*
X244961215Y-247633862D01*
X245010427Y-247585295D01*
X245029011Y-247512057D01*
X244975865Y-247462738D01*
X244847160Y-247435515D01*
X244680588Y-247428398D01*
X244431092Y-247427750D01*
X244459593Y-247734410D01*
X244483703Y-247908371D01*
X244517466Y-248040353D01*
X244550475Y-248103450D01*
X244635836Y-248143997D01*
X244789821Y-248171600D01*
X244898469Y-248180044D01*
X245075198Y-248182395D01*
X245198155Y-248164976D01*
X245296906Y-248122951D01*
X245315263Y-248111854D01*
X245439036Y-247988043D01*
X245527575Y-247806801D01*
X245577228Y-247589251D01*
X245584344Y-247356518D01*
X245545272Y-247129725D01*
X245504253Y-247018415D01*
X245426264Y-246882570D01*
X245327282Y-246796362D01*
X245184333Y-246745246D01*
X245034997Y-246721250D01*
X244917817Y-246710780D01*
X244836527Y-246721743D01*
G36*
X246476459Y-246754271D02*
G01*
X246296967Y-246876231D01*
X246249575Y-246918766D01*
X246073083Y-247083782D01*
X246079211Y-247441788D01*
X246089091Y-247629355D01*
X246109732Y-247794198D01*
X246137364Y-247907907D01*
X246142759Y-247920689D01*
X246246810Y-248047402D01*
X246411629Y-248138934D01*
X246617269Y-248185670D01*
X246700757Y-248189684D01*
X246844893Y-248179103D01*
X246946053Y-248137445D01*
X247023485Y-248071361D01*
X247114284Y-247936377D01*
X247185538Y-247745462D01*
X247228552Y-247526656D01*
X247235612Y-247409208D01*
X246970401Y-247409208D01*
X246966819Y-247588006D01*
X246919055Y-247745820D01*
X246871840Y-247815464D01*
X246735917Y-247923820D01*
X246603272Y-247949009D01*
X246481358Y-247891826D01*
X246383024Y-247763346D01*
X246321726Y-247590963D01*
X246310840Y-247415149D01*
X246343222Y-247250700D01*
X246411731Y-247112411D01*
X246509225Y-247015079D01*
X246628559Y-246973501D01*
X246752617Y-246997716D01*
X246859643Y-247088981D01*
X246933456Y-247234506D01*
X246970401Y-247409208D01*
X247235612Y-247409208D01*
X247237250Y-247381973D01*
X247197619Y-247168789D01*
X247087754Y-246971190D01*
X246985744Y-246864844D01*
X246810315Y-246749349D01*
X246644064Y-246712234D01*
X246476459Y-246754271D01*
G37*
X246476459Y-246754271D02*
X246296967Y-246876231D01*
X246249575Y-246918766D01*
X246073083Y-247083782D01*
X246079211Y-247441788D01*
X246089091Y-247629355D01*
X246109732Y-247794198D01*
X246137364Y-247907907D01*
X246142759Y-247920689D01*
X246246810Y-248047402D01*
X246411629Y-248138934D01*
X246617269Y-248185670D01*
X246700757Y-248189684D01*
X246844893Y-248179103D01*
X246946053Y-248137445D01*
X247023485Y-248071361D01*
X247114284Y-247936377D01*
X247185538Y-247745462D01*
X247228552Y-247526656D01*
X247235612Y-247409208D01*
X246970401Y-247409208D01*
X246966819Y-247588006D01*
X246919055Y-247745820D01*
X246871840Y-247815464D01*
X246735917Y-247923820D01*
X246603272Y-247949009D01*
X246481358Y-247891826D01*
X246383024Y-247763346D01*
X246321726Y-247590963D01*
X246310840Y-247415149D01*
X246343222Y-247250700D01*
X246411731Y-247112411D01*
X246509225Y-247015079D01*
X246628559Y-246973501D01*
X246752617Y-246997716D01*
X246859643Y-247088981D01*
X246933456Y-247234506D01*
X246970401Y-247409208D01*
X247235612Y-247409208D01*
X247237250Y-247381973D01*
X247197619Y-247168789D01*
X247087754Y-246971190D01*
X246985744Y-246864844D01*
X246810315Y-246749349D01*
X246644064Y-246712234D01*
X246476459Y-246754271D01*
G36*
X248283034Y-246770192D02*
G01*
X248244215Y-246836963D01*
X248221501Y-246961893D01*
X248211916Y-247156148D01*
X248211127Y-247237250D01*
X248206507Y-247429635D01*
X248195494Y-247625968D01*
X248183692Y-247754093D01*
X248157202Y-247974604D01*
X247855976Y-247986927D01*
X247698314Y-247995839D01*
X247607467Y-248010288D01*
X247565581Y-248036022D01*
X247554804Y-248078789D01*
X247554750Y-248083917D01*
X247560445Y-248120721D01*
X247587135Y-248145625D01*
X247649232Y-248161539D01*
X247761146Y-248171372D01*
X247937287Y-248178035D01*
X248033392Y-248180575D01*
X248512033Y-248192567D01*
X248486410Y-247609075D01*
X248472694Y-247317309D01*
X248459537Y-247099576D01*
X248445142Y-246945277D01*
X248427715Y-246843813D01*
X248405458Y-246784583D01*
X248376576Y-246756987D01*
X248340936Y-246750417D01*
X248283034Y-246770192D01*
G37*
X248283034Y-246770192D02*
X248244215Y-246836963D01*
X248221501Y-246961893D01*
X248211916Y-247156148D01*
X248211127Y-247237250D01*
X248206507Y-247429635D01*
X248195494Y-247625968D01*
X248183692Y-247754093D01*
X248157202Y-247974604D01*
X247855976Y-247986927D01*
X247698314Y-247995839D01*
X247607467Y-248010288D01*
X247565581Y-248036022D01*
X247554804Y-248078789D01*
X247554750Y-248083917D01*
X247560445Y-248120721D01*
X247587135Y-248145625D01*
X247649232Y-248161539D01*
X247761146Y-248171372D01*
X247937287Y-248178035D01*
X248033392Y-248180575D01*
X248512033Y-248192567D01*
X248486410Y-247609075D01*
X248472694Y-247317309D01*
X248459537Y-247099576D01*
X248445142Y-246945277D01*
X248427715Y-246843813D01*
X248405458Y-246784583D01*
X248376576Y-246756987D01*
X248340936Y-246750417D01*
X248283034Y-246770192D01*
G36*
X249453735Y-246728486D02*
G01*
X249319674Y-246796897D01*
X249163964Y-246924120D01*
X249131667Y-246954513D01*
X248972917Y-247106266D01*
X248972917Y-247472966D01*
X248976208Y-247662551D01*
X248988845Y-247790075D01*
X249014967Y-247877982D01*
X249058717Y-247948717D01*
X249061321Y-247952053D01*
X249223384Y-248096866D01*
X249417957Y-248175456D01*
X249624664Y-248184245D01*
X249823129Y-248119649D01*
X249866240Y-248093520D01*
X250006041Y-247957198D01*
X250095217Y-247780744D01*
X250136865Y-247579477D01*
X250134328Y-247387159D01*
X249849407Y-247387159D01*
X249841882Y-247570903D01*
X249813551Y-247689700D01*
X249732393Y-247846826D01*
X249618581Y-247937568D01*
X249486650Y-247956814D01*
X249351133Y-247899454D01*
X249311583Y-247866195D01*
X249267086Y-247776653D01*
X249245306Y-247633344D01*
X249245326Y-247463802D01*
X249266230Y-247295562D01*
X249307102Y-247156158D01*
X249336997Y-247102771D01*
X249446515Y-247000730D01*
X249557655Y-246972344D01*
X249661967Y-247007203D01*
X249750998Y-247094899D01*
X249816295Y-247225021D01*
X249849407Y-247387159D01*
X250134328Y-247387159D01*
X250134084Y-247368718D01*
X250089972Y-247163787D01*
X250007627Y-246980002D01*
X249890146Y-246832683D01*
X249740628Y-246737150D01*
X249586069Y-246708083D01*
X249453735Y-246728486D01*
G37*
X249453735Y-246728486D02*
X249319674Y-246796897D01*
X249163964Y-246924120D01*
X249131667Y-246954513D01*
X248972917Y-247106266D01*
X248972917Y-247472966D01*
X248976208Y-247662551D01*
X248988845Y-247790075D01*
X249014967Y-247877982D01*
X249058717Y-247948717D01*
X249061321Y-247952053D01*
X249223384Y-248096866D01*
X249417957Y-248175456D01*
X249624664Y-248184245D01*
X249823129Y-248119649D01*
X249866240Y-248093520D01*
X250006041Y-247957198D01*
X250095217Y-247780744D01*
X250136865Y-247579477D01*
X250134328Y-247387159D01*
X249849407Y-247387159D01*
X249841882Y-247570903D01*
X249813551Y-247689700D01*
X249732393Y-247846826D01*
X249618581Y-247937568D01*
X249486650Y-247956814D01*
X249351133Y-247899454D01*
X249311583Y-247866195D01*
X249267086Y-247776653D01*
X249245306Y-247633344D01*
X249245326Y-247463802D01*
X249266230Y-247295562D01*
X249307102Y-247156158D01*
X249336997Y-247102771D01*
X249446515Y-247000730D01*
X249557655Y-246972344D01*
X249661967Y-247007203D01*
X249750998Y-247094899D01*
X249816295Y-247225021D01*
X249849407Y-247387159D01*
X250134328Y-247387159D01*
X250134084Y-247368718D01*
X250089972Y-247163787D01*
X250007627Y-246980002D01*
X249890146Y-246832683D01*
X249740628Y-246737150D01*
X249586069Y-246708083D01*
X249453735Y-246728486D01*
G36*
X251586327Y-246742331D02*
G01*
X251488834Y-246840164D01*
X251358836Y-247013472D01*
X251191776Y-247261284D01*
X251168766Y-247296372D01*
X250880711Y-247736494D01*
X250868731Y-247232872D01*
X250862736Y-247019371D01*
X250855012Y-246876470D01*
X250842862Y-246790107D01*
X250823586Y-246746219D01*
X250794486Y-246730746D01*
X250772083Y-246729250D01*
X250739445Y-246733738D01*
X250716089Y-246755576D01*
X250700099Y-246807326D01*
X250689562Y-246901550D01*
X250682561Y-247050810D01*
X250677182Y-247267666D01*
X250675282Y-247364250D01*
X250672519Y-247594905D01*
X250673096Y-247801541D01*
X250676735Y-247966462D01*
X250683162Y-248071972D01*
X250686672Y-248094500D01*
X250725974Y-248173478D01*
X250790042Y-248184611D01*
X250881292Y-248125969D01*
X251002143Y-247995625D01*
X251155011Y-247791648D01*
X251261089Y-247636150D01*
X251458547Y-247339228D01*
X251485732Y-247537564D01*
X251502946Y-247699550D01*
X251512334Y-247858671D01*
X251512917Y-247895863D01*
X251519506Y-248019710D01*
X251535663Y-248114047D01*
X251538613Y-248122787D01*
X251594023Y-248182299D01*
X251665849Y-248175449D01*
X251715329Y-248115667D01*
X251726150Y-248048397D01*
X251735275Y-247913685D01*
X251741951Y-247728750D01*
X251745425Y-247510811D01*
X251745750Y-247419275D01*
X251742412Y-247125169D01*
X251729358Y-246911393D01*
X251702031Y-246776975D01*
X251655874Y-246720945D01*
X251586327Y-246742331D01*
G37*
X251586327Y-246742331D02*
X251488834Y-246840164D01*
X251358836Y-247013472D01*
X251191776Y-247261284D01*
X251168766Y-247296372D01*
X250880711Y-247736494D01*
X250868731Y-247232872D01*
X250862736Y-247019371D01*
X250855012Y-246876470D01*
X250842862Y-246790107D01*
X250823586Y-246746219D01*
X250794486Y-246730746D01*
X250772083Y-246729250D01*
X250739445Y-246733738D01*
X250716089Y-246755576D01*
X250700099Y-246807326D01*
X250689562Y-246901550D01*
X250682561Y-247050810D01*
X250677182Y-247267666D01*
X250675282Y-247364250D01*
X250672519Y-247594905D01*
X250673096Y-247801541D01*
X250676735Y-247966462D01*
X250683162Y-248071972D01*
X250686672Y-248094500D01*
X250725974Y-248173478D01*
X250790042Y-248184611D01*
X250881292Y-248125969D01*
X251002143Y-247995625D01*
X251155011Y-247791648D01*
X251261089Y-247636150D01*
X251458547Y-247339228D01*
X251485732Y-247537564D01*
X251502946Y-247699550D01*
X251512334Y-247858671D01*
X251512917Y-247895863D01*
X251519506Y-248019710D01*
X251535663Y-248114047D01*
X251538613Y-248122787D01*
X251594023Y-248182299D01*
X251665849Y-248175449D01*
X251715329Y-248115667D01*
X251726150Y-248048397D01*
X251735275Y-247913685D01*
X251741951Y-247728750D01*
X251745425Y-247510811D01*
X251745750Y-247419275D01*
X251742412Y-247125169D01*
X251729358Y-246911393D01*
X251702031Y-246776975D01*
X251655874Y-246720945D01*
X251586327Y-246742331D01*
G36*
X252384395Y-246728462D02*
G01*
X252355959Y-246754831D01*
X252343113Y-246816186D01*
X252332721Y-246943597D01*
X252324961Y-247118484D01*
X252320009Y-247322266D01*
X252318043Y-247536364D01*
X252319238Y-247742196D01*
X252323773Y-247921183D01*
X252331822Y-248054745D01*
X252342946Y-248122787D01*
X252401873Y-248179282D01*
X252448779Y-248189750D01*
X252491029Y-248180515D01*
X252515241Y-248140876D01*
X252526256Y-248052932D01*
X252528916Y-247898785D01*
X252528917Y-247893417D01*
X252528917Y-247597083D01*
X253163917Y-247597083D01*
X253163917Y-247826454D01*
X253168484Y-247968497D01*
X253180176Y-248082082D01*
X253189613Y-248122787D01*
X253246654Y-248172283D01*
X253339187Y-248190513D01*
X253421498Y-248170174D01*
X253432028Y-248161528D01*
X253443414Y-248109387D01*
X253451719Y-247991168D01*
X253456933Y-247825400D01*
X253459045Y-247630616D01*
X253458045Y-247425347D01*
X253453922Y-247228124D01*
X253446667Y-247057479D01*
X253436269Y-246931943D01*
X253432726Y-246906994D01*
X253406922Y-246801255D01*
X253366711Y-246759827D01*
X253316775Y-246758828D01*
X253267016Y-246777390D01*
X253233765Y-246828272D01*
X253209099Y-246930236D01*
X253190716Y-247057333D01*
X253154016Y-247343083D01*
X252528917Y-247343083D01*
X252528917Y-247045421D01*
X252524590Y-246879616D01*
X252509191Y-246780829D01*
X252479093Y-246731738D01*
X252461144Y-246721753D01*
X252384395Y-246728462D01*
G37*
X252384395Y-246728462D02*
X252355959Y-246754831D01*
X252343113Y-246816186D01*
X252332721Y-246943597D01*
X252324961Y-247118484D01*
X252320009Y-247322266D01*
X252318043Y-247536364D01*
X252319238Y-247742196D01*
X252323773Y-247921183D01*
X252331822Y-248054745D01*
X252342946Y-248122787D01*
X252401873Y-248179282D01*
X252448779Y-248189750D01*
X252491029Y-248180515D01*
X252515241Y-248140876D01*
X252526256Y-248052932D01*
X252528916Y-247898785D01*
X252528917Y-247893417D01*
X252528917Y-247597083D01*
X253163917Y-247597083D01*
X253163917Y-247826454D01*
X253168484Y-247968497D01*
X253180176Y-248082082D01*
X253189613Y-248122787D01*
X253246654Y-248172283D01*
X253339187Y-248190513D01*
X253421498Y-248170174D01*
X253432028Y-248161528D01*
X253443414Y-248109387D01*
X253451719Y-247991168D01*
X253456933Y-247825400D01*
X253459045Y-247630616D01*
X253458045Y-247425347D01*
X253453922Y-247228124D01*
X253446667Y-247057479D01*
X253436269Y-246931943D01*
X253432726Y-246906994D01*
X253406922Y-246801255D01*
X253366711Y-246759827D01*
X253316775Y-246758828D01*
X253267016Y-246777390D01*
X253233765Y-246828272D01*
X253209099Y-246930236D01*
X253190716Y-247057333D01*
X253154016Y-247343083D01*
X252528917Y-247343083D01*
X252528917Y-247045421D01*
X252524590Y-246879616D01*
X252509191Y-246780829D01*
X252479093Y-246731738D01*
X252461144Y-246721753D01*
X252384395Y-246728462D01*
G36*
X254300143Y-246741376D02*
G01*
X254271211Y-246748632D01*
X254105965Y-246824445D01*
X253998323Y-246953456D01*
X253942408Y-247123046D01*
X253930146Y-247215615D01*
X253958717Y-247252056D01*
X254048571Y-247258416D01*
X254048673Y-247258417D01*
X254155455Y-247240176D01*
X254213759Y-247173272D01*
X254221272Y-247155157D01*
X254301707Y-247035785D01*
X254415491Y-246974167D01*
X254538874Y-246974403D01*
X254648106Y-247040590D01*
X254676358Y-247076620D01*
X254722717Y-247193764D01*
X254749164Y-247355112D01*
X254755646Y-247533255D01*
X254742108Y-247700787D01*
X254708495Y-247830298D01*
X254677938Y-247879095D01*
X254593269Y-247926809D01*
X254479014Y-247950226D01*
X254366848Y-247947977D01*
X254288442Y-247918695D01*
X254272697Y-247896592D01*
X254215893Y-247803914D01*
X254127675Y-247726318D01*
X254039688Y-247689507D01*
X254018564Y-247690163D01*
X253948276Y-247735378D01*
X253938900Y-247822656D01*
X253988426Y-247937411D01*
X254066260Y-248036196D01*
X254161087Y-248127415D01*
X254245730Y-248172909D01*
X254357746Y-248188092D01*
X254438915Y-248189126D01*
X254589881Y-248179049D01*
X254721084Y-248154061D01*
X254770266Y-248136114D01*
X254896736Y-248027820D01*
X254992838Y-247854695D01*
X255049697Y-247633801D01*
X255055290Y-247588243D01*
X255053635Y-247313787D01*
X254993088Y-247082792D01*
X254880557Y-246902657D01*
X254722951Y-246780777D01*
X254527177Y-246724551D01*
X254300143Y-246741376D01*
G37*
X254300143Y-246741376D02*
X254271211Y-246748632D01*
X254105965Y-246824445D01*
X253998323Y-246953456D01*
X253942408Y-247123046D01*
X253930146Y-247215615D01*
X253958717Y-247252056D01*
X254048571Y-247258416D01*
X254048673Y-247258417D01*
X254155455Y-247240176D01*
X254213759Y-247173272D01*
X254221272Y-247155157D01*
X254301707Y-247035785D01*
X254415491Y-246974167D01*
X254538874Y-246974403D01*
X254648106Y-247040590D01*
X254676358Y-247076620D01*
X254722717Y-247193764D01*
X254749164Y-247355112D01*
X254755646Y-247533255D01*
X254742108Y-247700787D01*
X254708495Y-247830298D01*
X254677938Y-247879095D01*
X254593269Y-247926809D01*
X254479014Y-247950226D01*
X254366848Y-247947977D01*
X254288442Y-247918695D01*
X254272697Y-247896592D01*
X254215893Y-247803914D01*
X254127675Y-247726318D01*
X254039688Y-247689507D01*
X254018564Y-247690163D01*
X253948276Y-247735378D01*
X253938900Y-247822656D01*
X253988426Y-247937411D01*
X254066260Y-248036196D01*
X254161087Y-248127415D01*
X254245730Y-248172909D01*
X254357746Y-248188092D01*
X254438915Y-248189126D01*
X254589881Y-248179049D01*
X254721084Y-248154061D01*
X254770266Y-248136114D01*
X254896736Y-248027820D01*
X254992838Y-247854695D01*
X255049697Y-247633801D01*
X255055290Y-247588243D01*
X255053635Y-247313787D01*
X254993088Y-247082792D01*
X254880557Y-246902657D01*
X254722951Y-246780777D01*
X254527177Y-246724551D01*
X254300143Y-246741376D01*
G36*
X255975185Y-246716927D02*
G01*
X255750123Y-246730783D01*
X255599921Y-246749778D01*
X255514843Y-246775509D01*
X255489882Y-246796560D01*
X255480063Y-246872296D01*
X255549845Y-246932668D01*
X255695102Y-246974878D01*
X255768426Y-246985480D01*
X255955751Y-247008455D01*
X256073927Y-247029911D01*
X256137974Y-247057502D01*
X256162913Y-247098880D01*
X256163763Y-247161697D01*
X256161574Y-247185786D01*
X256150330Y-247259336D01*
X256121195Y-247303960D01*
X256054363Y-247331926D01*
X255930023Y-247355504D01*
X255873250Y-247364373D01*
X255722664Y-247391418D01*
X255638628Y-247419465D01*
X255603332Y-247456734D01*
X255598083Y-247491373D01*
X255612310Y-247545439D01*
X255669036Y-247573828D01*
X255788583Y-247587081D01*
X255970904Y-247601550D01*
X256084302Y-247623826D01*
X256144521Y-247661252D01*
X256167304Y-247721165D01*
X256169583Y-247764725D01*
X256160252Y-247851885D01*
X256122054Y-247909263D01*
X256039686Y-247944979D01*
X255897842Y-247967152D01*
X255767417Y-247978083D01*
X255611003Y-247991995D01*
X255521377Y-248010014D01*
X255480687Y-248038516D01*
X255471084Y-248083876D01*
X255471083Y-248083917D01*
X255476802Y-248120799D01*
X255503588Y-248145727D01*
X255565886Y-248161634D01*
X255678142Y-248171449D01*
X255854801Y-248178104D01*
X255947333Y-248180553D01*
X256423583Y-248192523D01*
X256423583Y-246696985D01*
X255975185Y-246716927D01*
G37*
X255975185Y-246716927D02*
X255750123Y-246730783D01*
X255599921Y-246749778D01*
X255514843Y-246775509D01*
X255489882Y-246796560D01*
X255480063Y-246872296D01*
X255549845Y-246932668D01*
X255695102Y-246974878D01*
X255768426Y-246985480D01*
X255955751Y-247008455D01*
X256073927Y-247029911D01*
X256137974Y-247057502D01*
X256162913Y-247098880D01*
X256163763Y-247161697D01*
X256161574Y-247185786D01*
X256150330Y-247259336D01*
X256121195Y-247303960D01*
X256054363Y-247331926D01*
X255930023Y-247355504D01*
X255873250Y-247364373D01*
X255722664Y-247391418D01*
X255638628Y-247419465D01*
X255603332Y-247456734D01*
X255598083Y-247491373D01*
X255612310Y-247545439D01*
X255669036Y-247573828D01*
X255788583Y-247587081D01*
X255970904Y-247601550D01*
X256084302Y-247623826D01*
X256144521Y-247661252D01*
X256167304Y-247721165D01*
X256169583Y-247764725D01*
X256160252Y-247851885D01*
X256122054Y-247909263D01*
X256039686Y-247944979D01*
X255897842Y-247967152D01*
X255767417Y-247978083D01*
X255611003Y-247991995D01*
X255521377Y-248010014D01*
X255480687Y-248038516D01*
X255471084Y-248083876D01*
X255471083Y-248083917D01*
X255476802Y-248120799D01*
X255503588Y-248145727D01*
X255565886Y-248161634D01*
X255678142Y-248171449D01*
X255854801Y-248178104D01*
X255947333Y-248180553D01*
X256423583Y-248192523D01*
X256423583Y-246696985D01*
X255975185Y-246716927D01*
G36*
X257164417Y-246715806D02*
G01*
X256868083Y-246729250D01*
X256868083Y-246856250D01*
X256872959Y-246930538D01*
X256901810Y-246969866D01*
X256975971Y-246987720D01*
X257089153Y-246996005D01*
X257310223Y-247008759D01*
X257321986Y-247588145D01*
X257328225Y-247825430D01*
X257336761Y-247990566D01*
X257349229Y-248096070D01*
X257367264Y-248154458D01*
X257392501Y-248178246D01*
X257399314Y-248180104D01*
X257474578Y-248174836D01*
X257494564Y-248162991D01*
X257505538Y-248111819D01*
X257514680Y-247992613D01*
X257521159Y-247822000D01*
X257524145Y-247616605D01*
X257524250Y-247568861D01*
X257524250Y-247004417D01*
X257664326Y-247004417D01*
X257800163Y-246984125D01*
X257898809Y-246931783D01*
X257941057Y-246860194D01*
X257935918Y-246823412D01*
X257875511Y-246775512D01*
X257743636Y-246739753D01*
X257552850Y-246717889D01*
X257315712Y-246711670D01*
X257164417Y-246715806D01*
G37*
X257164417Y-246715806D02*
X256868083Y-246729250D01*
X256868083Y-246856250D01*
X256872959Y-246930538D01*
X256901810Y-246969866D01*
X256975971Y-246987720D01*
X257089153Y-246996005D01*
X257310223Y-247008759D01*
X257321986Y-247588145D01*
X257328225Y-247825430D01*
X257336761Y-247990566D01*
X257349229Y-248096070D01*
X257367264Y-248154458D01*
X257392501Y-248178246D01*
X257399314Y-248180104D01*
X257474578Y-248174836D01*
X257494564Y-248162991D01*
X257505538Y-248111819D01*
X257514680Y-247992613D01*
X257521159Y-247822000D01*
X257524145Y-247616605D01*
X257524250Y-247568861D01*
X257524250Y-247004417D01*
X257664326Y-247004417D01*
X257800163Y-246984125D01*
X257898809Y-246931783D01*
X257941057Y-246860194D01*
X257935918Y-246823412D01*
X257875511Y-246775512D01*
X257743636Y-246739753D01*
X257552850Y-246717889D01*
X257315712Y-246711670D01*
X257164417Y-246715806D01*
G36*
X261080192Y-248021909D02*
G01*
X261042913Y-248116374D01*
X261037541Y-248134334D01*
X261014724Y-248261958D01*
X261002651Y-248434013D01*
X261003343Y-248591917D01*
X261016750Y-248888250D01*
X261212498Y-248900935D01*
X261343271Y-248901318D01*
X261412472Y-248877100D01*
X261434748Y-248844556D01*
X261454182Y-248737263D01*
X261458785Y-248579228D01*
X261449893Y-248402819D01*
X261428844Y-248240401D01*
X261405944Y-248147417D01*
X261356936Y-248043561D01*
X261286017Y-247997319D01*
X261220282Y-247986167D01*
X261130392Y-247985741D01*
X261080192Y-248021909D01*
G37*
X261080192Y-248021909D02*
X261042913Y-248116374D01*
X261037541Y-248134334D01*
X261014724Y-248261958D01*
X261002651Y-248434013D01*
X261003343Y-248591917D01*
X261016750Y-248888250D01*
X261212498Y-248900935D01*
X261343271Y-248901318D01*
X261412472Y-248877100D01*
X261434748Y-248844556D01*
X261454182Y-248737263D01*
X261458785Y-248579228D01*
X261449893Y-248402819D01*
X261428844Y-248240401D01*
X261405944Y-248147417D01*
X261356936Y-248043561D01*
X261286017Y-247997319D01*
X261220282Y-247986167D01*
X261130392Y-247985741D01*
X261080192Y-248021909D01*
G36*
X261936336Y-248043984D02*
G01*
X261889407Y-248085434D01*
X261861224Y-248142408D01*
X261847138Y-248235401D01*
X261842501Y-248384908D01*
X261842250Y-248458850D01*
X261848675Y-248653931D01*
X261866748Y-248792418D01*
X261893050Y-248858617D01*
X261983582Y-248899835D01*
X262109152Y-248906028D01*
X262228413Y-248878689D01*
X262282063Y-248844556D01*
X262355244Y-248718024D01*
X262385308Y-248547085D01*
X262373019Y-248359736D01*
X262319143Y-248183979D01*
X262261398Y-248088211D01*
X262157907Y-247997306D01*
X262046993Y-247988205D01*
X261936336Y-248043984D01*
G37*
X261936336Y-248043984D02*
X261889407Y-248085434D01*
X261861224Y-248142408D01*
X261847138Y-248235401D01*
X261842501Y-248384908D01*
X261842250Y-248458850D01*
X261848675Y-248653931D01*
X261866748Y-248792418D01*
X261893050Y-248858617D01*
X261983582Y-248899835D01*
X262109152Y-248906028D01*
X262228413Y-248878689D01*
X262282063Y-248844556D01*
X262355244Y-248718024D01*
X262385308Y-248547085D01*
X262373019Y-248359736D01*
X262319143Y-248183979D01*
X262261398Y-248088211D01*
X262157907Y-247997306D01*
X262046993Y-247988205D01*
X261936336Y-248043984D01*
G36*
X262866477Y-248016739D02*
G01*
X262790648Y-248118781D01*
X262732972Y-248263322D01*
X262698454Y-248429473D01*
X262692100Y-248596346D01*
X262718915Y-248743053D01*
X262754817Y-248815330D01*
X262843321Y-248880591D01*
X262969700Y-248910315D01*
X263097811Y-248901778D01*
X263191514Y-248852251D01*
X263194757Y-248848519D01*
X263222906Y-248771203D01*
X263239897Y-248639507D01*
X263244719Y-248483104D01*
X263236362Y-248331670D01*
X263216100Y-248222039D01*
X263142202Y-248078710D01*
X263033796Y-247994128D01*
X262955453Y-247978083D01*
X262866477Y-248016739D01*
G37*
X262866477Y-248016739D02*
X262790648Y-248118781D01*
X262732972Y-248263322D01*
X262698454Y-248429473D01*
X262692100Y-248596346D01*
X262718915Y-248743053D01*
X262754817Y-248815330D01*
X262843321Y-248880591D01*
X262969700Y-248910315D01*
X263097811Y-248901778D01*
X263191514Y-248852251D01*
X263194757Y-248848519D01*
X263222906Y-248771203D01*
X263239897Y-248639507D01*
X263244719Y-248483104D01*
X263236362Y-248331670D01*
X263216100Y-248222039D01*
X263142202Y-248078710D01*
X263033796Y-247994128D01*
X262955453Y-247978083D01*
X262866477Y-248016739D01*
D13*
%TO.C,D67*%
X398136250Y-243783750D02*
X400376250Y-243783750D01*
X400376250Y-243783750D02*
X400376250Y-248023750D01*
X400376250Y-248023750D02*
X398136250Y-248023750D01*
X398136250Y-248023750D02*
X398136250Y-243783750D01*
X399256250Y-243133750D02*
X399256250Y-243783750D01*
X399256250Y-248673750D02*
X399256250Y-248023750D01*
X398136250Y-244503750D02*
X400376250Y-244503750D01*
X398136250Y-244623750D02*
X400376250Y-244623750D01*
X398136250Y-244383750D02*
X400376250Y-244383750D01*
%TO.C,D82*%
X249376250Y-233870000D02*
X249376250Y-233405000D01*
X249376250Y-236495000D02*
X249376250Y-236030000D01*
X254190729Y-233869571D02*
G75*
G03*
X249681566Y-233870000I-2254479J-1080429D01*
G01*
X254190729Y-236030429D02*
G75*
G02*
X249681566Y-236030000I-2254479J1080429D01*
G01*
X254724065Y-233869173D02*
G75*
G03*
X249376250Y-233405170I-2787815J-1080827D01*
G01*
X254724065Y-236030827D02*
G75*
G02*
X249376250Y-236494830I-2787815J1080827D01*
G01*
%TO.C,D78*%
X339070000Y-236495000D02*
X339070000Y-236030000D01*
X339070000Y-233870000D02*
X339070000Y-233405000D01*
X344417815Y-236030827D02*
G75*
G02*
X339070000Y-236494830I-2787815J1080827D01*
G01*
X344417815Y-233869173D02*
G75*
G03*
X339070000Y-233405170I-2787815J-1080827D01*
G01*
X343884479Y-236030429D02*
G75*
G02*
X339375316Y-236030000I-2254479J1080429D01*
G01*
X343884479Y-233869571D02*
G75*
G03*
X339375316Y-233870000I-2254479J-1080429D01*
G01*
%TO.C,D74*%
X434801250Y-233870000D02*
X434801250Y-233405000D01*
X434801250Y-236495000D02*
X434801250Y-236030000D01*
X439615729Y-233869571D02*
G75*
G03*
X435106566Y-233870000I-2254479J-1080429D01*
G01*
X439615729Y-236030429D02*
G75*
G02*
X435106566Y-236030000I-2254479J1080429D01*
G01*
X440149065Y-233869173D02*
G75*
G03*
X434801250Y-233405170I-2787815J-1080827D01*
G01*
X440149065Y-236030827D02*
G75*
G02*
X434801250Y-236494830I-2787815J1080827D01*
G01*
%TO.C,D81*%
X174763750Y-233870000D02*
X174763750Y-233405000D01*
X174763750Y-236495000D02*
X174763750Y-236030000D01*
X179578229Y-233869571D02*
G75*
G03*
X175069066Y-233870000I-2254479J-1080429D01*
G01*
X179578229Y-236030429D02*
G75*
G02*
X175069066Y-236030000I-2254479J1080429D01*
G01*
X180111565Y-233869173D02*
G75*
G03*
X174763750Y-233405170I-2787815J-1080827D01*
G01*
X180111565Y-236030827D02*
G75*
G02*
X174763750Y-236494830I-2787815J1080827D01*
G01*
%TO.C,D73*%
X436276250Y-199243750D02*
X435811250Y-199243750D01*
X438901250Y-199243750D02*
X438436250Y-199243750D01*
X436275821Y-194429271D02*
G75*
G03*
X436276250Y-198938434I1080429J-2254479D01*
G01*
X438436679Y-194429271D02*
G75*
G02*
X438436250Y-198938434I-1080429J-2254479D01*
G01*
X436275423Y-193895935D02*
G75*
G03*
X435811420Y-199243750I1080827J-2787815D01*
G01*
X438437077Y-193895935D02*
G75*
G02*
X438901080Y-199243750I-1080827J-2787815D01*
G01*
%TO.C,D80*%
X181261250Y-194607500D02*
X181726250Y-194607500D01*
X178636250Y-194607500D02*
X179101250Y-194607500D01*
X181261679Y-199421979D02*
G75*
G03*
X181261250Y-194912816I-1080429J2254479D01*
G01*
X179100821Y-199421979D02*
G75*
G02*
X179101250Y-194912816I1080429J2254479D01*
G01*
X181262077Y-199955315D02*
G75*
G03*
X181726080Y-194607500I-1080827J2787815D01*
G01*
X179100423Y-199955315D02*
G75*
G02*
X178636420Y-194607500I1080827J2787815D01*
G01*
%TO.C,D72*%
X436276250Y-160982500D02*
X435811250Y-160982500D01*
X438901250Y-160982500D02*
X438436250Y-160982500D01*
X436275821Y-156168021D02*
G75*
G03*
X436276250Y-160677184I1080429J-2254479D01*
G01*
X438436679Y-156168021D02*
G75*
G02*
X438436250Y-160677184I-1080429J-2254479D01*
G01*
X436275423Y-155634685D02*
G75*
G03*
X435811420Y-160982500I1080827J-2787815D01*
G01*
X438437077Y-155634685D02*
G75*
G02*
X438901080Y-160982500I-1080827J-2787815D01*
G01*
%TO.C,D46*%
X398136250Y-158658750D02*
X400376250Y-158658750D01*
X398136250Y-158898750D02*
X400376250Y-158898750D01*
X398136250Y-158778750D02*
X400376250Y-158778750D01*
X399256250Y-162948750D02*
X399256250Y-162298750D01*
X399256250Y-157408750D02*
X399256250Y-158058750D01*
X398136250Y-162298750D02*
X398136250Y-158058750D01*
X400376250Y-162298750D02*
X398136250Y-162298750D01*
X400376250Y-158058750D02*
X400376250Y-162298750D01*
X398136250Y-158058750D02*
X400376250Y-158058750D01*
%TO.C,D79*%
X171736250Y-155872500D02*
X172201250Y-155872500D01*
X169111250Y-155872500D02*
X169576250Y-155872500D01*
X171736679Y-160686979D02*
G75*
G03*
X171736250Y-156177816I-1080429J2254479D01*
G01*
X169575821Y-160686979D02*
G75*
G02*
X169576250Y-156177816I1080429J2254479D01*
G01*
X171737077Y-161220315D02*
G75*
G03*
X172201080Y-155872500I-1080827J2787815D01*
G01*
X169575423Y-161220315D02*
G75*
G02*
X169111420Y-155872500I1080827J2787815D01*
G01*
%TO.C,D77*%
X254655000Y-156655000D02*
X254655000Y-157120000D01*
X254655000Y-154030000D02*
X254655000Y-154495000D01*
X249840521Y-156655429D02*
G75*
G03*
X254349684Y-156655000I2254479J1080429D01*
G01*
X249840521Y-154494571D02*
G75*
G02*
X254349684Y-154495000I2254479J-1080429D01*
G01*
X249307185Y-156655827D02*
G75*
G03*
X254655000Y-157119830I2787815J1080827D01*
G01*
X249307185Y-154494173D02*
G75*
G02*
X254655000Y-154030170I2787815J-1080827D01*
G01*
%TO.C,D71*%
X358636250Y-156655000D02*
X358636250Y-157120000D01*
X358636250Y-154030000D02*
X358636250Y-154495000D01*
X353821771Y-156655429D02*
G75*
G03*
X358330934Y-156655000I2254479J1080429D01*
G01*
X353821771Y-154494571D02*
G75*
G02*
X358330934Y-154495000I2254479J-1080429D01*
G01*
X353288435Y-156655827D02*
G75*
G03*
X358636250Y-157119830I2787815J1080827D01*
G01*
X353288435Y-154494173D02*
G75*
G02*
X358636250Y-154030170I2787815J-1080827D01*
G01*
%TO.C,D30*%
X436268000Y-186821000D02*
X438508000Y-186821000D01*
X436268000Y-187061000D02*
X438508000Y-187061000D01*
X436268000Y-186941000D02*
X438508000Y-186941000D01*
X437388000Y-191111000D02*
X437388000Y-190461000D01*
X437388000Y-185571000D02*
X437388000Y-186221000D01*
X436268000Y-190461000D02*
X436268000Y-186221000D01*
X438508000Y-190461000D02*
X436268000Y-190461000D01*
X438508000Y-186221000D02*
X438508000Y-190461000D01*
X436268000Y-186221000D02*
X438508000Y-186221000D01*
%TO.C,D15*%
X436236250Y-176915000D02*
X438476250Y-176915000D01*
X436236250Y-177155000D02*
X438476250Y-177155000D01*
X436236250Y-177035000D02*
X438476250Y-177035000D01*
X437356250Y-181205000D02*
X437356250Y-180555000D01*
X437356250Y-175665000D02*
X437356250Y-176315000D01*
X436236250Y-180555000D02*
X436236250Y-176315000D01*
X438476250Y-180555000D02*
X436236250Y-180555000D01*
X438476250Y-176315000D02*
X438476250Y-180555000D01*
X436236250Y-176315000D02*
X438476250Y-176315000D01*
%TO.C,D60*%
X436236250Y-224540000D02*
X438476250Y-224540000D01*
X436236250Y-224780000D02*
X438476250Y-224780000D01*
X436236250Y-224660000D02*
X438476250Y-224660000D01*
X437356250Y-228830000D02*
X437356250Y-228180000D01*
X437356250Y-223290000D02*
X437356250Y-223940000D01*
X436236250Y-228180000D02*
X436236250Y-223940000D01*
X438476250Y-228180000D02*
X436236250Y-228180000D01*
X438476250Y-223940000D02*
X438476250Y-228180000D01*
X436236250Y-223940000D02*
X438476250Y-223940000D01*
%TO.C,D45*%
X436236250Y-203902500D02*
X438476250Y-203902500D01*
X436236250Y-204142500D02*
X438476250Y-204142500D01*
X436236250Y-204022500D02*
X438476250Y-204022500D01*
X437356250Y-208192500D02*
X437356250Y-207542500D01*
X437356250Y-202652500D02*
X437356250Y-203302500D01*
X436236250Y-207542500D02*
X436236250Y-203302500D01*
X438476250Y-207542500D02*
X436236250Y-207542500D01*
X438476250Y-203302500D02*
X438476250Y-207542500D01*
X436236250Y-203302500D02*
X438476250Y-203302500D01*
%TO.C,D29*%
X432331000Y-186821000D02*
X434571000Y-186821000D01*
X432331000Y-187061000D02*
X434571000Y-187061000D01*
X432331000Y-186941000D02*
X434571000Y-186941000D01*
X433451000Y-191111000D02*
X433451000Y-190461000D01*
X433451000Y-185571000D02*
X433451000Y-186221000D01*
X432331000Y-190461000D02*
X432331000Y-186221000D01*
X434571000Y-190461000D02*
X432331000Y-190461000D01*
X434571000Y-186221000D02*
X434571000Y-190461000D01*
X432331000Y-186221000D02*
X434571000Y-186221000D01*
%TO.C,D14*%
X436236250Y-165802500D02*
X438476250Y-165802500D01*
X436236250Y-166042500D02*
X438476250Y-166042500D01*
X436236250Y-165922500D02*
X438476250Y-165922500D01*
X437356250Y-170092500D02*
X437356250Y-169442500D01*
X437356250Y-164552500D02*
X437356250Y-165202500D01*
X436236250Y-169442500D02*
X436236250Y-165202500D01*
X438476250Y-169442500D02*
X436236250Y-169442500D01*
X438476250Y-165202500D02*
X438476250Y-169442500D01*
X436236250Y-165202500D02*
X438476250Y-165202500D01*
%TO.C,D59*%
X417186250Y-220571250D02*
X419426250Y-220571250D01*
X417186250Y-220811250D02*
X419426250Y-220811250D01*
X417186250Y-220691250D02*
X419426250Y-220691250D01*
X418306250Y-224861250D02*
X418306250Y-224211250D01*
X418306250Y-219321250D02*
X418306250Y-219971250D01*
X417186250Y-224211250D02*
X417186250Y-219971250D01*
X419426250Y-224211250D02*
X417186250Y-224211250D01*
X419426250Y-219971250D02*
X419426250Y-224211250D01*
X417186250Y-219971250D02*
X419426250Y-219971250D01*
%TO.C,D44*%
X436236250Y-214221250D02*
X438476250Y-214221250D01*
X436236250Y-214461250D02*
X438476250Y-214461250D01*
X436236250Y-214341250D02*
X438476250Y-214341250D01*
X437356250Y-218511250D02*
X437356250Y-217861250D01*
X437356250Y-212971250D02*
X437356250Y-213621250D01*
X436236250Y-217861250D02*
X436236250Y-213621250D01*
X438476250Y-217861250D02*
X436236250Y-217861250D01*
X438476250Y-213621250D02*
X438476250Y-217861250D01*
X436236250Y-213621250D02*
X438476250Y-213621250D01*
%TO.C,D28*%
X407661250Y-187233750D02*
X409901250Y-187233750D01*
X407661250Y-187473750D02*
X409901250Y-187473750D01*
X407661250Y-187353750D02*
X409901250Y-187353750D01*
X408781250Y-191523750D02*
X408781250Y-190873750D01*
X408781250Y-185983750D02*
X408781250Y-186633750D01*
X407661250Y-190873750D02*
X407661250Y-186633750D01*
X409901250Y-190873750D02*
X407661250Y-190873750D01*
X409901250Y-186633750D02*
X409901250Y-190873750D01*
X407661250Y-186633750D02*
X409901250Y-186633750D01*
%TO.C,D13*%
X398136250Y-169771250D02*
X400376250Y-169771250D01*
X398136250Y-170011250D02*
X400376250Y-170011250D01*
X398136250Y-169891250D02*
X400376250Y-169891250D01*
X399256250Y-174061250D02*
X399256250Y-173411250D01*
X399256250Y-168521250D02*
X399256250Y-169171250D01*
X398136250Y-173411250D02*
X398136250Y-169171250D01*
X400376250Y-173411250D02*
X398136250Y-173411250D01*
X400376250Y-169171250D02*
X400376250Y-173411250D01*
X398136250Y-169171250D02*
X400376250Y-169171250D01*
%TO.C,D58*%
X413217500Y-225333750D02*
X415457500Y-225333750D01*
X413217500Y-225573750D02*
X415457500Y-225573750D01*
X413217500Y-225453750D02*
X415457500Y-225453750D01*
X414337500Y-229623750D02*
X414337500Y-228973750D01*
X414337500Y-224083750D02*
X414337500Y-224733750D01*
X413217500Y-228973750D02*
X413217500Y-224733750D01*
X415457500Y-228973750D02*
X413217500Y-228973750D01*
X415457500Y-224733750D02*
X415457500Y-228973750D01*
X413217500Y-224733750D02*
X415457500Y-224733750D01*
%TO.C,D43*%
X393373750Y-206283750D02*
X395613750Y-206283750D01*
X393373750Y-206523750D02*
X395613750Y-206523750D01*
X393373750Y-206403750D02*
X395613750Y-206403750D01*
X394493750Y-210573750D02*
X394493750Y-209923750D01*
X394493750Y-205033750D02*
X394493750Y-205683750D01*
X393373750Y-209923750D02*
X393373750Y-205683750D01*
X395613750Y-209923750D02*
X393373750Y-209923750D01*
X395613750Y-205683750D02*
X395613750Y-209923750D01*
X393373750Y-205683750D02*
X395613750Y-205683750D01*
%TO.C,D27*%
X388611250Y-187233750D02*
X390851250Y-187233750D01*
X388611250Y-187473750D02*
X390851250Y-187473750D01*
X388611250Y-187353750D02*
X390851250Y-187353750D01*
X389731250Y-191523750D02*
X389731250Y-190873750D01*
X389731250Y-185983750D02*
X389731250Y-186633750D01*
X388611250Y-190873750D02*
X388611250Y-186633750D01*
X390851250Y-190873750D02*
X388611250Y-190873750D01*
X390851250Y-186633750D02*
X390851250Y-190873750D01*
X388611250Y-186633750D02*
X390851250Y-186633750D01*
%TO.C,D12*%
X379086250Y-168183750D02*
X381326250Y-168183750D01*
X379086250Y-168423750D02*
X381326250Y-168423750D01*
X379086250Y-168303750D02*
X381326250Y-168303750D01*
X380206250Y-172473750D02*
X380206250Y-171823750D01*
X380206250Y-166933750D02*
X380206250Y-167583750D01*
X379086250Y-171823750D02*
X379086250Y-167583750D01*
X381326250Y-171823750D02*
X379086250Y-171823750D01*
X381326250Y-167583750D02*
X381326250Y-171823750D01*
X379086250Y-167583750D02*
X381326250Y-167583750D01*
%TO.C,D57*%
X383848750Y-225333750D02*
X386088750Y-225333750D01*
X383848750Y-225573750D02*
X386088750Y-225573750D01*
X383848750Y-225453750D02*
X386088750Y-225453750D01*
X384968750Y-229623750D02*
X384968750Y-228973750D01*
X384968750Y-224083750D02*
X384968750Y-224733750D01*
X383848750Y-228973750D02*
X383848750Y-224733750D01*
X386088750Y-228973750D02*
X383848750Y-228973750D01*
X386088750Y-224733750D02*
X386088750Y-228973750D01*
X383848750Y-224733750D02*
X386088750Y-224733750D01*
%TO.C,D42*%
X374323750Y-206283750D02*
X376563750Y-206283750D01*
X374323750Y-206523750D02*
X376563750Y-206523750D01*
X374323750Y-206403750D02*
X376563750Y-206403750D01*
X375443750Y-210573750D02*
X375443750Y-209923750D01*
X375443750Y-205033750D02*
X375443750Y-205683750D01*
X374323750Y-209923750D02*
X374323750Y-205683750D01*
X376563750Y-209923750D02*
X374323750Y-209923750D01*
X376563750Y-205683750D02*
X376563750Y-209923750D01*
X374323750Y-205683750D02*
X376563750Y-205683750D01*
%TO.C,D26*%
X369561250Y-187233750D02*
X371801250Y-187233750D01*
X369561250Y-187473750D02*
X371801250Y-187473750D01*
X369561250Y-187353750D02*
X371801250Y-187353750D01*
X370681250Y-191523750D02*
X370681250Y-190873750D01*
X370681250Y-185983750D02*
X370681250Y-186633750D01*
X369561250Y-190873750D02*
X369561250Y-186633750D01*
X371801250Y-190873750D02*
X369561250Y-190873750D01*
X371801250Y-186633750D02*
X371801250Y-190873750D01*
X369561250Y-186633750D02*
X371801250Y-186633750D01*
%TO.C,D11*%
X360036250Y-168183750D02*
X362276250Y-168183750D01*
X360036250Y-168423750D02*
X362276250Y-168423750D01*
X360036250Y-168303750D02*
X362276250Y-168303750D01*
X361156250Y-172473750D02*
X361156250Y-171823750D01*
X361156250Y-166933750D02*
X361156250Y-167583750D01*
X360036250Y-171823750D02*
X360036250Y-167583750D01*
X362276250Y-171823750D02*
X360036250Y-171823750D01*
X362276250Y-167583750D02*
X362276250Y-171823750D01*
X360036250Y-167583750D02*
X362276250Y-167583750D01*
%TO.C,D56*%
X364798750Y-225333750D02*
X367038750Y-225333750D01*
X364798750Y-225573750D02*
X367038750Y-225573750D01*
X364798750Y-225453750D02*
X367038750Y-225453750D01*
X365918750Y-229623750D02*
X365918750Y-228973750D01*
X365918750Y-224083750D02*
X365918750Y-224733750D01*
X364798750Y-228973750D02*
X364798750Y-224733750D01*
X367038750Y-228973750D02*
X364798750Y-228973750D01*
X367038750Y-224733750D02*
X367038750Y-228973750D01*
X364798750Y-224733750D02*
X367038750Y-224733750D01*
%TO.C,D41*%
X355273750Y-206283750D02*
X357513750Y-206283750D01*
X355273750Y-206523750D02*
X357513750Y-206523750D01*
X355273750Y-206403750D02*
X357513750Y-206403750D01*
X356393750Y-210573750D02*
X356393750Y-209923750D01*
X356393750Y-205033750D02*
X356393750Y-205683750D01*
X355273750Y-209923750D02*
X355273750Y-205683750D01*
X357513750Y-209923750D02*
X355273750Y-209923750D01*
X357513750Y-205683750D02*
X357513750Y-209923750D01*
X355273750Y-205683750D02*
X357513750Y-205683750D01*
%TO.C,D25*%
X350511250Y-186633750D02*
X352751250Y-186633750D01*
X352751250Y-186633750D02*
X352751250Y-190873750D01*
X352751250Y-190873750D02*
X350511250Y-190873750D01*
X350511250Y-190873750D02*
X350511250Y-186633750D01*
X351631250Y-185983750D02*
X351631250Y-186633750D01*
X351631250Y-191523750D02*
X351631250Y-190873750D01*
X350511250Y-187353750D02*
X352751250Y-187353750D01*
X350511250Y-187473750D02*
X352751250Y-187473750D01*
X350511250Y-187233750D02*
X352751250Y-187233750D01*
%TO.C,D10*%
X340986250Y-168183750D02*
X343226250Y-168183750D01*
X340986250Y-168423750D02*
X343226250Y-168423750D01*
X340986250Y-168303750D02*
X343226250Y-168303750D01*
X342106250Y-172473750D02*
X342106250Y-171823750D01*
X342106250Y-166933750D02*
X342106250Y-167583750D01*
X340986250Y-171823750D02*
X340986250Y-167583750D01*
X343226250Y-171823750D02*
X340986250Y-171823750D01*
X343226250Y-167583750D02*
X343226250Y-171823750D01*
X340986250Y-167583750D02*
X343226250Y-167583750D01*
%TO.C,D70*%
X436236250Y-243783750D02*
X438476250Y-243783750D01*
X438476250Y-243783750D02*
X438476250Y-248023750D01*
X438476250Y-248023750D02*
X436236250Y-248023750D01*
X436236250Y-248023750D02*
X436236250Y-243783750D01*
X437356250Y-243133750D02*
X437356250Y-243783750D01*
X437356250Y-248673750D02*
X437356250Y-248023750D01*
X436236250Y-244503750D02*
X438476250Y-244503750D01*
X436236250Y-244623750D02*
X438476250Y-244623750D01*
X436236250Y-244383750D02*
X438476250Y-244383750D01*
%TO.C,D55*%
X345748750Y-225333750D02*
X347988750Y-225333750D01*
X345748750Y-225573750D02*
X347988750Y-225573750D01*
X345748750Y-225453750D02*
X347988750Y-225453750D01*
X346868750Y-229623750D02*
X346868750Y-228973750D01*
X346868750Y-224083750D02*
X346868750Y-224733750D01*
X345748750Y-228973750D02*
X345748750Y-224733750D01*
X347988750Y-228973750D02*
X345748750Y-228973750D01*
X347988750Y-224733750D02*
X347988750Y-228973750D01*
X345748750Y-224733750D02*
X347988750Y-224733750D01*
%TO.C,D40*%
X336223750Y-206283750D02*
X338463750Y-206283750D01*
X336223750Y-206523750D02*
X338463750Y-206523750D01*
X336223750Y-206403750D02*
X338463750Y-206403750D01*
X337343750Y-210573750D02*
X337343750Y-209923750D01*
X337343750Y-205033750D02*
X337343750Y-205683750D01*
X336223750Y-209923750D02*
X336223750Y-205683750D01*
X338463750Y-209923750D02*
X336223750Y-209923750D01*
X338463750Y-205683750D02*
X338463750Y-209923750D01*
X336223750Y-205683750D02*
X338463750Y-205683750D01*
%TO.C,D24*%
X331461250Y-187233750D02*
X333701250Y-187233750D01*
X331461250Y-187473750D02*
X333701250Y-187473750D01*
X331461250Y-187353750D02*
X333701250Y-187353750D01*
X332581250Y-191523750D02*
X332581250Y-190873750D01*
X332581250Y-185983750D02*
X332581250Y-186633750D01*
X331461250Y-190873750D02*
X331461250Y-186633750D01*
X333701250Y-190873750D02*
X331461250Y-190873750D01*
X333701250Y-186633750D02*
X333701250Y-190873750D01*
X331461250Y-186633750D02*
X333701250Y-186633750D01*
%TO.C,D9*%
X321936250Y-168183750D02*
X324176250Y-168183750D01*
X321936250Y-168423750D02*
X324176250Y-168423750D01*
X321936250Y-168303750D02*
X324176250Y-168303750D01*
X323056250Y-172473750D02*
X323056250Y-171823750D01*
X323056250Y-166933750D02*
X323056250Y-167583750D01*
X321936250Y-171823750D02*
X321936250Y-167583750D01*
X324176250Y-171823750D02*
X321936250Y-171823750D01*
X324176250Y-167583750D02*
X324176250Y-171823750D01*
X321936250Y-167583750D02*
X324176250Y-167583750D01*
%TO.C,D69*%
X417186250Y-231877500D02*
X419426250Y-231877500D01*
X419426250Y-231877500D02*
X419426250Y-236117500D01*
X419426250Y-236117500D02*
X417186250Y-236117500D01*
X417186250Y-236117500D02*
X417186250Y-231877500D01*
X418306250Y-231227500D02*
X418306250Y-231877500D01*
X418306250Y-236767500D02*
X418306250Y-236117500D01*
X417186250Y-232597500D02*
X419426250Y-232597500D01*
X417186250Y-232717500D02*
X419426250Y-232717500D01*
X417186250Y-232477500D02*
X419426250Y-232477500D01*
%TO.C,D54*%
X326698750Y-225333750D02*
X328938750Y-225333750D01*
X326698750Y-225573750D02*
X328938750Y-225573750D01*
X326698750Y-225453750D02*
X328938750Y-225453750D01*
X327818750Y-229623750D02*
X327818750Y-228973750D01*
X327818750Y-224083750D02*
X327818750Y-224733750D01*
X326698750Y-228973750D02*
X326698750Y-224733750D01*
X328938750Y-228973750D02*
X326698750Y-228973750D01*
X328938750Y-224733750D02*
X328938750Y-228973750D01*
X326698750Y-224733750D02*
X328938750Y-224733750D01*
%TO.C,D39*%
X317173750Y-206283750D02*
X319413750Y-206283750D01*
X317173750Y-206523750D02*
X319413750Y-206523750D01*
X317173750Y-206403750D02*
X319413750Y-206403750D01*
X318293750Y-210573750D02*
X318293750Y-209923750D01*
X318293750Y-205033750D02*
X318293750Y-205683750D01*
X317173750Y-209923750D02*
X317173750Y-205683750D01*
X319413750Y-209923750D02*
X317173750Y-209923750D01*
X319413750Y-205683750D02*
X319413750Y-209923750D01*
X317173750Y-205683750D02*
X319413750Y-205683750D01*
%TO.C,D23*%
X312411250Y-187233750D02*
X314651250Y-187233750D01*
X312411250Y-187473750D02*
X314651250Y-187473750D01*
X312411250Y-187353750D02*
X314651250Y-187353750D01*
X313531250Y-191523750D02*
X313531250Y-190873750D01*
X313531250Y-185983750D02*
X313531250Y-186633750D01*
X312411250Y-190873750D02*
X312411250Y-186633750D01*
X314651250Y-190873750D02*
X312411250Y-190873750D01*
X314651250Y-186633750D02*
X314651250Y-190873750D01*
X312411250Y-186633750D02*
X314651250Y-186633750D01*
%TO.C,D8*%
X302886250Y-168183750D02*
X305126250Y-168183750D01*
X302886250Y-168423750D02*
X305126250Y-168423750D01*
X302886250Y-168303750D02*
X305126250Y-168303750D01*
X304006250Y-172473750D02*
X304006250Y-171823750D01*
X304006250Y-166933750D02*
X304006250Y-167583750D01*
X302886250Y-171823750D02*
X302886250Y-167583750D01*
X305126250Y-171823750D02*
X302886250Y-171823750D01*
X305126250Y-167583750D02*
X305126250Y-171823750D01*
X302886250Y-167583750D02*
X305126250Y-167583750D01*
%TO.C,D68*%
X417186250Y-243783750D02*
X419426250Y-243783750D01*
X419426250Y-243783750D02*
X419426250Y-248023750D01*
X419426250Y-248023750D02*
X417186250Y-248023750D01*
X417186250Y-248023750D02*
X417186250Y-243783750D01*
X418306250Y-243133750D02*
X418306250Y-243783750D01*
X418306250Y-248673750D02*
X418306250Y-248023750D01*
X417186250Y-244503750D02*
X419426250Y-244503750D01*
X417186250Y-244623750D02*
X419426250Y-244623750D01*
X417186250Y-244383750D02*
X419426250Y-244383750D01*
%TO.C,D53*%
X307648750Y-225333750D02*
X309888750Y-225333750D01*
X307648750Y-225573750D02*
X309888750Y-225573750D01*
X307648750Y-225453750D02*
X309888750Y-225453750D01*
X308768750Y-229623750D02*
X308768750Y-228973750D01*
X308768750Y-224083750D02*
X308768750Y-224733750D01*
X307648750Y-228973750D02*
X307648750Y-224733750D01*
X309888750Y-228973750D02*
X307648750Y-228973750D01*
X309888750Y-224733750D02*
X309888750Y-228973750D01*
X307648750Y-224733750D02*
X309888750Y-224733750D01*
%TO.C,D38*%
X298123750Y-206283750D02*
X300363750Y-206283750D01*
X298123750Y-206523750D02*
X300363750Y-206523750D01*
X298123750Y-206403750D02*
X300363750Y-206403750D01*
X299243750Y-210573750D02*
X299243750Y-209923750D01*
X299243750Y-205033750D02*
X299243750Y-205683750D01*
X298123750Y-209923750D02*
X298123750Y-205683750D01*
X300363750Y-209923750D02*
X298123750Y-209923750D01*
X300363750Y-205683750D02*
X300363750Y-209923750D01*
X298123750Y-205683750D02*
X300363750Y-205683750D01*
%TO.C,D22*%
X293361250Y-187233750D02*
X295601250Y-187233750D01*
X293361250Y-187473750D02*
X295601250Y-187473750D01*
X293361250Y-187353750D02*
X295601250Y-187353750D01*
X294481250Y-191523750D02*
X294481250Y-190873750D01*
X294481250Y-185983750D02*
X294481250Y-186633750D01*
X293361250Y-190873750D02*
X293361250Y-186633750D01*
X295601250Y-190873750D02*
X293361250Y-190873750D01*
X295601250Y-186633750D02*
X295601250Y-190873750D01*
X293361250Y-186633750D02*
X295601250Y-186633750D01*
%TO.C,D7*%
X283836250Y-168183750D02*
X286076250Y-168183750D01*
X283836250Y-168423750D02*
X286076250Y-168423750D01*
X283836250Y-168303750D02*
X286076250Y-168303750D01*
X284956250Y-172473750D02*
X284956250Y-171823750D01*
X284956250Y-166933750D02*
X284956250Y-167583750D01*
X283836250Y-171823750D02*
X283836250Y-167583750D01*
X286076250Y-171823750D02*
X283836250Y-171823750D01*
X286076250Y-167583750D02*
X286076250Y-171823750D01*
X283836250Y-167583750D02*
X286076250Y-167583750D01*
%TO.C,D66*%
X379086250Y-244383750D02*
X381326250Y-244383750D01*
X379086250Y-244623750D02*
X381326250Y-244623750D01*
X379086250Y-244503750D02*
X381326250Y-244503750D01*
X380206250Y-248673750D02*
X380206250Y-248023750D01*
X380206250Y-243133750D02*
X380206250Y-243783750D01*
X379086250Y-248023750D02*
X379086250Y-243783750D01*
X381326250Y-248023750D02*
X379086250Y-248023750D01*
X381326250Y-243783750D02*
X381326250Y-248023750D01*
X379086250Y-243783750D02*
X381326250Y-243783750D01*
%TO.C,D52*%
X288598750Y-224733750D02*
X290838750Y-224733750D01*
X290838750Y-224733750D02*
X290838750Y-228973750D01*
X290838750Y-228973750D02*
X288598750Y-228973750D01*
X288598750Y-228973750D02*
X288598750Y-224733750D01*
X289718750Y-224083750D02*
X289718750Y-224733750D01*
X289718750Y-229623750D02*
X289718750Y-228973750D01*
X288598750Y-225453750D02*
X290838750Y-225453750D01*
X288598750Y-225573750D02*
X290838750Y-225573750D01*
X288598750Y-225333750D02*
X290838750Y-225333750D01*
%TO.C,D37*%
X279073750Y-206283750D02*
X281313750Y-206283750D01*
X279073750Y-206523750D02*
X281313750Y-206523750D01*
X279073750Y-206403750D02*
X281313750Y-206403750D01*
X280193750Y-210573750D02*
X280193750Y-209923750D01*
X280193750Y-205033750D02*
X280193750Y-205683750D01*
X279073750Y-209923750D02*
X279073750Y-205683750D01*
X281313750Y-209923750D02*
X279073750Y-209923750D01*
X281313750Y-205683750D02*
X281313750Y-209923750D01*
X279073750Y-205683750D02*
X281313750Y-205683750D01*
%TO.C,D21*%
X274311250Y-186633750D02*
X276551250Y-186633750D01*
X276551250Y-186633750D02*
X276551250Y-190873750D01*
X276551250Y-190873750D02*
X274311250Y-190873750D01*
X274311250Y-190873750D02*
X274311250Y-186633750D01*
X275431250Y-185983750D02*
X275431250Y-186633750D01*
X275431250Y-191523750D02*
X275431250Y-190873750D01*
X274311250Y-187353750D02*
X276551250Y-187353750D01*
X274311250Y-187473750D02*
X276551250Y-187473750D01*
X274311250Y-187233750D02*
X276551250Y-187233750D01*
%TO.C,D6*%
X264786250Y-168183750D02*
X267026250Y-168183750D01*
X264786250Y-168423750D02*
X267026250Y-168423750D01*
X264786250Y-168303750D02*
X267026250Y-168303750D01*
X265906250Y-172473750D02*
X265906250Y-171823750D01*
X265906250Y-166933750D02*
X265906250Y-167583750D01*
X264786250Y-171823750D02*
X264786250Y-167583750D01*
X267026250Y-171823750D02*
X264786250Y-171823750D01*
X267026250Y-167583750D02*
X267026250Y-171823750D01*
X264786250Y-167583750D02*
X267026250Y-167583750D01*
%TO.C,D65*%
X360036250Y-244383750D02*
X362276250Y-244383750D01*
X360036250Y-244623750D02*
X362276250Y-244623750D01*
X360036250Y-244503750D02*
X362276250Y-244503750D01*
X361156250Y-248673750D02*
X361156250Y-248023750D01*
X361156250Y-243133750D02*
X361156250Y-243783750D01*
X360036250Y-248023750D02*
X360036250Y-243783750D01*
X362276250Y-248023750D02*
X360036250Y-248023750D01*
X362276250Y-243783750D02*
X362276250Y-248023750D01*
X360036250Y-243783750D02*
X362276250Y-243783750D01*
%TO.C,D51*%
X269548750Y-225333750D02*
X271788750Y-225333750D01*
X269548750Y-225573750D02*
X271788750Y-225573750D01*
X269548750Y-225453750D02*
X271788750Y-225453750D01*
X270668750Y-229623750D02*
X270668750Y-228973750D01*
X270668750Y-224083750D02*
X270668750Y-224733750D01*
X269548750Y-228973750D02*
X269548750Y-224733750D01*
X271788750Y-228973750D02*
X269548750Y-228973750D01*
X271788750Y-224733750D02*
X271788750Y-228973750D01*
X269548750Y-224733750D02*
X271788750Y-224733750D01*
%TO.C,D36*%
X260023750Y-206283750D02*
X262263750Y-206283750D01*
X260023750Y-206523750D02*
X262263750Y-206523750D01*
X260023750Y-206403750D02*
X262263750Y-206403750D01*
X261143750Y-210573750D02*
X261143750Y-209923750D01*
X261143750Y-205033750D02*
X261143750Y-205683750D01*
X260023750Y-209923750D02*
X260023750Y-205683750D01*
X262263750Y-209923750D02*
X260023750Y-209923750D01*
X262263750Y-205683750D02*
X262263750Y-209923750D01*
X260023750Y-205683750D02*
X262263750Y-205683750D01*
%TO.C,D20*%
X255261250Y-187233750D02*
X257501250Y-187233750D01*
X255261250Y-187473750D02*
X257501250Y-187473750D01*
X255261250Y-187353750D02*
X257501250Y-187353750D01*
X256381250Y-191523750D02*
X256381250Y-190873750D01*
X256381250Y-185983750D02*
X256381250Y-186633750D01*
X255261250Y-190873750D02*
X255261250Y-186633750D01*
X257501250Y-190873750D02*
X255261250Y-190873750D01*
X257501250Y-186633750D02*
X257501250Y-190873750D01*
X255261250Y-186633750D02*
X257501250Y-186633750D01*
%TO.C,D5*%
X245736250Y-168183750D02*
X247976250Y-168183750D01*
X245736250Y-168423750D02*
X247976250Y-168423750D01*
X245736250Y-168303750D02*
X247976250Y-168303750D01*
X246856250Y-172473750D02*
X246856250Y-171823750D01*
X246856250Y-166933750D02*
X246856250Y-167583750D01*
X245736250Y-171823750D02*
X245736250Y-167583750D01*
X247976250Y-171823750D02*
X245736250Y-171823750D01*
X247976250Y-167583750D02*
X247976250Y-171823750D01*
X245736250Y-167583750D02*
X247976250Y-167583750D01*
%TO.C,D64*%
X307648750Y-244383750D02*
X309888750Y-244383750D01*
X307648750Y-244623750D02*
X309888750Y-244623750D01*
X307648750Y-244503750D02*
X309888750Y-244503750D01*
X308768750Y-248673750D02*
X308768750Y-248023750D01*
X308768750Y-243133750D02*
X308768750Y-243783750D01*
X307648750Y-248023750D02*
X307648750Y-243783750D01*
X309888750Y-248023750D02*
X307648750Y-248023750D01*
X309888750Y-243783750D02*
X309888750Y-248023750D01*
X307648750Y-243783750D02*
X309888750Y-243783750D01*
%TO.C,D50*%
X250498750Y-224540000D02*
X252738750Y-224540000D01*
X250498750Y-224780000D02*
X252738750Y-224780000D01*
X250498750Y-224660000D02*
X252738750Y-224660000D01*
X251618750Y-228830000D02*
X251618750Y-228180000D01*
X251618750Y-223290000D02*
X251618750Y-223940000D01*
X250498750Y-228180000D02*
X250498750Y-223940000D01*
X252738750Y-228180000D02*
X250498750Y-228180000D01*
X252738750Y-223940000D02*
X252738750Y-228180000D01*
X250498750Y-223940000D02*
X252738750Y-223940000D01*
%TO.C,D35*%
X240973750Y-206283750D02*
X243213750Y-206283750D01*
X240973750Y-206523750D02*
X243213750Y-206523750D01*
X240973750Y-206403750D02*
X243213750Y-206403750D01*
X242093750Y-210573750D02*
X242093750Y-209923750D01*
X242093750Y-205033750D02*
X242093750Y-205683750D01*
X240973750Y-209923750D02*
X240973750Y-205683750D01*
X243213750Y-209923750D02*
X240973750Y-209923750D01*
X243213750Y-205683750D02*
X243213750Y-209923750D01*
X240973750Y-205683750D02*
X243213750Y-205683750D01*
%TO.C,D19*%
X236211250Y-187233750D02*
X238451250Y-187233750D01*
X236211250Y-187473750D02*
X238451250Y-187473750D01*
X236211250Y-187353750D02*
X238451250Y-187353750D01*
X237331250Y-191523750D02*
X237331250Y-190873750D01*
X237331250Y-185983750D02*
X237331250Y-186633750D01*
X236211250Y-190873750D02*
X236211250Y-186633750D01*
X238451250Y-190873750D02*
X236211250Y-190873750D01*
X238451250Y-186633750D02*
X238451250Y-190873750D01*
X236211250Y-186633750D02*
X238451250Y-186633750D01*
%TO.C,D4*%
X226686250Y-168183750D02*
X228926250Y-168183750D01*
X226686250Y-168423750D02*
X228926250Y-168423750D01*
X226686250Y-168303750D02*
X228926250Y-168303750D01*
X227806250Y-172473750D02*
X227806250Y-171823750D01*
X227806250Y-166933750D02*
X227806250Y-167583750D01*
X226686250Y-171823750D02*
X226686250Y-167583750D01*
X228926250Y-171823750D02*
X226686250Y-171823750D01*
X228926250Y-167583750D02*
X228926250Y-171823750D01*
X226686250Y-167583750D02*
X228926250Y-167583750D01*
%TO.C,D63*%
X221923750Y-244383750D02*
X224163750Y-244383750D01*
X221923750Y-244623750D02*
X224163750Y-244623750D01*
X221923750Y-244503750D02*
X224163750Y-244503750D01*
X223043750Y-248673750D02*
X223043750Y-248023750D01*
X223043750Y-243133750D02*
X223043750Y-243783750D01*
X221923750Y-248023750D02*
X221923750Y-243783750D01*
X224163750Y-248023750D02*
X221923750Y-248023750D01*
X224163750Y-243783750D02*
X224163750Y-248023750D01*
X221923750Y-243783750D02*
X224163750Y-243783750D01*
%TO.C,D49*%
X231448750Y-225333750D02*
X233688750Y-225333750D01*
X231448750Y-225573750D02*
X233688750Y-225573750D01*
X231448750Y-225453750D02*
X233688750Y-225453750D01*
X232568750Y-229623750D02*
X232568750Y-228973750D01*
X232568750Y-224083750D02*
X232568750Y-224733750D01*
X231448750Y-228973750D02*
X231448750Y-224733750D01*
X233688750Y-228973750D02*
X231448750Y-228973750D01*
X233688750Y-224733750D02*
X233688750Y-228973750D01*
X231448750Y-224733750D02*
X233688750Y-224733750D01*
%TO.C,D34*%
X221923750Y-206283750D02*
X224163750Y-206283750D01*
X221923750Y-206523750D02*
X224163750Y-206523750D01*
X221923750Y-206403750D02*
X224163750Y-206403750D01*
X223043750Y-210573750D02*
X223043750Y-209923750D01*
X223043750Y-205033750D02*
X223043750Y-205683750D01*
X221923750Y-209923750D02*
X221923750Y-205683750D01*
X224163750Y-209923750D02*
X221923750Y-209923750D01*
X224163750Y-205683750D02*
X224163750Y-209923750D01*
X221923750Y-205683750D02*
X224163750Y-205683750D01*
%TO.C,D18*%
X217161250Y-187233750D02*
X219401250Y-187233750D01*
X217161250Y-187473750D02*
X219401250Y-187473750D01*
X217161250Y-187353750D02*
X219401250Y-187353750D01*
X218281250Y-191523750D02*
X218281250Y-190873750D01*
X218281250Y-185983750D02*
X218281250Y-186633750D01*
X217161250Y-190873750D02*
X217161250Y-186633750D01*
X219401250Y-190873750D02*
X217161250Y-190873750D01*
X219401250Y-186633750D02*
X219401250Y-190873750D01*
X217161250Y-186633750D02*
X219401250Y-186633750D01*
%TO.C,D3*%
X207636250Y-168183750D02*
X209876250Y-168183750D01*
X207636250Y-168423750D02*
X209876250Y-168423750D01*
X207636250Y-168303750D02*
X209876250Y-168303750D01*
X208756250Y-172473750D02*
X208756250Y-171823750D01*
X208756250Y-166933750D02*
X208756250Y-167583750D01*
X207636250Y-171823750D02*
X207636250Y-167583750D01*
X209876250Y-171823750D02*
X207636250Y-171823750D01*
X209876250Y-167583750D02*
X209876250Y-171823750D01*
X207636250Y-167583750D02*
X209876250Y-167583750D01*
%TO.C,D62*%
X198111250Y-244383750D02*
X200351250Y-244383750D01*
X198111250Y-244623750D02*
X200351250Y-244623750D01*
X198111250Y-244503750D02*
X200351250Y-244503750D01*
X199231250Y-248673750D02*
X199231250Y-248023750D01*
X199231250Y-243133750D02*
X199231250Y-243783750D01*
X198111250Y-248023750D02*
X198111250Y-243783750D01*
X200351250Y-248023750D02*
X198111250Y-248023750D01*
X200351250Y-243783750D02*
X200351250Y-248023750D01*
X198111250Y-243783750D02*
X200351250Y-243783750D01*
%TO.C,D48*%
X212398750Y-225333750D02*
X214638750Y-225333750D01*
X212398750Y-225573750D02*
X214638750Y-225573750D01*
X212398750Y-225453750D02*
X214638750Y-225453750D01*
X213518750Y-229623750D02*
X213518750Y-228973750D01*
X213518750Y-224083750D02*
X213518750Y-224733750D01*
X212398750Y-228973750D02*
X212398750Y-224733750D01*
X214638750Y-228973750D02*
X212398750Y-228973750D01*
X214638750Y-224733750D02*
X214638750Y-228973750D01*
X212398750Y-224733750D02*
X214638750Y-224733750D01*
%TO.C,D33*%
X202873750Y-206283750D02*
X205113750Y-206283750D01*
X202873750Y-206523750D02*
X205113750Y-206523750D01*
X202873750Y-206403750D02*
X205113750Y-206403750D01*
X203993750Y-210573750D02*
X203993750Y-209923750D01*
X203993750Y-205033750D02*
X203993750Y-205683750D01*
X202873750Y-209923750D02*
X202873750Y-205683750D01*
X205113750Y-209923750D02*
X202873750Y-209923750D01*
X205113750Y-205683750D02*
X205113750Y-209923750D01*
X202873750Y-205683750D02*
X205113750Y-205683750D01*
%TO.C,D17*%
X198111250Y-187233750D02*
X200351250Y-187233750D01*
X198111250Y-187473750D02*
X200351250Y-187473750D01*
X198111250Y-187353750D02*
X200351250Y-187353750D01*
X199231250Y-191523750D02*
X199231250Y-190873750D01*
X199231250Y-185983750D02*
X199231250Y-186633750D01*
X198111250Y-190873750D02*
X198111250Y-186633750D01*
X200351250Y-190873750D02*
X198111250Y-190873750D01*
X200351250Y-186633750D02*
X200351250Y-190873750D01*
X198111250Y-186633750D02*
X200351250Y-186633750D01*
%TO.C,D2*%
X188586250Y-168183750D02*
X190826250Y-168183750D01*
X188586250Y-168423750D02*
X190826250Y-168423750D01*
X188586250Y-168303750D02*
X190826250Y-168303750D01*
X189706250Y-172473750D02*
X189706250Y-171823750D01*
X189706250Y-166933750D02*
X189706250Y-167583750D01*
X188586250Y-171823750D02*
X188586250Y-167583750D01*
X190826250Y-171823750D02*
X188586250Y-171823750D01*
X190826250Y-167583750D02*
X190826250Y-171823750D01*
X188586250Y-167583750D02*
X190826250Y-167583750D01*
%TO.C,D61*%
X174298750Y-243783750D02*
X176538750Y-243783750D01*
X176538750Y-243783750D02*
X176538750Y-248023750D01*
X176538750Y-248023750D02*
X174298750Y-248023750D01*
X174298750Y-248023750D02*
X174298750Y-243783750D01*
X175418750Y-243133750D02*
X175418750Y-243783750D01*
X175418750Y-248673750D02*
X175418750Y-248023750D01*
X174298750Y-244503750D02*
X176538750Y-244503750D01*
X174298750Y-244623750D02*
X176538750Y-244623750D01*
X174298750Y-244383750D02*
X176538750Y-244383750D01*
%TO.C,D47*%
X193348750Y-224733750D02*
X195588750Y-224733750D01*
X195588750Y-224733750D02*
X195588750Y-228973750D01*
X195588750Y-228973750D02*
X193348750Y-228973750D01*
X193348750Y-228973750D02*
X193348750Y-224733750D01*
X194468750Y-224083750D02*
X194468750Y-224733750D01*
X194468750Y-229623750D02*
X194468750Y-228973750D01*
X193348750Y-225453750D02*
X195588750Y-225453750D01*
X193348750Y-225573750D02*
X195588750Y-225573750D01*
X193348750Y-225333750D02*
X195588750Y-225333750D01*
%TO.C,D32*%
X183823750Y-205683750D02*
X186063750Y-205683750D01*
X186063750Y-205683750D02*
X186063750Y-209923750D01*
X186063750Y-209923750D02*
X183823750Y-209923750D01*
X183823750Y-209923750D02*
X183823750Y-205683750D01*
X184943750Y-205033750D02*
X184943750Y-205683750D01*
X184943750Y-210573750D02*
X184943750Y-209923750D01*
X183823750Y-206403750D02*
X186063750Y-206403750D01*
X183823750Y-206523750D02*
X186063750Y-206523750D01*
X183823750Y-206283750D02*
X186063750Y-206283750D01*
%TO.C,D16*%
X179061250Y-186633750D02*
X181301250Y-186633750D01*
X181301250Y-186633750D02*
X181301250Y-190873750D01*
X181301250Y-190873750D02*
X179061250Y-190873750D01*
X179061250Y-190873750D02*
X179061250Y-186633750D01*
X180181250Y-185983750D02*
X180181250Y-186633750D01*
X180181250Y-191523750D02*
X180181250Y-190873750D01*
X179061250Y-187353750D02*
X181301250Y-187353750D01*
X179061250Y-187473750D02*
X181301250Y-187473750D01*
X179061250Y-187233750D02*
X181301250Y-187233750D01*
%TO.C,D1*%
X169536250Y-167583750D02*
X171776250Y-167583750D01*
X171776250Y-167583750D02*
X171776250Y-171823750D01*
X171776250Y-171823750D02*
X169536250Y-171823750D01*
X169536250Y-171823750D02*
X169536250Y-167583750D01*
X170656250Y-166933750D02*
X170656250Y-167583750D01*
X170656250Y-172473750D02*
X170656250Y-171823750D01*
X169536250Y-168303750D02*
X171776250Y-168303750D01*
X169536250Y-168423750D02*
X171776250Y-168423750D01*
X169536250Y-168183750D02*
X171776250Y-168183750D01*
%TO.C,D67*%
D11*
X399708630Y-245348214D02*
X398708630Y-245348214D01*
X398708630Y-245586309D01*
X398756250Y-245729166D01*
X398851488Y-245824404D01*
X398946726Y-245872023D01*
X399137202Y-245919642D01*
X399280059Y-245919642D01*
X399470535Y-245872023D01*
X399565773Y-245824404D01*
X399661011Y-245729166D01*
X399708630Y-245586309D01*
X399708630Y-245348214D01*
X398708630Y-246776785D02*
X398708630Y-246586309D01*
X398756250Y-246491071D01*
X398803869Y-246443452D01*
X398946726Y-246348214D01*
X399137202Y-246300595D01*
X399518154Y-246300595D01*
X399613392Y-246348214D01*
X399661011Y-246395833D01*
X399708630Y-246491071D01*
X399708630Y-246681547D01*
X399661011Y-246776785D01*
X399613392Y-246824404D01*
X399518154Y-246872023D01*
X399280059Y-246872023D01*
X399184821Y-246824404D01*
X399137202Y-246776785D01*
X399089583Y-246681547D01*
X399089583Y-246491071D01*
X399137202Y-246395833D01*
X399184821Y-246348214D01*
X399280059Y-246300595D01*
X398708630Y-247205357D02*
X398708630Y-247872023D01*
X399708630Y-247443452D01*
%TO.C,D46*%
X399708630Y-159623214D02*
X398708630Y-159623214D01*
X398708630Y-159861309D01*
X398756250Y-160004166D01*
X398851488Y-160099404D01*
X398946726Y-160147023D01*
X399137202Y-160194642D01*
X399280059Y-160194642D01*
X399470535Y-160147023D01*
X399565773Y-160099404D01*
X399661011Y-160004166D01*
X399708630Y-159861309D01*
X399708630Y-159623214D01*
X399041964Y-161051785D02*
X399708630Y-161051785D01*
X398661011Y-160813690D02*
X399375297Y-160575595D01*
X399375297Y-161194642D01*
X398708630Y-162004166D02*
X398708630Y-161813690D01*
X398756250Y-161718452D01*
X398803869Y-161670833D01*
X398946726Y-161575595D01*
X399137202Y-161527976D01*
X399518154Y-161527976D01*
X399613392Y-161575595D01*
X399661011Y-161623214D01*
X399708630Y-161718452D01*
X399708630Y-161908928D01*
X399661011Y-162004166D01*
X399613392Y-162051785D01*
X399518154Y-162099404D01*
X399280059Y-162099404D01*
X399184821Y-162051785D01*
X399137202Y-162004166D01*
X399089583Y-161908928D01*
X399089583Y-161718452D01*
X399137202Y-161623214D01*
X399184821Y-161575595D01*
X399280059Y-161527976D01*
%TO.C,D30*%
X437840380Y-187785464D02*
X436840380Y-187785464D01*
X436840380Y-188023559D01*
X436888000Y-188166416D01*
X436983238Y-188261654D01*
X437078476Y-188309273D01*
X437268952Y-188356892D01*
X437411809Y-188356892D01*
X437602285Y-188309273D01*
X437697523Y-188261654D01*
X437792761Y-188166416D01*
X437840380Y-188023559D01*
X437840380Y-187785464D01*
X436840380Y-188690226D02*
X436840380Y-189309273D01*
X437221333Y-188975940D01*
X437221333Y-189118797D01*
X437268952Y-189214035D01*
X437316571Y-189261654D01*
X437411809Y-189309273D01*
X437649904Y-189309273D01*
X437745142Y-189261654D01*
X437792761Y-189214035D01*
X437840380Y-189118797D01*
X437840380Y-188833083D01*
X437792761Y-188737845D01*
X437745142Y-188690226D01*
X436840380Y-189928321D02*
X436840380Y-190023559D01*
X436888000Y-190118797D01*
X436935619Y-190166416D01*
X437030857Y-190214035D01*
X437221333Y-190261654D01*
X437459428Y-190261654D01*
X437649904Y-190214035D01*
X437745142Y-190166416D01*
X437792761Y-190118797D01*
X437840380Y-190023559D01*
X437840380Y-189928321D01*
X437792761Y-189833083D01*
X437745142Y-189785464D01*
X437649904Y-189737845D01*
X437459428Y-189690226D01*
X437221333Y-189690226D01*
X437030857Y-189737845D01*
X436935619Y-189785464D01*
X436888000Y-189833083D01*
X436840380Y-189928321D01*
%TO.C,D15*%
X437808630Y-177879464D02*
X436808630Y-177879464D01*
X436808630Y-178117559D01*
X436856250Y-178260416D01*
X436951488Y-178355654D01*
X437046726Y-178403273D01*
X437237202Y-178450892D01*
X437380059Y-178450892D01*
X437570535Y-178403273D01*
X437665773Y-178355654D01*
X437761011Y-178260416D01*
X437808630Y-178117559D01*
X437808630Y-177879464D01*
X437808630Y-179403273D02*
X437808630Y-178831845D01*
X437808630Y-179117559D02*
X436808630Y-179117559D01*
X436951488Y-179022321D01*
X437046726Y-178927083D01*
X437094345Y-178831845D01*
X436808630Y-180308035D02*
X436808630Y-179831845D01*
X437284821Y-179784226D01*
X437237202Y-179831845D01*
X437189583Y-179927083D01*
X437189583Y-180165178D01*
X437237202Y-180260416D01*
X437284821Y-180308035D01*
X437380059Y-180355654D01*
X437618154Y-180355654D01*
X437713392Y-180308035D01*
X437761011Y-180260416D01*
X437808630Y-180165178D01*
X437808630Y-179927083D01*
X437761011Y-179831845D01*
X437713392Y-179784226D01*
%TO.C,D60*%
X437808630Y-225504464D02*
X436808630Y-225504464D01*
X436808630Y-225742559D01*
X436856250Y-225885416D01*
X436951488Y-225980654D01*
X437046726Y-226028273D01*
X437237202Y-226075892D01*
X437380059Y-226075892D01*
X437570535Y-226028273D01*
X437665773Y-225980654D01*
X437761011Y-225885416D01*
X437808630Y-225742559D01*
X437808630Y-225504464D01*
X436808630Y-226933035D02*
X436808630Y-226742559D01*
X436856250Y-226647321D01*
X436903869Y-226599702D01*
X437046726Y-226504464D01*
X437237202Y-226456845D01*
X437618154Y-226456845D01*
X437713392Y-226504464D01*
X437761011Y-226552083D01*
X437808630Y-226647321D01*
X437808630Y-226837797D01*
X437761011Y-226933035D01*
X437713392Y-226980654D01*
X437618154Y-227028273D01*
X437380059Y-227028273D01*
X437284821Y-226980654D01*
X437237202Y-226933035D01*
X437189583Y-226837797D01*
X437189583Y-226647321D01*
X437237202Y-226552083D01*
X437284821Y-226504464D01*
X437380059Y-226456845D01*
X436808630Y-227647321D02*
X436808630Y-227742559D01*
X436856250Y-227837797D01*
X436903869Y-227885416D01*
X436999107Y-227933035D01*
X437189583Y-227980654D01*
X437427678Y-227980654D01*
X437618154Y-227933035D01*
X437713392Y-227885416D01*
X437761011Y-227837797D01*
X437808630Y-227742559D01*
X437808630Y-227647321D01*
X437761011Y-227552083D01*
X437713392Y-227504464D01*
X437618154Y-227456845D01*
X437427678Y-227409226D01*
X437189583Y-227409226D01*
X436999107Y-227456845D01*
X436903869Y-227504464D01*
X436856250Y-227552083D01*
X436808630Y-227647321D01*
%TO.C,D45*%
X437808630Y-204866964D02*
X436808630Y-204866964D01*
X436808630Y-205105059D01*
X436856250Y-205247916D01*
X436951488Y-205343154D01*
X437046726Y-205390773D01*
X437237202Y-205438392D01*
X437380059Y-205438392D01*
X437570535Y-205390773D01*
X437665773Y-205343154D01*
X437761011Y-205247916D01*
X437808630Y-205105059D01*
X437808630Y-204866964D01*
X437141964Y-206295535D02*
X437808630Y-206295535D01*
X436761011Y-206057440D02*
X437475297Y-205819345D01*
X437475297Y-206438392D01*
X436808630Y-207295535D02*
X436808630Y-206819345D01*
X437284821Y-206771726D01*
X437237202Y-206819345D01*
X437189583Y-206914583D01*
X437189583Y-207152678D01*
X437237202Y-207247916D01*
X437284821Y-207295535D01*
X437380059Y-207343154D01*
X437618154Y-207343154D01*
X437713392Y-207295535D01*
X437761011Y-207247916D01*
X437808630Y-207152678D01*
X437808630Y-206914583D01*
X437761011Y-206819345D01*
X437713392Y-206771726D01*
%TO.C,D29*%
X433903380Y-187785464D02*
X432903380Y-187785464D01*
X432903380Y-188023559D01*
X432951000Y-188166416D01*
X433046238Y-188261654D01*
X433141476Y-188309273D01*
X433331952Y-188356892D01*
X433474809Y-188356892D01*
X433665285Y-188309273D01*
X433760523Y-188261654D01*
X433855761Y-188166416D01*
X433903380Y-188023559D01*
X433903380Y-187785464D01*
X432998619Y-188737845D02*
X432951000Y-188785464D01*
X432903380Y-188880702D01*
X432903380Y-189118797D01*
X432951000Y-189214035D01*
X432998619Y-189261654D01*
X433093857Y-189309273D01*
X433189095Y-189309273D01*
X433331952Y-189261654D01*
X433903380Y-188690226D01*
X433903380Y-189309273D01*
X433903380Y-189785464D02*
X433903380Y-189975940D01*
X433855761Y-190071178D01*
X433808142Y-190118797D01*
X433665285Y-190214035D01*
X433474809Y-190261654D01*
X433093857Y-190261654D01*
X432998619Y-190214035D01*
X432951000Y-190166416D01*
X432903380Y-190071178D01*
X432903380Y-189880702D01*
X432951000Y-189785464D01*
X432998619Y-189737845D01*
X433093857Y-189690226D01*
X433331952Y-189690226D01*
X433427190Y-189737845D01*
X433474809Y-189785464D01*
X433522428Y-189880702D01*
X433522428Y-190071178D01*
X433474809Y-190166416D01*
X433427190Y-190214035D01*
X433331952Y-190261654D01*
%TO.C,D14*%
X437808630Y-166766964D02*
X436808630Y-166766964D01*
X436808630Y-167005059D01*
X436856250Y-167147916D01*
X436951488Y-167243154D01*
X437046726Y-167290773D01*
X437237202Y-167338392D01*
X437380059Y-167338392D01*
X437570535Y-167290773D01*
X437665773Y-167243154D01*
X437761011Y-167147916D01*
X437808630Y-167005059D01*
X437808630Y-166766964D01*
X437808630Y-168290773D02*
X437808630Y-167719345D01*
X437808630Y-168005059D02*
X436808630Y-168005059D01*
X436951488Y-167909821D01*
X437046726Y-167814583D01*
X437094345Y-167719345D01*
X437141964Y-169147916D02*
X437808630Y-169147916D01*
X436761011Y-168909821D02*
X437475297Y-168671726D01*
X437475297Y-169290773D01*
%TO.C,D59*%
X418758630Y-221535714D02*
X417758630Y-221535714D01*
X417758630Y-221773809D01*
X417806250Y-221916666D01*
X417901488Y-222011904D01*
X417996726Y-222059523D01*
X418187202Y-222107142D01*
X418330059Y-222107142D01*
X418520535Y-222059523D01*
X418615773Y-222011904D01*
X418711011Y-221916666D01*
X418758630Y-221773809D01*
X418758630Y-221535714D01*
X417758630Y-223011904D02*
X417758630Y-222535714D01*
X418234821Y-222488095D01*
X418187202Y-222535714D01*
X418139583Y-222630952D01*
X418139583Y-222869047D01*
X418187202Y-222964285D01*
X418234821Y-223011904D01*
X418330059Y-223059523D01*
X418568154Y-223059523D01*
X418663392Y-223011904D01*
X418711011Y-222964285D01*
X418758630Y-222869047D01*
X418758630Y-222630952D01*
X418711011Y-222535714D01*
X418663392Y-222488095D01*
X418758630Y-223535714D02*
X418758630Y-223726190D01*
X418711011Y-223821428D01*
X418663392Y-223869047D01*
X418520535Y-223964285D01*
X418330059Y-224011904D01*
X417949107Y-224011904D01*
X417853869Y-223964285D01*
X417806250Y-223916666D01*
X417758630Y-223821428D01*
X417758630Y-223630952D01*
X417806250Y-223535714D01*
X417853869Y-223488095D01*
X417949107Y-223440476D01*
X418187202Y-223440476D01*
X418282440Y-223488095D01*
X418330059Y-223535714D01*
X418377678Y-223630952D01*
X418377678Y-223821428D01*
X418330059Y-223916666D01*
X418282440Y-223964285D01*
X418187202Y-224011904D01*
%TO.C,D44*%
X437808630Y-215185714D02*
X436808630Y-215185714D01*
X436808630Y-215423809D01*
X436856250Y-215566666D01*
X436951488Y-215661904D01*
X437046726Y-215709523D01*
X437237202Y-215757142D01*
X437380059Y-215757142D01*
X437570535Y-215709523D01*
X437665773Y-215661904D01*
X437761011Y-215566666D01*
X437808630Y-215423809D01*
X437808630Y-215185714D01*
X437141964Y-216614285D02*
X437808630Y-216614285D01*
X436761011Y-216376190D02*
X437475297Y-216138095D01*
X437475297Y-216757142D01*
X437141964Y-217566666D02*
X437808630Y-217566666D01*
X436761011Y-217328571D02*
X437475297Y-217090476D01*
X437475297Y-217709523D01*
%TO.C,D28*%
X409233630Y-188198214D02*
X408233630Y-188198214D01*
X408233630Y-188436309D01*
X408281250Y-188579166D01*
X408376488Y-188674404D01*
X408471726Y-188722023D01*
X408662202Y-188769642D01*
X408805059Y-188769642D01*
X408995535Y-188722023D01*
X409090773Y-188674404D01*
X409186011Y-188579166D01*
X409233630Y-188436309D01*
X409233630Y-188198214D01*
X408328869Y-189150595D02*
X408281250Y-189198214D01*
X408233630Y-189293452D01*
X408233630Y-189531547D01*
X408281250Y-189626785D01*
X408328869Y-189674404D01*
X408424107Y-189722023D01*
X408519345Y-189722023D01*
X408662202Y-189674404D01*
X409233630Y-189102976D01*
X409233630Y-189722023D01*
X408662202Y-190293452D02*
X408614583Y-190198214D01*
X408566964Y-190150595D01*
X408471726Y-190102976D01*
X408424107Y-190102976D01*
X408328869Y-190150595D01*
X408281250Y-190198214D01*
X408233630Y-190293452D01*
X408233630Y-190483928D01*
X408281250Y-190579166D01*
X408328869Y-190626785D01*
X408424107Y-190674404D01*
X408471726Y-190674404D01*
X408566964Y-190626785D01*
X408614583Y-190579166D01*
X408662202Y-190483928D01*
X408662202Y-190293452D01*
X408709821Y-190198214D01*
X408757440Y-190150595D01*
X408852678Y-190102976D01*
X409043154Y-190102976D01*
X409138392Y-190150595D01*
X409186011Y-190198214D01*
X409233630Y-190293452D01*
X409233630Y-190483928D01*
X409186011Y-190579166D01*
X409138392Y-190626785D01*
X409043154Y-190674404D01*
X408852678Y-190674404D01*
X408757440Y-190626785D01*
X408709821Y-190579166D01*
X408662202Y-190483928D01*
%TO.C,D13*%
X399708630Y-170735714D02*
X398708630Y-170735714D01*
X398708630Y-170973809D01*
X398756250Y-171116666D01*
X398851488Y-171211904D01*
X398946726Y-171259523D01*
X399137202Y-171307142D01*
X399280059Y-171307142D01*
X399470535Y-171259523D01*
X399565773Y-171211904D01*
X399661011Y-171116666D01*
X399708630Y-170973809D01*
X399708630Y-170735714D01*
X399708630Y-172259523D02*
X399708630Y-171688095D01*
X399708630Y-171973809D02*
X398708630Y-171973809D01*
X398851488Y-171878571D01*
X398946726Y-171783333D01*
X398994345Y-171688095D01*
X398708630Y-172592857D02*
X398708630Y-173211904D01*
X399089583Y-172878571D01*
X399089583Y-173021428D01*
X399137202Y-173116666D01*
X399184821Y-173164285D01*
X399280059Y-173211904D01*
X399518154Y-173211904D01*
X399613392Y-173164285D01*
X399661011Y-173116666D01*
X399708630Y-173021428D01*
X399708630Y-172735714D01*
X399661011Y-172640476D01*
X399613392Y-172592857D01*
%TO.C,D58*%
X414789880Y-226298214D02*
X413789880Y-226298214D01*
X413789880Y-226536309D01*
X413837500Y-226679166D01*
X413932738Y-226774404D01*
X414027976Y-226822023D01*
X414218452Y-226869642D01*
X414361309Y-226869642D01*
X414551785Y-226822023D01*
X414647023Y-226774404D01*
X414742261Y-226679166D01*
X414789880Y-226536309D01*
X414789880Y-226298214D01*
X413789880Y-227774404D02*
X413789880Y-227298214D01*
X414266071Y-227250595D01*
X414218452Y-227298214D01*
X414170833Y-227393452D01*
X414170833Y-227631547D01*
X414218452Y-227726785D01*
X414266071Y-227774404D01*
X414361309Y-227822023D01*
X414599404Y-227822023D01*
X414694642Y-227774404D01*
X414742261Y-227726785D01*
X414789880Y-227631547D01*
X414789880Y-227393452D01*
X414742261Y-227298214D01*
X414694642Y-227250595D01*
X414218452Y-228393452D02*
X414170833Y-228298214D01*
X414123214Y-228250595D01*
X414027976Y-228202976D01*
X413980357Y-228202976D01*
X413885119Y-228250595D01*
X413837500Y-228298214D01*
X413789880Y-228393452D01*
X413789880Y-228583928D01*
X413837500Y-228679166D01*
X413885119Y-228726785D01*
X413980357Y-228774404D01*
X414027976Y-228774404D01*
X414123214Y-228726785D01*
X414170833Y-228679166D01*
X414218452Y-228583928D01*
X414218452Y-228393452D01*
X414266071Y-228298214D01*
X414313690Y-228250595D01*
X414408928Y-228202976D01*
X414599404Y-228202976D01*
X414694642Y-228250595D01*
X414742261Y-228298214D01*
X414789880Y-228393452D01*
X414789880Y-228583928D01*
X414742261Y-228679166D01*
X414694642Y-228726785D01*
X414599404Y-228774404D01*
X414408928Y-228774404D01*
X414313690Y-228726785D01*
X414266071Y-228679166D01*
X414218452Y-228583928D01*
%TO.C,D43*%
X394857230Y-207135564D02*
X393857230Y-207135564D01*
X393857230Y-207373659D01*
X393904850Y-207516516D01*
X394000088Y-207611754D01*
X394095326Y-207659373D01*
X394285802Y-207706992D01*
X394428659Y-207706992D01*
X394619135Y-207659373D01*
X394714373Y-207611754D01*
X394809611Y-207516516D01*
X394857230Y-207373659D01*
X394857230Y-207135564D01*
X394190564Y-208564135D02*
X394857230Y-208564135D01*
X393809611Y-208326040D02*
X394523897Y-208087945D01*
X394523897Y-208706992D01*
X393857230Y-208992707D02*
X393857230Y-209611754D01*
X394238183Y-209278421D01*
X394238183Y-209421278D01*
X394285802Y-209516516D01*
X394333421Y-209564135D01*
X394428659Y-209611754D01*
X394666754Y-209611754D01*
X394761992Y-209564135D01*
X394809611Y-209516516D01*
X394857230Y-209421278D01*
X394857230Y-209135564D01*
X394809611Y-209040326D01*
X394761992Y-208992707D01*
%TO.C,D27*%
X390183630Y-188198214D02*
X389183630Y-188198214D01*
X389183630Y-188436309D01*
X389231250Y-188579166D01*
X389326488Y-188674404D01*
X389421726Y-188722023D01*
X389612202Y-188769642D01*
X389755059Y-188769642D01*
X389945535Y-188722023D01*
X390040773Y-188674404D01*
X390136011Y-188579166D01*
X390183630Y-188436309D01*
X390183630Y-188198214D01*
X389278869Y-189150595D02*
X389231250Y-189198214D01*
X389183630Y-189293452D01*
X389183630Y-189531547D01*
X389231250Y-189626785D01*
X389278869Y-189674404D01*
X389374107Y-189722023D01*
X389469345Y-189722023D01*
X389612202Y-189674404D01*
X390183630Y-189102976D01*
X390183630Y-189722023D01*
X389183630Y-190055357D02*
X389183630Y-190722023D01*
X390183630Y-190293452D01*
%TO.C,D12*%
X380658630Y-169148214D02*
X379658630Y-169148214D01*
X379658630Y-169386309D01*
X379706250Y-169529166D01*
X379801488Y-169624404D01*
X379896726Y-169672023D01*
X380087202Y-169719642D01*
X380230059Y-169719642D01*
X380420535Y-169672023D01*
X380515773Y-169624404D01*
X380611011Y-169529166D01*
X380658630Y-169386309D01*
X380658630Y-169148214D01*
X380658630Y-170672023D02*
X380658630Y-170100595D01*
X380658630Y-170386309D02*
X379658630Y-170386309D01*
X379801488Y-170291071D01*
X379896726Y-170195833D01*
X379944345Y-170100595D01*
X379753869Y-171052976D02*
X379706250Y-171100595D01*
X379658630Y-171195833D01*
X379658630Y-171433928D01*
X379706250Y-171529166D01*
X379753869Y-171576785D01*
X379849107Y-171624404D01*
X379944345Y-171624404D01*
X380087202Y-171576785D01*
X380658630Y-171005357D01*
X380658630Y-171624404D01*
%TO.C,D57*%
X385421130Y-226298214D02*
X384421130Y-226298214D01*
X384421130Y-226536309D01*
X384468750Y-226679166D01*
X384563988Y-226774404D01*
X384659226Y-226822023D01*
X384849702Y-226869642D01*
X384992559Y-226869642D01*
X385183035Y-226822023D01*
X385278273Y-226774404D01*
X385373511Y-226679166D01*
X385421130Y-226536309D01*
X385421130Y-226298214D01*
X384421130Y-227774404D02*
X384421130Y-227298214D01*
X384897321Y-227250595D01*
X384849702Y-227298214D01*
X384802083Y-227393452D01*
X384802083Y-227631547D01*
X384849702Y-227726785D01*
X384897321Y-227774404D01*
X384992559Y-227822023D01*
X385230654Y-227822023D01*
X385325892Y-227774404D01*
X385373511Y-227726785D01*
X385421130Y-227631547D01*
X385421130Y-227393452D01*
X385373511Y-227298214D01*
X385325892Y-227250595D01*
X384421130Y-228155357D02*
X384421130Y-228822023D01*
X385421130Y-228393452D01*
%TO.C,D42*%
X375896130Y-207097464D02*
X374896130Y-207097464D01*
X374896130Y-207335559D01*
X374943750Y-207478416D01*
X375038988Y-207573654D01*
X375134226Y-207621273D01*
X375324702Y-207668892D01*
X375467559Y-207668892D01*
X375658035Y-207621273D01*
X375753273Y-207573654D01*
X375848511Y-207478416D01*
X375896130Y-207335559D01*
X375896130Y-207097464D01*
X375229464Y-208526035D02*
X375896130Y-208526035D01*
X374848511Y-208287940D02*
X375562797Y-208049845D01*
X375562797Y-208668892D01*
X374991369Y-209002226D02*
X374943750Y-209049845D01*
X374896130Y-209145083D01*
X374896130Y-209383178D01*
X374943750Y-209478416D01*
X374991369Y-209526035D01*
X375086607Y-209573654D01*
X375181845Y-209573654D01*
X375324702Y-209526035D01*
X375896130Y-208954607D01*
X375896130Y-209573654D01*
%TO.C,D26*%
X371133630Y-188198214D02*
X370133630Y-188198214D01*
X370133630Y-188436309D01*
X370181250Y-188579166D01*
X370276488Y-188674404D01*
X370371726Y-188722023D01*
X370562202Y-188769642D01*
X370705059Y-188769642D01*
X370895535Y-188722023D01*
X370990773Y-188674404D01*
X371086011Y-188579166D01*
X371133630Y-188436309D01*
X371133630Y-188198214D01*
X370228869Y-189150595D02*
X370181250Y-189198214D01*
X370133630Y-189293452D01*
X370133630Y-189531547D01*
X370181250Y-189626785D01*
X370228869Y-189674404D01*
X370324107Y-189722023D01*
X370419345Y-189722023D01*
X370562202Y-189674404D01*
X371133630Y-189102976D01*
X371133630Y-189722023D01*
X370133630Y-190579166D02*
X370133630Y-190388690D01*
X370181250Y-190293452D01*
X370228869Y-190245833D01*
X370371726Y-190150595D01*
X370562202Y-190102976D01*
X370943154Y-190102976D01*
X371038392Y-190150595D01*
X371086011Y-190198214D01*
X371133630Y-190293452D01*
X371133630Y-190483928D01*
X371086011Y-190579166D01*
X371038392Y-190626785D01*
X370943154Y-190674404D01*
X370705059Y-190674404D01*
X370609821Y-190626785D01*
X370562202Y-190579166D01*
X370514583Y-190483928D01*
X370514583Y-190293452D01*
X370562202Y-190198214D01*
X370609821Y-190150595D01*
X370705059Y-190102976D01*
%TO.C,D11*%
X361608630Y-169148214D02*
X360608630Y-169148214D01*
X360608630Y-169386309D01*
X360656250Y-169529166D01*
X360751488Y-169624404D01*
X360846726Y-169672023D01*
X361037202Y-169719642D01*
X361180059Y-169719642D01*
X361370535Y-169672023D01*
X361465773Y-169624404D01*
X361561011Y-169529166D01*
X361608630Y-169386309D01*
X361608630Y-169148214D01*
X361608630Y-170672023D02*
X361608630Y-170100595D01*
X361608630Y-170386309D02*
X360608630Y-170386309D01*
X360751488Y-170291071D01*
X360846726Y-170195833D01*
X360894345Y-170100595D01*
X361608630Y-171624404D02*
X361608630Y-171052976D01*
X361608630Y-171338690D02*
X360608630Y-171338690D01*
X360751488Y-171243452D01*
X360846726Y-171148214D01*
X360894345Y-171052976D01*
%TO.C,D56*%
X366371130Y-226298214D02*
X365371130Y-226298214D01*
X365371130Y-226536309D01*
X365418750Y-226679166D01*
X365513988Y-226774404D01*
X365609226Y-226822023D01*
X365799702Y-226869642D01*
X365942559Y-226869642D01*
X366133035Y-226822023D01*
X366228273Y-226774404D01*
X366323511Y-226679166D01*
X366371130Y-226536309D01*
X366371130Y-226298214D01*
X365371130Y-227774404D02*
X365371130Y-227298214D01*
X365847321Y-227250595D01*
X365799702Y-227298214D01*
X365752083Y-227393452D01*
X365752083Y-227631547D01*
X365799702Y-227726785D01*
X365847321Y-227774404D01*
X365942559Y-227822023D01*
X366180654Y-227822023D01*
X366275892Y-227774404D01*
X366323511Y-227726785D01*
X366371130Y-227631547D01*
X366371130Y-227393452D01*
X366323511Y-227298214D01*
X366275892Y-227250595D01*
X365371130Y-228679166D02*
X365371130Y-228488690D01*
X365418750Y-228393452D01*
X365466369Y-228345833D01*
X365609226Y-228250595D01*
X365799702Y-228202976D01*
X366180654Y-228202976D01*
X366275892Y-228250595D01*
X366323511Y-228298214D01*
X366371130Y-228393452D01*
X366371130Y-228583928D01*
X366323511Y-228679166D01*
X366275892Y-228726785D01*
X366180654Y-228774404D01*
X365942559Y-228774404D01*
X365847321Y-228726785D01*
X365799702Y-228679166D01*
X365752083Y-228583928D01*
X365752083Y-228393452D01*
X365799702Y-228298214D01*
X365847321Y-228250595D01*
X365942559Y-228202976D01*
%TO.C,D41*%
X356846130Y-207248214D02*
X355846130Y-207248214D01*
X355846130Y-207486309D01*
X355893750Y-207629166D01*
X355988988Y-207724404D01*
X356084226Y-207772023D01*
X356274702Y-207819642D01*
X356417559Y-207819642D01*
X356608035Y-207772023D01*
X356703273Y-207724404D01*
X356798511Y-207629166D01*
X356846130Y-207486309D01*
X356846130Y-207248214D01*
X356179464Y-208676785D02*
X356846130Y-208676785D01*
X355798511Y-208438690D02*
X356512797Y-208200595D01*
X356512797Y-208819642D01*
X356846130Y-209724404D02*
X356846130Y-209152976D01*
X356846130Y-209438690D02*
X355846130Y-209438690D01*
X355988988Y-209343452D01*
X356084226Y-209248214D01*
X356131845Y-209152976D01*
%TO.C,D25*%
X352083630Y-188198214D02*
X351083630Y-188198214D01*
X351083630Y-188436309D01*
X351131250Y-188579166D01*
X351226488Y-188674404D01*
X351321726Y-188722023D01*
X351512202Y-188769642D01*
X351655059Y-188769642D01*
X351845535Y-188722023D01*
X351940773Y-188674404D01*
X352036011Y-188579166D01*
X352083630Y-188436309D01*
X352083630Y-188198214D01*
X351178869Y-189150595D02*
X351131250Y-189198214D01*
X351083630Y-189293452D01*
X351083630Y-189531547D01*
X351131250Y-189626785D01*
X351178869Y-189674404D01*
X351274107Y-189722023D01*
X351369345Y-189722023D01*
X351512202Y-189674404D01*
X352083630Y-189102976D01*
X352083630Y-189722023D01*
X351083630Y-190626785D02*
X351083630Y-190150595D01*
X351559821Y-190102976D01*
X351512202Y-190150595D01*
X351464583Y-190245833D01*
X351464583Y-190483928D01*
X351512202Y-190579166D01*
X351559821Y-190626785D01*
X351655059Y-190674404D01*
X351893154Y-190674404D01*
X351988392Y-190626785D01*
X352036011Y-190579166D01*
X352083630Y-190483928D01*
X352083630Y-190245833D01*
X352036011Y-190150595D01*
X351988392Y-190102976D01*
%TO.C,D10*%
X342558630Y-169148214D02*
X341558630Y-169148214D01*
X341558630Y-169386309D01*
X341606250Y-169529166D01*
X341701488Y-169624404D01*
X341796726Y-169672023D01*
X341987202Y-169719642D01*
X342130059Y-169719642D01*
X342320535Y-169672023D01*
X342415773Y-169624404D01*
X342511011Y-169529166D01*
X342558630Y-169386309D01*
X342558630Y-169148214D01*
X342558630Y-170672023D02*
X342558630Y-170100595D01*
X342558630Y-170386309D02*
X341558630Y-170386309D01*
X341701488Y-170291071D01*
X341796726Y-170195833D01*
X341844345Y-170100595D01*
X341558630Y-171291071D02*
X341558630Y-171386309D01*
X341606250Y-171481547D01*
X341653869Y-171529166D01*
X341749107Y-171576785D01*
X341939583Y-171624404D01*
X342177678Y-171624404D01*
X342368154Y-171576785D01*
X342463392Y-171529166D01*
X342511011Y-171481547D01*
X342558630Y-171386309D01*
X342558630Y-171291071D01*
X342511011Y-171195833D01*
X342463392Y-171148214D01*
X342368154Y-171100595D01*
X342177678Y-171052976D01*
X341939583Y-171052976D01*
X341749107Y-171100595D01*
X341653869Y-171148214D01*
X341606250Y-171195833D01*
X341558630Y-171291071D01*
%TO.C,D70*%
X437808630Y-245348214D02*
X436808630Y-245348214D01*
X436808630Y-245586309D01*
X436856250Y-245729166D01*
X436951488Y-245824404D01*
X437046726Y-245872023D01*
X437237202Y-245919642D01*
X437380059Y-245919642D01*
X437570535Y-245872023D01*
X437665773Y-245824404D01*
X437761011Y-245729166D01*
X437808630Y-245586309D01*
X437808630Y-245348214D01*
X436808630Y-246252976D02*
X436808630Y-246919642D01*
X437808630Y-246491071D01*
X436808630Y-247491071D02*
X436808630Y-247586309D01*
X436856250Y-247681547D01*
X436903869Y-247729166D01*
X436999107Y-247776785D01*
X437189583Y-247824404D01*
X437427678Y-247824404D01*
X437618154Y-247776785D01*
X437713392Y-247729166D01*
X437761011Y-247681547D01*
X437808630Y-247586309D01*
X437808630Y-247491071D01*
X437761011Y-247395833D01*
X437713392Y-247348214D01*
X437618154Y-247300595D01*
X437427678Y-247252976D01*
X437189583Y-247252976D01*
X436999107Y-247300595D01*
X436903869Y-247348214D01*
X436856250Y-247395833D01*
X436808630Y-247491071D01*
%TO.C,D55*%
X347321130Y-226298214D02*
X346321130Y-226298214D01*
X346321130Y-226536309D01*
X346368750Y-226679166D01*
X346463988Y-226774404D01*
X346559226Y-226822023D01*
X346749702Y-226869642D01*
X346892559Y-226869642D01*
X347083035Y-226822023D01*
X347178273Y-226774404D01*
X347273511Y-226679166D01*
X347321130Y-226536309D01*
X347321130Y-226298214D01*
X346321130Y-227774404D02*
X346321130Y-227298214D01*
X346797321Y-227250595D01*
X346749702Y-227298214D01*
X346702083Y-227393452D01*
X346702083Y-227631547D01*
X346749702Y-227726785D01*
X346797321Y-227774404D01*
X346892559Y-227822023D01*
X347130654Y-227822023D01*
X347225892Y-227774404D01*
X347273511Y-227726785D01*
X347321130Y-227631547D01*
X347321130Y-227393452D01*
X347273511Y-227298214D01*
X347225892Y-227250595D01*
X346321130Y-228726785D02*
X346321130Y-228250595D01*
X346797321Y-228202976D01*
X346749702Y-228250595D01*
X346702083Y-228345833D01*
X346702083Y-228583928D01*
X346749702Y-228679166D01*
X346797321Y-228726785D01*
X346892559Y-228774404D01*
X347130654Y-228774404D01*
X347225892Y-228726785D01*
X347273511Y-228679166D01*
X347321130Y-228583928D01*
X347321130Y-228345833D01*
X347273511Y-228250595D01*
X347225892Y-228202976D01*
%TO.C,D40*%
X337796130Y-207248214D02*
X336796130Y-207248214D01*
X336796130Y-207486309D01*
X336843750Y-207629166D01*
X336938988Y-207724404D01*
X337034226Y-207772023D01*
X337224702Y-207819642D01*
X337367559Y-207819642D01*
X337558035Y-207772023D01*
X337653273Y-207724404D01*
X337748511Y-207629166D01*
X337796130Y-207486309D01*
X337796130Y-207248214D01*
X337129464Y-208676785D02*
X337796130Y-208676785D01*
X336748511Y-208438690D02*
X337462797Y-208200595D01*
X337462797Y-208819642D01*
X336796130Y-209391071D02*
X336796130Y-209486309D01*
X336843750Y-209581547D01*
X336891369Y-209629166D01*
X336986607Y-209676785D01*
X337177083Y-209724404D01*
X337415178Y-209724404D01*
X337605654Y-209676785D01*
X337700892Y-209629166D01*
X337748511Y-209581547D01*
X337796130Y-209486309D01*
X337796130Y-209391071D01*
X337748511Y-209295833D01*
X337700892Y-209248214D01*
X337605654Y-209200595D01*
X337415178Y-209152976D01*
X337177083Y-209152976D01*
X336986607Y-209200595D01*
X336891369Y-209248214D01*
X336843750Y-209295833D01*
X336796130Y-209391071D01*
%TO.C,D24*%
X333033630Y-188198214D02*
X332033630Y-188198214D01*
X332033630Y-188436309D01*
X332081250Y-188579166D01*
X332176488Y-188674404D01*
X332271726Y-188722023D01*
X332462202Y-188769642D01*
X332605059Y-188769642D01*
X332795535Y-188722023D01*
X332890773Y-188674404D01*
X332986011Y-188579166D01*
X333033630Y-188436309D01*
X333033630Y-188198214D01*
X332128869Y-189150595D02*
X332081250Y-189198214D01*
X332033630Y-189293452D01*
X332033630Y-189531547D01*
X332081250Y-189626785D01*
X332128869Y-189674404D01*
X332224107Y-189722023D01*
X332319345Y-189722023D01*
X332462202Y-189674404D01*
X333033630Y-189102976D01*
X333033630Y-189722023D01*
X332366964Y-190579166D02*
X333033630Y-190579166D01*
X331986011Y-190341071D02*
X332700297Y-190102976D01*
X332700297Y-190722023D01*
%TO.C,D9*%
X323508630Y-169918154D02*
X322508630Y-169918154D01*
X322508630Y-170156250D01*
X322556250Y-170299107D01*
X322651488Y-170394345D01*
X322746726Y-170441964D01*
X322937202Y-170489583D01*
X323080059Y-170489583D01*
X323270535Y-170441964D01*
X323365773Y-170394345D01*
X323461011Y-170299107D01*
X323508630Y-170156250D01*
X323508630Y-169918154D01*
X323508630Y-170965773D02*
X323508630Y-171156250D01*
X323461011Y-171251488D01*
X323413392Y-171299107D01*
X323270535Y-171394345D01*
X323080059Y-171441964D01*
X322699107Y-171441964D01*
X322603869Y-171394345D01*
X322556250Y-171346726D01*
X322508630Y-171251488D01*
X322508630Y-171061011D01*
X322556250Y-170965773D01*
X322603869Y-170918154D01*
X322699107Y-170870535D01*
X322937202Y-170870535D01*
X323032440Y-170918154D01*
X323080059Y-170965773D01*
X323127678Y-171061011D01*
X323127678Y-171251488D01*
X323080059Y-171346726D01*
X323032440Y-171394345D01*
X322937202Y-171441964D01*
%TO.C,D69*%
X418758630Y-233441964D02*
X417758630Y-233441964D01*
X417758630Y-233680059D01*
X417806250Y-233822916D01*
X417901488Y-233918154D01*
X417996726Y-233965773D01*
X418187202Y-234013392D01*
X418330059Y-234013392D01*
X418520535Y-233965773D01*
X418615773Y-233918154D01*
X418711011Y-233822916D01*
X418758630Y-233680059D01*
X418758630Y-233441964D01*
X417758630Y-234870535D02*
X417758630Y-234680059D01*
X417806250Y-234584821D01*
X417853869Y-234537202D01*
X417996726Y-234441964D01*
X418187202Y-234394345D01*
X418568154Y-234394345D01*
X418663392Y-234441964D01*
X418711011Y-234489583D01*
X418758630Y-234584821D01*
X418758630Y-234775297D01*
X418711011Y-234870535D01*
X418663392Y-234918154D01*
X418568154Y-234965773D01*
X418330059Y-234965773D01*
X418234821Y-234918154D01*
X418187202Y-234870535D01*
X418139583Y-234775297D01*
X418139583Y-234584821D01*
X418187202Y-234489583D01*
X418234821Y-234441964D01*
X418330059Y-234394345D01*
X418758630Y-235441964D02*
X418758630Y-235632440D01*
X418711011Y-235727678D01*
X418663392Y-235775297D01*
X418520535Y-235870535D01*
X418330059Y-235918154D01*
X417949107Y-235918154D01*
X417853869Y-235870535D01*
X417806250Y-235822916D01*
X417758630Y-235727678D01*
X417758630Y-235537202D01*
X417806250Y-235441964D01*
X417853869Y-235394345D01*
X417949107Y-235346726D01*
X418187202Y-235346726D01*
X418282440Y-235394345D01*
X418330059Y-235441964D01*
X418377678Y-235537202D01*
X418377678Y-235727678D01*
X418330059Y-235822916D01*
X418282440Y-235870535D01*
X418187202Y-235918154D01*
%TO.C,D54*%
X328271130Y-226298214D02*
X327271130Y-226298214D01*
X327271130Y-226536309D01*
X327318750Y-226679166D01*
X327413988Y-226774404D01*
X327509226Y-226822023D01*
X327699702Y-226869642D01*
X327842559Y-226869642D01*
X328033035Y-226822023D01*
X328128273Y-226774404D01*
X328223511Y-226679166D01*
X328271130Y-226536309D01*
X328271130Y-226298214D01*
X327271130Y-227774404D02*
X327271130Y-227298214D01*
X327747321Y-227250595D01*
X327699702Y-227298214D01*
X327652083Y-227393452D01*
X327652083Y-227631547D01*
X327699702Y-227726785D01*
X327747321Y-227774404D01*
X327842559Y-227822023D01*
X328080654Y-227822023D01*
X328175892Y-227774404D01*
X328223511Y-227726785D01*
X328271130Y-227631547D01*
X328271130Y-227393452D01*
X328223511Y-227298214D01*
X328175892Y-227250595D01*
X327604464Y-228679166D02*
X328271130Y-228679166D01*
X327223511Y-228441071D02*
X327937797Y-228202976D01*
X327937797Y-228822023D01*
%TO.C,D39*%
X318746130Y-207248214D02*
X317746130Y-207248214D01*
X317746130Y-207486309D01*
X317793750Y-207629166D01*
X317888988Y-207724404D01*
X317984226Y-207772023D01*
X318174702Y-207819642D01*
X318317559Y-207819642D01*
X318508035Y-207772023D01*
X318603273Y-207724404D01*
X318698511Y-207629166D01*
X318746130Y-207486309D01*
X318746130Y-207248214D01*
X317746130Y-208152976D02*
X317746130Y-208772023D01*
X318127083Y-208438690D01*
X318127083Y-208581547D01*
X318174702Y-208676785D01*
X318222321Y-208724404D01*
X318317559Y-208772023D01*
X318555654Y-208772023D01*
X318650892Y-208724404D01*
X318698511Y-208676785D01*
X318746130Y-208581547D01*
X318746130Y-208295833D01*
X318698511Y-208200595D01*
X318650892Y-208152976D01*
X318746130Y-209248214D02*
X318746130Y-209438690D01*
X318698511Y-209533928D01*
X318650892Y-209581547D01*
X318508035Y-209676785D01*
X318317559Y-209724404D01*
X317936607Y-209724404D01*
X317841369Y-209676785D01*
X317793750Y-209629166D01*
X317746130Y-209533928D01*
X317746130Y-209343452D01*
X317793750Y-209248214D01*
X317841369Y-209200595D01*
X317936607Y-209152976D01*
X318174702Y-209152976D01*
X318269940Y-209200595D01*
X318317559Y-209248214D01*
X318365178Y-209343452D01*
X318365178Y-209533928D01*
X318317559Y-209629166D01*
X318269940Y-209676785D01*
X318174702Y-209724404D01*
%TO.C,D23*%
X313983630Y-188198214D02*
X312983630Y-188198214D01*
X312983630Y-188436309D01*
X313031250Y-188579166D01*
X313126488Y-188674404D01*
X313221726Y-188722023D01*
X313412202Y-188769642D01*
X313555059Y-188769642D01*
X313745535Y-188722023D01*
X313840773Y-188674404D01*
X313936011Y-188579166D01*
X313983630Y-188436309D01*
X313983630Y-188198214D01*
X313078869Y-189150595D02*
X313031250Y-189198214D01*
X312983630Y-189293452D01*
X312983630Y-189531547D01*
X313031250Y-189626785D01*
X313078869Y-189674404D01*
X313174107Y-189722023D01*
X313269345Y-189722023D01*
X313412202Y-189674404D01*
X313983630Y-189102976D01*
X313983630Y-189722023D01*
X312983630Y-190055357D02*
X312983630Y-190674404D01*
X313364583Y-190341071D01*
X313364583Y-190483928D01*
X313412202Y-190579166D01*
X313459821Y-190626785D01*
X313555059Y-190674404D01*
X313793154Y-190674404D01*
X313888392Y-190626785D01*
X313936011Y-190579166D01*
X313983630Y-190483928D01*
X313983630Y-190198214D01*
X313936011Y-190102976D01*
X313888392Y-190055357D01*
%TO.C,D8*%
X304458630Y-169918154D02*
X303458630Y-169918154D01*
X303458630Y-170156250D01*
X303506250Y-170299107D01*
X303601488Y-170394345D01*
X303696726Y-170441964D01*
X303887202Y-170489583D01*
X304030059Y-170489583D01*
X304220535Y-170441964D01*
X304315773Y-170394345D01*
X304411011Y-170299107D01*
X304458630Y-170156250D01*
X304458630Y-169918154D01*
X303887202Y-171061011D02*
X303839583Y-170965773D01*
X303791964Y-170918154D01*
X303696726Y-170870535D01*
X303649107Y-170870535D01*
X303553869Y-170918154D01*
X303506250Y-170965773D01*
X303458630Y-171061011D01*
X303458630Y-171251488D01*
X303506250Y-171346726D01*
X303553869Y-171394345D01*
X303649107Y-171441964D01*
X303696726Y-171441964D01*
X303791964Y-171394345D01*
X303839583Y-171346726D01*
X303887202Y-171251488D01*
X303887202Y-171061011D01*
X303934821Y-170965773D01*
X303982440Y-170918154D01*
X304077678Y-170870535D01*
X304268154Y-170870535D01*
X304363392Y-170918154D01*
X304411011Y-170965773D01*
X304458630Y-171061011D01*
X304458630Y-171251488D01*
X304411011Y-171346726D01*
X304363392Y-171394345D01*
X304268154Y-171441964D01*
X304077678Y-171441964D01*
X303982440Y-171394345D01*
X303934821Y-171346726D01*
X303887202Y-171251488D01*
%TO.C,D68*%
X418758630Y-245348214D02*
X417758630Y-245348214D01*
X417758630Y-245586309D01*
X417806250Y-245729166D01*
X417901488Y-245824404D01*
X417996726Y-245872023D01*
X418187202Y-245919642D01*
X418330059Y-245919642D01*
X418520535Y-245872023D01*
X418615773Y-245824404D01*
X418711011Y-245729166D01*
X418758630Y-245586309D01*
X418758630Y-245348214D01*
X417758630Y-246776785D02*
X417758630Y-246586309D01*
X417806250Y-246491071D01*
X417853869Y-246443452D01*
X417996726Y-246348214D01*
X418187202Y-246300595D01*
X418568154Y-246300595D01*
X418663392Y-246348214D01*
X418711011Y-246395833D01*
X418758630Y-246491071D01*
X418758630Y-246681547D01*
X418711011Y-246776785D01*
X418663392Y-246824404D01*
X418568154Y-246872023D01*
X418330059Y-246872023D01*
X418234821Y-246824404D01*
X418187202Y-246776785D01*
X418139583Y-246681547D01*
X418139583Y-246491071D01*
X418187202Y-246395833D01*
X418234821Y-246348214D01*
X418330059Y-246300595D01*
X418187202Y-247443452D02*
X418139583Y-247348214D01*
X418091964Y-247300595D01*
X417996726Y-247252976D01*
X417949107Y-247252976D01*
X417853869Y-247300595D01*
X417806250Y-247348214D01*
X417758630Y-247443452D01*
X417758630Y-247633928D01*
X417806250Y-247729166D01*
X417853869Y-247776785D01*
X417949107Y-247824404D01*
X417996726Y-247824404D01*
X418091964Y-247776785D01*
X418139583Y-247729166D01*
X418187202Y-247633928D01*
X418187202Y-247443452D01*
X418234821Y-247348214D01*
X418282440Y-247300595D01*
X418377678Y-247252976D01*
X418568154Y-247252976D01*
X418663392Y-247300595D01*
X418711011Y-247348214D01*
X418758630Y-247443452D01*
X418758630Y-247633928D01*
X418711011Y-247729166D01*
X418663392Y-247776785D01*
X418568154Y-247824404D01*
X418377678Y-247824404D01*
X418282440Y-247776785D01*
X418234821Y-247729166D01*
X418187202Y-247633928D01*
%TO.C,D53*%
X309221130Y-226298214D02*
X308221130Y-226298214D01*
X308221130Y-226536309D01*
X308268750Y-226679166D01*
X308363988Y-226774404D01*
X308459226Y-226822023D01*
X308649702Y-226869642D01*
X308792559Y-226869642D01*
X308983035Y-226822023D01*
X309078273Y-226774404D01*
X309173511Y-226679166D01*
X309221130Y-226536309D01*
X309221130Y-226298214D01*
X308221130Y-227774404D02*
X308221130Y-227298214D01*
X308697321Y-227250595D01*
X308649702Y-227298214D01*
X308602083Y-227393452D01*
X308602083Y-227631547D01*
X308649702Y-227726785D01*
X308697321Y-227774404D01*
X308792559Y-227822023D01*
X309030654Y-227822023D01*
X309125892Y-227774404D01*
X309173511Y-227726785D01*
X309221130Y-227631547D01*
X309221130Y-227393452D01*
X309173511Y-227298214D01*
X309125892Y-227250595D01*
X308221130Y-228155357D02*
X308221130Y-228774404D01*
X308602083Y-228441071D01*
X308602083Y-228583928D01*
X308649702Y-228679166D01*
X308697321Y-228726785D01*
X308792559Y-228774404D01*
X309030654Y-228774404D01*
X309125892Y-228726785D01*
X309173511Y-228679166D01*
X309221130Y-228583928D01*
X309221130Y-228298214D01*
X309173511Y-228202976D01*
X309125892Y-228155357D01*
%TO.C,D38*%
X299696130Y-207248214D02*
X298696130Y-207248214D01*
X298696130Y-207486309D01*
X298743750Y-207629166D01*
X298838988Y-207724404D01*
X298934226Y-207772023D01*
X299124702Y-207819642D01*
X299267559Y-207819642D01*
X299458035Y-207772023D01*
X299553273Y-207724404D01*
X299648511Y-207629166D01*
X299696130Y-207486309D01*
X299696130Y-207248214D01*
X298696130Y-208152976D02*
X298696130Y-208772023D01*
X299077083Y-208438690D01*
X299077083Y-208581547D01*
X299124702Y-208676785D01*
X299172321Y-208724404D01*
X299267559Y-208772023D01*
X299505654Y-208772023D01*
X299600892Y-208724404D01*
X299648511Y-208676785D01*
X299696130Y-208581547D01*
X299696130Y-208295833D01*
X299648511Y-208200595D01*
X299600892Y-208152976D01*
X299124702Y-209343452D02*
X299077083Y-209248214D01*
X299029464Y-209200595D01*
X298934226Y-209152976D01*
X298886607Y-209152976D01*
X298791369Y-209200595D01*
X298743750Y-209248214D01*
X298696130Y-209343452D01*
X298696130Y-209533928D01*
X298743750Y-209629166D01*
X298791369Y-209676785D01*
X298886607Y-209724404D01*
X298934226Y-209724404D01*
X299029464Y-209676785D01*
X299077083Y-209629166D01*
X299124702Y-209533928D01*
X299124702Y-209343452D01*
X299172321Y-209248214D01*
X299219940Y-209200595D01*
X299315178Y-209152976D01*
X299505654Y-209152976D01*
X299600892Y-209200595D01*
X299648511Y-209248214D01*
X299696130Y-209343452D01*
X299696130Y-209533928D01*
X299648511Y-209629166D01*
X299600892Y-209676785D01*
X299505654Y-209724404D01*
X299315178Y-209724404D01*
X299219940Y-209676785D01*
X299172321Y-209629166D01*
X299124702Y-209533928D01*
%TO.C,D22*%
X294933630Y-188198214D02*
X293933630Y-188198214D01*
X293933630Y-188436309D01*
X293981250Y-188579166D01*
X294076488Y-188674404D01*
X294171726Y-188722023D01*
X294362202Y-188769642D01*
X294505059Y-188769642D01*
X294695535Y-188722023D01*
X294790773Y-188674404D01*
X294886011Y-188579166D01*
X294933630Y-188436309D01*
X294933630Y-188198214D01*
X294028869Y-189150595D02*
X293981250Y-189198214D01*
X293933630Y-189293452D01*
X293933630Y-189531547D01*
X293981250Y-189626785D01*
X294028869Y-189674404D01*
X294124107Y-189722023D01*
X294219345Y-189722023D01*
X294362202Y-189674404D01*
X294933630Y-189102976D01*
X294933630Y-189722023D01*
X294028869Y-190102976D02*
X293981250Y-190150595D01*
X293933630Y-190245833D01*
X293933630Y-190483928D01*
X293981250Y-190579166D01*
X294028869Y-190626785D01*
X294124107Y-190674404D01*
X294219345Y-190674404D01*
X294362202Y-190626785D01*
X294933630Y-190055357D01*
X294933630Y-190674404D01*
%TO.C,D7*%
X285408630Y-169918154D02*
X284408630Y-169918154D01*
X284408630Y-170156250D01*
X284456250Y-170299107D01*
X284551488Y-170394345D01*
X284646726Y-170441964D01*
X284837202Y-170489583D01*
X284980059Y-170489583D01*
X285170535Y-170441964D01*
X285265773Y-170394345D01*
X285361011Y-170299107D01*
X285408630Y-170156250D01*
X285408630Y-169918154D01*
X284408630Y-170822916D02*
X284408630Y-171489583D01*
X285408630Y-171061011D01*
%TO.C,D66*%
X380658630Y-245348214D02*
X379658630Y-245348214D01*
X379658630Y-245586309D01*
X379706250Y-245729166D01*
X379801488Y-245824404D01*
X379896726Y-245872023D01*
X380087202Y-245919642D01*
X380230059Y-245919642D01*
X380420535Y-245872023D01*
X380515773Y-245824404D01*
X380611011Y-245729166D01*
X380658630Y-245586309D01*
X380658630Y-245348214D01*
X379658630Y-246776785D02*
X379658630Y-246586309D01*
X379706250Y-246491071D01*
X379753869Y-246443452D01*
X379896726Y-246348214D01*
X380087202Y-246300595D01*
X380468154Y-246300595D01*
X380563392Y-246348214D01*
X380611011Y-246395833D01*
X380658630Y-246491071D01*
X380658630Y-246681547D01*
X380611011Y-246776785D01*
X380563392Y-246824404D01*
X380468154Y-246872023D01*
X380230059Y-246872023D01*
X380134821Y-246824404D01*
X380087202Y-246776785D01*
X380039583Y-246681547D01*
X380039583Y-246491071D01*
X380087202Y-246395833D01*
X380134821Y-246348214D01*
X380230059Y-246300595D01*
X379658630Y-247729166D02*
X379658630Y-247538690D01*
X379706250Y-247443452D01*
X379753869Y-247395833D01*
X379896726Y-247300595D01*
X380087202Y-247252976D01*
X380468154Y-247252976D01*
X380563392Y-247300595D01*
X380611011Y-247348214D01*
X380658630Y-247443452D01*
X380658630Y-247633928D01*
X380611011Y-247729166D01*
X380563392Y-247776785D01*
X380468154Y-247824404D01*
X380230059Y-247824404D01*
X380134821Y-247776785D01*
X380087202Y-247729166D01*
X380039583Y-247633928D01*
X380039583Y-247443452D01*
X380087202Y-247348214D01*
X380134821Y-247300595D01*
X380230059Y-247252976D01*
%TO.C,D52*%
X290171130Y-226298214D02*
X289171130Y-226298214D01*
X289171130Y-226536309D01*
X289218750Y-226679166D01*
X289313988Y-226774404D01*
X289409226Y-226822023D01*
X289599702Y-226869642D01*
X289742559Y-226869642D01*
X289933035Y-226822023D01*
X290028273Y-226774404D01*
X290123511Y-226679166D01*
X290171130Y-226536309D01*
X290171130Y-226298214D01*
X289171130Y-227774404D02*
X289171130Y-227298214D01*
X289647321Y-227250595D01*
X289599702Y-227298214D01*
X289552083Y-227393452D01*
X289552083Y-227631547D01*
X289599702Y-227726785D01*
X289647321Y-227774404D01*
X289742559Y-227822023D01*
X289980654Y-227822023D01*
X290075892Y-227774404D01*
X290123511Y-227726785D01*
X290171130Y-227631547D01*
X290171130Y-227393452D01*
X290123511Y-227298214D01*
X290075892Y-227250595D01*
X289266369Y-228202976D02*
X289218750Y-228250595D01*
X289171130Y-228345833D01*
X289171130Y-228583928D01*
X289218750Y-228679166D01*
X289266369Y-228726785D01*
X289361607Y-228774404D01*
X289456845Y-228774404D01*
X289599702Y-228726785D01*
X290171130Y-228155357D01*
X290171130Y-228774404D01*
%TO.C,D37*%
X280646130Y-207248214D02*
X279646130Y-207248214D01*
X279646130Y-207486309D01*
X279693750Y-207629166D01*
X279788988Y-207724404D01*
X279884226Y-207772023D01*
X280074702Y-207819642D01*
X280217559Y-207819642D01*
X280408035Y-207772023D01*
X280503273Y-207724404D01*
X280598511Y-207629166D01*
X280646130Y-207486309D01*
X280646130Y-207248214D01*
X279646130Y-208152976D02*
X279646130Y-208772023D01*
X280027083Y-208438690D01*
X280027083Y-208581547D01*
X280074702Y-208676785D01*
X280122321Y-208724404D01*
X280217559Y-208772023D01*
X280455654Y-208772023D01*
X280550892Y-208724404D01*
X280598511Y-208676785D01*
X280646130Y-208581547D01*
X280646130Y-208295833D01*
X280598511Y-208200595D01*
X280550892Y-208152976D01*
X279646130Y-209105357D02*
X279646130Y-209772023D01*
X280646130Y-209343452D01*
%TO.C,D21*%
X275883630Y-188198214D02*
X274883630Y-188198214D01*
X274883630Y-188436309D01*
X274931250Y-188579166D01*
X275026488Y-188674404D01*
X275121726Y-188722023D01*
X275312202Y-188769642D01*
X275455059Y-188769642D01*
X275645535Y-188722023D01*
X275740773Y-188674404D01*
X275836011Y-188579166D01*
X275883630Y-188436309D01*
X275883630Y-188198214D01*
X274978869Y-189150595D02*
X274931250Y-189198214D01*
X274883630Y-189293452D01*
X274883630Y-189531547D01*
X274931250Y-189626785D01*
X274978869Y-189674404D01*
X275074107Y-189722023D01*
X275169345Y-189722023D01*
X275312202Y-189674404D01*
X275883630Y-189102976D01*
X275883630Y-189722023D01*
X275883630Y-190674404D02*
X275883630Y-190102976D01*
X275883630Y-190388690D02*
X274883630Y-190388690D01*
X275026488Y-190293452D01*
X275121726Y-190198214D01*
X275169345Y-190102976D01*
%TO.C,D6*%
X266358630Y-169918154D02*
X265358630Y-169918154D01*
X265358630Y-170156250D01*
X265406250Y-170299107D01*
X265501488Y-170394345D01*
X265596726Y-170441964D01*
X265787202Y-170489583D01*
X265930059Y-170489583D01*
X266120535Y-170441964D01*
X266215773Y-170394345D01*
X266311011Y-170299107D01*
X266358630Y-170156250D01*
X266358630Y-169918154D01*
X265358630Y-171346726D02*
X265358630Y-171156250D01*
X265406250Y-171061011D01*
X265453869Y-171013392D01*
X265596726Y-170918154D01*
X265787202Y-170870535D01*
X266168154Y-170870535D01*
X266263392Y-170918154D01*
X266311011Y-170965773D01*
X266358630Y-171061011D01*
X266358630Y-171251488D01*
X266311011Y-171346726D01*
X266263392Y-171394345D01*
X266168154Y-171441964D01*
X265930059Y-171441964D01*
X265834821Y-171394345D01*
X265787202Y-171346726D01*
X265739583Y-171251488D01*
X265739583Y-171061011D01*
X265787202Y-170965773D01*
X265834821Y-170918154D01*
X265930059Y-170870535D01*
%TO.C,D65*%
X361608630Y-245348214D02*
X360608630Y-245348214D01*
X360608630Y-245586309D01*
X360656250Y-245729166D01*
X360751488Y-245824404D01*
X360846726Y-245872023D01*
X361037202Y-245919642D01*
X361180059Y-245919642D01*
X361370535Y-245872023D01*
X361465773Y-245824404D01*
X361561011Y-245729166D01*
X361608630Y-245586309D01*
X361608630Y-245348214D01*
X360608630Y-246776785D02*
X360608630Y-246586309D01*
X360656250Y-246491071D01*
X360703869Y-246443452D01*
X360846726Y-246348214D01*
X361037202Y-246300595D01*
X361418154Y-246300595D01*
X361513392Y-246348214D01*
X361561011Y-246395833D01*
X361608630Y-246491071D01*
X361608630Y-246681547D01*
X361561011Y-246776785D01*
X361513392Y-246824404D01*
X361418154Y-246872023D01*
X361180059Y-246872023D01*
X361084821Y-246824404D01*
X361037202Y-246776785D01*
X360989583Y-246681547D01*
X360989583Y-246491071D01*
X361037202Y-246395833D01*
X361084821Y-246348214D01*
X361180059Y-246300595D01*
X360608630Y-247776785D02*
X360608630Y-247300595D01*
X361084821Y-247252976D01*
X361037202Y-247300595D01*
X360989583Y-247395833D01*
X360989583Y-247633928D01*
X361037202Y-247729166D01*
X361084821Y-247776785D01*
X361180059Y-247824404D01*
X361418154Y-247824404D01*
X361513392Y-247776785D01*
X361561011Y-247729166D01*
X361608630Y-247633928D01*
X361608630Y-247395833D01*
X361561011Y-247300595D01*
X361513392Y-247252976D01*
%TO.C,D51*%
X271121130Y-226298214D02*
X270121130Y-226298214D01*
X270121130Y-226536309D01*
X270168750Y-226679166D01*
X270263988Y-226774404D01*
X270359226Y-226822023D01*
X270549702Y-226869642D01*
X270692559Y-226869642D01*
X270883035Y-226822023D01*
X270978273Y-226774404D01*
X271073511Y-226679166D01*
X271121130Y-226536309D01*
X271121130Y-226298214D01*
X270121130Y-227774404D02*
X270121130Y-227298214D01*
X270597321Y-227250595D01*
X270549702Y-227298214D01*
X270502083Y-227393452D01*
X270502083Y-227631547D01*
X270549702Y-227726785D01*
X270597321Y-227774404D01*
X270692559Y-227822023D01*
X270930654Y-227822023D01*
X271025892Y-227774404D01*
X271073511Y-227726785D01*
X271121130Y-227631547D01*
X271121130Y-227393452D01*
X271073511Y-227298214D01*
X271025892Y-227250595D01*
X271121130Y-228774404D02*
X271121130Y-228202976D01*
X271121130Y-228488690D02*
X270121130Y-228488690D01*
X270263988Y-228393452D01*
X270359226Y-228298214D01*
X270406845Y-228202976D01*
%TO.C,D36*%
X261596130Y-207248214D02*
X260596130Y-207248214D01*
X260596130Y-207486309D01*
X260643750Y-207629166D01*
X260738988Y-207724404D01*
X260834226Y-207772023D01*
X261024702Y-207819642D01*
X261167559Y-207819642D01*
X261358035Y-207772023D01*
X261453273Y-207724404D01*
X261548511Y-207629166D01*
X261596130Y-207486309D01*
X261596130Y-207248214D01*
X260596130Y-208152976D02*
X260596130Y-208772023D01*
X260977083Y-208438690D01*
X260977083Y-208581547D01*
X261024702Y-208676785D01*
X261072321Y-208724404D01*
X261167559Y-208772023D01*
X261405654Y-208772023D01*
X261500892Y-208724404D01*
X261548511Y-208676785D01*
X261596130Y-208581547D01*
X261596130Y-208295833D01*
X261548511Y-208200595D01*
X261500892Y-208152976D01*
X260596130Y-209629166D02*
X260596130Y-209438690D01*
X260643750Y-209343452D01*
X260691369Y-209295833D01*
X260834226Y-209200595D01*
X261024702Y-209152976D01*
X261405654Y-209152976D01*
X261500892Y-209200595D01*
X261548511Y-209248214D01*
X261596130Y-209343452D01*
X261596130Y-209533928D01*
X261548511Y-209629166D01*
X261500892Y-209676785D01*
X261405654Y-209724404D01*
X261167559Y-209724404D01*
X261072321Y-209676785D01*
X261024702Y-209629166D01*
X260977083Y-209533928D01*
X260977083Y-209343452D01*
X261024702Y-209248214D01*
X261072321Y-209200595D01*
X261167559Y-209152976D01*
%TO.C,D20*%
X256833630Y-188198214D02*
X255833630Y-188198214D01*
X255833630Y-188436309D01*
X255881250Y-188579166D01*
X255976488Y-188674404D01*
X256071726Y-188722023D01*
X256262202Y-188769642D01*
X256405059Y-188769642D01*
X256595535Y-188722023D01*
X256690773Y-188674404D01*
X256786011Y-188579166D01*
X256833630Y-188436309D01*
X256833630Y-188198214D01*
X255928869Y-189150595D02*
X255881250Y-189198214D01*
X255833630Y-189293452D01*
X255833630Y-189531547D01*
X255881250Y-189626785D01*
X255928869Y-189674404D01*
X256024107Y-189722023D01*
X256119345Y-189722023D01*
X256262202Y-189674404D01*
X256833630Y-189102976D01*
X256833630Y-189722023D01*
X255833630Y-190341071D02*
X255833630Y-190436309D01*
X255881250Y-190531547D01*
X255928869Y-190579166D01*
X256024107Y-190626785D01*
X256214583Y-190674404D01*
X256452678Y-190674404D01*
X256643154Y-190626785D01*
X256738392Y-190579166D01*
X256786011Y-190531547D01*
X256833630Y-190436309D01*
X256833630Y-190341071D01*
X256786011Y-190245833D01*
X256738392Y-190198214D01*
X256643154Y-190150595D01*
X256452678Y-190102976D01*
X256214583Y-190102976D01*
X256024107Y-190150595D01*
X255928869Y-190198214D01*
X255881250Y-190245833D01*
X255833630Y-190341071D01*
%TO.C,D5*%
X247308630Y-169918154D02*
X246308630Y-169918154D01*
X246308630Y-170156250D01*
X246356250Y-170299107D01*
X246451488Y-170394345D01*
X246546726Y-170441964D01*
X246737202Y-170489583D01*
X246880059Y-170489583D01*
X247070535Y-170441964D01*
X247165773Y-170394345D01*
X247261011Y-170299107D01*
X247308630Y-170156250D01*
X247308630Y-169918154D01*
X246308630Y-171394345D02*
X246308630Y-170918154D01*
X246784821Y-170870535D01*
X246737202Y-170918154D01*
X246689583Y-171013392D01*
X246689583Y-171251488D01*
X246737202Y-171346726D01*
X246784821Y-171394345D01*
X246880059Y-171441964D01*
X247118154Y-171441964D01*
X247213392Y-171394345D01*
X247261011Y-171346726D01*
X247308630Y-171251488D01*
X247308630Y-171013392D01*
X247261011Y-170918154D01*
X247213392Y-170870535D01*
%TO.C,D64*%
X309221130Y-245348214D02*
X308221130Y-245348214D01*
X308221130Y-245586309D01*
X308268750Y-245729166D01*
X308363988Y-245824404D01*
X308459226Y-245872023D01*
X308649702Y-245919642D01*
X308792559Y-245919642D01*
X308983035Y-245872023D01*
X309078273Y-245824404D01*
X309173511Y-245729166D01*
X309221130Y-245586309D01*
X309221130Y-245348214D01*
X308221130Y-246776785D02*
X308221130Y-246586309D01*
X308268750Y-246491071D01*
X308316369Y-246443452D01*
X308459226Y-246348214D01*
X308649702Y-246300595D01*
X309030654Y-246300595D01*
X309125892Y-246348214D01*
X309173511Y-246395833D01*
X309221130Y-246491071D01*
X309221130Y-246681547D01*
X309173511Y-246776785D01*
X309125892Y-246824404D01*
X309030654Y-246872023D01*
X308792559Y-246872023D01*
X308697321Y-246824404D01*
X308649702Y-246776785D01*
X308602083Y-246681547D01*
X308602083Y-246491071D01*
X308649702Y-246395833D01*
X308697321Y-246348214D01*
X308792559Y-246300595D01*
X308554464Y-247729166D02*
X309221130Y-247729166D01*
X308173511Y-247491071D02*
X308887797Y-247252976D01*
X308887797Y-247872023D01*
%TO.C,D50*%
X252071130Y-225504464D02*
X251071130Y-225504464D01*
X251071130Y-225742559D01*
X251118750Y-225885416D01*
X251213988Y-225980654D01*
X251309226Y-226028273D01*
X251499702Y-226075892D01*
X251642559Y-226075892D01*
X251833035Y-226028273D01*
X251928273Y-225980654D01*
X252023511Y-225885416D01*
X252071130Y-225742559D01*
X252071130Y-225504464D01*
X251071130Y-226980654D02*
X251071130Y-226504464D01*
X251547321Y-226456845D01*
X251499702Y-226504464D01*
X251452083Y-226599702D01*
X251452083Y-226837797D01*
X251499702Y-226933035D01*
X251547321Y-226980654D01*
X251642559Y-227028273D01*
X251880654Y-227028273D01*
X251975892Y-226980654D01*
X252023511Y-226933035D01*
X252071130Y-226837797D01*
X252071130Y-226599702D01*
X252023511Y-226504464D01*
X251975892Y-226456845D01*
X251071130Y-227647321D02*
X251071130Y-227742559D01*
X251118750Y-227837797D01*
X251166369Y-227885416D01*
X251261607Y-227933035D01*
X251452083Y-227980654D01*
X251690178Y-227980654D01*
X251880654Y-227933035D01*
X251975892Y-227885416D01*
X252023511Y-227837797D01*
X252071130Y-227742559D01*
X252071130Y-227647321D01*
X252023511Y-227552083D01*
X251975892Y-227504464D01*
X251880654Y-227456845D01*
X251690178Y-227409226D01*
X251452083Y-227409226D01*
X251261607Y-227456845D01*
X251166369Y-227504464D01*
X251118750Y-227552083D01*
X251071130Y-227647321D01*
%TO.C,D35*%
X242546130Y-207248214D02*
X241546130Y-207248214D01*
X241546130Y-207486309D01*
X241593750Y-207629166D01*
X241688988Y-207724404D01*
X241784226Y-207772023D01*
X241974702Y-207819642D01*
X242117559Y-207819642D01*
X242308035Y-207772023D01*
X242403273Y-207724404D01*
X242498511Y-207629166D01*
X242546130Y-207486309D01*
X242546130Y-207248214D01*
X241546130Y-208152976D02*
X241546130Y-208772023D01*
X241927083Y-208438690D01*
X241927083Y-208581547D01*
X241974702Y-208676785D01*
X242022321Y-208724404D01*
X242117559Y-208772023D01*
X242355654Y-208772023D01*
X242450892Y-208724404D01*
X242498511Y-208676785D01*
X242546130Y-208581547D01*
X242546130Y-208295833D01*
X242498511Y-208200595D01*
X242450892Y-208152976D01*
X241546130Y-209676785D02*
X241546130Y-209200595D01*
X242022321Y-209152976D01*
X241974702Y-209200595D01*
X241927083Y-209295833D01*
X241927083Y-209533928D01*
X241974702Y-209629166D01*
X242022321Y-209676785D01*
X242117559Y-209724404D01*
X242355654Y-209724404D01*
X242450892Y-209676785D01*
X242498511Y-209629166D01*
X242546130Y-209533928D01*
X242546130Y-209295833D01*
X242498511Y-209200595D01*
X242450892Y-209152976D01*
%TO.C,D19*%
X237783630Y-188198214D02*
X236783630Y-188198214D01*
X236783630Y-188436309D01*
X236831250Y-188579166D01*
X236926488Y-188674404D01*
X237021726Y-188722023D01*
X237212202Y-188769642D01*
X237355059Y-188769642D01*
X237545535Y-188722023D01*
X237640773Y-188674404D01*
X237736011Y-188579166D01*
X237783630Y-188436309D01*
X237783630Y-188198214D01*
X237783630Y-189722023D02*
X237783630Y-189150595D01*
X237783630Y-189436309D02*
X236783630Y-189436309D01*
X236926488Y-189341071D01*
X237021726Y-189245833D01*
X237069345Y-189150595D01*
X237783630Y-190198214D02*
X237783630Y-190388690D01*
X237736011Y-190483928D01*
X237688392Y-190531547D01*
X237545535Y-190626785D01*
X237355059Y-190674404D01*
X236974107Y-190674404D01*
X236878869Y-190626785D01*
X236831250Y-190579166D01*
X236783630Y-190483928D01*
X236783630Y-190293452D01*
X236831250Y-190198214D01*
X236878869Y-190150595D01*
X236974107Y-190102976D01*
X237212202Y-190102976D01*
X237307440Y-190150595D01*
X237355059Y-190198214D01*
X237402678Y-190293452D01*
X237402678Y-190483928D01*
X237355059Y-190579166D01*
X237307440Y-190626785D01*
X237212202Y-190674404D01*
%TO.C,D4*%
X228258630Y-169918154D02*
X227258630Y-169918154D01*
X227258630Y-170156250D01*
X227306250Y-170299107D01*
X227401488Y-170394345D01*
X227496726Y-170441964D01*
X227687202Y-170489583D01*
X227830059Y-170489583D01*
X228020535Y-170441964D01*
X228115773Y-170394345D01*
X228211011Y-170299107D01*
X228258630Y-170156250D01*
X228258630Y-169918154D01*
X227591964Y-171346726D02*
X228258630Y-171346726D01*
X227211011Y-171108630D02*
X227925297Y-170870535D01*
X227925297Y-171489583D01*
%TO.C,D63*%
X223496130Y-245348214D02*
X222496130Y-245348214D01*
X222496130Y-245586309D01*
X222543750Y-245729166D01*
X222638988Y-245824404D01*
X222734226Y-245872023D01*
X222924702Y-245919642D01*
X223067559Y-245919642D01*
X223258035Y-245872023D01*
X223353273Y-245824404D01*
X223448511Y-245729166D01*
X223496130Y-245586309D01*
X223496130Y-245348214D01*
X222496130Y-246776785D02*
X222496130Y-246586309D01*
X222543750Y-246491071D01*
X222591369Y-246443452D01*
X222734226Y-246348214D01*
X222924702Y-246300595D01*
X223305654Y-246300595D01*
X223400892Y-246348214D01*
X223448511Y-246395833D01*
X223496130Y-246491071D01*
X223496130Y-246681547D01*
X223448511Y-246776785D01*
X223400892Y-246824404D01*
X223305654Y-246872023D01*
X223067559Y-246872023D01*
X222972321Y-246824404D01*
X222924702Y-246776785D01*
X222877083Y-246681547D01*
X222877083Y-246491071D01*
X222924702Y-246395833D01*
X222972321Y-246348214D01*
X223067559Y-246300595D01*
X222496130Y-247205357D02*
X222496130Y-247824404D01*
X222877083Y-247491071D01*
X222877083Y-247633928D01*
X222924702Y-247729166D01*
X222972321Y-247776785D01*
X223067559Y-247824404D01*
X223305654Y-247824404D01*
X223400892Y-247776785D01*
X223448511Y-247729166D01*
X223496130Y-247633928D01*
X223496130Y-247348214D01*
X223448511Y-247252976D01*
X223400892Y-247205357D01*
%TO.C,D49*%
X233021130Y-226298214D02*
X232021130Y-226298214D01*
X232021130Y-226536309D01*
X232068750Y-226679166D01*
X232163988Y-226774404D01*
X232259226Y-226822023D01*
X232449702Y-226869642D01*
X232592559Y-226869642D01*
X232783035Y-226822023D01*
X232878273Y-226774404D01*
X232973511Y-226679166D01*
X233021130Y-226536309D01*
X233021130Y-226298214D01*
X232354464Y-227726785D02*
X233021130Y-227726785D01*
X231973511Y-227488690D02*
X232687797Y-227250595D01*
X232687797Y-227869642D01*
X233021130Y-228298214D02*
X233021130Y-228488690D01*
X232973511Y-228583928D01*
X232925892Y-228631547D01*
X232783035Y-228726785D01*
X232592559Y-228774404D01*
X232211607Y-228774404D01*
X232116369Y-228726785D01*
X232068750Y-228679166D01*
X232021130Y-228583928D01*
X232021130Y-228393452D01*
X232068750Y-228298214D01*
X232116369Y-228250595D01*
X232211607Y-228202976D01*
X232449702Y-228202976D01*
X232544940Y-228250595D01*
X232592559Y-228298214D01*
X232640178Y-228393452D01*
X232640178Y-228583928D01*
X232592559Y-228679166D01*
X232544940Y-228726785D01*
X232449702Y-228774404D01*
%TO.C,D34*%
X223496130Y-207248214D02*
X222496130Y-207248214D01*
X222496130Y-207486309D01*
X222543750Y-207629166D01*
X222638988Y-207724404D01*
X222734226Y-207772023D01*
X222924702Y-207819642D01*
X223067559Y-207819642D01*
X223258035Y-207772023D01*
X223353273Y-207724404D01*
X223448511Y-207629166D01*
X223496130Y-207486309D01*
X223496130Y-207248214D01*
X222496130Y-208152976D02*
X222496130Y-208772023D01*
X222877083Y-208438690D01*
X222877083Y-208581547D01*
X222924702Y-208676785D01*
X222972321Y-208724404D01*
X223067559Y-208772023D01*
X223305654Y-208772023D01*
X223400892Y-208724404D01*
X223448511Y-208676785D01*
X223496130Y-208581547D01*
X223496130Y-208295833D01*
X223448511Y-208200595D01*
X223400892Y-208152976D01*
X222829464Y-209629166D02*
X223496130Y-209629166D01*
X222448511Y-209391071D02*
X223162797Y-209152976D01*
X223162797Y-209772023D01*
%TO.C,D18*%
X218733630Y-188198214D02*
X217733630Y-188198214D01*
X217733630Y-188436309D01*
X217781250Y-188579166D01*
X217876488Y-188674404D01*
X217971726Y-188722023D01*
X218162202Y-188769642D01*
X218305059Y-188769642D01*
X218495535Y-188722023D01*
X218590773Y-188674404D01*
X218686011Y-188579166D01*
X218733630Y-188436309D01*
X218733630Y-188198214D01*
X218733630Y-189722023D02*
X218733630Y-189150595D01*
X218733630Y-189436309D02*
X217733630Y-189436309D01*
X217876488Y-189341071D01*
X217971726Y-189245833D01*
X218019345Y-189150595D01*
X218162202Y-190293452D02*
X218114583Y-190198214D01*
X218066964Y-190150595D01*
X217971726Y-190102976D01*
X217924107Y-190102976D01*
X217828869Y-190150595D01*
X217781250Y-190198214D01*
X217733630Y-190293452D01*
X217733630Y-190483928D01*
X217781250Y-190579166D01*
X217828869Y-190626785D01*
X217924107Y-190674404D01*
X217971726Y-190674404D01*
X218066964Y-190626785D01*
X218114583Y-190579166D01*
X218162202Y-190483928D01*
X218162202Y-190293452D01*
X218209821Y-190198214D01*
X218257440Y-190150595D01*
X218352678Y-190102976D01*
X218543154Y-190102976D01*
X218638392Y-190150595D01*
X218686011Y-190198214D01*
X218733630Y-190293452D01*
X218733630Y-190483928D01*
X218686011Y-190579166D01*
X218638392Y-190626785D01*
X218543154Y-190674404D01*
X218352678Y-190674404D01*
X218257440Y-190626785D01*
X218209821Y-190579166D01*
X218162202Y-190483928D01*
%TO.C,D3*%
X209107030Y-169753054D02*
X208107030Y-169753054D01*
X208107030Y-169991150D01*
X208154650Y-170134007D01*
X208249888Y-170229245D01*
X208345126Y-170276864D01*
X208535602Y-170324483D01*
X208678459Y-170324483D01*
X208868935Y-170276864D01*
X208964173Y-170229245D01*
X209059411Y-170134007D01*
X209107030Y-169991150D01*
X209107030Y-169753054D01*
X208107030Y-170657816D02*
X208107030Y-171276864D01*
X208487983Y-170943530D01*
X208487983Y-171086388D01*
X208535602Y-171181626D01*
X208583221Y-171229245D01*
X208678459Y-171276864D01*
X208916554Y-171276864D01*
X209011792Y-171229245D01*
X209059411Y-171181626D01*
X209107030Y-171086388D01*
X209107030Y-170800673D01*
X209059411Y-170705435D01*
X209011792Y-170657816D01*
%TO.C,D62*%
X199582030Y-245146664D02*
X198582030Y-245146664D01*
X198582030Y-245384759D01*
X198629650Y-245527616D01*
X198724888Y-245622854D01*
X198820126Y-245670473D01*
X199010602Y-245718092D01*
X199153459Y-245718092D01*
X199343935Y-245670473D01*
X199439173Y-245622854D01*
X199534411Y-245527616D01*
X199582030Y-245384759D01*
X199582030Y-245146664D01*
X198582030Y-246575235D02*
X198582030Y-246384759D01*
X198629650Y-246289521D01*
X198677269Y-246241902D01*
X198820126Y-246146664D01*
X199010602Y-246099045D01*
X199391554Y-246099045D01*
X199486792Y-246146664D01*
X199534411Y-246194283D01*
X199582030Y-246289521D01*
X199582030Y-246479997D01*
X199534411Y-246575235D01*
X199486792Y-246622854D01*
X199391554Y-246670473D01*
X199153459Y-246670473D01*
X199058221Y-246622854D01*
X199010602Y-246575235D01*
X198962983Y-246479997D01*
X198962983Y-246289521D01*
X199010602Y-246194283D01*
X199058221Y-246146664D01*
X199153459Y-246099045D01*
X198677269Y-247051426D02*
X198629650Y-247099045D01*
X198582030Y-247194283D01*
X198582030Y-247432378D01*
X198629650Y-247527616D01*
X198677269Y-247575235D01*
X198772507Y-247622854D01*
X198867745Y-247622854D01*
X199010602Y-247575235D01*
X199582030Y-247003807D01*
X199582030Y-247622854D01*
%TO.C,D48*%
X213971130Y-226298214D02*
X212971130Y-226298214D01*
X212971130Y-226536309D01*
X213018750Y-226679166D01*
X213113988Y-226774404D01*
X213209226Y-226822023D01*
X213399702Y-226869642D01*
X213542559Y-226869642D01*
X213733035Y-226822023D01*
X213828273Y-226774404D01*
X213923511Y-226679166D01*
X213971130Y-226536309D01*
X213971130Y-226298214D01*
X213304464Y-227726785D02*
X213971130Y-227726785D01*
X212923511Y-227488690D02*
X213637797Y-227250595D01*
X213637797Y-227869642D01*
X213399702Y-228393452D02*
X213352083Y-228298214D01*
X213304464Y-228250595D01*
X213209226Y-228202976D01*
X213161607Y-228202976D01*
X213066369Y-228250595D01*
X213018750Y-228298214D01*
X212971130Y-228393452D01*
X212971130Y-228583928D01*
X213018750Y-228679166D01*
X213066369Y-228726785D01*
X213161607Y-228774404D01*
X213209226Y-228774404D01*
X213304464Y-228726785D01*
X213352083Y-228679166D01*
X213399702Y-228583928D01*
X213399702Y-228393452D01*
X213447321Y-228298214D01*
X213494940Y-228250595D01*
X213590178Y-228202976D01*
X213780654Y-228202976D01*
X213875892Y-228250595D01*
X213923511Y-228298214D01*
X213971130Y-228393452D01*
X213971130Y-228583928D01*
X213923511Y-228679166D01*
X213875892Y-228726785D01*
X213780654Y-228774404D01*
X213590178Y-228774404D01*
X213494940Y-228726785D01*
X213447321Y-228679166D01*
X213399702Y-228583928D01*
%TO.C,D33*%
X204369930Y-207148264D02*
X203369930Y-207148264D01*
X203369930Y-207386359D01*
X203417550Y-207529216D01*
X203512788Y-207624454D01*
X203608026Y-207672073D01*
X203798502Y-207719692D01*
X203941359Y-207719692D01*
X204131835Y-207672073D01*
X204227073Y-207624454D01*
X204322311Y-207529216D01*
X204369930Y-207386359D01*
X204369930Y-207148264D01*
X203369930Y-208053026D02*
X203369930Y-208672073D01*
X203750883Y-208338740D01*
X203750883Y-208481597D01*
X203798502Y-208576835D01*
X203846121Y-208624454D01*
X203941359Y-208672073D01*
X204179454Y-208672073D01*
X204274692Y-208624454D01*
X204322311Y-208576835D01*
X204369930Y-208481597D01*
X204369930Y-208195883D01*
X204322311Y-208100645D01*
X204274692Y-208053026D01*
X203369930Y-209005407D02*
X203369930Y-209624454D01*
X203750883Y-209291121D01*
X203750883Y-209433978D01*
X203798502Y-209529216D01*
X203846121Y-209576835D01*
X203941359Y-209624454D01*
X204179454Y-209624454D01*
X204274692Y-209576835D01*
X204322311Y-209529216D01*
X204369930Y-209433978D01*
X204369930Y-209148264D01*
X204322311Y-209053026D01*
X204274692Y-209005407D01*
%TO.C,D17*%
X199582030Y-187996664D02*
X198582030Y-187996664D01*
X198582030Y-188234759D01*
X198629650Y-188377616D01*
X198724888Y-188472854D01*
X198820126Y-188520473D01*
X199010602Y-188568092D01*
X199153459Y-188568092D01*
X199343935Y-188520473D01*
X199439173Y-188472854D01*
X199534411Y-188377616D01*
X199582030Y-188234759D01*
X199582030Y-187996664D01*
X199582030Y-189520473D02*
X199582030Y-188949045D01*
X199582030Y-189234759D02*
X198582030Y-189234759D01*
X198724888Y-189139521D01*
X198820126Y-189044283D01*
X198867745Y-188949045D01*
X198582030Y-189853807D02*
X198582030Y-190520473D01*
X199582030Y-190091902D01*
%TO.C,D2*%
X190069730Y-169905454D02*
X189069730Y-169905454D01*
X189069730Y-170143550D01*
X189117350Y-170286407D01*
X189212588Y-170381645D01*
X189307826Y-170429264D01*
X189498302Y-170476883D01*
X189641159Y-170476883D01*
X189831635Y-170429264D01*
X189926873Y-170381645D01*
X190022111Y-170286407D01*
X190069730Y-170143550D01*
X190069730Y-169905454D01*
X189164969Y-170857835D02*
X189117350Y-170905454D01*
X189069730Y-171000692D01*
X189069730Y-171238788D01*
X189117350Y-171334026D01*
X189164969Y-171381645D01*
X189260207Y-171429264D01*
X189355445Y-171429264D01*
X189498302Y-171381645D01*
X190069730Y-170810216D01*
X190069730Y-171429264D01*
%TO.C,D61*%
X175896530Y-245172064D02*
X174896530Y-245172064D01*
X174896530Y-245410159D01*
X174944150Y-245553016D01*
X175039388Y-245648254D01*
X175134626Y-245695873D01*
X175325102Y-245743492D01*
X175467959Y-245743492D01*
X175658435Y-245695873D01*
X175753673Y-245648254D01*
X175848911Y-245553016D01*
X175896530Y-245410159D01*
X175896530Y-245172064D01*
X174896530Y-246600635D02*
X174896530Y-246410159D01*
X174944150Y-246314921D01*
X174991769Y-246267302D01*
X175134626Y-246172064D01*
X175325102Y-246124445D01*
X175706054Y-246124445D01*
X175801292Y-246172064D01*
X175848911Y-246219683D01*
X175896530Y-246314921D01*
X175896530Y-246505397D01*
X175848911Y-246600635D01*
X175801292Y-246648254D01*
X175706054Y-246695873D01*
X175467959Y-246695873D01*
X175372721Y-246648254D01*
X175325102Y-246600635D01*
X175277483Y-246505397D01*
X175277483Y-246314921D01*
X175325102Y-246219683D01*
X175372721Y-246172064D01*
X175467959Y-246124445D01*
X175896530Y-247648254D02*
X175896530Y-247076826D01*
X175896530Y-247362540D02*
X174896530Y-247362540D01*
X175039388Y-247267302D01*
X175134626Y-247172064D01*
X175182245Y-247076826D01*
%TO.C,D47*%
X194921130Y-226298214D02*
X193921130Y-226298214D01*
X193921130Y-226536309D01*
X193968750Y-226679166D01*
X194063988Y-226774404D01*
X194159226Y-226822023D01*
X194349702Y-226869642D01*
X194492559Y-226869642D01*
X194683035Y-226822023D01*
X194778273Y-226774404D01*
X194873511Y-226679166D01*
X194921130Y-226536309D01*
X194921130Y-226298214D01*
X194254464Y-227726785D02*
X194921130Y-227726785D01*
X193873511Y-227488690D02*
X194587797Y-227250595D01*
X194587797Y-227869642D01*
X193921130Y-228155357D02*
X193921130Y-228822023D01*
X194921130Y-228393452D01*
%TO.C,D32*%
X185319930Y-207021264D02*
X184319930Y-207021264D01*
X184319930Y-207259359D01*
X184367550Y-207402216D01*
X184462788Y-207497454D01*
X184558026Y-207545073D01*
X184748502Y-207592692D01*
X184891359Y-207592692D01*
X185081835Y-207545073D01*
X185177073Y-207497454D01*
X185272311Y-207402216D01*
X185319930Y-207259359D01*
X185319930Y-207021264D01*
X184319930Y-207926026D02*
X184319930Y-208545073D01*
X184700883Y-208211740D01*
X184700883Y-208354597D01*
X184748502Y-208449835D01*
X184796121Y-208497454D01*
X184891359Y-208545073D01*
X185129454Y-208545073D01*
X185224692Y-208497454D01*
X185272311Y-208449835D01*
X185319930Y-208354597D01*
X185319930Y-208068883D01*
X185272311Y-207973645D01*
X185224692Y-207926026D01*
X184415169Y-208926026D02*
X184367550Y-208973645D01*
X184319930Y-209068883D01*
X184319930Y-209306978D01*
X184367550Y-209402216D01*
X184415169Y-209449835D01*
X184510407Y-209497454D01*
X184605645Y-209497454D01*
X184748502Y-209449835D01*
X185319930Y-208878407D01*
X185319930Y-209497454D01*
%TO.C,D16*%
X180595530Y-187945864D02*
X179595530Y-187945864D01*
X179595530Y-188183959D01*
X179643150Y-188326816D01*
X179738388Y-188422054D01*
X179833626Y-188469673D01*
X180024102Y-188517292D01*
X180166959Y-188517292D01*
X180357435Y-188469673D01*
X180452673Y-188422054D01*
X180547911Y-188326816D01*
X180595530Y-188183959D01*
X180595530Y-187945864D01*
X180595530Y-189469673D02*
X180595530Y-188898245D01*
X180595530Y-189183959D02*
X179595530Y-189183959D01*
X179738388Y-189088721D01*
X179833626Y-188993483D01*
X179881245Y-188898245D01*
X179595530Y-190326816D02*
X179595530Y-190136340D01*
X179643150Y-190041102D01*
X179690769Y-189993483D01*
X179833626Y-189898245D01*
X180024102Y-189850626D01*
X180405054Y-189850626D01*
X180500292Y-189898245D01*
X180547911Y-189945864D01*
X180595530Y-190041102D01*
X180595530Y-190231578D01*
X180547911Y-190326816D01*
X180500292Y-190374435D01*
X180405054Y-190422054D01*
X180166959Y-190422054D01*
X180071721Y-190374435D01*
X180024102Y-190326816D01*
X179976483Y-190231578D01*
X179976483Y-190041102D01*
X180024102Y-189945864D01*
X180071721Y-189898245D01*
X180166959Y-189850626D01*
%TO.C,D1*%
X171108630Y-169854654D02*
X170108630Y-169854654D01*
X170108630Y-170092750D01*
X170156250Y-170235607D01*
X170251488Y-170330845D01*
X170346726Y-170378464D01*
X170537202Y-170426083D01*
X170680059Y-170426083D01*
X170870535Y-170378464D01*
X170965773Y-170330845D01*
X171061011Y-170235607D01*
X171108630Y-170092750D01*
X171108630Y-169854654D01*
X171108630Y-171378464D02*
X171108630Y-170807035D01*
X171108630Y-171092750D02*
X170108630Y-171092750D01*
X170251488Y-170997511D01*
X170346726Y-170902273D01*
X170394345Y-170807035D01*
%TD*%
M02*
