%TF.GenerationSoftware,KiCad,Pcbnew,(5.1.6)-1*%
%TF.CreationDate,2020-08-08T01:29:47-04:00*%
%TF.ProjectId,panama-keyboard,70616e61-6d61-42d6-9b65-79626f617264,w1*%
%TF.SameCoordinates,Original*%
%TF.FileFunction,Legend,Top*%
%TF.FilePolarity,Positive*%
%FSLAX46Y46*%
G04 Gerber Fmt 4.6, Leading zero omitted, Abs format (unit mm)*
G04 Created by KiCad (PCBNEW (5.1.6)-1) date 2020-08-08 01:29:47*
%MOMM*%
%LPD*%
G01*
G04 APERTURE LIST*
%ADD10C,0.150000*%
%ADD11C,0.010000*%
%ADD12C,0.120000*%
G04 APERTURE END LIST*
D10*
X168307047Y-135850380D02*
X168307047Y-136659904D01*
X168354666Y-136755142D01*
X168402285Y-136802761D01*
X168497523Y-136850380D01*
X168688000Y-136850380D01*
X168783238Y-136802761D01*
X168830857Y-136755142D01*
X168878476Y-136659904D01*
X168878476Y-135850380D01*
X169307047Y-136802761D02*
X169449904Y-136850380D01*
X169688000Y-136850380D01*
X169783238Y-136802761D01*
X169830857Y-136755142D01*
X169878476Y-136659904D01*
X169878476Y-136564666D01*
X169830857Y-136469428D01*
X169783238Y-136421809D01*
X169688000Y-136374190D01*
X169497523Y-136326571D01*
X169402285Y-136278952D01*
X169354666Y-136231333D01*
X169307047Y-136136095D01*
X169307047Y-136040857D01*
X169354666Y-135945619D01*
X169402285Y-135898000D01*
X169497523Y-135850380D01*
X169735619Y-135850380D01*
X169878476Y-135898000D01*
X170640380Y-136326571D02*
X170783238Y-136374190D01*
X170830857Y-136421809D01*
X170878476Y-136517047D01*
X170878476Y-136659904D01*
X170830857Y-136755142D01*
X170783238Y-136802761D01*
X170688000Y-136850380D01*
X170307047Y-136850380D01*
X170307047Y-135850380D01*
X170640380Y-135850380D01*
X170735619Y-135898000D01*
X170783238Y-135945619D01*
X170830857Y-136040857D01*
X170830857Y-136136095D01*
X170783238Y-136231333D01*
X170735619Y-136278952D01*
X170640380Y-136326571D01*
X170307047Y-136326571D01*
X171307047Y-136469428D02*
X172068952Y-136469428D01*
X173116571Y-136755142D02*
X173068952Y-136802761D01*
X172926095Y-136850380D01*
X172830857Y-136850380D01*
X172688000Y-136802761D01*
X172592761Y-136707523D01*
X172545142Y-136612285D01*
X172497523Y-136421809D01*
X172497523Y-136278952D01*
X172545142Y-136088476D01*
X172592761Y-135993238D01*
X172688000Y-135898000D01*
X172830857Y-135850380D01*
X172926095Y-135850380D01*
X173068952Y-135898000D01*
X173116571Y-135945619D01*
X190000000Y-148399404D02*
X189952380Y-148494642D01*
X189952380Y-148637500D01*
X190000000Y-148780357D01*
X190095238Y-148875595D01*
X190190476Y-148923214D01*
X190380952Y-148970833D01*
X190523809Y-148970833D01*
X190714285Y-148923214D01*
X190809523Y-148875595D01*
X190904761Y-148780357D01*
X190952380Y-148637500D01*
X190952380Y-148542261D01*
X190904761Y-148399404D01*
X190857142Y-148351785D01*
X190523809Y-148351785D01*
X190523809Y-148542261D01*
X190952380Y-147923214D02*
X189952380Y-147923214D01*
X190952380Y-147351785D01*
X189952380Y-147351785D01*
X190952380Y-146875595D02*
X189952380Y-146875595D01*
X189952380Y-146637500D01*
X190000000Y-146494642D01*
X190095238Y-146399404D01*
X190190476Y-146351785D01*
X190380952Y-146304166D01*
X190523809Y-146304166D01*
X190714285Y-146351785D01*
X190809523Y-146399404D01*
X190904761Y-146494642D01*
X190952380Y-146637500D01*
X190952380Y-146875595D01*
X188571130Y-148185119D02*
X188094940Y-148518452D01*
X188571130Y-148756547D02*
X187571130Y-148756547D01*
X187571130Y-148375595D01*
X187618750Y-148280357D01*
X187666369Y-148232738D01*
X187761607Y-148185119D01*
X187904464Y-148185119D01*
X187999702Y-148232738D01*
X188047321Y-148280357D01*
X188094940Y-148375595D01*
X188094940Y-148756547D01*
X188523511Y-147804166D02*
X188571130Y-147661309D01*
X188571130Y-147423214D01*
X188523511Y-147327976D01*
X188475892Y-147280357D01*
X188380654Y-147232738D01*
X188285416Y-147232738D01*
X188190178Y-147280357D01*
X188142559Y-147327976D01*
X188094940Y-147423214D01*
X188047321Y-147613690D01*
X187999702Y-147708928D01*
X187952083Y-147756547D01*
X187856845Y-147804166D01*
X187761607Y-147804166D01*
X187666369Y-147756547D01*
X187618750Y-147708928D01*
X187571130Y-147613690D01*
X187571130Y-147375595D01*
X187618750Y-147232738D01*
X187571130Y-146947023D02*
X187571130Y-146375595D01*
X188571130Y-146661309D02*
X187571130Y-146661309D01*
X185999380Y-149145428D02*
X184999380Y-149145428D01*
X185713666Y-148812095D01*
X184999380Y-148478761D01*
X185999380Y-148478761D01*
X184999380Y-147812095D02*
X184999380Y-147621619D01*
X185047000Y-147526380D01*
X185142238Y-147431142D01*
X185332714Y-147383523D01*
X185666047Y-147383523D01*
X185856523Y-147431142D01*
X185951761Y-147526380D01*
X185999380Y-147621619D01*
X185999380Y-147812095D01*
X185951761Y-147907333D01*
X185856523Y-148002571D01*
X185666047Y-148050190D01*
X185332714Y-148050190D01*
X185142238Y-148002571D01*
X185047000Y-147907333D01*
X184999380Y-147812095D01*
X185951761Y-147002571D02*
X185999380Y-146859714D01*
X185999380Y-146621619D01*
X185951761Y-146526380D01*
X185904142Y-146478761D01*
X185808904Y-146431142D01*
X185713666Y-146431142D01*
X185618428Y-146478761D01*
X185570809Y-146526380D01*
X185523190Y-146621619D01*
X185475571Y-146812095D01*
X185427952Y-146907333D01*
X185380333Y-146954952D01*
X185285095Y-147002571D01*
X185189857Y-147002571D01*
X185094619Y-146954952D01*
X185047000Y-146907333D01*
X184999380Y-146812095D01*
X184999380Y-146574000D01*
X185047000Y-146431142D01*
X185999380Y-146002571D02*
X184999380Y-146002571D01*
X183411761Y-148859714D02*
X183459380Y-148716857D01*
X183459380Y-148478761D01*
X183411761Y-148383523D01*
X183364142Y-148335904D01*
X183268904Y-148288285D01*
X183173666Y-148288285D01*
X183078428Y-148335904D01*
X183030809Y-148383523D01*
X182983190Y-148478761D01*
X182935571Y-148669238D01*
X182887952Y-148764476D01*
X182840333Y-148812095D01*
X182745095Y-148859714D01*
X182649857Y-148859714D01*
X182554619Y-148812095D01*
X182507000Y-148764476D01*
X182459380Y-148669238D01*
X182459380Y-148431142D01*
X182507000Y-148288285D01*
X183364142Y-147288285D02*
X183411761Y-147335904D01*
X183459380Y-147478761D01*
X183459380Y-147574000D01*
X183411761Y-147716857D01*
X183316523Y-147812095D01*
X183221285Y-147859714D01*
X183030809Y-147907333D01*
X182887952Y-147907333D01*
X182697476Y-147859714D01*
X182602238Y-147812095D01*
X182507000Y-147716857D01*
X182459380Y-147574000D01*
X182459380Y-147478761D01*
X182507000Y-147335904D01*
X182554619Y-147288285D01*
X183459380Y-146859714D02*
X182459380Y-146859714D01*
X183459380Y-146288285D02*
X182887952Y-146716857D01*
X182459380Y-146288285D02*
X183030809Y-146859714D01*
X180538428Y-148923214D02*
X180538428Y-148161309D01*
X180919380Y-148542261D02*
X180157476Y-148542261D01*
X179919380Y-147208928D02*
X179919380Y-147685119D01*
X180395571Y-147732738D01*
X180347952Y-147685119D01*
X180300333Y-147589880D01*
X180300333Y-147351785D01*
X180347952Y-147256547D01*
X180395571Y-147208928D01*
X180490809Y-147161309D01*
X180728904Y-147161309D01*
X180824142Y-147208928D01*
X180871761Y-147256547D01*
X180919380Y-147351785D01*
X180919380Y-147589880D01*
X180871761Y-147685119D01*
X180824142Y-147732738D01*
X179919380Y-146875595D02*
X180919380Y-146542261D01*
X179919380Y-146208928D01*
X178379380Y-149208928D02*
X177379380Y-149208928D01*
X178093666Y-148875595D01*
X177379380Y-148542261D01*
X178379380Y-148542261D01*
X178379380Y-148066071D02*
X177379380Y-148066071D01*
X178331761Y-147637500D02*
X178379380Y-147494642D01*
X178379380Y-147256547D01*
X178331761Y-147161309D01*
X178284142Y-147113690D01*
X178188904Y-147066071D01*
X178093666Y-147066071D01*
X177998428Y-147113690D01*
X177950809Y-147161309D01*
X177903190Y-147256547D01*
X177855571Y-147447023D01*
X177807952Y-147542261D01*
X177760333Y-147589880D01*
X177665095Y-147637500D01*
X177569857Y-147637500D01*
X177474619Y-147589880D01*
X177427000Y-147542261D01*
X177379380Y-147447023D01*
X177379380Y-147208928D01*
X177427000Y-147066071D01*
X177379380Y-146447023D02*
X177379380Y-146256547D01*
X177427000Y-146161309D01*
X177522238Y-146066071D01*
X177712714Y-146018452D01*
X178046047Y-146018452D01*
X178236523Y-146066071D01*
X178331761Y-146161309D01*
X178379380Y-146256547D01*
X178379380Y-146447023D01*
X178331761Y-146542261D01*
X178236523Y-146637500D01*
X178046047Y-146685119D01*
X177712714Y-146685119D01*
X177522238Y-146637500D01*
X177427000Y-146542261D01*
X177379380Y-146447023D01*
D11*
%TO.C,G\u002A\u002A\u002A*%
G36*
X217352273Y-143241739D02*
G01*
X217428102Y-143343781D01*
X217485778Y-143488322D01*
X217520296Y-143654473D01*
X217526650Y-143821346D01*
X217499835Y-143968053D01*
X217463933Y-144040330D01*
X217375429Y-144105591D01*
X217249050Y-144135315D01*
X217120939Y-144126778D01*
X217027236Y-144077251D01*
X217023993Y-144073519D01*
X216995844Y-143996203D01*
X216978853Y-143864507D01*
X216974031Y-143708104D01*
X216982388Y-143556670D01*
X217002650Y-143447039D01*
X217076548Y-143303710D01*
X217184954Y-143219128D01*
X217263297Y-143203083D01*
X217352273Y-143241739D01*
G37*
X217352273Y-143241739D02*
X217428102Y-143343781D01*
X217485778Y-143488322D01*
X217520296Y-143654473D01*
X217526650Y-143821346D01*
X217499835Y-143968053D01*
X217463933Y-144040330D01*
X217375429Y-144105591D01*
X217249050Y-144135315D01*
X217120939Y-144126778D01*
X217027236Y-144077251D01*
X217023993Y-144073519D01*
X216995844Y-143996203D01*
X216978853Y-143864507D01*
X216974031Y-143708104D01*
X216982388Y-143556670D01*
X217002650Y-143447039D01*
X217076548Y-143303710D01*
X217184954Y-143219128D01*
X217263297Y-143203083D01*
X217352273Y-143241739D01*
G36*
X218282414Y-143268984D02*
G01*
X218329343Y-143310434D01*
X218357526Y-143367408D01*
X218371612Y-143460401D01*
X218376249Y-143609908D01*
X218376500Y-143683850D01*
X218370075Y-143878931D01*
X218352002Y-144017418D01*
X218325700Y-144083617D01*
X218235168Y-144124835D01*
X218109598Y-144131028D01*
X217990337Y-144103689D01*
X217936687Y-144069556D01*
X217863506Y-143943024D01*
X217833442Y-143772085D01*
X217845731Y-143584736D01*
X217899607Y-143408979D01*
X217957352Y-143313211D01*
X218060843Y-143222306D01*
X218171757Y-143213205D01*
X218282414Y-143268984D01*
G37*
X218282414Y-143268984D02*
X218329343Y-143310434D01*
X218357526Y-143367408D01*
X218371612Y-143460401D01*
X218376249Y-143609908D01*
X218376500Y-143683850D01*
X218370075Y-143878931D01*
X218352002Y-144017418D01*
X218325700Y-144083617D01*
X218235168Y-144124835D01*
X218109598Y-144131028D01*
X217990337Y-144103689D01*
X217936687Y-144069556D01*
X217863506Y-143943024D01*
X217833442Y-143772085D01*
X217845731Y-143584736D01*
X217899607Y-143408979D01*
X217957352Y-143313211D01*
X218060843Y-143222306D01*
X218171757Y-143213205D01*
X218282414Y-143268984D01*
G36*
X219138558Y-143246909D02*
G01*
X219175837Y-143341374D01*
X219181209Y-143359334D01*
X219204026Y-143486958D01*
X219216099Y-143659013D01*
X219215407Y-143816917D01*
X219202000Y-144113250D01*
X219006252Y-144125935D01*
X218875479Y-144126318D01*
X218806278Y-144102100D01*
X218784002Y-144069556D01*
X218764568Y-143962263D01*
X218759965Y-143804228D01*
X218768857Y-143627819D01*
X218789906Y-143465401D01*
X218812806Y-143372417D01*
X218861814Y-143268561D01*
X218932733Y-143222319D01*
X218998468Y-143211167D01*
X219088358Y-143210741D01*
X219138558Y-143246909D01*
G37*
X219138558Y-143246909D02*
X219175837Y-143341374D01*
X219181209Y-143359334D01*
X219204026Y-143486958D01*
X219216099Y-143659013D01*
X219215407Y-143816917D01*
X219202000Y-144113250D01*
X219006252Y-144125935D01*
X218875479Y-144126318D01*
X218806278Y-144102100D01*
X218784002Y-144069556D01*
X218764568Y-143962263D01*
X218759965Y-143804228D01*
X218768857Y-143627819D01*
X218789906Y-143465401D01*
X218812806Y-143372417D01*
X218861814Y-143268561D01*
X218932733Y-143222319D01*
X218998468Y-143211167D01*
X219088358Y-143210741D01*
X219138558Y-143246909D01*
G36*
X218272144Y-138081554D02*
G01*
X218656880Y-138082539D01*
X219026202Y-138084458D01*
X219368991Y-138087310D01*
X219674126Y-138091092D01*
X219930490Y-138095803D01*
X220126961Y-138101441D01*
X220252421Y-138108004D01*
X220255282Y-138108241D01*
X220580504Y-138135733D01*
X220568585Y-140519152D01*
X220565542Y-141051618D01*
X220562048Y-141505026D01*
X220557952Y-141884983D01*
X220553099Y-142197097D01*
X220547338Y-142446975D01*
X220540515Y-142640225D01*
X220532477Y-142782454D01*
X220523072Y-142879271D01*
X220512146Y-142936283D01*
X220502084Y-142957126D01*
X220470240Y-142971228D01*
X220401091Y-142983004D01*
X220288176Y-142992665D01*
X220125035Y-143000425D01*
X219905206Y-143006499D01*
X219622228Y-143011099D01*
X219269641Y-143014440D01*
X218840984Y-143016734D01*
X218681751Y-143017298D01*
X218275630Y-143017887D01*
X217872700Y-143017164D01*
X217486053Y-143015244D01*
X217128782Y-143012244D01*
X216813978Y-143008277D01*
X216554732Y-143003461D01*
X216364138Y-142997910D01*
X216332298Y-142996583D01*
X216077155Y-142982584D01*
X215896930Y-142966386D01*
X215781880Y-142946645D01*
X215722262Y-142922018D01*
X215712112Y-142911098D01*
X215691753Y-142835033D01*
X215673994Y-142681963D01*
X215659019Y-142459516D01*
X215647009Y-142175320D01*
X215638147Y-141837002D01*
X215632615Y-141452190D01*
X215630595Y-141028511D01*
X215632269Y-140573594D01*
X215637819Y-140095065D01*
X215640733Y-139922250D01*
X215647838Y-139565660D01*
X215655645Y-139231342D01*
X215663821Y-138929864D01*
X215672033Y-138671790D01*
X215675252Y-138588750D01*
X216217500Y-138588750D01*
X216217500Y-142525750D01*
X220069833Y-142525750D01*
X220069833Y-138588750D01*
X216217500Y-138588750D01*
X215675252Y-138588750D01*
X215679947Y-138467686D01*
X215687230Y-138328119D01*
X215692995Y-138266281D01*
X215711696Y-138192825D01*
X215747791Y-138150331D01*
X215823014Y-138126508D01*
X215959098Y-138109064D01*
X215973691Y-138107531D01*
X216081437Y-138100975D01*
X216262726Y-138095368D01*
X216506436Y-138090709D01*
X216801450Y-138086994D01*
X217136647Y-138084224D01*
X217500908Y-138082395D01*
X217883114Y-138081505D01*
X218272144Y-138081554D01*
G37*
X218272144Y-138081554D02*
X218656880Y-138082539D01*
X219026202Y-138084458D01*
X219368991Y-138087310D01*
X219674126Y-138091092D01*
X219930490Y-138095803D01*
X220126961Y-138101441D01*
X220252421Y-138108004D01*
X220255282Y-138108241D01*
X220580504Y-138135733D01*
X220568585Y-140519152D01*
X220565542Y-141051618D01*
X220562048Y-141505026D01*
X220557952Y-141884983D01*
X220553099Y-142197097D01*
X220547338Y-142446975D01*
X220540515Y-142640225D01*
X220532477Y-142782454D01*
X220523072Y-142879271D01*
X220512146Y-142936283D01*
X220502084Y-142957126D01*
X220470240Y-142971228D01*
X220401091Y-142983004D01*
X220288176Y-142992665D01*
X220125035Y-143000425D01*
X219905206Y-143006499D01*
X219622228Y-143011099D01*
X219269641Y-143014440D01*
X218840984Y-143016734D01*
X218681751Y-143017298D01*
X218275630Y-143017887D01*
X217872700Y-143017164D01*
X217486053Y-143015244D01*
X217128782Y-143012244D01*
X216813978Y-143008277D01*
X216554732Y-143003461D01*
X216364138Y-142997910D01*
X216332298Y-142996583D01*
X216077155Y-142982584D01*
X215896930Y-142966386D01*
X215781880Y-142946645D01*
X215722262Y-142922018D01*
X215712112Y-142911098D01*
X215691753Y-142835033D01*
X215673994Y-142681963D01*
X215659019Y-142459516D01*
X215647009Y-142175320D01*
X215638147Y-141837002D01*
X215632615Y-141452190D01*
X215630595Y-141028511D01*
X215632269Y-140573594D01*
X215637819Y-140095065D01*
X215640733Y-139922250D01*
X215647838Y-139565660D01*
X215655645Y-139231342D01*
X215663821Y-138929864D01*
X215672033Y-138671790D01*
X215675252Y-138588750D01*
X216217500Y-138588750D01*
X216217500Y-142525750D01*
X220069833Y-142525750D01*
X220069833Y-138588750D01*
X216217500Y-138588750D01*
X215675252Y-138588750D01*
X215679947Y-138467686D01*
X215687230Y-138328119D01*
X215692995Y-138266281D01*
X215711696Y-138192825D01*
X215747791Y-138150331D01*
X215823014Y-138126508D01*
X215959098Y-138109064D01*
X215973691Y-138107531D01*
X216081437Y-138100975D01*
X216262726Y-138095368D01*
X216506436Y-138090709D01*
X216801450Y-138086994D01*
X217136647Y-138084224D01*
X217500908Y-138082395D01*
X217883114Y-138081505D01*
X218272144Y-138081554D01*
G36*
X215073847Y-141148314D02*
G01*
X215249604Y-141202190D01*
X215345372Y-141259935D01*
X215439897Y-141369783D01*
X215453769Y-141478076D01*
X215388284Y-141572184D01*
X215308693Y-141617743D01*
X215193772Y-141647319D01*
X215032530Y-141667177D01*
X214856430Y-141675884D01*
X214696938Y-141672008D01*
X214585519Y-141654118D01*
X214577083Y-141651047D01*
X214539417Y-141595905D01*
X214525578Y-141492632D01*
X214534614Y-141374059D01*
X214565572Y-141273013D01*
X214589027Y-141239270D01*
X214715559Y-141166089D01*
X214886498Y-141136025D01*
X215073847Y-141148314D01*
G37*
X215073847Y-141148314D02*
X215249604Y-141202190D01*
X215345372Y-141259935D01*
X215439897Y-141369783D01*
X215453769Y-141478076D01*
X215388284Y-141572184D01*
X215308693Y-141617743D01*
X215193772Y-141647319D01*
X215032530Y-141667177D01*
X214856430Y-141675884D01*
X214696938Y-141672008D01*
X214585519Y-141654118D01*
X214577083Y-141651047D01*
X214539417Y-141595905D01*
X214525578Y-141492632D01*
X214534614Y-141374059D01*
X214565572Y-141273013D01*
X214589027Y-141239270D01*
X214715559Y-141166089D01*
X214886498Y-141136025D01*
X215073847Y-141148314D01*
G36*
X221423562Y-141160397D02*
G01*
X221596750Y-141228334D01*
X221727579Y-141336235D01*
X221745372Y-141360789D01*
X221792143Y-141442785D01*
X221786646Y-141497355D01*
X221729418Y-141562313D01*
X221666742Y-141609578D01*
X221579277Y-141640063D01*
X221445736Y-141658936D01*
X221288836Y-141669277D01*
X221087583Y-141674036D01*
X220958326Y-141663512D01*
X220889596Y-141636652D01*
X220884750Y-141632156D01*
X220838625Y-141531909D01*
X220837695Y-141401620D01*
X220878960Y-141280857D01*
X220914782Y-141236138D01*
X221056084Y-141160323D01*
X221234508Y-141136402D01*
X221423562Y-141160397D01*
G37*
X221423562Y-141160397D02*
X221596750Y-141228334D01*
X221727579Y-141336235D01*
X221745372Y-141360789D01*
X221792143Y-141442785D01*
X221786646Y-141497355D01*
X221729418Y-141562313D01*
X221666742Y-141609578D01*
X221579277Y-141640063D01*
X221445736Y-141658936D01*
X221288836Y-141669277D01*
X221087583Y-141674036D01*
X220958326Y-141663512D01*
X220889596Y-141636652D01*
X220884750Y-141632156D01*
X220838625Y-141531909D01*
X220837695Y-141401620D01*
X220878960Y-141280857D01*
X220914782Y-141236138D01*
X221056084Y-141160323D01*
X221234508Y-141136402D01*
X221423562Y-141160397D01*
G36*
X215227469Y-140289759D02*
G01*
X215300140Y-140311296D01*
X215355852Y-140352053D01*
X215366545Y-140362462D01*
X215443614Y-140485238D01*
X215444261Y-140609413D01*
X215369571Y-140715678D01*
X215345767Y-140733031D01*
X215202159Y-140790591D01*
X215015974Y-140817851D01*
X214824469Y-140812705D01*
X214664900Y-140773052D01*
X214661750Y-140771649D01*
X214565886Y-140714034D01*
X214528843Y-140637935D01*
X214524815Y-140569877D01*
X214533658Y-140448597D01*
X214568994Y-140369939D01*
X214646065Y-140323618D01*
X214780113Y-140299349D01*
X214941424Y-140288774D01*
X215115383Y-140283549D01*
X215227469Y-140289759D01*
G37*
X215227469Y-140289759D02*
X215300140Y-140311296D01*
X215355852Y-140352053D01*
X215366545Y-140362462D01*
X215443614Y-140485238D01*
X215444261Y-140609413D01*
X215369571Y-140715678D01*
X215345767Y-140733031D01*
X215202159Y-140790591D01*
X215015974Y-140817851D01*
X214824469Y-140812705D01*
X214664900Y-140773052D01*
X214661750Y-140771649D01*
X214565886Y-140714034D01*
X214528843Y-140637935D01*
X214524815Y-140569877D01*
X214533658Y-140448597D01*
X214568994Y-140369939D01*
X214646065Y-140323618D01*
X214780113Y-140299349D01*
X214941424Y-140288774D01*
X215115383Y-140283549D01*
X215227469Y-140289759D01*
G36*
X221339434Y-140288480D02*
G01*
X221533505Y-140302656D01*
X221657915Y-140329852D01*
X221727569Y-140378933D01*
X221757371Y-140458763D01*
X221762518Y-140540105D01*
X221726692Y-140672050D01*
X221617315Y-140762419D01*
X221434249Y-140811309D01*
X221348830Y-140818850D01*
X221194826Y-140818369D01*
X221060434Y-140803364D01*
X221002362Y-140787578D01*
X220887921Y-140715906D01*
X220838625Y-140611083D01*
X220832481Y-140532061D01*
X220852545Y-140415697D01*
X220920839Y-140338955D01*
X221047085Y-140297167D01*
X221241000Y-140285661D01*
X221339434Y-140288480D01*
G37*
X221339434Y-140288480D02*
X221533505Y-140302656D01*
X221657915Y-140329852D01*
X221727569Y-140378933D01*
X221757371Y-140458763D01*
X221762518Y-140540105D01*
X221726692Y-140672050D01*
X221617315Y-140762419D01*
X221434249Y-140811309D01*
X221348830Y-140818850D01*
X221194826Y-140818369D01*
X221060434Y-140803364D01*
X221002362Y-140787578D01*
X220887921Y-140715906D01*
X220838625Y-140611083D01*
X220832481Y-140532061D01*
X220852545Y-140415697D01*
X220920839Y-140338955D01*
X221047085Y-140297167D01*
X221241000Y-140285661D01*
X221339434Y-140288480D01*
G36*
X215023356Y-139440265D02*
G01*
X215189124Y-139455059D01*
X215313728Y-139479195D01*
X215324496Y-139482697D01*
X215417165Y-139526242D01*
X215449111Y-139587828D01*
X215447230Y-139661649D01*
X215402818Y-139787066D01*
X215328500Y-139846577D01*
X215222853Y-139876300D01*
X215068863Y-139893446D01*
X214897010Y-139897650D01*
X214737772Y-139888545D01*
X214621626Y-139865765D01*
X214598250Y-139855359D01*
X214546425Y-139786218D01*
X214523037Y-139678132D01*
X214528697Y-139565067D01*
X214564022Y-139480988D01*
X214591129Y-139461112D01*
X214693152Y-139442373D01*
X214847630Y-139435730D01*
X215023356Y-139440265D01*
G37*
X215023356Y-139440265D02*
X215189124Y-139455059D01*
X215313728Y-139479195D01*
X215324496Y-139482697D01*
X215417165Y-139526242D01*
X215449111Y-139587828D01*
X215447230Y-139661649D01*
X215402818Y-139787066D01*
X215328500Y-139846577D01*
X215222853Y-139876300D01*
X215068863Y-139893446D01*
X214897010Y-139897650D01*
X214737772Y-139888545D01*
X214621626Y-139865765D01*
X214598250Y-139855359D01*
X214546425Y-139786218D01*
X214523037Y-139678132D01*
X214528697Y-139565067D01*
X214564022Y-139480988D01*
X214591129Y-139461112D01*
X214693152Y-139442373D01*
X214847630Y-139435730D01*
X215023356Y-139440265D01*
G36*
X221411676Y-139443632D02*
G01*
X221558257Y-139462921D01*
X221626455Y-139480708D01*
X221724425Y-139530706D01*
X221780307Y-139588408D01*
X221780787Y-139589608D01*
X221779195Y-139690952D01*
X221715504Y-139791104D01*
X221609670Y-139860776D01*
X221497116Y-139885188D01*
X221341204Y-139897185D01*
X221172341Y-139897001D01*
X221020933Y-139884872D01*
X220917389Y-139861030D01*
X220905917Y-139855359D01*
X220852977Y-139782464D01*
X220832049Y-139668968D01*
X220845578Y-139553605D01*
X220882633Y-139486217D01*
X220954189Y-139457996D01*
X221083586Y-139441363D01*
X221244767Y-139436510D01*
X221411676Y-139443632D01*
G37*
X221411676Y-139443632D02*
X221558257Y-139462921D01*
X221626455Y-139480708D01*
X221724425Y-139530706D01*
X221780307Y-139588408D01*
X221780787Y-139589608D01*
X221779195Y-139690952D01*
X221715504Y-139791104D01*
X221609670Y-139860776D01*
X221497116Y-139885188D01*
X221341204Y-139897185D01*
X221172341Y-139897001D01*
X221020933Y-139884872D01*
X220917389Y-139861030D01*
X220905917Y-139855359D01*
X220852977Y-139782464D01*
X220832049Y-139668968D01*
X220845578Y-139553605D01*
X220882633Y-139486217D01*
X220954189Y-139457996D01*
X221083586Y-139441363D01*
X221244767Y-139436510D01*
X221411676Y-139443632D01*
G36*
X217352273Y-136934072D02*
G01*
X217428102Y-137036114D01*
X217485778Y-137180655D01*
X217520296Y-137346806D01*
X217526650Y-137513679D01*
X217499835Y-137660387D01*
X217463933Y-137732664D01*
X217375429Y-137797924D01*
X217249050Y-137827649D01*
X217120939Y-137819111D01*
X217027236Y-137769585D01*
X217023993Y-137765852D01*
X216995844Y-137688537D01*
X216978853Y-137556840D01*
X216974031Y-137400437D01*
X216982388Y-137249004D01*
X217002650Y-137139372D01*
X217076548Y-136996043D01*
X217184954Y-136911461D01*
X217263297Y-136895417D01*
X217352273Y-136934072D01*
G37*
X217352273Y-136934072D02*
X217428102Y-137036114D01*
X217485778Y-137180655D01*
X217520296Y-137346806D01*
X217526650Y-137513679D01*
X217499835Y-137660387D01*
X217463933Y-137732664D01*
X217375429Y-137797924D01*
X217249050Y-137827649D01*
X217120939Y-137819111D01*
X217027236Y-137769585D01*
X217023993Y-137765852D01*
X216995844Y-137688537D01*
X216978853Y-137556840D01*
X216974031Y-137400437D01*
X216982388Y-137249004D01*
X217002650Y-137139372D01*
X217076548Y-136996043D01*
X217184954Y-136911461D01*
X217263297Y-136895417D01*
X217352273Y-136934072D01*
G36*
X218271931Y-136954389D02*
G01*
X218325700Y-136988550D01*
X218352121Y-137057393D01*
X218368891Y-137184017D01*
X218375767Y-137342060D01*
X218372506Y-137505160D01*
X218358863Y-137646956D01*
X218334596Y-137741084D01*
X218332677Y-137744866D01*
X218258421Y-137804756D01*
X218142820Y-137827129D01*
X218021160Y-137810466D01*
X217936687Y-137761889D01*
X217866286Y-137639279D01*
X217834967Y-137470793D01*
X217842815Y-137285705D01*
X217889912Y-137113290D01*
X217934607Y-137031541D01*
X218025796Y-136963363D01*
X218151195Y-136936221D01*
X218271931Y-136954389D01*
G37*
X218271931Y-136954389D02*
X218325700Y-136988550D01*
X218352121Y-137057393D01*
X218368891Y-137184017D01*
X218375767Y-137342060D01*
X218372506Y-137505160D01*
X218358863Y-137646956D01*
X218334596Y-137741084D01*
X218332677Y-137744866D01*
X218258421Y-137804756D01*
X218142820Y-137827129D01*
X218021160Y-137810466D01*
X217936687Y-137761889D01*
X217866286Y-137639279D01*
X217834967Y-137470793D01*
X217842815Y-137285705D01*
X217889912Y-137113290D01*
X217934607Y-137031541D01*
X218025796Y-136963363D01*
X218151195Y-136936221D01*
X218271931Y-136954389D01*
G36*
X219100098Y-136917831D02*
G01*
X219178289Y-136984505D01*
X219230691Y-137116641D01*
X219253645Y-137297977D01*
X219243492Y-137512253D01*
X219239907Y-137539184D01*
X219202000Y-137805583D01*
X219006402Y-137818262D01*
X218884399Y-137821120D01*
X218820850Y-137802525D01*
X218790361Y-137752777D01*
X218784730Y-137733595D01*
X218767737Y-137617543D01*
X218759964Y-137454903D01*
X218761519Y-137282388D01*
X218772508Y-137136707D01*
X218782832Y-137080494D01*
X218845140Y-136989660D01*
X218954247Y-136927040D01*
X219072770Y-136911801D01*
X219100098Y-136917831D01*
G37*
X219100098Y-136917831D02*
X219178289Y-136984505D01*
X219230691Y-137116641D01*
X219253645Y-137297977D01*
X219243492Y-137512253D01*
X219239907Y-137539184D01*
X219202000Y-137805583D01*
X219006402Y-137818262D01*
X218884399Y-137821120D01*
X218820850Y-137802525D01*
X218790361Y-137752777D01*
X218784730Y-137733595D01*
X218767737Y-137617543D01*
X218759964Y-137454903D01*
X218761519Y-137282388D01*
X218772508Y-137136707D01*
X218782832Y-137080494D01*
X218845140Y-136989660D01*
X218954247Y-136927040D01*
X219072770Y-136911801D01*
X219100098Y-136917831D01*
G36*
X219434833Y-141836355D02*
G01*
X219174623Y-141863553D01*
X219057619Y-141871210D01*
X218879056Y-141877193D01*
X218653564Y-141881525D01*
X218395774Y-141884233D01*
X218120315Y-141885339D01*
X217841818Y-141884868D01*
X217574911Y-141882846D01*
X217334226Y-141879296D01*
X217134392Y-141874242D01*
X216990038Y-141867710D01*
X216916000Y-141859775D01*
X216831290Y-141820454D01*
X216800231Y-141790603D01*
X216790092Y-141733420D01*
X216781917Y-141605360D01*
X216775737Y-141420190D01*
X216771583Y-141191677D01*
X216769487Y-140933590D01*
X216769478Y-140659695D01*
X216771588Y-140383759D01*
X216775848Y-140119550D01*
X216782289Y-139880835D01*
X216790592Y-139689417D01*
X217275833Y-139689417D01*
X217275833Y-141382750D01*
X218969167Y-141382750D01*
X218969167Y-139689417D01*
X217275833Y-139689417D01*
X216790592Y-139689417D01*
X216790941Y-139681383D01*
X216795339Y-139611253D01*
X216822845Y-139223750D01*
X219434833Y-139223750D01*
X219434833Y-141836355D01*
G37*
X219434833Y-141836355D02*
X219174623Y-141863553D01*
X219057619Y-141871210D01*
X218879056Y-141877193D01*
X218653564Y-141881525D01*
X218395774Y-141884233D01*
X218120315Y-141885339D01*
X217841818Y-141884868D01*
X217574911Y-141882846D01*
X217334226Y-141879296D01*
X217134392Y-141874242D01*
X216990038Y-141867710D01*
X216916000Y-141859775D01*
X216831290Y-141820454D01*
X216800231Y-141790603D01*
X216790092Y-141733420D01*
X216781917Y-141605360D01*
X216775737Y-141420190D01*
X216771583Y-141191677D01*
X216769487Y-140933590D01*
X216769478Y-140659695D01*
X216771588Y-140383759D01*
X216775848Y-140119550D01*
X216782289Y-139880835D01*
X216790592Y-139689417D01*
X217275833Y-139689417D01*
X217275833Y-141382750D01*
X218969167Y-141382750D01*
X218969167Y-139689417D01*
X217275833Y-139689417D01*
X216790592Y-139689417D01*
X216790941Y-139681383D01*
X216795339Y-139611253D01*
X216822845Y-139223750D01*
X219434833Y-139223750D01*
X219434833Y-141836355D01*
D12*
%TO.C,J2*%
X175331250Y-141173750D02*
X166381250Y-141173750D01*
X166261250Y-138093750D02*
X166261250Y-137193750D01*
X175451250Y-138093750D02*
X175451250Y-137193750D01*
%TO.C,DS1*%
X382292000Y-151007250D02*
X380962000Y-151007250D01*
X382292000Y-149677250D02*
X382292000Y-151007250D01*
X382292000Y-148407250D02*
X379632000Y-148407250D01*
X379632000Y-148407250D02*
X379632000Y-140727250D01*
X382292000Y-148407250D02*
X382292000Y-140727250D01*
X382292000Y-140727250D02*
X379632000Y-140727250D01*
%TO.C,J3*%
X176724000Y-142578000D02*
X192084000Y-142578000D01*
X192084000Y-142578000D02*
X192084000Y-139918000D01*
X192084000Y-139918000D02*
X176724000Y-139918000D01*
X176724000Y-139918000D02*
X176724000Y-142578000D01*
X177674000Y-139918000D02*
X177674000Y-133918000D01*
X177674000Y-133918000D02*
X178434000Y-133918000D01*
X178434000Y-133918000D02*
X178434000Y-139918000D01*
X177734000Y-139918000D02*
X177734000Y-133918000D01*
X177854000Y-139918000D02*
X177854000Y-133918000D01*
X177974000Y-139918000D02*
X177974000Y-133918000D01*
X178094000Y-139918000D02*
X178094000Y-133918000D01*
X178214000Y-139918000D02*
X178214000Y-133918000D01*
X178334000Y-139918000D02*
X178334000Y-133918000D01*
X177674000Y-142908000D02*
X177674000Y-142578000D01*
X178434000Y-142908000D02*
X178434000Y-142578000D01*
X179324000Y-142578000D02*
X179324000Y-139918000D01*
X180214000Y-139918000D02*
X180214000Y-133918000D01*
X180214000Y-133918000D02*
X180974000Y-133918000D01*
X180974000Y-133918000D02*
X180974000Y-139918000D01*
X180214000Y-142975071D02*
X180214000Y-142578000D01*
X180974000Y-142975071D02*
X180974000Y-142578000D01*
X181864000Y-142578000D02*
X181864000Y-139918000D01*
X182754000Y-139918000D02*
X182754000Y-133918000D01*
X182754000Y-133918000D02*
X183514000Y-133918000D01*
X183514000Y-133918000D02*
X183514000Y-139918000D01*
X182754000Y-142975071D02*
X182754000Y-142578000D01*
X183514000Y-142975071D02*
X183514000Y-142578000D01*
X184404000Y-142578000D02*
X184404000Y-139918000D01*
X185294000Y-139918000D02*
X185294000Y-133918000D01*
X185294000Y-133918000D02*
X186054000Y-133918000D01*
X186054000Y-133918000D02*
X186054000Y-139918000D01*
X185294000Y-142975071D02*
X185294000Y-142578000D01*
X186054000Y-142975071D02*
X186054000Y-142578000D01*
X186944000Y-142578000D02*
X186944000Y-139918000D01*
X187834000Y-139918000D02*
X187834000Y-133918000D01*
X187834000Y-133918000D02*
X188594000Y-133918000D01*
X188594000Y-133918000D02*
X188594000Y-139918000D01*
X187834000Y-142975071D02*
X187834000Y-142578000D01*
X188594000Y-142975071D02*
X188594000Y-142578000D01*
X189484000Y-142578000D02*
X189484000Y-139918000D01*
X190374000Y-139918000D02*
X190374000Y-133918000D01*
X190374000Y-133918000D02*
X191134000Y-133918000D01*
X191134000Y-133918000D02*
X191134000Y-139918000D01*
X190374000Y-142975071D02*
X190374000Y-142578000D01*
X191134000Y-142975071D02*
X191134000Y-142578000D01*
X178054000Y-145288000D02*
X176784000Y-145288000D01*
X176784000Y-145288000D02*
X176784000Y-144018000D01*
%TO.C,U2*%
X325180000Y-145050000D02*
X325180000Y-139590000D01*
X325180000Y-139590000D02*
X274260000Y-139590000D01*
X274260000Y-139590000D02*
X274260000Y-152510000D01*
X274260000Y-152510000D02*
X325180000Y-152510000D01*
X325180000Y-152510000D02*
X325180000Y-147050000D01*
X325240000Y-137100000D02*
X274200000Y-137100000D01*
X274200000Y-137100000D02*
X274200000Y-155000000D01*
X274200000Y-155000000D02*
X325240000Y-155000000D01*
X325240000Y-155000000D02*
X325240000Y-137100000D01*
X325180000Y-147050000D02*
G75*
G02*
X325180000Y-145050000I0J1000000D01*
G01*
%TO.C,RCtrl1*%
X382746250Y-237490000D02*
X396716250Y-237490000D01*
X396716250Y-237490000D02*
X396716250Y-251460000D01*
X396716250Y-251460000D02*
X382746250Y-251460000D01*
X382746250Y-251460000D02*
X382746250Y-237490000D01*
%TO.C,Z1*%
X197008750Y-218440000D02*
X210978750Y-218440000D01*
X210978750Y-218440000D02*
X210978750Y-232410000D01*
X210978750Y-232410000D02*
X197008750Y-232410000D01*
X197008750Y-232410000D02*
X197008750Y-218440000D01*
%TO.C,Y1*%
X277971250Y-180340000D02*
X291941250Y-180340000D01*
X291941250Y-180340000D02*
X291941250Y-194310000D01*
X291941250Y-194310000D02*
X277971250Y-194310000D01*
X277971250Y-194310000D02*
X277971250Y-180340000D01*
%TO.C,Y2*%
X331137500Y-149116250D02*
X331137500Y-142866250D01*
X326087500Y-149116250D02*
X326087500Y-142866250D01*
X331137500Y-142866250D02*
G75*
G03*
X326087500Y-142866250I-2525000J0D01*
G01*
X331137500Y-149116250D02*
G75*
G02*
X326087500Y-149116250I-2525000J0D01*
G01*
%TO.C,X1*%
X216058750Y-218440000D02*
X230028750Y-218440000D01*
X230028750Y-218440000D02*
X230028750Y-232410000D01*
X230028750Y-232410000D02*
X216058750Y-232410000D01*
X216058750Y-232410000D02*
X216058750Y-218440000D01*
%TO.C,Win1*%
X180340000Y-237490000D02*
X194310000Y-237490000D01*
X194310000Y-237490000D02*
X194310000Y-251460000D01*
X194310000Y-251460000D02*
X180340000Y-251460000D01*
X180340000Y-251460000D02*
X180340000Y-237490000D01*
%TO.C,W1*%
X201771250Y-180340000D02*
X215741250Y-180340000D01*
X215741250Y-180340000D02*
X215741250Y-194310000D01*
X215741250Y-194310000D02*
X201771250Y-194310000D01*
X201771250Y-194310000D02*
X201771250Y-180340000D01*
%TO.C,V1*%
X254158750Y-218440000D02*
X268128750Y-218440000D01*
X268128750Y-218440000D02*
X268128750Y-232410000D01*
X268128750Y-232410000D02*
X254158750Y-232410000D01*
X254158750Y-232410000D02*
X254158750Y-218440000D01*
%TO.C,U1*%
X297021250Y-180340000D02*
X310991250Y-180340000D01*
X310991250Y-180340000D02*
X310991250Y-194310000D01*
X310991250Y-194310000D02*
X297021250Y-194310000D01*
X297021250Y-194310000D02*
X297021250Y-180340000D01*
%TO.C,Tab1*%
X158908750Y-180340000D02*
X172878750Y-180340000D01*
X172878750Y-180340000D02*
X172878750Y-194310000D01*
X172878750Y-194310000D02*
X158908750Y-194310000D01*
X158908750Y-194310000D02*
X158908750Y-180340000D01*
%TO.C,T1*%
X258921250Y-180340000D02*
X272891250Y-180340000D01*
X272891250Y-180340000D02*
X272891250Y-194310000D01*
X272891250Y-194310000D02*
X258921250Y-194310000D01*
X258921250Y-194310000D02*
X258921250Y-180340000D01*
%TO.C,Space1*%
X275590000Y-237490000D02*
X289560000Y-237490000D01*
X289560000Y-237490000D02*
X289560000Y-251460000D01*
X289560000Y-251460000D02*
X275590000Y-251460000D01*
X275590000Y-251460000D02*
X275590000Y-237490000D01*
%TO.C,S1*%
X206533750Y-199390000D02*
X220503750Y-199390000D01*
X220503750Y-199390000D02*
X220503750Y-213360000D01*
X220503750Y-213360000D02*
X206533750Y-213360000D01*
X206533750Y-213360000D02*
X206533750Y-199390000D01*
%TO.C,RShift1*%
X394652500Y-218440000D02*
X408622500Y-218440000D01*
X408622500Y-218440000D02*
X408622500Y-232410000D01*
X408622500Y-232410000D02*
X394652500Y-232410000D01*
X394652500Y-232410000D02*
X394652500Y-218440000D01*
%TO.C,RESET1*%
X200875000Y-136731250D02*
X200875000Y-141231250D01*
X204875000Y-135481250D02*
X203375000Y-135481250D01*
X207375000Y-141231250D02*
X207375000Y-136731250D01*
X203375000Y-142481250D02*
X204875000Y-142481250D01*
%TO.C,RAlt1*%
X344646250Y-237490000D02*
X358616250Y-237490000D01*
X358616250Y-237490000D02*
X358616250Y-251460000D01*
X358616250Y-251460000D02*
X344646250Y-251460000D01*
X344646250Y-251460000D02*
X344646250Y-237490000D01*
%TO.C,R3*%
X335088750Y-147811250D02*
X335088750Y-143971250D01*
X333248750Y-147811250D02*
X333248750Y-143971250D01*
%TO.C,R1*%
X239871250Y-180340000D02*
X253841250Y-180340000D01*
X253841250Y-180340000D02*
X253841250Y-194310000D01*
X253841250Y-194310000D02*
X239871250Y-194310000D01*
X239871250Y-194310000D02*
X239871250Y-180340000D01*
%TO.C,R8*%
X228426250Y-146970000D02*
X232266250Y-146970000D01*
X228426250Y-145130000D02*
X232266250Y-145130000D01*
%TO.C,R7*%
X232266250Y-148305000D02*
X228426250Y-148305000D01*
X232266250Y-150145000D02*
X228426250Y-150145000D01*
%TO.C,R6*%
X232266250Y-151480000D02*
X228426250Y-151480000D01*
X232266250Y-153320000D02*
X228426250Y-153320000D01*
%TO.C,R2*%
X193372500Y-151480000D02*
X189532500Y-151480000D01*
X193372500Y-153320000D02*
X189532500Y-153320000D01*
%TO.C,R4*%
X204961250Y-149098750D02*
X201121250Y-149098750D01*
X204961250Y-150938750D02*
X201121250Y-150938750D01*
%TO.C,R5*%
X204961250Y-151480000D02*
X201121250Y-151480000D01*
X204961250Y-153320000D02*
X201121250Y-153320000D01*
%TO.C,Q1*%
X182721250Y-180340000D02*
X196691250Y-180340000D01*
X196691250Y-180340000D02*
X196691250Y-194310000D01*
X196691250Y-194310000D02*
X182721250Y-194310000D01*
X182721250Y-194310000D02*
X182721250Y-180340000D01*
%TO.C,PgUp1*%
X439896250Y-199390000D02*
X453866250Y-199390000D01*
X453866250Y-199390000D02*
X453866250Y-213360000D01*
X453866250Y-213360000D02*
X439896250Y-213360000D01*
X439896250Y-213360000D02*
X439896250Y-199390000D01*
%TO.C,PgDw1*%
X439896250Y-218440000D02*
X453866250Y-218440000D01*
X453866250Y-218440000D02*
X453866250Y-232410000D01*
X453866250Y-232410000D02*
X439896250Y-232410000D01*
X439896250Y-232410000D02*
X439896250Y-218440000D01*
%TO.C,P1*%
X354171250Y-180340000D02*
X368141250Y-180340000D01*
X368141250Y-180340000D02*
X368141250Y-194310000D01*
X368141250Y-194310000D02*
X354171250Y-194310000D01*
X354171250Y-194310000D02*
X354171250Y-180340000D01*
%TO.C,O1*%
X335121250Y-180340000D02*
X349091250Y-180340000D01*
X349091250Y-180340000D02*
X349091250Y-194310000D01*
X349091250Y-194310000D02*
X335121250Y-194310000D01*
X335121250Y-194310000D02*
X335121250Y-180340000D01*
%TO.C,Num10*%
X344646250Y-161290000D02*
X358616250Y-161290000D01*
X358616250Y-161290000D02*
X358616250Y-175260000D01*
X358616250Y-175260000D02*
X344646250Y-175260000D01*
X344646250Y-175260000D02*
X344646250Y-161290000D01*
%TO.C,Num9*%
X325596250Y-161290000D02*
X339566250Y-161290000D01*
X339566250Y-161290000D02*
X339566250Y-175260000D01*
X339566250Y-175260000D02*
X325596250Y-175260000D01*
X325596250Y-175260000D02*
X325596250Y-161290000D01*
%TO.C,Num8*%
X306546250Y-161290000D02*
X320516250Y-161290000D01*
X320516250Y-161290000D02*
X320516250Y-175260000D01*
X320516250Y-175260000D02*
X306546250Y-175260000D01*
X306546250Y-175260000D02*
X306546250Y-161290000D01*
%TO.C,Num7*%
X287496250Y-161290000D02*
X301466250Y-161290000D01*
X301466250Y-161290000D02*
X301466250Y-175260000D01*
X301466250Y-175260000D02*
X287496250Y-175260000D01*
X287496250Y-175260000D02*
X287496250Y-161290000D01*
%TO.C,Num6*%
X268446250Y-161290000D02*
X282416250Y-161290000D01*
X282416250Y-161290000D02*
X282416250Y-175260000D01*
X282416250Y-175260000D02*
X268446250Y-175260000D01*
X268446250Y-175260000D02*
X268446250Y-161290000D01*
%TO.C,Num5*%
X249396250Y-161290000D02*
X263366250Y-161290000D01*
X263366250Y-161290000D02*
X263366250Y-175260000D01*
X263366250Y-175260000D02*
X249396250Y-175260000D01*
X249396250Y-175260000D02*
X249396250Y-161290000D01*
%TO.C,Num4*%
X230346250Y-161290000D02*
X244316250Y-161290000D01*
X244316250Y-161290000D02*
X244316250Y-175260000D01*
X244316250Y-175260000D02*
X230346250Y-175260000D01*
X230346250Y-175260000D02*
X230346250Y-161290000D01*
%TO.C,Num3*%
X211296250Y-161290000D02*
X225266250Y-161290000D01*
X225266250Y-161290000D02*
X225266250Y-175260000D01*
X225266250Y-175260000D02*
X211296250Y-175260000D01*
X211296250Y-175260000D02*
X211296250Y-161290000D01*
%TO.C,Num2*%
X192246250Y-161290000D02*
X206216250Y-161290000D01*
X206216250Y-161290000D02*
X206216250Y-175260000D01*
X206216250Y-175260000D02*
X192246250Y-175260000D01*
X192246250Y-175260000D02*
X192246250Y-161290000D01*
%TO.C,Num1*%
X173196250Y-161290000D02*
X187166250Y-161290000D01*
X187166250Y-161290000D02*
X187166250Y-175260000D01*
X187166250Y-175260000D02*
X173196250Y-175260000D01*
X173196250Y-175260000D02*
X173196250Y-161290000D01*
%TO.C,N1*%
X292258750Y-218440000D02*
X306228750Y-218440000D01*
X306228750Y-218440000D02*
X306228750Y-232410000D01*
X306228750Y-232410000D02*
X292258750Y-232410000D01*
X292258750Y-232410000D02*
X292258750Y-218440000D01*
%TO.C,M1*%
X311308750Y-218440000D02*
X325278750Y-218440000D01*
X325278750Y-218440000D02*
X325278750Y-232410000D01*
X325278750Y-232410000D02*
X311308750Y-232410000D01*
X311308750Y-232410000D02*
X311308750Y-218440000D01*
%TO.C,LShift1*%
X166052500Y-218440000D02*
X180022500Y-218440000D01*
X180022500Y-218440000D02*
X180022500Y-232410000D01*
X180022500Y-232410000D02*
X166052500Y-232410000D01*
X166052500Y-232410000D02*
X166052500Y-218440000D01*
%TO.C,LCtrl1*%
X156527500Y-237490000D02*
X170497500Y-237490000D01*
X170497500Y-237490000D02*
X170497500Y-251460000D01*
X170497500Y-251460000D02*
X156527500Y-251460000D01*
X156527500Y-251460000D02*
X156527500Y-237490000D01*
%TO.C,LAlt1*%
X204152500Y-237490000D02*
X218122500Y-237490000D01*
X218122500Y-237490000D02*
X218122500Y-251460000D01*
X218122500Y-251460000D02*
X204152500Y-251460000D01*
X204152500Y-251460000D02*
X204152500Y-237490000D01*
%TO.C,L1*%
X339883750Y-199390000D02*
X353853750Y-199390000D01*
X353853750Y-199390000D02*
X353853750Y-213360000D01*
X353853750Y-213360000D02*
X339883750Y-213360000D01*
X339883750Y-213360000D02*
X339883750Y-199390000D01*
%TO.C,K1*%
X320833750Y-199390000D02*
X334803750Y-199390000D01*
X334803750Y-199390000D02*
X334803750Y-213360000D01*
X334803750Y-213360000D02*
X320833750Y-213360000D01*
X320833750Y-213360000D02*
X320833750Y-199390000D01*
%TO.C,J1*%
X301783750Y-199390000D02*
X315753750Y-199390000D01*
X315753750Y-199390000D02*
X315753750Y-213360000D01*
X315753750Y-213360000D02*
X301783750Y-213360000D01*
X301783750Y-213360000D02*
X301783750Y-199390000D01*
%TO.C,I1*%
X316071250Y-180340000D02*
X330041250Y-180340000D01*
X330041250Y-180340000D02*
X330041250Y-194310000D01*
X330041250Y-194310000D02*
X316071250Y-194310000D01*
X316071250Y-194310000D02*
X316071250Y-180340000D01*
%TO.C,H1*%
X282733750Y-199390000D02*
X296703750Y-199390000D01*
X296703750Y-199390000D02*
X296703750Y-213360000D01*
X296703750Y-213360000D02*
X282733750Y-213360000D01*
X282733750Y-213360000D02*
X282733750Y-199390000D01*
%TO.C,G1*%
X263683750Y-199390000D02*
X277653750Y-199390000D01*
X277653750Y-199390000D02*
X277653750Y-213360000D01*
X277653750Y-213360000D02*
X263683750Y-213360000D01*
X263683750Y-213360000D02*
X263683750Y-199390000D01*
%TO.C,Func1*%
X363696250Y-237490000D02*
X377666250Y-237490000D01*
X377666250Y-237490000D02*
X377666250Y-251460000D01*
X377666250Y-251460000D02*
X363696250Y-251460000D01*
X363696250Y-251460000D02*
X363696250Y-237490000D01*
%TO.C,F1*%
X244633750Y-199390000D02*
X258603750Y-199390000D01*
X258603750Y-199390000D02*
X258603750Y-213360000D01*
X258603750Y-213360000D02*
X244633750Y-213360000D01*
X244633750Y-213360000D02*
X244633750Y-199390000D01*
%TO.C,F2*%
X170993750Y-150975000D02*
X170993750Y-142375000D01*
X170993750Y-150975000D02*
X175093750Y-150975000D01*
X170993750Y-142375000D02*
X175093750Y-142375000D01*
X175093750Y-150975000D02*
X175093750Y-142375000D01*
%TO.C,Esc1*%
X154146250Y-161290000D02*
X168116250Y-161290000D01*
X168116250Y-161290000D02*
X168116250Y-175260000D01*
X168116250Y-175260000D02*
X154146250Y-175260000D01*
X154146250Y-175260000D02*
X154146250Y-161290000D01*
%TO.C,Enter1*%
X408940000Y-199390000D02*
X422910000Y-199390000D01*
X422910000Y-199390000D02*
X422910000Y-213360000D01*
X422910000Y-213360000D02*
X408940000Y-213360000D01*
X408940000Y-213360000D02*
X408940000Y-199390000D01*
%TO.C,ENC1*%
X429275000Y-146168750D02*
X430275000Y-146168750D01*
X429775000Y-145668750D02*
X429775000Y-146668750D01*
X435875000Y-149668750D02*
X435875000Y-152068750D01*
X435875000Y-144868750D02*
X435875000Y-147468750D01*
X435875000Y-140268750D02*
X435875000Y-142668750D01*
X422575000Y-142068750D02*
X422275000Y-142368750D01*
X421975000Y-142068750D02*
X422575000Y-142068750D01*
X422275000Y-142368750D02*
X421975000Y-142068750D01*
X423675000Y-140268750D02*
X423675000Y-152068750D01*
X427775000Y-140268750D02*
X423675000Y-140268750D01*
X427775000Y-152068750D02*
X423675000Y-152068750D01*
X435875000Y-152068750D02*
X431775000Y-152068750D01*
X431775000Y-140268750D02*
X435875000Y-140268750D01*
X432775000Y-146168750D02*
G75*
G03*
X432775000Y-146168750I-3000000J0D01*
G01*
%TO.C,E1*%
X220821250Y-180340000D02*
X234791250Y-180340000D01*
X234791250Y-180340000D02*
X234791250Y-194310000D01*
X234791250Y-194310000D02*
X220821250Y-194310000D01*
X220821250Y-194310000D02*
X220821250Y-180340000D01*
%TO.C,Del1*%
X439896250Y-180340000D02*
X453866250Y-180340000D01*
X453866250Y-180340000D02*
X453866250Y-194310000D01*
X453866250Y-194310000D02*
X439896250Y-194310000D01*
X439896250Y-194310000D02*
X439896250Y-180340000D01*
%TO.C,D76*%
X215015000Y-151280000D02*
X215015000Y-153520000D01*
X215255000Y-151280000D02*
X215255000Y-153520000D01*
X215135000Y-151280000D02*
X215135000Y-153520000D01*
X219305000Y-152400000D02*
X218655000Y-152400000D01*
X213765000Y-152400000D02*
X214415000Y-152400000D01*
X218655000Y-151280000D02*
X214415000Y-151280000D01*
X218655000Y-153520000D02*
X218655000Y-151280000D01*
X214415000Y-153520000D02*
X218655000Y-153520000D01*
X214415000Y-151280000D02*
X214415000Y-153520000D01*
%TO.C,D31*%
X225583750Y-199390000D02*
X239553750Y-199390000D01*
X239553750Y-199390000D02*
X239553750Y-213360000D01*
X239553750Y-213360000D02*
X225583750Y-213360000D01*
X225583750Y-213360000D02*
X225583750Y-199390000D01*
%TO.C,D75*%
X215015000Y-148105000D02*
X215015000Y-150345000D01*
X215255000Y-148105000D02*
X215255000Y-150345000D01*
X215135000Y-148105000D02*
X215135000Y-150345000D01*
X219305000Y-149225000D02*
X218655000Y-149225000D01*
X213765000Y-149225000D02*
X214415000Y-149225000D01*
X218655000Y-148105000D02*
X214415000Y-148105000D01*
X218655000Y-150345000D02*
X218655000Y-148105000D01*
X214415000Y-150345000D02*
X218655000Y-150345000D01*
X214415000Y-148105000D02*
X214415000Y-150345000D01*
%TO.C,CapsL1*%
X161290000Y-199390000D02*
X175260000Y-199390000D01*
X175260000Y-199390000D02*
X175260000Y-213360000D01*
X175260000Y-213360000D02*
X161290000Y-213360000D01*
X161290000Y-213360000D02*
X161290000Y-199390000D01*
%TO.C,C2*%
X170242275Y-146187500D02*
X170242275Y-145687500D01*
X170492275Y-145937500D02*
X169992275Y-145937500D01*
X165086500Y-144746500D02*
X165086500Y-144178500D01*
X165126500Y-144980500D02*
X165126500Y-143944500D01*
X165166500Y-145139500D02*
X165166500Y-143785500D01*
X165206500Y-145267500D02*
X165206500Y-143657500D01*
X165246500Y-145377500D02*
X165246500Y-143547500D01*
X165286500Y-145473500D02*
X165286500Y-143451500D01*
X165326500Y-145560500D02*
X165326500Y-143364500D01*
X165366500Y-145640500D02*
X165366500Y-143284500D01*
X165406500Y-145713500D02*
X165406500Y-143211500D01*
X165446500Y-145781500D02*
X165446500Y-143143500D01*
X165486500Y-145845500D02*
X165486500Y-143079500D01*
X165526500Y-145905500D02*
X165526500Y-143019500D01*
X165566500Y-145962500D02*
X165566500Y-142962500D01*
X165606500Y-146016500D02*
X165606500Y-142908500D01*
X165646500Y-146067500D02*
X165646500Y-142857500D01*
X165686500Y-143422500D02*
X165686500Y-142809500D01*
X165686500Y-146115500D02*
X165686500Y-145502500D01*
X165726500Y-143422500D02*
X165726500Y-142763500D01*
X165726500Y-146161500D02*
X165726500Y-145502500D01*
X165766500Y-143422500D02*
X165766500Y-142719500D01*
X165766500Y-146205500D02*
X165766500Y-145502500D01*
X165806500Y-143422500D02*
X165806500Y-142677500D01*
X165806500Y-146247500D02*
X165806500Y-145502500D01*
X165846500Y-143422500D02*
X165846500Y-142636500D01*
X165846500Y-146288500D02*
X165846500Y-145502500D01*
X165886500Y-143422500D02*
X165886500Y-142598500D01*
X165886500Y-146326500D02*
X165886500Y-145502500D01*
X165926500Y-143422500D02*
X165926500Y-142561500D01*
X165926500Y-146363500D02*
X165926500Y-145502500D01*
X165966500Y-143422500D02*
X165966500Y-142525500D01*
X165966500Y-146399500D02*
X165966500Y-145502500D01*
X166006500Y-143422500D02*
X166006500Y-142491500D01*
X166006500Y-146433500D02*
X166006500Y-145502500D01*
X166046500Y-143422500D02*
X166046500Y-142458500D01*
X166046500Y-146466500D02*
X166046500Y-145502500D01*
X166086500Y-143422500D02*
X166086500Y-142427500D01*
X166086500Y-146497500D02*
X166086500Y-145502500D01*
X166126500Y-143422500D02*
X166126500Y-142397500D01*
X166126500Y-146527500D02*
X166126500Y-145502500D01*
X166166500Y-143422500D02*
X166166500Y-142367500D01*
X166166500Y-146557500D02*
X166166500Y-145502500D01*
X166206500Y-143422500D02*
X166206500Y-142340500D01*
X166206500Y-146584500D02*
X166206500Y-145502500D01*
X166246500Y-143422500D02*
X166246500Y-142313500D01*
X166246500Y-146611500D02*
X166246500Y-145502500D01*
X166286500Y-143422500D02*
X166286500Y-142287500D01*
X166286500Y-146637500D02*
X166286500Y-145502500D01*
X166326500Y-143422500D02*
X166326500Y-142262500D01*
X166326500Y-146662500D02*
X166326500Y-145502500D01*
X166366500Y-143422500D02*
X166366500Y-142238500D01*
X166366500Y-146686500D02*
X166366500Y-145502500D01*
X166406500Y-143422500D02*
X166406500Y-142215500D01*
X166406500Y-146709500D02*
X166406500Y-145502500D01*
X166446500Y-143422500D02*
X166446500Y-142194500D01*
X166446500Y-146730500D02*
X166446500Y-145502500D01*
X166486500Y-143422500D02*
X166486500Y-142172500D01*
X166486500Y-146752500D02*
X166486500Y-145502500D01*
X166526500Y-143422500D02*
X166526500Y-142152500D01*
X166526500Y-146772500D02*
X166526500Y-145502500D01*
X166566500Y-143422500D02*
X166566500Y-142133500D01*
X166566500Y-146791500D02*
X166566500Y-145502500D01*
X166606500Y-143422500D02*
X166606500Y-142114500D01*
X166606500Y-146810500D02*
X166606500Y-145502500D01*
X166646500Y-143422500D02*
X166646500Y-142097500D01*
X166646500Y-146827500D02*
X166646500Y-145502500D01*
X166686500Y-143422500D02*
X166686500Y-142080500D01*
X166686500Y-146844500D02*
X166686500Y-145502500D01*
X166726500Y-143422500D02*
X166726500Y-142064500D01*
X166726500Y-146860500D02*
X166726500Y-145502500D01*
X166766500Y-143422500D02*
X166766500Y-142048500D01*
X166766500Y-146876500D02*
X166766500Y-145502500D01*
X166806500Y-143422500D02*
X166806500Y-142034500D01*
X166806500Y-146890500D02*
X166806500Y-145502500D01*
X166846500Y-143422500D02*
X166846500Y-142020500D01*
X166846500Y-146904500D02*
X166846500Y-145502500D01*
X166886500Y-143422500D02*
X166886500Y-142007500D01*
X166886500Y-146917500D02*
X166886500Y-145502500D01*
X166926500Y-143422500D02*
X166926500Y-141994500D01*
X166926500Y-146930500D02*
X166926500Y-145502500D01*
X166966500Y-143422500D02*
X166966500Y-141982500D01*
X166966500Y-146942500D02*
X166966500Y-145502500D01*
X167007500Y-143422500D02*
X167007500Y-141971500D01*
X167007500Y-146953500D02*
X167007500Y-145502500D01*
X167047500Y-143422500D02*
X167047500Y-141961500D01*
X167047500Y-146963500D02*
X167047500Y-145502500D01*
X167087500Y-143422500D02*
X167087500Y-141951500D01*
X167087500Y-146973500D02*
X167087500Y-145502500D01*
X167127500Y-143422500D02*
X167127500Y-141942500D01*
X167127500Y-146982500D02*
X167127500Y-145502500D01*
X167167500Y-143422500D02*
X167167500Y-141934500D01*
X167167500Y-146990500D02*
X167167500Y-145502500D01*
X167207500Y-143422500D02*
X167207500Y-141926500D01*
X167207500Y-146998500D02*
X167207500Y-145502500D01*
X167247500Y-143422500D02*
X167247500Y-141919500D01*
X167247500Y-147005500D02*
X167247500Y-145502500D01*
X167287500Y-143422500D02*
X167287500Y-141912500D01*
X167287500Y-147012500D02*
X167287500Y-145502500D01*
X167327500Y-143422500D02*
X167327500Y-141906500D01*
X167327500Y-147018500D02*
X167327500Y-145502500D01*
X167367500Y-143422500D02*
X167367500Y-141901500D01*
X167367500Y-147023500D02*
X167367500Y-145502500D01*
X167407500Y-143422500D02*
X167407500Y-141897500D01*
X167407500Y-147027500D02*
X167407500Y-145502500D01*
X167447500Y-143422500D02*
X167447500Y-141893500D01*
X167447500Y-147031500D02*
X167447500Y-145502500D01*
X167487500Y-143422500D02*
X167487500Y-141889500D01*
X167487500Y-147035500D02*
X167487500Y-145502500D01*
X167527500Y-143422500D02*
X167527500Y-141886500D01*
X167527500Y-147038500D02*
X167527500Y-145502500D01*
X167567500Y-143422500D02*
X167567500Y-141884500D01*
X167567500Y-147040500D02*
X167567500Y-145502500D01*
X167607500Y-143422500D02*
X167607500Y-141883500D01*
X167607500Y-147041500D02*
X167607500Y-145502500D01*
X167647500Y-147042500D02*
X167647500Y-145502500D01*
X167647500Y-143422500D02*
X167647500Y-141882500D01*
X167687500Y-147042500D02*
X167687500Y-145502500D01*
X167687500Y-143422500D02*
X167687500Y-141882500D01*
X170307500Y-144462500D02*
G75*
G03*
X170307500Y-144462500I-2620000J0D01*
G01*
%TO.C,C1*%
X235108750Y-218440000D02*
X249078750Y-218440000D01*
X249078750Y-218440000D02*
X249078750Y-232410000D01*
X249078750Y-232410000D02*
X235108750Y-232410000D01*
X235108750Y-232410000D02*
X235108750Y-218440000D01*
%TO.C,C4*%
X298520500Y-134104750D02*
X298520500Y-133789750D01*
X298520500Y-136529750D02*
X298520500Y-136214750D01*
X303760500Y-134104750D02*
X303760500Y-133789750D01*
X303760500Y-136529750D02*
X303760500Y-136214750D01*
X303760500Y-133789750D02*
X298520500Y-133789750D01*
X303760500Y-136529750D02*
X298520500Y-136529750D01*
%TO.C,C3*%
X301347500Y-157900000D02*
X301347500Y-158215000D01*
X301347500Y-155475000D02*
X301347500Y-155790000D01*
X296107500Y-157900000D02*
X296107500Y-158215000D01*
X296107500Y-155475000D02*
X296107500Y-155790000D01*
X296107500Y-158215000D02*
X301347500Y-158215000D01*
X296107500Y-155475000D02*
X301347500Y-155475000D01*
%TO.C,C6*%
X331891000Y-139485000D02*
X331891000Y-139800000D01*
X331891000Y-137060000D02*
X331891000Y-137375000D01*
X326651000Y-139485000D02*
X326651000Y-139800000D01*
X326651000Y-137060000D02*
X326651000Y-137375000D01*
X326651000Y-139800000D02*
X331891000Y-139800000D01*
X326651000Y-137060000D02*
X331891000Y-137060000D01*
%TO.C,C5*%
X331891000Y-154725000D02*
X331891000Y-155040000D01*
X331891000Y-152300000D02*
X331891000Y-152615000D01*
X326651000Y-154725000D02*
X326651000Y-155040000D01*
X326651000Y-152300000D02*
X326651000Y-152615000D01*
X326651000Y-155040000D02*
X331891000Y-155040000D01*
X326651000Y-152300000D02*
X331891000Y-152300000D01*
%TO.C,BOOT1*%
X195755000Y-142481250D02*
X197255000Y-142481250D01*
X199755000Y-141231250D02*
X199755000Y-136731250D01*
X197255000Y-135481250D02*
X195755000Y-135481250D01*
X193255000Y-136731250D02*
X193255000Y-141231250D01*
%TO.C,Bksp1*%
X411321250Y-161290000D02*
X425291250Y-161290000D01*
X425291250Y-161290000D02*
X425291250Y-175260000D01*
X425291250Y-175260000D02*
X411321250Y-175260000D01*
X411321250Y-175260000D02*
X411321250Y-161290000D01*
%TO.C,B1*%
X273208750Y-218440000D02*
X287178750Y-218440000D01*
X287178750Y-218440000D02*
X287178750Y-232410000D01*
X287178750Y-232410000D02*
X273208750Y-232410000D01*
X273208750Y-232410000D02*
X273208750Y-218440000D01*
%TO.C,ArrowUp1*%
X420846250Y-218440000D02*
X434816250Y-218440000D01*
X434816250Y-218440000D02*
X434816250Y-232410000D01*
X434816250Y-232410000D02*
X420846250Y-232410000D01*
X420846250Y-232410000D02*
X420846250Y-218440000D01*
%TO.C,ArrowRight1*%
X439896250Y-237490000D02*
X453866250Y-237490000D01*
X453866250Y-237490000D02*
X453866250Y-251460000D01*
X453866250Y-251460000D02*
X439896250Y-251460000D01*
X439896250Y-251460000D02*
X439896250Y-237490000D01*
%TO.C,ArrowLeft1*%
X401796250Y-237490000D02*
X415766250Y-237490000D01*
X415766250Y-237490000D02*
X415766250Y-251460000D01*
X415766250Y-251460000D02*
X401796250Y-251460000D01*
X401796250Y-251460000D02*
X401796250Y-237490000D01*
%TO.C,ArrowDown1*%
X420846250Y-237490000D02*
X434816250Y-237490000D01*
X434816250Y-237490000D02*
X434816250Y-251460000D01*
X434816250Y-251460000D02*
X420846250Y-251460000D01*
X420846250Y-251460000D02*
X420846250Y-237490000D01*
%TO.C,A1*%
X187483750Y-199390000D02*
X201453750Y-199390000D01*
X201453750Y-199390000D02*
X201453750Y-213360000D01*
X201453750Y-213360000D02*
X187483750Y-213360000D01*
X187483750Y-213360000D02*
X187483750Y-199390000D01*
%TO.C,`1*%
X439896250Y-161290000D02*
X453866250Y-161290000D01*
X453866250Y-161290000D02*
X453866250Y-175260000D01*
X453866250Y-175260000D02*
X439896250Y-175260000D01*
X439896250Y-175260000D02*
X439896250Y-161290000D01*
%TO.C,]1*%
X392271250Y-180340000D02*
X406241250Y-180340000D01*
X406241250Y-180340000D02*
X406241250Y-194310000D01*
X406241250Y-194310000D02*
X392271250Y-194310000D01*
X392271250Y-194310000D02*
X392271250Y-180340000D01*
%TO.C,\u005C1*%
X416083750Y-180340000D02*
X430053750Y-180340000D01*
X430053750Y-180340000D02*
X430053750Y-194310000D01*
X430053750Y-194310000D02*
X416083750Y-194310000D01*
X416083750Y-194310000D02*
X416083750Y-180340000D01*
%TO.C,[1*%
X373221250Y-180340000D02*
X387191250Y-180340000D01*
X387191250Y-180340000D02*
X387191250Y-194310000D01*
X387191250Y-194310000D02*
X373221250Y-194310000D01*
X373221250Y-194310000D02*
X373221250Y-180340000D01*
%TO.C,=1*%
X382746250Y-161290000D02*
X396716250Y-161290000D01*
X396716250Y-161290000D02*
X396716250Y-175260000D01*
X396716250Y-175260000D02*
X382746250Y-175260000D01*
X382746250Y-175260000D02*
X382746250Y-161290000D01*
%TO.C,;1*%
X358933750Y-199390000D02*
X372903750Y-199390000D01*
X372903750Y-199390000D02*
X372903750Y-213360000D01*
X372903750Y-213360000D02*
X358933750Y-213360000D01*
X358933750Y-213360000D02*
X358933750Y-199390000D01*
%TO.C,/1*%
X368458750Y-218440000D02*
X382428750Y-218440000D01*
X382428750Y-218440000D02*
X382428750Y-232410000D01*
X382428750Y-232410000D02*
X368458750Y-232410000D01*
X368458750Y-232410000D02*
X368458750Y-218440000D01*
%TO.C,-1*%
X363696250Y-161290000D02*
X377666250Y-161290000D01*
X377666250Y-161290000D02*
X377666250Y-175260000D01*
X377666250Y-175260000D02*
X363696250Y-175260000D01*
X363696250Y-175260000D02*
X363696250Y-161290000D01*
%TO.C,'1*%
X377983750Y-199390000D02*
X391953750Y-199390000D01*
X391953750Y-199390000D02*
X391953750Y-213360000D01*
X391953750Y-213360000D02*
X377983750Y-213360000D01*
X377983750Y-213360000D02*
X377983750Y-199390000D01*
%TO.C,.1*%
X349408750Y-218440000D02*
X363378750Y-218440000D01*
X363378750Y-218440000D02*
X363378750Y-232410000D01*
X363378750Y-232410000D02*
X349408750Y-232410000D01*
X349408750Y-232410000D02*
X349408750Y-218440000D01*
%TO.C,\u002C1*%
X330358750Y-218440000D02*
X344328750Y-218440000D01*
X344328750Y-218440000D02*
X344328750Y-232410000D01*
X344328750Y-232410000D02*
X330358750Y-232410000D01*
X330358750Y-232410000D02*
X330358750Y-218440000D01*
%TO.C,DS1*%
D10*
X379747714Y-144839630D02*
X379747714Y-143839630D01*
X379985809Y-143839630D01*
X380128666Y-143887250D01*
X380223904Y-143982488D01*
X380271523Y-144077726D01*
X380319142Y-144268202D01*
X380319142Y-144411059D01*
X380271523Y-144601535D01*
X380223904Y-144696773D01*
X380128666Y-144792011D01*
X379985809Y-144839630D01*
X379747714Y-144839630D01*
X380700095Y-144792011D02*
X380842952Y-144839630D01*
X381081047Y-144839630D01*
X381176285Y-144792011D01*
X381223904Y-144744392D01*
X381271523Y-144649154D01*
X381271523Y-144553916D01*
X381223904Y-144458678D01*
X381176285Y-144411059D01*
X381081047Y-144363440D01*
X380890571Y-144315821D01*
X380795333Y-144268202D01*
X380747714Y-144220583D01*
X380700095Y-144125345D01*
X380700095Y-144030107D01*
X380747714Y-143934869D01*
X380795333Y-143887250D01*
X380890571Y-143839630D01*
X381128666Y-143839630D01*
X381271523Y-143887250D01*
X382223904Y-144839630D02*
X381652476Y-144839630D01*
X381938190Y-144839630D02*
X381938190Y-143839630D01*
X381842952Y-143982488D01*
X381747714Y-144077726D01*
X381652476Y-144125345D01*
X385636607Y-145661011D02*
X385779464Y-145708630D01*
X386017559Y-145708630D01*
X386112797Y-145661011D01*
X386160416Y-145613392D01*
X386208035Y-145518154D01*
X386208035Y-145422916D01*
X386160416Y-145327678D01*
X386112797Y-145280059D01*
X386017559Y-145232440D01*
X385827083Y-145184821D01*
X385731845Y-145137202D01*
X385684226Y-145089583D01*
X385636607Y-144994345D01*
X385636607Y-144899107D01*
X385684226Y-144803869D01*
X385731845Y-144756250D01*
X385827083Y-144708630D01*
X386065178Y-144708630D01*
X386208035Y-144756250D01*
X386588988Y-145661011D02*
X386731845Y-145708630D01*
X386969940Y-145708630D01*
X387065178Y-145661011D01*
X387112797Y-145613392D01*
X387160416Y-145518154D01*
X387160416Y-145422916D01*
X387112797Y-145327678D01*
X387065178Y-145280059D01*
X386969940Y-145232440D01*
X386779464Y-145184821D01*
X386684226Y-145137202D01*
X386636607Y-145089583D01*
X386588988Y-144994345D01*
X386588988Y-144899107D01*
X386636607Y-144803869D01*
X386684226Y-144756250D01*
X386779464Y-144708630D01*
X387017559Y-144708630D01*
X387160416Y-144756250D01*
X387588988Y-145708630D02*
X387588988Y-144708630D01*
X387827083Y-144708630D01*
X387969940Y-144756250D01*
X388065178Y-144851488D01*
X388112797Y-144946726D01*
X388160416Y-145137202D01*
X388160416Y-145280059D01*
X388112797Y-145470535D01*
X388065178Y-145565773D01*
X387969940Y-145661011D01*
X387827083Y-145708630D01*
X387588988Y-145708630D01*
X389112797Y-145708630D02*
X388541369Y-145708630D01*
X388827083Y-145708630D02*
X388827083Y-144708630D01*
X388731845Y-144851488D01*
X388636607Y-144946726D01*
X388541369Y-144994345D01*
X389446130Y-144708630D02*
X390065178Y-144708630D01*
X389731845Y-145089583D01*
X389874702Y-145089583D01*
X389969940Y-145137202D01*
X390017559Y-145184821D01*
X390065178Y-145280059D01*
X390065178Y-145518154D01*
X390017559Y-145613392D01*
X389969940Y-145661011D01*
X389874702Y-145708630D01*
X389588988Y-145708630D01*
X389493750Y-145661011D01*
X389446130Y-145613392D01*
X390684226Y-144708630D02*
X390779464Y-144708630D01*
X390874702Y-144756250D01*
X390922321Y-144803869D01*
X390969940Y-144899107D01*
X391017559Y-145089583D01*
X391017559Y-145327678D01*
X390969940Y-145518154D01*
X390922321Y-145613392D01*
X390874702Y-145661011D01*
X390779464Y-145708630D01*
X390684226Y-145708630D01*
X390588988Y-145661011D01*
X390541369Y-145613392D01*
X390493750Y-145518154D01*
X390446130Y-145327678D01*
X390446130Y-145089583D01*
X390493750Y-144899107D01*
X390541369Y-144803869D01*
X390588988Y-144756250D01*
X390684226Y-144708630D01*
X391874702Y-144708630D02*
X391684226Y-144708630D01*
X391588988Y-144756250D01*
X391541369Y-144803869D01*
X391446130Y-144946726D01*
X391398511Y-145137202D01*
X391398511Y-145518154D01*
X391446130Y-145613392D01*
X391493750Y-145661011D01*
X391588988Y-145708630D01*
X391779464Y-145708630D01*
X391874702Y-145661011D01*
X391922321Y-145613392D01*
X391969940Y-145518154D01*
X391969940Y-145280059D01*
X391922321Y-145184821D01*
X391874702Y-145137202D01*
X391779464Y-145089583D01*
X391588988Y-145089583D01*
X391493750Y-145137202D01*
X391446130Y-145184821D01*
X391398511Y-145280059D01*
X392398511Y-145327678D02*
X393160416Y-145327678D01*
X393827083Y-144708630D02*
X393922321Y-144708630D01*
X394017559Y-144756250D01*
X394065178Y-144803869D01*
X394112797Y-144899107D01*
X394160416Y-145089583D01*
X394160416Y-145327678D01*
X394112797Y-145518154D01*
X394065178Y-145613392D01*
X394017559Y-145661011D01*
X393922321Y-145708630D01*
X393827083Y-145708630D01*
X393731845Y-145661011D01*
X393684226Y-145613392D01*
X393636607Y-145518154D01*
X393588988Y-145327678D01*
X393588988Y-145089583D01*
X393636607Y-144899107D01*
X393684226Y-144803869D01*
X393731845Y-144756250D01*
X393827083Y-144708630D01*
X394588988Y-145613392D02*
X394636607Y-145661011D01*
X394588988Y-145708630D01*
X394541369Y-145661011D01*
X394588988Y-145613392D01*
X394588988Y-145708630D01*
X395112797Y-145708630D02*
X395303273Y-145708630D01*
X395398511Y-145661011D01*
X395446130Y-145613392D01*
X395541369Y-145470535D01*
X395588988Y-145280059D01*
X395588988Y-144899107D01*
X395541369Y-144803869D01*
X395493750Y-144756250D01*
X395398511Y-144708630D01*
X395208035Y-144708630D01*
X395112797Y-144756250D01*
X395065178Y-144803869D01*
X395017559Y-144899107D01*
X395017559Y-145137202D01*
X395065178Y-145232440D01*
X395112797Y-145280059D01*
X395208035Y-145327678D01*
X395398511Y-145327678D01*
X395493750Y-145280059D01*
X395541369Y-145232440D01*
X395588988Y-145137202D01*
X396541369Y-145708630D02*
X395969940Y-145708630D01*
X396255654Y-145708630D02*
X396255654Y-144708630D01*
X396160416Y-144851488D01*
X396065178Y-144946726D01*
X395969940Y-144994345D01*
X396969940Y-145327678D02*
X397731845Y-145327678D01*
X398731845Y-145708630D02*
X398160416Y-145708630D01*
X398446130Y-145708630D02*
X398446130Y-144708630D01*
X398350892Y-144851488D01*
X398255654Y-144946726D01*
X398160416Y-144994345D01*
X399112797Y-144803869D02*
X399160416Y-144756250D01*
X399255654Y-144708630D01*
X399493750Y-144708630D01*
X399588988Y-144756250D01*
X399636607Y-144803869D01*
X399684226Y-144899107D01*
X399684226Y-144994345D01*
X399636607Y-145137202D01*
X399065178Y-145708630D01*
X399684226Y-145708630D01*
X400255654Y-145137202D02*
X400160416Y-145089583D01*
X400112797Y-145041964D01*
X400065178Y-144946726D01*
X400065178Y-144899107D01*
X400112797Y-144803869D01*
X400160416Y-144756250D01*
X400255654Y-144708630D01*
X400446130Y-144708630D01*
X400541369Y-144756250D01*
X400588988Y-144803869D01*
X400636607Y-144899107D01*
X400636607Y-144946726D01*
X400588988Y-145041964D01*
X400541369Y-145089583D01*
X400446130Y-145137202D01*
X400255654Y-145137202D01*
X400160416Y-145184821D01*
X400112797Y-145232440D01*
X400065178Y-145327678D01*
X400065178Y-145518154D01*
X400112797Y-145613392D01*
X400160416Y-145661011D01*
X400255654Y-145708630D01*
X400446130Y-145708630D01*
X400541369Y-145661011D01*
X400588988Y-145613392D01*
X400636607Y-145518154D01*
X400636607Y-145327678D01*
X400588988Y-145232440D01*
X400541369Y-145184821D01*
X400446130Y-145137202D01*
X400969940Y-145708630D02*
X401493750Y-145041964D01*
X400969940Y-145041964D02*
X401493750Y-145708630D01*
X401779464Y-144708630D02*
X402398511Y-144708630D01*
X402065178Y-145089583D01*
X402208035Y-145089583D01*
X402303273Y-145137202D01*
X402350892Y-145184821D01*
X402398511Y-145280059D01*
X402398511Y-145518154D01*
X402350892Y-145613392D01*
X402303273Y-145661011D01*
X402208035Y-145708630D01*
X401922321Y-145708630D01*
X401827083Y-145661011D01*
X401779464Y-145613392D01*
X402779464Y-144803869D02*
X402827083Y-144756250D01*
X402922321Y-144708630D01*
X403160416Y-144708630D01*
X403255654Y-144756250D01*
X403303273Y-144803869D01*
X403350892Y-144899107D01*
X403350892Y-144994345D01*
X403303273Y-145137202D01*
X402731845Y-145708630D01*
X403350892Y-145708630D01*
%TO.C,U2*%
X321270380Y-146811904D02*
X322079904Y-146811904D01*
X322175142Y-146764285D01*
X322222761Y-146716666D01*
X322270380Y-146621428D01*
X322270380Y-146430952D01*
X322222761Y-146335714D01*
X322175142Y-146288095D01*
X322079904Y-146240476D01*
X321270380Y-146240476D01*
X321365619Y-145811904D02*
X321318000Y-145764285D01*
X321270380Y-145669047D01*
X321270380Y-145430952D01*
X321318000Y-145335714D01*
X321365619Y-145288095D01*
X321460857Y-145240476D01*
X321556095Y-145240476D01*
X321698952Y-145288095D01*
X322270380Y-145859523D01*
X322270380Y-145240476D01*
%TO.C,RCtrl1*%
X388207440Y-237053380D02*
X387874107Y-236577190D01*
X387636011Y-237053380D02*
X387636011Y-236053380D01*
X388016964Y-236053380D01*
X388112202Y-236101000D01*
X388159821Y-236148619D01*
X388207440Y-236243857D01*
X388207440Y-236386714D01*
X388159821Y-236481952D01*
X388112202Y-236529571D01*
X388016964Y-236577190D01*
X387636011Y-236577190D01*
X389207440Y-236958142D02*
X389159821Y-237005761D01*
X389016964Y-237053380D01*
X388921726Y-237053380D01*
X388778869Y-237005761D01*
X388683630Y-236910523D01*
X388636011Y-236815285D01*
X388588392Y-236624809D01*
X388588392Y-236481952D01*
X388636011Y-236291476D01*
X388683630Y-236196238D01*
X388778869Y-236101000D01*
X388921726Y-236053380D01*
X389016964Y-236053380D01*
X389159821Y-236101000D01*
X389207440Y-236148619D01*
X389493154Y-236386714D02*
X389874107Y-236386714D01*
X389636011Y-236053380D02*
X389636011Y-236910523D01*
X389683630Y-237005761D01*
X389778869Y-237053380D01*
X389874107Y-237053380D01*
X390207440Y-237053380D02*
X390207440Y-236386714D01*
X390207440Y-236577190D02*
X390255059Y-236481952D01*
X390302678Y-236434333D01*
X390397916Y-236386714D01*
X390493154Y-236386714D01*
X390969345Y-237053380D02*
X390874107Y-237005761D01*
X390826488Y-236910523D01*
X390826488Y-236053380D01*
X391874107Y-237053380D02*
X391302678Y-237053380D01*
X391588392Y-237053380D02*
X391588392Y-236053380D01*
X391493154Y-236196238D01*
X391397916Y-236291476D01*
X391302678Y-236339095D01*
%TO.C,Z1*%
X203184226Y-217003380D02*
X203850892Y-217003380D01*
X203184226Y-218003380D01*
X203850892Y-218003380D01*
X204755654Y-218003380D02*
X204184226Y-218003380D01*
X204469940Y-218003380D02*
X204469940Y-217003380D01*
X204374702Y-217146238D01*
X204279464Y-217241476D01*
X204184226Y-217289095D01*
%TO.C,Y1*%
X284480059Y-179427190D02*
X284480059Y-179903380D01*
X284146726Y-178903380D02*
X284480059Y-179427190D01*
X284813392Y-178903380D01*
X285670535Y-179903380D02*
X285099107Y-179903380D01*
X285384821Y-179903380D02*
X285384821Y-178903380D01*
X285289583Y-179046238D01*
X285194345Y-179141476D01*
X285099107Y-179189095D01*
%TO.C,Y2*%
X328588690Y-146494440D02*
X329064880Y-146494440D01*
X328064880Y-146827773D02*
X328588690Y-146494440D01*
X328064880Y-146161107D01*
X328160119Y-145875392D02*
X328112500Y-145827773D01*
X328064880Y-145732535D01*
X328064880Y-145494440D01*
X328112500Y-145399202D01*
X328160119Y-145351583D01*
X328255357Y-145303964D01*
X328350595Y-145303964D01*
X328493452Y-145351583D01*
X329064880Y-145923011D01*
X329064880Y-145303964D01*
X332589880Y-147681726D02*
X332589880Y-148253154D01*
X332589880Y-147967440D02*
X331589880Y-147967440D01*
X331732738Y-148062678D01*
X331827976Y-148157916D01*
X331875595Y-148253154D01*
X331589880Y-146824583D02*
X331589880Y-147015059D01*
X331637500Y-147110297D01*
X331685119Y-147157916D01*
X331827976Y-147253154D01*
X332018452Y-147300773D01*
X332399404Y-147300773D01*
X332494642Y-147253154D01*
X332542261Y-147205535D01*
X332589880Y-147110297D01*
X332589880Y-146919821D01*
X332542261Y-146824583D01*
X332494642Y-146776964D01*
X332399404Y-146729345D01*
X332161309Y-146729345D01*
X332066071Y-146776964D01*
X332018452Y-146824583D01*
X331970833Y-146919821D01*
X331970833Y-147110297D01*
X332018452Y-147205535D01*
X332066071Y-147253154D01*
X332161309Y-147300773D01*
X332589880Y-146300773D02*
X331589880Y-146300773D01*
X332304166Y-145967440D01*
X331589880Y-145634107D01*
X332589880Y-145634107D01*
X332589880Y-145157916D02*
X331589880Y-145157916D01*
X332066071Y-145157916D02*
X332066071Y-144586488D01*
X332589880Y-144586488D02*
X331589880Y-144586488D01*
X331923214Y-144205535D02*
X331923214Y-143681726D01*
X332589880Y-144205535D01*
X332589880Y-143681726D01*
%TO.C,X1*%
X222234226Y-217003380D02*
X222900892Y-218003380D01*
X222900892Y-217003380D02*
X222234226Y-218003380D01*
X223805654Y-218003380D02*
X223234226Y-218003380D01*
X223519940Y-218003380D02*
X223519940Y-217003380D01*
X223424702Y-217146238D01*
X223329464Y-217241476D01*
X223234226Y-217289095D01*
%TO.C,Win1*%
X185729761Y-236053380D02*
X185967857Y-237053380D01*
X186158333Y-236339095D01*
X186348809Y-237053380D01*
X186586904Y-236053380D01*
X186967857Y-237053380D02*
X186967857Y-236386714D01*
X186967857Y-236053380D02*
X186920238Y-236101000D01*
X186967857Y-236148619D01*
X187015476Y-236101000D01*
X186967857Y-236053380D01*
X186967857Y-236148619D01*
X187444047Y-236386714D02*
X187444047Y-237053380D01*
X187444047Y-236481952D02*
X187491666Y-236434333D01*
X187586904Y-236386714D01*
X187729761Y-236386714D01*
X187825000Y-236434333D01*
X187872619Y-236529571D01*
X187872619Y-237053380D01*
X188872619Y-237053380D02*
X188301190Y-237053380D01*
X188586904Y-237053380D02*
X188586904Y-236053380D01*
X188491666Y-236196238D01*
X188396428Y-236291476D01*
X188301190Y-236339095D01*
%TO.C,W1*%
X207851488Y-178903380D02*
X208089583Y-179903380D01*
X208280059Y-179189095D01*
X208470535Y-179903380D01*
X208708630Y-178903380D01*
X209613392Y-179903380D02*
X209041964Y-179903380D01*
X209327678Y-179903380D02*
X209327678Y-178903380D01*
X209232440Y-179046238D01*
X209137202Y-179141476D01*
X209041964Y-179189095D01*
%TO.C,V1*%
X260334226Y-217003380D02*
X260667559Y-218003380D01*
X261000892Y-217003380D01*
X261858035Y-218003380D02*
X261286607Y-218003380D01*
X261572321Y-218003380D02*
X261572321Y-217003380D01*
X261477083Y-217146238D01*
X261381845Y-217241476D01*
X261286607Y-217289095D01*
%TO.C,U1*%
X303244345Y-178903380D02*
X303244345Y-179712904D01*
X303291964Y-179808142D01*
X303339583Y-179855761D01*
X303434821Y-179903380D01*
X303625297Y-179903380D01*
X303720535Y-179855761D01*
X303768154Y-179808142D01*
X303815773Y-179712904D01*
X303815773Y-178903380D01*
X304815773Y-179903380D02*
X304244345Y-179903380D01*
X304530059Y-179903380D02*
X304530059Y-178903380D01*
X304434821Y-179046238D01*
X304339583Y-179141476D01*
X304244345Y-179189095D01*
%TO.C,Tab1*%
X164227083Y-178903380D02*
X164798511Y-178903380D01*
X164512797Y-179903380D02*
X164512797Y-178903380D01*
X165560416Y-179903380D02*
X165560416Y-179379571D01*
X165512797Y-179284333D01*
X165417559Y-179236714D01*
X165227083Y-179236714D01*
X165131845Y-179284333D01*
X165560416Y-179855761D02*
X165465178Y-179903380D01*
X165227083Y-179903380D01*
X165131845Y-179855761D01*
X165084226Y-179760523D01*
X165084226Y-179665285D01*
X165131845Y-179570047D01*
X165227083Y-179522428D01*
X165465178Y-179522428D01*
X165560416Y-179474809D01*
X166036607Y-179903380D02*
X166036607Y-178903380D01*
X166036607Y-179284333D02*
X166131845Y-179236714D01*
X166322321Y-179236714D01*
X166417559Y-179284333D01*
X166465178Y-179331952D01*
X166512797Y-179427190D01*
X166512797Y-179712904D01*
X166465178Y-179808142D01*
X166417559Y-179855761D01*
X166322321Y-179903380D01*
X166131845Y-179903380D01*
X166036607Y-179855761D01*
X167465178Y-179903380D02*
X166893750Y-179903380D01*
X167179464Y-179903380D02*
X167179464Y-178903380D01*
X167084226Y-179046238D01*
X166988988Y-179141476D01*
X166893750Y-179189095D01*
%TO.C,T1*%
X265144345Y-178903380D02*
X265715773Y-178903380D01*
X265430059Y-179903380D02*
X265430059Y-178903380D01*
X266572916Y-179903380D02*
X266001488Y-179903380D01*
X266287202Y-179903380D02*
X266287202Y-178903380D01*
X266191964Y-179046238D01*
X266096726Y-179141476D01*
X266001488Y-179189095D01*
%TO.C,Space1*%
X280051190Y-237005761D02*
X280194047Y-237053380D01*
X280432142Y-237053380D01*
X280527380Y-237005761D01*
X280575000Y-236958142D01*
X280622619Y-236862904D01*
X280622619Y-236767666D01*
X280575000Y-236672428D01*
X280527380Y-236624809D01*
X280432142Y-236577190D01*
X280241666Y-236529571D01*
X280146428Y-236481952D01*
X280098809Y-236434333D01*
X280051190Y-236339095D01*
X280051190Y-236243857D01*
X280098809Y-236148619D01*
X280146428Y-236101000D01*
X280241666Y-236053380D01*
X280479761Y-236053380D01*
X280622619Y-236101000D01*
X281051190Y-236386714D02*
X281051190Y-237386714D01*
X281051190Y-236434333D02*
X281146428Y-236386714D01*
X281336904Y-236386714D01*
X281432142Y-236434333D01*
X281479761Y-236481952D01*
X281527380Y-236577190D01*
X281527380Y-236862904D01*
X281479761Y-236958142D01*
X281432142Y-237005761D01*
X281336904Y-237053380D01*
X281146428Y-237053380D01*
X281051190Y-237005761D01*
X282384523Y-237053380D02*
X282384523Y-236529571D01*
X282336904Y-236434333D01*
X282241666Y-236386714D01*
X282051190Y-236386714D01*
X281955952Y-236434333D01*
X282384523Y-237005761D02*
X282289285Y-237053380D01*
X282051190Y-237053380D01*
X281955952Y-237005761D01*
X281908333Y-236910523D01*
X281908333Y-236815285D01*
X281955952Y-236720047D01*
X282051190Y-236672428D01*
X282289285Y-236672428D01*
X282384523Y-236624809D01*
X283289285Y-237005761D02*
X283194047Y-237053380D01*
X283003571Y-237053380D01*
X282908333Y-237005761D01*
X282860714Y-236958142D01*
X282813095Y-236862904D01*
X282813095Y-236577190D01*
X282860714Y-236481952D01*
X282908333Y-236434333D01*
X283003571Y-236386714D01*
X283194047Y-236386714D01*
X283289285Y-236434333D01*
X284098809Y-237005761D02*
X284003571Y-237053380D01*
X283813095Y-237053380D01*
X283717857Y-237005761D01*
X283670238Y-236910523D01*
X283670238Y-236529571D01*
X283717857Y-236434333D01*
X283813095Y-236386714D01*
X284003571Y-236386714D01*
X284098809Y-236434333D01*
X284146428Y-236529571D01*
X284146428Y-236624809D01*
X283670238Y-236720047D01*
X285098809Y-237053380D02*
X284527380Y-237053380D01*
X284813095Y-237053380D02*
X284813095Y-236053380D01*
X284717857Y-236196238D01*
X284622619Y-236291476D01*
X284527380Y-236339095D01*
%TO.C,S1*%
X212756845Y-198905761D02*
X212899702Y-198953380D01*
X213137797Y-198953380D01*
X213233035Y-198905761D01*
X213280654Y-198858142D01*
X213328273Y-198762904D01*
X213328273Y-198667666D01*
X213280654Y-198572428D01*
X213233035Y-198524809D01*
X213137797Y-198477190D01*
X212947321Y-198429571D01*
X212852083Y-198381952D01*
X212804464Y-198334333D01*
X212756845Y-198239095D01*
X212756845Y-198143857D01*
X212804464Y-198048619D01*
X212852083Y-198001000D01*
X212947321Y-197953380D01*
X213185416Y-197953380D01*
X213328273Y-198001000D01*
X214280654Y-198953380D02*
X213709226Y-198953380D01*
X213994940Y-198953380D02*
X213994940Y-197953380D01*
X213899702Y-198096238D01*
X213804464Y-198191476D01*
X213709226Y-198239095D01*
%TO.C,RShift1*%
X399732738Y-218003380D02*
X399399404Y-217527190D01*
X399161309Y-218003380D02*
X399161309Y-217003380D01*
X399542261Y-217003380D01*
X399637500Y-217051000D01*
X399685119Y-217098619D01*
X399732738Y-217193857D01*
X399732738Y-217336714D01*
X399685119Y-217431952D01*
X399637500Y-217479571D01*
X399542261Y-217527190D01*
X399161309Y-217527190D01*
X400113690Y-217955761D02*
X400256547Y-218003380D01*
X400494642Y-218003380D01*
X400589880Y-217955761D01*
X400637500Y-217908142D01*
X400685119Y-217812904D01*
X400685119Y-217717666D01*
X400637500Y-217622428D01*
X400589880Y-217574809D01*
X400494642Y-217527190D01*
X400304166Y-217479571D01*
X400208928Y-217431952D01*
X400161309Y-217384333D01*
X400113690Y-217289095D01*
X400113690Y-217193857D01*
X400161309Y-217098619D01*
X400208928Y-217051000D01*
X400304166Y-217003380D01*
X400542261Y-217003380D01*
X400685119Y-217051000D01*
X401113690Y-218003380D02*
X401113690Y-217003380D01*
X401542261Y-218003380D02*
X401542261Y-217479571D01*
X401494642Y-217384333D01*
X401399404Y-217336714D01*
X401256547Y-217336714D01*
X401161309Y-217384333D01*
X401113690Y-217431952D01*
X402018452Y-218003380D02*
X402018452Y-217336714D01*
X402018452Y-217003380D02*
X401970833Y-217051000D01*
X402018452Y-217098619D01*
X402066071Y-217051000D01*
X402018452Y-217003380D01*
X402018452Y-217098619D01*
X402351785Y-217336714D02*
X402732738Y-217336714D01*
X402494642Y-218003380D02*
X402494642Y-217146238D01*
X402542261Y-217051000D01*
X402637500Y-217003380D01*
X402732738Y-217003380D01*
X402923214Y-217336714D02*
X403304166Y-217336714D01*
X403066071Y-217003380D02*
X403066071Y-217860523D01*
X403113690Y-217955761D01*
X403208928Y-218003380D01*
X403304166Y-218003380D01*
X404161309Y-218003380D02*
X403589880Y-218003380D01*
X403875595Y-218003380D02*
X403875595Y-217003380D01*
X403780357Y-217146238D01*
X403685119Y-217241476D01*
X403589880Y-217289095D01*
%TO.C,RESET1*%
X202723904Y-144978380D02*
X202390571Y-144502190D01*
X202152476Y-144978380D02*
X202152476Y-143978380D01*
X202533428Y-143978380D01*
X202628666Y-144026000D01*
X202676285Y-144073619D01*
X202723904Y-144168857D01*
X202723904Y-144311714D01*
X202676285Y-144406952D01*
X202628666Y-144454571D01*
X202533428Y-144502190D01*
X202152476Y-144502190D01*
X203533428Y-144930761D02*
X203438190Y-144978380D01*
X203247714Y-144978380D01*
X203152476Y-144930761D01*
X203104857Y-144835523D01*
X203104857Y-144454571D01*
X203152476Y-144359333D01*
X203247714Y-144311714D01*
X203438190Y-144311714D01*
X203533428Y-144359333D01*
X203581047Y-144454571D01*
X203581047Y-144549809D01*
X203104857Y-144645047D01*
X203962000Y-144930761D02*
X204057238Y-144978380D01*
X204247714Y-144978380D01*
X204342952Y-144930761D01*
X204390571Y-144835523D01*
X204390571Y-144787904D01*
X204342952Y-144692666D01*
X204247714Y-144645047D01*
X204104857Y-144645047D01*
X204009619Y-144597428D01*
X203962000Y-144502190D01*
X203962000Y-144454571D01*
X204009619Y-144359333D01*
X204104857Y-144311714D01*
X204247714Y-144311714D01*
X204342952Y-144359333D01*
X205200095Y-144930761D02*
X205104857Y-144978380D01*
X204914380Y-144978380D01*
X204819142Y-144930761D01*
X204771523Y-144835523D01*
X204771523Y-144454571D01*
X204819142Y-144359333D01*
X204914380Y-144311714D01*
X205104857Y-144311714D01*
X205200095Y-144359333D01*
X205247714Y-144454571D01*
X205247714Y-144549809D01*
X204771523Y-144645047D01*
X205533428Y-144311714D02*
X205914380Y-144311714D01*
X205676285Y-143978380D02*
X205676285Y-144835523D01*
X205723904Y-144930761D01*
X205819142Y-144978380D01*
X205914380Y-144978380D01*
%TO.C,RAlt1*%
X350488392Y-237053380D02*
X350155059Y-236577190D01*
X349916964Y-237053380D02*
X349916964Y-236053380D01*
X350297916Y-236053380D01*
X350393154Y-236101000D01*
X350440773Y-236148619D01*
X350488392Y-236243857D01*
X350488392Y-236386714D01*
X350440773Y-236481952D01*
X350393154Y-236529571D01*
X350297916Y-236577190D01*
X349916964Y-236577190D01*
X350869345Y-236767666D02*
X351345535Y-236767666D01*
X350774107Y-237053380D02*
X351107440Y-236053380D01*
X351440773Y-237053380D01*
X351916964Y-237053380D02*
X351821726Y-237005761D01*
X351774107Y-236910523D01*
X351774107Y-236053380D01*
X352155059Y-236386714D02*
X352536011Y-236386714D01*
X352297916Y-236053380D02*
X352297916Y-236910523D01*
X352345535Y-237005761D01*
X352440773Y-237053380D01*
X352536011Y-237053380D01*
X353393154Y-237053380D02*
X352821726Y-237053380D01*
X353107440Y-237053380D02*
X353107440Y-236053380D01*
X353012202Y-236196238D01*
X352916964Y-236291476D01*
X352821726Y-236339095D01*
%TO.C,R3*%
X334621130Y-146057916D02*
X334144940Y-146391250D01*
X334621130Y-146629345D02*
X333621130Y-146629345D01*
X333621130Y-146248392D01*
X333668750Y-146153154D01*
X333716369Y-146105535D01*
X333811607Y-146057916D01*
X333954464Y-146057916D01*
X334049702Y-146105535D01*
X334097321Y-146153154D01*
X334144940Y-146248392D01*
X334144940Y-146629345D01*
X333621130Y-145724583D02*
X333621130Y-145105535D01*
X334002083Y-145438869D01*
X334002083Y-145296011D01*
X334049702Y-145200773D01*
X334097321Y-145153154D01*
X334192559Y-145105535D01*
X334430654Y-145105535D01*
X334525892Y-145153154D01*
X334573511Y-145200773D01*
X334621130Y-145296011D01*
X334621130Y-145581726D01*
X334573511Y-145676964D01*
X334525892Y-145724583D01*
X335874464Y-147153154D02*
X336541130Y-147153154D01*
X335493511Y-147391250D02*
X336207797Y-147629345D01*
X336207797Y-147010297D01*
X335541130Y-146724583D02*
X335541130Y-146057916D01*
X336541130Y-146486488D01*
X335541130Y-145486488D02*
X335541130Y-145391250D01*
X335588750Y-145296011D01*
X335636369Y-145248392D01*
X335731607Y-145200773D01*
X335922083Y-145153154D01*
X336160178Y-145153154D01*
X336350654Y-145200773D01*
X336445892Y-145248392D01*
X336493511Y-145296011D01*
X336541130Y-145391250D01*
X336541130Y-145486488D01*
X336493511Y-145581726D01*
X336445892Y-145629345D01*
X336350654Y-145676964D01*
X336160178Y-145724583D01*
X335922083Y-145724583D01*
X335731607Y-145676964D01*
X335636369Y-145629345D01*
X335588750Y-145581726D01*
X335541130Y-145486488D01*
X336541130Y-144153154D02*
X336064940Y-144486488D01*
X336541130Y-144724583D02*
X335541130Y-144724583D01*
X335541130Y-144343630D01*
X335588750Y-144248392D01*
X335636369Y-144200773D01*
X335731607Y-144153154D01*
X335874464Y-144153154D01*
X335969702Y-144200773D01*
X336017321Y-144248392D01*
X336064940Y-144343630D01*
X336064940Y-144724583D01*
%TO.C,R1*%
X246689583Y-179903380D02*
X246356250Y-179427190D01*
X246118154Y-179903380D02*
X246118154Y-178903380D01*
X246499107Y-178903380D01*
X246594345Y-178951000D01*
X246641964Y-178998619D01*
X246689583Y-179093857D01*
X246689583Y-179236714D01*
X246641964Y-179331952D01*
X246594345Y-179379571D01*
X246499107Y-179427190D01*
X246118154Y-179427190D01*
X247641964Y-179903380D02*
X247070535Y-179903380D01*
X247356250Y-179903380D02*
X247356250Y-178903380D01*
X247261011Y-179046238D01*
X247165773Y-179141476D01*
X247070535Y-179189095D01*
%TO.C,R8*%
X230179583Y-146502380D02*
X229846250Y-146026190D01*
X229608154Y-146502380D02*
X229608154Y-145502380D01*
X229989107Y-145502380D01*
X230084345Y-145550000D01*
X230131964Y-145597619D01*
X230179583Y-145692857D01*
X230179583Y-145835714D01*
X230131964Y-145930952D01*
X230084345Y-145978571D01*
X229989107Y-146026190D01*
X229608154Y-146026190D01*
X230751011Y-145930952D02*
X230655773Y-145883333D01*
X230608154Y-145835714D01*
X230560535Y-145740476D01*
X230560535Y-145692857D01*
X230608154Y-145597619D01*
X230655773Y-145550000D01*
X230751011Y-145502380D01*
X230941488Y-145502380D01*
X231036726Y-145550000D01*
X231084345Y-145597619D01*
X231131964Y-145692857D01*
X231131964Y-145740476D01*
X231084345Y-145835714D01*
X231036726Y-145883333D01*
X230941488Y-145930952D01*
X230751011Y-145930952D01*
X230655773Y-145978571D01*
X230608154Y-146026190D01*
X230560535Y-146121428D01*
X230560535Y-146311904D01*
X230608154Y-146407142D01*
X230655773Y-146454761D01*
X230751011Y-146502380D01*
X230941488Y-146502380D01*
X231036726Y-146454761D01*
X231084345Y-146407142D01*
X231131964Y-146311904D01*
X231131964Y-146121428D01*
X231084345Y-146026190D01*
X231036726Y-145978571D01*
X230941488Y-145930952D01*
X234735761Y-146502380D02*
X234164333Y-146502380D01*
X234450047Y-146502380D02*
X234450047Y-145502380D01*
X234354809Y-145645238D01*
X234259571Y-145740476D01*
X234164333Y-145788095D01*
X235354809Y-145502380D02*
X235450047Y-145502380D01*
X235545285Y-145550000D01*
X235592904Y-145597619D01*
X235640523Y-145692857D01*
X235688142Y-145883333D01*
X235688142Y-146121428D01*
X235640523Y-146311904D01*
X235592904Y-146407142D01*
X235545285Y-146454761D01*
X235450047Y-146502380D01*
X235354809Y-146502380D01*
X235259571Y-146454761D01*
X235211952Y-146407142D01*
X235164333Y-146311904D01*
X235116714Y-146121428D01*
X235116714Y-145883333D01*
X235164333Y-145692857D01*
X235211952Y-145597619D01*
X235259571Y-145550000D01*
X235354809Y-145502380D01*
X236116714Y-146502380D02*
X236116714Y-145502380D01*
X236211952Y-146121428D02*
X236497666Y-146502380D01*
X236497666Y-145835714D02*
X236116714Y-146216666D01*
%TO.C,R7*%
X230179583Y-149677380D02*
X229846250Y-149201190D01*
X229608154Y-149677380D02*
X229608154Y-148677380D01*
X229989107Y-148677380D01*
X230084345Y-148725000D01*
X230131964Y-148772619D01*
X230179583Y-148867857D01*
X230179583Y-149010714D01*
X230131964Y-149105952D01*
X230084345Y-149153571D01*
X229989107Y-149201190D01*
X229608154Y-149201190D01*
X230512916Y-148677380D02*
X231179583Y-148677380D01*
X230751011Y-149677380D01*
X234545285Y-148677380D02*
X234354809Y-148677380D01*
X234259571Y-148725000D01*
X234211952Y-148772619D01*
X234116714Y-148915476D01*
X234069095Y-149105952D01*
X234069095Y-149486904D01*
X234116714Y-149582142D01*
X234164333Y-149629761D01*
X234259571Y-149677380D01*
X234450047Y-149677380D01*
X234545285Y-149629761D01*
X234592904Y-149582142D01*
X234640523Y-149486904D01*
X234640523Y-149248809D01*
X234592904Y-149153571D01*
X234545285Y-149105952D01*
X234450047Y-149058333D01*
X234259571Y-149058333D01*
X234164333Y-149105952D01*
X234116714Y-149153571D01*
X234069095Y-149248809D01*
X235211952Y-149105952D02*
X235116714Y-149058333D01*
X235069095Y-149010714D01*
X235021476Y-148915476D01*
X235021476Y-148867857D01*
X235069095Y-148772619D01*
X235116714Y-148725000D01*
X235211952Y-148677380D01*
X235402428Y-148677380D01*
X235497666Y-148725000D01*
X235545285Y-148772619D01*
X235592904Y-148867857D01*
X235592904Y-148915476D01*
X235545285Y-149010714D01*
X235497666Y-149058333D01*
X235402428Y-149105952D01*
X235211952Y-149105952D01*
X235116714Y-149153571D01*
X235069095Y-149201190D01*
X235021476Y-149296428D01*
X235021476Y-149486904D01*
X235069095Y-149582142D01*
X235116714Y-149629761D01*
X235211952Y-149677380D01*
X235402428Y-149677380D01*
X235497666Y-149629761D01*
X235545285Y-149582142D01*
X235592904Y-149486904D01*
X235592904Y-149296428D01*
X235545285Y-149201190D01*
X235497666Y-149153571D01*
X235402428Y-149105952D01*
X236592904Y-149677380D02*
X236259571Y-149201190D01*
X236021476Y-149677380D02*
X236021476Y-148677380D01*
X236402428Y-148677380D01*
X236497666Y-148725000D01*
X236545285Y-148772619D01*
X236592904Y-148867857D01*
X236592904Y-149010714D01*
X236545285Y-149105952D01*
X236497666Y-149153571D01*
X236402428Y-149201190D01*
X236021476Y-149201190D01*
%TO.C,R6*%
X230179583Y-152852380D02*
X229846250Y-152376190D01*
X229608154Y-152852380D02*
X229608154Y-151852380D01*
X229989107Y-151852380D01*
X230084345Y-151900000D01*
X230131964Y-151947619D01*
X230179583Y-152042857D01*
X230179583Y-152185714D01*
X230131964Y-152280952D01*
X230084345Y-152328571D01*
X229989107Y-152376190D01*
X229608154Y-152376190D01*
X231036726Y-151852380D02*
X230846250Y-151852380D01*
X230751011Y-151900000D01*
X230703392Y-151947619D01*
X230608154Y-152090476D01*
X230560535Y-152280952D01*
X230560535Y-152661904D01*
X230608154Y-152757142D01*
X230655773Y-152804761D01*
X230751011Y-152852380D01*
X230941488Y-152852380D01*
X231036726Y-152804761D01*
X231084345Y-152757142D01*
X231131964Y-152661904D01*
X231131964Y-152423809D01*
X231084345Y-152328571D01*
X231036726Y-152280952D01*
X230941488Y-152233333D01*
X230751011Y-152233333D01*
X230655773Y-152280952D01*
X230608154Y-152328571D01*
X230560535Y-152423809D01*
X234545285Y-151852380D02*
X234354809Y-151852380D01*
X234259571Y-151900000D01*
X234211952Y-151947619D01*
X234116714Y-152090476D01*
X234069095Y-152280952D01*
X234069095Y-152661904D01*
X234116714Y-152757142D01*
X234164333Y-152804761D01*
X234259571Y-152852380D01*
X234450047Y-152852380D01*
X234545285Y-152804761D01*
X234592904Y-152757142D01*
X234640523Y-152661904D01*
X234640523Y-152423809D01*
X234592904Y-152328571D01*
X234545285Y-152280952D01*
X234450047Y-152233333D01*
X234259571Y-152233333D01*
X234164333Y-152280952D01*
X234116714Y-152328571D01*
X234069095Y-152423809D01*
X235211952Y-152280952D02*
X235116714Y-152233333D01*
X235069095Y-152185714D01*
X235021476Y-152090476D01*
X235021476Y-152042857D01*
X235069095Y-151947619D01*
X235116714Y-151900000D01*
X235211952Y-151852380D01*
X235402428Y-151852380D01*
X235497666Y-151900000D01*
X235545285Y-151947619D01*
X235592904Y-152042857D01*
X235592904Y-152090476D01*
X235545285Y-152185714D01*
X235497666Y-152233333D01*
X235402428Y-152280952D01*
X235211952Y-152280952D01*
X235116714Y-152328571D01*
X235069095Y-152376190D01*
X235021476Y-152471428D01*
X235021476Y-152661904D01*
X235069095Y-152757142D01*
X235116714Y-152804761D01*
X235211952Y-152852380D01*
X235402428Y-152852380D01*
X235497666Y-152804761D01*
X235545285Y-152757142D01*
X235592904Y-152661904D01*
X235592904Y-152471428D01*
X235545285Y-152376190D01*
X235497666Y-152328571D01*
X235402428Y-152280952D01*
X236592904Y-152852380D02*
X236259571Y-152376190D01*
X236021476Y-152852380D02*
X236021476Y-151852380D01*
X236402428Y-151852380D01*
X236497666Y-151900000D01*
X236545285Y-151947619D01*
X236592904Y-152042857D01*
X236592904Y-152185714D01*
X236545285Y-152280952D01*
X236497666Y-152328571D01*
X236402428Y-152376190D01*
X236021476Y-152376190D01*
%TO.C,R2*%
X191285833Y-152852380D02*
X190952500Y-152376190D01*
X190714404Y-152852380D02*
X190714404Y-151852380D01*
X191095357Y-151852380D01*
X191190595Y-151900000D01*
X191238214Y-151947619D01*
X191285833Y-152042857D01*
X191285833Y-152185714D01*
X191238214Y-152280952D01*
X191190595Y-152328571D01*
X191095357Y-152376190D01*
X190714404Y-152376190D01*
X191666785Y-151947619D02*
X191714404Y-151900000D01*
X191809642Y-151852380D01*
X192047738Y-151852380D01*
X192142976Y-151900000D01*
X192190595Y-151947619D01*
X192238214Y-152042857D01*
X192238214Y-152138095D01*
X192190595Y-152280952D01*
X191619166Y-152852380D01*
X192238214Y-152852380D01*
X195699166Y-152852380D02*
X195127738Y-152852380D01*
X195413452Y-152852380D02*
X195413452Y-151852380D01*
X195318214Y-151995238D01*
X195222976Y-152090476D01*
X195127738Y-152138095D01*
X196127738Y-152757142D02*
X196175357Y-152804761D01*
X196127738Y-152852380D01*
X196080119Y-152804761D01*
X196127738Y-152757142D01*
X196127738Y-152852380D01*
X197080119Y-151852380D02*
X196603928Y-151852380D01*
X196556309Y-152328571D01*
X196603928Y-152280952D01*
X196699166Y-152233333D01*
X196937261Y-152233333D01*
X197032500Y-152280952D01*
X197080119Y-152328571D01*
X197127738Y-152423809D01*
X197127738Y-152661904D01*
X197080119Y-152757142D01*
X197032500Y-152804761D01*
X196937261Y-152852380D01*
X196699166Y-152852380D01*
X196603928Y-152804761D01*
X196556309Y-152757142D01*
X197556309Y-152852380D02*
X197556309Y-151852380D01*
X197651547Y-152471428D02*
X197937261Y-152852380D01*
X197937261Y-152185714D02*
X197556309Y-152566666D01*
%TO.C,R4*%
X202874583Y-150471130D02*
X202541250Y-149994940D01*
X202303154Y-150471130D02*
X202303154Y-149471130D01*
X202684107Y-149471130D01*
X202779345Y-149518750D01*
X202826964Y-149566369D01*
X202874583Y-149661607D01*
X202874583Y-149804464D01*
X202826964Y-149899702D01*
X202779345Y-149947321D01*
X202684107Y-149994940D01*
X202303154Y-149994940D01*
X203731726Y-149804464D02*
X203731726Y-150471130D01*
X203493630Y-149423511D02*
X203255535Y-150137797D01*
X203874583Y-150137797D01*
X207081547Y-149471130D02*
X206605357Y-149471130D01*
X206557738Y-149947321D01*
X206605357Y-149899702D01*
X206700595Y-149852083D01*
X206938690Y-149852083D01*
X207033928Y-149899702D01*
X207081547Y-149947321D01*
X207129166Y-150042559D01*
X207129166Y-150280654D01*
X207081547Y-150375892D01*
X207033928Y-150423511D01*
X206938690Y-150471130D01*
X206700595Y-150471130D01*
X206605357Y-150423511D01*
X206557738Y-150375892D01*
X207557738Y-150375892D02*
X207605357Y-150423511D01*
X207557738Y-150471130D01*
X207510119Y-150423511D01*
X207557738Y-150375892D01*
X207557738Y-150471130D01*
X208557738Y-150471130D02*
X207986309Y-150471130D01*
X208272023Y-150471130D02*
X208272023Y-149471130D01*
X208176785Y-149613988D01*
X208081547Y-149709226D01*
X207986309Y-149756845D01*
X208986309Y-150471130D02*
X208986309Y-149471130D01*
X209081547Y-150090178D02*
X209367261Y-150471130D01*
X209367261Y-149804464D02*
X208986309Y-150185416D01*
%TO.C,R5*%
X202874583Y-152852380D02*
X202541250Y-152376190D01*
X202303154Y-152852380D02*
X202303154Y-151852380D01*
X202684107Y-151852380D01*
X202779345Y-151900000D01*
X202826964Y-151947619D01*
X202874583Y-152042857D01*
X202874583Y-152185714D01*
X202826964Y-152280952D01*
X202779345Y-152328571D01*
X202684107Y-152376190D01*
X202303154Y-152376190D01*
X203779345Y-151852380D02*
X203303154Y-151852380D01*
X203255535Y-152328571D01*
X203303154Y-152280952D01*
X203398392Y-152233333D01*
X203636488Y-152233333D01*
X203731726Y-152280952D01*
X203779345Y-152328571D01*
X203826964Y-152423809D01*
X203826964Y-152661904D01*
X203779345Y-152757142D01*
X203731726Y-152804761D01*
X203636488Y-152852380D01*
X203398392Y-152852380D01*
X203303154Y-152804761D01*
X203255535Y-152757142D01*
X207081547Y-151852380D02*
X206605357Y-151852380D01*
X206557738Y-152328571D01*
X206605357Y-152280952D01*
X206700595Y-152233333D01*
X206938690Y-152233333D01*
X207033928Y-152280952D01*
X207081547Y-152328571D01*
X207129166Y-152423809D01*
X207129166Y-152661904D01*
X207081547Y-152757142D01*
X207033928Y-152804761D01*
X206938690Y-152852380D01*
X206700595Y-152852380D01*
X206605357Y-152804761D01*
X206557738Y-152757142D01*
X207557738Y-152757142D02*
X207605357Y-152804761D01*
X207557738Y-152852380D01*
X207510119Y-152804761D01*
X207557738Y-152757142D01*
X207557738Y-152852380D01*
X208557738Y-152852380D02*
X207986309Y-152852380D01*
X208272023Y-152852380D02*
X208272023Y-151852380D01*
X208176785Y-151995238D01*
X208081547Y-152090476D01*
X207986309Y-152138095D01*
X208986309Y-152852380D02*
X208986309Y-151852380D01*
X209081547Y-152471428D02*
X209367261Y-152852380D01*
X209367261Y-152185714D02*
X208986309Y-152566666D01*
%TO.C,Q1*%
X189611011Y-179998619D02*
X189515773Y-179951000D01*
X189420535Y-179855761D01*
X189277678Y-179712904D01*
X189182440Y-179665285D01*
X189087202Y-179665285D01*
X189134821Y-179903380D02*
X189039583Y-179855761D01*
X188944345Y-179760523D01*
X188896726Y-179570047D01*
X188896726Y-179236714D01*
X188944345Y-179046238D01*
X189039583Y-178951000D01*
X189134821Y-178903380D01*
X189325297Y-178903380D01*
X189420535Y-178951000D01*
X189515773Y-179046238D01*
X189563392Y-179236714D01*
X189563392Y-179570047D01*
X189515773Y-179760523D01*
X189420535Y-179855761D01*
X189325297Y-179903380D01*
X189134821Y-179903380D01*
X190515773Y-179903380D02*
X189944345Y-179903380D01*
X190230059Y-179903380D02*
X190230059Y-178903380D01*
X190134821Y-179046238D01*
X190039583Y-179141476D01*
X189944345Y-179189095D01*
%TO.C,PgUp1*%
X444714583Y-198953380D02*
X444714583Y-197953380D01*
X445095535Y-197953380D01*
X445190773Y-198001000D01*
X445238392Y-198048619D01*
X445286011Y-198143857D01*
X445286011Y-198286714D01*
X445238392Y-198381952D01*
X445190773Y-198429571D01*
X445095535Y-198477190D01*
X444714583Y-198477190D01*
X446143154Y-198286714D02*
X446143154Y-199096238D01*
X446095535Y-199191476D01*
X446047916Y-199239095D01*
X445952678Y-199286714D01*
X445809821Y-199286714D01*
X445714583Y-199239095D01*
X446143154Y-198905761D02*
X446047916Y-198953380D01*
X445857440Y-198953380D01*
X445762202Y-198905761D01*
X445714583Y-198858142D01*
X445666964Y-198762904D01*
X445666964Y-198477190D01*
X445714583Y-198381952D01*
X445762202Y-198334333D01*
X445857440Y-198286714D01*
X446047916Y-198286714D01*
X446143154Y-198334333D01*
X446619345Y-197953380D02*
X446619345Y-198762904D01*
X446666964Y-198858142D01*
X446714583Y-198905761D01*
X446809821Y-198953380D01*
X447000297Y-198953380D01*
X447095535Y-198905761D01*
X447143154Y-198858142D01*
X447190773Y-198762904D01*
X447190773Y-197953380D01*
X447666964Y-198286714D02*
X447666964Y-199286714D01*
X447666964Y-198334333D02*
X447762202Y-198286714D01*
X447952678Y-198286714D01*
X448047916Y-198334333D01*
X448095535Y-198381952D01*
X448143154Y-198477190D01*
X448143154Y-198762904D01*
X448095535Y-198858142D01*
X448047916Y-198905761D01*
X447952678Y-198953380D01*
X447762202Y-198953380D01*
X447666964Y-198905761D01*
X449095535Y-198953380D02*
X448524107Y-198953380D01*
X448809821Y-198953380D02*
X448809821Y-197953380D01*
X448714583Y-198096238D01*
X448619345Y-198191476D01*
X448524107Y-198239095D01*
%TO.C,PgDw1*%
X444666964Y-218003380D02*
X444666964Y-217003380D01*
X445047916Y-217003380D01*
X445143154Y-217051000D01*
X445190773Y-217098619D01*
X445238392Y-217193857D01*
X445238392Y-217336714D01*
X445190773Y-217431952D01*
X445143154Y-217479571D01*
X445047916Y-217527190D01*
X444666964Y-217527190D01*
X446095535Y-217336714D02*
X446095535Y-218146238D01*
X446047916Y-218241476D01*
X446000297Y-218289095D01*
X445905059Y-218336714D01*
X445762202Y-218336714D01*
X445666964Y-218289095D01*
X446095535Y-217955761D02*
X446000297Y-218003380D01*
X445809821Y-218003380D01*
X445714583Y-217955761D01*
X445666964Y-217908142D01*
X445619345Y-217812904D01*
X445619345Y-217527190D01*
X445666964Y-217431952D01*
X445714583Y-217384333D01*
X445809821Y-217336714D01*
X446000297Y-217336714D01*
X446095535Y-217384333D01*
X446571726Y-218003380D02*
X446571726Y-217003380D01*
X446809821Y-217003380D01*
X446952678Y-217051000D01*
X447047916Y-217146238D01*
X447095535Y-217241476D01*
X447143154Y-217431952D01*
X447143154Y-217574809D01*
X447095535Y-217765285D01*
X447047916Y-217860523D01*
X446952678Y-217955761D01*
X446809821Y-218003380D01*
X446571726Y-218003380D01*
X447476488Y-217336714D02*
X447666964Y-218003380D01*
X447857440Y-217527190D01*
X448047916Y-218003380D01*
X448238392Y-217336714D01*
X449143154Y-218003380D02*
X448571726Y-218003380D01*
X448857440Y-218003380D02*
X448857440Y-217003380D01*
X448762202Y-217146238D01*
X448666964Y-217241476D01*
X448571726Y-217289095D01*
%TO.C,P1*%
X360418154Y-179903380D02*
X360418154Y-178903380D01*
X360799107Y-178903380D01*
X360894345Y-178951000D01*
X360941964Y-178998619D01*
X360989583Y-179093857D01*
X360989583Y-179236714D01*
X360941964Y-179331952D01*
X360894345Y-179379571D01*
X360799107Y-179427190D01*
X360418154Y-179427190D01*
X361941964Y-179903380D02*
X361370535Y-179903380D01*
X361656250Y-179903380D02*
X361656250Y-178903380D01*
X361561011Y-179046238D01*
X361465773Y-179141476D01*
X361370535Y-179189095D01*
%TO.C,O1*%
X341534821Y-178903380D02*
X341725297Y-178903380D01*
X341820535Y-178951000D01*
X341915773Y-179046238D01*
X341963392Y-179236714D01*
X341963392Y-179570047D01*
X341915773Y-179760523D01*
X341820535Y-179855761D01*
X341725297Y-179903380D01*
X341534821Y-179903380D01*
X341439583Y-179855761D01*
X341344345Y-179760523D01*
X341296726Y-179570047D01*
X341296726Y-179236714D01*
X341344345Y-179046238D01*
X341439583Y-178951000D01*
X341534821Y-178903380D01*
X342915773Y-179903380D02*
X342344345Y-179903380D01*
X342630059Y-179903380D02*
X342630059Y-178903380D01*
X342534821Y-179046238D01*
X342439583Y-179141476D01*
X342344345Y-179189095D01*
%TO.C,Num10*%
X349274107Y-160853380D02*
X349274107Y-159853380D01*
X349845535Y-160853380D01*
X349845535Y-159853380D01*
X350750297Y-160186714D02*
X350750297Y-160853380D01*
X350321726Y-160186714D02*
X350321726Y-160710523D01*
X350369345Y-160805761D01*
X350464583Y-160853380D01*
X350607440Y-160853380D01*
X350702678Y-160805761D01*
X350750297Y-160758142D01*
X351226488Y-160853380D02*
X351226488Y-160186714D01*
X351226488Y-160281952D02*
X351274107Y-160234333D01*
X351369345Y-160186714D01*
X351512202Y-160186714D01*
X351607440Y-160234333D01*
X351655059Y-160329571D01*
X351655059Y-160853380D01*
X351655059Y-160329571D02*
X351702678Y-160234333D01*
X351797916Y-160186714D01*
X351940773Y-160186714D01*
X352036011Y-160234333D01*
X352083630Y-160329571D01*
X352083630Y-160853380D01*
X353083630Y-160853380D02*
X352512202Y-160853380D01*
X352797916Y-160853380D02*
X352797916Y-159853380D01*
X352702678Y-159996238D01*
X352607440Y-160091476D01*
X352512202Y-160139095D01*
X353702678Y-159853380D02*
X353797916Y-159853380D01*
X353893154Y-159901000D01*
X353940773Y-159948619D01*
X353988392Y-160043857D01*
X354036011Y-160234333D01*
X354036011Y-160472428D01*
X353988392Y-160662904D01*
X353940773Y-160758142D01*
X353893154Y-160805761D01*
X353797916Y-160853380D01*
X353702678Y-160853380D01*
X353607440Y-160805761D01*
X353559821Y-160758142D01*
X353512202Y-160662904D01*
X353464583Y-160472428D01*
X353464583Y-160234333D01*
X353512202Y-160043857D01*
X353559821Y-159948619D01*
X353607440Y-159901000D01*
X353702678Y-159853380D01*
%TO.C,Num9*%
X330700297Y-160853380D02*
X330700297Y-159853380D01*
X331271726Y-160853380D01*
X331271726Y-159853380D01*
X332176488Y-160186714D02*
X332176488Y-160853380D01*
X331747916Y-160186714D02*
X331747916Y-160710523D01*
X331795535Y-160805761D01*
X331890773Y-160853380D01*
X332033630Y-160853380D01*
X332128869Y-160805761D01*
X332176488Y-160758142D01*
X332652678Y-160853380D02*
X332652678Y-160186714D01*
X332652678Y-160281952D02*
X332700297Y-160234333D01*
X332795535Y-160186714D01*
X332938392Y-160186714D01*
X333033630Y-160234333D01*
X333081250Y-160329571D01*
X333081250Y-160853380D01*
X333081250Y-160329571D02*
X333128869Y-160234333D01*
X333224107Y-160186714D01*
X333366964Y-160186714D01*
X333462202Y-160234333D01*
X333509821Y-160329571D01*
X333509821Y-160853380D01*
X334033630Y-160853380D02*
X334224107Y-160853380D01*
X334319345Y-160805761D01*
X334366964Y-160758142D01*
X334462202Y-160615285D01*
X334509821Y-160424809D01*
X334509821Y-160043857D01*
X334462202Y-159948619D01*
X334414583Y-159901000D01*
X334319345Y-159853380D01*
X334128869Y-159853380D01*
X334033630Y-159901000D01*
X333986011Y-159948619D01*
X333938392Y-160043857D01*
X333938392Y-160281952D01*
X333986011Y-160377190D01*
X334033630Y-160424809D01*
X334128869Y-160472428D01*
X334319345Y-160472428D01*
X334414583Y-160424809D01*
X334462202Y-160377190D01*
X334509821Y-160281952D01*
%TO.C,Num8*%
X311650297Y-160853380D02*
X311650297Y-159853380D01*
X312221726Y-160853380D01*
X312221726Y-159853380D01*
X313126488Y-160186714D02*
X313126488Y-160853380D01*
X312697916Y-160186714D02*
X312697916Y-160710523D01*
X312745535Y-160805761D01*
X312840773Y-160853380D01*
X312983630Y-160853380D01*
X313078869Y-160805761D01*
X313126488Y-160758142D01*
X313602678Y-160853380D02*
X313602678Y-160186714D01*
X313602678Y-160281952D02*
X313650297Y-160234333D01*
X313745535Y-160186714D01*
X313888392Y-160186714D01*
X313983630Y-160234333D01*
X314031250Y-160329571D01*
X314031250Y-160853380D01*
X314031250Y-160329571D02*
X314078869Y-160234333D01*
X314174107Y-160186714D01*
X314316964Y-160186714D01*
X314412202Y-160234333D01*
X314459821Y-160329571D01*
X314459821Y-160853380D01*
X315078869Y-160281952D02*
X314983630Y-160234333D01*
X314936011Y-160186714D01*
X314888392Y-160091476D01*
X314888392Y-160043857D01*
X314936011Y-159948619D01*
X314983630Y-159901000D01*
X315078869Y-159853380D01*
X315269345Y-159853380D01*
X315364583Y-159901000D01*
X315412202Y-159948619D01*
X315459821Y-160043857D01*
X315459821Y-160091476D01*
X315412202Y-160186714D01*
X315364583Y-160234333D01*
X315269345Y-160281952D01*
X315078869Y-160281952D01*
X314983630Y-160329571D01*
X314936011Y-160377190D01*
X314888392Y-160472428D01*
X314888392Y-160662904D01*
X314936011Y-160758142D01*
X314983630Y-160805761D01*
X315078869Y-160853380D01*
X315269345Y-160853380D01*
X315364583Y-160805761D01*
X315412202Y-160758142D01*
X315459821Y-160662904D01*
X315459821Y-160472428D01*
X315412202Y-160377190D01*
X315364583Y-160329571D01*
X315269345Y-160281952D01*
%TO.C,Num7*%
X292600297Y-160853380D02*
X292600297Y-159853380D01*
X293171726Y-160853380D01*
X293171726Y-159853380D01*
X294076488Y-160186714D02*
X294076488Y-160853380D01*
X293647916Y-160186714D02*
X293647916Y-160710523D01*
X293695535Y-160805761D01*
X293790773Y-160853380D01*
X293933630Y-160853380D01*
X294028869Y-160805761D01*
X294076488Y-160758142D01*
X294552678Y-160853380D02*
X294552678Y-160186714D01*
X294552678Y-160281952D02*
X294600297Y-160234333D01*
X294695535Y-160186714D01*
X294838392Y-160186714D01*
X294933630Y-160234333D01*
X294981250Y-160329571D01*
X294981250Y-160853380D01*
X294981250Y-160329571D02*
X295028869Y-160234333D01*
X295124107Y-160186714D01*
X295266964Y-160186714D01*
X295362202Y-160234333D01*
X295409821Y-160329571D01*
X295409821Y-160853380D01*
X295790773Y-159853380D02*
X296457440Y-159853380D01*
X296028869Y-160853380D01*
%TO.C,Num6*%
X273550297Y-160853380D02*
X273550297Y-159853380D01*
X274121726Y-160853380D01*
X274121726Y-159853380D01*
X275026488Y-160186714D02*
X275026488Y-160853380D01*
X274597916Y-160186714D02*
X274597916Y-160710523D01*
X274645535Y-160805761D01*
X274740773Y-160853380D01*
X274883630Y-160853380D01*
X274978869Y-160805761D01*
X275026488Y-160758142D01*
X275502678Y-160853380D02*
X275502678Y-160186714D01*
X275502678Y-160281952D02*
X275550297Y-160234333D01*
X275645535Y-160186714D01*
X275788392Y-160186714D01*
X275883630Y-160234333D01*
X275931250Y-160329571D01*
X275931250Y-160853380D01*
X275931250Y-160329571D02*
X275978869Y-160234333D01*
X276074107Y-160186714D01*
X276216964Y-160186714D01*
X276312202Y-160234333D01*
X276359821Y-160329571D01*
X276359821Y-160853380D01*
X277264583Y-159853380D02*
X277074107Y-159853380D01*
X276978869Y-159901000D01*
X276931250Y-159948619D01*
X276836011Y-160091476D01*
X276788392Y-160281952D01*
X276788392Y-160662904D01*
X276836011Y-160758142D01*
X276883630Y-160805761D01*
X276978869Y-160853380D01*
X277169345Y-160853380D01*
X277264583Y-160805761D01*
X277312202Y-160758142D01*
X277359821Y-160662904D01*
X277359821Y-160424809D01*
X277312202Y-160329571D01*
X277264583Y-160281952D01*
X277169345Y-160234333D01*
X276978869Y-160234333D01*
X276883630Y-160281952D01*
X276836011Y-160329571D01*
X276788392Y-160424809D01*
%TO.C,Num5*%
X254500297Y-160853380D02*
X254500297Y-159853380D01*
X255071726Y-160853380D01*
X255071726Y-159853380D01*
X255976488Y-160186714D02*
X255976488Y-160853380D01*
X255547916Y-160186714D02*
X255547916Y-160710523D01*
X255595535Y-160805761D01*
X255690773Y-160853380D01*
X255833630Y-160853380D01*
X255928869Y-160805761D01*
X255976488Y-160758142D01*
X256452678Y-160853380D02*
X256452678Y-160186714D01*
X256452678Y-160281952D02*
X256500297Y-160234333D01*
X256595535Y-160186714D01*
X256738392Y-160186714D01*
X256833630Y-160234333D01*
X256881250Y-160329571D01*
X256881250Y-160853380D01*
X256881250Y-160329571D02*
X256928869Y-160234333D01*
X257024107Y-160186714D01*
X257166964Y-160186714D01*
X257262202Y-160234333D01*
X257309821Y-160329571D01*
X257309821Y-160853380D01*
X258262202Y-159853380D02*
X257786011Y-159853380D01*
X257738392Y-160329571D01*
X257786011Y-160281952D01*
X257881250Y-160234333D01*
X258119345Y-160234333D01*
X258214583Y-160281952D01*
X258262202Y-160329571D01*
X258309821Y-160424809D01*
X258309821Y-160662904D01*
X258262202Y-160758142D01*
X258214583Y-160805761D01*
X258119345Y-160853380D01*
X257881250Y-160853380D01*
X257786011Y-160805761D01*
X257738392Y-160758142D01*
%TO.C,Num4*%
X235450297Y-160853380D02*
X235450297Y-159853380D01*
X236021726Y-160853380D01*
X236021726Y-159853380D01*
X236926488Y-160186714D02*
X236926488Y-160853380D01*
X236497916Y-160186714D02*
X236497916Y-160710523D01*
X236545535Y-160805761D01*
X236640773Y-160853380D01*
X236783630Y-160853380D01*
X236878869Y-160805761D01*
X236926488Y-160758142D01*
X237402678Y-160853380D02*
X237402678Y-160186714D01*
X237402678Y-160281952D02*
X237450297Y-160234333D01*
X237545535Y-160186714D01*
X237688392Y-160186714D01*
X237783630Y-160234333D01*
X237831250Y-160329571D01*
X237831250Y-160853380D01*
X237831250Y-160329571D02*
X237878869Y-160234333D01*
X237974107Y-160186714D01*
X238116964Y-160186714D01*
X238212202Y-160234333D01*
X238259821Y-160329571D01*
X238259821Y-160853380D01*
X239164583Y-160186714D02*
X239164583Y-160853380D01*
X238926488Y-159805761D02*
X238688392Y-160520047D01*
X239307440Y-160520047D01*
%TO.C,Num3*%
X216400297Y-160853380D02*
X216400297Y-159853380D01*
X216971726Y-160853380D01*
X216971726Y-159853380D01*
X217876488Y-160186714D02*
X217876488Y-160853380D01*
X217447916Y-160186714D02*
X217447916Y-160710523D01*
X217495535Y-160805761D01*
X217590773Y-160853380D01*
X217733630Y-160853380D01*
X217828869Y-160805761D01*
X217876488Y-160758142D01*
X218352678Y-160853380D02*
X218352678Y-160186714D01*
X218352678Y-160281952D02*
X218400297Y-160234333D01*
X218495535Y-160186714D01*
X218638392Y-160186714D01*
X218733630Y-160234333D01*
X218781250Y-160329571D01*
X218781250Y-160853380D01*
X218781250Y-160329571D02*
X218828869Y-160234333D01*
X218924107Y-160186714D01*
X219066964Y-160186714D01*
X219162202Y-160234333D01*
X219209821Y-160329571D01*
X219209821Y-160853380D01*
X219590773Y-159853380D02*
X220209821Y-159853380D01*
X219876488Y-160234333D01*
X220019345Y-160234333D01*
X220114583Y-160281952D01*
X220162202Y-160329571D01*
X220209821Y-160424809D01*
X220209821Y-160662904D01*
X220162202Y-160758142D01*
X220114583Y-160805761D01*
X220019345Y-160853380D01*
X219733630Y-160853380D01*
X219638392Y-160805761D01*
X219590773Y-160758142D01*
%TO.C,Num2*%
X197350297Y-160853380D02*
X197350297Y-159853380D01*
X197921726Y-160853380D01*
X197921726Y-159853380D01*
X198826488Y-160186714D02*
X198826488Y-160853380D01*
X198397916Y-160186714D02*
X198397916Y-160710523D01*
X198445535Y-160805761D01*
X198540773Y-160853380D01*
X198683630Y-160853380D01*
X198778869Y-160805761D01*
X198826488Y-160758142D01*
X199302678Y-160853380D02*
X199302678Y-160186714D01*
X199302678Y-160281952D02*
X199350297Y-160234333D01*
X199445535Y-160186714D01*
X199588392Y-160186714D01*
X199683630Y-160234333D01*
X199731250Y-160329571D01*
X199731250Y-160853380D01*
X199731250Y-160329571D02*
X199778869Y-160234333D01*
X199874107Y-160186714D01*
X200016964Y-160186714D01*
X200112202Y-160234333D01*
X200159821Y-160329571D01*
X200159821Y-160853380D01*
X200588392Y-159948619D02*
X200636011Y-159901000D01*
X200731250Y-159853380D01*
X200969345Y-159853380D01*
X201064583Y-159901000D01*
X201112202Y-159948619D01*
X201159821Y-160043857D01*
X201159821Y-160139095D01*
X201112202Y-160281952D01*
X200540773Y-160853380D01*
X201159821Y-160853380D01*
%TO.C,Num1*%
X178300297Y-160853380D02*
X178300297Y-159853380D01*
X178871726Y-160853380D01*
X178871726Y-159853380D01*
X179776488Y-160186714D02*
X179776488Y-160853380D01*
X179347916Y-160186714D02*
X179347916Y-160710523D01*
X179395535Y-160805761D01*
X179490773Y-160853380D01*
X179633630Y-160853380D01*
X179728869Y-160805761D01*
X179776488Y-160758142D01*
X180252678Y-160853380D02*
X180252678Y-160186714D01*
X180252678Y-160281952D02*
X180300297Y-160234333D01*
X180395535Y-160186714D01*
X180538392Y-160186714D01*
X180633630Y-160234333D01*
X180681250Y-160329571D01*
X180681250Y-160853380D01*
X180681250Y-160329571D02*
X180728869Y-160234333D01*
X180824107Y-160186714D01*
X180966964Y-160186714D01*
X181062202Y-160234333D01*
X181109821Y-160329571D01*
X181109821Y-160853380D01*
X182109821Y-160853380D02*
X181538392Y-160853380D01*
X181824107Y-160853380D02*
X181824107Y-159853380D01*
X181728869Y-159996238D01*
X181633630Y-160091476D01*
X181538392Y-160139095D01*
%TO.C,N1*%
X298481845Y-218003380D02*
X298481845Y-217003380D01*
X299053273Y-218003380D01*
X299053273Y-217003380D01*
X300053273Y-218003380D02*
X299481845Y-218003380D01*
X299767559Y-218003380D02*
X299767559Y-217003380D01*
X299672321Y-217146238D01*
X299577083Y-217241476D01*
X299481845Y-217289095D01*
%TO.C,M1*%
X317484226Y-218003380D02*
X317484226Y-217003380D01*
X317817559Y-217717666D01*
X318150892Y-217003380D01*
X318150892Y-218003380D01*
X319150892Y-218003380D02*
X318579464Y-218003380D01*
X318865178Y-218003380D02*
X318865178Y-217003380D01*
X318769940Y-217146238D01*
X318674702Y-217241476D01*
X318579464Y-217289095D01*
%TO.C,LShift1*%
X171132738Y-218003380D02*
X170656547Y-218003380D01*
X170656547Y-217003380D01*
X171418452Y-217955761D02*
X171561309Y-218003380D01*
X171799404Y-218003380D01*
X171894642Y-217955761D01*
X171942261Y-217908142D01*
X171989880Y-217812904D01*
X171989880Y-217717666D01*
X171942261Y-217622428D01*
X171894642Y-217574809D01*
X171799404Y-217527190D01*
X171608928Y-217479571D01*
X171513690Y-217431952D01*
X171466071Y-217384333D01*
X171418452Y-217289095D01*
X171418452Y-217193857D01*
X171466071Y-217098619D01*
X171513690Y-217051000D01*
X171608928Y-217003380D01*
X171847023Y-217003380D01*
X171989880Y-217051000D01*
X172418452Y-218003380D02*
X172418452Y-217003380D01*
X172847023Y-218003380D02*
X172847023Y-217479571D01*
X172799404Y-217384333D01*
X172704166Y-217336714D01*
X172561309Y-217336714D01*
X172466071Y-217384333D01*
X172418452Y-217431952D01*
X173323214Y-218003380D02*
X173323214Y-217336714D01*
X173323214Y-217003380D02*
X173275595Y-217051000D01*
X173323214Y-217098619D01*
X173370833Y-217051000D01*
X173323214Y-217003380D01*
X173323214Y-217098619D01*
X173656547Y-217336714D02*
X174037500Y-217336714D01*
X173799404Y-218003380D02*
X173799404Y-217146238D01*
X173847023Y-217051000D01*
X173942261Y-217003380D01*
X174037500Y-217003380D01*
X174227976Y-217336714D02*
X174608928Y-217336714D01*
X174370833Y-217003380D02*
X174370833Y-217860523D01*
X174418452Y-217955761D01*
X174513690Y-218003380D01*
X174608928Y-218003380D01*
X175466071Y-218003380D02*
X174894642Y-218003380D01*
X175180357Y-218003380D02*
X175180357Y-217003380D01*
X175085119Y-217146238D01*
X174989880Y-217241476D01*
X174894642Y-217289095D01*
%TO.C,LCtrl1*%
X161988690Y-237053380D02*
X161512500Y-237053380D01*
X161512500Y-236053380D01*
X162893452Y-236958142D02*
X162845833Y-237005761D01*
X162702976Y-237053380D01*
X162607738Y-237053380D01*
X162464880Y-237005761D01*
X162369642Y-236910523D01*
X162322023Y-236815285D01*
X162274404Y-236624809D01*
X162274404Y-236481952D01*
X162322023Y-236291476D01*
X162369642Y-236196238D01*
X162464880Y-236101000D01*
X162607738Y-236053380D01*
X162702976Y-236053380D01*
X162845833Y-236101000D01*
X162893452Y-236148619D01*
X163179166Y-236386714D02*
X163560119Y-236386714D01*
X163322023Y-236053380D02*
X163322023Y-236910523D01*
X163369642Y-237005761D01*
X163464880Y-237053380D01*
X163560119Y-237053380D01*
X163893452Y-237053380D02*
X163893452Y-236386714D01*
X163893452Y-236577190D02*
X163941071Y-236481952D01*
X163988690Y-236434333D01*
X164083928Y-236386714D01*
X164179166Y-236386714D01*
X164655357Y-237053380D02*
X164560119Y-237005761D01*
X164512500Y-236910523D01*
X164512500Y-236053380D01*
X165560119Y-237053380D02*
X164988690Y-237053380D01*
X165274404Y-237053380D02*
X165274404Y-236053380D01*
X165179166Y-236196238D01*
X165083928Y-236291476D01*
X164988690Y-236339095D01*
%TO.C,LAlt1*%
X209994642Y-237053380D02*
X209518452Y-237053380D01*
X209518452Y-236053380D01*
X210280357Y-236767666D02*
X210756547Y-236767666D01*
X210185119Y-237053380D02*
X210518452Y-236053380D01*
X210851785Y-237053380D01*
X211327976Y-237053380D02*
X211232738Y-237005761D01*
X211185119Y-236910523D01*
X211185119Y-236053380D01*
X211566071Y-236386714D02*
X211947023Y-236386714D01*
X211708928Y-236053380D02*
X211708928Y-236910523D01*
X211756547Y-237005761D01*
X211851785Y-237053380D01*
X211947023Y-237053380D01*
X212804166Y-237053380D02*
X212232738Y-237053380D01*
X212518452Y-237053380D02*
X212518452Y-236053380D01*
X212423214Y-236196238D01*
X212327976Y-236291476D01*
X212232738Y-236339095D01*
%TO.C,L1*%
X346702083Y-198953380D02*
X346225892Y-198953380D01*
X346225892Y-197953380D01*
X347559226Y-198953380D02*
X346987797Y-198953380D01*
X347273511Y-198953380D02*
X347273511Y-197953380D01*
X347178273Y-198096238D01*
X347083035Y-198191476D01*
X346987797Y-198239095D01*
%TO.C,K1*%
X327080654Y-198953380D02*
X327080654Y-197953380D01*
X327652083Y-198953380D02*
X327223511Y-198381952D01*
X327652083Y-197953380D02*
X327080654Y-198524809D01*
X328604464Y-198953380D02*
X328033035Y-198953380D01*
X328318750Y-198953380D02*
X328318750Y-197953380D01*
X328223511Y-198096238D01*
X328128273Y-198191476D01*
X328033035Y-198239095D01*
%TO.C,J1*%
X308435416Y-197953380D02*
X308435416Y-198667666D01*
X308387797Y-198810523D01*
X308292559Y-198905761D01*
X308149702Y-198953380D01*
X308054464Y-198953380D01*
X309435416Y-198953380D02*
X308863988Y-198953380D01*
X309149702Y-198953380D02*
X309149702Y-197953380D01*
X309054464Y-198096238D01*
X308959226Y-198191476D01*
X308863988Y-198239095D01*
%TO.C,I1*%
X322580059Y-179903380D02*
X322580059Y-178903380D01*
X323580059Y-179903380D02*
X323008630Y-179903380D01*
X323294345Y-179903380D02*
X323294345Y-178903380D01*
X323199107Y-179046238D01*
X323103869Y-179141476D01*
X323008630Y-179189095D01*
%TO.C,H1*%
X288956845Y-198953380D02*
X288956845Y-197953380D01*
X288956845Y-198429571D02*
X289528273Y-198429571D01*
X289528273Y-198953380D02*
X289528273Y-197953380D01*
X290528273Y-198953380D02*
X289956845Y-198953380D01*
X290242559Y-198953380D02*
X290242559Y-197953380D01*
X290147321Y-198096238D01*
X290052083Y-198191476D01*
X289956845Y-198239095D01*
%TO.C,G1*%
X270454464Y-198001000D02*
X270359226Y-197953380D01*
X270216369Y-197953380D01*
X270073511Y-198001000D01*
X269978273Y-198096238D01*
X269930654Y-198191476D01*
X269883035Y-198381952D01*
X269883035Y-198524809D01*
X269930654Y-198715285D01*
X269978273Y-198810523D01*
X270073511Y-198905761D01*
X270216369Y-198953380D01*
X270311607Y-198953380D01*
X270454464Y-198905761D01*
X270502083Y-198858142D01*
X270502083Y-198524809D01*
X270311607Y-198524809D01*
X271454464Y-198953380D02*
X270883035Y-198953380D01*
X271168750Y-198953380D02*
X271168750Y-197953380D01*
X271073511Y-198096238D01*
X270978273Y-198191476D01*
X270883035Y-198239095D01*
%TO.C,Func1*%
X369014583Y-236529571D02*
X368681250Y-236529571D01*
X368681250Y-237053380D02*
X368681250Y-236053380D01*
X369157440Y-236053380D01*
X369966964Y-236386714D02*
X369966964Y-237053380D01*
X369538392Y-236386714D02*
X369538392Y-236910523D01*
X369586011Y-237005761D01*
X369681250Y-237053380D01*
X369824107Y-237053380D01*
X369919345Y-237005761D01*
X369966964Y-236958142D01*
X370443154Y-236386714D02*
X370443154Y-237053380D01*
X370443154Y-236481952D02*
X370490773Y-236434333D01*
X370586011Y-236386714D01*
X370728869Y-236386714D01*
X370824107Y-236434333D01*
X370871726Y-236529571D01*
X370871726Y-237053380D01*
X371776488Y-237005761D02*
X371681250Y-237053380D01*
X371490773Y-237053380D01*
X371395535Y-237005761D01*
X371347916Y-236958142D01*
X371300297Y-236862904D01*
X371300297Y-236577190D01*
X371347916Y-236481952D01*
X371395535Y-236434333D01*
X371490773Y-236386714D01*
X371681250Y-236386714D01*
X371776488Y-236434333D01*
X372728869Y-237053380D02*
X372157440Y-237053380D01*
X372443154Y-237053380D02*
X372443154Y-236053380D01*
X372347916Y-236196238D01*
X372252678Y-236291476D01*
X372157440Y-236339095D01*
%TO.C,F1*%
X251285416Y-198429571D02*
X250952083Y-198429571D01*
X250952083Y-198953380D02*
X250952083Y-197953380D01*
X251428273Y-197953380D01*
X252333035Y-198953380D02*
X251761607Y-198953380D01*
X252047321Y-198953380D02*
X252047321Y-197953380D01*
X251952083Y-198096238D01*
X251856845Y-198191476D01*
X251761607Y-198239095D01*
%TO.C,F2*%
X172172321Y-147177083D02*
X172172321Y-147510416D01*
X172696130Y-147510416D02*
X171696130Y-147510416D01*
X171696130Y-147034226D01*
X171791369Y-146700892D02*
X171743750Y-146653273D01*
X171696130Y-146558035D01*
X171696130Y-146319940D01*
X171743750Y-146224702D01*
X171791369Y-146177083D01*
X171886607Y-146129464D01*
X171981845Y-146129464D01*
X172124702Y-146177083D01*
X172696130Y-146748511D01*
X172696130Y-146129464D01*
X173283630Y-149447023D02*
X173283630Y-149923214D01*
X173759821Y-149970833D01*
X173712202Y-149923214D01*
X173664583Y-149827976D01*
X173664583Y-149589880D01*
X173712202Y-149494642D01*
X173759821Y-149447023D01*
X173855059Y-149399404D01*
X174093154Y-149399404D01*
X174188392Y-149447023D01*
X174236011Y-149494642D01*
X174283630Y-149589880D01*
X174283630Y-149827976D01*
X174236011Y-149923214D01*
X174188392Y-149970833D01*
X173283630Y-148780357D02*
X173283630Y-148685119D01*
X173331250Y-148589880D01*
X173378869Y-148542261D01*
X173474107Y-148494642D01*
X173664583Y-148447023D01*
X173902678Y-148447023D01*
X174093154Y-148494642D01*
X174188392Y-148542261D01*
X174236011Y-148589880D01*
X174283630Y-148685119D01*
X174283630Y-148780357D01*
X174236011Y-148875595D01*
X174188392Y-148923214D01*
X174093154Y-148970833D01*
X173902678Y-149018452D01*
X173664583Y-149018452D01*
X173474107Y-148970833D01*
X173378869Y-148923214D01*
X173331250Y-148875595D01*
X173283630Y-148780357D01*
X173283630Y-147827976D02*
X173283630Y-147732738D01*
X173331250Y-147637500D01*
X173378869Y-147589880D01*
X173474107Y-147542261D01*
X173664583Y-147494642D01*
X173902678Y-147494642D01*
X174093154Y-147542261D01*
X174188392Y-147589880D01*
X174236011Y-147637500D01*
X174283630Y-147732738D01*
X174283630Y-147827976D01*
X174236011Y-147923214D01*
X174188392Y-147970833D01*
X174093154Y-148018452D01*
X173902678Y-148066071D01*
X173664583Y-148066071D01*
X173474107Y-148018452D01*
X173378869Y-147970833D01*
X173331250Y-147923214D01*
X173283630Y-147827976D01*
X174283630Y-147066071D02*
X173616964Y-147066071D01*
X173712202Y-147066071D02*
X173664583Y-147018452D01*
X173616964Y-146923214D01*
X173616964Y-146780357D01*
X173664583Y-146685119D01*
X173759821Y-146637500D01*
X174283630Y-146637500D01*
X173759821Y-146637500D02*
X173664583Y-146589880D01*
X173616964Y-146494642D01*
X173616964Y-146351785D01*
X173664583Y-146256547D01*
X173759821Y-146208928D01*
X174283630Y-146208928D01*
X173997916Y-145780357D02*
X173997916Y-145304166D01*
X174283630Y-145875595D02*
X173283630Y-145542261D01*
X174283630Y-145208928D01*
%TO.C,Esc1*%
X159607440Y-160329571D02*
X159940773Y-160329571D01*
X160083630Y-160853380D02*
X159607440Y-160853380D01*
X159607440Y-159853380D01*
X160083630Y-159853380D01*
X160464583Y-160805761D02*
X160559821Y-160853380D01*
X160750297Y-160853380D01*
X160845535Y-160805761D01*
X160893154Y-160710523D01*
X160893154Y-160662904D01*
X160845535Y-160567666D01*
X160750297Y-160520047D01*
X160607440Y-160520047D01*
X160512202Y-160472428D01*
X160464583Y-160377190D01*
X160464583Y-160329571D01*
X160512202Y-160234333D01*
X160607440Y-160186714D01*
X160750297Y-160186714D01*
X160845535Y-160234333D01*
X161750297Y-160805761D02*
X161655059Y-160853380D01*
X161464583Y-160853380D01*
X161369345Y-160805761D01*
X161321726Y-160758142D01*
X161274107Y-160662904D01*
X161274107Y-160377190D01*
X161321726Y-160281952D01*
X161369345Y-160234333D01*
X161464583Y-160186714D01*
X161655059Y-160186714D01*
X161750297Y-160234333D01*
X162702678Y-160853380D02*
X162131250Y-160853380D01*
X162416964Y-160853380D02*
X162416964Y-159853380D01*
X162321726Y-159996238D01*
X162226488Y-160091476D01*
X162131250Y-160139095D01*
%TO.C,Enter1*%
X413758333Y-198429571D02*
X414091666Y-198429571D01*
X414234523Y-198953380D02*
X413758333Y-198953380D01*
X413758333Y-197953380D01*
X414234523Y-197953380D01*
X414663095Y-198286714D02*
X414663095Y-198953380D01*
X414663095Y-198381952D02*
X414710714Y-198334333D01*
X414805952Y-198286714D01*
X414948809Y-198286714D01*
X415044047Y-198334333D01*
X415091666Y-198429571D01*
X415091666Y-198953380D01*
X415425000Y-198286714D02*
X415805952Y-198286714D01*
X415567857Y-197953380D02*
X415567857Y-198810523D01*
X415615476Y-198905761D01*
X415710714Y-198953380D01*
X415805952Y-198953380D01*
X416520238Y-198905761D02*
X416425000Y-198953380D01*
X416234523Y-198953380D01*
X416139285Y-198905761D01*
X416091666Y-198810523D01*
X416091666Y-198429571D01*
X416139285Y-198334333D01*
X416234523Y-198286714D01*
X416425000Y-198286714D01*
X416520238Y-198334333D01*
X416567857Y-198429571D01*
X416567857Y-198524809D01*
X416091666Y-198620047D01*
X416996428Y-198953380D02*
X416996428Y-198286714D01*
X416996428Y-198477190D02*
X417044047Y-198381952D01*
X417091666Y-198334333D01*
X417186904Y-198286714D01*
X417282142Y-198286714D01*
X418139285Y-198953380D02*
X417567857Y-198953380D01*
X417853571Y-198953380D02*
X417853571Y-197953380D01*
X417758333Y-198096238D01*
X417663095Y-198191476D01*
X417567857Y-198239095D01*
%TO.C,ENC1*%
X431673214Y-141216071D02*
X432006547Y-141216071D01*
X432149404Y-141739880D02*
X431673214Y-141739880D01*
X431673214Y-140739880D01*
X432149404Y-140739880D01*
X432577976Y-141739880D02*
X432577976Y-140739880D01*
X433149404Y-141739880D01*
X433149404Y-140739880D01*
X434197023Y-141644642D02*
X434149404Y-141692261D01*
X434006547Y-141739880D01*
X433911309Y-141739880D01*
X433768452Y-141692261D01*
X433673214Y-141597023D01*
X433625595Y-141501785D01*
X433577976Y-141311309D01*
X433577976Y-141168452D01*
X433625595Y-140977976D01*
X433673214Y-140882738D01*
X433768452Y-140787500D01*
X433911309Y-140739880D01*
X434006547Y-140739880D01*
X434149404Y-140787500D01*
X434197023Y-140835119D01*
X435149404Y-141739880D02*
X434577976Y-141739880D01*
X434863690Y-141739880D02*
X434863690Y-140739880D01*
X434768452Y-140882738D01*
X434673214Y-140977976D01*
X434577976Y-141025595D01*
%TO.C,E1*%
X227115773Y-179379571D02*
X227449107Y-179379571D01*
X227591964Y-179903380D02*
X227115773Y-179903380D01*
X227115773Y-178903380D01*
X227591964Y-178903380D01*
X228544345Y-179903380D02*
X227972916Y-179903380D01*
X228258630Y-179903380D02*
X228258630Y-178903380D01*
X228163392Y-179046238D01*
X228068154Y-179141476D01*
X227972916Y-179189095D01*
%TO.C,Del1*%
X445452678Y-179903380D02*
X445452678Y-178903380D01*
X445690773Y-178903380D01*
X445833630Y-178951000D01*
X445928869Y-179046238D01*
X445976488Y-179141476D01*
X446024107Y-179331952D01*
X446024107Y-179474809D01*
X445976488Y-179665285D01*
X445928869Y-179760523D01*
X445833630Y-179855761D01*
X445690773Y-179903380D01*
X445452678Y-179903380D01*
X446833630Y-179855761D02*
X446738392Y-179903380D01*
X446547916Y-179903380D01*
X446452678Y-179855761D01*
X446405059Y-179760523D01*
X446405059Y-179379571D01*
X446452678Y-179284333D01*
X446547916Y-179236714D01*
X446738392Y-179236714D01*
X446833630Y-179284333D01*
X446881250Y-179379571D01*
X446881250Y-179474809D01*
X446405059Y-179570047D01*
X447452678Y-179903380D02*
X447357440Y-179855761D01*
X447309821Y-179760523D01*
X447309821Y-178903380D01*
X448357440Y-179903380D02*
X447786011Y-179903380D01*
X448071726Y-179903380D02*
X448071726Y-178903380D01*
X447976488Y-179046238D01*
X447881250Y-179141476D01*
X447786011Y-179189095D01*
%TO.C,D76*%
X215479464Y-152852380D02*
X215479464Y-151852380D01*
X215717559Y-151852380D01*
X215860416Y-151900000D01*
X215955654Y-151995238D01*
X216003273Y-152090476D01*
X216050892Y-152280952D01*
X216050892Y-152423809D01*
X216003273Y-152614285D01*
X215955654Y-152709523D01*
X215860416Y-152804761D01*
X215717559Y-152852380D01*
X215479464Y-152852380D01*
X216384226Y-151852380D02*
X217050892Y-151852380D01*
X216622321Y-152852380D01*
X217860416Y-151852380D02*
X217669940Y-151852380D01*
X217574702Y-151900000D01*
X217527083Y-151947619D01*
X217431845Y-152090476D01*
X217384226Y-152280952D01*
X217384226Y-152661904D01*
X217431845Y-152757142D01*
X217479464Y-152804761D01*
X217574702Y-152852380D01*
X217765178Y-152852380D01*
X217860416Y-152804761D01*
X217908035Y-152757142D01*
X217955654Y-152661904D01*
X217955654Y-152423809D01*
X217908035Y-152328571D01*
X217860416Y-152280952D01*
X217765178Y-152233333D01*
X217574702Y-152233333D01*
X217479464Y-152280952D01*
X217431845Y-152328571D01*
X217384226Y-152423809D01*
X221567559Y-151852380D02*
X222186607Y-151852380D01*
X221853273Y-152233333D01*
X221996130Y-152233333D01*
X222091369Y-152280952D01*
X222138988Y-152328571D01*
X222186607Y-152423809D01*
X222186607Y-152661904D01*
X222138988Y-152757142D01*
X222091369Y-152804761D01*
X221996130Y-152852380D01*
X221710416Y-152852380D01*
X221615178Y-152804761D01*
X221567559Y-152757142D01*
X222615178Y-152757142D02*
X222662797Y-152804761D01*
X222615178Y-152852380D01*
X222567559Y-152804761D01*
X222615178Y-152757142D01*
X222615178Y-152852380D01*
X223519940Y-151852380D02*
X223329464Y-151852380D01*
X223234226Y-151900000D01*
X223186607Y-151947619D01*
X223091369Y-152090476D01*
X223043750Y-152280952D01*
X223043750Y-152661904D01*
X223091369Y-152757142D01*
X223138988Y-152804761D01*
X223234226Y-152852380D01*
X223424702Y-152852380D01*
X223519940Y-152804761D01*
X223567559Y-152757142D01*
X223615178Y-152661904D01*
X223615178Y-152423809D01*
X223567559Y-152328571D01*
X223519940Y-152280952D01*
X223424702Y-152233333D01*
X223234226Y-152233333D01*
X223138988Y-152280952D01*
X223091369Y-152328571D01*
X223043750Y-152423809D01*
X223900892Y-151852380D02*
X224234226Y-152852380D01*
X224567559Y-151852380D01*
%TO.C,D31*%
X231354464Y-198953380D02*
X231354464Y-197953380D01*
X231592559Y-197953380D01*
X231735416Y-198001000D01*
X231830654Y-198096238D01*
X231878273Y-198191476D01*
X231925892Y-198381952D01*
X231925892Y-198524809D01*
X231878273Y-198715285D01*
X231830654Y-198810523D01*
X231735416Y-198905761D01*
X231592559Y-198953380D01*
X231354464Y-198953380D01*
X232259226Y-197953380D02*
X232878273Y-197953380D01*
X232544940Y-198334333D01*
X232687797Y-198334333D01*
X232783035Y-198381952D01*
X232830654Y-198429571D01*
X232878273Y-198524809D01*
X232878273Y-198762904D01*
X232830654Y-198858142D01*
X232783035Y-198905761D01*
X232687797Y-198953380D01*
X232402083Y-198953380D01*
X232306845Y-198905761D01*
X232259226Y-198858142D01*
X233830654Y-198953380D02*
X233259226Y-198953380D01*
X233544940Y-198953380D02*
X233544940Y-197953380D01*
X233449702Y-198096238D01*
X233354464Y-198191476D01*
X233259226Y-198239095D01*
%TO.C,D75*%
X215479464Y-149677380D02*
X215479464Y-148677380D01*
X215717559Y-148677380D01*
X215860416Y-148725000D01*
X215955654Y-148820238D01*
X216003273Y-148915476D01*
X216050892Y-149105952D01*
X216050892Y-149248809D01*
X216003273Y-149439285D01*
X215955654Y-149534523D01*
X215860416Y-149629761D01*
X215717559Y-149677380D01*
X215479464Y-149677380D01*
X216384226Y-148677380D02*
X217050892Y-148677380D01*
X216622321Y-149677380D01*
X217908035Y-148677380D02*
X217431845Y-148677380D01*
X217384226Y-149153571D01*
X217431845Y-149105952D01*
X217527083Y-149058333D01*
X217765178Y-149058333D01*
X217860416Y-149105952D01*
X217908035Y-149153571D01*
X217955654Y-149248809D01*
X217955654Y-149486904D01*
X217908035Y-149582142D01*
X217860416Y-149629761D01*
X217765178Y-149677380D01*
X217527083Y-149677380D01*
X217431845Y-149629761D01*
X217384226Y-149582142D01*
X221567559Y-148677380D02*
X222186607Y-148677380D01*
X221853273Y-149058333D01*
X221996130Y-149058333D01*
X222091369Y-149105952D01*
X222138988Y-149153571D01*
X222186607Y-149248809D01*
X222186607Y-149486904D01*
X222138988Y-149582142D01*
X222091369Y-149629761D01*
X221996130Y-149677380D01*
X221710416Y-149677380D01*
X221615178Y-149629761D01*
X221567559Y-149582142D01*
X222615178Y-149582142D02*
X222662797Y-149629761D01*
X222615178Y-149677380D01*
X222567559Y-149629761D01*
X222615178Y-149582142D01*
X222615178Y-149677380D01*
X223519940Y-148677380D02*
X223329464Y-148677380D01*
X223234226Y-148725000D01*
X223186607Y-148772619D01*
X223091369Y-148915476D01*
X223043750Y-149105952D01*
X223043750Y-149486904D01*
X223091369Y-149582142D01*
X223138988Y-149629761D01*
X223234226Y-149677380D01*
X223424702Y-149677380D01*
X223519940Y-149629761D01*
X223567559Y-149582142D01*
X223615178Y-149486904D01*
X223615178Y-149248809D01*
X223567559Y-149153571D01*
X223519940Y-149105952D01*
X223424702Y-149058333D01*
X223234226Y-149058333D01*
X223138988Y-149105952D01*
X223091369Y-149153571D01*
X223043750Y-149248809D01*
X223900892Y-148677380D02*
X224234226Y-149677380D01*
X224567559Y-148677380D01*
%TO.C,CapsL1*%
X166394047Y-198858142D02*
X166346428Y-198905761D01*
X166203571Y-198953380D01*
X166108333Y-198953380D01*
X165965476Y-198905761D01*
X165870238Y-198810523D01*
X165822619Y-198715285D01*
X165775000Y-198524809D01*
X165775000Y-198381952D01*
X165822619Y-198191476D01*
X165870238Y-198096238D01*
X165965476Y-198001000D01*
X166108333Y-197953380D01*
X166203571Y-197953380D01*
X166346428Y-198001000D01*
X166394047Y-198048619D01*
X167251190Y-198953380D02*
X167251190Y-198429571D01*
X167203571Y-198334333D01*
X167108333Y-198286714D01*
X166917857Y-198286714D01*
X166822619Y-198334333D01*
X167251190Y-198905761D02*
X167155952Y-198953380D01*
X166917857Y-198953380D01*
X166822619Y-198905761D01*
X166775000Y-198810523D01*
X166775000Y-198715285D01*
X166822619Y-198620047D01*
X166917857Y-198572428D01*
X167155952Y-198572428D01*
X167251190Y-198524809D01*
X167727380Y-198286714D02*
X167727380Y-199286714D01*
X167727380Y-198334333D02*
X167822619Y-198286714D01*
X168013095Y-198286714D01*
X168108333Y-198334333D01*
X168155952Y-198381952D01*
X168203571Y-198477190D01*
X168203571Y-198762904D01*
X168155952Y-198858142D01*
X168108333Y-198905761D01*
X168013095Y-198953380D01*
X167822619Y-198953380D01*
X167727380Y-198905761D01*
X168584523Y-198905761D02*
X168679761Y-198953380D01*
X168870238Y-198953380D01*
X168965476Y-198905761D01*
X169013095Y-198810523D01*
X169013095Y-198762904D01*
X168965476Y-198667666D01*
X168870238Y-198620047D01*
X168727380Y-198620047D01*
X168632142Y-198572428D01*
X168584523Y-198477190D01*
X168584523Y-198429571D01*
X168632142Y-198334333D01*
X168727380Y-198286714D01*
X168870238Y-198286714D01*
X168965476Y-198334333D01*
X169917857Y-198953380D02*
X169441666Y-198953380D01*
X169441666Y-197953380D01*
X170775000Y-198953380D02*
X170203571Y-198953380D01*
X170489285Y-198953380D02*
X170489285Y-197953380D01*
X170394047Y-198096238D01*
X170298809Y-198191476D01*
X170203571Y-198239095D01*
%TO.C,C2*%
X166044642Y-148661380D02*
X165473214Y-148661380D01*
X165758928Y-148661380D02*
X165758928Y-147661380D01*
X165663690Y-147804238D01*
X165568452Y-147899476D01*
X165473214Y-147947095D01*
X166663690Y-147661380D02*
X166758928Y-147661380D01*
X166854166Y-147709000D01*
X166901785Y-147756619D01*
X166949404Y-147851857D01*
X166997023Y-148042333D01*
X166997023Y-148280428D01*
X166949404Y-148470904D01*
X166901785Y-148566142D01*
X166854166Y-148613761D01*
X166758928Y-148661380D01*
X166663690Y-148661380D01*
X166568452Y-148613761D01*
X166520833Y-148566142D01*
X166473214Y-148470904D01*
X166425595Y-148280428D01*
X166425595Y-148042333D01*
X166473214Y-147851857D01*
X166520833Y-147756619D01*
X166568452Y-147709000D01*
X166663690Y-147661380D01*
X167854166Y-147994714D02*
X167854166Y-148661380D01*
X167425595Y-147994714D02*
X167425595Y-148518523D01*
X167473214Y-148613761D01*
X167568452Y-148661380D01*
X167711309Y-148661380D01*
X167806547Y-148613761D01*
X167854166Y-148566142D01*
%TO.C,C1*%
X241927083Y-217908142D02*
X241879464Y-217955761D01*
X241736607Y-218003380D01*
X241641369Y-218003380D01*
X241498511Y-217955761D01*
X241403273Y-217860523D01*
X241355654Y-217765285D01*
X241308035Y-217574809D01*
X241308035Y-217431952D01*
X241355654Y-217241476D01*
X241403273Y-217146238D01*
X241498511Y-217051000D01*
X241641369Y-217003380D01*
X241736607Y-217003380D01*
X241879464Y-217051000D01*
X241927083Y-217098619D01*
X242879464Y-218003380D02*
X242308035Y-218003380D01*
X242593750Y-218003380D02*
X242593750Y-217003380D01*
X242498511Y-217146238D01*
X242403273Y-217241476D01*
X242308035Y-217289095D01*
%TO.C,C4*%
X300973833Y-135516892D02*
X300926214Y-135564511D01*
X300783357Y-135612130D01*
X300688119Y-135612130D01*
X300545261Y-135564511D01*
X300450023Y-135469273D01*
X300402404Y-135374035D01*
X300354785Y-135183559D01*
X300354785Y-135040702D01*
X300402404Y-134850226D01*
X300450023Y-134754988D01*
X300545261Y-134659750D01*
X300688119Y-134612130D01*
X300783357Y-134612130D01*
X300926214Y-134659750D01*
X300973833Y-134707369D01*
X301830976Y-134945464D02*
X301830976Y-135612130D01*
X301592880Y-134564511D02*
X301354785Y-135278797D01*
X301973833Y-135278797D01*
X305173214Y-134580380D02*
X305268452Y-134580380D01*
X305363690Y-134628000D01*
X305411309Y-134675619D01*
X305458928Y-134770857D01*
X305506547Y-134961333D01*
X305506547Y-135199428D01*
X305458928Y-135389904D01*
X305411309Y-135485142D01*
X305363690Y-135532761D01*
X305268452Y-135580380D01*
X305173214Y-135580380D01*
X305077976Y-135532761D01*
X305030357Y-135485142D01*
X304982738Y-135389904D01*
X304935119Y-135199428D01*
X304935119Y-134961333D01*
X304982738Y-134770857D01*
X305030357Y-134675619D01*
X305077976Y-134628000D01*
X305173214Y-134580380D01*
X305935119Y-135485142D02*
X305982738Y-135532761D01*
X305935119Y-135580380D01*
X305887500Y-135532761D01*
X305935119Y-135485142D01*
X305935119Y-135580380D01*
X306935119Y-135580380D02*
X306363690Y-135580380D01*
X306649404Y-135580380D02*
X306649404Y-134580380D01*
X306554166Y-134723238D01*
X306458928Y-134818476D01*
X306363690Y-134866095D01*
X307792261Y-134913714D02*
X307792261Y-135580380D01*
X307363690Y-134913714D02*
X307363690Y-135437523D01*
X307411309Y-135532761D01*
X307506547Y-135580380D01*
X307649404Y-135580380D01*
X307744642Y-135532761D01*
X307792261Y-135485142D01*
%TO.C,C3*%
X298442083Y-157202142D02*
X298394464Y-157249761D01*
X298251607Y-157297380D01*
X298156369Y-157297380D01*
X298013511Y-157249761D01*
X297918273Y-157154523D01*
X297870654Y-157059285D01*
X297823035Y-156868809D01*
X297823035Y-156725952D01*
X297870654Y-156535476D01*
X297918273Y-156440238D01*
X298013511Y-156345000D01*
X298156369Y-156297380D01*
X298251607Y-156297380D01*
X298394464Y-156345000D01*
X298442083Y-156392619D01*
X298775416Y-156297380D02*
X299394464Y-156297380D01*
X299061130Y-156678333D01*
X299203988Y-156678333D01*
X299299226Y-156725952D01*
X299346845Y-156773571D01*
X299394464Y-156868809D01*
X299394464Y-157106904D01*
X299346845Y-157202142D01*
X299299226Y-157249761D01*
X299203988Y-157297380D01*
X298918273Y-157297380D01*
X298823035Y-157249761D01*
X298775416Y-157202142D01*
X302760214Y-156265630D02*
X302855452Y-156265630D01*
X302950690Y-156313250D01*
X302998309Y-156360869D01*
X303045928Y-156456107D01*
X303093547Y-156646583D01*
X303093547Y-156884678D01*
X303045928Y-157075154D01*
X302998309Y-157170392D01*
X302950690Y-157218011D01*
X302855452Y-157265630D01*
X302760214Y-157265630D01*
X302664976Y-157218011D01*
X302617357Y-157170392D01*
X302569738Y-157075154D01*
X302522119Y-156884678D01*
X302522119Y-156646583D01*
X302569738Y-156456107D01*
X302617357Y-156360869D01*
X302664976Y-156313250D01*
X302760214Y-156265630D01*
X303522119Y-157170392D02*
X303569738Y-157218011D01*
X303522119Y-157265630D01*
X303474500Y-157218011D01*
X303522119Y-157170392D01*
X303522119Y-157265630D01*
X304522119Y-157265630D02*
X303950690Y-157265630D01*
X304236404Y-157265630D02*
X304236404Y-156265630D01*
X304141166Y-156408488D01*
X304045928Y-156503726D01*
X303950690Y-156551345D01*
X305379261Y-156598964D02*
X305379261Y-157265630D01*
X304950690Y-156598964D02*
X304950690Y-157122773D01*
X304998309Y-157218011D01*
X305093547Y-157265630D01*
X305236404Y-157265630D01*
X305331642Y-157218011D01*
X305379261Y-157170392D01*
%TO.C,C6*%
X329144333Y-138787142D02*
X329096714Y-138834761D01*
X328953857Y-138882380D01*
X328858619Y-138882380D01*
X328715761Y-138834761D01*
X328620523Y-138739523D01*
X328572904Y-138644285D01*
X328525285Y-138453809D01*
X328525285Y-138310952D01*
X328572904Y-138120476D01*
X328620523Y-138025238D01*
X328715761Y-137930000D01*
X328858619Y-137882380D01*
X328953857Y-137882380D01*
X329096714Y-137930000D01*
X329144333Y-137977619D01*
X330001476Y-137882380D02*
X329811000Y-137882380D01*
X329715761Y-137930000D01*
X329668142Y-137977619D01*
X329572904Y-138120476D01*
X329525285Y-138310952D01*
X329525285Y-138691904D01*
X329572904Y-138787142D01*
X329620523Y-138834761D01*
X329715761Y-138882380D01*
X329906238Y-138882380D01*
X330001476Y-138834761D01*
X330049095Y-138787142D01*
X330096714Y-138691904D01*
X330096714Y-138453809D01*
X330049095Y-138358571D01*
X330001476Y-138310952D01*
X329906238Y-138263333D01*
X329715761Y-138263333D01*
X329620523Y-138310952D01*
X329572904Y-138358571D01*
X329525285Y-138453809D01*
X333049714Y-137977619D02*
X333097333Y-137930000D01*
X333192571Y-137882380D01*
X333430666Y-137882380D01*
X333525904Y-137930000D01*
X333573523Y-137977619D01*
X333621142Y-138072857D01*
X333621142Y-138168095D01*
X333573523Y-138310952D01*
X333002095Y-138882380D01*
X333621142Y-138882380D01*
X334002095Y-137977619D02*
X334049714Y-137930000D01*
X334144952Y-137882380D01*
X334383047Y-137882380D01*
X334478285Y-137930000D01*
X334525904Y-137977619D01*
X334573523Y-138072857D01*
X334573523Y-138168095D01*
X334525904Y-138310952D01*
X333954476Y-138882380D01*
X334573523Y-138882380D01*
X335002095Y-138215714D02*
X335002095Y-139215714D01*
X335002095Y-138263333D02*
X335097333Y-138215714D01*
X335287809Y-138215714D01*
X335383047Y-138263333D01*
X335430666Y-138310952D01*
X335478285Y-138406190D01*
X335478285Y-138691904D01*
X335430666Y-138787142D01*
X335383047Y-138834761D01*
X335287809Y-138882380D01*
X335097333Y-138882380D01*
X335002095Y-138834761D01*
%TO.C,C5*%
X329144333Y-154027142D02*
X329096714Y-154074761D01*
X328953857Y-154122380D01*
X328858619Y-154122380D01*
X328715761Y-154074761D01*
X328620523Y-153979523D01*
X328572904Y-153884285D01*
X328525285Y-153693809D01*
X328525285Y-153550952D01*
X328572904Y-153360476D01*
X328620523Y-153265238D01*
X328715761Y-153170000D01*
X328858619Y-153122380D01*
X328953857Y-153122380D01*
X329096714Y-153170000D01*
X329144333Y-153217619D01*
X330049095Y-153122380D02*
X329572904Y-153122380D01*
X329525285Y-153598571D01*
X329572904Y-153550952D01*
X329668142Y-153503333D01*
X329906238Y-153503333D01*
X330001476Y-153550952D01*
X330049095Y-153598571D01*
X330096714Y-153693809D01*
X330096714Y-153931904D01*
X330049095Y-154027142D01*
X330001476Y-154074761D01*
X329906238Y-154122380D01*
X329668142Y-154122380D01*
X329572904Y-154074761D01*
X329525285Y-154027142D01*
X333113214Y-153217619D02*
X333160833Y-153170000D01*
X333256071Y-153122380D01*
X333494166Y-153122380D01*
X333589404Y-153170000D01*
X333637023Y-153217619D01*
X333684642Y-153312857D01*
X333684642Y-153408095D01*
X333637023Y-153550952D01*
X333065595Y-154122380D01*
X333684642Y-154122380D01*
X334065595Y-153217619D02*
X334113214Y-153170000D01*
X334208452Y-153122380D01*
X334446547Y-153122380D01*
X334541785Y-153170000D01*
X334589404Y-153217619D01*
X334637023Y-153312857D01*
X334637023Y-153408095D01*
X334589404Y-153550952D01*
X334017976Y-154122380D01*
X334637023Y-154122380D01*
X335065595Y-153455714D02*
X335065595Y-154455714D01*
X335065595Y-153503333D02*
X335160833Y-153455714D01*
X335351309Y-153455714D01*
X335446547Y-153503333D01*
X335494166Y-153550952D01*
X335541785Y-153646190D01*
X335541785Y-153931904D01*
X335494166Y-154027142D01*
X335446547Y-154074761D01*
X335351309Y-154122380D01*
X335160833Y-154122380D01*
X335065595Y-154074761D01*
%TO.C,BOOT1*%
X195413452Y-144327571D02*
X195556309Y-144375190D01*
X195603928Y-144422809D01*
X195651547Y-144518047D01*
X195651547Y-144660904D01*
X195603928Y-144756142D01*
X195556309Y-144803761D01*
X195461071Y-144851380D01*
X195080119Y-144851380D01*
X195080119Y-143851380D01*
X195413452Y-143851380D01*
X195508690Y-143899000D01*
X195556309Y-143946619D01*
X195603928Y-144041857D01*
X195603928Y-144137095D01*
X195556309Y-144232333D01*
X195508690Y-144279952D01*
X195413452Y-144327571D01*
X195080119Y-144327571D01*
X196222976Y-144851380D02*
X196127738Y-144803761D01*
X196080119Y-144756142D01*
X196032500Y-144660904D01*
X196032500Y-144375190D01*
X196080119Y-144279952D01*
X196127738Y-144232333D01*
X196222976Y-144184714D01*
X196365833Y-144184714D01*
X196461071Y-144232333D01*
X196508690Y-144279952D01*
X196556309Y-144375190D01*
X196556309Y-144660904D01*
X196508690Y-144756142D01*
X196461071Y-144803761D01*
X196365833Y-144851380D01*
X196222976Y-144851380D01*
X197127738Y-144851380D02*
X197032500Y-144803761D01*
X196984880Y-144756142D01*
X196937261Y-144660904D01*
X196937261Y-144375190D01*
X196984880Y-144279952D01*
X197032500Y-144232333D01*
X197127738Y-144184714D01*
X197270595Y-144184714D01*
X197365833Y-144232333D01*
X197413452Y-144279952D01*
X197461071Y-144375190D01*
X197461071Y-144660904D01*
X197413452Y-144756142D01*
X197365833Y-144803761D01*
X197270595Y-144851380D01*
X197127738Y-144851380D01*
X197746785Y-144184714D02*
X198127738Y-144184714D01*
X197889642Y-143851380D02*
X197889642Y-144708523D01*
X197937261Y-144803761D01*
X198032500Y-144851380D01*
X198127738Y-144851380D01*
%TO.C,Bksp1*%
X416639583Y-160329571D02*
X416782440Y-160377190D01*
X416830059Y-160424809D01*
X416877678Y-160520047D01*
X416877678Y-160662904D01*
X416830059Y-160758142D01*
X416782440Y-160805761D01*
X416687202Y-160853380D01*
X416306250Y-160853380D01*
X416306250Y-159853380D01*
X416639583Y-159853380D01*
X416734821Y-159901000D01*
X416782440Y-159948619D01*
X416830059Y-160043857D01*
X416830059Y-160139095D01*
X416782440Y-160234333D01*
X416734821Y-160281952D01*
X416639583Y-160329571D01*
X416306250Y-160329571D01*
X417306250Y-160853380D02*
X417306250Y-159853380D01*
X417401488Y-160472428D02*
X417687202Y-160853380D01*
X417687202Y-160186714D02*
X417306250Y-160567666D01*
X418068154Y-160805761D02*
X418163392Y-160853380D01*
X418353869Y-160853380D01*
X418449107Y-160805761D01*
X418496726Y-160710523D01*
X418496726Y-160662904D01*
X418449107Y-160567666D01*
X418353869Y-160520047D01*
X418211011Y-160520047D01*
X418115773Y-160472428D01*
X418068154Y-160377190D01*
X418068154Y-160329571D01*
X418115773Y-160234333D01*
X418211011Y-160186714D01*
X418353869Y-160186714D01*
X418449107Y-160234333D01*
X418925297Y-160186714D02*
X418925297Y-161186714D01*
X418925297Y-160234333D02*
X419020535Y-160186714D01*
X419211011Y-160186714D01*
X419306250Y-160234333D01*
X419353869Y-160281952D01*
X419401488Y-160377190D01*
X419401488Y-160662904D01*
X419353869Y-160758142D01*
X419306250Y-160805761D01*
X419211011Y-160853380D01*
X419020535Y-160853380D01*
X418925297Y-160805761D01*
X420353869Y-160853380D02*
X419782440Y-160853380D01*
X420068154Y-160853380D02*
X420068154Y-159853380D01*
X419972916Y-159996238D01*
X419877678Y-160091476D01*
X419782440Y-160139095D01*
%TO.C,B1*%
X279788988Y-217479571D02*
X279931845Y-217527190D01*
X279979464Y-217574809D01*
X280027083Y-217670047D01*
X280027083Y-217812904D01*
X279979464Y-217908142D01*
X279931845Y-217955761D01*
X279836607Y-218003380D01*
X279455654Y-218003380D01*
X279455654Y-217003380D01*
X279788988Y-217003380D01*
X279884226Y-217051000D01*
X279931845Y-217098619D01*
X279979464Y-217193857D01*
X279979464Y-217289095D01*
X279931845Y-217384333D01*
X279884226Y-217431952D01*
X279788988Y-217479571D01*
X279455654Y-217479571D01*
X280979464Y-218003380D02*
X280408035Y-218003380D01*
X280693750Y-218003380D02*
X280693750Y-217003380D01*
X280598511Y-217146238D01*
X280503273Y-217241476D01*
X280408035Y-217289095D01*
%TO.C,ArrowUp1*%
X424545535Y-217717666D02*
X425021726Y-217717666D01*
X424450297Y-218003380D02*
X424783630Y-217003380D01*
X425116964Y-218003380D01*
X425450297Y-218003380D02*
X425450297Y-217336714D01*
X425450297Y-217527190D02*
X425497916Y-217431952D01*
X425545535Y-217384333D01*
X425640773Y-217336714D01*
X425736011Y-217336714D01*
X426069345Y-218003380D02*
X426069345Y-217336714D01*
X426069345Y-217527190D02*
X426116964Y-217431952D01*
X426164583Y-217384333D01*
X426259821Y-217336714D01*
X426355059Y-217336714D01*
X426831250Y-218003380D02*
X426736011Y-217955761D01*
X426688392Y-217908142D01*
X426640773Y-217812904D01*
X426640773Y-217527190D01*
X426688392Y-217431952D01*
X426736011Y-217384333D01*
X426831250Y-217336714D01*
X426974107Y-217336714D01*
X427069345Y-217384333D01*
X427116964Y-217431952D01*
X427164583Y-217527190D01*
X427164583Y-217812904D01*
X427116964Y-217908142D01*
X427069345Y-217955761D01*
X426974107Y-218003380D01*
X426831250Y-218003380D01*
X427497916Y-217336714D02*
X427688392Y-218003380D01*
X427878869Y-217527190D01*
X428069345Y-218003380D01*
X428259821Y-217336714D01*
X428640773Y-217003380D02*
X428640773Y-217812904D01*
X428688392Y-217908142D01*
X428736011Y-217955761D01*
X428831250Y-218003380D01*
X429021726Y-218003380D01*
X429116964Y-217955761D01*
X429164583Y-217908142D01*
X429212202Y-217812904D01*
X429212202Y-217003380D01*
X429688392Y-217336714D02*
X429688392Y-218336714D01*
X429688392Y-217384333D02*
X429783630Y-217336714D01*
X429974107Y-217336714D01*
X430069345Y-217384333D01*
X430116964Y-217431952D01*
X430164583Y-217527190D01*
X430164583Y-217812904D01*
X430116964Y-217908142D01*
X430069345Y-217955761D01*
X429974107Y-218003380D01*
X429783630Y-218003380D01*
X429688392Y-217955761D01*
X431116964Y-218003380D02*
X430545535Y-218003380D01*
X430831250Y-218003380D02*
X430831250Y-217003380D01*
X430736011Y-217146238D01*
X430640773Y-217241476D01*
X430545535Y-217289095D01*
%TO.C,ArrowRight1*%
X442643154Y-236767666D02*
X443119345Y-236767666D01*
X442547916Y-237053380D02*
X442881250Y-236053380D01*
X443214583Y-237053380D01*
X443547916Y-237053380D02*
X443547916Y-236386714D01*
X443547916Y-236577190D02*
X443595535Y-236481952D01*
X443643154Y-236434333D01*
X443738392Y-236386714D01*
X443833630Y-236386714D01*
X444166964Y-237053380D02*
X444166964Y-236386714D01*
X444166964Y-236577190D02*
X444214583Y-236481952D01*
X444262202Y-236434333D01*
X444357440Y-236386714D01*
X444452678Y-236386714D01*
X444928869Y-237053380D02*
X444833630Y-237005761D01*
X444786011Y-236958142D01*
X444738392Y-236862904D01*
X444738392Y-236577190D01*
X444786011Y-236481952D01*
X444833630Y-236434333D01*
X444928869Y-236386714D01*
X445071726Y-236386714D01*
X445166964Y-236434333D01*
X445214583Y-236481952D01*
X445262202Y-236577190D01*
X445262202Y-236862904D01*
X445214583Y-236958142D01*
X445166964Y-237005761D01*
X445071726Y-237053380D01*
X444928869Y-237053380D01*
X445595535Y-236386714D02*
X445786011Y-237053380D01*
X445976488Y-236577190D01*
X446166964Y-237053380D01*
X446357440Y-236386714D01*
X447309821Y-237053380D02*
X446976488Y-236577190D01*
X446738392Y-237053380D02*
X446738392Y-236053380D01*
X447119345Y-236053380D01*
X447214583Y-236101000D01*
X447262202Y-236148619D01*
X447309821Y-236243857D01*
X447309821Y-236386714D01*
X447262202Y-236481952D01*
X447214583Y-236529571D01*
X447119345Y-236577190D01*
X446738392Y-236577190D01*
X447738392Y-237053380D02*
X447738392Y-236386714D01*
X447738392Y-236053380D02*
X447690773Y-236101000D01*
X447738392Y-236148619D01*
X447786011Y-236101000D01*
X447738392Y-236053380D01*
X447738392Y-236148619D01*
X448643154Y-236386714D02*
X448643154Y-237196238D01*
X448595535Y-237291476D01*
X448547916Y-237339095D01*
X448452678Y-237386714D01*
X448309821Y-237386714D01*
X448214583Y-237339095D01*
X448643154Y-237005761D02*
X448547916Y-237053380D01*
X448357440Y-237053380D01*
X448262202Y-237005761D01*
X448214583Y-236958142D01*
X448166964Y-236862904D01*
X448166964Y-236577190D01*
X448214583Y-236481952D01*
X448262202Y-236434333D01*
X448357440Y-236386714D01*
X448547916Y-236386714D01*
X448643154Y-236434333D01*
X449119345Y-237053380D02*
X449119345Y-236053380D01*
X449547916Y-237053380D02*
X449547916Y-236529571D01*
X449500297Y-236434333D01*
X449405059Y-236386714D01*
X449262202Y-236386714D01*
X449166964Y-236434333D01*
X449119345Y-236481952D01*
X449881250Y-236386714D02*
X450262202Y-236386714D01*
X450024107Y-236053380D02*
X450024107Y-236910523D01*
X450071726Y-237005761D01*
X450166964Y-237053380D01*
X450262202Y-237053380D01*
X451119345Y-237053380D02*
X450547916Y-237053380D01*
X450833630Y-237053380D02*
X450833630Y-236053380D01*
X450738392Y-236196238D01*
X450643154Y-236291476D01*
X450547916Y-236339095D01*
%TO.C,ArrowLeft1*%
X405066964Y-236767666D02*
X405543154Y-236767666D01*
X404971726Y-237053380D02*
X405305059Y-236053380D01*
X405638392Y-237053380D01*
X405971726Y-237053380D02*
X405971726Y-236386714D01*
X405971726Y-236577190D02*
X406019345Y-236481952D01*
X406066964Y-236434333D01*
X406162202Y-236386714D01*
X406257440Y-236386714D01*
X406590773Y-237053380D02*
X406590773Y-236386714D01*
X406590773Y-236577190D02*
X406638392Y-236481952D01*
X406686011Y-236434333D01*
X406781250Y-236386714D01*
X406876488Y-236386714D01*
X407352678Y-237053380D02*
X407257440Y-237005761D01*
X407209821Y-236958142D01*
X407162202Y-236862904D01*
X407162202Y-236577190D01*
X407209821Y-236481952D01*
X407257440Y-236434333D01*
X407352678Y-236386714D01*
X407495535Y-236386714D01*
X407590773Y-236434333D01*
X407638392Y-236481952D01*
X407686011Y-236577190D01*
X407686011Y-236862904D01*
X407638392Y-236958142D01*
X407590773Y-237005761D01*
X407495535Y-237053380D01*
X407352678Y-237053380D01*
X408019345Y-236386714D02*
X408209821Y-237053380D01*
X408400297Y-236577190D01*
X408590773Y-237053380D01*
X408781250Y-236386714D01*
X409638392Y-237053380D02*
X409162202Y-237053380D01*
X409162202Y-236053380D01*
X410352678Y-237005761D02*
X410257440Y-237053380D01*
X410066964Y-237053380D01*
X409971726Y-237005761D01*
X409924107Y-236910523D01*
X409924107Y-236529571D01*
X409971726Y-236434333D01*
X410066964Y-236386714D01*
X410257440Y-236386714D01*
X410352678Y-236434333D01*
X410400297Y-236529571D01*
X410400297Y-236624809D01*
X409924107Y-236720047D01*
X410686011Y-236386714D02*
X411066964Y-236386714D01*
X410828869Y-237053380D02*
X410828869Y-236196238D01*
X410876488Y-236101000D01*
X410971726Y-236053380D01*
X411066964Y-236053380D01*
X411257440Y-236386714D02*
X411638392Y-236386714D01*
X411400297Y-236053380D02*
X411400297Y-236910523D01*
X411447916Y-237005761D01*
X411543154Y-237053380D01*
X411638392Y-237053380D01*
X412495535Y-237053380D02*
X411924107Y-237053380D01*
X412209821Y-237053380D02*
X412209821Y-236053380D01*
X412114583Y-236196238D01*
X412019345Y-236291476D01*
X411924107Y-236339095D01*
%TO.C,ArrowDown1*%
X423593154Y-236767666D02*
X424069345Y-236767666D01*
X423497916Y-237053380D02*
X423831250Y-236053380D01*
X424164583Y-237053380D01*
X424497916Y-237053380D02*
X424497916Y-236386714D01*
X424497916Y-236577190D02*
X424545535Y-236481952D01*
X424593154Y-236434333D01*
X424688392Y-236386714D01*
X424783630Y-236386714D01*
X425116964Y-237053380D02*
X425116964Y-236386714D01*
X425116964Y-236577190D02*
X425164583Y-236481952D01*
X425212202Y-236434333D01*
X425307440Y-236386714D01*
X425402678Y-236386714D01*
X425878869Y-237053380D02*
X425783630Y-237005761D01*
X425736011Y-236958142D01*
X425688392Y-236862904D01*
X425688392Y-236577190D01*
X425736011Y-236481952D01*
X425783630Y-236434333D01*
X425878869Y-236386714D01*
X426021726Y-236386714D01*
X426116964Y-236434333D01*
X426164583Y-236481952D01*
X426212202Y-236577190D01*
X426212202Y-236862904D01*
X426164583Y-236958142D01*
X426116964Y-237005761D01*
X426021726Y-237053380D01*
X425878869Y-237053380D01*
X426545535Y-236386714D02*
X426736011Y-237053380D01*
X426926488Y-236577190D01*
X427116964Y-237053380D01*
X427307440Y-236386714D01*
X427688392Y-237053380D02*
X427688392Y-236053380D01*
X427926488Y-236053380D01*
X428069345Y-236101000D01*
X428164583Y-236196238D01*
X428212202Y-236291476D01*
X428259821Y-236481952D01*
X428259821Y-236624809D01*
X428212202Y-236815285D01*
X428164583Y-236910523D01*
X428069345Y-237005761D01*
X427926488Y-237053380D01*
X427688392Y-237053380D01*
X428831250Y-237053380D02*
X428736011Y-237005761D01*
X428688392Y-236958142D01*
X428640773Y-236862904D01*
X428640773Y-236577190D01*
X428688392Y-236481952D01*
X428736011Y-236434333D01*
X428831250Y-236386714D01*
X428974107Y-236386714D01*
X429069345Y-236434333D01*
X429116964Y-236481952D01*
X429164583Y-236577190D01*
X429164583Y-236862904D01*
X429116964Y-236958142D01*
X429069345Y-237005761D01*
X428974107Y-237053380D01*
X428831250Y-237053380D01*
X429497916Y-236386714D02*
X429688392Y-237053380D01*
X429878869Y-236577190D01*
X430069345Y-237053380D01*
X430259821Y-236386714D01*
X430640773Y-236386714D02*
X430640773Y-237053380D01*
X430640773Y-236481952D02*
X430688392Y-236434333D01*
X430783630Y-236386714D01*
X430926488Y-236386714D01*
X431021726Y-236434333D01*
X431069345Y-236529571D01*
X431069345Y-237053380D01*
X432069345Y-237053380D02*
X431497916Y-237053380D01*
X431783630Y-237053380D02*
X431783630Y-236053380D01*
X431688392Y-236196238D01*
X431593154Y-236291476D01*
X431497916Y-236339095D01*
%TO.C,A1*%
X193754464Y-198667666D02*
X194230654Y-198667666D01*
X193659226Y-198953380D02*
X193992559Y-197953380D01*
X194325892Y-198953380D01*
X195183035Y-198953380D02*
X194611607Y-198953380D01*
X194897321Y-198953380D02*
X194897321Y-197953380D01*
X194802083Y-198096238D01*
X194706845Y-198191476D01*
X194611607Y-198239095D01*
%TO.C,`1*%
X446309821Y-159805761D02*
X446452678Y-159948619D01*
X447357440Y-160853380D02*
X446786011Y-160853380D01*
X447071726Y-160853380D02*
X447071726Y-159853380D01*
X446976488Y-159996238D01*
X446881250Y-160091476D01*
X446786011Y-160139095D01*
%TO.C,]1*%
X398589583Y-180236714D02*
X398827678Y-180236714D01*
X398827678Y-178808142D01*
X398589583Y-178808142D01*
X399875297Y-179903380D02*
X399303869Y-179903380D01*
X399589583Y-179903380D02*
X399589583Y-178903380D01*
X399494345Y-179046238D01*
X399399107Y-179141476D01*
X399303869Y-179189095D01*
%TO.C,\u005C1*%
X422163988Y-178808142D02*
X423021130Y-180093857D01*
X423687797Y-179903380D02*
X423116369Y-179903380D01*
X423402083Y-179903380D02*
X423402083Y-178903380D01*
X423306845Y-179046238D01*
X423211607Y-179141476D01*
X423116369Y-179189095D01*
%TO.C,[1*%
X379920535Y-180236714D02*
X379682440Y-180236714D01*
X379682440Y-178808142D01*
X379920535Y-178808142D01*
X380825297Y-179903380D02*
X380253869Y-179903380D01*
X380539583Y-179903380D02*
X380539583Y-178903380D01*
X380444345Y-179046238D01*
X380349107Y-179141476D01*
X380253869Y-179189095D01*
%TO.C,=1*%
X388874107Y-160329571D02*
X389636011Y-160329571D01*
X389636011Y-160615285D02*
X388874107Y-160615285D01*
X390636011Y-160853380D02*
X390064583Y-160853380D01*
X390350297Y-160853380D02*
X390350297Y-159853380D01*
X390255059Y-159996238D01*
X390159821Y-160091476D01*
X390064583Y-160139095D01*
%TO.C,;1*%
X365490178Y-198905761D02*
X365490178Y-198953380D01*
X365442559Y-199048619D01*
X365394940Y-199096238D01*
X365442559Y-198334333D02*
X365490178Y-198381952D01*
X365442559Y-198429571D01*
X365394940Y-198381952D01*
X365442559Y-198334333D01*
X365442559Y-198429571D01*
X366442559Y-198953380D02*
X365871130Y-198953380D01*
X366156845Y-198953380D02*
X366156845Y-197953380D01*
X366061607Y-198096238D01*
X365966369Y-198191476D01*
X365871130Y-198239095D01*
%TO.C,/1*%
X375396130Y-216955761D02*
X374538988Y-218241476D01*
X376253273Y-218003380D02*
X375681845Y-218003380D01*
X375967559Y-218003380D02*
X375967559Y-217003380D01*
X375872321Y-217146238D01*
X375777083Y-217241476D01*
X375681845Y-217289095D01*
%TO.C,-1*%
X369824107Y-160472428D02*
X370586011Y-160472428D01*
X371586011Y-160853380D02*
X371014583Y-160853380D01*
X371300297Y-160853380D02*
X371300297Y-159853380D01*
X371205059Y-159996238D01*
X371109821Y-160091476D01*
X371014583Y-160139095D01*
%TO.C,'1*%
X384540178Y-197953380D02*
X384444940Y-198143857D01*
X385492559Y-198953380D02*
X384921130Y-198953380D01*
X385206845Y-198953380D02*
X385206845Y-197953380D01*
X385111607Y-198096238D01*
X385016369Y-198191476D01*
X384921130Y-198239095D01*
%TO.C,.1*%
X355917559Y-217908142D02*
X355965178Y-217955761D01*
X355917559Y-218003380D01*
X355869940Y-217955761D01*
X355917559Y-217908142D01*
X355917559Y-218003380D01*
X356917559Y-218003380D02*
X356346130Y-218003380D01*
X356631845Y-218003380D02*
X356631845Y-217003380D01*
X356536607Y-217146238D01*
X356441369Y-217241476D01*
X356346130Y-217289095D01*
%TO.C,\u002C1*%
X336915178Y-217955761D02*
X336915178Y-218003380D01*
X336867559Y-218098619D01*
X336819940Y-218146238D01*
X337867559Y-218003380D02*
X337296130Y-218003380D01*
X337581845Y-218003380D02*
X337581845Y-217003380D01*
X337486607Y-217146238D01*
X337391369Y-217241476D01*
X337296130Y-217289095D01*
%TD*%
M02*
