%TF.GenerationSoftware,KiCad,Pcbnew,(5.1.6)-1*%
%TF.CreationDate,2020-07-31T11:49:21-04:00*%
%TF.ProjectId,panama-keyboard,70616e61-6d61-42d6-9b65-79626f617264,w1*%
%TF.SameCoordinates,Original*%
%TF.FileFunction,Legend,Bot*%
%TF.FilePolarity,Positive*%
%FSLAX46Y46*%
G04 Gerber Fmt 4.6, Leading zero omitted, Abs format (unit mm)*
G04 Created by KiCad (PCBNEW (5.1.6)-1) date 2020-07-31 11:49:21*
%MOMM*%
%LPD*%
G01*
G04 APERTURE LIST*
%ADD10C,0.300000*%
%ADD11C,0.150000*%
%ADD12C,0.010000*%
%ADD13C,0.120000*%
G04 APERTURE END LIST*
D10*
X337056714Y-242603571D02*
X337056714Y-241103571D01*
X336485285Y-241103571D01*
X336342428Y-241175000D01*
X336271000Y-241246428D01*
X336199571Y-241389285D01*
X336199571Y-241603571D01*
X336271000Y-241746428D01*
X336342428Y-241817857D01*
X336485285Y-241889285D01*
X337056714Y-241889285D01*
X335628142Y-242175000D02*
X334913857Y-242175000D01*
X335771000Y-242603571D02*
X335271000Y-241103571D01*
X334771000Y-242603571D01*
X334271000Y-242603571D02*
X334271000Y-241103571D01*
X333413857Y-242603571D01*
X333413857Y-241103571D01*
X332771000Y-242175000D02*
X332056714Y-242175000D01*
X332913857Y-242603571D02*
X332413857Y-241103571D01*
X331913857Y-242603571D01*
X331413857Y-242603571D02*
X331413857Y-241103571D01*
X330913857Y-242175000D01*
X330413857Y-241103571D01*
X330413857Y-242603571D01*
X329771000Y-242175000D02*
X329056714Y-242175000D01*
X329913857Y-242603571D02*
X329413857Y-241103571D01*
X328913857Y-242603571D01*
X327271000Y-242603571D02*
X327271000Y-241103571D01*
X326413857Y-242603571D02*
X327056714Y-241746428D01*
X326413857Y-241103571D02*
X327271000Y-241960714D01*
X325771000Y-241817857D02*
X325271000Y-241817857D01*
X325056714Y-242603571D02*
X325771000Y-242603571D01*
X325771000Y-241103571D01*
X325056714Y-241103571D01*
X324128142Y-241889285D02*
X324128142Y-242603571D01*
X324628142Y-241103571D02*
X324128142Y-241889285D01*
X323628142Y-241103571D01*
X322628142Y-241817857D02*
X322413857Y-241889285D01*
X322342428Y-241960714D01*
X322271000Y-242103571D01*
X322271000Y-242317857D01*
X322342428Y-242460714D01*
X322413857Y-242532142D01*
X322556714Y-242603571D01*
X323128142Y-242603571D01*
X323128142Y-241103571D01*
X322628142Y-241103571D01*
X322485285Y-241175000D01*
X322413857Y-241246428D01*
X322342428Y-241389285D01*
X322342428Y-241532142D01*
X322413857Y-241675000D01*
X322485285Y-241746428D01*
X322628142Y-241817857D01*
X323128142Y-241817857D01*
X321342428Y-241103571D02*
X321056714Y-241103571D01*
X320913857Y-241175000D01*
X320771000Y-241317857D01*
X320699571Y-241603571D01*
X320699571Y-242103571D01*
X320771000Y-242389285D01*
X320913857Y-242532142D01*
X321056714Y-242603571D01*
X321342428Y-242603571D01*
X321485285Y-242532142D01*
X321628142Y-242389285D01*
X321699571Y-242103571D01*
X321699571Y-241603571D01*
X321628142Y-241317857D01*
X321485285Y-241175000D01*
X321342428Y-241103571D01*
X320128142Y-242175000D02*
X319413857Y-242175000D01*
X320271000Y-242603571D02*
X319771000Y-241103571D01*
X319271000Y-242603571D01*
X317913857Y-242603571D02*
X318413857Y-241889285D01*
X318771000Y-242603571D02*
X318771000Y-241103571D01*
X318199571Y-241103571D01*
X318056714Y-241175000D01*
X317985285Y-241246428D01*
X317913857Y-241389285D01*
X317913857Y-241603571D01*
X317985285Y-241746428D01*
X318056714Y-241817857D01*
X318199571Y-241889285D01*
X318771000Y-241889285D01*
X317271000Y-242603571D02*
X317271000Y-241103571D01*
X316913857Y-241103571D01*
X316699571Y-241175000D01*
X316556714Y-241317857D01*
X316485285Y-241460714D01*
X316413857Y-241746428D01*
X316413857Y-241960714D01*
X316485285Y-242246428D01*
X316556714Y-242389285D01*
X316699571Y-242532142D01*
X316913857Y-242603571D01*
X317271000Y-242603571D01*
X328913857Y-244153571D02*
X328556714Y-245153571D01*
X328199571Y-244153571D01*
X326842428Y-245153571D02*
X327699571Y-245153571D01*
X327271000Y-245153571D02*
X327271000Y-243653571D01*
X327413857Y-243867857D01*
X327556714Y-244010714D01*
X327699571Y-244082142D01*
X326199571Y-245010714D02*
X326128142Y-245082142D01*
X326199571Y-245153571D01*
X326271000Y-245082142D01*
X326199571Y-245010714D01*
X326199571Y-245153571D01*
X325199571Y-243653571D02*
X325056714Y-243653571D01*
X324913857Y-243725000D01*
X324842428Y-243796428D01*
X324771000Y-243939285D01*
X324699571Y-244225000D01*
X324699571Y-244582142D01*
X324771000Y-244867857D01*
X324842428Y-245010714D01*
X324913857Y-245082142D01*
X325056714Y-245153571D01*
X325199571Y-245153571D01*
X325342428Y-245082142D01*
X325413857Y-245010714D01*
X325485285Y-244867857D01*
X325556714Y-244582142D01*
X325556714Y-244225000D01*
X325485285Y-243939285D01*
X325413857Y-243796428D01*
X325342428Y-243725000D01*
X325199571Y-243653571D01*
X340056714Y-247703571D02*
X340056714Y-246203571D01*
X339556714Y-247275000D01*
X339056714Y-246203571D01*
X339056714Y-247703571D01*
X338342428Y-246917857D02*
X337842428Y-246917857D01*
X337628142Y-247703571D02*
X338342428Y-247703571D01*
X338342428Y-246203571D01*
X337628142Y-246203571D01*
X336128142Y-247703571D02*
X336628142Y-246989285D01*
X336985285Y-247703571D02*
X336985285Y-246203571D01*
X336413857Y-246203571D01*
X336271000Y-246275000D01*
X336199571Y-246346428D01*
X336128142Y-246489285D01*
X336128142Y-246703571D01*
X336199571Y-246846428D01*
X336271000Y-246917857D01*
X336413857Y-246989285D01*
X336985285Y-246989285D01*
X334628142Y-247560714D02*
X334699571Y-247632142D01*
X334913857Y-247703571D01*
X335056714Y-247703571D01*
X335271000Y-247632142D01*
X335413857Y-247489285D01*
X335485285Y-247346428D01*
X335556714Y-247060714D01*
X335556714Y-246846428D01*
X335485285Y-246560714D01*
X335413857Y-246417857D01*
X335271000Y-246275000D01*
X335056714Y-246203571D01*
X334913857Y-246203571D01*
X334699571Y-246275000D01*
X334628142Y-246346428D01*
X333985285Y-247703571D02*
X333985285Y-246203571D01*
X333271000Y-246917857D02*
X332771000Y-246917857D01*
X332556714Y-247703571D02*
X333271000Y-247703571D01*
X333271000Y-246203571D01*
X332556714Y-246203571D01*
X331056714Y-247703571D02*
X331556714Y-246989285D01*
X331913857Y-247703571D02*
X331913857Y-246203571D01*
X331342428Y-246203571D01*
X331199571Y-246275000D01*
X331128142Y-246346428D01*
X331056714Y-246489285D01*
X331056714Y-246703571D01*
X331128142Y-246846428D01*
X331199571Y-246917857D01*
X331342428Y-246989285D01*
X331913857Y-246989285D01*
X329485285Y-246203571D02*
X328628142Y-246203571D01*
X329056714Y-247703571D02*
X329056714Y-246203571D01*
X328128142Y-246917857D02*
X327628142Y-246917857D01*
X327413857Y-247703571D02*
X328128142Y-247703571D01*
X328128142Y-246203571D01*
X327413857Y-246203571D01*
X325913857Y-247560714D02*
X325985285Y-247632142D01*
X326199571Y-247703571D01*
X326342428Y-247703571D01*
X326556714Y-247632142D01*
X326699571Y-247489285D01*
X326771000Y-247346428D01*
X326842428Y-247060714D01*
X326842428Y-246846428D01*
X326771000Y-246560714D01*
X326699571Y-246417857D01*
X326556714Y-246275000D01*
X326342428Y-246203571D01*
X326199571Y-246203571D01*
X325985285Y-246275000D01*
X325913857Y-246346428D01*
X325271000Y-247703571D02*
X325271000Y-246203571D01*
X325271000Y-246917857D02*
X324413857Y-246917857D01*
X324413857Y-247703571D02*
X324413857Y-246203571D01*
X323699571Y-247703571D02*
X323699571Y-246203571D01*
X322842428Y-247703571D01*
X322842428Y-246203571D01*
X321842428Y-246203571D02*
X321556714Y-246203571D01*
X321413857Y-246275000D01*
X321271000Y-246417857D01*
X321199571Y-246703571D01*
X321199571Y-247203571D01*
X321271000Y-247489285D01*
X321413857Y-247632142D01*
X321556714Y-247703571D01*
X321842428Y-247703571D01*
X321985285Y-247632142D01*
X322128142Y-247489285D01*
X322199571Y-247203571D01*
X322199571Y-246703571D01*
X322128142Y-246417857D01*
X321985285Y-246275000D01*
X321842428Y-246203571D01*
X319842428Y-247703571D02*
X320556714Y-247703571D01*
X320556714Y-246203571D01*
X319056714Y-246203571D02*
X318771000Y-246203571D01*
X318628142Y-246275000D01*
X318485285Y-246417857D01*
X318413857Y-246703571D01*
X318413857Y-247203571D01*
X318485285Y-247489285D01*
X318628142Y-247632142D01*
X318771000Y-247703571D01*
X319056714Y-247703571D01*
X319199571Y-247632142D01*
X319342428Y-247489285D01*
X319413857Y-247203571D01*
X319413857Y-246703571D01*
X319342428Y-246417857D01*
X319199571Y-246275000D01*
X319056714Y-246203571D01*
X316985285Y-246275000D02*
X317128142Y-246203571D01*
X317342428Y-246203571D01*
X317556714Y-246275000D01*
X317699571Y-246417857D01*
X317771000Y-246560714D01*
X317842428Y-246846428D01*
X317842428Y-247060714D01*
X317771000Y-247346428D01*
X317699571Y-247489285D01*
X317556714Y-247632142D01*
X317342428Y-247703571D01*
X317199571Y-247703571D01*
X316985285Y-247632142D01*
X316913857Y-247560714D01*
X316913857Y-247060714D01*
X317199571Y-247060714D01*
X316271000Y-247703571D02*
X316271000Y-246203571D01*
X315556714Y-246917857D02*
X315056714Y-246917857D01*
X314842428Y-247703571D02*
X315556714Y-247703571D01*
X315556714Y-246203571D01*
X314842428Y-246203571D01*
X314271000Y-247632142D02*
X314056714Y-247703571D01*
X313699571Y-247703571D01*
X313556714Y-247632142D01*
X313485285Y-247560714D01*
X313413857Y-247417857D01*
X313413857Y-247275000D01*
X313485285Y-247132142D01*
X313556714Y-247060714D01*
X313699571Y-246989285D01*
X313985285Y-246917857D01*
X314128142Y-246846428D01*
X314199571Y-246775000D01*
X314271000Y-246632142D01*
X314271000Y-246489285D01*
X314199571Y-246346428D01*
X314128142Y-246275000D01*
X313985285Y-246203571D01*
X313628142Y-246203571D01*
X313413857Y-246275000D01*
D11*
X260691000Y-156027380D02*
X261167190Y-156027380D01*
X261167190Y-155027380D01*
X260357666Y-155503571D02*
X260024333Y-155503571D01*
X259881476Y-156027380D02*
X260357666Y-156027380D01*
X260357666Y-155027380D01*
X259881476Y-155027380D01*
X259452904Y-156027380D02*
X259452904Y-155027380D01*
X259214809Y-155027380D01*
X259071952Y-155075000D01*
X258976714Y-155170238D01*
X258929095Y-155265476D01*
X258881476Y-155455952D01*
X258881476Y-155598809D01*
X258929095Y-155789285D01*
X258976714Y-155884523D01*
X259071952Y-155979761D01*
X259214809Y-156027380D01*
X259452904Y-156027380D01*
X257691000Y-155503571D02*
X257357666Y-155503571D01*
X257214809Y-156027380D02*
X257691000Y-156027380D01*
X257691000Y-155027380D01*
X257214809Y-155027380D01*
X256786238Y-156027380D02*
X256786238Y-155027380D01*
X256214809Y-156027380D01*
X256214809Y-155027380D01*
X255738619Y-156027380D02*
X255738619Y-155027380D01*
X255500523Y-155027380D01*
X255357666Y-155075000D01*
X255262428Y-155170238D01*
X255214809Y-155265476D01*
X255167190Y-155455952D01*
X255167190Y-155598809D01*
X255214809Y-155789285D01*
X255262428Y-155884523D01*
X255357666Y-155979761D01*
X255500523Y-156027380D01*
X255738619Y-156027380D01*
X350090857Y-155233714D02*
X350852761Y-155519428D01*
X350090857Y-155805142D01*
X349614666Y-155519428D02*
X348852761Y-155519428D01*
X347900380Y-155900380D02*
X348376571Y-155900380D01*
X348376571Y-154900380D01*
X347567047Y-155376571D02*
X347233714Y-155376571D01*
X347090857Y-155900380D02*
X347567047Y-155900380D01*
X347567047Y-154900380D01*
X347090857Y-154900380D01*
X346662285Y-155900380D02*
X346662285Y-154900380D01*
X346424190Y-154900380D01*
X346281333Y-154948000D01*
X346186095Y-155043238D01*
X346138476Y-155138476D01*
X346090857Y-155328952D01*
X346090857Y-155471809D01*
X346138476Y-155662285D01*
X346186095Y-155757523D01*
X346281333Y-155852761D01*
X346424190Y-155900380D01*
X346662285Y-155900380D01*
X344948000Y-155852761D02*
X344805142Y-155900380D01*
X344567047Y-155900380D01*
X344471809Y-155852761D01*
X344424190Y-155805142D01*
X344376571Y-155709904D01*
X344376571Y-155614666D01*
X344424190Y-155519428D01*
X344471809Y-155471809D01*
X344567047Y-155424190D01*
X344757523Y-155376571D01*
X344852761Y-155328952D01*
X344900380Y-155281333D01*
X344948000Y-155186095D01*
X344948000Y-155090857D01*
X344900380Y-154995619D01*
X344852761Y-154948000D01*
X344757523Y-154900380D01*
X344519428Y-154900380D01*
X344376571Y-154948000D01*
X344090857Y-154900380D02*
X343519428Y-154900380D01*
X343805142Y-155900380D02*
X343805142Y-154900380D01*
X343233714Y-155614666D02*
X342757523Y-155614666D01*
X343328952Y-155900380D02*
X342995619Y-154900380D01*
X342662285Y-155900380D01*
X341757523Y-155900380D02*
X342090857Y-155424190D01*
X342328952Y-155900380D02*
X342328952Y-154900380D01*
X341948000Y-154900380D01*
X341852761Y-154948000D01*
X341805142Y-154995619D01*
X341757523Y-155090857D01*
X341757523Y-155233714D01*
X341805142Y-155328952D01*
X341852761Y-155376571D01*
X341948000Y-155424190D01*
X342328952Y-155424190D01*
X341471809Y-154900380D02*
X340900380Y-154900380D01*
X341186095Y-155900380D02*
X341186095Y-154900380D01*
X352877380Y-155051190D02*
X351877380Y-155051190D01*
X352877380Y-155527380D02*
X351877380Y-155527380D01*
X352877380Y-156098809D01*
X351877380Y-156098809D01*
X248896130Y-155051190D02*
X247896130Y-155051190D01*
X248896130Y-155527380D02*
X247896130Y-155527380D01*
X248896130Y-156098809D01*
X247896130Y-156098809D01*
X181427380Y-234426190D02*
X180427380Y-234426190D01*
X181427380Y-234902380D02*
X180427380Y-234902380D01*
X181427380Y-235473809D01*
X180427380Y-235473809D01*
X256039880Y-234426190D02*
X255039880Y-234426190D01*
X256039880Y-234902380D02*
X255039880Y-234902380D01*
X256039880Y-235473809D01*
X255039880Y-235473809D01*
X345733630Y-234426190D02*
X344733630Y-234426190D01*
X345733630Y-234902380D02*
X344733630Y-234902380D01*
X345733630Y-235473809D01*
X344733630Y-235473809D01*
X441777380Y-234426190D02*
X440777380Y-234426190D01*
X441777380Y-234902380D02*
X440777380Y-234902380D01*
X441777380Y-235473809D01*
X440777380Y-235473809D01*
X434705059Y-194921130D02*
X434705059Y-193921130D01*
X434228869Y-194921130D02*
X434228869Y-193921130D01*
X433657440Y-194921130D01*
X433657440Y-193921130D01*
X437880059Y-155233630D02*
X437880059Y-154233630D01*
X437403869Y-155233630D02*
X437403869Y-154233630D01*
X436832440Y-155233630D01*
X436832440Y-154233630D01*
X180705059Y-201271130D02*
X180705059Y-200271130D01*
X180228869Y-201271130D02*
X180228869Y-200271130D01*
X179657440Y-201271130D01*
X179657440Y-200271130D01*
X171180059Y-162377380D02*
X171180059Y-161377380D01*
X170703869Y-162377380D02*
X170703869Y-161377380D01*
X170132440Y-162377380D01*
X170132440Y-161377380D01*
D12*
%TO.C,G\u002A\u002A\u002A*%
G36*
X265057227Y-247730989D02*
G01*
X264981398Y-247833031D01*
X264923722Y-247977572D01*
X264889204Y-248143723D01*
X264882850Y-248310596D01*
X264909665Y-248457303D01*
X264945567Y-248529580D01*
X265034071Y-248594841D01*
X265160450Y-248624565D01*
X265288561Y-248616028D01*
X265382264Y-248566501D01*
X265385507Y-248562769D01*
X265413656Y-248485453D01*
X265430647Y-248353757D01*
X265435469Y-248197354D01*
X265427112Y-248045920D01*
X265406850Y-247936289D01*
X265332952Y-247792960D01*
X265224546Y-247708378D01*
X265146203Y-247692333D01*
X265057227Y-247730989D01*
G37*
X265057227Y-247730989D02*
X264981398Y-247833031D01*
X264923722Y-247977572D01*
X264889204Y-248143723D01*
X264882850Y-248310596D01*
X264909665Y-248457303D01*
X264945567Y-248529580D01*
X265034071Y-248594841D01*
X265160450Y-248624565D01*
X265288561Y-248616028D01*
X265382264Y-248566501D01*
X265385507Y-248562769D01*
X265413656Y-248485453D01*
X265430647Y-248353757D01*
X265435469Y-248197354D01*
X265427112Y-248045920D01*
X265406850Y-247936289D01*
X265332952Y-247792960D01*
X265224546Y-247708378D01*
X265146203Y-247692333D01*
X265057227Y-247730989D01*
G36*
X264127086Y-247758234D02*
G01*
X264080157Y-247799684D01*
X264051974Y-247856658D01*
X264037888Y-247949651D01*
X264033251Y-248099158D01*
X264033000Y-248173100D01*
X264039425Y-248368181D01*
X264057498Y-248506668D01*
X264083800Y-248572867D01*
X264174332Y-248614085D01*
X264299902Y-248620278D01*
X264419163Y-248592939D01*
X264472813Y-248558806D01*
X264545994Y-248432274D01*
X264576058Y-248261335D01*
X264563769Y-248073986D01*
X264509893Y-247898229D01*
X264452148Y-247802461D01*
X264348657Y-247711556D01*
X264237743Y-247702455D01*
X264127086Y-247758234D01*
G37*
X264127086Y-247758234D02*
X264080157Y-247799684D01*
X264051974Y-247856658D01*
X264037888Y-247949651D01*
X264033251Y-248099158D01*
X264033000Y-248173100D01*
X264039425Y-248368181D01*
X264057498Y-248506668D01*
X264083800Y-248572867D01*
X264174332Y-248614085D01*
X264299902Y-248620278D01*
X264419163Y-248592939D01*
X264472813Y-248558806D01*
X264545994Y-248432274D01*
X264576058Y-248261335D01*
X264563769Y-248073986D01*
X264509893Y-247898229D01*
X264452148Y-247802461D01*
X264348657Y-247711556D01*
X264237743Y-247702455D01*
X264127086Y-247758234D01*
G36*
X263270942Y-247736159D02*
G01*
X263233663Y-247830624D01*
X263228291Y-247848584D01*
X263205474Y-247976208D01*
X263193401Y-248148263D01*
X263194093Y-248306167D01*
X263207500Y-248602500D01*
X263403248Y-248615185D01*
X263534021Y-248615568D01*
X263603222Y-248591350D01*
X263625498Y-248558806D01*
X263644932Y-248451513D01*
X263649535Y-248293478D01*
X263640643Y-248117069D01*
X263619594Y-247954651D01*
X263596694Y-247861667D01*
X263547686Y-247757811D01*
X263476767Y-247711569D01*
X263411032Y-247700417D01*
X263321142Y-247699991D01*
X263270942Y-247736159D01*
G37*
X263270942Y-247736159D02*
X263233663Y-247830624D01*
X263228291Y-247848584D01*
X263205474Y-247976208D01*
X263193401Y-248148263D01*
X263194093Y-248306167D01*
X263207500Y-248602500D01*
X263403248Y-248615185D01*
X263534021Y-248615568D01*
X263603222Y-248591350D01*
X263625498Y-248558806D01*
X263644932Y-248451513D01*
X263649535Y-248293478D01*
X263640643Y-248117069D01*
X263619594Y-247954651D01*
X263596694Y-247861667D01*
X263547686Y-247757811D01*
X263476767Y-247711569D01*
X263411032Y-247700417D01*
X263321142Y-247699991D01*
X263270942Y-247736159D01*
G36*
X259355167Y-246430056D02*
G01*
X259058833Y-246443500D01*
X259058833Y-246570500D01*
X259063709Y-246644788D01*
X259092560Y-246684116D01*
X259166721Y-246701970D01*
X259279903Y-246710255D01*
X259500973Y-246723009D01*
X259512736Y-247302395D01*
X259518975Y-247539680D01*
X259527511Y-247704816D01*
X259539979Y-247810320D01*
X259558014Y-247868708D01*
X259583251Y-247892496D01*
X259590064Y-247894354D01*
X259665328Y-247889086D01*
X259685314Y-247877241D01*
X259696288Y-247826069D01*
X259705430Y-247706863D01*
X259711909Y-247536250D01*
X259714895Y-247330855D01*
X259715000Y-247283111D01*
X259715000Y-246718667D01*
X259855076Y-246718667D01*
X259990913Y-246698375D01*
X260089559Y-246646033D01*
X260131807Y-246574444D01*
X260126668Y-246537662D01*
X260066261Y-246489762D01*
X259934386Y-246454003D01*
X259743600Y-246432139D01*
X259506462Y-246425920D01*
X259355167Y-246430056D01*
G37*
X259355167Y-246430056D02*
X259058833Y-246443500D01*
X259058833Y-246570500D01*
X259063709Y-246644788D01*
X259092560Y-246684116D01*
X259166721Y-246701970D01*
X259279903Y-246710255D01*
X259500973Y-246723009D01*
X259512736Y-247302395D01*
X259518975Y-247539680D01*
X259527511Y-247704816D01*
X259539979Y-247810320D01*
X259558014Y-247868708D01*
X259583251Y-247892496D01*
X259590064Y-247894354D01*
X259665328Y-247889086D01*
X259685314Y-247877241D01*
X259696288Y-247826069D01*
X259705430Y-247706863D01*
X259711909Y-247536250D01*
X259714895Y-247330855D01*
X259715000Y-247283111D01*
X259715000Y-246718667D01*
X259855076Y-246718667D01*
X259990913Y-246698375D01*
X260089559Y-246646033D01*
X260131807Y-246574444D01*
X260126668Y-246537662D01*
X260066261Y-246489762D01*
X259934386Y-246454003D01*
X259743600Y-246432139D01*
X259506462Y-246425920D01*
X259355167Y-246430056D01*
G36*
X258165935Y-246431177D02*
G01*
X257940873Y-246445033D01*
X257790671Y-246464028D01*
X257705593Y-246489759D01*
X257680632Y-246510810D01*
X257670813Y-246586546D01*
X257740595Y-246646918D01*
X257885852Y-246689128D01*
X257959176Y-246699730D01*
X258146501Y-246722705D01*
X258264677Y-246744161D01*
X258328724Y-246771752D01*
X258353663Y-246813130D01*
X258354513Y-246875947D01*
X258352324Y-246900036D01*
X258341080Y-246973586D01*
X258311945Y-247018210D01*
X258245113Y-247046176D01*
X258120773Y-247069754D01*
X258064000Y-247078623D01*
X257913414Y-247105668D01*
X257829378Y-247133715D01*
X257794082Y-247170984D01*
X257788833Y-247205623D01*
X257803060Y-247259689D01*
X257859786Y-247288078D01*
X257979333Y-247301331D01*
X258161654Y-247315800D01*
X258275052Y-247338076D01*
X258335271Y-247375502D01*
X258358054Y-247435415D01*
X258360333Y-247478975D01*
X258351002Y-247566135D01*
X258312804Y-247623513D01*
X258230436Y-247659229D01*
X258088592Y-247681402D01*
X257958167Y-247692333D01*
X257801753Y-247706245D01*
X257712127Y-247724264D01*
X257671437Y-247752766D01*
X257661834Y-247798126D01*
X257661833Y-247798167D01*
X257667552Y-247835049D01*
X257694338Y-247859977D01*
X257756636Y-247875884D01*
X257868892Y-247885699D01*
X258045551Y-247892354D01*
X258138083Y-247894803D01*
X258614333Y-247906773D01*
X258614333Y-246411235D01*
X258165935Y-246431177D01*
G37*
X258165935Y-246431177D02*
X257940873Y-246445033D01*
X257790671Y-246464028D01*
X257705593Y-246489759D01*
X257680632Y-246510810D01*
X257670813Y-246586546D01*
X257740595Y-246646918D01*
X257885852Y-246689128D01*
X257959176Y-246699730D01*
X258146501Y-246722705D01*
X258264677Y-246744161D01*
X258328724Y-246771752D01*
X258353663Y-246813130D01*
X258354513Y-246875947D01*
X258352324Y-246900036D01*
X258341080Y-246973586D01*
X258311945Y-247018210D01*
X258245113Y-247046176D01*
X258120773Y-247069754D01*
X258064000Y-247078623D01*
X257913414Y-247105668D01*
X257829378Y-247133715D01*
X257794082Y-247170984D01*
X257788833Y-247205623D01*
X257803060Y-247259689D01*
X257859786Y-247288078D01*
X257979333Y-247301331D01*
X258161654Y-247315800D01*
X258275052Y-247338076D01*
X258335271Y-247375502D01*
X258358054Y-247435415D01*
X258360333Y-247478975D01*
X258351002Y-247566135D01*
X258312804Y-247623513D01*
X258230436Y-247659229D01*
X258088592Y-247681402D01*
X257958167Y-247692333D01*
X257801753Y-247706245D01*
X257712127Y-247724264D01*
X257671437Y-247752766D01*
X257661834Y-247798126D01*
X257661833Y-247798167D01*
X257667552Y-247835049D01*
X257694338Y-247859977D01*
X257756636Y-247875884D01*
X257868892Y-247885699D01*
X258045551Y-247892354D01*
X258138083Y-247894803D01*
X258614333Y-247906773D01*
X258614333Y-246411235D01*
X258165935Y-246431177D01*
G36*
X256490893Y-246455626D02*
G01*
X256461961Y-246462882D01*
X256296715Y-246538695D01*
X256189073Y-246667706D01*
X256133158Y-246837296D01*
X256120896Y-246929865D01*
X256149467Y-246966306D01*
X256239321Y-246972666D01*
X256239423Y-246972667D01*
X256346205Y-246954426D01*
X256404509Y-246887522D01*
X256412022Y-246869407D01*
X256492457Y-246750035D01*
X256606241Y-246688417D01*
X256729624Y-246688653D01*
X256838856Y-246754840D01*
X256867108Y-246790870D01*
X256913467Y-246908014D01*
X256939914Y-247069362D01*
X256946396Y-247247505D01*
X256932858Y-247415037D01*
X256899245Y-247544548D01*
X256868688Y-247593345D01*
X256784019Y-247641059D01*
X256669764Y-247664476D01*
X256557598Y-247662227D01*
X256479192Y-247632945D01*
X256463447Y-247610842D01*
X256406643Y-247518164D01*
X256318425Y-247440568D01*
X256230438Y-247403757D01*
X256209314Y-247404413D01*
X256139026Y-247449628D01*
X256129650Y-247536906D01*
X256179176Y-247651661D01*
X256257010Y-247750446D01*
X256351837Y-247841665D01*
X256436480Y-247887159D01*
X256548496Y-247902342D01*
X256629665Y-247903376D01*
X256780631Y-247893299D01*
X256911834Y-247868311D01*
X256961016Y-247850364D01*
X257087486Y-247742070D01*
X257183588Y-247568945D01*
X257240447Y-247348051D01*
X257246040Y-247302493D01*
X257244385Y-247028037D01*
X257183838Y-246797042D01*
X257071307Y-246616907D01*
X256913701Y-246495027D01*
X256717927Y-246438801D01*
X256490893Y-246455626D01*
G37*
X256490893Y-246455626D02*
X256461961Y-246462882D01*
X256296715Y-246538695D01*
X256189073Y-246667706D01*
X256133158Y-246837296D01*
X256120896Y-246929865D01*
X256149467Y-246966306D01*
X256239321Y-246972666D01*
X256239423Y-246972667D01*
X256346205Y-246954426D01*
X256404509Y-246887522D01*
X256412022Y-246869407D01*
X256492457Y-246750035D01*
X256606241Y-246688417D01*
X256729624Y-246688653D01*
X256838856Y-246754840D01*
X256867108Y-246790870D01*
X256913467Y-246908014D01*
X256939914Y-247069362D01*
X256946396Y-247247505D01*
X256932858Y-247415037D01*
X256899245Y-247544548D01*
X256868688Y-247593345D01*
X256784019Y-247641059D01*
X256669764Y-247664476D01*
X256557598Y-247662227D01*
X256479192Y-247632945D01*
X256463447Y-247610842D01*
X256406643Y-247518164D01*
X256318425Y-247440568D01*
X256230438Y-247403757D01*
X256209314Y-247404413D01*
X256139026Y-247449628D01*
X256129650Y-247536906D01*
X256179176Y-247651661D01*
X256257010Y-247750446D01*
X256351837Y-247841665D01*
X256436480Y-247887159D01*
X256548496Y-247902342D01*
X256629665Y-247903376D01*
X256780631Y-247893299D01*
X256911834Y-247868311D01*
X256961016Y-247850364D01*
X257087486Y-247742070D01*
X257183588Y-247568945D01*
X257240447Y-247348051D01*
X257246040Y-247302493D01*
X257244385Y-247028037D01*
X257183838Y-246797042D01*
X257071307Y-246616907D01*
X256913701Y-246495027D01*
X256717927Y-246438801D01*
X256490893Y-246455626D01*
G36*
X254575145Y-246442712D02*
G01*
X254546709Y-246469081D01*
X254533863Y-246530436D01*
X254523471Y-246657847D01*
X254515711Y-246832734D01*
X254510759Y-247036516D01*
X254508793Y-247250614D01*
X254509988Y-247456446D01*
X254514523Y-247635433D01*
X254522572Y-247768995D01*
X254533696Y-247837037D01*
X254592623Y-247893532D01*
X254639529Y-247904000D01*
X254681779Y-247894765D01*
X254705991Y-247855126D01*
X254717006Y-247767182D01*
X254719666Y-247613035D01*
X254719667Y-247607667D01*
X254719667Y-247311333D01*
X255354667Y-247311333D01*
X255354667Y-247540704D01*
X255359234Y-247682747D01*
X255370926Y-247796332D01*
X255380363Y-247837037D01*
X255437404Y-247886533D01*
X255529937Y-247904763D01*
X255612248Y-247884424D01*
X255622778Y-247875778D01*
X255634164Y-247823637D01*
X255642469Y-247705418D01*
X255647683Y-247539650D01*
X255649795Y-247344866D01*
X255648795Y-247139597D01*
X255644672Y-246942374D01*
X255637417Y-246771729D01*
X255627019Y-246646193D01*
X255623476Y-246621244D01*
X255597672Y-246515505D01*
X255557461Y-246474077D01*
X255507525Y-246473078D01*
X255457766Y-246491640D01*
X255424515Y-246542522D01*
X255399849Y-246644486D01*
X255381466Y-246771583D01*
X255344766Y-247057333D01*
X254719667Y-247057333D01*
X254719667Y-246759671D01*
X254715340Y-246593866D01*
X254699941Y-246495079D01*
X254669843Y-246445988D01*
X254651894Y-246436003D01*
X254575145Y-246442712D01*
G37*
X254575145Y-246442712D02*
X254546709Y-246469081D01*
X254533863Y-246530436D01*
X254523471Y-246657847D01*
X254515711Y-246832734D01*
X254510759Y-247036516D01*
X254508793Y-247250614D01*
X254509988Y-247456446D01*
X254514523Y-247635433D01*
X254522572Y-247768995D01*
X254533696Y-247837037D01*
X254592623Y-247893532D01*
X254639529Y-247904000D01*
X254681779Y-247894765D01*
X254705991Y-247855126D01*
X254717006Y-247767182D01*
X254719666Y-247613035D01*
X254719667Y-247607667D01*
X254719667Y-247311333D01*
X255354667Y-247311333D01*
X255354667Y-247540704D01*
X255359234Y-247682747D01*
X255370926Y-247796332D01*
X255380363Y-247837037D01*
X255437404Y-247886533D01*
X255529937Y-247904763D01*
X255612248Y-247884424D01*
X255622778Y-247875778D01*
X255634164Y-247823637D01*
X255642469Y-247705418D01*
X255647683Y-247539650D01*
X255649795Y-247344866D01*
X255648795Y-247139597D01*
X255644672Y-246942374D01*
X255637417Y-246771729D01*
X255627019Y-246646193D01*
X255623476Y-246621244D01*
X255597672Y-246515505D01*
X255557461Y-246474077D01*
X255507525Y-246473078D01*
X255457766Y-246491640D01*
X255424515Y-246542522D01*
X255399849Y-246644486D01*
X255381466Y-246771583D01*
X255344766Y-247057333D01*
X254719667Y-247057333D01*
X254719667Y-246759671D01*
X254715340Y-246593866D01*
X254699941Y-246495079D01*
X254669843Y-246445988D01*
X254651894Y-246436003D01*
X254575145Y-246442712D01*
G36*
X253777077Y-246456581D02*
G01*
X253679584Y-246554414D01*
X253549586Y-246727722D01*
X253382526Y-246975534D01*
X253359516Y-247010622D01*
X253071461Y-247450744D01*
X253059481Y-246947122D01*
X253053486Y-246733621D01*
X253045762Y-246590720D01*
X253033612Y-246504357D01*
X253014336Y-246460469D01*
X252985236Y-246444996D01*
X252962833Y-246443500D01*
X252930195Y-246447988D01*
X252906839Y-246469826D01*
X252890849Y-246521576D01*
X252880312Y-246615800D01*
X252873311Y-246765060D01*
X252867932Y-246981916D01*
X252866032Y-247078500D01*
X252863269Y-247309155D01*
X252863846Y-247515791D01*
X252867485Y-247680712D01*
X252873912Y-247786222D01*
X252877422Y-247808750D01*
X252916724Y-247887728D01*
X252980792Y-247898861D01*
X253072042Y-247840219D01*
X253192893Y-247709875D01*
X253345761Y-247505898D01*
X253451839Y-247350400D01*
X253649297Y-247053478D01*
X253676482Y-247251814D01*
X253693696Y-247413800D01*
X253703084Y-247572921D01*
X253703667Y-247610113D01*
X253710256Y-247733960D01*
X253726413Y-247828297D01*
X253729363Y-247837037D01*
X253784773Y-247896549D01*
X253856599Y-247889699D01*
X253906079Y-247829917D01*
X253916900Y-247762647D01*
X253926025Y-247627935D01*
X253932701Y-247443000D01*
X253936175Y-247225061D01*
X253936500Y-247133525D01*
X253933162Y-246839419D01*
X253920108Y-246625643D01*
X253892781Y-246491225D01*
X253846624Y-246435195D01*
X253777077Y-246456581D01*
G37*
X253777077Y-246456581D02*
X253679584Y-246554414D01*
X253549586Y-246727722D01*
X253382526Y-246975534D01*
X253359516Y-247010622D01*
X253071461Y-247450744D01*
X253059481Y-246947122D01*
X253053486Y-246733621D01*
X253045762Y-246590720D01*
X253033612Y-246504357D01*
X253014336Y-246460469D01*
X252985236Y-246444996D01*
X252962833Y-246443500D01*
X252930195Y-246447988D01*
X252906839Y-246469826D01*
X252890849Y-246521576D01*
X252880312Y-246615800D01*
X252873311Y-246765060D01*
X252867932Y-246981916D01*
X252866032Y-247078500D01*
X252863269Y-247309155D01*
X252863846Y-247515791D01*
X252867485Y-247680712D01*
X252873912Y-247786222D01*
X252877422Y-247808750D01*
X252916724Y-247887728D01*
X252980792Y-247898861D01*
X253072042Y-247840219D01*
X253192893Y-247709875D01*
X253345761Y-247505898D01*
X253451839Y-247350400D01*
X253649297Y-247053478D01*
X253676482Y-247251814D01*
X253693696Y-247413800D01*
X253703084Y-247572921D01*
X253703667Y-247610113D01*
X253710256Y-247733960D01*
X253726413Y-247828297D01*
X253729363Y-247837037D01*
X253784773Y-247896549D01*
X253856599Y-247889699D01*
X253906079Y-247829917D01*
X253916900Y-247762647D01*
X253926025Y-247627935D01*
X253932701Y-247443000D01*
X253936175Y-247225061D01*
X253936500Y-247133525D01*
X253933162Y-246839419D01*
X253920108Y-246625643D01*
X253892781Y-246491225D01*
X253846624Y-246435195D01*
X253777077Y-246456581D01*
G36*
X251644485Y-246442736D02*
G01*
X251510424Y-246511147D01*
X251354714Y-246638370D01*
X251322417Y-246668763D01*
X251163667Y-246820516D01*
X251163667Y-247187216D01*
X251166958Y-247376801D01*
X251179595Y-247504325D01*
X251205717Y-247592232D01*
X251249467Y-247662967D01*
X251252071Y-247666303D01*
X251414134Y-247811116D01*
X251608707Y-247889706D01*
X251815414Y-247898495D01*
X252013879Y-247833899D01*
X252056990Y-247807770D01*
X252196791Y-247671448D01*
X252285967Y-247494994D01*
X252327615Y-247293727D01*
X252325078Y-247101409D01*
X252040157Y-247101409D01*
X252032632Y-247285153D01*
X252004301Y-247403950D01*
X251923143Y-247561076D01*
X251809331Y-247651818D01*
X251677400Y-247671064D01*
X251541883Y-247613704D01*
X251502333Y-247580445D01*
X251457836Y-247490903D01*
X251436056Y-247347594D01*
X251436076Y-247178052D01*
X251456980Y-247009812D01*
X251497852Y-246870408D01*
X251527747Y-246817021D01*
X251637265Y-246714980D01*
X251748405Y-246686594D01*
X251852717Y-246721453D01*
X251941748Y-246809149D01*
X252007045Y-246939271D01*
X252040157Y-247101409D01*
X252325078Y-247101409D01*
X252324834Y-247082968D01*
X252280722Y-246878037D01*
X252198377Y-246694252D01*
X252080896Y-246546933D01*
X251931378Y-246451400D01*
X251776819Y-246422333D01*
X251644485Y-246442736D01*
G37*
X251644485Y-246442736D02*
X251510424Y-246511147D01*
X251354714Y-246638370D01*
X251322417Y-246668763D01*
X251163667Y-246820516D01*
X251163667Y-247187216D01*
X251166958Y-247376801D01*
X251179595Y-247504325D01*
X251205717Y-247592232D01*
X251249467Y-247662967D01*
X251252071Y-247666303D01*
X251414134Y-247811116D01*
X251608707Y-247889706D01*
X251815414Y-247898495D01*
X252013879Y-247833899D01*
X252056990Y-247807770D01*
X252196791Y-247671448D01*
X252285967Y-247494994D01*
X252327615Y-247293727D01*
X252325078Y-247101409D01*
X252040157Y-247101409D01*
X252032632Y-247285153D01*
X252004301Y-247403950D01*
X251923143Y-247561076D01*
X251809331Y-247651818D01*
X251677400Y-247671064D01*
X251541883Y-247613704D01*
X251502333Y-247580445D01*
X251457836Y-247490903D01*
X251436056Y-247347594D01*
X251436076Y-247178052D01*
X251456980Y-247009812D01*
X251497852Y-246870408D01*
X251527747Y-246817021D01*
X251637265Y-246714980D01*
X251748405Y-246686594D01*
X251852717Y-246721453D01*
X251941748Y-246809149D01*
X252007045Y-246939271D01*
X252040157Y-247101409D01*
X252325078Y-247101409D01*
X252324834Y-247082968D01*
X252280722Y-246878037D01*
X252198377Y-246694252D01*
X252080896Y-246546933D01*
X251931378Y-246451400D01*
X251776819Y-246422333D01*
X251644485Y-246442736D01*
G36*
X250473784Y-246484442D02*
G01*
X250434965Y-246551213D01*
X250412251Y-246676143D01*
X250402666Y-246870398D01*
X250401877Y-246951500D01*
X250397257Y-247143885D01*
X250386244Y-247340218D01*
X250374442Y-247468343D01*
X250347952Y-247688854D01*
X250046726Y-247701177D01*
X249889064Y-247710089D01*
X249798217Y-247724538D01*
X249756331Y-247750272D01*
X249745554Y-247793039D01*
X249745500Y-247798167D01*
X249751195Y-247834971D01*
X249777885Y-247859875D01*
X249839982Y-247875789D01*
X249951896Y-247885622D01*
X250128037Y-247892285D01*
X250224142Y-247894825D01*
X250702783Y-247906817D01*
X250677160Y-247323325D01*
X250663444Y-247031559D01*
X250650287Y-246813826D01*
X250635892Y-246659527D01*
X250618465Y-246558063D01*
X250596208Y-246498833D01*
X250567326Y-246471237D01*
X250531686Y-246464667D01*
X250473784Y-246484442D01*
G37*
X250473784Y-246484442D02*
X250434965Y-246551213D01*
X250412251Y-246676143D01*
X250402666Y-246870398D01*
X250401877Y-246951500D01*
X250397257Y-247143885D01*
X250386244Y-247340218D01*
X250374442Y-247468343D01*
X250347952Y-247688854D01*
X250046726Y-247701177D01*
X249889064Y-247710089D01*
X249798217Y-247724538D01*
X249756331Y-247750272D01*
X249745554Y-247793039D01*
X249745500Y-247798167D01*
X249751195Y-247834971D01*
X249777885Y-247859875D01*
X249839982Y-247875789D01*
X249951896Y-247885622D01*
X250128037Y-247892285D01*
X250224142Y-247894825D01*
X250702783Y-247906817D01*
X250677160Y-247323325D01*
X250663444Y-247031559D01*
X250650287Y-246813826D01*
X250635892Y-246659527D01*
X250618465Y-246558063D01*
X250596208Y-246498833D01*
X250567326Y-246471237D01*
X250531686Y-246464667D01*
X250473784Y-246484442D01*
G36*
X248667209Y-246468521D02*
G01*
X248487717Y-246590481D01*
X248440325Y-246633016D01*
X248263833Y-246798032D01*
X248269961Y-247156038D01*
X248279841Y-247343605D01*
X248300482Y-247508448D01*
X248328114Y-247622157D01*
X248333509Y-247634939D01*
X248437560Y-247761652D01*
X248602379Y-247853184D01*
X248808019Y-247899920D01*
X248891507Y-247903934D01*
X249035643Y-247893353D01*
X249136803Y-247851695D01*
X249214235Y-247785611D01*
X249305034Y-247650627D01*
X249376288Y-247459712D01*
X249419302Y-247240906D01*
X249426362Y-247123458D01*
X249161151Y-247123458D01*
X249157569Y-247302256D01*
X249109805Y-247460070D01*
X249062590Y-247529714D01*
X248926667Y-247638070D01*
X248794022Y-247663259D01*
X248672108Y-247606076D01*
X248573774Y-247477596D01*
X248512476Y-247305213D01*
X248501590Y-247129399D01*
X248533972Y-246964950D01*
X248602481Y-246826661D01*
X248699975Y-246729329D01*
X248819309Y-246687751D01*
X248943367Y-246711966D01*
X249050393Y-246803231D01*
X249124206Y-246948756D01*
X249161151Y-247123458D01*
X249426362Y-247123458D01*
X249428000Y-247096223D01*
X249388369Y-246883039D01*
X249278504Y-246685440D01*
X249176494Y-246579094D01*
X249001065Y-246463599D01*
X248834814Y-246426484D01*
X248667209Y-246468521D01*
G37*
X248667209Y-246468521D02*
X248487717Y-246590481D01*
X248440325Y-246633016D01*
X248263833Y-246798032D01*
X248269961Y-247156038D01*
X248279841Y-247343605D01*
X248300482Y-247508448D01*
X248328114Y-247622157D01*
X248333509Y-247634939D01*
X248437560Y-247761652D01*
X248602379Y-247853184D01*
X248808019Y-247899920D01*
X248891507Y-247903934D01*
X249035643Y-247893353D01*
X249136803Y-247851695D01*
X249214235Y-247785611D01*
X249305034Y-247650627D01*
X249376288Y-247459712D01*
X249419302Y-247240906D01*
X249426362Y-247123458D01*
X249161151Y-247123458D01*
X249157569Y-247302256D01*
X249109805Y-247460070D01*
X249062590Y-247529714D01*
X248926667Y-247638070D01*
X248794022Y-247663259D01*
X248672108Y-247606076D01*
X248573774Y-247477596D01*
X248512476Y-247305213D01*
X248501590Y-247129399D01*
X248533972Y-246964950D01*
X248602481Y-246826661D01*
X248699975Y-246729329D01*
X248819309Y-246687751D01*
X248943367Y-246711966D01*
X249050393Y-246803231D01*
X249124206Y-246948756D01*
X249161151Y-247123458D01*
X249426362Y-247123458D01*
X249428000Y-247096223D01*
X249388369Y-246883039D01*
X249278504Y-246685440D01*
X249176494Y-246579094D01*
X249001065Y-246463599D01*
X248834814Y-246426484D01*
X248667209Y-246468521D01*
G36*
X247027277Y-246435993D02*
G01*
X246952714Y-246480479D01*
X246855715Y-246570581D01*
X246824208Y-246601985D01*
X246707237Y-246743790D01*
X246661901Y-246851890D01*
X246679026Y-246917851D01*
X246749438Y-246933237D01*
X246863965Y-246889614D01*
X247013431Y-246778546D01*
X247014841Y-246777274D01*
X247114584Y-246690402D01*
X247177909Y-246653428D01*
X247230612Y-246658825D01*
X247293666Y-246695900D01*
X247403425Y-246808710D01*
X247477034Y-246965479D01*
X247513078Y-247144069D01*
X247510141Y-247322344D01*
X247466809Y-247478167D01*
X247381668Y-247589401D01*
X247351997Y-247608560D01*
X247222205Y-247648543D01*
X247085465Y-247647030D01*
X246973609Y-247607609D01*
X246927901Y-247560788D01*
X246904490Y-247470783D01*
X246954188Y-247414543D01*
X247053010Y-247389001D01*
X247151965Y-247348112D01*
X247201177Y-247299545D01*
X247219761Y-247226307D01*
X247166615Y-247176988D01*
X247037910Y-247149765D01*
X246871338Y-247142648D01*
X246621842Y-247142000D01*
X246650343Y-247448660D01*
X246674453Y-247622621D01*
X246708216Y-247754603D01*
X246741225Y-247817700D01*
X246826586Y-247858247D01*
X246980571Y-247885850D01*
X247089219Y-247894294D01*
X247265948Y-247896645D01*
X247388905Y-247879226D01*
X247487656Y-247837201D01*
X247506013Y-247826104D01*
X247629786Y-247702293D01*
X247718325Y-247521051D01*
X247767978Y-247303501D01*
X247775094Y-247070768D01*
X247736022Y-246843975D01*
X247695003Y-246732665D01*
X247617014Y-246596820D01*
X247518032Y-246510612D01*
X247375083Y-246459496D01*
X247225747Y-246435500D01*
X247108567Y-246425030D01*
X247027277Y-246435993D01*
G37*
X247027277Y-246435993D02*
X246952714Y-246480479D01*
X246855715Y-246570581D01*
X246824208Y-246601985D01*
X246707237Y-246743790D01*
X246661901Y-246851890D01*
X246679026Y-246917851D01*
X246749438Y-246933237D01*
X246863965Y-246889614D01*
X247013431Y-246778546D01*
X247014841Y-246777274D01*
X247114584Y-246690402D01*
X247177909Y-246653428D01*
X247230612Y-246658825D01*
X247293666Y-246695900D01*
X247403425Y-246808710D01*
X247477034Y-246965479D01*
X247513078Y-247144069D01*
X247510141Y-247322344D01*
X247466809Y-247478167D01*
X247381668Y-247589401D01*
X247351997Y-247608560D01*
X247222205Y-247648543D01*
X247085465Y-247647030D01*
X246973609Y-247607609D01*
X246927901Y-247560788D01*
X246904490Y-247470783D01*
X246954188Y-247414543D01*
X247053010Y-247389001D01*
X247151965Y-247348112D01*
X247201177Y-247299545D01*
X247219761Y-247226307D01*
X247166615Y-247176988D01*
X247037910Y-247149765D01*
X246871338Y-247142648D01*
X246621842Y-247142000D01*
X246650343Y-247448660D01*
X246674453Y-247622621D01*
X246708216Y-247754603D01*
X246741225Y-247817700D01*
X246826586Y-247858247D01*
X246980571Y-247885850D01*
X247089219Y-247894294D01*
X247265948Y-247896645D01*
X247388905Y-247879226D01*
X247487656Y-247837201D01*
X247506013Y-247826104D01*
X247629786Y-247702293D01*
X247718325Y-247521051D01*
X247767978Y-247303501D01*
X247775094Y-247070768D01*
X247736022Y-246843975D01*
X247695003Y-246732665D01*
X247617014Y-246596820D01*
X247518032Y-246510612D01*
X247375083Y-246459496D01*
X247225747Y-246435500D01*
X247108567Y-246425030D01*
X247027277Y-246435993D01*
G36*
X245938745Y-246436397D02*
G01*
X245913353Y-246455026D01*
X245895506Y-246496318D01*
X245884270Y-246572315D01*
X245878707Y-246695058D01*
X245877883Y-246876589D01*
X245880861Y-247128949D01*
X245881556Y-247172275D01*
X245886935Y-247437648D01*
X245893880Y-247629792D01*
X245903611Y-247760144D01*
X245917352Y-247840141D01*
X245936325Y-247881220D01*
X245958731Y-247894340D01*
X246033992Y-247889085D01*
X246053981Y-247877241D01*
X246066066Y-247824092D01*
X246074773Y-247704117D01*
X246080214Y-247535082D01*
X246082504Y-247334755D01*
X246081757Y-247120905D01*
X246078086Y-246911298D01*
X246071606Y-246723702D01*
X246062430Y-246575884D01*
X246050672Y-246485614D01*
X246044958Y-246469081D01*
X245979022Y-246431038D01*
X245938745Y-246436397D01*
G37*
X245938745Y-246436397D02*
X245913353Y-246455026D01*
X245895506Y-246496318D01*
X245884270Y-246572315D01*
X245878707Y-246695058D01*
X245877883Y-246876589D01*
X245880861Y-247128949D01*
X245881556Y-247172275D01*
X245886935Y-247437648D01*
X245893880Y-247629792D01*
X245903611Y-247760144D01*
X245917352Y-247840141D01*
X245936325Y-247881220D01*
X245958731Y-247894340D01*
X246033992Y-247889085D01*
X246053981Y-247877241D01*
X246066066Y-247824092D01*
X246074773Y-247704117D01*
X246080214Y-247535082D01*
X246082504Y-247334755D01*
X246081757Y-247120905D01*
X246078086Y-246911298D01*
X246071606Y-246723702D01*
X246062430Y-246575884D01*
X246050672Y-246485614D01*
X246044958Y-246469081D01*
X245979022Y-246431038D01*
X245938745Y-246436397D01*
G36*
X244951250Y-246427342D02*
G01*
X244707858Y-246435478D01*
X244538458Y-246452927D01*
X244432643Y-246482248D01*
X244380006Y-246526000D01*
X244369167Y-246570500D01*
X244399969Y-246636685D01*
X244496822Y-246681406D01*
X244666399Y-246706892D01*
X244797900Y-246713658D01*
X244956646Y-246741877D01*
X245044158Y-246815596D01*
X245060805Y-246935130D01*
X245060333Y-246938586D01*
X245043532Y-246991978D01*
X244998934Y-247026918D01*
X244907388Y-247052058D01*
X244758714Y-247074848D01*
X244606464Y-247097990D01*
X244521289Y-247121228D01*
X244485964Y-247152511D01*
X244483261Y-247199792D01*
X244483548Y-247201848D01*
X244503233Y-247254271D01*
X244557276Y-247283821D01*
X244666787Y-247299267D01*
X244727717Y-247303285D01*
X244903607Y-247323598D01*
X245009541Y-247365603D01*
X245059150Y-247437511D01*
X245067667Y-247508064D01*
X245037720Y-247596259D01*
X244943673Y-247654588D01*
X244779219Y-247685555D01*
X244603773Y-247692333D01*
X244440614Y-247701140D01*
X244352889Y-247728643D01*
X244334671Y-247750675D01*
X244328856Y-247814342D01*
X244374122Y-247858853D01*
X244479209Y-247886844D01*
X244652852Y-247900946D01*
X244843300Y-247904000D01*
X245279333Y-247904000D01*
X245279333Y-246422333D01*
X244951250Y-246427342D01*
G37*
X244951250Y-246427342D02*
X244707858Y-246435478D01*
X244538458Y-246452927D01*
X244432643Y-246482248D01*
X244380006Y-246526000D01*
X244369167Y-246570500D01*
X244399969Y-246636685D01*
X244496822Y-246681406D01*
X244666399Y-246706892D01*
X244797900Y-246713658D01*
X244956646Y-246741877D01*
X245044158Y-246815596D01*
X245060805Y-246935130D01*
X245060333Y-246938586D01*
X245043532Y-246991978D01*
X244998934Y-247026918D01*
X244907388Y-247052058D01*
X244758714Y-247074848D01*
X244606464Y-247097990D01*
X244521289Y-247121228D01*
X244485964Y-247152511D01*
X244483261Y-247199792D01*
X244483548Y-247201848D01*
X244503233Y-247254271D01*
X244557276Y-247283821D01*
X244666787Y-247299267D01*
X244727717Y-247303285D01*
X244903607Y-247323598D01*
X245009541Y-247365603D01*
X245059150Y-247437511D01*
X245067667Y-247508064D01*
X245037720Y-247596259D01*
X244943673Y-247654588D01*
X244779219Y-247685555D01*
X244603773Y-247692333D01*
X244440614Y-247701140D01*
X244352889Y-247728643D01*
X244334671Y-247750675D01*
X244328856Y-247814342D01*
X244374122Y-247858853D01*
X244479209Y-247886844D01*
X244652852Y-247900946D01*
X244843300Y-247904000D01*
X245279333Y-247904000D01*
X245279333Y-246422333D01*
X244951250Y-246427342D01*
G36*
X243292541Y-246450621D02*
G01*
X243143209Y-246524524D01*
X243024223Y-246627600D01*
X242957842Y-246743407D01*
X242951000Y-246790874D01*
X242976715Y-246886930D01*
X243041916Y-246917599D01*
X243128684Y-246879728D01*
X243177371Y-246830689D01*
X243295342Y-246734383D01*
X243433513Y-246691083D01*
X243562781Y-246707694D01*
X243601943Y-246729973D01*
X243653689Y-246801796D01*
X243626787Y-246884005D01*
X243519841Y-246978223D01*
X243331452Y-247086071D01*
X243268874Y-247116584D01*
X242951000Y-247267466D01*
X242951000Y-247481824D01*
X242973563Y-247673634D01*
X243046470Y-247802999D01*
X243177547Y-247877209D01*
X243374621Y-247903551D01*
X243404159Y-247903842D01*
X243622612Y-247883765D01*
X243785049Y-247821035D01*
X243785947Y-247820488D01*
X243900548Y-247715100D01*
X243959638Y-247585303D01*
X243951728Y-247459594D01*
X243913799Y-247406393D01*
X243853213Y-247409898D01*
X243757151Y-247473411D01*
X243695258Y-247525672D01*
X243580211Y-247610950D01*
X243474616Y-247642994D01*
X243386869Y-247642088D01*
X243274715Y-247621833D01*
X243223518Y-247576820D01*
X243213439Y-247539687D01*
X243220122Y-247488503D01*
X243264740Y-247437338D01*
X243360683Y-247375454D01*
X243521343Y-247292113D01*
X243523541Y-247291027D01*
X243699797Y-247197457D01*
X243814716Y-247117733D01*
X243886785Y-247037473D01*
X243915887Y-246985737D01*
X243958327Y-246880930D01*
X243958481Y-246806191D01*
X243922196Y-246727349D01*
X243818114Y-246600729D01*
X243673645Y-246495206D01*
X243521252Y-246431747D01*
X243449957Y-246422333D01*
X243292541Y-246450621D01*
G37*
X243292541Y-246450621D02*
X243143209Y-246524524D01*
X243024223Y-246627600D01*
X242957842Y-246743407D01*
X242951000Y-246790874D01*
X242976715Y-246886930D01*
X243041916Y-246917599D01*
X243128684Y-246879728D01*
X243177371Y-246830689D01*
X243295342Y-246734383D01*
X243433513Y-246691083D01*
X243562781Y-246707694D01*
X243601943Y-246729973D01*
X243653689Y-246801796D01*
X243626787Y-246884005D01*
X243519841Y-246978223D01*
X243331452Y-247086071D01*
X243268874Y-247116584D01*
X242951000Y-247267466D01*
X242951000Y-247481824D01*
X242973563Y-247673634D01*
X243046470Y-247802999D01*
X243177547Y-247877209D01*
X243374621Y-247903551D01*
X243404159Y-247903842D01*
X243622612Y-247883765D01*
X243785049Y-247821035D01*
X243785947Y-247820488D01*
X243900548Y-247715100D01*
X243959638Y-247585303D01*
X243951728Y-247459594D01*
X243913799Y-247406393D01*
X243853213Y-247409898D01*
X243757151Y-247473411D01*
X243695258Y-247525672D01*
X243580211Y-247610950D01*
X243474616Y-247642994D01*
X243386869Y-247642088D01*
X243274715Y-247621833D01*
X243223518Y-247576820D01*
X243213439Y-247539687D01*
X243220122Y-247488503D01*
X243264740Y-247437338D01*
X243360683Y-247375454D01*
X243521343Y-247292113D01*
X243523541Y-247291027D01*
X243699797Y-247197457D01*
X243814716Y-247117733D01*
X243886785Y-247037473D01*
X243915887Y-246985737D01*
X243958327Y-246880930D01*
X243958481Y-246806191D01*
X243922196Y-246727349D01*
X243818114Y-246600729D01*
X243673645Y-246495206D01*
X243521252Y-246431747D01*
X243449957Y-246422333D01*
X243292541Y-246450621D01*
G36*
X264137356Y-242570804D02*
G01*
X263752620Y-242571789D01*
X263383298Y-242573708D01*
X263040509Y-242576560D01*
X262735374Y-242580342D01*
X262479010Y-242585053D01*
X262282539Y-242590691D01*
X262157079Y-242597254D01*
X262154218Y-242597491D01*
X261828996Y-242624983D01*
X261840915Y-245008402D01*
X261843958Y-245540868D01*
X261847452Y-245994276D01*
X261851548Y-246374233D01*
X261856401Y-246686347D01*
X261862162Y-246936225D01*
X261868985Y-247129475D01*
X261877023Y-247271704D01*
X261886428Y-247368521D01*
X261897354Y-247425533D01*
X261907416Y-247446376D01*
X261939260Y-247460478D01*
X262008409Y-247472254D01*
X262121324Y-247481915D01*
X262284465Y-247489675D01*
X262504294Y-247495749D01*
X262787272Y-247500349D01*
X263139859Y-247503690D01*
X263568516Y-247505984D01*
X263727749Y-247506548D01*
X264133870Y-247507137D01*
X264536800Y-247506414D01*
X264923447Y-247504494D01*
X265280718Y-247501494D01*
X265595522Y-247497527D01*
X265854768Y-247492711D01*
X266045362Y-247487160D01*
X266077202Y-247485833D01*
X266332345Y-247471834D01*
X266512570Y-247455636D01*
X266627620Y-247435895D01*
X266687238Y-247411268D01*
X266697388Y-247400348D01*
X266717747Y-247324283D01*
X266735506Y-247171213D01*
X266750481Y-246948766D01*
X266762491Y-246664570D01*
X266771353Y-246326252D01*
X266776885Y-245941440D01*
X266778905Y-245517761D01*
X266777231Y-245062844D01*
X266771681Y-244584315D01*
X266768767Y-244411500D01*
X266761662Y-244054910D01*
X266753855Y-243720592D01*
X266745679Y-243419114D01*
X266737467Y-243161040D01*
X266734248Y-243078000D01*
X266192000Y-243078000D01*
X266192000Y-247015000D01*
X262339667Y-247015000D01*
X262339667Y-243078000D01*
X266192000Y-243078000D01*
X266734248Y-243078000D01*
X266729553Y-242956936D01*
X266722270Y-242817369D01*
X266716505Y-242755531D01*
X266697804Y-242682075D01*
X266661709Y-242639581D01*
X266586486Y-242615758D01*
X266450402Y-242598314D01*
X266435809Y-242596781D01*
X266328063Y-242590225D01*
X266146774Y-242584618D01*
X265903064Y-242579959D01*
X265608050Y-242576244D01*
X265272853Y-242573474D01*
X264908592Y-242571645D01*
X264526386Y-242570755D01*
X264137356Y-242570804D01*
G37*
X264137356Y-242570804D02*
X263752620Y-242571789D01*
X263383298Y-242573708D01*
X263040509Y-242576560D01*
X262735374Y-242580342D01*
X262479010Y-242585053D01*
X262282539Y-242590691D01*
X262157079Y-242597254D01*
X262154218Y-242597491D01*
X261828996Y-242624983D01*
X261840915Y-245008402D01*
X261843958Y-245540868D01*
X261847452Y-245994276D01*
X261851548Y-246374233D01*
X261856401Y-246686347D01*
X261862162Y-246936225D01*
X261868985Y-247129475D01*
X261877023Y-247271704D01*
X261886428Y-247368521D01*
X261897354Y-247425533D01*
X261907416Y-247446376D01*
X261939260Y-247460478D01*
X262008409Y-247472254D01*
X262121324Y-247481915D01*
X262284465Y-247489675D01*
X262504294Y-247495749D01*
X262787272Y-247500349D01*
X263139859Y-247503690D01*
X263568516Y-247505984D01*
X263727749Y-247506548D01*
X264133870Y-247507137D01*
X264536800Y-247506414D01*
X264923447Y-247504494D01*
X265280718Y-247501494D01*
X265595522Y-247497527D01*
X265854768Y-247492711D01*
X266045362Y-247487160D01*
X266077202Y-247485833D01*
X266332345Y-247471834D01*
X266512570Y-247455636D01*
X266627620Y-247435895D01*
X266687238Y-247411268D01*
X266697388Y-247400348D01*
X266717747Y-247324283D01*
X266735506Y-247171213D01*
X266750481Y-246948766D01*
X266762491Y-246664570D01*
X266771353Y-246326252D01*
X266776885Y-245941440D01*
X266778905Y-245517761D01*
X266777231Y-245062844D01*
X266771681Y-244584315D01*
X266768767Y-244411500D01*
X266761662Y-244054910D01*
X266753855Y-243720592D01*
X266745679Y-243419114D01*
X266737467Y-243161040D01*
X266734248Y-243078000D01*
X266192000Y-243078000D01*
X266192000Y-247015000D01*
X262339667Y-247015000D01*
X262339667Y-243078000D01*
X266192000Y-243078000D01*
X266734248Y-243078000D01*
X266729553Y-242956936D01*
X266722270Y-242817369D01*
X266716505Y-242755531D01*
X266697804Y-242682075D01*
X266661709Y-242639581D01*
X266586486Y-242615758D01*
X266450402Y-242598314D01*
X266435809Y-242596781D01*
X266328063Y-242590225D01*
X266146774Y-242584618D01*
X265903064Y-242579959D01*
X265608050Y-242576244D01*
X265272853Y-242573474D01*
X264908592Y-242571645D01*
X264526386Y-242570755D01*
X264137356Y-242570804D01*
G36*
X267335653Y-245637564D02*
G01*
X267159896Y-245691440D01*
X267064128Y-245749185D01*
X266969603Y-245859033D01*
X266955731Y-245967326D01*
X267021216Y-246061434D01*
X267100807Y-246106993D01*
X267215728Y-246136569D01*
X267376970Y-246156427D01*
X267553070Y-246165134D01*
X267712562Y-246161258D01*
X267823981Y-246143368D01*
X267832417Y-246140297D01*
X267870083Y-246085155D01*
X267883922Y-245981882D01*
X267874886Y-245863309D01*
X267843928Y-245762263D01*
X267820473Y-245728520D01*
X267693941Y-245655339D01*
X267523002Y-245625275D01*
X267335653Y-245637564D01*
G37*
X267335653Y-245637564D02*
X267159896Y-245691440D01*
X267064128Y-245749185D01*
X266969603Y-245859033D01*
X266955731Y-245967326D01*
X267021216Y-246061434D01*
X267100807Y-246106993D01*
X267215728Y-246136569D01*
X267376970Y-246156427D01*
X267553070Y-246165134D01*
X267712562Y-246161258D01*
X267823981Y-246143368D01*
X267832417Y-246140297D01*
X267870083Y-246085155D01*
X267883922Y-245981882D01*
X267874886Y-245863309D01*
X267843928Y-245762263D01*
X267820473Y-245728520D01*
X267693941Y-245655339D01*
X267523002Y-245625275D01*
X267335653Y-245637564D01*
G36*
X260985938Y-245649647D02*
G01*
X260812750Y-245717584D01*
X260681921Y-245825485D01*
X260664128Y-245850039D01*
X260617357Y-245932035D01*
X260622854Y-245986605D01*
X260680082Y-246051563D01*
X260742758Y-246098828D01*
X260830223Y-246129313D01*
X260963764Y-246148186D01*
X261120664Y-246158527D01*
X261321917Y-246163286D01*
X261451174Y-246152762D01*
X261519904Y-246125902D01*
X261524750Y-246121406D01*
X261570875Y-246021159D01*
X261571805Y-245890870D01*
X261530540Y-245770107D01*
X261494718Y-245725388D01*
X261353416Y-245649573D01*
X261174992Y-245625652D01*
X260985938Y-245649647D01*
G37*
X260985938Y-245649647D02*
X260812750Y-245717584D01*
X260681921Y-245825485D01*
X260664128Y-245850039D01*
X260617357Y-245932035D01*
X260622854Y-245986605D01*
X260680082Y-246051563D01*
X260742758Y-246098828D01*
X260830223Y-246129313D01*
X260963764Y-246148186D01*
X261120664Y-246158527D01*
X261321917Y-246163286D01*
X261451174Y-246152762D01*
X261519904Y-246125902D01*
X261524750Y-246121406D01*
X261570875Y-246021159D01*
X261571805Y-245890870D01*
X261530540Y-245770107D01*
X261494718Y-245725388D01*
X261353416Y-245649573D01*
X261174992Y-245625652D01*
X260985938Y-245649647D01*
G36*
X267182031Y-244779009D02*
G01*
X267109360Y-244800546D01*
X267053648Y-244841303D01*
X267042955Y-244851712D01*
X266965886Y-244974488D01*
X266965239Y-245098663D01*
X267039929Y-245204928D01*
X267063733Y-245222281D01*
X267207341Y-245279841D01*
X267393526Y-245307101D01*
X267585031Y-245301955D01*
X267744600Y-245262302D01*
X267747750Y-245260899D01*
X267843614Y-245203284D01*
X267880657Y-245127185D01*
X267884685Y-245059127D01*
X267875842Y-244937847D01*
X267840506Y-244859189D01*
X267763435Y-244812868D01*
X267629387Y-244788599D01*
X267468076Y-244778024D01*
X267294117Y-244772799D01*
X267182031Y-244779009D01*
G37*
X267182031Y-244779009D02*
X267109360Y-244800546D01*
X267053648Y-244841303D01*
X267042955Y-244851712D01*
X266965886Y-244974488D01*
X266965239Y-245098663D01*
X267039929Y-245204928D01*
X267063733Y-245222281D01*
X267207341Y-245279841D01*
X267393526Y-245307101D01*
X267585031Y-245301955D01*
X267744600Y-245262302D01*
X267747750Y-245260899D01*
X267843614Y-245203284D01*
X267880657Y-245127185D01*
X267884685Y-245059127D01*
X267875842Y-244937847D01*
X267840506Y-244859189D01*
X267763435Y-244812868D01*
X267629387Y-244788599D01*
X267468076Y-244778024D01*
X267294117Y-244772799D01*
X267182031Y-244779009D01*
G36*
X261070066Y-244777730D02*
G01*
X260875995Y-244791906D01*
X260751585Y-244819102D01*
X260681931Y-244868183D01*
X260652129Y-244948013D01*
X260646982Y-245029355D01*
X260682808Y-245161300D01*
X260792185Y-245251669D01*
X260975251Y-245300559D01*
X261060670Y-245308100D01*
X261214674Y-245307619D01*
X261349066Y-245292614D01*
X261407138Y-245276828D01*
X261521579Y-245205156D01*
X261570875Y-245100333D01*
X261577019Y-245021311D01*
X261556955Y-244904947D01*
X261488661Y-244828205D01*
X261362415Y-244786417D01*
X261168500Y-244774911D01*
X261070066Y-244777730D01*
G37*
X261070066Y-244777730D02*
X260875995Y-244791906D01*
X260751585Y-244819102D01*
X260681931Y-244868183D01*
X260652129Y-244948013D01*
X260646982Y-245029355D01*
X260682808Y-245161300D01*
X260792185Y-245251669D01*
X260975251Y-245300559D01*
X261060670Y-245308100D01*
X261214674Y-245307619D01*
X261349066Y-245292614D01*
X261407138Y-245276828D01*
X261521579Y-245205156D01*
X261570875Y-245100333D01*
X261577019Y-245021311D01*
X261556955Y-244904947D01*
X261488661Y-244828205D01*
X261362415Y-244786417D01*
X261168500Y-244774911D01*
X261070066Y-244777730D01*
G36*
X257344333Y-242146667D02*
G01*
X257344333Y-244813667D01*
X257839655Y-244813667D01*
X257867161Y-244426163D01*
X257880648Y-244192445D01*
X257890832Y-243933624D01*
X257895749Y-243701002D01*
X257895902Y-243674746D01*
X257897136Y-243310833D01*
X258149880Y-243924667D01*
X258242724Y-244144854D01*
X258330903Y-244344402D01*
X258406795Y-244506745D01*
X258462780Y-244615319D01*
X258480975Y-244644333D01*
X258587014Y-244737136D01*
X258706080Y-244764955D01*
X258810618Y-244724199D01*
X258879274Y-244637361D01*
X258971121Y-244472862D01*
X259084547Y-244233993D01*
X259217940Y-243924048D01*
X259295348Y-243734167D01*
X259482167Y-243268500D01*
X259493705Y-244041083D01*
X259505243Y-244813667D01*
X260011333Y-244813667D01*
X260011333Y-242146667D01*
X259393709Y-242146667D01*
X259038481Y-243062308D01*
X258683253Y-243977950D01*
X257965563Y-242146666D01*
X257654948Y-242146666D01*
X257344333Y-242146667D01*
G37*
X257344333Y-242146667D02*
X257344333Y-244813667D01*
X257839655Y-244813667D01*
X257867161Y-244426163D01*
X257880648Y-244192445D01*
X257890832Y-243933624D01*
X257895749Y-243701002D01*
X257895902Y-243674746D01*
X257897136Y-243310833D01*
X258149880Y-243924667D01*
X258242724Y-244144854D01*
X258330903Y-244344402D01*
X258406795Y-244506745D01*
X258462780Y-244615319D01*
X258480975Y-244644333D01*
X258587014Y-244737136D01*
X258706080Y-244764955D01*
X258810618Y-244724199D01*
X258879274Y-244637361D01*
X258971121Y-244472862D01*
X259084547Y-244233993D01*
X259217940Y-243924048D01*
X259295348Y-243734167D01*
X259482167Y-243268500D01*
X259493705Y-244041083D01*
X259505243Y-244813667D01*
X260011333Y-244813667D01*
X260011333Y-242146667D01*
X259393709Y-242146667D01*
X259038481Y-243062308D01*
X258683253Y-243977950D01*
X257965563Y-242146666D01*
X257654948Y-242146666D01*
X257344333Y-242146667D01*
G36*
X254762000Y-242612333D02*
G01*
X255947333Y-242612333D01*
X255947333Y-243205000D01*
X254878179Y-243205000D01*
X254906746Y-243383648D01*
X254935058Y-243501160D01*
X254971514Y-243580075D01*
X254983821Y-243592276D01*
X255044003Y-243607161D01*
X255169016Y-243624074D01*
X255339137Y-243640689D01*
X255489831Y-243651907D01*
X255947333Y-243681559D01*
X255947333Y-244305667D01*
X254762000Y-244305667D01*
X254762000Y-244813667D01*
X256455333Y-244813667D01*
X256455333Y-242146667D01*
X254762000Y-242146667D01*
X254762000Y-242612333D01*
G37*
X254762000Y-242612333D02*
X255947333Y-242612333D01*
X255947333Y-243205000D01*
X254878179Y-243205000D01*
X254906746Y-243383648D01*
X254935058Y-243501160D01*
X254971514Y-243580075D01*
X254983821Y-243592276D01*
X255044003Y-243607161D01*
X255169016Y-243624074D01*
X255339137Y-243640689D01*
X255489831Y-243651907D01*
X255947333Y-243681559D01*
X255947333Y-244305667D01*
X254762000Y-244305667D01*
X254762000Y-244813667D01*
X256455333Y-244813667D01*
X256455333Y-242146667D01*
X254762000Y-242146667D01*
X254762000Y-242612333D01*
G36*
X250136417Y-242152012D02*
G01*
X249912017Y-242262775D01*
X249702141Y-242451545D01*
X249687349Y-242468137D01*
X249544434Y-242664073D01*
X249464605Y-242850517D01*
X249453404Y-243013715D01*
X249458328Y-243036665D01*
X249483087Y-243088678D01*
X249537036Y-243112094D01*
X249643663Y-243114384D01*
X249694474Y-243111773D01*
X249822900Y-243099776D01*
X249893736Y-243072783D01*
X249934051Y-243014797D01*
X249955086Y-242957778D01*
X250045534Y-242773207D01*
X250173517Y-242661265D01*
X250348608Y-242614666D01*
X250408893Y-242612333D01*
X250594803Y-242626235D01*
X250722608Y-242677351D01*
X250815661Y-242779802D01*
X250874500Y-242893841D01*
X250922642Y-243051724D01*
X250953148Y-243252343D01*
X250965942Y-243472290D01*
X250960947Y-243688159D01*
X250938090Y-243876541D01*
X250897295Y-244014029D01*
X250878217Y-244046538D01*
X250770307Y-244161932D01*
X250637576Y-244262881D01*
X250508110Y-244330507D01*
X250429776Y-244348000D01*
X250304989Y-244313477D01*
X250169590Y-244223901D01*
X250050201Y-244100256D01*
X249988126Y-243999842D01*
X249940846Y-243908589D01*
X249890232Y-243861621D01*
X249808056Y-243844054D01*
X249687078Y-243841092D01*
X249459322Y-243840000D01*
X249480405Y-244027042D01*
X249546817Y-244264387D01*
X249681065Y-244466033D01*
X249871100Y-244624323D01*
X250104870Y-244731602D01*
X250370326Y-244780213D01*
X250641849Y-244764915D01*
X250907263Y-244685841D01*
X251118896Y-244547721D01*
X251278299Y-244348080D01*
X251387021Y-244084444D01*
X251446614Y-243754340D01*
X251460000Y-243459000D01*
X251448838Y-243147203D01*
X251411561Y-242899618D01*
X251342482Y-242698291D01*
X251235913Y-242525267D01*
X251124481Y-242399782D01*
X250990814Y-242278013D01*
X250871114Y-242204306D01*
X250729529Y-242158262D01*
X250681254Y-242147584D01*
X250388457Y-242115025D01*
X250136417Y-242152012D01*
G37*
X250136417Y-242152012D02*
X249912017Y-242262775D01*
X249702141Y-242451545D01*
X249687349Y-242468137D01*
X249544434Y-242664073D01*
X249464605Y-242850517D01*
X249453404Y-243013715D01*
X249458328Y-243036665D01*
X249483087Y-243088678D01*
X249537036Y-243112094D01*
X249643663Y-243114384D01*
X249694474Y-243111773D01*
X249822900Y-243099776D01*
X249893736Y-243072783D01*
X249934051Y-243014797D01*
X249955086Y-242957778D01*
X250045534Y-242773207D01*
X250173517Y-242661265D01*
X250348608Y-242614666D01*
X250408893Y-242612333D01*
X250594803Y-242626235D01*
X250722608Y-242677351D01*
X250815661Y-242779802D01*
X250874500Y-242893841D01*
X250922642Y-243051724D01*
X250953148Y-243252343D01*
X250965942Y-243472290D01*
X250960947Y-243688159D01*
X250938090Y-243876541D01*
X250897295Y-244014029D01*
X250878217Y-244046538D01*
X250770307Y-244161932D01*
X250637576Y-244262881D01*
X250508110Y-244330507D01*
X250429776Y-244348000D01*
X250304989Y-244313477D01*
X250169590Y-244223901D01*
X250050201Y-244100256D01*
X249988126Y-243999842D01*
X249940846Y-243908589D01*
X249890232Y-243861621D01*
X249808056Y-243844054D01*
X249687078Y-243841092D01*
X249459322Y-243840000D01*
X249480405Y-244027042D01*
X249546817Y-244264387D01*
X249681065Y-244466033D01*
X249871100Y-244624323D01*
X250104870Y-244731602D01*
X250370326Y-244780213D01*
X250641849Y-244764915D01*
X250907263Y-244685841D01*
X251118896Y-244547721D01*
X251278299Y-244348080D01*
X251387021Y-244084444D01*
X251446614Y-243754340D01*
X251460000Y-243459000D01*
X251448838Y-243147203D01*
X251411561Y-242899618D01*
X251342482Y-242698291D01*
X251235913Y-242525267D01*
X251124481Y-242399782D01*
X250990814Y-242278013D01*
X250871114Y-242204306D01*
X250729529Y-242158262D01*
X250681254Y-242147584D01*
X250388457Y-242115025D01*
X250136417Y-242152012D01*
G36*
X248115667Y-244813667D02*
G01*
X248623667Y-244813667D01*
X248623667Y-242146667D01*
X248115667Y-242146667D01*
X248115667Y-244813667D01*
G37*
X248115667Y-244813667D02*
X248623667Y-244813667D01*
X248623667Y-242146667D01*
X248115667Y-242146667D01*
X248115667Y-244813667D01*
G36*
X245533333Y-242612333D02*
G01*
X246718667Y-242612333D01*
X246718667Y-243205000D01*
X245660333Y-243205000D01*
X245660333Y-243334783D01*
X245665587Y-243447751D01*
X245690153Y-243526894D01*
X245747237Y-243579514D01*
X245850046Y-243612914D01*
X246011786Y-243634395D01*
X246231062Y-243650351D01*
X246718667Y-243680818D01*
X246718667Y-244305667D01*
X245533333Y-244305667D01*
X245533333Y-244813667D01*
X247226667Y-244813667D01*
X247226667Y-242146667D01*
X245533333Y-242146667D01*
X245533333Y-242612333D01*
G37*
X245533333Y-242612333D02*
X246718667Y-242612333D01*
X246718667Y-243205000D01*
X245660333Y-243205000D01*
X245660333Y-243334783D01*
X245665587Y-243447751D01*
X245690153Y-243526894D01*
X245747237Y-243579514D01*
X245850046Y-243612914D01*
X246011786Y-243634395D01*
X246231062Y-243650351D01*
X246718667Y-243680818D01*
X246718667Y-244305667D01*
X245533333Y-244305667D01*
X245533333Y-244813667D01*
X247226667Y-244813667D01*
X247226667Y-242146667D01*
X245533333Y-242146667D01*
X245533333Y-242612333D01*
G36*
X244153591Y-242158756D02*
G01*
X243899428Y-242170694D01*
X243712310Y-242184494D01*
X243574618Y-242202815D01*
X243468736Y-242228315D01*
X243377045Y-242263653D01*
X243339385Y-242281642D01*
X243144465Y-242421060D01*
X243012899Y-242605112D01*
X242946669Y-242820106D01*
X242947755Y-243052352D01*
X243018140Y-243288158D01*
X243159803Y-243513834D01*
X243160890Y-243515152D01*
X243324844Y-243713559D01*
X243095589Y-244131652D01*
X242973959Y-244364720D01*
X242899786Y-244537490D01*
X242871403Y-244658623D01*
X242887141Y-244736779D01*
X242945335Y-244780619D01*
X242969229Y-244787980D01*
X243117253Y-244787832D01*
X243265451Y-244711244D01*
X243416266Y-244556004D01*
X243572140Y-244319900D01*
X243654880Y-244166637D01*
X243758780Y-243985069D01*
X243856295Y-243871912D01*
X243963244Y-243813876D01*
X244094000Y-243797667D01*
X244263333Y-243797667D01*
X244263333Y-244813667D01*
X244771333Y-244813667D01*
X244771333Y-243379521D01*
X244263333Y-243379521D01*
X244062250Y-243353188D01*
X243893251Y-243321808D01*
X243722809Y-243276499D01*
X243684619Y-243263713D01*
X243544303Y-243191702D01*
X243471507Y-243095122D01*
X243468184Y-243086149D01*
X243451955Y-242932477D01*
X243510253Y-242800608D01*
X243634123Y-242698230D01*
X243814609Y-242633031D01*
X244019917Y-242612491D01*
X244263333Y-242612333D01*
X244263333Y-243379521D01*
X244771333Y-243379521D01*
X244771333Y-242133726D01*
X244153591Y-242158756D01*
G37*
X244153591Y-242158756D02*
X243899428Y-242170694D01*
X243712310Y-242184494D01*
X243574618Y-242202815D01*
X243468736Y-242228315D01*
X243377045Y-242263653D01*
X243339385Y-242281642D01*
X243144465Y-242421060D01*
X243012899Y-242605112D01*
X242946669Y-242820106D01*
X242947755Y-243052352D01*
X243018140Y-243288158D01*
X243159803Y-243513834D01*
X243160890Y-243515152D01*
X243324844Y-243713559D01*
X243095589Y-244131652D01*
X242973959Y-244364720D01*
X242899786Y-244537490D01*
X242871403Y-244658623D01*
X242887141Y-244736779D01*
X242945335Y-244780619D01*
X242969229Y-244787980D01*
X243117253Y-244787832D01*
X243265451Y-244711244D01*
X243416266Y-244556004D01*
X243572140Y-244319900D01*
X243654880Y-244166637D01*
X243758780Y-243985069D01*
X243856295Y-243871912D01*
X243963244Y-243813876D01*
X244094000Y-243797667D01*
X244263333Y-243797667D01*
X244263333Y-244813667D01*
X244771333Y-244813667D01*
X244771333Y-243379521D01*
X244263333Y-243379521D01*
X244062250Y-243353188D01*
X243893251Y-243321808D01*
X243722809Y-243276499D01*
X243684619Y-243263713D01*
X243544303Y-243191702D01*
X243471507Y-243095122D01*
X243468184Y-243086149D01*
X243451955Y-242932477D01*
X243510253Y-242800608D01*
X243634123Y-242698230D01*
X243814609Y-242633031D01*
X244019917Y-242612491D01*
X244263333Y-242612333D01*
X244263333Y-243379521D01*
X244771333Y-243379521D01*
X244771333Y-242133726D01*
X244153591Y-242158756D01*
G36*
X253108752Y-242192196D02*
G01*
X252884474Y-242204433D01*
X252715915Y-242229679D01*
X252588679Y-242271904D01*
X252488369Y-242335080D01*
X252400585Y-242423174D01*
X252357194Y-242477412D01*
X252300197Y-242560518D01*
X252266062Y-242642309D01*
X252249066Y-242748134D01*
X252243485Y-242903345D01*
X252243167Y-242982492D01*
X252243167Y-243338076D01*
X252599453Y-243670416D01*
X252347226Y-244150633D01*
X252251597Y-244338135D01*
X252172612Y-244503348D01*
X252117932Y-244629486D01*
X252095219Y-244699767D01*
X252095000Y-244703204D01*
X252107360Y-244743944D01*
X252157036Y-244763359D01*
X252262926Y-244766081D01*
X252338417Y-244762862D01*
X252581833Y-244750167D01*
X252798563Y-244357434D01*
X252920960Y-244140065D01*
X253015533Y-243987135D01*
X253092687Y-243887536D01*
X253162829Y-243830163D01*
X253236364Y-243803908D01*
X253323016Y-243797667D01*
X253479577Y-243797667D01*
X253506955Y-244121554D01*
X253520602Y-244304833D01*
X253530412Y-244478221D01*
X253534328Y-244605173D01*
X253534333Y-244608387D01*
X253534333Y-244771333D01*
X253760111Y-244771333D01*
X253891858Y-244766426D01*
X253986358Y-244753835D01*
X254014111Y-244743111D01*
X254021217Y-244695204D01*
X254027667Y-244573318D01*
X254033226Y-244388143D01*
X254037663Y-244150364D01*
X254040742Y-243870671D01*
X254042231Y-243559751D01*
X254042333Y-243451944D01*
X254042333Y-242612333D01*
X253492000Y-242612333D01*
X253492000Y-243379521D01*
X253290917Y-243349990D01*
X253145372Y-243323584D01*
X253018215Y-243292265D01*
X252984000Y-243281077D01*
X252854043Y-243210003D01*
X252748811Y-243112647D01*
X252691855Y-243012681D01*
X252687667Y-242983171D01*
X252725812Y-242831718D01*
X252835087Y-242716096D01*
X253007753Y-242641345D01*
X253236071Y-242612506D01*
X253257065Y-242612333D01*
X253492000Y-242612333D01*
X254042333Y-242612333D01*
X254042333Y-242189000D01*
X253403148Y-242189000D01*
X253108752Y-242192196D01*
G37*
X253108752Y-242192196D02*
X252884474Y-242204433D01*
X252715915Y-242229679D01*
X252588679Y-242271904D01*
X252488369Y-242335080D01*
X252400585Y-242423174D01*
X252357194Y-242477412D01*
X252300197Y-242560518D01*
X252266062Y-242642309D01*
X252249066Y-242748134D01*
X252243485Y-242903345D01*
X252243167Y-242982492D01*
X252243167Y-243338076D01*
X252599453Y-243670416D01*
X252347226Y-244150633D01*
X252251597Y-244338135D01*
X252172612Y-244503348D01*
X252117932Y-244629486D01*
X252095219Y-244699767D01*
X252095000Y-244703204D01*
X252107360Y-244743944D01*
X252157036Y-244763359D01*
X252262926Y-244766081D01*
X252338417Y-244762862D01*
X252581833Y-244750167D01*
X252798563Y-244357434D01*
X252920960Y-244140065D01*
X253015533Y-243987135D01*
X253092687Y-243887536D01*
X253162829Y-243830163D01*
X253236364Y-243803908D01*
X253323016Y-243797667D01*
X253479577Y-243797667D01*
X253506955Y-244121554D01*
X253520602Y-244304833D01*
X253530412Y-244478221D01*
X253534328Y-244605173D01*
X253534333Y-244608387D01*
X253534333Y-244771333D01*
X253760111Y-244771333D01*
X253891858Y-244766426D01*
X253986358Y-244753835D01*
X254014111Y-244743111D01*
X254021217Y-244695204D01*
X254027667Y-244573318D01*
X254033226Y-244388143D01*
X254037663Y-244150364D01*
X254040742Y-243870671D01*
X254042231Y-243559751D01*
X254042333Y-243451944D01*
X254042333Y-242612333D01*
X253492000Y-242612333D01*
X253492000Y-243379521D01*
X253290917Y-243349990D01*
X253145372Y-243323584D01*
X253018215Y-243292265D01*
X252984000Y-243281077D01*
X252854043Y-243210003D01*
X252748811Y-243112647D01*
X252691855Y-243012681D01*
X252687667Y-242983171D01*
X252725812Y-242831718D01*
X252835087Y-242716096D01*
X253007753Y-242641345D01*
X253236071Y-242612506D01*
X253257065Y-242612333D01*
X253492000Y-242612333D01*
X254042333Y-242612333D01*
X254042333Y-242189000D01*
X253403148Y-242189000D01*
X253108752Y-242192196D01*
G36*
X267386144Y-243929515D02*
G01*
X267220376Y-243944309D01*
X267095772Y-243968445D01*
X267085004Y-243971947D01*
X266992335Y-244015492D01*
X266960389Y-244077078D01*
X266962270Y-244150899D01*
X267006682Y-244276316D01*
X267081000Y-244335827D01*
X267186647Y-244365550D01*
X267340637Y-244382696D01*
X267512490Y-244386900D01*
X267671728Y-244377795D01*
X267787874Y-244355015D01*
X267811250Y-244344609D01*
X267863075Y-244275468D01*
X267886463Y-244167382D01*
X267880803Y-244054317D01*
X267845478Y-243970238D01*
X267818371Y-243950362D01*
X267716348Y-243931623D01*
X267561870Y-243924980D01*
X267386144Y-243929515D01*
G37*
X267386144Y-243929515D02*
X267220376Y-243944309D01*
X267095772Y-243968445D01*
X267085004Y-243971947D01*
X266992335Y-244015492D01*
X266960389Y-244077078D01*
X266962270Y-244150899D01*
X267006682Y-244276316D01*
X267081000Y-244335827D01*
X267186647Y-244365550D01*
X267340637Y-244382696D01*
X267512490Y-244386900D01*
X267671728Y-244377795D01*
X267787874Y-244355015D01*
X267811250Y-244344609D01*
X267863075Y-244275468D01*
X267886463Y-244167382D01*
X267880803Y-244054317D01*
X267845478Y-243970238D01*
X267818371Y-243950362D01*
X267716348Y-243931623D01*
X267561870Y-243924980D01*
X267386144Y-243929515D01*
G36*
X260997824Y-243932882D02*
G01*
X260851243Y-243952171D01*
X260783045Y-243969958D01*
X260685075Y-244019956D01*
X260629193Y-244077658D01*
X260628713Y-244078858D01*
X260630305Y-244180202D01*
X260693996Y-244280354D01*
X260799830Y-244350026D01*
X260912384Y-244374438D01*
X261068296Y-244386435D01*
X261237159Y-244386251D01*
X261388567Y-244374122D01*
X261492111Y-244350280D01*
X261503583Y-244344609D01*
X261556523Y-244271714D01*
X261577451Y-244158218D01*
X261563922Y-244042855D01*
X261526867Y-243975467D01*
X261455311Y-243947246D01*
X261325914Y-243930613D01*
X261164733Y-243925760D01*
X260997824Y-243932882D01*
G37*
X260997824Y-243932882D02*
X260851243Y-243952171D01*
X260783045Y-243969958D01*
X260685075Y-244019956D01*
X260629193Y-244077658D01*
X260628713Y-244078858D01*
X260630305Y-244180202D01*
X260693996Y-244280354D01*
X260799830Y-244350026D01*
X260912384Y-244374438D01*
X261068296Y-244386435D01*
X261237159Y-244386251D01*
X261388567Y-244374122D01*
X261492111Y-244350280D01*
X261503583Y-244344609D01*
X261556523Y-244271714D01*
X261577451Y-244158218D01*
X261563922Y-244042855D01*
X261526867Y-243975467D01*
X261455311Y-243947246D01*
X261325914Y-243930613D01*
X261164733Y-243925760D01*
X260997824Y-243932882D01*
G36*
X265057227Y-241423322D02*
G01*
X264981398Y-241525364D01*
X264923722Y-241669905D01*
X264889204Y-241836056D01*
X264882850Y-242002929D01*
X264909665Y-242149637D01*
X264945567Y-242221914D01*
X265034071Y-242287174D01*
X265160450Y-242316899D01*
X265288561Y-242308361D01*
X265382264Y-242258835D01*
X265385507Y-242255102D01*
X265413656Y-242177787D01*
X265430647Y-242046090D01*
X265435469Y-241889687D01*
X265427112Y-241738254D01*
X265406850Y-241628622D01*
X265332952Y-241485293D01*
X265224546Y-241400711D01*
X265146203Y-241384667D01*
X265057227Y-241423322D01*
G37*
X265057227Y-241423322D02*
X264981398Y-241525364D01*
X264923722Y-241669905D01*
X264889204Y-241836056D01*
X264882850Y-242002929D01*
X264909665Y-242149637D01*
X264945567Y-242221914D01*
X265034071Y-242287174D01*
X265160450Y-242316899D01*
X265288561Y-242308361D01*
X265382264Y-242258835D01*
X265385507Y-242255102D01*
X265413656Y-242177787D01*
X265430647Y-242046090D01*
X265435469Y-241889687D01*
X265427112Y-241738254D01*
X265406850Y-241628622D01*
X265332952Y-241485293D01*
X265224546Y-241400711D01*
X265146203Y-241384667D01*
X265057227Y-241423322D01*
G36*
X264137569Y-241443639D02*
G01*
X264083800Y-241477800D01*
X264057379Y-241546643D01*
X264040609Y-241673267D01*
X264033733Y-241831310D01*
X264036994Y-241994410D01*
X264050637Y-242136206D01*
X264074904Y-242230334D01*
X264076823Y-242234116D01*
X264151079Y-242294006D01*
X264266680Y-242316379D01*
X264388340Y-242299716D01*
X264472813Y-242251139D01*
X264543214Y-242128529D01*
X264574533Y-241960043D01*
X264566685Y-241774955D01*
X264519588Y-241602540D01*
X264474893Y-241520791D01*
X264383704Y-241452613D01*
X264258305Y-241425471D01*
X264137569Y-241443639D01*
G37*
X264137569Y-241443639D02*
X264083800Y-241477800D01*
X264057379Y-241546643D01*
X264040609Y-241673267D01*
X264033733Y-241831310D01*
X264036994Y-241994410D01*
X264050637Y-242136206D01*
X264074904Y-242230334D01*
X264076823Y-242234116D01*
X264151079Y-242294006D01*
X264266680Y-242316379D01*
X264388340Y-242299716D01*
X264472813Y-242251139D01*
X264543214Y-242128529D01*
X264574533Y-241960043D01*
X264566685Y-241774955D01*
X264519588Y-241602540D01*
X264474893Y-241520791D01*
X264383704Y-241452613D01*
X264258305Y-241425471D01*
X264137569Y-241443639D01*
G36*
X263309402Y-241407081D02*
G01*
X263231211Y-241473755D01*
X263178809Y-241605891D01*
X263155855Y-241787227D01*
X263166008Y-242001503D01*
X263169593Y-242028434D01*
X263207500Y-242294833D01*
X263403098Y-242307512D01*
X263525101Y-242310370D01*
X263588650Y-242291775D01*
X263619139Y-242242027D01*
X263624770Y-242222845D01*
X263641763Y-242106793D01*
X263649536Y-241944153D01*
X263647981Y-241771638D01*
X263636992Y-241625957D01*
X263626668Y-241569744D01*
X263564360Y-241478910D01*
X263455253Y-241416290D01*
X263336730Y-241401051D01*
X263309402Y-241407081D01*
G37*
X263309402Y-241407081D02*
X263231211Y-241473755D01*
X263178809Y-241605891D01*
X263155855Y-241787227D01*
X263166008Y-242001503D01*
X263169593Y-242028434D01*
X263207500Y-242294833D01*
X263403098Y-242307512D01*
X263525101Y-242310370D01*
X263588650Y-242291775D01*
X263619139Y-242242027D01*
X263624770Y-242222845D01*
X263641763Y-242106793D01*
X263649536Y-241944153D01*
X263647981Y-241771638D01*
X263636992Y-241625957D01*
X263626668Y-241569744D01*
X263564360Y-241478910D01*
X263455253Y-241416290D01*
X263336730Y-241401051D01*
X263309402Y-241407081D01*
G36*
X262974667Y-246325605D02*
G01*
X263234877Y-246352803D01*
X263351881Y-246360460D01*
X263530444Y-246366443D01*
X263755936Y-246370775D01*
X264013726Y-246373483D01*
X264289185Y-246374589D01*
X264567682Y-246374118D01*
X264834589Y-246372096D01*
X265075274Y-246368546D01*
X265275108Y-246363492D01*
X265419462Y-246356960D01*
X265493500Y-246349025D01*
X265578210Y-246309704D01*
X265609269Y-246279853D01*
X265619408Y-246222670D01*
X265627583Y-246094610D01*
X265633763Y-245909440D01*
X265637917Y-245680927D01*
X265640013Y-245422840D01*
X265640022Y-245148945D01*
X265637912Y-244873009D01*
X265633652Y-244608800D01*
X265627211Y-244370085D01*
X265618908Y-244178667D01*
X265133667Y-244178667D01*
X265133667Y-245872000D01*
X263440333Y-245872000D01*
X263440333Y-244178667D01*
X265133667Y-244178667D01*
X265618908Y-244178667D01*
X265618559Y-244170633D01*
X265614161Y-244100503D01*
X265586655Y-243713000D01*
X262974667Y-243713000D01*
X262974667Y-246325605D01*
G37*
X262974667Y-246325605D02*
X263234877Y-246352803D01*
X263351881Y-246360460D01*
X263530444Y-246366443D01*
X263755936Y-246370775D01*
X264013726Y-246373483D01*
X264289185Y-246374589D01*
X264567682Y-246374118D01*
X264834589Y-246372096D01*
X265075274Y-246368546D01*
X265275108Y-246363492D01*
X265419462Y-246356960D01*
X265493500Y-246349025D01*
X265578210Y-246309704D01*
X265609269Y-246279853D01*
X265619408Y-246222670D01*
X265627583Y-246094610D01*
X265633763Y-245909440D01*
X265637917Y-245680927D01*
X265640013Y-245422840D01*
X265640022Y-245148945D01*
X265637912Y-244873009D01*
X265633652Y-244608800D01*
X265627211Y-244370085D01*
X265618908Y-244178667D01*
X265133667Y-244178667D01*
X265133667Y-245872000D01*
X263440333Y-245872000D01*
X263440333Y-244178667D01*
X265133667Y-244178667D01*
X265618908Y-244178667D01*
X265618559Y-244170633D01*
X265614161Y-244100503D01*
X265586655Y-243713000D01*
X262974667Y-243713000D01*
X262974667Y-246325605D01*
D13*
%TO.C,D67*%
X398136250Y-243783750D02*
X400376250Y-243783750D01*
X400376250Y-243783750D02*
X400376250Y-248023750D01*
X400376250Y-248023750D02*
X398136250Y-248023750D01*
X398136250Y-248023750D02*
X398136250Y-243783750D01*
X399256250Y-243133750D02*
X399256250Y-243783750D01*
X399256250Y-248673750D02*
X399256250Y-248023750D01*
X398136250Y-244503750D02*
X400376250Y-244503750D01*
X398136250Y-244623750D02*
X400376250Y-244623750D01*
X398136250Y-244383750D02*
X400376250Y-244383750D01*
%TO.C,D82*%
X249376250Y-233870000D02*
X249376250Y-233405000D01*
X249376250Y-236495000D02*
X249376250Y-236030000D01*
X254190729Y-233869571D02*
G75*
G03*
X249681566Y-233870000I-2254479J-1080429D01*
G01*
X254190729Y-236030429D02*
G75*
G02*
X249681566Y-236030000I-2254479J1080429D01*
G01*
X254724065Y-233869173D02*
G75*
G03*
X249376250Y-233405170I-2787815J-1080827D01*
G01*
X254724065Y-236030827D02*
G75*
G02*
X249376250Y-236494830I-2787815J1080827D01*
G01*
%TO.C,D78*%
X339070000Y-236495000D02*
X339070000Y-236030000D01*
X339070000Y-233870000D02*
X339070000Y-233405000D01*
X344417815Y-236030827D02*
G75*
G02*
X339070000Y-236494830I-2787815J1080827D01*
G01*
X344417815Y-233869173D02*
G75*
G03*
X339070000Y-233405170I-2787815J-1080827D01*
G01*
X343884479Y-236030429D02*
G75*
G02*
X339375316Y-236030000I-2254479J1080429D01*
G01*
X343884479Y-233869571D02*
G75*
G03*
X339375316Y-233870000I-2254479J-1080429D01*
G01*
%TO.C,D74*%
X434801250Y-233870000D02*
X434801250Y-233405000D01*
X434801250Y-236495000D02*
X434801250Y-236030000D01*
X439615729Y-233869571D02*
G75*
G03*
X435106566Y-233870000I-2254479J-1080429D01*
G01*
X439615729Y-236030429D02*
G75*
G02*
X435106566Y-236030000I-2254479J1080429D01*
G01*
X440149065Y-233869173D02*
G75*
G03*
X434801250Y-233405170I-2787815J-1080827D01*
G01*
X440149065Y-236030827D02*
G75*
G02*
X434801250Y-236494830I-2787815J1080827D01*
G01*
%TO.C,D81*%
X174763750Y-233870000D02*
X174763750Y-233405000D01*
X174763750Y-236495000D02*
X174763750Y-236030000D01*
X179578229Y-233869571D02*
G75*
G03*
X175069066Y-233870000I-2254479J-1080429D01*
G01*
X179578229Y-236030429D02*
G75*
G02*
X175069066Y-236030000I-2254479J1080429D01*
G01*
X180111565Y-233869173D02*
G75*
G03*
X174763750Y-233405170I-2787815J-1080827D01*
G01*
X180111565Y-236030827D02*
G75*
G02*
X174763750Y-236494830I-2787815J1080827D01*
G01*
%TO.C,D73*%
X436276250Y-199243750D02*
X435811250Y-199243750D01*
X438901250Y-199243750D02*
X438436250Y-199243750D01*
X436275821Y-194429271D02*
G75*
G03*
X436276250Y-198938434I1080429J-2254479D01*
G01*
X438436679Y-194429271D02*
G75*
G02*
X438436250Y-198938434I-1080429J-2254479D01*
G01*
X436275423Y-193895935D02*
G75*
G03*
X435811420Y-199243750I1080827J-2787815D01*
G01*
X438437077Y-193895935D02*
G75*
G02*
X438901080Y-199243750I-1080827J-2787815D01*
G01*
%TO.C,D80*%
X181261250Y-194607500D02*
X181726250Y-194607500D01*
X178636250Y-194607500D02*
X179101250Y-194607500D01*
X181261679Y-199421979D02*
G75*
G03*
X181261250Y-194912816I-1080429J2254479D01*
G01*
X179100821Y-199421979D02*
G75*
G02*
X179101250Y-194912816I1080429J2254479D01*
G01*
X181262077Y-199955315D02*
G75*
G03*
X181726080Y-194607500I-1080827J2787815D01*
G01*
X179100423Y-199955315D02*
G75*
G02*
X178636420Y-194607500I1080827J2787815D01*
G01*
%TO.C,D72*%
X436276250Y-160982500D02*
X435811250Y-160982500D01*
X438901250Y-160982500D02*
X438436250Y-160982500D01*
X436275821Y-156168021D02*
G75*
G03*
X436276250Y-160677184I1080429J-2254479D01*
G01*
X438436679Y-156168021D02*
G75*
G02*
X438436250Y-160677184I-1080429J-2254479D01*
G01*
X436275423Y-155634685D02*
G75*
G03*
X435811420Y-160982500I1080827J-2787815D01*
G01*
X438437077Y-155634685D02*
G75*
G02*
X438901080Y-160982500I-1080827J-2787815D01*
G01*
%TO.C,D46*%
X398136250Y-158658750D02*
X400376250Y-158658750D01*
X398136250Y-158898750D02*
X400376250Y-158898750D01*
X398136250Y-158778750D02*
X400376250Y-158778750D01*
X399256250Y-162948750D02*
X399256250Y-162298750D01*
X399256250Y-157408750D02*
X399256250Y-158058750D01*
X398136250Y-162298750D02*
X398136250Y-158058750D01*
X400376250Y-162298750D02*
X398136250Y-162298750D01*
X400376250Y-158058750D02*
X400376250Y-162298750D01*
X398136250Y-158058750D02*
X400376250Y-158058750D01*
%TO.C,D79*%
X171736250Y-155872500D02*
X172201250Y-155872500D01*
X169111250Y-155872500D02*
X169576250Y-155872500D01*
X171736679Y-160686979D02*
G75*
G03*
X171736250Y-156177816I-1080429J2254479D01*
G01*
X169575821Y-160686979D02*
G75*
G02*
X169576250Y-156177816I1080429J2254479D01*
G01*
X171737077Y-161220315D02*
G75*
G03*
X172201080Y-155872500I-1080827J2787815D01*
G01*
X169575423Y-161220315D02*
G75*
G02*
X169111420Y-155872500I1080827J2787815D01*
G01*
%TO.C,D77*%
X254655000Y-156655000D02*
X254655000Y-157120000D01*
X254655000Y-154030000D02*
X254655000Y-154495000D01*
X249840521Y-156655429D02*
G75*
G03*
X254349684Y-156655000I2254479J1080429D01*
G01*
X249840521Y-154494571D02*
G75*
G02*
X254349684Y-154495000I2254479J-1080429D01*
G01*
X249307185Y-156655827D02*
G75*
G03*
X254655000Y-157119830I2787815J1080827D01*
G01*
X249307185Y-154494173D02*
G75*
G02*
X254655000Y-154030170I2787815J-1080827D01*
G01*
%TO.C,D71*%
X358636250Y-156655000D02*
X358636250Y-157120000D01*
X358636250Y-154030000D02*
X358636250Y-154495000D01*
X353821771Y-156655429D02*
G75*
G03*
X358330934Y-156655000I2254479J1080429D01*
G01*
X353821771Y-154494571D02*
G75*
G02*
X358330934Y-154495000I2254479J-1080429D01*
G01*
X353288435Y-156655827D02*
G75*
G03*
X358636250Y-157119830I2787815J1080827D01*
G01*
X353288435Y-154494173D02*
G75*
G02*
X358636250Y-154030170I2787815J-1080827D01*
G01*
%TO.C,D30*%
X436268000Y-186821000D02*
X438508000Y-186821000D01*
X436268000Y-187061000D02*
X438508000Y-187061000D01*
X436268000Y-186941000D02*
X438508000Y-186941000D01*
X437388000Y-191111000D02*
X437388000Y-190461000D01*
X437388000Y-185571000D02*
X437388000Y-186221000D01*
X436268000Y-190461000D02*
X436268000Y-186221000D01*
X438508000Y-190461000D02*
X436268000Y-190461000D01*
X438508000Y-186221000D02*
X438508000Y-190461000D01*
X436268000Y-186221000D02*
X438508000Y-186221000D01*
%TO.C,D15*%
X436236250Y-176915000D02*
X438476250Y-176915000D01*
X436236250Y-177155000D02*
X438476250Y-177155000D01*
X436236250Y-177035000D02*
X438476250Y-177035000D01*
X437356250Y-181205000D02*
X437356250Y-180555000D01*
X437356250Y-175665000D02*
X437356250Y-176315000D01*
X436236250Y-180555000D02*
X436236250Y-176315000D01*
X438476250Y-180555000D02*
X436236250Y-180555000D01*
X438476250Y-176315000D02*
X438476250Y-180555000D01*
X436236250Y-176315000D02*
X438476250Y-176315000D01*
%TO.C,D60*%
X436236250Y-224540000D02*
X438476250Y-224540000D01*
X436236250Y-224780000D02*
X438476250Y-224780000D01*
X436236250Y-224660000D02*
X438476250Y-224660000D01*
X437356250Y-228830000D02*
X437356250Y-228180000D01*
X437356250Y-223290000D02*
X437356250Y-223940000D01*
X436236250Y-228180000D02*
X436236250Y-223940000D01*
X438476250Y-228180000D02*
X436236250Y-228180000D01*
X438476250Y-223940000D02*
X438476250Y-228180000D01*
X436236250Y-223940000D02*
X438476250Y-223940000D01*
%TO.C,D45*%
X436236250Y-203902500D02*
X438476250Y-203902500D01*
X436236250Y-204142500D02*
X438476250Y-204142500D01*
X436236250Y-204022500D02*
X438476250Y-204022500D01*
X437356250Y-208192500D02*
X437356250Y-207542500D01*
X437356250Y-202652500D02*
X437356250Y-203302500D01*
X436236250Y-207542500D02*
X436236250Y-203302500D01*
X438476250Y-207542500D02*
X436236250Y-207542500D01*
X438476250Y-203302500D02*
X438476250Y-207542500D01*
X436236250Y-203302500D02*
X438476250Y-203302500D01*
%TO.C,D29*%
X432331000Y-186821000D02*
X434571000Y-186821000D01*
X432331000Y-187061000D02*
X434571000Y-187061000D01*
X432331000Y-186941000D02*
X434571000Y-186941000D01*
X433451000Y-191111000D02*
X433451000Y-190461000D01*
X433451000Y-185571000D02*
X433451000Y-186221000D01*
X432331000Y-190461000D02*
X432331000Y-186221000D01*
X434571000Y-190461000D02*
X432331000Y-190461000D01*
X434571000Y-186221000D02*
X434571000Y-190461000D01*
X432331000Y-186221000D02*
X434571000Y-186221000D01*
%TO.C,D14*%
X436236250Y-165802500D02*
X438476250Y-165802500D01*
X436236250Y-166042500D02*
X438476250Y-166042500D01*
X436236250Y-165922500D02*
X438476250Y-165922500D01*
X437356250Y-170092500D02*
X437356250Y-169442500D01*
X437356250Y-164552500D02*
X437356250Y-165202500D01*
X436236250Y-169442500D02*
X436236250Y-165202500D01*
X438476250Y-169442500D02*
X436236250Y-169442500D01*
X438476250Y-165202500D02*
X438476250Y-169442500D01*
X436236250Y-165202500D02*
X438476250Y-165202500D01*
%TO.C,D59*%
X417186250Y-220571250D02*
X419426250Y-220571250D01*
X417186250Y-220811250D02*
X419426250Y-220811250D01*
X417186250Y-220691250D02*
X419426250Y-220691250D01*
X418306250Y-224861250D02*
X418306250Y-224211250D01*
X418306250Y-219321250D02*
X418306250Y-219971250D01*
X417186250Y-224211250D02*
X417186250Y-219971250D01*
X419426250Y-224211250D02*
X417186250Y-224211250D01*
X419426250Y-219971250D02*
X419426250Y-224211250D01*
X417186250Y-219971250D02*
X419426250Y-219971250D01*
%TO.C,D44*%
X436236250Y-214221250D02*
X438476250Y-214221250D01*
X436236250Y-214461250D02*
X438476250Y-214461250D01*
X436236250Y-214341250D02*
X438476250Y-214341250D01*
X437356250Y-218511250D02*
X437356250Y-217861250D01*
X437356250Y-212971250D02*
X437356250Y-213621250D01*
X436236250Y-217861250D02*
X436236250Y-213621250D01*
X438476250Y-217861250D02*
X436236250Y-217861250D01*
X438476250Y-213621250D02*
X438476250Y-217861250D01*
X436236250Y-213621250D02*
X438476250Y-213621250D01*
%TO.C,D28*%
X407661250Y-187233750D02*
X409901250Y-187233750D01*
X407661250Y-187473750D02*
X409901250Y-187473750D01*
X407661250Y-187353750D02*
X409901250Y-187353750D01*
X408781250Y-191523750D02*
X408781250Y-190873750D01*
X408781250Y-185983750D02*
X408781250Y-186633750D01*
X407661250Y-190873750D02*
X407661250Y-186633750D01*
X409901250Y-190873750D02*
X407661250Y-190873750D01*
X409901250Y-186633750D02*
X409901250Y-190873750D01*
X407661250Y-186633750D02*
X409901250Y-186633750D01*
%TO.C,D13*%
X398136250Y-169771250D02*
X400376250Y-169771250D01*
X398136250Y-170011250D02*
X400376250Y-170011250D01*
X398136250Y-169891250D02*
X400376250Y-169891250D01*
X399256250Y-174061250D02*
X399256250Y-173411250D01*
X399256250Y-168521250D02*
X399256250Y-169171250D01*
X398136250Y-173411250D02*
X398136250Y-169171250D01*
X400376250Y-173411250D02*
X398136250Y-173411250D01*
X400376250Y-169171250D02*
X400376250Y-173411250D01*
X398136250Y-169171250D02*
X400376250Y-169171250D01*
%TO.C,D58*%
X413217500Y-225333750D02*
X415457500Y-225333750D01*
X413217500Y-225573750D02*
X415457500Y-225573750D01*
X413217500Y-225453750D02*
X415457500Y-225453750D01*
X414337500Y-229623750D02*
X414337500Y-228973750D01*
X414337500Y-224083750D02*
X414337500Y-224733750D01*
X413217500Y-228973750D02*
X413217500Y-224733750D01*
X415457500Y-228973750D02*
X413217500Y-228973750D01*
X415457500Y-224733750D02*
X415457500Y-228973750D01*
X413217500Y-224733750D02*
X415457500Y-224733750D01*
%TO.C,D43*%
X393373750Y-206283750D02*
X395613750Y-206283750D01*
X393373750Y-206523750D02*
X395613750Y-206523750D01*
X393373750Y-206403750D02*
X395613750Y-206403750D01*
X394493750Y-210573750D02*
X394493750Y-209923750D01*
X394493750Y-205033750D02*
X394493750Y-205683750D01*
X393373750Y-209923750D02*
X393373750Y-205683750D01*
X395613750Y-209923750D02*
X393373750Y-209923750D01*
X395613750Y-205683750D02*
X395613750Y-209923750D01*
X393373750Y-205683750D02*
X395613750Y-205683750D01*
%TO.C,D27*%
X388611250Y-187233750D02*
X390851250Y-187233750D01*
X388611250Y-187473750D02*
X390851250Y-187473750D01*
X388611250Y-187353750D02*
X390851250Y-187353750D01*
X389731250Y-191523750D02*
X389731250Y-190873750D01*
X389731250Y-185983750D02*
X389731250Y-186633750D01*
X388611250Y-190873750D02*
X388611250Y-186633750D01*
X390851250Y-190873750D02*
X388611250Y-190873750D01*
X390851250Y-186633750D02*
X390851250Y-190873750D01*
X388611250Y-186633750D02*
X390851250Y-186633750D01*
%TO.C,D12*%
X379086250Y-168183750D02*
X381326250Y-168183750D01*
X379086250Y-168423750D02*
X381326250Y-168423750D01*
X379086250Y-168303750D02*
X381326250Y-168303750D01*
X380206250Y-172473750D02*
X380206250Y-171823750D01*
X380206250Y-166933750D02*
X380206250Y-167583750D01*
X379086250Y-171823750D02*
X379086250Y-167583750D01*
X381326250Y-171823750D02*
X379086250Y-171823750D01*
X381326250Y-167583750D02*
X381326250Y-171823750D01*
X379086250Y-167583750D02*
X381326250Y-167583750D01*
%TO.C,D57*%
X383848750Y-225333750D02*
X386088750Y-225333750D01*
X383848750Y-225573750D02*
X386088750Y-225573750D01*
X383848750Y-225453750D02*
X386088750Y-225453750D01*
X384968750Y-229623750D02*
X384968750Y-228973750D01*
X384968750Y-224083750D02*
X384968750Y-224733750D01*
X383848750Y-228973750D02*
X383848750Y-224733750D01*
X386088750Y-228973750D02*
X383848750Y-228973750D01*
X386088750Y-224733750D02*
X386088750Y-228973750D01*
X383848750Y-224733750D02*
X386088750Y-224733750D01*
%TO.C,D42*%
X374323750Y-206283750D02*
X376563750Y-206283750D01*
X374323750Y-206523750D02*
X376563750Y-206523750D01*
X374323750Y-206403750D02*
X376563750Y-206403750D01*
X375443750Y-210573750D02*
X375443750Y-209923750D01*
X375443750Y-205033750D02*
X375443750Y-205683750D01*
X374323750Y-209923750D02*
X374323750Y-205683750D01*
X376563750Y-209923750D02*
X374323750Y-209923750D01*
X376563750Y-205683750D02*
X376563750Y-209923750D01*
X374323750Y-205683750D02*
X376563750Y-205683750D01*
%TO.C,D26*%
X369561250Y-187233750D02*
X371801250Y-187233750D01*
X369561250Y-187473750D02*
X371801250Y-187473750D01*
X369561250Y-187353750D02*
X371801250Y-187353750D01*
X370681250Y-191523750D02*
X370681250Y-190873750D01*
X370681250Y-185983750D02*
X370681250Y-186633750D01*
X369561250Y-190873750D02*
X369561250Y-186633750D01*
X371801250Y-190873750D02*
X369561250Y-190873750D01*
X371801250Y-186633750D02*
X371801250Y-190873750D01*
X369561250Y-186633750D02*
X371801250Y-186633750D01*
%TO.C,D11*%
X360036250Y-168183750D02*
X362276250Y-168183750D01*
X360036250Y-168423750D02*
X362276250Y-168423750D01*
X360036250Y-168303750D02*
X362276250Y-168303750D01*
X361156250Y-172473750D02*
X361156250Y-171823750D01*
X361156250Y-166933750D02*
X361156250Y-167583750D01*
X360036250Y-171823750D02*
X360036250Y-167583750D01*
X362276250Y-171823750D02*
X360036250Y-171823750D01*
X362276250Y-167583750D02*
X362276250Y-171823750D01*
X360036250Y-167583750D02*
X362276250Y-167583750D01*
%TO.C,D56*%
X364798750Y-225333750D02*
X367038750Y-225333750D01*
X364798750Y-225573750D02*
X367038750Y-225573750D01*
X364798750Y-225453750D02*
X367038750Y-225453750D01*
X365918750Y-229623750D02*
X365918750Y-228973750D01*
X365918750Y-224083750D02*
X365918750Y-224733750D01*
X364798750Y-228973750D02*
X364798750Y-224733750D01*
X367038750Y-228973750D02*
X364798750Y-228973750D01*
X367038750Y-224733750D02*
X367038750Y-228973750D01*
X364798750Y-224733750D02*
X367038750Y-224733750D01*
%TO.C,D41*%
X355273750Y-206283750D02*
X357513750Y-206283750D01*
X355273750Y-206523750D02*
X357513750Y-206523750D01*
X355273750Y-206403750D02*
X357513750Y-206403750D01*
X356393750Y-210573750D02*
X356393750Y-209923750D01*
X356393750Y-205033750D02*
X356393750Y-205683750D01*
X355273750Y-209923750D02*
X355273750Y-205683750D01*
X357513750Y-209923750D02*
X355273750Y-209923750D01*
X357513750Y-205683750D02*
X357513750Y-209923750D01*
X355273750Y-205683750D02*
X357513750Y-205683750D01*
%TO.C,D25*%
X350511250Y-186633750D02*
X352751250Y-186633750D01*
X352751250Y-186633750D02*
X352751250Y-190873750D01*
X352751250Y-190873750D02*
X350511250Y-190873750D01*
X350511250Y-190873750D02*
X350511250Y-186633750D01*
X351631250Y-185983750D02*
X351631250Y-186633750D01*
X351631250Y-191523750D02*
X351631250Y-190873750D01*
X350511250Y-187353750D02*
X352751250Y-187353750D01*
X350511250Y-187473750D02*
X352751250Y-187473750D01*
X350511250Y-187233750D02*
X352751250Y-187233750D01*
%TO.C,D10*%
X340986250Y-168183750D02*
X343226250Y-168183750D01*
X340986250Y-168423750D02*
X343226250Y-168423750D01*
X340986250Y-168303750D02*
X343226250Y-168303750D01*
X342106250Y-172473750D02*
X342106250Y-171823750D01*
X342106250Y-166933750D02*
X342106250Y-167583750D01*
X340986250Y-171823750D02*
X340986250Y-167583750D01*
X343226250Y-171823750D02*
X340986250Y-171823750D01*
X343226250Y-167583750D02*
X343226250Y-171823750D01*
X340986250Y-167583750D02*
X343226250Y-167583750D01*
%TO.C,D70*%
X436236250Y-243783750D02*
X438476250Y-243783750D01*
X438476250Y-243783750D02*
X438476250Y-248023750D01*
X438476250Y-248023750D02*
X436236250Y-248023750D01*
X436236250Y-248023750D02*
X436236250Y-243783750D01*
X437356250Y-243133750D02*
X437356250Y-243783750D01*
X437356250Y-248673750D02*
X437356250Y-248023750D01*
X436236250Y-244503750D02*
X438476250Y-244503750D01*
X436236250Y-244623750D02*
X438476250Y-244623750D01*
X436236250Y-244383750D02*
X438476250Y-244383750D01*
%TO.C,D55*%
X345748750Y-225333750D02*
X347988750Y-225333750D01*
X345748750Y-225573750D02*
X347988750Y-225573750D01*
X345748750Y-225453750D02*
X347988750Y-225453750D01*
X346868750Y-229623750D02*
X346868750Y-228973750D01*
X346868750Y-224083750D02*
X346868750Y-224733750D01*
X345748750Y-228973750D02*
X345748750Y-224733750D01*
X347988750Y-228973750D02*
X345748750Y-228973750D01*
X347988750Y-224733750D02*
X347988750Y-228973750D01*
X345748750Y-224733750D02*
X347988750Y-224733750D01*
%TO.C,D40*%
X336223750Y-206283750D02*
X338463750Y-206283750D01*
X336223750Y-206523750D02*
X338463750Y-206523750D01*
X336223750Y-206403750D02*
X338463750Y-206403750D01*
X337343750Y-210573750D02*
X337343750Y-209923750D01*
X337343750Y-205033750D02*
X337343750Y-205683750D01*
X336223750Y-209923750D02*
X336223750Y-205683750D01*
X338463750Y-209923750D02*
X336223750Y-209923750D01*
X338463750Y-205683750D02*
X338463750Y-209923750D01*
X336223750Y-205683750D02*
X338463750Y-205683750D01*
%TO.C,D24*%
X331461250Y-187233750D02*
X333701250Y-187233750D01*
X331461250Y-187473750D02*
X333701250Y-187473750D01*
X331461250Y-187353750D02*
X333701250Y-187353750D01*
X332581250Y-191523750D02*
X332581250Y-190873750D01*
X332581250Y-185983750D02*
X332581250Y-186633750D01*
X331461250Y-190873750D02*
X331461250Y-186633750D01*
X333701250Y-190873750D02*
X331461250Y-190873750D01*
X333701250Y-186633750D02*
X333701250Y-190873750D01*
X331461250Y-186633750D02*
X333701250Y-186633750D01*
%TO.C,D9*%
X321936250Y-168183750D02*
X324176250Y-168183750D01*
X321936250Y-168423750D02*
X324176250Y-168423750D01*
X321936250Y-168303750D02*
X324176250Y-168303750D01*
X323056250Y-172473750D02*
X323056250Y-171823750D01*
X323056250Y-166933750D02*
X323056250Y-167583750D01*
X321936250Y-171823750D02*
X321936250Y-167583750D01*
X324176250Y-171823750D02*
X321936250Y-171823750D01*
X324176250Y-167583750D02*
X324176250Y-171823750D01*
X321936250Y-167583750D02*
X324176250Y-167583750D01*
%TO.C,D69*%
X417186250Y-231877500D02*
X419426250Y-231877500D01*
X419426250Y-231877500D02*
X419426250Y-236117500D01*
X419426250Y-236117500D02*
X417186250Y-236117500D01*
X417186250Y-236117500D02*
X417186250Y-231877500D01*
X418306250Y-231227500D02*
X418306250Y-231877500D01*
X418306250Y-236767500D02*
X418306250Y-236117500D01*
X417186250Y-232597500D02*
X419426250Y-232597500D01*
X417186250Y-232717500D02*
X419426250Y-232717500D01*
X417186250Y-232477500D02*
X419426250Y-232477500D01*
%TO.C,D54*%
X326698750Y-225333750D02*
X328938750Y-225333750D01*
X326698750Y-225573750D02*
X328938750Y-225573750D01*
X326698750Y-225453750D02*
X328938750Y-225453750D01*
X327818750Y-229623750D02*
X327818750Y-228973750D01*
X327818750Y-224083750D02*
X327818750Y-224733750D01*
X326698750Y-228973750D02*
X326698750Y-224733750D01*
X328938750Y-228973750D02*
X326698750Y-228973750D01*
X328938750Y-224733750D02*
X328938750Y-228973750D01*
X326698750Y-224733750D02*
X328938750Y-224733750D01*
%TO.C,D39*%
X317173750Y-206283750D02*
X319413750Y-206283750D01*
X317173750Y-206523750D02*
X319413750Y-206523750D01*
X317173750Y-206403750D02*
X319413750Y-206403750D01*
X318293750Y-210573750D02*
X318293750Y-209923750D01*
X318293750Y-205033750D02*
X318293750Y-205683750D01*
X317173750Y-209923750D02*
X317173750Y-205683750D01*
X319413750Y-209923750D02*
X317173750Y-209923750D01*
X319413750Y-205683750D02*
X319413750Y-209923750D01*
X317173750Y-205683750D02*
X319413750Y-205683750D01*
%TO.C,D23*%
X312411250Y-187233750D02*
X314651250Y-187233750D01*
X312411250Y-187473750D02*
X314651250Y-187473750D01*
X312411250Y-187353750D02*
X314651250Y-187353750D01*
X313531250Y-191523750D02*
X313531250Y-190873750D01*
X313531250Y-185983750D02*
X313531250Y-186633750D01*
X312411250Y-190873750D02*
X312411250Y-186633750D01*
X314651250Y-190873750D02*
X312411250Y-190873750D01*
X314651250Y-186633750D02*
X314651250Y-190873750D01*
X312411250Y-186633750D02*
X314651250Y-186633750D01*
%TO.C,D8*%
X302886250Y-168183750D02*
X305126250Y-168183750D01*
X302886250Y-168423750D02*
X305126250Y-168423750D01*
X302886250Y-168303750D02*
X305126250Y-168303750D01*
X304006250Y-172473750D02*
X304006250Y-171823750D01*
X304006250Y-166933750D02*
X304006250Y-167583750D01*
X302886250Y-171823750D02*
X302886250Y-167583750D01*
X305126250Y-171823750D02*
X302886250Y-171823750D01*
X305126250Y-167583750D02*
X305126250Y-171823750D01*
X302886250Y-167583750D02*
X305126250Y-167583750D01*
%TO.C,D68*%
X417186250Y-243783750D02*
X419426250Y-243783750D01*
X419426250Y-243783750D02*
X419426250Y-248023750D01*
X419426250Y-248023750D02*
X417186250Y-248023750D01*
X417186250Y-248023750D02*
X417186250Y-243783750D01*
X418306250Y-243133750D02*
X418306250Y-243783750D01*
X418306250Y-248673750D02*
X418306250Y-248023750D01*
X417186250Y-244503750D02*
X419426250Y-244503750D01*
X417186250Y-244623750D02*
X419426250Y-244623750D01*
X417186250Y-244383750D02*
X419426250Y-244383750D01*
%TO.C,D53*%
X307648750Y-225333750D02*
X309888750Y-225333750D01*
X307648750Y-225573750D02*
X309888750Y-225573750D01*
X307648750Y-225453750D02*
X309888750Y-225453750D01*
X308768750Y-229623750D02*
X308768750Y-228973750D01*
X308768750Y-224083750D02*
X308768750Y-224733750D01*
X307648750Y-228973750D02*
X307648750Y-224733750D01*
X309888750Y-228973750D02*
X307648750Y-228973750D01*
X309888750Y-224733750D02*
X309888750Y-228973750D01*
X307648750Y-224733750D02*
X309888750Y-224733750D01*
%TO.C,D38*%
X298123750Y-206283750D02*
X300363750Y-206283750D01*
X298123750Y-206523750D02*
X300363750Y-206523750D01*
X298123750Y-206403750D02*
X300363750Y-206403750D01*
X299243750Y-210573750D02*
X299243750Y-209923750D01*
X299243750Y-205033750D02*
X299243750Y-205683750D01*
X298123750Y-209923750D02*
X298123750Y-205683750D01*
X300363750Y-209923750D02*
X298123750Y-209923750D01*
X300363750Y-205683750D02*
X300363750Y-209923750D01*
X298123750Y-205683750D02*
X300363750Y-205683750D01*
%TO.C,D22*%
X293361250Y-187233750D02*
X295601250Y-187233750D01*
X293361250Y-187473750D02*
X295601250Y-187473750D01*
X293361250Y-187353750D02*
X295601250Y-187353750D01*
X294481250Y-191523750D02*
X294481250Y-190873750D01*
X294481250Y-185983750D02*
X294481250Y-186633750D01*
X293361250Y-190873750D02*
X293361250Y-186633750D01*
X295601250Y-190873750D02*
X293361250Y-190873750D01*
X295601250Y-186633750D02*
X295601250Y-190873750D01*
X293361250Y-186633750D02*
X295601250Y-186633750D01*
%TO.C,D7*%
X283836250Y-168183750D02*
X286076250Y-168183750D01*
X283836250Y-168423750D02*
X286076250Y-168423750D01*
X283836250Y-168303750D02*
X286076250Y-168303750D01*
X284956250Y-172473750D02*
X284956250Y-171823750D01*
X284956250Y-166933750D02*
X284956250Y-167583750D01*
X283836250Y-171823750D02*
X283836250Y-167583750D01*
X286076250Y-171823750D02*
X283836250Y-171823750D01*
X286076250Y-167583750D02*
X286076250Y-171823750D01*
X283836250Y-167583750D02*
X286076250Y-167583750D01*
%TO.C,D66*%
X379086250Y-244383750D02*
X381326250Y-244383750D01*
X379086250Y-244623750D02*
X381326250Y-244623750D01*
X379086250Y-244503750D02*
X381326250Y-244503750D01*
X380206250Y-248673750D02*
X380206250Y-248023750D01*
X380206250Y-243133750D02*
X380206250Y-243783750D01*
X379086250Y-248023750D02*
X379086250Y-243783750D01*
X381326250Y-248023750D02*
X379086250Y-248023750D01*
X381326250Y-243783750D02*
X381326250Y-248023750D01*
X379086250Y-243783750D02*
X381326250Y-243783750D01*
%TO.C,D52*%
X288598750Y-224733750D02*
X290838750Y-224733750D01*
X290838750Y-224733750D02*
X290838750Y-228973750D01*
X290838750Y-228973750D02*
X288598750Y-228973750D01*
X288598750Y-228973750D02*
X288598750Y-224733750D01*
X289718750Y-224083750D02*
X289718750Y-224733750D01*
X289718750Y-229623750D02*
X289718750Y-228973750D01*
X288598750Y-225453750D02*
X290838750Y-225453750D01*
X288598750Y-225573750D02*
X290838750Y-225573750D01*
X288598750Y-225333750D02*
X290838750Y-225333750D01*
%TO.C,D37*%
X279073750Y-206283750D02*
X281313750Y-206283750D01*
X279073750Y-206523750D02*
X281313750Y-206523750D01*
X279073750Y-206403750D02*
X281313750Y-206403750D01*
X280193750Y-210573750D02*
X280193750Y-209923750D01*
X280193750Y-205033750D02*
X280193750Y-205683750D01*
X279073750Y-209923750D02*
X279073750Y-205683750D01*
X281313750Y-209923750D02*
X279073750Y-209923750D01*
X281313750Y-205683750D02*
X281313750Y-209923750D01*
X279073750Y-205683750D02*
X281313750Y-205683750D01*
%TO.C,D21*%
X274311250Y-186633750D02*
X276551250Y-186633750D01*
X276551250Y-186633750D02*
X276551250Y-190873750D01*
X276551250Y-190873750D02*
X274311250Y-190873750D01*
X274311250Y-190873750D02*
X274311250Y-186633750D01*
X275431250Y-185983750D02*
X275431250Y-186633750D01*
X275431250Y-191523750D02*
X275431250Y-190873750D01*
X274311250Y-187353750D02*
X276551250Y-187353750D01*
X274311250Y-187473750D02*
X276551250Y-187473750D01*
X274311250Y-187233750D02*
X276551250Y-187233750D01*
%TO.C,D6*%
X264786250Y-168183750D02*
X267026250Y-168183750D01*
X264786250Y-168423750D02*
X267026250Y-168423750D01*
X264786250Y-168303750D02*
X267026250Y-168303750D01*
X265906250Y-172473750D02*
X265906250Y-171823750D01*
X265906250Y-166933750D02*
X265906250Y-167583750D01*
X264786250Y-171823750D02*
X264786250Y-167583750D01*
X267026250Y-171823750D02*
X264786250Y-171823750D01*
X267026250Y-167583750D02*
X267026250Y-171823750D01*
X264786250Y-167583750D02*
X267026250Y-167583750D01*
%TO.C,D65*%
X360036250Y-244383750D02*
X362276250Y-244383750D01*
X360036250Y-244623750D02*
X362276250Y-244623750D01*
X360036250Y-244503750D02*
X362276250Y-244503750D01*
X361156250Y-248673750D02*
X361156250Y-248023750D01*
X361156250Y-243133750D02*
X361156250Y-243783750D01*
X360036250Y-248023750D02*
X360036250Y-243783750D01*
X362276250Y-248023750D02*
X360036250Y-248023750D01*
X362276250Y-243783750D02*
X362276250Y-248023750D01*
X360036250Y-243783750D02*
X362276250Y-243783750D01*
%TO.C,D51*%
X269548750Y-225333750D02*
X271788750Y-225333750D01*
X269548750Y-225573750D02*
X271788750Y-225573750D01*
X269548750Y-225453750D02*
X271788750Y-225453750D01*
X270668750Y-229623750D02*
X270668750Y-228973750D01*
X270668750Y-224083750D02*
X270668750Y-224733750D01*
X269548750Y-228973750D02*
X269548750Y-224733750D01*
X271788750Y-228973750D02*
X269548750Y-228973750D01*
X271788750Y-224733750D02*
X271788750Y-228973750D01*
X269548750Y-224733750D02*
X271788750Y-224733750D01*
%TO.C,D36*%
X260023750Y-206283750D02*
X262263750Y-206283750D01*
X260023750Y-206523750D02*
X262263750Y-206523750D01*
X260023750Y-206403750D02*
X262263750Y-206403750D01*
X261143750Y-210573750D02*
X261143750Y-209923750D01*
X261143750Y-205033750D02*
X261143750Y-205683750D01*
X260023750Y-209923750D02*
X260023750Y-205683750D01*
X262263750Y-209923750D02*
X260023750Y-209923750D01*
X262263750Y-205683750D02*
X262263750Y-209923750D01*
X260023750Y-205683750D02*
X262263750Y-205683750D01*
%TO.C,D20*%
X255261250Y-187233750D02*
X257501250Y-187233750D01*
X255261250Y-187473750D02*
X257501250Y-187473750D01*
X255261250Y-187353750D02*
X257501250Y-187353750D01*
X256381250Y-191523750D02*
X256381250Y-190873750D01*
X256381250Y-185983750D02*
X256381250Y-186633750D01*
X255261250Y-190873750D02*
X255261250Y-186633750D01*
X257501250Y-190873750D02*
X255261250Y-190873750D01*
X257501250Y-186633750D02*
X257501250Y-190873750D01*
X255261250Y-186633750D02*
X257501250Y-186633750D01*
%TO.C,D5*%
X245736250Y-168183750D02*
X247976250Y-168183750D01*
X245736250Y-168423750D02*
X247976250Y-168423750D01*
X245736250Y-168303750D02*
X247976250Y-168303750D01*
X246856250Y-172473750D02*
X246856250Y-171823750D01*
X246856250Y-166933750D02*
X246856250Y-167583750D01*
X245736250Y-171823750D02*
X245736250Y-167583750D01*
X247976250Y-171823750D02*
X245736250Y-171823750D01*
X247976250Y-167583750D02*
X247976250Y-171823750D01*
X245736250Y-167583750D02*
X247976250Y-167583750D01*
%TO.C,D64*%
X307648750Y-244383750D02*
X309888750Y-244383750D01*
X307648750Y-244623750D02*
X309888750Y-244623750D01*
X307648750Y-244503750D02*
X309888750Y-244503750D01*
X308768750Y-248673750D02*
X308768750Y-248023750D01*
X308768750Y-243133750D02*
X308768750Y-243783750D01*
X307648750Y-248023750D02*
X307648750Y-243783750D01*
X309888750Y-248023750D02*
X307648750Y-248023750D01*
X309888750Y-243783750D02*
X309888750Y-248023750D01*
X307648750Y-243783750D02*
X309888750Y-243783750D01*
%TO.C,D50*%
X250498750Y-224540000D02*
X252738750Y-224540000D01*
X250498750Y-224780000D02*
X252738750Y-224780000D01*
X250498750Y-224660000D02*
X252738750Y-224660000D01*
X251618750Y-228830000D02*
X251618750Y-228180000D01*
X251618750Y-223290000D02*
X251618750Y-223940000D01*
X250498750Y-228180000D02*
X250498750Y-223940000D01*
X252738750Y-228180000D02*
X250498750Y-228180000D01*
X252738750Y-223940000D02*
X252738750Y-228180000D01*
X250498750Y-223940000D02*
X252738750Y-223940000D01*
%TO.C,D35*%
X240973750Y-206283750D02*
X243213750Y-206283750D01*
X240973750Y-206523750D02*
X243213750Y-206523750D01*
X240973750Y-206403750D02*
X243213750Y-206403750D01*
X242093750Y-210573750D02*
X242093750Y-209923750D01*
X242093750Y-205033750D02*
X242093750Y-205683750D01*
X240973750Y-209923750D02*
X240973750Y-205683750D01*
X243213750Y-209923750D02*
X240973750Y-209923750D01*
X243213750Y-205683750D02*
X243213750Y-209923750D01*
X240973750Y-205683750D02*
X243213750Y-205683750D01*
%TO.C,D19*%
X236211250Y-187233750D02*
X238451250Y-187233750D01*
X236211250Y-187473750D02*
X238451250Y-187473750D01*
X236211250Y-187353750D02*
X238451250Y-187353750D01*
X237331250Y-191523750D02*
X237331250Y-190873750D01*
X237331250Y-185983750D02*
X237331250Y-186633750D01*
X236211250Y-190873750D02*
X236211250Y-186633750D01*
X238451250Y-190873750D02*
X236211250Y-190873750D01*
X238451250Y-186633750D02*
X238451250Y-190873750D01*
X236211250Y-186633750D02*
X238451250Y-186633750D01*
%TO.C,D4*%
X226686250Y-168183750D02*
X228926250Y-168183750D01*
X226686250Y-168423750D02*
X228926250Y-168423750D01*
X226686250Y-168303750D02*
X228926250Y-168303750D01*
X227806250Y-172473750D02*
X227806250Y-171823750D01*
X227806250Y-166933750D02*
X227806250Y-167583750D01*
X226686250Y-171823750D02*
X226686250Y-167583750D01*
X228926250Y-171823750D02*
X226686250Y-171823750D01*
X228926250Y-167583750D02*
X228926250Y-171823750D01*
X226686250Y-167583750D02*
X228926250Y-167583750D01*
%TO.C,D63*%
X221923750Y-244383750D02*
X224163750Y-244383750D01*
X221923750Y-244623750D02*
X224163750Y-244623750D01*
X221923750Y-244503750D02*
X224163750Y-244503750D01*
X223043750Y-248673750D02*
X223043750Y-248023750D01*
X223043750Y-243133750D02*
X223043750Y-243783750D01*
X221923750Y-248023750D02*
X221923750Y-243783750D01*
X224163750Y-248023750D02*
X221923750Y-248023750D01*
X224163750Y-243783750D02*
X224163750Y-248023750D01*
X221923750Y-243783750D02*
X224163750Y-243783750D01*
%TO.C,D49*%
X231448750Y-225333750D02*
X233688750Y-225333750D01*
X231448750Y-225573750D02*
X233688750Y-225573750D01*
X231448750Y-225453750D02*
X233688750Y-225453750D01*
X232568750Y-229623750D02*
X232568750Y-228973750D01*
X232568750Y-224083750D02*
X232568750Y-224733750D01*
X231448750Y-228973750D02*
X231448750Y-224733750D01*
X233688750Y-228973750D02*
X231448750Y-228973750D01*
X233688750Y-224733750D02*
X233688750Y-228973750D01*
X231448750Y-224733750D02*
X233688750Y-224733750D01*
%TO.C,D34*%
X221923750Y-206283750D02*
X224163750Y-206283750D01*
X221923750Y-206523750D02*
X224163750Y-206523750D01*
X221923750Y-206403750D02*
X224163750Y-206403750D01*
X223043750Y-210573750D02*
X223043750Y-209923750D01*
X223043750Y-205033750D02*
X223043750Y-205683750D01*
X221923750Y-209923750D02*
X221923750Y-205683750D01*
X224163750Y-209923750D02*
X221923750Y-209923750D01*
X224163750Y-205683750D02*
X224163750Y-209923750D01*
X221923750Y-205683750D02*
X224163750Y-205683750D01*
%TO.C,D18*%
X217161250Y-187233750D02*
X219401250Y-187233750D01*
X217161250Y-187473750D02*
X219401250Y-187473750D01*
X217161250Y-187353750D02*
X219401250Y-187353750D01*
X218281250Y-191523750D02*
X218281250Y-190873750D01*
X218281250Y-185983750D02*
X218281250Y-186633750D01*
X217161250Y-190873750D02*
X217161250Y-186633750D01*
X219401250Y-190873750D02*
X217161250Y-190873750D01*
X219401250Y-186633750D02*
X219401250Y-190873750D01*
X217161250Y-186633750D02*
X219401250Y-186633750D01*
%TO.C,D3*%
X207636250Y-168183750D02*
X209876250Y-168183750D01*
X207636250Y-168423750D02*
X209876250Y-168423750D01*
X207636250Y-168303750D02*
X209876250Y-168303750D01*
X208756250Y-172473750D02*
X208756250Y-171823750D01*
X208756250Y-166933750D02*
X208756250Y-167583750D01*
X207636250Y-171823750D02*
X207636250Y-167583750D01*
X209876250Y-171823750D02*
X207636250Y-171823750D01*
X209876250Y-167583750D02*
X209876250Y-171823750D01*
X207636250Y-167583750D02*
X209876250Y-167583750D01*
%TO.C,D62*%
X198111250Y-244383750D02*
X200351250Y-244383750D01*
X198111250Y-244623750D02*
X200351250Y-244623750D01*
X198111250Y-244503750D02*
X200351250Y-244503750D01*
X199231250Y-248673750D02*
X199231250Y-248023750D01*
X199231250Y-243133750D02*
X199231250Y-243783750D01*
X198111250Y-248023750D02*
X198111250Y-243783750D01*
X200351250Y-248023750D02*
X198111250Y-248023750D01*
X200351250Y-243783750D02*
X200351250Y-248023750D01*
X198111250Y-243783750D02*
X200351250Y-243783750D01*
%TO.C,D48*%
X212398750Y-225333750D02*
X214638750Y-225333750D01*
X212398750Y-225573750D02*
X214638750Y-225573750D01*
X212398750Y-225453750D02*
X214638750Y-225453750D01*
X213518750Y-229623750D02*
X213518750Y-228973750D01*
X213518750Y-224083750D02*
X213518750Y-224733750D01*
X212398750Y-228973750D02*
X212398750Y-224733750D01*
X214638750Y-228973750D02*
X212398750Y-228973750D01*
X214638750Y-224733750D02*
X214638750Y-228973750D01*
X212398750Y-224733750D02*
X214638750Y-224733750D01*
%TO.C,D33*%
X202873750Y-206283750D02*
X205113750Y-206283750D01*
X202873750Y-206523750D02*
X205113750Y-206523750D01*
X202873750Y-206403750D02*
X205113750Y-206403750D01*
X203993750Y-210573750D02*
X203993750Y-209923750D01*
X203993750Y-205033750D02*
X203993750Y-205683750D01*
X202873750Y-209923750D02*
X202873750Y-205683750D01*
X205113750Y-209923750D02*
X202873750Y-209923750D01*
X205113750Y-205683750D02*
X205113750Y-209923750D01*
X202873750Y-205683750D02*
X205113750Y-205683750D01*
%TO.C,D17*%
X198111250Y-187233750D02*
X200351250Y-187233750D01*
X198111250Y-187473750D02*
X200351250Y-187473750D01*
X198111250Y-187353750D02*
X200351250Y-187353750D01*
X199231250Y-191523750D02*
X199231250Y-190873750D01*
X199231250Y-185983750D02*
X199231250Y-186633750D01*
X198111250Y-190873750D02*
X198111250Y-186633750D01*
X200351250Y-190873750D02*
X198111250Y-190873750D01*
X200351250Y-186633750D02*
X200351250Y-190873750D01*
X198111250Y-186633750D02*
X200351250Y-186633750D01*
%TO.C,D2*%
X188586250Y-168183750D02*
X190826250Y-168183750D01*
X188586250Y-168423750D02*
X190826250Y-168423750D01*
X188586250Y-168303750D02*
X190826250Y-168303750D01*
X189706250Y-172473750D02*
X189706250Y-171823750D01*
X189706250Y-166933750D02*
X189706250Y-167583750D01*
X188586250Y-171823750D02*
X188586250Y-167583750D01*
X190826250Y-171823750D02*
X188586250Y-171823750D01*
X190826250Y-167583750D02*
X190826250Y-171823750D01*
X188586250Y-167583750D02*
X190826250Y-167583750D01*
%TO.C,D61*%
X174298750Y-243783750D02*
X176538750Y-243783750D01*
X176538750Y-243783750D02*
X176538750Y-248023750D01*
X176538750Y-248023750D02*
X174298750Y-248023750D01*
X174298750Y-248023750D02*
X174298750Y-243783750D01*
X175418750Y-243133750D02*
X175418750Y-243783750D01*
X175418750Y-248673750D02*
X175418750Y-248023750D01*
X174298750Y-244503750D02*
X176538750Y-244503750D01*
X174298750Y-244623750D02*
X176538750Y-244623750D01*
X174298750Y-244383750D02*
X176538750Y-244383750D01*
%TO.C,D47*%
X193348750Y-224733750D02*
X195588750Y-224733750D01*
X195588750Y-224733750D02*
X195588750Y-228973750D01*
X195588750Y-228973750D02*
X193348750Y-228973750D01*
X193348750Y-228973750D02*
X193348750Y-224733750D01*
X194468750Y-224083750D02*
X194468750Y-224733750D01*
X194468750Y-229623750D02*
X194468750Y-228973750D01*
X193348750Y-225453750D02*
X195588750Y-225453750D01*
X193348750Y-225573750D02*
X195588750Y-225573750D01*
X193348750Y-225333750D02*
X195588750Y-225333750D01*
%TO.C,D32*%
X183823750Y-205683750D02*
X186063750Y-205683750D01*
X186063750Y-205683750D02*
X186063750Y-209923750D01*
X186063750Y-209923750D02*
X183823750Y-209923750D01*
X183823750Y-209923750D02*
X183823750Y-205683750D01*
X184943750Y-205033750D02*
X184943750Y-205683750D01*
X184943750Y-210573750D02*
X184943750Y-209923750D01*
X183823750Y-206403750D02*
X186063750Y-206403750D01*
X183823750Y-206523750D02*
X186063750Y-206523750D01*
X183823750Y-206283750D02*
X186063750Y-206283750D01*
%TO.C,D16*%
X179061250Y-186633750D02*
X181301250Y-186633750D01*
X181301250Y-186633750D02*
X181301250Y-190873750D01*
X181301250Y-190873750D02*
X179061250Y-190873750D01*
X179061250Y-190873750D02*
X179061250Y-186633750D01*
X180181250Y-185983750D02*
X180181250Y-186633750D01*
X180181250Y-191523750D02*
X180181250Y-190873750D01*
X179061250Y-187353750D02*
X181301250Y-187353750D01*
X179061250Y-187473750D02*
X181301250Y-187473750D01*
X179061250Y-187233750D02*
X181301250Y-187233750D01*
%TO.C,D1*%
X169536250Y-167583750D02*
X171776250Y-167583750D01*
X171776250Y-167583750D02*
X171776250Y-171823750D01*
X171776250Y-171823750D02*
X169536250Y-171823750D01*
X169536250Y-171823750D02*
X169536250Y-167583750D01*
X170656250Y-166933750D02*
X170656250Y-167583750D01*
X170656250Y-172473750D02*
X170656250Y-171823750D01*
X169536250Y-168303750D02*
X171776250Y-168303750D01*
X169536250Y-168423750D02*
X171776250Y-168423750D01*
X169536250Y-168183750D02*
X171776250Y-168183750D01*
%TO.C,D67*%
D11*
X399708630Y-245348214D02*
X398708630Y-245348214D01*
X398708630Y-245586309D01*
X398756250Y-245729166D01*
X398851488Y-245824404D01*
X398946726Y-245872023D01*
X399137202Y-245919642D01*
X399280059Y-245919642D01*
X399470535Y-245872023D01*
X399565773Y-245824404D01*
X399661011Y-245729166D01*
X399708630Y-245586309D01*
X399708630Y-245348214D01*
X398708630Y-246776785D02*
X398708630Y-246586309D01*
X398756250Y-246491071D01*
X398803869Y-246443452D01*
X398946726Y-246348214D01*
X399137202Y-246300595D01*
X399518154Y-246300595D01*
X399613392Y-246348214D01*
X399661011Y-246395833D01*
X399708630Y-246491071D01*
X399708630Y-246681547D01*
X399661011Y-246776785D01*
X399613392Y-246824404D01*
X399518154Y-246872023D01*
X399280059Y-246872023D01*
X399184821Y-246824404D01*
X399137202Y-246776785D01*
X399089583Y-246681547D01*
X399089583Y-246491071D01*
X399137202Y-246395833D01*
X399184821Y-246348214D01*
X399280059Y-246300595D01*
X398708630Y-247205357D02*
X398708630Y-247872023D01*
X399708630Y-247443452D01*
%TO.C,D46*%
X399708630Y-159623214D02*
X398708630Y-159623214D01*
X398708630Y-159861309D01*
X398756250Y-160004166D01*
X398851488Y-160099404D01*
X398946726Y-160147023D01*
X399137202Y-160194642D01*
X399280059Y-160194642D01*
X399470535Y-160147023D01*
X399565773Y-160099404D01*
X399661011Y-160004166D01*
X399708630Y-159861309D01*
X399708630Y-159623214D01*
X399041964Y-161051785D02*
X399708630Y-161051785D01*
X398661011Y-160813690D02*
X399375297Y-160575595D01*
X399375297Y-161194642D01*
X398708630Y-162004166D02*
X398708630Y-161813690D01*
X398756250Y-161718452D01*
X398803869Y-161670833D01*
X398946726Y-161575595D01*
X399137202Y-161527976D01*
X399518154Y-161527976D01*
X399613392Y-161575595D01*
X399661011Y-161623214D01*
X399708630Y-161718452D01*
X399708630Y-161908928D01*
X399661011Y-162004166D01*
X399613392Y-162051785D01*
X399518154Y-162099404D01*
X399280059Y-162099404D01*
X399184821Y-162051785D01*
X399137202Y-162004166D01*
X399089583Y-161908928D01*
X399089583Y-161718452D01*
X399137202Y-161623214D01*
X399184821Y-161575595D01*
X399280059Y-161527976D01*
%TO.C,D30*%
X437840380Y-187785464D02*
X436840380Y-187785464D01*
X436840380Y-188023559D01*
X436888000Y-188166416D01*
X436983238Y-188261654D01*
X437078476Y-188309273D01*
X437268952Y-188356892D01*
X437411809Y-188356892D01*
X437602285Y-188309273D01*
X437697523Y-188261654D01*
X437792761Y-188166416D01*
X437840380Y-188023559D01*
X437840380Y-187785464D01*
X436840380Y-188690226D02*
X436840380Y-189309273D01*
X437221333Y-188975940D01*
X437221333Y-189118797D01*
X437268952Y-189214035D01*
X437316571Y-189261654D01*
X437411809Y-189309273D01*
X437649904Y-189309273D01*
X437745142Y-189261654D01*
X437792761Y-189214035D01*
X437840380Y-189118797D01*
X437840380Y-188833083D01*
X437792761Y-188737845D01*
X437745142Y-188690226D01*
X436840380Y-189928321D02*
X436840380Y-190023559D01*
X436888000Y-190118797D01*
X436935619Y-190166416D01*
X437030857Y-190214035D01*
X437221333Y-190261654D01*
X437459428Y-190261654D01*
X437649904Y-190214035D01*
X437745142Y-190166416D01*
X437792761Y-190118797D01*
X437840380Y-190023559D01*
X437840380Y-189928321D01*
X437792761Y-189833083D01*
X437745142Y-189785464D01*
X437649904Y-189737845D01*
X437459428Y-189690226D01*
X437221333Y-189690226D01*
X437030857Y-189737845D01*
X436935619Y-189785464D01*
X436888000Y-189833083D01*
X436840380Y-189928321D01*
%TO.C,D15*%
X437808630Y-177879464D02*
X436808630Y-177879464D01*
X436808630Y-178117559D01*
X436856250Y-178260416D01*
X436951488Y-178355654D01*
X437046726Y-178403273D01*
X437237202Y-178450892D01*
X437380059Y-178450892D01*
X437570535Y-178403273D01*
X437665773Y-178355654D01*
X437761011Y-178260416D01*
X437808630Y-178117559D01*
X437808630Y-177879464D01*
X437808630Y-179403273D02*
X437808630Y-178831845D01*
X437808630Y-179117559D02*
X436808630Y-179117559D01*
X436951488Y-179022321D01*
X437046726Y-178927083D01*
X437094345Y-178831845D01*
X436808630Y-180308035D02*
X436808630Y-179831845D01*
X437284821Y-179784226D01*
X437237202Y-179831845D01*
X437189583Y-179927083D01*
X437189583Y-180165178D01*
X437237202Y-180260416D01*
X437284821Y-180308035D01*
X437380059Y-180355654D01*
X437618154Y-180355654D01*
X437713392Y-180308035D01*
X437761011Y-180260416D01*
X437808630Y-180165178D01*
X437808630Y-179927083D01*
X437761011Y-179831845D01*
X437713392Y-179784226D01*
%TO.C,D60*%
X437808630Y-225504464D02*
X436808630Y-225504464D01*
X436808630Y-225742559D01*
X436856250Y-225885416D01*
X436951488Y-225980654D01*
X437046726Y-226028273D01*
X437237202Y-226075892D01*
X437380059Y-226075892D01*
X437570535Y-226028273D01*
X437665773Y-225980654D01*
X437761011Y-225885416D01*
X437808630Y-225742559D01*
X437808630Y-225504464D01*
X436808630Y-226933035D02*
X436808630Y-226742559D01*
X436856250Y-226647321D01*
X436903869Y-226599702D01*
X437046726Y-226504464D01*
X437237202Y-226456845D01*
X437618154Y-226456845D01*
X437713392Y-226504464D01*
X437761011Y-226552083D01*
X437808630Y-226647321D01*
X437808630Y-226837797D01*
X437761011Y-226933035D01*
X437713392Y-226980654D01*
X437618154Y-227028273D01*
X437380059Y-227028273D01*
X437284821Y-226980654D01*
X437237202Y-226933035D01*
X437189583Y-226837797D01*
X437189583Y-226647321D01*
X437237202Y-226552083D01*
X437284821Y-226504464D01*
X437380059Y-226456845D01*
X436808630Y-227647321D02*
X436808630Y-227742559D01*
X436856250Y-227837797D01*
X436903869Y-227885416D01*
X436999107Y-227933035D01*
X437189583Y-227980654D01*
X437427678Y-227980654D01*
X437618154Y-227933035D01*
X437713392Y-227885416D01*
X437761011Y-227837797D01*
X437808630Y-227742559D01*
X437808630Y-227647321D01*
X437761011Y-227552083D01*
X437713392Y-227504464D01*
X437618154Y-227456845D01*
X437427678Y-227409226D01*
X437189583Y-227409226D01*
X436999107Y-227456845D01*
X436903869Y-227504464D01*
X436856250Y-227552083D01*
X436808630Y-227647321D01*
%TO.C,D45*%
X437808630Y-204866964D02*
X436808630Y-204866964D01*
X436808630Y-205105059D01*
X436856250Y-205247916D01*
X436951488Y-205343154D01*
X437046726Y-205390773D01*
X437237202Y-205438392D01*
X437380059Y-205438392D01*
X437570535Y-205390773D01*
X437665773Y-205343154D01*
X437761011Y-205247916D01*
X437808630Y-205105059D01*
X437808630Y-204866964D01*
X437141964Y-206295535D02*
X437808630Y-206295535D01*
X436761011Y-206057440D02*
X437475297Y-205819345D01*
X437475297Y-206438392D01*
X436808630Y-207295535D02*
X436808630Y-206819345D01*
X437284821Y-206771726D01*
X437237202Y-206819345D01*
X437189583Y-206914583D01*
X437189583Y-207152678D01*
X437237202Y-207247916D01*
X437284821Y-207295535D01*
X437380059Y-207343154D01*
X437618154Y-207343154D01*
X437713392Y-207295535D01*
X437761011Y-207247916D01*
X437808630Y-207152678D01*
X437808630Y-206914583D01*
X437761011Y-206819345D01*
X437713392Y-206771726D01*
%TO.C,D29*%
X433903380Y-187785464D02*
X432903380Y-187785464D01*
X432903380Y-188023559D01*
X432951000Y-188166416D01*
X433046238Y-188261654D01*
X433141476Y-188309273D01*
X433331952Y-188356892D01*
X433474809Y-188356892D01*
X433665285Y-188309273D01*
X433760523Y-188261654D01*
X433855761Y-188166416D01*
X433903380Y-188023559D01*
X433903380Y-187785464D01*
X432998619Y-188737845D02*
X432951000Y-188785464D01*
X432903380Y-188880702D01*
X432903380Y-189118797D01*
X432951000Y-189214035D01*
X432998619Y-189261654D01*
X433093857Y-189309273D01*
X433189095Y-189309273D01*
X433331952Y-189261654D01*
X433903380Y-188690226D01*
X433903380Y-189309273D01*
X433903380Y-189785464D02*
X433903380Y-189975940D01*
X433855761Y-190071178D01*
X433808142Y-190118797D01*
X433665285Y-190214035D01*
X433474809Y-190261654D01*
X433093857Y-190261654D01*
X432998619Y-190214035D01*
X432951000Y-190166416D01*
X432903380Y-190071178D01*
X432903380Y-189880702D01*
X432951000Y-189785464D01*
X432998619Y-189737845D01*
X433093857Y-189690226D01*
X433331952Y-189690226D01*
X433427190Y-189737845D01*
X433474809Y-189785464D01*
X433522428Y-189880702D01*
X433522428Y-190071178D01*
X433474809Y-190166416D01*
X433427190Y-190214035D01*
X433331952Y-190261654D01*
%TO.C,D14*%
X437808630Y-166766964D02*
X436808630Y-166766964D01*
X436808630Y-167005059D01*
X436856250Y-167147916D01*
X436951488Y-167243154D01*
X437046726Y-167290773D01*
X437237202Y-167338392D01*
X437380059Y-167338392D01*
X437570535Y-167290773D01*
X437665773Y-167243154D01*
X437761011Y-167147916D01*
X437808630Y-167005059D01*
X437808630Y-166766964D01*
X437808630Y-168290773D02*
X437808630Y-167719345D01*
X437808630Y-168005059D02*
X436808630Y-168005059D01*
X436951488Y-167909821D01*
X437046726Y-167814583D01*
X437094345Y-167719345D01*
X437141964Y-169147916D02*
X437808630Y-169147916D01*
X436761011Y-168909821D02*
X437475297Y-168671726D01*
X437475297Y-169290773D01*
%TO.C,D59*%
X418758630Y-221535714D02*
X417758630Y-221535714D01*
X417758630Y-221773809D01*
X417806250Y-221916666D01*
X417901488Y-222011904D01*
X417996726Y-222059523D01*
X418187202Y-222107142D01*
X418330059Y-222107142D01*
X418520535Y-222059523D01*
X418615773Y-222011904D01*
X418711011Y-221916666D01*
X418758630Y-221773809D01*
X418758630Y-221535714D01*
X417758630Y-223011904D02*
X417758630Y-222535714D01*
X418234821Y-222488095D01*
X418187202Y-222535714D01*
X418139583Y-222630952D01*
X418139583Y-222869047D01*
X418187202Y-222964285D01*
X418234821Y-223011904D01*
X418330059Y-223059523D01*
X418568154Y-223059523D01*
X418663392Y-223011904D01*
X418711011Y-222964285D01*
X418758630Y-222869047D01*
X418758630Y-222630952D01*
X418711011Y-222535714D01*
X418663392Y-222488095D01*
X418758630Y-223535714D02*
X418758630Y-223726190D01*
X418711011Y-223821428D01*
X418663392Y-223869047D01*
X418520535Y-223964285D01*
X418330059Y-224011904D01*
X417949107Y-224011904D01*
X417853869Y-223964285D01*
X417806250Y-223916666D01*
X417758630Y-223821428D01*
X417758630Y-223630952D01*
X417806250Y-223535714D01*
X417853869Y-223488095D01*
X417949107Y-223440476D01*
X418187202Y-223440476D01*
X418282440Y-223488095D01*
X418330059Y-223535714D01*
X418377678Y-223630952D01*
X418377678Y-223821428D01*
X418330059Y-223916666D01*
X418282440Y-223964285D01*
X418187202Y-224011904D01*
%TO.C,D44*%
X437808630Y-215185714D02*
X436808630Y-215185714D01*
X436808630Y-215423809D01*
X436856250Y-215566666D01*
X436951488Y-215661904D01*
X437046726Y-215709523D01*
X437237202Y-215757142D01*
X437380059Y-215757142D01*
X437570535Y-215709523D01*
X437665773Y-215661904D01*
X437761011Y-215566666D01*
X437808630Y-215423809D01*
X437808630Y-215185714D01*
X437141964Y-216614285D02*
X437808630Y-216614285D01*
X436761011Y-216376190D02*
X437475297Y-216138095D01*
X437475297Y-216757142D01*
X437141964Y-217566666D02*
X437808630Y-217566666D01*
X436761011Y-217328571D02*
X437475297Y-217090476D01*
X437475297Y-217709523D01*
%TO.C,D28*%
X409233630Y-188198214D02*
X408233630Y-188198214D01*
X408233630Y-188436309D01*
X408281250Y-188579166D01*
X408376488Y-188674404D01*
X408471726Y-188722023D01*
X408662202Y-188769642D01*
X408805059Y-188769642D01*
X408995535Y-188722023D01*
X409090773Y-188674404D01*
X409186011Y-188579166D01*
X409233630Y-188436309D01*
X409233630Y-188198214D01*
X408328869Y-189150595D02*
X408281250Y-189198214D01*
X408233630Y-189293452D01*
X408233630Y-189531547D01*
X408281250Y-189626785D01*
X408328869Y-189674404D01*
X408424107Y-189722023D01*
X408519345Y-189722023D01*
X408662202Y-189674404D01*
X409233630Y-189102976D01*
X409233630Y-189722023D01*
X408662202Y-190293452D02*
X408614583Y-190198214D01*
X408566964Y-190150595D01*
X408471726Y-190102976D01*
X408424107Y-190102976D01*
X408328869Y-190150595D01*
X408281250Y-190198214D01*
X408233630Y-190293452D01*
X408233630Y-190483928D01*
X408281250Y-190579166D01*
X408328869Y-190626785D01*
X408424107Y-190674404D01*
X408471726Y-190674404D01*
X408566964Y-190626785D01*
X408614583Y-190579166D01*
X408662202Y-190483928D01*
X408662202Y-190293452D01*
X408709821Y-190198214D01*
X408757440Y-190150595D01*
X408852678Y-190102976D01*
X409043154Y-190102976D01*
X409138392Y-190150595D01*
X409186011Y-190198214D01*
X409233630Y-190293452D01*
X409233630Y-190483928D01*
X409186011Y-190579166D01*
X409138392Y-190626785D01*
X409043154Y-190674404D01*
X408852678Y-190674404D01*
X408757440Y-190626785D01*
X408709821Y-190579166D01*
X408662202Y-190483928D01*
%TO.C,D13*%
X399708630Y-170735714D02*
X398708630Y-170735714D01*
X398708630Y-170973809D01*
X398756250Y-171116666D01*
X398851488Y-171211904D01*
X398946726Y-171259523D01*
X399137202Y-171307142D01*
X399280059Y-171307142D01*
X399470535Y-171259523D01*
X399565773Y-171211904D01*
X399661011Y-171116666D01*
X399708630Y-170973809D01*
X399708630Y-170735714D01*
X399708630Y-172259523D02*
X399708630Y-171688095D01*
X399708630Y-171973809D02*
X398708630Y-171973809D01*
X398851488Y-171878571D01*
X398946726Y-171783333D01*
X398994345Y-171688095D01*
X398708630Y-172592857D02*
X398708630Y-173211904D01*
X399089583Y-172878571D01*
X399089583Y-173021428D01*
X399137202Y-173116666D01*
X399184821Y-173164285D01*
X399280059Y-173211904D01*
X399518154Y-173211904D01*
X399613392Y-173164285D01*
X399661011Y-173116666D01*
X399708630Y-173021428D01*
X399708630Y-172735714D01*
X399661011Y-172640476D01*
X399613392Y-172592857D01*
%TO.C,D58*%
X414789880Y-226298214D02*
X413789880Y-226298214D01*
X413789880Y-226536309D01*
X413837500Y-226679166D01*
X413932738Y-226774404D01*
X414027976Y-226822023D01*
X414218452Y-226869642D01*
X414361309Y-226869642D01*
X414551785Y-226822023D01*
X414647023Y-226774404D01*
X414742261Y-226679166D01*
X414789880Y-226536309D01*
X414789880Y-226298214D01*
X413789880Y-227774404D02*
X413789880Y-227298214D01*
X414266071Y-227250595D01*
X414218452Y-227298214D01*
X414170833Y-227393452D01*
X414170833Y-227631547D01*
X414218452Y-227726785D01*
X414266071Y-227774404D01*
X414361309Y-227822023D01*
X414599404Y-227822023D01*
X414694642Y-227774404D01*
X414742261Y-227726785D01*
X414789880Y-227631547D01*
X414789880Y-227393452D01*
X414742261Y-227298214D01*
X414694642Y-227250595D01*
X414218452Y-228393452D02*
X414170833Y-228298214D01*
X414123214Y-228250595D01*
X414027976Y-228202976D01*
X413980357Y-228202976D01*
X413885119Y-228250595D01*
X413837500Y-228298214D01*
X413789880Y-228393452D01*
X413789880Y-228583928D01*
X413837500Y-228679166D01*
X413885119Y-228726785D01*
X413980357Y-228774404D01*
X414027976Y-228774404D01*
X414123214Y-228726785D01*
X414170833Y-228679166D01*
X414218452Y-228583928D01*
X414218452Y-228393452D01*
X414266071Y-228298214D01*
X414313690Y-228250595D01*
X414408928Y-228202976D01*
X414599404Y-228202976D01*
X414694642Y-228250595D01*
X414742261Y-228298214D01*
X414789880Y-228393452D01*
X414789880Y-228583928D01*
X414742261Y-228679166D01*
X414694642Y-228726785D01*
X414599404Y-228774404D01*
X414408928Y-228774404D01*
X414313690Y-228726785D01*
X414266071Y-228679166D01*
X414218452Y-228583928D01*
%TO.C,D43*%
X394857230Y-207135564D02*
X393857230Y-207135564D01*
X393857230Y-207373659D01*
X393904850Y-207516516D01*
X394000088Y-207611754D01*
X394095326Y-207659373D01*
X394285802Y-207706992D01*
X394428659Y-207706992D01*
X394619135Y-207659373D01*
X394714373Y-207611754D01*
X394809611Y-207516516D01*
X394857230Y-207373659D01*
X394857230Y-207135564D01*
X394190564Y-208564135D02*
X394857230Y-208564135D01*
X393809611Y-208326040D02*
X394523897Y-208087945D01*
X394523897Y-208706992D01*
X393857230Y-208992707D02*
X393857230Y-209611754D01*
X394238183Y-209278421D01*
X394238183Y-209421278D01*
X394285802Y-209516516D01*
X394333421Y-209564135D01*
X394428659Y-209611754D01*
X394666754Y-209611754D01*
X394761992Y-209564135D01*
X394809611Y-209516516D01*
X394857230Y-209421278D01*
X394857230Y-209135564D01*
X394809611Y-209040326D01*
X394761992Y-208992707D01*
%TO.C,D27*%
X390183630Y-188198214D02*
X389183630Y-188198214D01*
X389183630Y-188436309D01*
X389231250Y-188579166D01*
X389326488Y-188674404D01*
X389421726Y-188722023D01*
X389612202Y-188769642D01*
X389755059Y-188769642D01*
X389945535Y-188722023D01*
X390040773Y-188674404D01*
X390136011Y-188579166D01*
X390183630Y-188436309D01*
X390183630Y-188198214D01*
X389278869Y-189150595D02*
X389231250Y-189198214D01*
X389183630Y-189293452D01*
X389183630Y-189531547D01*
X389231250Y-189626785D01*
X389278869Y-189674404D01*
X389374107Y-189722023D01*
X389469345Y-189722023D01*
X389612202Y-189674404D01*
X390183630Y-189102976D01*
X390183630Y-189722023D01*
X389183630Y-190055357D02*
X389183630Y-190722023D01*
X390183630Y-190293452D01*
%TO.C,D12*%
X380658630Y-169148214D02*
X379658630Y-169148214D01*
X379658630Y-169386309D01*
X379706250Y-169529166D01*
X379801488Y-169624404D01*
X379896726Y-169672023D01*
X380087202Y-169719642D01*
X380230059Y-169719642D01*
X380420535Y-169672023D01*
X380515773Y-169624404D01*
X380611011Y-169529166D01*
X380658630Y-169386309D01*
X380658630Y-169148214D01*
X380658630Y-170672023D02*
X380658630Y-170100595D01*
X380658630Y-170386309D02*
X379658630Y-170386309D01*
X379801488Y-170291071D01*
X379896726Y-170195833D01*
X379944345Y-170100595D01*
X379753869Y-171052976D02*
X379706250Y-171100595D01*
X379658630Y-171195833D01*
X379658630Y-171433928D01*
X379706250Y-171529166D01*
X379753869Y-171576785D01*
X379849107Y-171624404D01*
X379944345Y-171624404D01*
X380087202Y-171576785D01*
X380658630Y-171005357D01*
X380658630Y-171624404D01*
%TO.C,D57*%
X385421130Y-226298214D02*
X384421130Y-226298214D01*
X384421130Y-226536309D01*
X384468750Y-226679166D01*
X384563988Y-226774404D01*
X384659226Y-226822023D01*
X384849702Y-226869642D01*
X384992559Y-226869642D01*
X385183035Y-226822023D01*
X385278273Y-226774404D01*
X385373511Y-226679166D01*
X385421130Y-226536309D01*
X385421130Y-226298214D01*
X384421130Y-227774404D02*
X384421130Y-227298214D01*
X384897321Y-227250595D01*
X384849702Y-227298214D01*
X384802083Y-227393452D01*
X384802083Y-227631547D01*
X384849702Y-227726785D01*
X384897321Y-227774404D01*
X384992559Y-227822023D01*
X385230654Y-227822023D01*
X385325892Y-227774404D01*
X385373511Y-227726785D01*
X385421130Y-227631547D01*
X385421130Y-227393452D01*
X385373511Y-227298214D01*
X385325892Y-227250595D01*
X384421130Y-228155357D02*
X384421130Y-228822023D01*
X385421130Y-228393452D01*
%TO.C,D42*%
X375896130Y-207097464D02*
X374896130Y-207097464D01*
X374896130Y-207335559D01*
X374943750Y-207478416D01*
X375038988Y-207573654D01*
X375134226Y-207621273D01*
X375324702Y-207668892D01*
X375467559Y-207668892D01*
X375658035Y-207621273D01*
X375753273Y-207573654D01*
X375848511Y-207478416D01*
X375896130Y-207335559D01*
X375896130Y-207097464D01*
X375229464Y-208526035D02*
X375896130Y-208526035D01*
X374848511Y-208287940D02*
X375562797Y-208049845D01*
X375562797Y-208668892D01*
X374991369Y-209002226D02*
X374943750Y-209049845D01*
X374896130Y-209145083D01*
X374896130Y-209383178D01*
X374943750Y-209478416D01*
X374991369Y-209526035D01*
X375086607Y-209573654D01*
X375181845Y-209573654D01*
X375324702Y-209526035D01*
X375896130Y-208954607D01*
X375896130Y-209573654D01*
%TO.C,D26*%
X371133630Y-188198214D02*
X370133630Y-188198214D01*
X370133630Y-188436309D01*
X370181250Y-188579166D01*
X370276488Y-188674404D01*
X370371726Y-188722023D01*
X370562202Y-188769642D01*
X370705059Y-188769642D01*
X370895535Y-188722023D01*
X370990773Y-188674404D01*
X371086011Y-188579166D01*
X371133630Y-188436309D01*
X371133630Y-188198214D01*
X370228869Y-189150595D02*
X370181250Y-189198214D01*
X370133630Y-189293452D01*
X370133630Y-189531547D01*
X370181250Y-189626785D01*
X370228869Y-189674404D01*
X370324107Y-189722023D01*
X370419345Y-189722023D01*
X370562202Y-189674404D01*
X371133630Y-189102976D01*
X371133630Y-189722023D01*
X370133630Y-190579166D02*
X370133630Y-190388690D01*
X370181250Y-190293452D01*
X370228869Y-190245833D01*
X370371726Y-190150595D01*
X370562202Y-190102976D01*
X370943154Y-190102976D01*
X371038392Y-190150595D01*
X371086011Y-190198214D01*
X371133630Y-190293452D01*
X371133630Y-190483928D01*
X371086011Y-190579166D01*
X371038392Y-190626785D01*
X370943154Y-190674404D01*
X370705059Y-190674404D01*
X370609821Y-190626785D01*
X370562202Y-190579166D01*
X370514583Y-190483928D01*
X370514583Y-190293452D01*
X370562202Y-190198214D01*
X370609821Y-190150595D01*
X370705059Y-190102976D01*
%TO.C,D11*%
X361608630Y-169148214D02*
X360608630Y-169148214D01*
X360608630Y-169386309D01*
X360656250Y-169529166D01*
X360751488Y-169624404D01*
X360846726Y-169672023D01*
X361037202Y-169719642D01*
X361180059Y-169719642D01*
X361370535Y-169672023D01*
X361465773Y-169624404D01*
X361561011Y-169529166D01*
X361608630Y-169386309D01*
X361608630Y-169148214D01*
X361608630Y-170672023D02*
X361608630Y-170100595D01*
X361608630Y-170386309D02*
X360608630Y-170386309D01*
X360751488Y-170291071D01*
X360846726Y-170195833D01*
X360894345Y-170100595D01*
X361608630Y-171624404D02*
X361608630Y-171052976D01*
X361608630Y-171338690D02*
X360608630Y-171338690D01*
X360751488Y-171243452D01*
X360846726Y-171148214D01*
X360894345Y-171052976D01*
%TO.C,D56*%
X366371130Y-226298214D02*
X365371130Y-226298214D01*
X365371130Y-226536309D01*
X365418750Y-226679166D01*
X365513988Y-226774404D01*
X365609226Y-226822023D01*
X365799702Y-226869642D01*
X365942559Y-226869642D01*
X366133035Y-226822023D01*
X366228273Y-226774404D01*
X366323511Y-226679166D01*
X366371130Y-226536309D01*
X366371130Y-226298214D01*
X365371130Y-227774404D02*
X365371130Y-227298214D01*
X365847321Y-227250595D01*
X365799702Y-227298214D01*
X365752083Y-227393452D01*
X365752083Y-227631547D01*
X365799702Y-227726785D01*
X365847321Y-227774404D01*
X365942559Y-227822023D01*
X366180654Y-227822023D01*
X366275892Y-227774404D01*
X366323511Y-227726785D01*
X366371130Y-227631547D01*
X366371130Y-227393452D01*
X366323511Y-227298214D01*
X366275892Y-227250595D01*
X365371130Y-228679166D02*
X365371130Y-228488690D01*
X365418750Y-228393452D01*
X365466369Y-228345833D01*
X365609226Y-228250595D01*
X365799702Y-228202976D01*
X366180654Y-228202976D01*
X366275892Y-228250595D01*
X366323511Y-228298214D01*
X366371130Y-228393452D01*
X366371130Y-228583928D01*
X366323511Y-228679166D01*
X366275892Y-228726785D01*
X366180654Y-228774404D01*
X365942559Y-228774404D01*
X365847321Y-228726785D01*
X365799702Y-228679166D01*
X365752083Y-228583928D01*
X365752083Y-228393452D01*
X365799702Y-228298214D01*
X365847321Y-228250595D01*
X365942559Y-228202976D01*
%TO.C,D41*%
X356846130Y-207248214D02*
X355846130Y-207248214D01*
X355846130Y-207486309D01*
X355893750Y-207629166D01*
X355988988Y-207724404D01*
X356084226Y-207772023D01*
X356274702Y-207819642D01*
X356417559Y-207819642D01*
X356608035Y-207772023D01*
X356703273Y-207724404D01*
X356798511Y-207629166D01*
X356846130Y-207486309D01*
X356846130Y-207248214D01*
X356179464Y-208676785D02*
X356846130Y-208676785D01*
X355798511Y-208438690D02*
X356512797Y-208200595D01*
X356512797Y-208819642D01*
X356846130Y-209724404D02*
X356846130Y-209152976D01*
X356846130Y-209438690D02*
X355846130Y-209438690D01*
X355988988Y-209343452D01*
X356084226Y-209248214D01*
X356131845Y-209152976D01*
%TO.C,D25*%
X352083630Y-188198214D02*
X351083630Y-188198214D01*
X351083630Y-188436309D01*
X351131250Y-188579166D01*
X351226488Y-188674404D01*
X351321726Y-188722023D01*
X351512202Y-188769642D01*
X351655059Y-188769642D01*
X351845535Y-188722023D01*
X351940773Y-188674404D01*
X352036011Y-188579166D01*
X352083630Y-188436309D01*
X352083630Y-188198214D01*
X351178869Y-189150595D02*
X351131250Y-189198214D01*
X351083630Y-189293452D01*
X351083630Y-189531547D01*
X351131250Y-189626785D01*
X351178869Y-189674404D01*
X351274107Y-189722023D01*
X351369345Y-189722023D01*
X351512202Y-189674404D01*
X352083630Y-189102976D01*
X352083630Y-189722023D01*
X351083630Y-190626785D02*
X351083630Y-190150595D01*
X351559821Y-190102976D01*
X351512202Y-190150595D01*
X351464583Y-190245833D01*
X351464583Y-190483928D01*
X351512202Y-190579166D01*
X351559821Y-190626785D01*
X351655059Y-190674404D01*
X351893154Y-190674404D01*
X351988392Y-190626785D01*
X352036011Y-190579166D01*
X352083630Y-190483928D01*
X352083630Y-190245833D01*
X352036011Y-190150595D01*
X351988392Y-190102976D01*
%TO.C,D10*%
X342558630Y-169148214D02*
X341558630Y-169148214D01*
X341558630Y-169386309D01*
X341606250Y-169529166D01*
X341701488Y-169624404D01*
X341796726Y-169672023D01*
X341987202Y-169719642D01*
X342130059Y-169719642D01*
X342320535Y-169672023D01*
X342415773Y-169624404D01*
X342511011Y-169529166D01*
X342558630Y-169386309D01*
X342558630Y-169148214D01*
X342558630Y-170672023D02*
X342558630Y-170100595D01*
X342558630Y-170386309D02*
X341558630Y-170386309D01*
X341701488Y-170291071D01*
X341796726Y-170195833D01*
X341844345Y-170100595D01*
X341558630Y-171291071D02*
X341558630Y-171386309D01*
X341606250Y-171481547D01*
X341653869Y-171529166D01*
X341749107Y-171576785D01*
X341939583Y-171624404D01*
X342177678Y-171624404D01*
X342368154Y-171576785D01*
X342463392Y-171529166D01*
X342511011Y-171481547D01*
X342558630Y-171386309D01*
X342558630Y-171291071D01*
X342511011Y-171195833D01*
X342463392Y-171148214D01*
X342368154Y-171100595D01*
X342177678Y-171052976D01*
X341939583Y-171052976D01*
X341749107Y-171100595D01*
X341653869Y-171148214D01*
X341606250Y-171195833D01*
X341558630Y-171291071D01*
%TO.C,D70*%
X437808630Y-245348214D02*
X436808630Y-245348214D01*
X436808630Y-245586309D01*
X436856250Y-245729166D01*
X436951488Y-245824404D01*
X437046726Y-245872023D01*
X437237202Y-245919642D01*
X437380059Y-245919642D01*
X437570535Y-245872023D01*
X437665773Y-245824404D01*
X437761011Y-245729166D01*
X437808630Y-245586309D01*
X437808630Y-245348214D01*
X436808630Y-246252976D02*
X436808630Y-246919642D01*
X437808630Y-246491071D01*
X436808630Y-247491071D02*
X436808630Y-247586309D01*
X436856250Y-247681547D01*
X436903869Y-247729166D01*
X436999107Y-247776785D01*
X437189583Y-247824404D01*
X437427678Y-247824404D01*
X437618154Y-247776785D01*
X437713392Y-247729166D01*
X437761011Y-247681547D01*
X437808630Y-247586309D01*
X437808630Y-247491071D01*
X437761011Y-247395833D01*
X437713392Y-247348214D01*
X437618154Y-247300595D01*
X437427678Y-247252976D01*
X437189583Y-247252976D01*
X436999107Y-247300595D01*
X436903869Y-247348214D01*
X436856250Y-247395833D01*
X436808630Y-247491071D01*
%TO.C,D55*%
X347321130Y-226298214D02*
X346321130Y-226298214D01*
X346321130Y-226536309D01*
X346368750Y-226679166D01*
X346463988Y-226774404D01*
X346559226Y-226822023D01*
X346749702Y-226869642D01*
X346892559Y-226869642D01*
X347083035Y-226822023D01*
X347178273Y-226774404D01*
X347273511Y-226679166D01*
X347321130Y-226536309D01*
X347321130Y-226298214D01*
X346321130Y-227774404D02*
X346321130Y-227298214D01*
X346797321Y-227250595D01*
X346749702Y-227298214D01*
X346702083Y-227393452D01*
X346702083Y-227631547D01*
X346749702Y-227726785D01*
X346797321Y-227774404D01*
X346892559Y-227822023D01*
X347130654Y-227822023D01*
X347225892Y-227774404D01*
X347273511Y-227726785D01*
X347321130Y-227631547D01*
X347321130Y-227393452D01*
X347273511Y-227298214D01*
X347225892Y-227250595D01*
X346321130Y-228726785D02*
X346321130Y-228250595D01*
X346797321Y-228202976D01*
X346749702Y-228250595D01*
X346702083Y-228345833D01*
X346702083Y-228583928D01*
X346749702Y-228679166D01*
X346797321Y-228726785D01*
X346892559Y-228774404D01*
X347130654Y-228774404D01*
X347225892Y-228726785D01*
X347273511Y-228679166D01*
X347321130Y-228583928D01*
X347321130Y-228345833D01*
X347273511Y-228250595D01*
X347225892Y-228202976D01*
%TO.C,D40*%
X337796130Y-207248214D02*
X336796130Y-207248214D01*
X336796130Y-207486309D01*
X336843750Y-207629166D01*
X336938988Y-207724404D01*
X337034226Y-207772023D01*
X337224702Y-207819642D01*
X337367559Y-207819642D01*
X337558035Y-207772023D01*
X337653273Y-207724404D01*
X337748511Y-207629166D01*
X337796130Y-207486309D01*
X337796130Y-207248214D01*
X337129464Y-208676785D02*
X337796130Y-208676785D01*
X336748511Y-208438690D02*
X337462797Y-208200595D01*
X337462797Y-208819642D01*
X336796130Y-209391071D02*
X336796130Y-209486309D01*
X336843750Y-209581547D01*
X336891369Y-209629166D01*
X336986607Y-209676785D01*
X337177083Y-209724404D01*
X337415178Y-209724404D01*
X337605654Y-209676785D01*
X337700892Y-209629166D01*
X337748511Y-209581547D01*
X337796130Y-209486309D01*
X337796130Y-209391071D01*
X337748511Y-209295833D01*
X337700892Y-209248214D01*
X337605654Y-209200595D01*
X337415178Y-209152976D01*
X337177083Y-209152976D01*
X336986607Y-209200595D01*
X336891369Y-209248214D01*
X336843750Y-209295833D01*
X336796130Y-209391071D01*
%TO.C,D24*%
X333033630Y-188198214D02*
X332033630Y-188198214D01*
X332033630Y-188436309D01*
X332081250Y-188579166D01*
X332176488Y-188674404D01*
X332271726Y-188722023D01*
X332462202Y-188769642D01*
X332605059Y-188769642D01*
X332795535Y-188722023D01*
X332890773Y-188674404D01*
X332986011Y-188579166D01*
X333033630Y-188436309D01*
X333033630Y-188198214D01*
X332128869Y-189150595D02*
X332081250Y-189198214D01*
X332033630Y-189293452D01*
X332033630Y-189531547D01*
X332081250Y-189626785D01*
X332128869Y-189674404D01*
X332224107Y-189722023D01*
X332319345Y-189722023D01*
X332462202Y-189674404D01*
X333033630Y-189102976D01*
X333033630Y-189722023D01*
X332366964Y-190579166D02*
X333033630Y-190579166D01*
X331986011Y-190341071D02*
X332700297Y-190102976D01*
X332700297Y-190722023D01*
%TO.C,D9*%
X323508630Y-169918154D02*
X322508630Y-169918154D01*
X322508630Y-170156250D01*
X322556250Y-170299107D01*
X322651488Y-170394345D01*
X322746726Y-170441964D01*
X322937202Y-170489583D01*
X323080059Y-170489583D01*
X323270535Y-170441964D01*
X323365773Y-170394345D01*
X323461011Y-170299107D01*
X323508630Y-170156250D01*
X323508630Y-169918154D01*
X323508630Y-170965773D02*
X323508630Y-171156250D01*
X323461011Y-171251488D01*
X323413392Y-171299107D01*
X323270535Y-171394345D01*
X323080059Y-171441964D01*
X322699107Y-171441964D01*
X322603869Y-171394345D01*
X322556250Y-171346726D01*
X322508630Y-171251488D01*
X322508630Y-171061011D01*
X322556250Y-170965773D01*
X322603869Y-170918154D01*
X322699107Y-170870535D01*
X322937202Y-170870535D01*
X323032440Y-170918154D01*
X323080059Y-170965773D01*
X323127678Y-171061011D01*
X323127678Y-171251488D01*
X323080059Y-171346726D01*
X323032440Y-171394345D01*
X322937202Y-171441964D01*
%TO.C,D69*%
X418758630Y-233441964D02*
X417758630Y-233441964D01*
X417758630Y-233680059D01*
X417806250Y-233822916D01*
X417901488Y-233918154D01*
X417996726Y-233965773D01*
X418187202Y-234013392D01*
X418330059Y-234013392D01*
X418520535Y-233965773D01*
X418615773Y-233918154D01*
X418711011Y-233822916D01*
X418758630Y-233680059D01*
X418758630Y-233441964D01*
X417758630Y-234870535D02*
X417758630Y-234680059D01*
X417806250Y-234584821D01*
X417853869Y-234537202D01*
X417996726Y-234441964D01*
X418187202Y-234394345D01*
X418568154Y-234394345D01*
X418663392Y-234441964D01*
X418711011Y-234489583D01*
X418758630Y-234584821D01*
X418758630Y-234775297D01*
X418711011Y-234870535D01*
X418663392Y-234918154D01*
X418568154Y-234965773D01*
X418330059Y-234965773D01*
X418234821Y-234918154D01*
X418187202Y-234870535D01*
X418139583Y-234775297D01*
X418139583Y-234584821D01*
X418187202Y-234489583D01*
X418234821Y-234441964D01*
X418330059Y-234394345D01*
X418758630Y-235441964D02*
X418758630Y-235632440D01*
X418711011Y-235727678D01*
X418663392Y-235775297D01*
X418520535Y-235870535D01*
X418330059Y-235918154D01*
X417949107Y-235918154D01*
X417853869Y-235870535D01*
X417806250Y-235822916D01*
X417758630Y-235727678D01*
X417758630Y-235537202D01*
X417806250Y-235441964D01*
X417853869Y-235394345D01*
X417949107Y-235346726D01*
X418187202Y-235346726D01*
X418282440Y-235394345D01*
X418330059Y-235441964D01*
X418377678Y-235537202D01*
X418377678Y-235727678D01*
X418330059Y-235822916D01*
X418282440Y-235870535D01*
X418187202Y-235918154D01*
%TO.C,D54*%
X328271130Y-226298214D02*
X327271130Y-226298214D01*
X327271130Y-226536309D01*
X327318750Y-226679166D01*
X327413988Y-226774404D01*
X327509226Y-226822023D01*
X327699702Y-226869642D01*
X327842559Y-226869642D01*
X328033035Y-226822023D01*
X328128273Y-226774404D01*
X328223511Y-226679166D01*
X328271130Y-226536309D01*
X328271130Y-226298214D01*
X327271130Y-227774404D02*
X327271130Y-227298214D01*
X327747321Y-227250595D01*
X327699702Y-227298214D01*
X327652083Y-227393452D01*
X327652083Y-227631547D01*
X327699702Y-227726785D01*
X327747321Y-227774404D01*
X327842559Y-227822023D01*
X328080654Y-227822023D01*
X328175892Y-227774404D01*
X328223511Y-227726785D01*
X328271130Y-227631547D01*
X328271130Y-227393452D01*
X328223511Y-227298214D01*
X328175892Y-227250595D01*
X327604464Y-228679166D02*
X328271130Y-228679166D01*
X327223511Y-228441071D02*
X327937797Y-228202976D01*
X327937797Y-228822023D01*
%TO.C,D39*%
X318746130Y-207248214D02*
X317746130Y-207248214D01*
X317746130Y-207486309D01*
X317793750Y-207629166D01*
X317888988Y-207724404D01*
X317984226Y-207772023D01*
X318174702Y-207819642D01*
X318317559Y-207819642D01*
X318508035Y-207772023D01*
X318603273Y-207724404D01*
X318698511Y-207629166D01*
X318746130Y-207486309D01*
X318746130Y-207248214D01*
X317746130Y-208152976D02*
X317746130Y-208772023D01*
X318127083Y-208438690D01*
X318127083Y-208581547D01*
X318174702Y-208676785D01*
X318222321Y-208724404D01*
X318317559Y-208772023D01*
X318555654Y-208772023D01*
X318650892Y-208724404D01*
X318698511Y-208676785D01*
X318746130Y-208581547D01*
X318746130Y-208295833D01*
X318698511Y-208200595D01*
X318650892Y-208152976D01*
X318746130Y-209248214D02*
X318746130Y-209438690D01*
X318698511Y-209533928D01*
X318650892Y-209581547D01*
X318508035Y-209676785D01*
X318317559Y-209724404D01*
X317936607Y-209724404D01*
X317841369Y-209676785D01*
X317793750Y-209629166D01*
X317746130Y-209533928D01*
X317746130Y-209343452D01*
X317793750Y-209248214D01*
X317841369Y-209200595D01*
X317936607Y-209152976D01*
X318174702Y-209152976D01*
X318269940Y-209200595D01*
X318317559Y-209248214D01*
X318365178Y-209343452D01*
X318365178Y-209533928D01*
X318317559Y-209629166D01*
X318269940Y-209676785D01*
X318174702Y-209724404D01*
%TO.C,D23*%
X313983630Y-188198214D02*
X312983630Y-188198214D01*
X312983630Y-188436309D01*
X313031250Y-188579166D01*
X313126488Y-188674404D01*
X313221726Y-188722023D01*
X313412202Y-188769642D01*
X313555059Y-188769642D01*
X313745535Y-188722023D01*
X313840773Y-188674404D01*
X313936011Y-188579166D01*
X313983630Y-188436309D01*
X313983630Y-188198214D01*
X313078869Y-189150595D02*
X313031250Y-189198214D01*
X312983630Y-189293452D01*
X312983630Y-189531547D01*
X313031250Y-189626785D01*
X313078869Y-189674404D01*
X313174107Y-189722023D01*
X313269345Y-189722023D01*
X313412202Y-189674404D01*
X313983630Y-189102976D01*
X313983630Y-189722023D01*
X312983630Y-190055357D02*
X312983630Y-190674404D01*
X313364583Y-190341071D01*
X313364583Y-190483928D01*
X313412202Y-190579166D01*
X313459821Y-190626785D01*
X313555059Y-190674404D01*
X313793154Y-190674404D01*
X313888392Y-190626785D01*
X313936011Y-190579166D01*
X313983630Y-190483928D01*
X313983630Y-190198214D01*
X313936011Y-190102976D01*
X313888392Y-190055357D01*
%TO.C,D8*%
X304458630Y-169918154D02*
X303458630Y-169918154D01*
X303458630Y-170156250D01*
X303506250Y-170299107D01*
X303601488Y-170394345D01*
X303696726Y-170441964D01*
X303887202Y-170489583D01*
X304030059Y-170489583D01*
X304220535Y-170441964D01*
X304315773Y-170394345D01*
X304411011Y-170299107D01*
X304458630Y-170156250D01*
X304458630Y-169918154D01*
X303887202Y-171061011D02*
X303839583Y-170965773D01*
X303791964Y-170918154D01*
X303696726Y-170870535D01*
X303649107Y-170870535D01*
X303553869Y-170918154D01*
X303506250Y-170965773D01*
X303458630Y-171061011D01*
X303458630Y-171251488D01*
X303506250Y-171346726D01*
X303553869Y-171394345D01*
X303649107Y-171441964D01*
X303696726Y-171441964D01*
X303791964Y-171394345D01*
X303839583Y-171346726D01*
X303887202Y-171251488D01*
X303887202Y-171061011D01*
X303934821Y-170965773D01*
X303982440Y-170918154D01*
X304077678Y-170870535D01*
X304268154Y-170870535D01*
X304363392Y-170918154D01*
X304411011Y-170965773D01*
X304458630Y-171061011D01*
X304458630Y-171251488D01*
X304411011Y-171346726D01*
X304363392Y-171394345D01*
X304268154Y-171441964D01*
X304077678Y-171441964D01*
X303982440Y-171394345D01*
X303934821Y-171346726D01*
X303887202Y-171251488D01*
%TO.C,D68*%
X418758630Y-245348214D02*
X417758630Y-245348214D01*
X417758630Y-245586309D01*
X417806250Y-245729166D01*
X417901488Y-245824404D01*
X417996726Y-245872023D01*
X418187202Y-245919642D01*
X418330059Y-245919642D01*
X418520535Y-245872023D01*
X418615773Y-245824404D01*
X418711011Y-245729166D01*
X418758630Y-245586309D01*
X418758630Y-245348214D01*
X417758630Y-246776785D02*
X417758630Y-246586309D01*
X417806250Y-246491071D01*
X417853869Y-246443452D01*
X417996726Y-246348214D01*
X418187202Y-246300595D01*
X418568154Y-246300595D01*
X418663392Y-246348214D01*
X418711011Y-246395833D01*
X418758630Y-246491071D01*
X418758630Y-246681547D01*
X418711011Y-246776785D01*
X418663392Y-246824404D01*
X418568154Y-246872023D01*
X418330059Y-246872023D01*
X418234821Y-246824404D01*
X418187202Y-246776785D01*
X418139583Y-246681547D01*
X418139583Y-246491071D01*
X418187202Y-246395833D01*
X418234821Y-246348214D01*
X418330059Y-246300595D01*
X418187202Y-247443452D02*
X418139583Y-247348214D01*
X418091964Y-247300595D01*
X417996726Y-247252976D01*
X417949107Y-247252976D01*
X417853869Y-247300595D01*
X417806250Y-247348214D01*
X417758630Y-247443452D01*
X417758630Y-247633928D01*
X417806250Y-247729166D01*
X417853869Y-247776785D01*
X417949107Y-247824404D01*
X417996726Y-247824404D01*
X418091964Y-247776785D01*
X418139583Y-247729166D01*
X418187202Y-247633928D01*
X418187202Y-247443452D01*
X418234821Y-247348214D01*
X418282440Y-247300595D01*
X418377678Y-247252976D01*
X418568154Y-247252976D01*
X418663392Y-247300595D01*
X418711011Y-247348214D01*
X418758630Y-247443452D01*
X418758630Y-247633928D01*
X418711011Y-247729166D01*
X418663392Y-247776785D01*
X418568154Y-247824404D01*
X418377678Y-247824404D01*
X418282440Y-247776785D01*
X418234821Y-247729166D01*
X418187202Y-247633928D01*
%TO.C,D53*%
X309221130Y-226298214D02*
X308221130Y-226298214D01*
X308221130Y-226536309D01*
X308268750Y-226679166D01*
X308363988Y-226774404D01*
X308459226Y-226822023D01*
X308649702Y-226869642D01*
X308792559Y-226869642D01*
X308983035Y-226822023D01*
X309078273Y-226774404D01*
X309173511Y-226679166D01*
X309221130Y-226536309D01*
X309221130Y-226298214D01*
X308221130Y-227774404D02*
X308221130Y-227298214D01*
X308697321Y-227250595D01*
X308649702Y-227298214D01*
X308602083Y-227393452D01*
X308602083Y-227631547D01*
X308649702Y-227726785D01*
X308697321Y-227774404D01*
X308792559Y-227822023D01*
X309030654Y-227822023D01*
X309125892Y-227774404D01*
X309173511Y-227726785D01*
X309221130Y-227631547D01*
X309221130Y-227393452D01*
X309173511Y-227298214D01*
X309125892Y-227250595D01*
X308221130Y-228155357D02*
X308221130Y-228774404D01*
X308602083Y-228441071D01*
X308602083Y-228583928D01*
X308649702Y-228679166D01*
X308697321Y-228726785D01*
X308792559Y-228774404D01*
X309030654Y-228774404D01*
X309125892Y-228726785D01*
X309173511Y-228679166D01*
X309221130Y-228583928D01*
X309221130Y-228298214D01*
X309173511Y-228202976D01*
X309125892Y-228155357D01*
%TO.C,D38*%
X299696130Y-207248214D02*
X298696130Y-207248214D01*
X298696130Y-207486309D01*
X298743750Y-207629166D01*
X298838988Y-207724404D01*
X298934226Y-207772023D01*
X299124702Y-207819642D01*
X299267559Y-207819642D01*
X299458035Y-207772023D01*
X299553273Y-207724404D01*
X299648511Y-207629166D01*
X299696130Y-207486309D01*
X299696130Y-207248214D01*
X298696130Y-208152976D02*
X298696130Y-208772023D01*
X299077083Y-208438690D01*
X299077083Y-208581547D01*
X299124702Y-208676785D01*
X299172321Y-208724404D01*
X299267559Y-208772023D01*
X299505654Y-208772023D01*
X299600892Y-208724404D01*
X299648511Y-208676785D01*
X299696130Y-208581547D01*
X299696130Y-208295833D01*
X299648511Y-208200595D01*
X299600892Y-208152976D01*
X299124702Y-209343452D02*
X299077083Y-209248214D01*
X299029464Y-209200595D01*
X298934226Y-209152976D01*
X298886607Y-209152976D01*
X298791369Y-209200595D01*
X298743750Y-209248214D01*
X298696130Y-209343452D01*
X298696130Y-209533928D01*
X298743750Y-209629166D01*
X298791369Y-209676785D01*
X298886607Y-209724404D01*
X298934226Y-209724404D01*
X299029464Y-209676785D01*
X299077083Y-209629166D01*
X299124702Y-209533928D01*
X299124702Y-209343452D01*
X299172321Y-209248214D01*
X299219940Y-209200595D01*
X299315178Y-209152976D01*
X299505654Y-209152976D01*
X299600892Y-209200595D01*
X299648511Y-209248214D01*
X299696130Y-209343452D01*
X299696130Y-209533928D01*
X299648511Y-209629166D01*
X299600892Y-209676785D01*
X299505654Y-209724404D01*
X299315178Y-209724404D01*
X299219940Y-209676785D01*
X299172321Y-209629166D01*
X299124702Y-209533928D01*
%TO.C,D22*%
X294933630Y-188198214D02*
X293933630Y-188198214D01*
X293933630Y-188436309D01*
X293981250Y-188579166D01*
X294076488Y-188674404D01*
X294171726Y-188722023D01*
X294362202Y-188769642D01*
X294505059Y-188769642D01*
X294695535Y-188722023D01*
X294790773Y-188674404D01*
X294886011Y-188579166D01*
X294933630Y-188436309D01*
X294933630Y-188198214D01*
X294028869Y-189150595D02*
X293981250Y-189198214D01*
X293933630Y-189293452D01*
X293933630Y-189531547D01*
X293981250Y-189626785D01*
X294028869Y-189674404D01*
X294124107Y-189722023D01*
X294219345Y-189722023D01*
X294362202Y-189674404D01*
X294933630Y-189102976D01*
X294933630Y-189722023D01*
X294028869Y-190102976D02*
X293981250Y-190150595D01*
X293933630Y-190245833D01*
X293933630Y-190483928D01*
X293981250Y-190579166D01*
X294028869Y-190626785D01*
X294124107Y-190674404D01*
X294219345Y-190674404D01*
X294362202Y-190626785D01*
X294933630Y-190055357D01*
X294933630Y-190674404D01*
%TO.C,D7*%
X285408630Y-169918154D02*
X284408630Y-169918154D01*
X284408630Y-170156250D01*
X284456250Y-170299107D01*
X284551488Y-170394345D01*
X284646726Y-170441964D01*
X284837202Y-170489583D01*
X284980059Y-170489583D01*
X285170535Y-170441964D01*
X285265773Y-170394345D01*
X285361011Y-170299107D01*
X285408630Y-170156250D01*
X285408630Y-169918154D01*
X284408630Y-170822916D02*
X284408630Y-171489583D01*
X285408630Y-171061011D01*
%TO.C,D66*%
X380658630Y-245348214D02*
X379658630Y-245348214D01*
X379658630Y-245586309D01*
X379706250Y-245729166D01*
X379801488Y-245824404D01*
X379896726Y-245872023D01*
X380087202Y-245919642D01*
X380230059Y-245919642D01*
X380420535Y-245872023D01*
X380515773Y-245824404D01*
X380611011Y-245729166D01*
X380658630Y-245586309D01*
X380658630Y-245348214D01*
X379658630Y-246776785D02*
X379658630Y-246586309D01*
X379706250Y-246491071D01*
X379753869Y-246443452D01*
X379896726Y-246348214D01*
X380087202Y-246300595D01*
X380468154Y-246300595D01*
X380563392Y-246348214D01*
X380611011Y-246395833D01*
X380658630Y-246491071D01*
X380658630Y-246681547D01*
X380611011Y-246776785D01*
X380563392Y-246824404D01*
X380468154Y-246872023D01*
X380230059Y-246872023D01*
X380134821Y-246824404D01*
X380087202Y-246776785D01*
X380039583Y-246681547D01*
X380039583Y-246491071D01*
X380087202Y-246395833D01*
X380134821Y-246348214D01*
X380230059Y-246300595D01*
X379658630Y-247729166D02*
X379658630Y-247538690D01*
X379706250Y-247443452D01*
X379753869Y-247395833D01*
X379896726Y-247300595D01*
X380087202Y-247252976D01*
X380468154Y-247252976D01*
X380563392Y-247300595D01*
X380611011Y-247348214D01*
X380658630Y-247443452D01*
X380658630Y-247633928D01*
X380611011Y-247729166D01*
X380563392Y-247776785D01*
X380468154Y-247824404D01*
X380230059Y-247824404D01*
X380134821Y-247776785D01*
X380087202Y-247729166D01*
X380039583Y-247633928D01*
X380039583Y-247443452D01*
X380087202Y-247348214D01*
X380134821Y-247300595D01*
X380230059Y-247252976D01*
%TO.C,D52*%
X290171130Y-226298214D02*
X289171130Y-226298214D01*
X289171130Y-226536309D01*
X289218750Y-226679166D01*
X289313988Y-226774404D01*
X289409226Y-226822023D01*
X289599702Y-226869642D01*
X289742559Y-226869642D01*
X289933035Y-226822023D01*
X290028273Y-226774404D01*
X290123511Y-226679166D01*
X290171130Y-226536309D01*
X290171130Y-226298214D01*
X289171130Y-227774404D02*
X289171130Y-227298214D01*
X289647321Y-227250595D01*
X289599702Y-227298214D01*
X289552083Y-227393452D01*
X289552083Y-227631547D01*
X289599702Y-227726785D01*
X289647321Y-227774404D01*
X289742559Y-227822023D01*
X289980654Y-227822023D01*
X290075892Y-227774404D01*
X290123511Y-227726785D01*
X290171130Y-227631547D01*
X290171130Y-227393452D01*
X290123511Y-227298214D01*
X290075892Y-227250595D01*
X289266369Y-228202976D02*
X289218750Y-228250595D01*
X289171130Y-228345833D01*
X289171130Y-228583928D01*
X289218750Y-228679166D01*
X289266369Y-228726785D01*
X289361607Y-228774404D01*
X289456845Y-228774404D01*
X289599702Y-228726785D01*
X290171130Y-228155357D01*
X290171130Y-228774404D01*
%TO.C,D37*%
X280646130Y-207248214D02*
X279646130Y-207248214D01*
X279646130Y-207486309D01*
X279693750Y-207629166D01*
X279788988Y-207724404D01*
X279884226Y-207772023D01*
X280074702Y-207819642D01*
X280217559Y-207819642D01*
X280408035Y-207772023D01*
X280503273Y-207724404D01*
X280598511Y-207629166D01*
X280646130Y-207486309D01*
X280646130Y-207248214D01*
X279646130Y-208152976D02*
X279646130Y-208772023D01*
X280027083Y-208438690D01*
X280027083Y-208581547D01*
X280074702Y-208676785D01*
X280122321Y-208724404D01*
X280217559Y-208772023D01*
X280455654Y-208772023D01*
X280550892Y-208724404D01*
X280598511Y-208676785D01*
X280646130Y-208581547D01*
X280646130Y-208295833D01*
X280598511Y-208200595D01*
X280550892Y-208152976D01*
X279646130Y-209105357D02*
X279646130Y-209772023D01*
X280646130Y-209343452D01*
%TO.C,D21*%
X275883630Y-188198214D02*
X274883630Y-188198214D01*
X274883630Y-188436309D01*
X274931250Y-188579166D01*
X275026488Y-188674404D01*
X275121726Y-188722023D01*
X275312202Y-188769642D01*
X275455059Y-188769642D01*
X275645535Y-188722023D01*
X275740773Y-188674404D01*
X275836011Y-188579166D01*
X275883630Y-188436309D01*
X275883630Y-188198214D01*
X274978869Y-189150595D02*
X274931250Y-189198214D01*
X274883630Y-189293452D01*
X274883630Y-189531547D01*
X274931250Y-189626785D01*
X274978869Y-189674404D01*
X275074107Y-189722023D01*
X275169345Y-189722023D01*
X275312202Y-189674404D01*
X275883630Y-189102976D01*
X275883630Y-189722023D01*
X275883630Y-190674404D02*
X275883630Y-190102976D01*
X275883630Y-190388690D02*
X274883630Y-190388690D01*
X275026488Y-190293452D01*
X275121726Y-190198214D01*
X275169345Y-190102976D01*
%TO.C,D6*%
X266358630Y-169918154D02*
X265358630Y-169918154D01*
X265358630Y-170156250D01*
X265406250Y-170299107D01*
X265501488Y-170394345D01*
X265596726Y-170441964D01*
X265787202Y-170489583D01*
X265930059Y-170489583D01*
X266120535Y-170441964D01*
X266215773Y-170394345D01*
X266311011Y-170299107D01*
X266358630Y-170156250D01*
X266358630Y-169918154D01*
X265358630Y-171346726D02*
X265358630Y-171156250D01*
X265406250Y-171061011D01*
X265453869Y-171013392D01*
X265596726Y-170918154D01*
X265787202Y-170870535D01*
X266168154Y-170870535D01*
X266263392Y-170918154D01*
X266311011Y-170965773D01*
X266358630Y-171061011D01*
X266358630Y-171251488D01*
X266311011Y-171346726D01*
X266263392Y-171394345D01*
X266168154Y-171441964D01*
X265930059Y-171441964D01*
X265834821Y-171394345D01*
X265787202Y-171346726D01*
X265739583Y-171251488D01*
X265739583Y-171061011D01*
X265787202Y-170965773D01*
X265834821Y-170918154D01*
X265930059Y-170870535D01*
%TO.C,D65*%
X361608630Y-245348214D02*
X360608630Y-245348214D01*
X360608630Y-245586309D01*
X360656250Y-245729166D01*
X360751488Y-245824404D01*
X360846726Y-245872023D01*
X361037202Y-245919642D01*
X361180059Y-245919642D01*
X361370535Y-245872023D01*
X361465773Y-245824404D01*
X361561011Y-245729166D01*
X361608630Y-245586309D01*
X361608630Y-245348214D01*
X360608630Y-246776785D02*
X360608630Y-246586309D01*
X360656250Y-246491071D01*
X360703869Y-246443452D01*
X360846726Y-246348214D01*
X361037202Y-246300595D01*
X361418154Y-246300595D01*
X361513392Y-246348214D01*
X361561011Y-246395833D01*
X361608630Y-246491071D01*
X361608630Y-246681547D01*
X361561011Y-246776785D01*
X361513392Y-246824404D01*
X361418154Y-246872023D01*
X361180059Y-246872023D01*
X361084821Y-246824404D01*
X361037202Y-246776785D01*
X360989583Y-246681547D01*
X360989583Y-246491071D01*
X361037202Y-246395833D01*
X361084821Y-246348214D01*
X361180059Y-246300595D01*
X360608630Y-247776785D02*
X360608630Y-247300595D01*
X361084821Y-247252976D01*
X361037202Y-247300595D01*
X360989583Y-247395833D01*
X360989583Y-247633928D01*
X361037202Y-247729166D01*
X361084821Y-247776785D01*
X361180059Y-247824404D01*
X361418154Y-247824404D01*
X361513392Y-247776785D01*
X361561011Y-247729166D01*
X361608630Y-247633928D01*
X361608630Y-247395833D01*
X361561011Y-247300595D01*
X361513392Y-247252976D01*
%TO.C,D51*%
X271121130Y-226298214D02*
X270121130Y-226298214D01*
X270121130Y-226536309D01*
X270168750Y-226679166D01*
X270263988Y-226774404D01*
X270359226Y-226822023D01*
X270549702Y-226869642D01*
X270692559Y-226869642D01*
X270883035Y-226822023D01*
X270978273Y-226774404D01*
X271073511Y-226679166D01*
X271121130Y-226536309D01*
X271121130Y-226298214D01*
X270121130Y-227774404D02*
X270121130Y-227298214D01*
X270597321Y-227250595D01*
X270549702Y-227298214D01*
X270502083Y-227393452D01*
X270502083Y-227631547D01*
X270549702Y-227726785D01*
X270597321Y-227774404D01*
X270692559Y-227822023D01*
X270930654Y-227822023D01*
X271025892Y-227774404D01*
X271073511Y-227726785D01*
X271121130Y-227631547D01*
X271121130Y-227393452D01*
X271073511Y-227298214D01*
X271025892Y-227250595D01*
X271121130Y-228774404D02*
X271121130Y-228202976D01*
X271121130Y-228488690D02*
X270121130Y-228488690D01*
X270263988Y-228393452D01*
X270359226Y-228298214D01*
X270406845Y-228202976D01*
%TO.C,D36*%
X261596130Y-207248214D02*
X260596130Y-207248214D01*
X260596130Y-207486309D01*
X260643750Y-207629166D01*
X260738988Y-207724404D01*
X260834226Y-207772023D01*
X261024702Y-207819642D01*
X261167559Y-207819642D01*
X261358035Y-207772023D01*
X261453273Y-207724404D01*
X261548511Y-207629166D01*
X261596130Y-207486309D01*
X261596130Y-207248214D01*
X260596130Y-208152976D02*
X260596130Y-208772023D01*
X260977083Y-208438690D01*
X260977083Y-208581547D01*
X261024702Y-208676785D01*
X261072321Y-208724404D01*
X261167559Y-208772023D01*
X261405654Y-208772023D01*
X261500892Y-208724404D01*
X261548511Y-208676785D01*
X261596130Y-208581547D01*
X261596130Y-208295833D01*
X261548511Y-208200595D01*
X261500892Y-208152976D01*
X260596130Y-209629166D02*
X260596130Y-209438690D01*
X260643750Y-209343452D01*
X260691369Y-209295833D01*
X260834226Y-209200595D01*
X261024702Y-209152976D01*
X261405654Y-209152976D01*
X261500892Y-209200595D01*
X261548511Y-209248214D01*
X261596130Y-209343452D01*
X261596130Y-209533928D01*
X261548511Y-209629166D01*
X261500892Y-209676785D01*
X261405654Y-209724404D01*
X261167559Y-209724404D01*
X261072321Y-209676785D01*
X261024702Y-209629166D01*
X260977083Y-209533928D01*
X260977083Y-209343452D01*
X261024702Y-209248214D01*
X261072321Y-209200595D01*
X261167559Y-209152976D01*
%TO.C,D20*%
X256833630Y-188198214D02*
X255833630Y-188198214D01*
X255833630Y-188436309D01*
X255881250Y-188579166D01*
X255976488Y-188674404D01*
X256071726Y-188722023D01*
X256262202Y-188769642D01*
X256405059Y-188769642D01*
X256595535Y-188722023D01*
X256690773Y-188674404D01*
X256786011Y-188579166D01*
X256833630Y-188436309D01*
X256833630Y-188198214D01*
X255928869Y-189150595D02*
X255881250Y-189198214D01*
X255833630Y-189293452D01*
X255833630Y-189531547D01*
X255881250Y-189626785D01*
X255928869Y-189674404D01*
X256024107Y-189722023D01*
X256119345Y-189722023D01*
X256262202Y-189674404D01*
X256833630Y-189102976D01*
X256833630Y-189722023D01*
X255833630Y-190341071D02*
X255833630Y-190436309D01*
X255881250Y-190531547D01*
X255928869Y-190579166D01*
X256024107Y-190626785D01*
X256214583Y-190674404D01*
X256452678Y-190674404D01*
X256643154Y-190626785D01*
X256738392Y-190579166D01*
X256786011Y-190531547D01*
X256833630Y-190436309D01*
X256833630Y-190341071D01*
X256786011Y-190245833D01*
X256738392Y-190198214D01*
X256643154Y-190150595D01*
X256452678Y-190102976D01*
X256214583Y-190102976D01*
X256024107Y-190150595D01*
X255928869Y-190198214D01*
X255881250Y-190245833D01*
X255833630Y-190341071D01*
%TO.C,D5*%
X247308630Y-169918154D02*
X246308630Y-169918154D01*
X246308630Y-170156250D01*
X246356250Y-170299107D01*
X246451488Y-170394345D01*
X246546726Y-170441964D01*
X246737202Y-170489583D01*
X246880059Y-170489583D01*
X247070535Y-170441964D01*
X247165773Y-170394345D01*
X247261011Y-170299107D01*
X247308630Y-170156250D01*
X247308630Y-169918154D01*
X246308630Y-171394345D02*
X246308630Y-170918154D01*
X246784821Y-170870535D01*
X246737202Y-170918154D01*
X246689583Y-171013392D01*
X246689583Y-171251488D01*
X246737202Y-171346726D01*
X246784821Y-171394345D01*
X246880059Y-171441964D01*
X247118154Y-171441964D01*
X247213392Y-171394345D01*
X247261011Y-171346726D01*
X247308630Y-171251488D01*
X247308630Y-171013392D01*
X247261011Y-170918154D01*
X247213392Y-170870535D01*
%TO.C,D64*%
X309221130Y-245348214D02*
X308221130Y-245348214D01*
X308221130Y-245586309D01*
X308268750Y-245729166D01*
X308363988Y-245824404D01*
X308459226Y-245872023D01*
X308649702Y-245919642D01*
X308792559Y-245919642D01*
X308983035Y-245872023D01*
X309078273Y-245824404D01*
X309173511Y-245729166D01*
X309221130Y-245586309D01*
X309221130Y-245348214D01*
X308221130Y-246776785D02*
X308221130Y-246586309D01*
X308268750Y-246491071D01*
X308316369Y-246443452D01*
X308459226Y-246348214D01*
X308649702Y-246300595D01*
X309030654Y-246300595D01*
X309125892Y-246348214D01*
X309173511Y-246395833D01*
X309221130Y-246491071D01*
X309221130Y-246681547D01*
X309173511Y-246776785D01*
X309125892Y-246824404D01*
X309030654Y-246872023D01*
X308792559Y-246872023D01*
X308697321Y-246824404D01*
X308649702Y-246776785D01*
X308602083Y-246681547D01*
X308602083Y-246491071D01*
X308649702Y-246395833D01*
X308697321Y-246348214D01*
X308792559Y-246300595D01*
X308554464Y-247729166D02*
X309221130Y-247729166D01*
X308173511Y-247491071D02*
X308887797Y-247252976D01*
X308887797Y-247872023D01*
%TO.C,D50*%
X252071130Y-225504464D02*
X251071130Y-225504464D01*
X251071130Y-225742559D01*
X251118750Y-225885416D01*
X251213988Y-225980654D01*
X251309226Y-226028273D01*
X251499702Y-226075892D01*
X251642559Y-226075892D01*
X251833035Y-226028273D01*
X251928273Y-225980654D01*
X252023511Y-225885416D01*
X252071130Y-225742559D01*
X252071130Y-225504464D01*
X251071130Y-226980654D02*
X251071130Y-226504464D01*
X251547321Y-226456845D01*
X251499702Y-226504464D01*
X251452083Y-226599702D01*
X251452083Y-226837797D01*
X251499702Y-226933035D01*
X251547321Y-226980654D01*
X251642559Y-227028273D01*
X251880654Y-227028273D01*
X251975892Y-226980654D01*
X252023511Y-226933035D01*
X252071130Y-226837797D01*
X252071130Y-226599702D01*
X252023511Y-226504464D01*
X251975892Y-226456845D01*
X251071130Y-227647321D02*
X251071130Y-227742559D01*
X251118750Y-227837797D01*
X251166369Y-227885416D01*
X251261607Y-227933035D01*
X251452083Y-227980654D01*
X251690178Y-227980654D01*
X251880654Y-227933035D01*
X251975892Y-227885416D01*
X252023511Y-227837797D01*
X252071130Y-227742559D01*
X252071130Y-227647321D01*
X252023511Y-227552083D01*
X251975892Y-227504464D01*
X251880654Y-227456845D01*
X251690178Y-227409226D01*
X251452083Y-227409226D01*
X251261607Y-227456845D01*
X251166369Y-227504464D01*
X251118750Y-227552083D01*
X251071130Y-227647321D01*
%TO.C,D35*%
X242546130Y-207248214D02*
X241546130Y-207248214D01*
X241546130Y-207486309D01*
X241593750Y-207629166D01*
X241688988Y-207724404D01*
X241784226Y-207772023D01*
X241974702Y-207819642D01*
X242117559Y-207819642D01*
X242308035Y-207772023D01*
X242403273Y-207724404D01*
X242498511Y-207629166D01*
X242546130Y-207486309D01*
X242546130Y-207248214D01*
X241546130Y-208152976D02*
X241546130Y-208772023D01*
X241927083Y-208438690D01*
X241927083Y-208581547D01*
X241974702Y-208676785D01*
X242022321Y-208724404D01*
X242117559Y-208772023D01*
X242355654Y-208772023D01*
X242450892Y-208724404D01*
X242498511Y-208676785D01*
X242546130Y-208581547D01*
X242546130Y-208295833D01*
X242498511Y-208200595D01*
X242450892Y-208152976D01*
X241546130Y-209676785D02*
X241546130Y-209200595D01*
X242022321Y-209152976D01*
X241974702Y-209200595D01*
X241927083Y-209295833D01*
X241927083Y-209533928D01*
X241974702Y-209629166D01*
X242022321Y-209676785D01*
X242117559Y-209724404D01*
X242355654Y-209724404D01*
X242450892Y-209676785D01*
X242498511Y-209629166D01*
X242546130Y-209533928D01*
X242546130Y-209295833D01*
X242498511Y-209200595D01*
X242450892Y-209152976D01*
%TO.C,D19*%
X237783630Y-188198214D02*
X236783630Y-188198214D01*
X236783630Y-188436309D01*
X236831250Y-188579166D01*
X236926488Y-188674404D01*
X237021726Y-188722023D01*
X237212202Y-188769642D01*
X237355059Y-188769642D01*
X237545535Y-188722023D01*
X237640773Y-188674404D01*
X237736011Y-188579166D01*
X237783630Y-188436309D01*
X237783630Y-188198214D01*
X237783630Y-189722023D02*
X237783630Y-189150595D01*
X237783630Y-189436309D02*
X236783630Y-189436309D01*
X236926488Y-189341071D01*
X237021726Y-189245833D01*
X237069345Y-189150595D01*
X237783630Y-190198214D02*
X237783630Y-190388690D01*
X237736011Y-190483928D01*
X237688392Y-190531547D01*
X237545535Y-190626785D01*
X237355059Y-190674404D01*
X236974107Y-190674404D01*
X236878869Y-190626785D01*
X236831250Y-190579166D01*
X236783630Y-190483928D01*
X236783630Y-190293452D01*
X236831250Y-190198214D01*
X236878869Y-190150595D01*
X236974107Y-190102976D01*
X237212202Y-190102976D01*
X237307440Y-190150595D01*
X237355059Y-190198214D01*
X237402678Y-190293452D01*
X237402678Y-190483928D01*
X237355059Y-190579166D01*
X237307440Y-190626785D01*
X237212202Y-190674404D01*
%TO.C,D4*%
X228258630Y-169918154D02*
X227258630Y-169918154D01*
X227258630Y-170156250D01*
X227306250Y-170299107D01*
X227401488Y-170394345D01*
X227496726Y-170441964D01*
X227687202Y-170489583D01*
X227830059Y-170489583D01*
X228020535Y-170441964D01*
X228115773Y-170394345D01*
X228211011Y-170299107D01*
X228258630Y-170156250D01*
X228258630Y-169918154D01*
X227591964Y-171346726D02*
X228258630Y-171346726D01*
X227211011Y-171108630D02*
X227925297Y-170870535D01*
X227925297Y-171489583D01*
%TO.C,D63*%
X223496130Y-245348214D02*
X222496130Y-245348214D01*
X222496130Y-245586309D01*
X222543750Y-245729166D01*
X222638988Y-245824404D01*
X222734226Y-245872023D01*
X222924702Y-245919642D01*
X223067559Y-245919642D01*
X223258035Y-245872023D01*
X223353273Y-245824404D01*
X223448511Y-245729166D01*
X223496130Y-245586309D01*
X223496130Y-245348214D01*
X222496130Y-246776785D02*
X222496130Y-246586309D01*
X222543750Y-246491071D01*
X222591369Y-246443452D01*
X222734226Y-246348214D01*
X222924702Y-246300595D01*
X223305654Y-246300595D01*
X223400892Y-246348214D01*
X223448511Y-246395833D01*
X223496130Y-246491071D01*
X223496130Y-246681547D01*
X223448511Y-246776785D01*
X223400892Y-246824404D01*
X223305654Y-246872023D01*
X223067559Y-246872023D01*
X222972321Y-246824404D01*
X222924702Y-246776785D01*
X222877083Y-246681547D01*
X222877083Y-246491071D01*
X222924702Y-246395833D01*
X222972321Y-246348214D01*
X223067559Y-246300595D01*
X222496130Y-247205357D02*
X222496130Y-247824404D01*
X222877083Y-247491071D01*
X222877083Y-247633928D01*
X222924702Y-247729166D01*
X222972321Y-247776785D01*
X223067559Y-247824404D01*
X223305654Y-247824404D01*
X223400892Y-247776785D01*
X223448511Y-247729166D01*
X223496130Y-247633928D01*
X223496130Y-247348214D01*
X223448511Y-247252976D01*
X223400892Y-247205357D01*
%TO.C,D49*%
X233021130Y-226298214D02*
X232021130Y-226298214D01*
X232021130Y-226536309D01*
X232068750Y-226679166D01*
X232163988Y-226774404D01*
X232259226Y-226822023D01*
X232449702Y-226869642D01*
X232592559Y-226869642D01*
X232783035Y-226822023D01*
X232878273Y-226774404D01*
X232973511Y-226679166D01*
X233021130Y-226536309D01*
X233021130Y-226298214D01*
X232354464Y-227726785D02*
X233021130Y-227726785D01*
X231973511Y-227488690D02*
X232687797Y-227250595D01*
X232687797Y-227869642D01*
X233021130Y-228298214D02*
X233021130Y-228488690D01*
X232973511Y-228583928D01*
X232925892Y-228631547D01*
X232783035Y-228726785D01*
X232592559Y-228774404D01*
X232211607Y-228774404D01*
X232116369Y-228726785D01*
X232068750Y-228679166D01*
X232021130Y-228583928D01*
X232021130Y-228393452D01*
X232068750Y-228298214D01*
X232116369Y-228250595D01*
X232211607Y-228202976D01*
X232449702Y-228202976D01*
X232544940Y-228250595D01*
X232592559Y-228298214D01*
X232640178Y-228393452D01*
X232640178Y-228583928D01*
X232592559Y-228679166D01*
X232544940Y-228726785D01*
X232449702Y-228774404D01*
%TO.C,D34*%
X223496130Y-207248214D02*
X222496130Y-207248214D01*
X222496130Y-207486309D01*
X222543750Y-207629166D01*
X222638988Y-207724404D01*
X222734226Y-207772023D01*
X222924702Y-207819642D01*
X223067559Y-207819642D01*
X223258035Y-207772023D01*
X223353273Y-207724404D01*
X223448511Y-207629166D01*
X223496130Y-207486309D01*
X223496130Y-207248214D01*
X222496130Y-208152976D02*
X222496130Y-208772023D01*
X222877083Y-208438690D01*
X222877083Y-208581547D01*
X222924702Y-208676785D01*
X222972321Y-208724404D01*
X223067559Y-208772023D01*
X223305654Y-208772023D01*
X223400892Y-208724404D01*
X223448511Y-208676785D01*
X223496130Y-208581547D01*
X223496130Y-208295833D01*
X223448511Y-208200595D01*
X223400892Y-208152976D01*
X222829464Y-209629166D02*
X223496130Y-209629166D01*
X222448511Y-209391071D02*
X223162797Y-209152976D01*
X223162797Y-209772023D01*
%TO.C,D18*%
X218733630Y-188198214D02*
X217733630Y-188198214D01*
X217733630Y-188436309D01*
X217781250Y-188579166D01*
X217876488Y-188674404D01*
X217971726Y-188722023D01*
X218162202Y-188769642D01*
X218305059Y-188769642D01*
X218495535Y-188722023D01*
X218590773Y-188674404D01*
X218686011Y-188579166D01*
X218733630Y-188436309D01*
X218733630Y-188198214D01*
X218733630Y-189722023D02*
X218733630Y-189150595D01*
X218733630Y-189436309D02*
X217733630Y-189436309D01*
X217876488Y-189341071D01*
X217971726Y-189245833D01*
X218019345Y-189150595D01*
X218162202Y-190293452D02*
X218114583Y-190198214D01*
X218066964Y-190150595D01*
X217971726Y-190102976D01*
X217924107Y-190102976D01*
X217828869Y-190150595D01*
X217781250Y-190198214D01*
X217733630Y-190293452D01*
X217733630Y-190483928D01*
X217781250Y-190579166D01*
X217828869Y-190626785D01*
X217924107Y-190674404D01*
X217971726Y-190674404D01*
X218066964Y-190626785D01*
X218114583Y-190579166D01*
X218162202Y-190483928D01*
X218162202Y-190293452D01*
X218209821Y-190198214D01*
X218257440Y-190150595D01*
X218352678Y-190102976D01*
X218543154Y-190102976D01*
X218638392Y-190150595D01*
X218686011Y-190198214D01*
X218733630Y-190293452D01*
X218733630Y-190483928D01*
X218686011Y-190579166D01*
X218638392Y-190626785D01*
X218543154Y-190674404D01*
X218352678Y-190674404D01*
X218257440Y-190626785D01*
X218209821Y-190579166D01*
X218162202Y-190483928D01*
%TO.C,D3*%
X209107030Y-169753054D02*
X208107030Y-169753054D01*
X208107030Y-169991150D01*
X208154650Y-170134007D01*
X208249888Y-170229245D01*
X208345126Y-170276864D01*
X208535602Y-170324483D01*
X208678459Y-170324483D01*
X208868935Y-170276864D01*
X208964173Y-170229245D01*
X209059411Y-170134007D01*
X209107030Y-169991150D01*
X209107030Y-169753054D01*
X208107030Y-170657816D02*
X208107030Y-171276864D01*
X208487983Y-170943530D01*
X208487983Y-171086388D01*
X208535602Y-171181626D01*
X208583221Y-171229245D01*
X208678459Y-171276864D01*
X208916554Y-171276864D01*
X209011792Y-171229245D01*
X209059411Y-171181626D01*
X209107030Y-171086388D01*
X209107030Y-170800673D01*
X209059411Y-170705435D01*
X209011792Y-170657816D01*
%TO.C,D62*%
X199582030Y-245146664D02*
X198582030Y-245146664D01*
X198582030Y-245384759D01*
X198629650Y-245527616D01*
X198724888Y-245622854D01*
X198820126Y-245670473D01*
X199010602Y-245718092D01*
X199153459Y-245718092D01*
X199343935Y-245670473D01*
X199439173Y-245622854D01*
X199534411Y-245527616D01*
X199582030Y-245384759D01*
X199582030Y-245146664D01*
X198582030Y-246575235D02*
X198582030Y-246384759D01*
X198629650Y-246289521D01*
X198677269Y-246241902D01*
X198820126Y-246146664D01*
X199010602Y-246099045D01*
X199391554Y-246099045D01*
X199486792Y-246146664D01*
X199534411Y-246194283D01*
X199582030Y-246289521D01*
X199582030Y-246479997D01*
X199534411Y-246575235D01*
X199486792Y-246622854D01*
X199391554Y-246670473D01*
X199153459Y-246670473D01*
X199058221Y-246622854D01*
X199010602Y-246575235D01*
X198962983Y-246479997D01*
X198962983Y-246289521D01*
X199010602Y-246194283D01*
X199058221Y-246146664D01*
X199153459Y-246099045D01*
X198677269Y-247051426D02*
X198629650Y-247099045D01*
X198582030Y-247194283D01*
X198582030Y-247432378D01*
X198629650Y-247527616D01*
X198677269Y-247575235D01*
X198772507Y-247622854D01*
X198867745Y-247622854D01*
X199010602Y-247575235D01*
X199582030Y-247003807D01*
X199582030Y-247622854D01*
%TO.C,D48*%
X213971130Y-226298214D02*
X212971130Y-226298214D01*
X212971130Y-226536309D01*
X213018750Y-226679166D01*
X213113988Y-226774404D01*
X213209226Y-226822023D01*
X213399702Y-226869642D01*
X213542559Y-226869642D01*
X213733035Y-226822023D01*
X213828273Y-226774404D01*
X213923511Y-226679166D01*
X213971130Y-226536309D01*
X213971130Y-226298214D01*
X213304464Y-227726785D02*
X213971130Y-227726785D01*
X212923511Y-227488690D02*
X213637797Y-227250595D01*
X213637797Y-227869642D01*
X213399702Y-228393452D02*
X213352083Y-228298214D01*
X213304464Y-228250595D01*
X213209226Y-228202976D01*
X213161607Y-228202976D01*
X213066369Y-228250595D01*
X213018750Y-228298214D01*
X212971130Y-228393452D01*
X212971130Y-228583928D01*
X213018750Y-228679166D01*
X213066369Y-228726785D01*
X213161607Y-228774404D01*
X213209226Y-228774404D01*
X213304464Y-228726785D01*
X213352083Y-228679166D01*
X213399702Y-228583928D01*
X213399702Y-228393452D01*
X213447321Y-228298214D01*
X213494940Y-228250595D01*
X213590178Y-228202976D01*
X213780654Y-228202976D01*
X213875892Y-228250595D01*
X213923511Y-228298214D01*
X213971130Y-228393452D01*
X213971130Y-228583928D01*
X213923511Y-228679166D01*
X213875892Y-228726785D01*
X213780654Y-228774404D01*
X213590178Y-228774404D01*
X213494940Y-228726785D01*
X213447321Y-228679166D01*
X213399702Y-228583928D01*
%TO.C,D33*%
X204369930Y-207148264D02*
X203369930Y-207148264D01*
X203369930Y-207386359D01*
X203417550Y-207529216D01*
X203512788Y-207624454D01*
X203608026Y-207672073D01*
X203798502Y-207719692D01*
X203941359Y-207719692D01*
X204131835Y-207672073D01*
X204227073Y-207624454D01*
X204322311Y-207529216D01*
X204369930Y-207386359D01*
X204369930Y-207148264D01*
X203369930Y-208053026D02*
X203369930Y-208672073D01*
X203750883Y-208338740D01*
X203750883Y-208481597D01*
X203798502Y-208576835D01*
X203846121Y-208624454D01*
X203941359Y-208672073D01*
X204179454Y-208672073D01*
X204274692Y-208624454D01*
X204322311Y-208576835D01*
X204369930Y-208481597D01*
X204369930Y-208195883D01*
X204322311Y-208100645D01*
X204274692Y-208053026D01*
X203369930Y-209005407D02*
X203369930Y-209624454D01*
X203750883Y-209291121D01*
X203750883Y-209433978D01*
X203798502Y-209529216D01*
X203846121Y-209576835D01*
X203941359Y-209624454D01*
X204179454Y-209624454D01*
X204274692Y-209576835D01*
X204322311Y-209529216D01*
X204369930Y-209433978D01*
X204369930Y-209148264D01*
X204322311Y-209053026D01*
X204274692Y-209005407D01*
%TO.C,D17*%
X199582030Y-187996664D02*
X198582030Y-187996664D01*
X198582030Y-188234759D01*
X198629650Y-188377616D01*
X198724888Y-188472854D01*
X198820126Y-188520473D01*
X199010602Y-188568092D01*
X199153459Y-188568092D01*
X199343935Y-188520473D01*
X199439173Y-188472854D01*
X199534411Y-188377616D01*
X199582030Y-188234759D01*
X199582030Y-187996664D01*
X199582030Y-189520473D02*
X199582030Y-188949045D01*
X199582030Y-189234759D02*
X198582030Y-189234759D01*
X198724888Y-189139521D01*
X198820126Y-189044283D01*
X198867745Y-188949045D01*
X198582030Y-189853807D02*
X198582030Y-190520473D01*
X199582030Y-190091902D01*
%TO.C,D2*%
X190069730Y-169905454D02*
X189069730Y-169905454D01*
X189069730Y-170143550D01*
X189117350Y-170286407D01*
X189212588Y-170381645D01*
X189307826Y-170429264D01*
X189498302Y-170476883D01*
X189641159Y-170476883D01*
X189831635Y-170429264D01*
X189926873Y-170381645D01*
X190022111Y-170286407D01*
X190069730Y-170143550D01*
X190069730Y-169905454D01*
X189164969Y-170857835D02*
X189117350Y-170905454D01*
X189069730Y-171000692D01*
X189069730Y-171238788D01*
X189117350Y-171334026D01*
X189164969Y-171381645D01*
X189260207Y-171429264D01*
X189355445Y-171429264D01*
X189498302Y-171381645D01*
X190069730Y-170810216D01*
X190069730Y-171429264D01*
%TO.C,D61*%
X175896530Y-245172064D02*
X174896530Y-245172064D01*
X174896530Y-245410159D01*
X174944150Y-245553016D01*
X175039388Y-245648254D01*
X175134626Y-245695873D01*
X175325102Y-245743492D01*
X175467959Y-245743492D01*
X175658435Y-245695873D01*
X175753673Y-245648254D01*
X175848911Y-245553016D01*
X175896530Y-245410159D01*
X175896530Y-245172064D01*
X174896530Y-246600635D02*
X174896530Y-246410159D01*
X174944150Y-246314921D01*
X174991769Y-246267302D01*
X175134626Y-246172064D01*
X175325102Y-246124445D01*
X175706054Y-246124445D01*
X175801292Y-246172064D01*
X175848911Y-246219683D01*
X175896530Y-246314921D01*
X175896530Y-246505397D01*
X175848911Y-246600635D01*
X175801292Y-246648254D01*
X175706054Y-246695873D01*
X175467959Y-246695873D01*
X175372721Y-246648254D01*
X175325102Y-246600635D01*
X175277483Y-246505397D01*
X175277483Y-246314921D01*
X175325102Y-246219683D01*
X175372721Y-246172064D01*
X175467959Y-246124445D01*
X175896530Y-247648254D02*
X175896530Y-247076826D01*
X175896530Y-247362540D02*
X174896530Y-247362540D01*
X175039388Y-247267302D01*
X175134626Y-247172064D01*
X175182245Y-247076826D01*
%TO.C,D47*%
X194921130Y-226298214D02*
X193921130Y-226298214D01*
X193921130Y-226536309D01*
X193968750Y-226679166D01*
X194063988Y-226774404D01*
X194159226Y-226822023D01*
X194349702Y-226869642D01*
X194492559Y-226869642D01*
X194683035Y-226822023D01*
X194778273Y-226774404D01*
X194873511Y-226679166D01*
X194921130Y-226536309D01*
X194921130Y-226298214D01*
X194254464Y-227726785D02*
X194921130Y-227726785D01*
X193873511Y-227488690D02*
X194587797Y-227250595D01*
X194587797Y-227869642D01*
X193921130Y-228155357D02*
X193921130Y-228822023D01*
X194921130Y-228393452D01*
%TO.C,D32*%
X185319930Y-207021264D02*
X184319930Y-207021264D01*
X184319930Y-207259359D01*
X184367550Y-207402216D01*
X184462788Y-207497454D01*
X184558026Y-207545073D01*
X184748502Y-207592692D01*
X184891359Y-207592692D01*
X185081835Y-207545073D01*
X185177073Y-207497454D01*
X185272311Y-207402216D01*
X185319930Y-207259359D01*
X185319930Y-207021264D01*
X184319930Y-207926026D02*
X184319930Y-208545073D01*
X184700883Y-208211740D01*
X184700883Y-208354597D01*
X184748502Y-208449835D01*
X184796121Y-208497454D01*
X184891359Y-208545073D01*
X185129454Y-208545073D01*
X185224692Y-208497454D01*
X185272311Y-208449835D01*
X185319930Y-208354597D01*
X185319930Y-208068883D01*
X185272311Y-207973645D01*
X185224692Y-207926026D01*
X184415169Y-208926026D02*
X184367550Y-208973645D01*
X184319930Y-209068883D01*
X184319930Y-209306978D01*
X184367550Y-209402216D01*
X184415169Y-209449835D01*
X184510407Y-209497454D01*
X184605645Y-209497454D01*
X184748502Y-209449835D01*
X185319930Y-208878407D01*
X185319930Y-209497454D01*
%TO.C,D16*%
X180595530Y-187945864D02*
X179595530Y-187945864D01*
X179595530Y-188183959D01*
X179643150Y-188326816D01*
X179738388Y-188422054D01*
X179833626Y-188469673D01*
X180024102Y-188517292D01*
X180166959Y-188517292D01*
X180357435Y-188469673D01*
X180452673Y-188422054D01*
X180547911Y-188326816D01*
X180595530Y-188183959D01*
X180595530Y-187945864D01*
X180595530Y-189469673D02*
X180595530Y-188898245D01*
X180595530Y-189183959D02*
X179595530Y-189183959D01*
X179738388Y-189088721D01*
X179833626Y-188993483D01*
X179881245Y-188898245D01*
X179595530Y-190326816D02*
X179595530Y-190136340D01*
X179643150Y-190041102D01*
X179690769Y-189993483D01*
X179833626Y-189898245D01*
X180024102Y-189850626D01*
X180405054Y-189850626D01*
X180500292Y-189898245D01*
X180547911Y-189945864D01*
X180595530Y-190041102D01*
X180595530Y-190231578D01*
X180547911Y-190326816D01*
X180500292Y-190374435D01*
X180405054Y-190422054D01*
X180166959Y-190422054D01*
X180071721Y-190374435D01*
X180024102Y-190326816D01*
X179976483Y-190231578D01*
X179976483Y-190041102D01*
X180024102Y-189945864D01*
X180071721Y-189898245D01*
X180166959Y-189850626D01*
%TO.C,D1*%
X171108630Y-169854654D02*
X170108630Y-169854654D01*
X170108630Y-170092750D01*
X170156250Y-170235607D01*
X170251488Y-170330845D01*
X170346726Y-170378464D01*
X170537202Y-170426083D01*
X170680059Y-170426083D01*
X170870535Y-170378464D01*
X170965773Y-170330845D01*
X171061011Y-170235607D01*
X171108630Y-170092750D01*
X171108630Y-169854654D01*
X171108630Y-171378464D02*
X171108630Y-170807035D01*
X171108630Y-171092750D02*
X170108630Y-171092750D01*
X170251488Y-170997511D01*
X170346726Y-170902273D01*
X170394345Y-170807035D01*
%TD*%
M02*
