M48
; DRILL file {KiCad (5.1.6)-1} date 08/08/20 01:29:54
; FORMAT={-:-/ absolute / inch / decimal}
; #@! TF.CreationDate,2020-08-08T01:29:54-04:00
; #@! TF.GenerationSoftware,Kicad,Pcbnew,(5.1.6)-1
; #@! TF.FileFunction,NonPlated,1,2,NPTH
FMAT,2
INCH
T1C0.0669
T2C0.1201
T3C0.1575
%
G90
G05
T1
X6.1437Y-6.625
X6.5438Y-6.625
X8.3937Y-6.625
X8.7937Y-6.625
X10.0812Y-8.875
X10.4812Y-8.875
X14.2062Y-8.125
X14.6062Y-8.125
X14.5812Y-8.875
X14.9812Y-8.875
X16.6438Y-9.625
X17.0437Y-9.625
X16.6438Y-8.875
X17.0437Y-8.875
X12.7062Y-8.125
X13.1062Y-8.125
X6.8937Y-6.625
X7.2938Y-6.625
X6.3312Y-7.375
X6.7313Y-7.375
X11.2062Y-8.125
X11.6062Y-8.125
X12.1437Y-6.625
X12.5437Y-6.625
X14.9562Y-8.125
X15.3562Y-8.125
X11.0187Y-7.375
X11.4187Y-7.375
X17.3938Y-6.625
X17.7937Y-6.625
X17.3938Y-8.125
X17.7937Y-8.125
X15.8937Y-9.625
X16.2937Y-9.625
X17.3938Y-7.375
X17.7937Y-7.375
X12.3312Y-8.875
X12.7312Y-8.875
X10.925Y-9.625
X11.325Y-9.625
X14.3937Y-9.625
X14.7937Y-9.625
X10.6437Y-6.625
X11.0437Y-6.625
X13.0812Y-8.875
X13.4812Y-8.875
X8.5812Y-8.875
X8.9812Y-8.875
X16.4563Y-7.375
X16.8562Y-7.375
X14.0187Y-7.375
X14.4187Y-7.375
X6.2375Y-9.625
X6.6375Y-9.625
X15.6125Y-8.875
X16.0125Y-8.875
X9.1437Y-6.625
X9.5437Y-6.625
X8.0187Y-7.375
X8.4187Y-7.375
X15.1437Y-6.625
X15.5437Y-6.625
X15.1437Y-9.625
X15.5437Y-9.625
X13.6437Y-6.625
X14.0437Y-6.625
X10.8312Y-8.875
X11.2312Y-8.875
X13.4562Y-8.125
X13.8562Y-8.125
X13.6437Y-9.625
X14.0437Y-9.625
X16.175Y-8.125
X16.575Y-8.125
X7.6437Y-6.625
X8.0437Y-6.625
X11.7687Y-7.375
X12.1687Y-7.375
X12.5187Y-7.375
X12.9187Y-7.375
X12.8937Y-6.625
X13.2937Y-6.625
X14.3937Y-6.625
X14.7937Y-6.625
X7.8312Y-8.875
X8.2312Y-8.875
X7.4562Y-8.125
X7.8563Y-8.125
X7.2687Y-7.375
X7.6688Y-7.375
X17.3938Y-9.625
X17.7937Y-9.625
X11.9562Y-8.125
X12.3562Y-8.125
X8.9562Y-8.125
X9.3562Y-8.125
X9.5187Y-7.375
X9.9187Y-7.375
X8.7687Y-7.375
X9.1687Y-7.375
X11.5812Y-8.875
X11.9812Y-8.875
X10.2687Y-7.375
X10.6687Y-7.375
X10.4562Y-8.125
X10.8562Y-8.125
X11.3937Y-6.625
X11.7937Y-6.625
X13.8312Y-8.875
X14.2312Y-8.875
X15.5187Y-7.375
X15.9187Y-7.375
X17.3938Y-8.875
X17.7937Y-8.875
X6.425Y-8.125
X6.825Y-8.125
X6.6125Y-8.875
X7.0125Y-8.875
X8.2062Y-8.125
X8.6062Y-8.125
X9.7062Y-8.125
X10.1062Y-8.125
X9.8937Y-6.625
X10.2937Y-6.625
X7.175Y-9.625
X7.575Y-9.625
X14.7687Y-7.375
X15.1687Y-7.375
X13.2687Y-7.375
X13.6687Y-7.375
X16.2688Y-6.625
X16.6687Y-6.625
X9.3312Y-8.875
X9.7312Y-8.875
X8.1125Y-9.625
X8.5125Y-9.625
T2
X15.9065Y-7.8494
X16.8435Y-7.8494
X6.344Y-8.5994
X7.281Y-8.5994
X16.0002Y-6.3494
X16.9373Y-6.3494
X9.1565Y-9.3494
X13.0935Y-9.3494
T3
X6.3438Y-6.625
X8.5938Y-6.625
X10.2812Y-8.875
X14.4062Y-8.125
X14.7812Y-8.875
X16.8438Y-9.625
X16.8438Y-8.875
X12.9062Y-8.125
X7.0938Y-6.625
X6.5312Y-7.375
X11.4062Y-8.125
X12.3438Y-6.625
X15.1562Y-8.125
X11.2188Y-7.375
X17.5938Y-6.625
X17.5938Y-8.125
X16.0938Y-9.625
X17.5938Y-7.375
X12.5312Y-8.875
X9.1565Y-9.9494
X11.125Y-9.625
X13.0935Y-9.9494
X14.5938Y-9.625
X10.8438Y-6.625
X13.2812Y-8.875
X8.7812Y-8.875
X16.6562Y-7.375
X14.2188Y-7.375
X6.4375Y-9.625
X15.8125Y-8.875
X9.3438Y-6.625
X8.2188Y-7.375
X15.3438Y-6.625
X15.3438Y-9.625
X13.8438Y-6.625
X11.0312Y-8.875
X13.6562Y-8.125
X13.8438Y-9.625
X15.9065Y-8.4494
X16.375Y-8.125
X16.8435Y-8.4494
X7.8438Y-6.625
X11.9688Y-7.375
X12.7188Y-7.375
X13.0938Y-6.625
X14.5938Y-6.625
X8.0312Y-8.875
X7.6562Y-8.125
X7.4688Y-7.375
X17.5938Y-9.625
X12.1562Y-8.125
X9.1562Y-8.125
X9.7188Y-7.375
X8.9688Y-7.375
X11.7812Y-8.875
X10.4688Y-7.375
X10.6562Y-8.125
X11.5938Y-6.625
X14.0312Y-8.875
X15.7188Y-7.375
X17.5938Y-8.875
X6.625Y-8.125
X6.344Y-9.1994
X6.8125Y-8.875
X7.281Y-9.1994
X8.4062Y-8.125
X9.9062Y-8.125
X10.0938Y-6.625
X7.375Y-9.625
X14.9688Y-7.375
X13.4688Y-7.375
X16.0002Y-6.9494
X16.4688Y-6.625
X16.9373Y-6.9494
X9.5312Y-8.875
X8.3125Y-9.625
T0
M30
