%TF.GenerationSoftware,KiCad,Pcbnew,(5.1.6)-1*%
%TF.CreationDate,2020-08-08T01:29:48-04:00*%
%TF.ProjectId,panama-keyboard,70616e61-6d61-42d6-9b65-79626f617264,w1*%
%TF.SameCoordinates,Original*%
%TF.FileFunction,Profile,NP*%
%FSLAX46Y46*%
G04 Gerber Fmt 4.6, Leading zero omitted, Abs format (unit mm)*
G04 Created by KiCad (PCBNEW (5.1.6)-1) date 2020-08-08 01:29:48*
%MOMM*%
%LPD*%
G01*
G04 APERTURE LIST*
%TA.AperFunction,Profile*%
%ADD10C,0.050000*%
%TD*%
G04 APERTURE END LIST*
D10*
X453231250Y-133350000D02*
G75*
G02*
X456406250Y-136525000I0J-3175000D01*
G01*
X456406250Y-254000000D02*
G75*
G02*
X453231250Y-257175000I-3175000J0D01*
G01*
X154781250Y-257175000D02*
G75*
G02*
X151606250Y-254000000I0J3175000D01*
G01*
X151606250Y-136525000D02*
G75*
G02*
X154781250Y-133350000I3175000J0D01*
G01*
X357981250Y-141287500D02*
G75*
G02*
X359568750Y-142875000I0J-1587500D01*
G01*
X352425000Y-142875000D02*
G75*
G02*
X354012500Y-141287500I1587500J0D01*
G01*
X254000000Y-141287500D02*
G75*
G02*
X255587500Y-142875000I0J-1587500D01*
G01*
X248443750Y-142875000D02*
G75*
G02*
X250031250Y-141287500I1587500J0D01*
G01*
X359568750Y-152400000D02*
X352425000Y-152400000D01*
X359568750Y-142875000D02*
X359568750Y-152400000D01*
X355996662Y-141287500D02*
X357981250Y-141287500D01*
X352425000Y-142875000D02*
X352425000Y-152400000D01*
X355996662Y-141287500D02*
X354012500Y-141287500D01*
X248443750Y-152400000D02*
X248443750Y-142875000D01*
X255587500Y-152400000D02*
X248443750Y-152400000D01*
X255587500Y-142875000D02*
X255587500Y-152400000D01*
X252015836Y-141287500D02*
X254000000Y-141287500D01*
X252015836Y-141287500D02*
X250031250Y-141287500D01*
X453231250Y-133350000D02*
X154781250Y-133350000D01*
X463550000Y-124206000D02*
X463550000Y-124206000D01*
X151606250Y-254000000D02*
X151606250Y-136525000D01*
X456406250Y-254000000D02*
X456406250Y-136525000D01*
X154781250Y-257175000D02*
X453231250Y-257175000D01*
M02*
