M48
; DRILL file {KiCad (5.1.6)-1} date 08/08/20 01:29:54
; FORMAT={-:-/ absolute / inch / decimal}
; #@! TF.CreationDate,2020-08-08T01:29:54-04:00
; #@! TF.GenerationSoftware,Kicad,Pcbnew,(5.1.6)-1
; #@! TF.FileFunction,Plated,1,2,PTH
FMAT,2
INCH
T1C0.0157
T2C0.0236
T3C0.0276
T4C0.0280
T5C0.0315
T6C0.0354
T7C0.0394
T8C0.0433
T9C0.0591
%
G90
G05
T1
X6.639Y-5.8297
X6.7812Y-5.7188
X6.8498Y-6.0404
X7.0938Y-6.0
X10.0312Y-5.3438
X10.1562Y-5.4062
X10.2188Y-5.4375
X10.2812Y-5.4688
X10.3438Y-5.5
X10.375Y-5.8125
X10.4375Y-5.7812
X10.6562Y-5.6875
X10.7188Y-5.7188
X10.75Y-5.6562
X11.4062Y-7.0
X11.5625Y-5.9375
X11.625Y-5.9688
X11.875Y-7.75
X11.9688Y-5.9688
X12.0312Y-5.9375
X12.0938Y-6.7188
X12.125Y-5.7188
X12.125Y-5.8438
X12.1562Y-7.1875
X12.2188Y-7.7188
X12.25Y-6.75
X12.25Y-7.2188
X13.5312Y-5.9688
X16.0Y-6.0625
X16.1875Y-6.2151
X16.7188Y-6.0625
X17.125Y-7.4062
X6.6095Y-5.4781
X6.6095Y-5.5312
X6.643Y-5.4781
X6.643Y-5.5312
X6.6764Y-5.4781
X6.6764Y-5.5312
X6.7099Y-5.4781
X6.7099Y-5.5312
X6.7434Y-5.4781
X6.7434Y-5.5312
X6.7768Y-5.4781
X6.7768Y-5.5312
X6.8103Y-5.4781
X6.8103Y-5.5312
X6.8438Y-5.4781
X6.8438Y-5.5312
T3
X8.9688Y-5.875
X9.1687Y-5.875
X7.4375Y-6.0
X7.6375Y-6.0
X7.8937Y-6.0
X8.0938Y-6.0
X13.1562Y-5.6437
X13.1562Y-5.8438
X8.9688Y-5.75
X9.1687Y-5.75
X8.9688Y-6.0
X9.1687Y-6.0
X7.8937Y-5.9062
X8.0938Y-5.9062
T4
X6.7812Y-5.875
X6.8442Y-5.6742
T5
X14.5938Y-7.2812
X14.5938Y-7.5812
X9.1562Y-8.7812
X9.1562Y-9.0812
X10.0938Y-7.2812
X10.0938Y-7.5812
X7.6562Y-8.7812
X7.6562Y-9.0812
X10.4688Y-6.5312
X10.4688Y-6.8312
X12.9062Y-8.7812
X12.9062Y-9.0812
X13.8438Y-7.2812
X13.8438Y-7.5812
X17.2188Y-6.4375
X17.2188Y-6.7375
X8.2188Y-6.5312
X8.2188Y-6.8312
X17.22Y-7.265
X17.22Y-7.565
X15.7188Y-9.5312
X15.7188Y-9.8312
X14.4062Y-8.7812
X14.4062Y-9.0812
X8.5938Y-7.2812
X8.5938Y-7.5812
X11.6625Y-6.175
X11.8594Y-6.175
X15.5312Y-8.0312
X15.5312Y-8.3312
X8.375Y-6.0
X8.675Y-6.0
X12.3438Y-7.2812
X12.3438Y-7.5812
X9.5312Y-8.0312
X9.5312Y-8.3312
X7.2812Y-8.0312
X7.2812Y-8.3312
X17.2188Y-9.5312
X17.2188Y-9.8312
X17.2188Y-8.3438
X17.2188Y-8.6437
X8.4062Y-8.7812
X8.4062Y-9.0812
X11.2188Y-6.5312
X11.2188Y-6.8312
X17.2188Y-8.75
X17.2188Y-9.05
X14.9688Y-6.5312
X14.9688Y-6.8312
X12.1562Y-9.5312
X12.1562Y-9.8312
X16.4688Y-9.5312
X16.4688Y-9.8312
X8.9688Y-6.5312
X8.9688Y-6.8312
X12.865Y-5.45
X13.0619Y-5.45
X6.7188Y-6.5312
X6.7188Y-6.8312
X13.2812Y-8.0312
X13.2812Y-8.3312
X15.7188Y-6.5938
X15.7188Y-6.8937
X7.8438Y-7.2812
X7.8438Y-7.5812
X11.4062Y-8.7812
X11.4062Y-9.0812
X14.7812Y-8.0312
X14.7812Y-8.3312
X11.7812Y-8.0312
X11.7812Y-8.3312
X8.7812Y-9.5312
X8.7812Y-9.8312
X6.5625Y-5.6875
X6.6412Y-5.6875
X12.7188Y-6.5312
X12.7188Y-6.8312
X10.2812Y-8.0312
X10.2812Y-8.3312
X6.9062Y-9.5312
X6.9062Y-9.8312
X10.8438Y-7.2812
X10.8438Y-7.5812
X16.4688Y-9.0625
X16.4688Y-9.3625
X14.0312Y-8.0312
X14.0312Y-8.3312
X17.065Y-7.265
X17.065Y-7.565
X14.2188Y-6.5312
X14.2188Y-6.8312
X8.7812Y-8.0312
X8.7812Y-8.3312
X11.7575Y-5.3213
X11.9544Y-5.3213
X9.7188Y-6.5312
X9.7188Y-6.8312
X14.2188Y-9.5312
X14.2188Y-9.8312
X12.5312Y-8.0312
X12.5312Y-8.3312
X13.4688Y-6.5312
X13.4688Y-6.8312
X16.4688Y-8.5938
X16.4688Y-8.8937
X7.8438Y-9.5312
X7.8438Y-9.8312
X11.5938Y-7.2812
X11.5938Y-7.5812
X17.2188Y-6.875
X17.2188Y-7.175
X15.3438Y-7.2812
X15.3438Y-7.5812
X11.9688Y-6.5312
X11.9688Y-6.8312
X9.3438Y-7.2812
X9.3438Y-7.5812
X7.0938Y-7.2812
X7.0938Y-7.5812
X13.6562Y-8.7812
X13.6562Y-9.0812
X16.0938Y-7.2812
X16.0938Y-7.5812
X8.0312Y-8.0312
X8.0312Y-8.3312
X14.9688Y-9.5312
X14.9688Y-9.8312
X12.9375Y-5.6516
X12.9375Y-5.8438
X15.7188Y-6.1562
X15.7188Y-6.4562
X15.1562Y-8.7812
X15.1562Y-9.0812
X9.9062Y-8.75
X9.9062Y-9.05
X12.1562Y-8.7812
X12.1562Y-9.0812
X8.375Y-5.875
X8.675Y-5.875
X12.865Y-6.05
X13.0619Y-6.05
X13.0938Y-7.2812
X13.0938Y-7.5812
X10.6562Y-8.7812
X10.6562Y-9.0812
X16.3125Y-8.7812
X16.3125Y-9.0812
X7.4688Y-6.5312
X7.4688Y-6.8312
X11.0312Y-8.0312
X11.0312Y-8.3312
X17.2188Y-7.9375
X17.2188Y-8.2375
X10.85Y-5.45
X10.85Y-6.05
X10.95Y-5.45
X10.95Y-6.05
X11.05Y-5.45
X11.05Y-6.05
X11.15Y-5.45
X11.15Y-6.05
X11.25Y-5.45
X11.25Y-6.05
X11.35Y-5.45
X11.35Y-6.05
X11.45Y-5.45
X11.45Y-6.05
X11.55Y-5.45
X11.55Y-6.05
X11.65Y-5.45
X11.65Y-6.05
X11.75Y-5.45
X11.75Y-6.05
X11.85Y-5.45
X11.85Y-6.05
X11.95Y-5.45
X11.95Y-6.05
X12.05Y-5.45
X12.05Y-6.05
X12.15Y-5.45
X12.15Y-6.05
X12.25Y-5.45
X12.25Y-6.05
X12.35Y-5.45
X12.35Y-6.05
X12.45Y-5.45
X12.45Y-6.05
X12.55Y-5.45
X12.55Y-6.05
X12.65Y-5.45
X12.65Y-6.05
X12.75Y-5.45
X12.75Y-6.05
T6
X17.1439Y-9.25
X17.1939Y-9.25
X17.2439Y-9.25
X17.2939Y-9.25
X17.2188Y-7.6685
X17.2188Y-7.7185
X17.2188Y-7.7685
X17.2188Y-7.8185
X17.2188Y-6.1621
X17.2188Y-6.2121
X17.2188Y-6.2621
X17.2188Y-6.3121
X6.7188Y-6.1625
X6.7188Y-6.2125
X6.7188Y-6.2625
X6.7188Y-6.3125
X13.375Y-9.25
X13.425Y-9.25
X13.475Y-9.25
X13.525Y-9.25
X13.9437Y-6.125
X13.9938Y-6.125
X14.0437Y-6.125
X14.0938Y-6.125
X6.9062Y-9.25
X6.9562Y-9.25
X7.0062Y-9.25
X7.0562Y-9.25
X7.0938Y-7.6875
X7.0938Y-7.7375
X7.0938Y-7.7875
X7.0938Y-7.8375
X9.8438Y-9.25
X9.8937Y-9.25
X9.9437Y-9.25
X9.9938Y-9.25
X9.85Y-6.125
X9.9Y-6.125
X9.95Y-6.125
X10.0Y-6.125
T7
X14.9985Y-5.5928
X14.9985Y-5.6928
X14.9985Y-5.7928
X14.9985Y-5.8928
X16.625Y-5.6562
X16.625Y-5.7547
X16.625Y-5.8531
X17.1959Y-5.6562
X17.1959Y-5.8531
X7.01Y-5.67
X7.11Y-5.67
X7.21Y-5.67
X7.31Y-5.67
X7.41Y-5.67
X7.51Y-5.67
T8
X7.9478Y-5.3438
X7.9478Y-5.5997
X8.125Y-5.3438
X8.125Y-5.5997
X7.6478Y-5.3438
X7.6478Y-5.5997
X7.825Y-5.3438
X7.825Y-5.5997
T9
X13.8812Y-8.775
X14.1312Y-8.675
X15.5687Y-7.275
X15.8187Y-7.175
X17.4437Y-8.775
X17.6937Y-8.675
X6.475Y-8.025
X6.725Y-7.925
X6.6625Y-8.775
X6.9125Y-8.675
X8.2562Y-8.025
X8.5062Y-7.925
X9.7562Y-8.025
X10.0062Y-7.925
X9.9437Y-6.525
X10.1937Y-6.425
X7.225Y-9.525
X7.475Y-9.425
X14.8187Y-7.275
X15.0687Y-7.175
X13.3187Y-7.275
X13.5687Y-7.175
X16.3187Y-6.525
X16.5687Y-6.425
X9.3812Y-8.775
X9.6312Y-8.675
X8.1625Y-9.525
X8.4125Y-9.425
X6.1937Y-6.525
X6.4437Y-6.425
X8.4437Y-6.525
X8.6937Y-6.425
X10.1312Y-8.775
X10.3812Y-8.675
X14.2562Y-8.025
X14.5062Y-7.925
X14.6312Y-8.775
X14.8812Y-8.675
X16.6937Y-9.525
X16.9437Y-9.425
X16.6937Y-8.775
X16.9437Y-8.675
X12.7562Y-8.025
X13.0062Y-7.925
X6.9437Y-6.525
X7.1937Y-6.425
X6.3812Y-7.275
X6.6312Y-7.175
X11.2562Y-8.025
X11.5062Y-7.925
X12.1937Y-6.525
X12.4437Y-6.425
X15.0062Y-8.025
X15.2562Y-7.925
X11.0687Y-7.275
X11.3187Y-7.175
X17.4437Y-6.525
X17.6937Y-6.425
X17.4437Y-8.025
X17.6937Y-7.925
X15.9437Y-9.525
X16.1937Y-9.425
X17.4437Y-7.275
X17.6937Y-7.175
X12.3812Y-8.775
X12.6312Y-8.675
X10.975Y-9.525
X11.225Y-9.425
X14.4437Y-9.525
X14.6937Y-9.425
X10.6937Y-6.525
X10.9437Y-6.425
X13.1312Y-8.775
X13.3812Y-8.675
X8.6312Y-8.775
X8.8812Y-8.675
X16.5062Y-7.275
X16.7562Y-7.175
X14.0687Y-7.275
X14.3187Y-7.175
X6.2875Y-9.525
X6.5375Y-9.425
X15.6625Y-8.775
X15.9125Y-8.675
X9.1937Y-6.525
X9.4437Y-6.425
X8.0687Y-7.275
X8.3187Y-7.175
X15.1937Y-6.525
X15.4437Y-6.425
X15.1937Y-9.525
X15.4437Y-9.425
X13.6937Y-6.525
X13.9437Y-6.425
X10.8812Y-8.775
X11.1312Y-8.675
X13.5062Y-8.025
X13.7562Y-7.925
X13.6937Y-9.525
X13.9437Y-9.425
X16.225Y-8.025
X16.475Y-7.925
X7.6937Y-6.525
X7.9437Y-6.425
X11.8187Y-7.275
X12.0687Y-7.175
X12.5687Y-7.275
X12.8187Y-7.175
X12.9437Y-6.525
X13.1937Y-6.425
X14.4437Y-6.525
X14.6937Y-6.425
X7.8812Y-8.775
X8.1312Y-8.675
X7.5062Y-8.025
X7.7562Y-7.925
X7.3187Y-7.275
X7.5687Y-7.175
X17.4437Y-9.525
X17.6937Y-9.425
X12.0062Y-8.025
X12.2562Y-7.925
X9.0062Y-8.025
X9.2562Y-7.925
X9.5687Y-7.275
X9.8187Y-7.175
X8.8187Y-7.275
X9.0687Y-7.175
X11.6312Y-8.775
X11.8812Y-8.675
X10.3187Y-7.275
X10.5687Y-7.175
X10.5062Y-8.025
X10.7562Y-7.925
X11.4437Y-6.525
X11.6937Y-6.425
T2
G00X6.5563Y-5.3753
M15
G01X6.5563Y-5.3438
M16
G05
G00X6.5563Y-5.5222
M15
G01X6.5563Y-5.4631
M16
G05
G00X6.8969Y-5.3753
M15
G01X6.8969Y-5.3438
M16
G05
G00X6.8969Y-5.5222
M15
G01X6.8969Y-5.4631
M16
G05
T9
G00X16.8947Y-5.5342
M15
G01X16.9459Y-5.5342
M16
G05
G00X16.8947Y-5.9751
M15
G01X16.9459Y-5.9751
M16
G05
T0
M30
